<svg id="Capa_1" data-name="Capa 1" xmlns="http://www.w3.org/2000/svg" viewBox="0 0 526.5 600.43"><defs><style>.cls-1,.cls-3{fill:#fff;}.cls-2{fill:#161616;}.cls-3{stroke:#161616;stroke-linecap:round;stroke-linejoin:round;stroke-width:8px;}</style></defs><path class="cls-1" d="M515.26,379.56l-41.8,32.06c-.82.62-.84.82-1.84.88-1.57-5.17-8.42-4.43-16.39-3.2l-5.46,1c-4.49-.52-16.21,1.65-2.59-9,14.67-11.49,41.92-33.22,51.91-41.11a5.07,5.07,0,0,1,7,.64L516,372.19A5.07,5.07,0,0,1,515.26,379.56Z"/><path class="cls-2" d="M471.62,415.5a3,3,0,0,1-2.87-2.13c-.76-2.49-5.36-2.29-13.06-1.1l-5.38,1a3.25,3.25,0,0,1-.88,0c-.63-.08-1.55-.08-2.52-.09-3.63,0-7.74-.07-8.89-3.45s2-6.62,7.31-10.82c9.6-7.51,24.59-19.41,36.62-29l15.28-12.12a8.09,8.09,0,0,1,11.08,1l9.94,11.36a8.07,8.07,0,0,1-1.17,11.73L475.29,414l-.34.26a4.83,4.83,0,0,1-3.15,1.23Zm-7.88-10.08c3.57,0,6.87.69,9,3l40.73-31.23h0a2.06,2.06,0,0,0,.29-3L503.8,362.8a2.08,2.08,0,0,0-2.85-.26l-15.26,12.11c-12.05,9.57-27,21.48-36.66,29a39.94,39.94,0,0,0-4,3.5c.7,0,1.43,0,1.95,0,1,0,1.86,0,2.68.08l5.05-.93A61.77,61.77,0,0,1,463.74,405.42Z"/><path class="cls-1" d="M427.7,468.85s23,.5,26.68-3.83,18.29-20.71,18.29-20.71l6.13-14.61,14.65-11.4,2.42-10.73-4.21-3.44-18,11.1-4.73-3.76-18.38,3-8.74-3.26L422,412.4l-10,3.94,7.82,8.2,5.9,9,3.53,9.7.8,13.27-3.78,9.72Z"/><path class="cls-2" d="M472.25,419.24a4,4,0,0,1-3.92-3.26,2.33,2.33,0,0,0-.08-.31,4,4,0,1,1,7.66-2.31,11,11,0,0,1,.28,1.13,4,4,0,0,1-3.19,4.67A3.82,3.82,0,0,1,472.25,419.24Z"/><path class="cls-2" d="M425.66,472.85a4,4,0,0,1-.09-8c4.26-.1,16.07-.54,21-1.38,5.48-2.58,23.94-14.82,28.53-35.57a4,4,0,0,1,7.81,1.73c-5.34,24.17-26.54,38.31-33.55,41.36a4.09,4.09,0,0,1-.84.26c-6.25,1.2-22.11,1.58-22.78,1.6Z"/><path class="cls-2" d="M479,432.77a4,4,0,0,1-1.89-7.53c12.27-6.54,13.17-11.8,13.77-15.28a1,1,0,0,0,0-.46c-1.27.61-3.81,2.07-5.92,3.29-3.18,1.83-7.13,4.12-10.94,6a4,4,0,1,1-3.58-7.15c3.6-1.8,7.28-3.93,10.52-5.8,4.34-2.51,6.68-3.83,8.28-4.3a7.42,7.42,0,0,1,6.86,1.8,8.51,8.51,0,0,1,2.66,8c-.75,4.4-2.16,12.6-17.89,21A4,4,0,0,1,479,432.77Z"/><path class="cls-2" d="M464.22,439.28a4,4,0,0,1-1.46-7.73c4.43-1.72,14.48-6.37,14.58-6.42a4,4,0,0,1,3.36,7.27c-.42.19-10.38,4.79-15,6.6A3.84,3.84,0,0,1,464.22,439.28Z"/><path class="cls-2" d="M446.05,427.43c-.39,0-.76,0-1.13,0a4,4,0,0,1,.63-8c5.18.4,18.09-4.58,25-7.81a4,4,0,1,1,3.39,7.25C472,419.77,455.32,427.43,446.05,427.43Z"/><path class="cls-1" d="M224,337.83c2.53,29.27,3.65,47.39.5,67.19,53.93,52,139.22,27.13,171.86,14.49,6.92-2.69,11.48-4.82,12.86-5.56.68.57,1.34,1.13,2,1.69a73.62,73.62,0,0,1,8.6,8.9c20.11,24.89,4.37,45.07,4.37,45.07l-13.54,1.79c-57.19,54.13-179.23,35.75-179.23,35.75l1.15,14.29,13.66,2.68,8.3.39a40.27,40.27,0,0,1,8.81,5.49c10.21.89,32.17,9.06,35.36,10.59,3.06.64,34.34,16.6,51.19,23,20.68,2.81,55.06,27.43,55.06,27.43l-392-3.51V509.06L15,498.72c-1.92-14.17,4.21-36,4.21-36s-1.79-25.28-1-41.36c-.87-11.92,8.45-83.89,11.28-105.3a4.39,4.39,0,0,0,3.77-3.4c6.26-24.44,13.67-39.32,20.24-50a16.63,16.63,0,0,1,5.65-5.6c8.47-5,21.3-16.37,30.26-24.72a9.21,9.21,0,0,1,13.81,1.54c10.3,14.9,34.65,33.71,40.35,42.46,6.2,9.53,39.87,50.17,48.69,60.78a10.84,10.84,0,0,0,5.3,3.47,6.57,6.57,0,0,0,1.88.27,6.49,6.49,0,0,0,5.28-10.15c-8.69-12.66-20.09-30.37-23.87-41.1-2.91-6.82-2.21-35.38-.58-65.89,1.7-1,6.2-2.11,7.42-2.43-.74,1.55-.38,3.76,1.72,6.85,7.46,11,12.33,45.06,15.77,63.41a5.27,5.27,0,0,0,8.6,3,14.15,14.15,0,0,1,7.45-3.28l9.22-1.15a9.31,9.31,0,0,1,3.07.12l11,2.28c.41.09.81.19,1.22.3l19.49,5.49a9.06,9.06,0,0,0,5.68-.27l1.11-.43a1.23,1.23,0,0,0,.08-2.27l-13-6.06a1.06,1.06,0,0,1-.5-1.45l0-.05a4.32,4.32,0,0,0-2.74-6.16c-29.1-8-41.62-40.56-45.69-54.29"/><path class="cls-2" d="M404.89,595h0l-392-3.51a4,4,0,0,1-4-4V509.06a4.15,4.15,0,0,1,.08-.79l2-9.7c-1.58-13.51,3.19-32.37,4.23-36.25-.29-4.21-1.68-26.08-1-40.92-.74-12.63,7.65-78.14,11.32-105.86a4,4,0,0,1,3.42-3.44c.3,0,.36-.13.44-.42,6.86-26.8,15.1-42,20.71-51.11a20.62,20.62,0,0,1,7-6.95c8.63-5.12,22.24-17.37,29.58-24.21a13.21,13.21,0,0,1,19.82,2.2c5.47,7.9,15.27,17.16,23.93,25.33,7.34,6.93,13.68,12.91,16.48,17.22,4.78,7.34,28.15,36,48.42,60.41a6.82,6.82,0,0,0,3.35,2.18,2.39,2.39,0,0,0,.75.11,2.49,2.49,0,0,0,2.15-1.37,2.32,2.32,0,0,0-.17-2.52c-8.9-13-20.33-30.76-24.3-41.92-1.85-4.47-3.57-16.39-.84-67.54a4,4,0,0,1,1.93-3.22,34.91,34.91,0,0,1,8.05-2.76l.42-.11a4,4,0,0,1,4.66,5.51,6.57,6.57,0,0,0,1.38,3c6.7,9.88,11.06,34.72,14.56,54.67.65,3.74,1.26,7.21,1.83,10.25a1.21,1.21,0,0,0,.82.95,1.23,1.23,0,0,0,1.26-.22,18.05,18.05,0,0,1,9.55-4.21l9.22-1.15a13.18,13.18,0,0,1,4.38.18l11,2.28c.51.11,1,.22,1.44.35l8.71,2.45a5,5,0,0,1-.78-1.44,5.12,5.12,0,0,1,.19-3.77.89.89,0,0,1,.08-.17l.07-.15s0-.07,0-.16a.44.44,0,0,0-.29-.25c-31-8.54-44.22-42.71-48.45-57a4,4,0,0,1,7.67-2.28c3.86,13,15.76,44.09,42.92,51.57a8.44,8.44,0,0,1,5.51,4.83,8.18,8.18,0,0,1,.61,4.13l10.77,5a5.24,5.24,0,0,1-.34,9.64l-1.09.42a13,13,0,0,1-8.2.4l-19.5-5.5-1-.24-10.93-2.27a5.15,5.15,0,0,0-1.75-.07l-9.23,1.15a10.19,10.19,0,0,0-5.35,2.35,9.28,9.28,0,0,1-15.13-5.33c-.57-3.07-1.19-6.58-1.85-10.34-3-17.17-7.56-43.1-13.3-51.56a18.75,18.75,0,0,1-2-3.67c-2.29,44.41-1.05,57.89.41,61.32a2.44,2.44,0,0,1,.1.24c2.83,8.06,11.14,22.32,23.39,40.17a10.29,10.29,0,0,1,.65,10.77,10.45,10.45,0,0,1-9.23,5.64,10.89,10.89,0,0,1-3-.43,14.83,14.83,0,0,1-7.24-4.75c-9.91-11.92-42.72-51.56-49-61.16-2.28-3.5-8.59-9.46-15.27-15.77-8.94-8.44-19.08-18-25-26.59a5,5,0,0,0-2.4-1.9,5.1,5.1,0,0,0-5.39,1c-9.25,8.62-22.13,20-30.94,25.23a12.75,12.75,0,0,0-4.29,4.26c-5.33,8.66-13.18,23.16-19.77,48.89a8.41,8.41,0,0,1-4,5.33c-5.78,43.9-11.6,93.07-10.94,102.09a3.85,3.85,0,0,1,0,.48c-.75,15.66,1,40.64,1,40.89A3.67,3.67,0,0,1,23,463.8C23,464,17.16,485,19,498.18a4,4,0,0,1-.05,1.34l-2,9.94v74.07l374.59,3.35c-11.58-7.31-29.74-17.66-42.18-19.34a4.29,4.29,0,0,1-.87-.23c-10-3.78-25.1-10.94-36.12-16.16-6.49-3.07-13.2-6.25-14.56-6.66a4.31,4.31,0,0,1-.83-.29c-2.79-1.34-24.25-9.37-34-10.21a4.08,4.08,0,0,1-2.24-.93,36.64,36.64,0,0,0-7.2-4.59l-7.51-.35a5.6,5.6,0,0,1-.59-.07l-13.66-2.68a4,4,0,0,1-3.21-3.61l-1.15-14.29A4,4,0,0,1,232,503.2c1.2.18,120.79,17.45,175.88-34.7a4,4,0,0,1,2.23-1.06l11.76-1.56c2.73-4.46,10.07-19.95-5.18-38.82a69.09,69.09,0,0,0-8.07-8.36c-2.31,1.07-5.95,2.65-10.8,4.54-15.13,5.86-45.55,15.89-79.23,17.25-40.15,1.61-72.73-9.35-96.85-32.59a4,4,0,0,1-1.18-3.51c3.14-19.71,1.89-38.16-.53-66.21a4,4,0,0,1,8-.69c2.39,27.68,3.66,46.25.78,66.06,54.08,50.07,140.7,22.09,166.15,12.23,6.43-2.5,11-4.61,12.41-5.35a4,4,0,0,1,4.46.46c.71.59,1.4,1.18,2.06,1.76a78.54,78.54,0,0,1,9.06,9.38c21.85,27.05,4.58,49.81,4.41,50a4,4,0,0,1-2.63,1.51l-12.27,1.62c-30.47,28.07-78,36.37-112.63,38.37a381.27,381.27,0,0,1-64-1.81l.51,6.34,10.39,2,8,.38a4,4,0,0,1,1.4.32,45.41,45.41,0,0,1,8.83,5.31C275.94,527.54,296,535,300,536.83c1.87.57,5.84,2.42,15.7,7.09,10.74,5.09,25.4,12,35.11,15.75,21.44,3.2,55,27.06,56.38,28.08a4,4,0,0,1-2.33,7.25ZM270.51,293.91h0Zm-8.42-4.32a.93.93,0,0,1,0,.1A.93.93,0,0,0,262.09,289.59Zm-3.59-1.78h0Zm2.14-2.14,0,0Z"/><path class="cls-2" d="M223.81,340.06a4,4,0,0,1-4-3.66l-1.39-15.8a4,4,0,1,1,8-.69l1.39,15.8a4,4,0,0,1-3.64,4.33Z"/><path class="cls-2" d="M224,341.83a4,4,0,0,1-4-3.66l-.15-1.76a4,4,0,1,1,8-.7l.15,1.78a4,4,0,0,1-3.64,4.33Z"/><path class="cls-1" d="M248.64,129.53c-3.24,3.74-5.36,12.08-5.36,12.08s.51,3.15,1.36,7.23c-3.66,8.72-8.1,18.45-9.32,20.9-2.79-6.41,6.89-24.25,6.89-24.25L195.4,131.8c2.61-2.28,5.75-5.14,10-8.65,8.1-7.7,32.6-21.73,42.39-27.21A33,33,0,0,1,251.92,94C252,97.38,252.23,124,248.64,129.53Z"/><path class="cls-2" d="M235.08,179.2l-3.42-7.86c-2.59-5.94,1.64-16.74,4.8-23.36l-49.19-14.39,5.5-4.8,2-1.81c2.23-2,4.74-4.19,7.93-6.83,8.15-7.67,30.47-20.64,43.09-27.7a37.93,37.93,0,0,1,4.64-2.17l5.37-2.08.07,5.76c.17,14.18-.37,32.23-3.91,37.74l-.34.45c-1.74,2-3.45,6.67-4.3,9.66,0,.29.12.65.19,1.08l.53.15-.37.69c.21,1.18.5,2.67.84,4.3l.25,1.21-.48,1.15c-3.81,9.08-8.23,18.72-9.43,21.13ZM203.51,130l35.93,10.51c.34-1.34,2.45-9,5.94-13.31,1.27-2.35,2.44-12,2.56-26.75-19.79,11.14-34.59,20.67-39.78,25.6l-.21.19C206.31,127.59,204.84,128.84,203.51,130Z"/><path class="cls-2" d="M179.59,228.32a3.86,3.86,0,0,1-1.2-.19,4,4,0,0,1-2.61-5,5.18,5.18,0,0,1,2.4-2.82,4.13,4.13,0,1,1,1.41,8Zm.64-4.6,2.05,3.44h0Zm3.17,1.82Zm0,0Z"/><path class="cls-3" d="M248.13,161.7a93.61,93.61,0,0,1-3.49-12.86c-3.66,8.72-8.1,18.45-9.32,20.9-2.79-6.41,6.89-24.25,6.89-24.25L195.4,131.8a61.84,61.84,0,0,1-5,4.08,12.34,12.34,0,0,0-5.2,9.47c-.71,14.21-3.32,47.3-5,78.37,1.7-1,6.2-2.11,7.42-2.43,2.11-4.44,13.34-3.25,18.63-1a4.41,4.41,0,0,1,1.47,1,22.6,22.6,0,0,0,6.06-1.29c7.72-5,7.15-17,7.15-17a15.93,15.93,0,0,1,5.17-3c3.51-1.47,3.25-6.45,2-7.53a6.47,6.47,0,0,0,6.06-5.37c-.12-8.42.88-10.59.88-10.59s2-.34,6.21-.6S250.93,169.1,248.13,161.7Zm-15.8-15.85a2.33,2.33,0,1,1-1.36-3A2.33,2.33,0,0,1,232.33,145.85Z"/><path class="cls-2" d="M251.92,98a4,4,0,0,1-4-4v-.33a4,4,0,1,1,8-.15V94A4,4,0,0,1,252,98Z"/><path class="cls-2" d="M262.25,90.21A47.43,47.43,0,0,1,254.84,93a30.32,30.32,0,0,0-2.92,1,33,33,0,0,0-4.13,1.93c-9.79,5.48-34.29,19.51-42.39,27.21-4.25,3.51-7.39,6.37-10,8.65a61.84,61.84,0,0,1-5,4.08,12.34,12.34,0,0,0-5.2,9.47c-.71,14.21-3.32,47.3-5,78.37-1.63,30.51-2.33,59.07.58,65.89,3.78,10.73,15.18,28.44,23.87,41.1a6.49,6.49,0,0,1-5.28,10.15,6.57,6.57,0,0,1-1.88-.27,10.84,10.84,0,0,1-5.3-3.47c-8.82-10.61-42.49-51.25-48.69-60.78-5.7-8.75-30-27.56-40.35-42.46a9.21,9.21,0,0,0-13.81-1.54c-9,8.35-21.79,19.69-30.26,24.72a16.63,16.63,0,0,0-5.65,5.6c-6.57,10.68-14,25.56-20.24,50a4.39,4.39,0,0,1-3.77,3.4c-2.66.36-5.62-1.43-5.3-4.84a4.23,4.23,0,0,1,.15-.8,63.65,63.65,0,0,0,1.67-7.9,17,17,0,0,0-.19-6.4,61.39,61.39,0,0,1,3.88-37c8.42-19.72,60-154.36,73.61-197.5a51.82,51.82,0,0,1,12-20.38c15.76-16.39,34.17-30,55.07-30.67,25.53-.77,62.3,19.66,73.79,42.13S267.23,87,262.25,90.21Z"/><path class="cls-2" d="M199.4,344.86a10.89,10.89,0,0,1-3-.43,14.83,14.83,0,0,1-7.24-4.75c-9.91-11.92-42.72-51.56-49-61.16-2.28-3.5-8.59-9.46-15.27-15.77-8.94-8.44-19.08-18-25-26.59a5,5,0,0,0-2.4-1.9,5.1,5.1,0,0,0-5.39,1c-9.25,8.62-22.13,20-30.94,25.23a12.75,12.75,0,0,0-4.29,4.26c-5.33,8.66-13.18,23.16-19.77,48.89A8.39,8.39,0,0,1,30,320a8.93,8.93,0,0,1-7.36-2.33,8.19,8.19,0,0,1-2.46-6.84,8.11,8.11,0,0,1,.31-1.6A57.21,57.21,0,0,0,22,301.88a12.71,12.71,0,0,0-.14-4.88A65.76,65.76,0,0,1,26,257.53C33.55,239.8,85.71,103.89,99.46,60.4a56.14,56.14,0,0,1,12.93-21.95c20.09-20.9,39-31.33,57.83-31.9,27.75-.85,65.4,20.7,77.47,44.31,4.25,8.3,8.53,15.15,12,20.66a97,97,0,0,1,6.61,11.55c2.58,6.05.42,9.06-1.85,10.51a4.09,4.09,0,0,1-.46.25,52.44,52.44,0,0,1-8,3.06,26.14,26.14,0,0,0-2.55.85,30.12,30.12,0,0,0-3.62,1.7C229.05,111,213.51,121,208.16,126.05l-.21.19c-3.13,2.58-5.63,4.79-7.83,6.73-.73.65-1.43,1.27-2.09,1.84a65.39,65.39,0,0,1-5.33,4.34,8.29,8.29,0,0,0-3.51,6.4c-.3,6.06-1,15.63-1.71,26.72-1,15-2.31,33.79-3.25,51.66-2.49,46.64-1.23,60.61.26,64.11a2.44,2.44,0,0,1,.1.24c2.83,8.06,11.14,22.32,23.39,40.17a10.29,10.29,0,0,1,.65,10.77A10.45,10.45,0,0,1,199.4,344.86Zm-103.85-119a13.25,13.25,0,0,1,4.84.93,13,13,0,0,1,6.08,4.8c5.47,7.9,15.27,17.16,23.93,25.33,7.34,6.93,13.68,12.91,16.48,17.22,4.78,7.34,28.15,36,48.42,60.41a6.82,6.82,0,0,0,3.35,2.18,2.39,2.39,0,0,0,.75.11,2.49,2.49,0,0,0,2.15-1.37,2.32,2.32,0,0,0-.17-2.52c-8.9-13-20.33-30.76-24.3-41.92-1.85-4.47-3.57-16.39-.84-67.54.95-17.93,2.23-36.7,3.25-51.78.76-11,1.41-20.59,1.71-26.58a16.25,16.25,0,0,1,6.89-12.54c1.46-1,3.11-2.44,4.67-3.81l2.06-1.82c2.23-2,4.74-4.19,7.93-6.83,8.15-7.67,30.47-20.64,43.09-27.7a37.93,37.93,0,0,1,4.64-2.17,33.85,33.85,0,0,1,3.31-1.11,41.63,41.63,0,0,0,5.5-2c-.7-2.24-3.72-7.08-6.42-11.41-3.52-5.64-7.9-12.65-12.3-21.26C230.08,34,194.7,13.83,170.46,14.55c-16.62.5-33.73,10.13-52.3,29.44a48,48,0,0,0-11.07,18.82C93.18,106.78,41.76,241,33.34,260.67a57.43,57.43,0,0,0-3.65,34.57,20.84,20.84,0,0,1,.23,7.91,62.6,62.6,0,0,1-1.8,8.47s0,.25.05.3a1,1,0,0,0,.75.18c.29,0,.35-.13.43-.42,6.86-26.8,15.1-42,20.71-51.11a20.62,20.62,0,0,1,7-6.95c8.63-5.12,22.24-17.37,29.58-24.21A13,13,0,0,1,95.55,225.88ZM262.25,90.21h0Z"/><path class="cls-2" d="M244.64,152.84a4,4,0,0,1-3.68-5.55c3-7.16,4.17-10.54,4.63-12.09a4,4,0,0,1,1.47-4.6,4.26,4.26,0,0,1,5.21.06c2.68,2.16,1.46,5.64.16,9.32-.9,2.58-2.28,6.08-4.1,10.4A4,4,0,0,1,244.64,152.84Z"/><path class="cls-2" d="M195.4,135.8a3.94,3.94,0,0,1-1.12-.16L178.47,131a4,4,0,1,1,2.25-7.68l15.8,4.62a4,4,0,0,1-1.12,7.84Z"/><path d="M237.81,132.17c-3-1.17-5.3-2.09-8.78-.89-.84.29-1.56-.52-1-1.18,1.78-2.23,4.63-5.34,7.56-6.74,2.26-1.08,4.49-.18,5,2C241.82,130.58,241.23,133.5,237.81,132.17Z"/><path class="cls-2" d="M239.26,133a4.51,4.51,0,0,1-1.63-.36l-.13,0c-2.93-1.13-5.05-2-8.31-.82a1.43,1.43,0,0,1-1.65-.49,1.2,1.2,0,0,1,.07-1.48c1.87-2.35,4.74-5.45,7.74-6.88a4.38,4.38,0,0,1,3.78-.14,3.55,3.55,0,0,1,1.92,2.44c.93,3.89.82,6.26-.34,7.27A2.12,2.12,0,0,1,239.26,133Zm-7.08-2.78a15.61,15.61,0,0,1,5.69,1.44l.12,0c1,.38,1.66.38,2.06,0s1.11-1.78,0-6.29a2.56,2.56,0,0,0-1.38-1.77,3.39,3.39,0,0,0-2.92.14c-3,1.42-5.91,4.75-7.39,6.6-.08.11-.09.2,0,.28a.42.42,0,0,0,.5.12A10.08,10.08,0,0,1,232.18,130.21Z"/><path class="cls-2" d="M213.4,195a3,3,0,0,1-2.86-3.91c.09-.28,2.28-6.9,8.27-8.14A3,3,0,0,1,220,188.8c-2.5.52-3.76,4.08-3.77,4.11A3,3,0,0,1,213.4,195Z"/><path class="cls-2" d="M98.94,234.53a4,4,0,0,1-4-3.91c-.35-15.43-.37-68.09,14-98a4,4,0,1,1,7.21,3.47c-14,29-13.48,83.66-13.24,94.32A4,4,0,0,1,99,234.53Z"/><path class="cls-2" d="M272,297.64l-1.11.43a9.06,9.06,0,0,1-5.68.27l-19.49-5.49c-.41-.11-.81-.21-1.22-.3l-11-2.28a9.31,9.31,0,0,0-3.07-.12l-9.22,1.15a14.15,14.15,0,0,0-7.45,3.28,5.27,5.27,0,0,1-8.6-3c-3.44-18.35-8.31-52.41-15.77-63.41-2.1-3.09-2.46-5.3-1.72-6.85,3.45-.9,8.64-.19,9.63-.1a58.67,58.67,0,0,0,10.47.08,4.86,4.86,0,0,1,1.26,2.24c.26,1,.61,2.32,1.06,3.85,4.07,13.73,16.59,46.27,45.69,54.29a4.32,4.32,0,0,1,2.74,6.16l0,.05a1.06,1.06,0,0,0,.5,1.45l13,6.06A1.23,1.23,0,0,1,272,297.64Z"/><path class="cls-2" d="M267.6,302.68a13.2,13.2,0,0,1-3.51-.48l-19.5-5.5-1-.24-10.93-2.27a5.42,5.42,0,0,0-1.75-.07l-9.23,1.15a10.19,10.19,0,0,0-5.35,2.35,9.28,9.28,0,0,1-15.13-5.33c-.57-3.07-1.19-6.58-1.85-10.34-3-17.17-7.56-43.1-13.3-51.56-2.8-4.12-3.48-7.76-2-10.82a4,4,0,0,1,2.6-2.15c3.41-.89,7.7-.57,10.63-.25l.37,0a54,54,0,0,0,9.73.08,4,4,0,0,1,3.23,1.18,8.9,8.9,0,0,1,2.3,4.08c.32,1.25.65,2.47,1,3.68,3.86,13,15.76,44.08,42.92,51.56a8.44,8.44,0,0,1,5.51,4.83,8.18,8.18,0,0,1,.61,4.13l10.77,5a5.24,5.24,0,0,1-.33,9.63l-1.1.43A13.13,13.13,0,0,1,267.6,302.68Zm2.93-8.77h0ZM192,224.84c.17.31.39.66.65,1,6.7,9.88,11.06,34.72,14.56,54.67.65,3.74,1.26,7.21,1.83,10.25a1.21,1.21,0,0,0,.82.95,1.23,1.23,0,0,0,1.26-.22,18.05,18.05,0,0,1,9.55-4.21l9.22-1.15a13.18,13.18,0,0,1,4.38.18l11,2.28c.51.11,1,.22,1.44.35l8.71,2.45a5,5,0,0,1-.78-1.44,5.12,5.12,0,0,1,.19-3.77.89.89,0,0,1,.08-.17l.07-.15s0-.07,0-.16a.44.44,0,0,0-.29-.25c-31-8.54-44.22-42.71-48.45-57-.3-1-.58-2-.86-3.07a64.25,64.25,0,0,1-8.46-.26l-.51,0C194.74,224.94,193.27,224.85,192,224.84Zm70.06,64.75a.93.93,0,0,1,0,.1A.93.93,0,0,0,262.09,289.59Zm-3.59-1.78h0Zm2.14-2.14,0,0Z"/><path class="cls-2" d="M231.37,511.15a4.38,4.38,0,0,1-.88-.09c-1-.23-24.66-5.6-55.17-18.88-28.24-12.29-67.7-33.93-95.37-67.24a4,4,0,1,1,6.15-5.11c51.09,61.5,145.19,83.21,146.14,83.42a4,4,0,0,1-.87,7.9Z"/><path class="cls-2" d="M224.47,409a4,4,0,0,1-3-1.4C220,406,186.81,367,177.82,342.23a4,4,0,1,1,7.52-2.73c8.5,23.38,41.84,62.53,42.17,62.92a4,4,0,0,1-.44,5.64A4,4,0,0,1,224.47,409Z"/><path class="cls-2" d="M61.58,322.72a4,4,0,0,1-4-3.94c-.55-38,39.92-48.27,40.33-48.37a4,4,0,0,1,1.89,7.77c-1.42.35-34.68,8.93-34.22,40.49a4,4,0,0,1-3.95,4.05Z"/><path class="cls-2" d="M230.15,151.37a6.32,6.32,0,1,1,2.63-.57A6.39,6.39,0,0,1,230.15,151.37Zm-1.56-6.92a1.67,1.67,0,1,0,.87-.93A1.66,1.66,0,0,0,228.59,144.45Z"/><path class="cls-1" d="M173.69,156.15s-6.5,2.76-8.45-3.1c-.69-2.05-7.44-3.44-4.34-16.94s16.78-4.66,16.78-4.66S172.52,146.55,173.69,156.15Z"/><path class="cls-2" d="M170.37,157.3a6.23,6.23,0,0,1-2.6-.52,5.64,5.64,0,0,1-3-3.58,4.06,4.06,0,0,0-1.08-1.23c-2-1.84-5.73-5.26-3.27-16,.86-3.78,2.63-6.23,5.25-7.3,5.27-2.14,12,2.14,12.29,2.33l.33.21-.13.37c-.05.15-5.11,15.11-4,24.48l.05.37-.35.15A9.91,9.91,0,0,1,170.37,157.3Zm-1.47-28.19a7.6,7.6,0,0,0-2.87.52c-2.3.94-3.86,3.15-4.65,6.59-2.32,10.15,1,13.19,3,15a4.51,4.51,0,0,1,1.36,1.66,4.71,4.71,0,0,0,2.46,3,7.37,7.37,0,0,0,5-.05c-.91-8.86,3.13-21.73,3.93-24.15C176,131,172.4,129.11,168.9,129.11Z"/><path class="cls-2" d="M412,419.34a3,3,0,0,1-1.56-5.57c.76-.45,18.32-10.89,33.91-5.12,9-2,27.84-5.28,30.78,2.93a3,3,0,0,1-5.65,2s-1.57-2-11.85-1a110.37,110.37,0,0,0-12.82,2.12,3,3,0,0,1-1.83-.15c-13-5.38-29.27,4.26-29.44,4.36A3,3,0,0,1,412,419.34Z"/></svg>