<svg id="Capa_1" data-name="Capa 1" xmlns="http://www.w3.org/2000/svg" viewBox="0 0 295.32 174.98"><defs><style>.cls-1{fill:#fff;}.cls-2{fill:#161616;}</style></defs><path class="cls-1" d="M288.64,126c-1.12,2.14-3.06,3.12-7.66,2.48a17.51,17.51,0,0,0-3.07-.17c-2.75.09-5,.21-6.61.3a.8.8,0,0,0-.33,1.5c2.11,1.12,4.74,2.65,4.88,3.5.17,1,3.79,8.43,2.53,14.84,0,0-4.88,28.61-44.72,15.45a33,33,0,0,1-9.8-4.82c-8.68-8.3-15.62-24.43,1.23-37.44,0,0,10.09-6,17.41-6.33,6.36-.26,35.6,3,44.57,6.47A3,3,0,0,1,288.64,126Z"/><path class="cls-2" d="M252.57,170.4a64.13,64.13,0,0,1-19.85-3.62,36.38,36.38,0,0,1-10.63-5.24,3.88,3.88,0,0,1-.31-.26c-6.64-6.35-10.37-14.76-10-22.48.38-7.38,4.23-13.94,11.43-19.51a3.13,3.13,0,0,1,.3-.2c.44-.26,10.84-6.44,18.84-6.75,6.39-.27,36.05,3,45.75,6.67a6,6,0,0,1,3.15,8.42c-2.43,4.64-7.29,4.53-10.73,4a14.86,14.86,0,0,0-2.55-.14h0a3.92,3.92,0,0,1,.82,1.68c.06.2.17.48.3.85,1,2.75,3.41,9.2,2.23,15.19a26.89,26.89,0,0,1-12.21,17.14A31.5,31.5,0,0,1,252.57,170.4Zm-26.79-13.59a30.75,30.75,0,0,0,8.76,4.25c13.45,4.44,24,4.45,31.4.05A21.19,21.19,0,0,0,275.42,148c.87-4.39-1.11-9.73-1.95-12-.16-.41-.28-.74-.37-1a23.45,23.45,0,0,0-3.53-2.14,3.8,3.8,0,0,1,1.58-7.15c2.08-.12,4.33-.22,6.66-.3a22,22,0,0,1,3.58.19c3.84.55,4.28-.29,4.59-.89h0s0,0,0,0c-8.69-3.31-37.6-6.48-43.36-6.27-5.27.21-13.07,4.19-15.85,5.82-5.66,4.42-8.68,9.46-9,15C217.49,145.06,220.47,151.66,225.78,156.81Zm53-23.73s0,0,0,.08S278.8,133.11,278.8,133.08Zm-7.3-1.45h0Zm.84-4.16.05,0Z"/><path class="cls-2" d="M239.46,153a3,3,0,0,1-1.79-5.42A11.77,11.77,0,0,0,240.4,144a9.63,9.63,0,0,1,1.68-2.4,3,3,0,0,1,2.56-.76c12.71,2.23,13.54-.69,14.1-3.09,0-.06,0-.08-.07-.17-1.57-2.16-10-3.25-12.76-3.61a24.3,24.3,0,0,1-2.92-.46c-1.19,0-5.32,1.29-9,2.75a3,3,0,1,1-2.21-5.58c9.92-3.92,12.14-3.18,12.87-2.94.2,0,1.23.18,2.05.28,6.65.86,14,2.11,16.84,6a6.16,6.16,0,0,1,1.11,4.84.89.89,0,0,1,0,.14c-1.45,6.29-5.31,10.08-19,8.05a16.82,16.82,0,0,1-4.32,5.42A3,3,0,0,1,239.46,153Z"/><path class="cls-1" d="M7.87,7C35.34,1.89,96.46,57.5,110.5,64.22,129,73.1,211.23,116.6,224.91,120.56c-16.85,13-9.92,29.15-1.23,37.45a27.65,27.65,0,0,0,3.11,2.6c-14.2,7.52-62.22-4-92.24-16.67-25.35-10.72-92.51-34.1-106-39.4"/><path class="cls-2" d="M213.06,166.92c-22.36,0-57.75-9.86-80.07-19.3-16.51-7-51.25-19.5-76.63-28.65-13.73-5-24.58-8.86-29.28-10.71A4,4,0,0,1,30,100.81c4.6,1.81,15.4,5.7,29.08,10.63,25.45,9.18,60.32,21.75,77,28.82,26.53,11.22,65.3,20.55,82.7,18.46-5.53-6.23-8.55-13.93-8.17-21.08A25.2,25.2,0,0,1,217.47,122c-15.49-6.59-49.25-23.89-77.2-38.22-13.85-7.09-25.81-13.22-31.5-16-4.24-2-11.48-7.45-21.49-14.94C64.64,35.94,26.73,7.56,8.61,11A4,4,0,1,1,7.14,3.08c21.57-4,58.2,23.39,84.94,43.41,8.91,6.67,16.61,12.43,20.15,14.13,5.78,2.77,17.79,8.92,31.69,16C173,91.57,217,114.09,226,116.72a4,4,0,0,1,1.33,7c-5.51,4.26-8.45,9.08-8.72,14.33-.3,5.72,2.62,12.09,7.81,17.06a24.85,24.85,0,0,0,2.68,2.24,4,4,0,0,1-.46,6.79C225,166.08,219.58,166.92,213.06,166.92Z"/></svg>