<svg id="Capa_1" data-name="Capa 1" xmlns="http://www.w3.org/2000/svg" xmlns:xlink="http://www.w3.org/1999/xlink" viewBox="0 0 1920 1080"><defs><style>.cls-1,.cls-20,.cls-25,.cls-37,.cls-8{fill:none;}.cls-2{clip-path:url(#clip-path);}.cls-3{fill:url(#Degradado_sin_nombre_11);}.cls-4{fill:#445887;}.cls-5,.cls-7{opacity:0.2;}.cls-5{fill:url(#Degradado_sin_nombre_21);}.cls-6{fill:#333865;}.cls-7{fill:url(#Degradado_sin_nombre_17);}.cls-8{stroke:#282a54;}.cls-20,.cls-25,.cls-37,.cls-8{stroke-miterlimit:10;}.cls-9{fill:#ffe839;opacity:0.25;}.cls-10{fill:#282a54;}.cls-11{fill:#1c1e3a;}.cls-12{fill:#3b4c7b;}.cls-13,.cls-17{fill:#ffd60a;}.cls-14{fill:#ffc300;}.cls-15,.cls-18,.cls-27,.cls-38,.cls-39,.cls-40{opacity:0.5;}.cls-15{fill:url(#Degradado_sin_nombre_27);}.cls-16{fill:#1f1f3f;}.cls-17,.cls-23{opacity:0.3;}.cls-18{fill:url(#Degradado_sin_nombre_26);}.cls-19{fill:#d7f7ff;}.cls-20,.cls-25{stroke:#1f1f3f;}.cls-20{stroke-width:2px;}.cls-21{fill:#370617;}.cls-22{fill:#6d0c34;}.cls-24,.cls-27{fill:#fff;}.cls-26{fill:#4e68a0;}.cls-28{fill:#ff5938;}.cls-29{fill:#7fc296;}.cls-30{fill:#435c62;}.cls-31{fill:#324c3a;}.cls-32{fill:#598869;}.cls-33{fill:#dfe2dd;}.cls-34{fill:#c1c1c1;}.cls-35{fill:#f5f1ef;}.cls-36{fill:#324649;}.cls-37{stroke:#604242;}.cls-39{fill:url(#Degradado_sin_nombre_26-2);}.cls-40{fill:url(#Degradado_sin_nombre_28);}</style><clipPath id="clip-path"><rect class="cls-1" width="1920" height="1080"/></clipPath><linearGradient id="Degradado_sin_nombre_11" x1="960.56" y1="-40.45" x2="960.56" y2="1047.56" gradientUnits="userSpaceOnUse"><stop offset="0.04" stop-color="#ffe839"/><stop offset="0.08" stop-color="#ffdf39"/><stop offset="0.15" stop-color="#ffc739"/><stop offset="0.24" stop-color="#ff9f38"/><stop offset="0.33" stop-color="#ff6938"/><stop offset="0.36" stop-color="#ff5938"/></linearGradient><linearGradient id="Degradado_sin_nombre_21" x1="960.56" y1="94.83" x2="960.56" y2="928.83" gradientUnits="userSpaceOnUse"><stop offset="0.27" stop-color="#ffe839" stop-opacity="0"/><stop offset="0.32" stop-color="#ffe839" stop-opacity="0.02"/><stop offset="0.38" stop-color="#ffe839" stop-opacity="0.07"/><stop offset="0.45" stop-color="#ffe839" stop-opacity="0.16"/><stop offset="0.51" stop-color="#ffe839" stop-opacity="0.29"/><stop offset="0.58" stop-color="#ffe839" stop-opacity="0.45"/><stop offset="0.6" stop-color="#ffe839" stop-opacity="0.5"/></linearGradient><linearGradient id="Degradado_sin_nombre_17" x1="960.56" y1="-297.56" x2="960.56" y2="1996.97" gradientUnits="userSpaceOnUse"><stop offset="0.23" stop-color="#ffe839" stop-opacity="0"/><stop offset="0.3" stop-color="#ffe839" stop-opacity="0.13"/><stop offset="0.45" stop-color="#ffe839" stop-opacity="0.39"/><stop offset="0.52" stop-color="#ffe839" stop-opacity="0.5"/></linearGradient><linearGradient id="Degradado_sin_nombre_27" x1="1675.32" y1="978.93" x2="1675.32" y2="724.22" gradientUnits="userSpaceOnUse"><stop offset="0" stop-color="#ffd60a" stop-opacity="0"/><stop offset="0.19" stop-color="#ffd50a" stop-opacity="0.01"/><stop offset="0.36" stop-color="#ffd409" stop-opacity="0.06"/><stop offset="0.53" stop-color="#ffd107" stop-opacity="0.13"/><stop offset="0.7" stop-color="#ffcd05" stop-opacity="0.24"/><stop offset="0.87" stop-color="#ffc803" stop-opacity="0.37"/><stop offset="1" stop-color="#ffc300" stop-opacity="0.5"/></linearGradient><linearGradient id="Degradado_sin_nombre_26" x1="676.05" y1="978.93" x2="676.05" y2="724.22" gradientUnits="userSpaceOnUse"><stop offset="0" stop-color="#ffd60a" stop-opacity="0"/><stop offset="0.14" stop-color="#ffd50a" stop-opacity="0.02"/><stop offset="0.34" stop-color="#ffd208" stop-opacity="0.1"/><stop offset="0.57" stop-color="#ffce06" stop-opacity="0.21"/><stop offset="0.82" stop-color="#ffc803" stop-opacity="0.37"/><stop offset="1" stop-color="#ffc300" stop-opacity="0.5"/></linearGradient><linearGradient id="Degradado_sin_nombre_26-2" x1="354.44" y1="972.96" x2="354.44" y2="718.26" xlink:href="#Degradado_sin_nombre_26"/><linearGradient id="Degradado_sin_nombre_28" x1="425.63" y1="399.58" x2="425.63" y2="551.8" gradientUnits="userSpaceOnUse"><stop offset="0" stop-color="#ffd60a" stop-opacity="0"/><stop offset="0.15" stop-color="#ffd208" stop-opacity="0.21"/><stop offset="0.35" stop-color="#ffcd05" stop-opacity="0.49"/><stop offset="0.54" stop-color="#ffc903" stop-opacity="0.71"/><stop offset="0.69" stop-color="#ffc601" stop-opacity="0.87"/><stop offset="0.82" stop-color="#ffc400" stop-opacity="0.96"/><stop offset="0.89" stop-color="#ffc300"/></linearGradient></defs><g class="cls-2"><rect class="cls-3" x="1.13" width="1918.87" height="1079.35"/><path class="cls-4" d="M-79.86,282.59s13.09-13.08,22.06-15.7S-29,259.41-27.15,259s29.54-7.1,33.65-7.85,24.67-9.72,33.27-14.95,22.8-13.46,27.29-14.58,28.41-15,41.87-15,23.55,3,34.39,2.62,26.53-7.47,37.74-18.68l0,0c15.68-4.85,17.18-6,27.64-5.23s14.58-11.21,23.55-8.59S267,197,279,208.92a.1.1,0,0,0,.05,0c15.28,8.58,4.09,4.47,15.3,8.58,10.15,3.73,18.16,8.68,23.54.63a54.33,54.33,0,0,1,7.32-8.77c6.72-6.52,12.69-11.09,17.9-12.51a11,11,0,0,0,6-4.07c5.62-7.57,12.59-16.72,16.67-16.4,4.77.38,13.74-3.27,16.54-1.31s20.19,11.22,21.31,13.18l2.8-8.69s15.14-8.41,17.11-8.41,19.06,15.7,19.06,15.7l12.62-.28,14.3,7.57,12.61,2,20.19,9.53,15.42,1.13,10.1,1.12,23.83,2.24,8.41,7.85s29.16-7.29,39.53-6.73,31.68,3.93,32.52,3.93,21.31,1.4,21.31,1.4l20.75-6.73s36.45-5.33,45.7-3.36,14,5,14,5,33.92-20.46,49.9-21.31h0c10,4.86,13,4.87,13.6,4.79a.45.45,0,0,1,.28,0c2.62,1.24,39.09,18.48,53.69,27.13,3.64-2.81,11.77-3.65,11.77-3.65l8.41,8.32,11.5,6.82,24.67.28s20.19-20.19,69.53-19.91c25,7.57,59.16,19.07,59.16,19.07h0l21.31,9.53,36.73,12.06,10.37,2.52,18.51,12.34s12.89-7.29,28.59-5.05h0c10.65-4.48,14-5.6,15.7-5.88s16.82-.57,16.82-.57l6.45,2.25h8.69l9,5.32,9,2.81,11.78,14.11h19.06l18.79,15.05,30.28,21S1334.79,285.75,1347,284a26.58,26.58,0,0,0,4.89-1.25c18.07-6.43,71.87-31.34,76.79-31.34,9.82-4.21,34.21-10.94,39.54-10.94,14.77,2.58,42.61-5.89,60.84-.28,16.26,5.33,46.26,12.34,52.15,17.66s22.19,16.74,23.5,20.84a.45.45,0,0,0,.24.28,58.44,58.44,0,0,0,9.62,3.56s25.24-4.77,38.13-1.12c9.54,7.85,28,15.42,28,15.42s33.4,10.48,53.37,14.4a66.4,66.4,0,0,1,8.07,2.09c15.5,5.08,32.49,8.07,49,6.78h0c17.64.84,27.45,4.48,49,4.2l.07,0c21.26,8.95,30.51,14.84,38.07,24.35l.05,0c11.46,8.12,10.09,14.56,38.62,14.56l.08,0c21.28,9.52,28.67,14.66,44.36,15.22,16.82.37,39.25-5.61,41.31-6.92,13.64,2.06,20.56-3,27.29,5.61s24.48,19.63,32.89,22.43,27.85,9.16,34.77,9.91,21.12,2.05,24.11,5.79,0,551.17,0,551.17H-79.86Z"/><rect class="cls-5" x="1.13" y="311.89" width="1918.87" height="283.4"/><path class="cls-6" d="M1901,743.86l-12.48-12.48h-32.77V435.1h-36.41V413.78h-25.13l-4-4h-28.43V429.9H1746V573.79h-38.49v-90.5h-28.08V469l-33,5.2V439.87H1616v-9H1600.6l-26.19-26.2h-6.58v-2.39h-.78v-7h.78v-2.69h-.78V390.9h-2.69v1.64h-.78v2.69h.78v7h-24.61v2.39H1529.3l-17,17.05v75.65H1460v-16h-13v-105h-35.53V363.12l7.77-7.77H1425v-4.42l2.73-2.73v-5.07l3.47-1.65v-5.72l-17.16-4.85v-9.45h-13V305.12h1.39v-3.38h-1.39V291.08h1.39V287.7h-1.39V277h1.39v-3.38h-3V257.75h-1.69v15.91h-3V277h1.39V287.7h-1.39v3.38h1.39v10.66h-1.39v3.38h1.39v16.34h-13.57v7.89l-17.92,6.37v3.09l3.55,3.54v4.88l3.57,3.57v3.71h4.1l8,8v12.27h-19.81V392.1h-25.66v-8.66h-10.75V370.26h-38.83v-6.93h-14.56v-9.71H1243.8v9.71h-10.4v87.72h-29.12V421.69h-27.39V398h-12V386.87h-2.69V398h-11.32v27h-19.94V527.85l-23.75,23.75v28.95h-18.42V394.62h-29.51v-8.45H999.71v-10h-7.23V364h-2.69v12.18h-4.94v-4h-2.69v4h-7.29v6.24H922.34v13h-6.5v7.8H894.52V390.46H879.14v-3.59H870.3v3.59h-4.78V401.9h-3.9V261.21H849.15v-4.72a2.35,2.35,0,0,0,0-4.32v-7.73a2.35,2.35,0,0,0,0-4.32v-7.29h-1.82v7.29a2.34,2.34,0,0,0,0,4.32v7.73a2.34,2.34,0,0,0,0,4.32v4.72h-6.76v-4.72a2.35,2.35,0,0,0,0-4.32v-7.73a2.35,2.35,0,0,0,0-4.32v-7.29h-1.82v7.29a2.34,2.34,0,0,0,0,4.32v7.73a2.34,2.34,0,0,0,0,4.32v4.72H780.49V464.83H766.31V401.51L755,390.2V367.83H745V349.94h-2.68v17.89H698.05v-5.72h-4.94v-9.36H663v6.76H649.16V255.36h-8.57v-10h-8.84v10H580.38L572.71,263V282.8H541.5v20.28h-6.76V443.77h-14v6.5H508.09v61.24l-9.23,9.23V497.08h-6.24V447.93h-7V431.81h-4.68V424h-8.84v-9.62h-4.68V376.94h-6.76v-13h-6.45V353.06h-2.69v10.87h-5.16L419.8,314.78H407.58l-28.09,48.11v53.57H351.41v6.24l-4.16,3.38H332.6V403.89l-17.51-33.28-2.6,2.08L292.9,337.32H291l-2.19-22.83v22.83h-4v-8.79h-8.84v8.79h-3.29V314.49l-2.19,22.83h-3.37l-30.86,49.24H226.15v82.69H187.49v9.19H177.44v13.7H127.68V503.4h-18V588H31L1.13,586.79V1080H2077.34V743.86Z"/><rect class="cls-7" x="1.13" y="299.64" width="1918.87" height="779.71"/><line class="cls-8" x1="1688.87" y1="831.04" x2="1688.87" y2="828.8"/><rect class="cls-9" x="688.79" y="797.51" width="3.65" height="8.91"/><rect class="cls-9" x="703.24" y="797.51" width="3.65" height="8.91"/><rect class="cls-9" x="717.69" y="797.51" width="3.65" height="8.91"/><rect class="cls-9" x="732.13" y="797.51" width="3.65" height="8.91"/><path class="cls-10" d="M2098.8,805.38v-53.3h-4.59v-20h-1.13V719H2092v33.12h-2.74V739.92H2087v12.16H2051.2l-9.65,9.65H2021l-6.07-6.07h-21.14v-3.58h-56.63c-1.72,0,0-254,0-254H1923.6V434.47l-7.2-7.21h-3.58V380.31h-2.37v46.95h-4.23l-20.06,20.07h-21.09V427.26h-5.63v20.07H1831v37.58l-29.9,29.88v66.1L1780,602V745.89h-50.22V757h-14.64v14.77h-16.7V756h-22.87l-10.07-10.07h-13.71V729.51h-5.62v16.38h-6.51V729.51H1634v16.38h-36v-9.54h-22.32l-6.26-6.25-9.53-9.53H1506l-22.76-22.76h-56.43L1415,686h-39.3v16.62h-40.5v-121H1321.6V565.15H1315v-7.38h-27.44v7.38H1267.6v16.49h-69.54V527.1h-17.9v12h-27.08v35.15h-17.22V554h-14.77V528.86h3v-2.34h-11.53v2.34h3V554h-10.4V503.7h-1.2V554H1073.1l-48,48v56.5h-6.53V635.65h-1.2V658.5h-16.08v37H959.77V635H933V496H905.36V464.3H900V445.47h-6.71v-18H769V397h-3.1v30.42H761v-40h4.89v-3.09H761v-9.54h4.89v-3.09H761v-8.9h-6.19v64.58H738.05V548.34H659.68V529.78H637.25v-8.32H606.31v8.32h-7.47v18.56H583.5V684.72H537.86V652.25H516.6v-21.8h1.92v-3.09H516.6v-3.48h-6.19v3.48h-1.92v3.09h1.92v21.8H483.17c0-6.44.17-14.32.17-14.32H457.05v25.13h-6.18V652.25H437.33l-7.15,7.14H386.66L379.09,667H287.41v66.47H211.36L200,744.79H174.24v17.79H155.41V746H138.92V733.44H82.34V397H47.53v-20.2H44.05V334.17l-6.19-3.54V397H-68.09v20.11l-5.23,5.23v31.89H-94.78s1.94,286.17,0,286.17h-63.81v4h-23.83l-6.84,6.84h-23.16l-10.87-10.87h-40.3V726.7h-2.54v13.71h-3.09V703.09h-1.27v14.77h-1.27v22.55h-5.17v60.07H-438.17V1090H2241.89V805.38Z"/><rect class="cls-11" y="944.76" width="2174.55" height="139.68"/><path class="cls-12" d="M1704.12,740.41a73.25,73.25,0,0,0,0-7.71,15,15,0,0,0-4.83-9.08l-2.84-3-22.69-23.54a2,2,0,0,1,2.83-2.83c4.76,4.8,25.57,24.14,29.55,28.85a21.08,21.08,0,0,1,4.05,13.18l.07,4.08c.86,46.59,2.89,156.6,3.77,204.35h-13.65c.81-43.6,2.84-154.09,3.62-196.17Z"/><polygon class="cls-13" points="1685.13 707.54 1683.29 727.57 1667.53 727.57 1665.68 707.54 1685.13 707.54"/><circle class="cls-14" cx="1675.45" cy="716.5" r="4.06"/><path class="cls-11" d="M1688.87,705.39h-26.93a.39.39,0,0,1-.3-.63l5-6.44a.37.37,0,0,1,.31-.15h16.88a.39.39,0,0,1,.31.15l5,6.44A.39.39,0,0,1,1688.87,705.39Z"/><path class="cls-11" d="M1678,697h-5.47a.16.16,0,0,1-.15-.23l.52-1.15.25-.55.31-.67h.14a2,2,0,0,1-.11-.65,1.79,1.79,0,1,1,3.56,0,2,2,0,0,1-.12.65h.15l.31.67.24.55.53,1.15A.16.16,0,0,1,1678,697Z"/><path class="cls-10" d="M1676.92,732.18v1.93a2,2,0,0,0-1.48-.67,2,2,0,0,0-1.47.67v-1.93Z"/><line class="cls-8" x1="1671.24" y1="707.54" x2="1672.23" y2="718.33"/><polygon class="cls-12" points="1686.14 705.39 1685.95 707.54 1664.68 707.54 1664.49 705.39 1686.14 705.39"/><line class="cls-8" x1="1677.8" y1="727.57" x2="1679.07" y2="713.76"/><path class="cls-12" d="M1677.53,735.73a2.09,2.09,0,1,1-4.17,0,2.4,2.4,0,0,1,.61-1.62,2,2,0,0,1,1.47-.67,2,2,0,0,1,1.48.67A2.45,2.45,0,0,1,1677.53,735.73Z"/><path class="cls-12" d="M1684.1,728l-.14,1.53a.37.37,0,0,1-.38.35h-16.39a.39.39,0,0,1-.39-.35l-.14-1.53a.39.39,0,0,1,.38-.43h16.68A.39.39,0,0,1,1684.1,728Z"/><path class="cls-10" d="M1678.54,730.22l-1.08,1.85a.24.24,0,0,1-.19.11h-3.65a.26.26,0,0,1-.2-.11l-1.07-1.85a.22.22,0,0,1,.19-.34h5.81A.22.22,0,0,1,1678.54,730.22Z"/><rect class="cls-11" x="1672.94" y="697" width="4.73" height="1.16"/><polygon class="cls-15" points="1969.02 991.62 1381.61 991.62 1518.69 854.54 1665.69 707.54 1684.94 707.54 1969.02 991.62"/><rect class="cls-16" x="1534.69" y="882.61" width="144.66" height="3.07"/><rect class="cls-16" x="1534.69" y="885.68" width="144.66" height="24.54"/><rect class="cls-16" x="1534.69" y="916.22" width="144.66" height="13.81"/><rect class="cls-16" x="1548.16" y="878.87" width="10.67" height="3.74"/><rect class="cls-16" x="1548.16" y="885.68" width="10.67" height="67.89"/><rect class="cls-16" x="1657.81" y="878.87" width="10.67" height="3.74"/><rect class="cls-16" x="1657.81" y="885.68" width="10.67" height="67.89"/><rect class="cls-17" x="1534.69" y="882.61" width="144.66" height="3.07"/><polygon class="cls-13" points="684.26 701.62 682.42 721.65 666.66 721.65 664.81 701.62 684.26 701.62"/><circle class="cls-14" cx="674.58" cy="710.58" r="4.06"/><path class="cls-11" d="M688,699.47H661.08a.38.38,0,0,1-.31-.62l5-6.45a.37.37,0,0,1,.31-.15H683a.39.39,0,0,1,.31.15l5,6.45A.38.38,0,0,1,688,699.47Z"/><path class="cls-11" d="M677.18,691.08H671.7a.16.16,0,0,1-.15-.23l.52-1.15.25-.55.31-.66h.14a2.08,2.08,0,0,1-.11-.66,1.79,1.79,0,1,1,3.56,0,2.08,2.08,0,0,1-.12.66h.16l.3.66.25.55.52,1.15A.16.16,0,0,1,677.18,691.08Z"/><path class="cls-10" d="M676.05,726.26v1.93a2,2,0,0,0-1.48-.67,2,2,0,0,0-1.47.67v-1.93Z"/><line class="cls-8" x1="670.37" y1="701.62" x2="671.36" y2="712.41"/><polygon class="cls-12" points="685.28 699.47 685.08 701.62 663.82 701.62 663.62 699.47 685.28 699.47"/><line class="cls-8" x1="676.93" y1="721.65" x2="678.2" y2="707.84"/><path class="cls-12" d="M676.66,729.81a2.09,2.09,0,1,1-4.17,0,2.4,2.4,0,0,1,.61-1.62,2,2,0,0,1,1.47-.67,2,2,0,0,1,1.48.67A2.4,2.4,0,0,1,676.66,729.81Z"/><path class="cls-12" d="M683.23,722.08l-.13,1.53a.39.39,0,0,1-.39.35H666.32a.39.39,0,0,1-.39-.35l-.14-1.53a.39.39,0,0,1,.38-.43h16.68A.39.39,0,0,1,683.23,722.08Z"/><path class="cls-10" d="M677.67,724.3l-1.08,1.85a.24.24,0,0,1-.19.11h-3.65a.24.24,0,0,1-.19-.11l-1.08-1.85a.22.22,0,0,1,.19-.34h5.81A.22.22,0,0,1,677.67,724.3Z"/><rect class="cls-11" x="672.07" y="691.08" width="4.73" height="1.16"/><polygon class="cls-18" points="819.17 991.62 532.93 991.62 599.73 854.54 671.36 707.54 680.74 707.54 819.17 991.62"/><rect class="cls-19" x="426.5" y="429.2" width="61.45" height="91.58"/><rect class="cls-19" x="363.3" y="429.2" width="59.72" height="91.58"/><rect class="cls-19" x="363.3" y="528.87" width="59.72" height="24.97"/><rect class="cls-19" x="426.5" y="528.87" width="61.45" height="24.97"/><line class="cls-20" x1="657.62" y1="491.01" x2="629.97" y2="518.66"/><rect class="cls-19" x="356.21" y="719.69" width="135.75" height="115.59"/><polygon class="cls-21" points="726.79 922.07 696.37 952.49 692.27 952.49 722.69 922.07 726.79 922.07"/><polygon class="cls-22" points="692.27 922.07 722.69 952.49 726.79 952.49 696.37 922.07 692.27 922.07"/><rect class="cls-21" x="687.92" y="917.62" width="43.3" height="5.88" rx="0.54"/><polygon class="cls-21" points="814.74 922.07 784.32 952.49 780.22 952.49 810.64 922.07 814.74 922.07"/><polygon class="cls-22" points="780.22 922.07 810.64 952.49 814.74 952.49 784.32 922.07 780.22 922.07"/><rect class="cls-21" x="775.87" y="917.62" width="43.3" height="5.88" rx="0.54"/><polygon class="cls-21" points="788.52 890.7 726.73 952.49 718.41 952.49 780.2 890.7 788.52 890.7"/><polygon class="cls-21" points="735.38 899.36 727.06 899.36 718.4 890.7 726.73 890.7 735.38 899.36"/><polygon class="cls-22" points="788.52 952.49 780.2 952.49 727.06 899.36 735.38 899.36 788.52 952.49"/><circle class="cls-21" cx="753.46" cy="921.6" r="0.9"/><rect class="cls-21" x="709.57" y="881.66" width="87.95" height="11.95" rx="0.47"/><path class="cls-10" d="M806.12,875.58l-2.48,2.48H788.83a.78.78,0,0,0-.77.77v88.78h-2.34a.79.79,0,0,1-.79-.79V876.38a.79.79,0,0,1,.79-.8Z"/><path class="cls-10" d="M844.56,876.38v90.44a.8.8,0,0,1-.8.79h-5.65a.8.8,0,0,1-.8-.79V953.06a.79.79,0,0,0-.79-.8H793.26a.79.79,0,0,0-.79.8v13.76a.8.8,0,0,1-.8.79h-3.61V878.83a.78.78,0,0,1,.77-.77h14.81l2.48-2.48h37.64A.8.8,0,0,1,844.56,876.38Z"/><rect class="cls-12" x="792.47" y="882.49" width="44.84" height="62.45" rx="1.44"/><path class="cls-17" d="M806.12,875.58l-2.48,2.48H788.83a.78.78,0,0,0-.77.77v88.78h-2.34a.79.79,0,0,1-.79-.79V876.38a.79.79,0,0,1,.79-.8Z"/><g class="cls-23"><path class="cls-24" d="M832.48,895.92h0Z"/><path class="cls-24" d="M832.58,895.93h0Z"/><path class="cls-24" d="M804.16,892.36h0l-.08,0Z"/><path class="cls-24" d="M805.09,896.28h0Z"/><path class="cls-24" d="M831.16,896h0Z"/><path class="cls-24" d="M802.63,892.11h0Z"/><path class="cls-24" d="M827,896.11h0Z"/><path class="cls-24" d="M806.46,896l0,0Z"/><path class="cls-24" d="M831.9,896h0Z"/><path class="cls-24" d="M809.88,894.91l0,0h0l.07.09Z"/><path class="cls-24" d="M832.6,896l.32,0c-.16,0-.18,0-.35,0a.56.56,0,0,1,.13,0,2.56,2.56,0,0,1-.34,0,.51.51,0,0,0,.22,0l-.39,0s-.37,0-.29,0l-.24,0a1.92,1.92,0,0,1,.3-.06c.41,0,0,0,.09,0l.32,0s.12,0-.08,0a1.81,1.81,0,0,1,.45,0h-.12s.24-.05,0-.05c.07,0-.13,0,0,0-.11,0-.39,0-.28,0l-.46,0s.09,0,.14,0l-.36,0h.1a5.45,5.45,0,0,0-.64.07,2,2,0,0,1,.34-.06c-.13,0-.09,0-.31,0,0,0,0,0,0,0l-.18,0s0,0,0,0c-.28,0,0,0-.38.07.24,0,.2,0,.41,0s-.23,0-.29.06a2.25,2.25,0,0,0-.45,0c.13,0,0,0,.23,0s-.07,0-.1,0,0,0-.14,0h0l-.3,0c-.28,0-.63.06-.82,0l0,0c-.18,0-.43,0-.56,0a1,1,0,0,1,.27,0,5.38,5.38,0,0,0-.8.08h.32a3.79,3.79,0,0,1-.51,0s.08,0,0-.05-.3,0-.42.05,0-.05.32-.06.43,0,.6,0h-.1l.51,0h0l.09,0h-.1a2,2,0,0,1,.32-.06,1.7,1.7,0,0,0-.45.09,4.6,4.6,0,0,0-.55,0s-.16,0,0,0,.25,0,.26,0c-.15,0-.1,0-.33,0a1.4,1.4,0,0,1-.39.08,3.53,3.53,0,0,1-.54,0c.17,0,.35,0,.3-.06s-.34,0-.29,0a2.66,2.66,0,0,1-.58,0c.2,0,.39,0,.55,0,0,0-.09,0-.06,0h-.31v0c-.18,0-.52,0-.84,0h0c-.26,0-.28.06-.56.08.08,0,0,0,0,0a2.14,2.14,0,0,1-.36,0c.17,0-.1,0,0,0s-.27,0-.42,0,.45,0,.23-.07-.18,0-.08,0a4,4,0,0,1-.6,0c-.22,0-.31,0-.44.07a1.7,1.7,0,0,1,.27,0l-.16,0h-.53l.15,0h0c.06,0,.26,0,.24,0s-.25,0-.44,0h0a5.3,5.3,0,0,0-.77.05c.06,0,.18,0,.15,0s-.28,0-.27,0h.07l-.37,0s0,0-.13,0c-.32,0,.13,0-.09,0l-.3,0h-.07c-.45,0-.79.08-1.27.1a2.57,2.57,0,0,1,.46-.06c-.15,0-.36,0-.56,0s-.33,0-.3.05c-.22,0-.16,0-.19,0a3.2,3.2,0,0,1-.54,0h0l-.29,0c.08,0,0,0,0,0h-.07c.28,0,.63-.06.92,0-.09,0,0,0-.06,0s-.09,0-.09,0-.16,0,0,0a2.59,2.59,0,0,1-.53.06c-.17,0,.18,0,.26-.06l-.26,0,0,0c-.3,0-.08,0-.15.06a1.94,1.94,0,0,1-.34,0h.08c-.22,0-.27,0-.48,0l-.1,0a3,3,0,0,0,.45,0c-.35,0,.1,0,.21-.08a2.88,2.88,0,0,1-.4,0c-.23,0-.49,0-.72.06s.11,0,0,0l-.76,0c-.13,0-.11,0-.15,0-.64,0-.89.09-1.59.11l.1,0a2.36,2.36,0,0,0-.34,0c-.19,0-.63.06-.87,0s-.32,0-.56.06c0,0,.07,0,0,0l-.59,0-.29,0h-.86a2.91,2.91,0,0,1-.58-.09H811l-.19-.05-.09,0-.08,0-.08,0-.08,0-.06,0s0,0-.06-.05l-.06-.06a.43.43,0,0,1,0-.07l0-.06v-.06h0v-.08s0,0,0-.08v-.16s0-.13,0-.2,0-.12,0-.08,0,.13,0,.13v-.22a.2.2,0,0,1,0-.09v-.07a.47.47,0,0,0,0-.15s0,0,0,0v0l0,.05,0,0v0l0,0a1,1,0,0,0-.19-.44c0-.06-.09-.11-.13-.16l-.08-.07-.08,0a1.91,1.91,0,0,0-.32-.16.1.1,0,0,0,.07,0h0l.08,0h0l.18.1,0,0,0,0,.07.05s0,0,.06,0l-.11-.09a1.5,1.5,0,0,0-.23-.15l-.24-.09-.11,0h0l-.05,0s0,0,0,0h-.49l-.06,0c-.11,0,0,0-.08,0a3.5,3.5,0,0,0-.41.07l-.06,0h-.06l-.1,0c-.06,0-.1,0-.11,0l-.11.06,0,0,0,0-.08,0-.11.06.06-.05a4.7,4.7,0,0,0-.54.37c-.18.13-.34.27-.49.37s-.22.19-.32.26l-.13.11-.12.09.14-.09s.06,0,0,0l-.12.08-.15.1s-.06,0-.1,0h0l.07,0h0l-.06,0-.07,0,0,0,0,0c-.11,0-.22.07-.22,0l-.22.06-.28,0h.18l-.15,0h-.3a.76.76,0,0,1-.21,0h-.05l0,0h.13l-.22-.05h0l-.05,0-.12-.06v0l0,0,0,0h0a.53.53,0,0,1-.16-.17.37.37,0,0,1-.05-.11l0-.05,0,0v-.11a.53.53,0,0,0,0-.13l0,0a.2.2,0,0,0,0,.07v0s0,0,0,0a.13.13,0,0,0,0,.05.49.49,0,0,0,0,.12c0-.05,0-.11,0-.19a.85.85,0,0,1,.05-.26,2,2,0,0,1,.15-.29l.21-.26a5.11,5.11,0,0,1,.4-.43,1.49,1.49,0,0,0,.3-.36v0a2.34,2.34,0,0,0,.39-.48,1.68,1.68,0,0,0,.16-.39,1.64,1.64,0,0,0,0-.22.82.82,0,0,0,0-.22,1.52,1.52,0,0,0-.06-.2l0-.09a.56.56,0,0,1-.05-.08,1.22,1.22,0,0,0-.26-.25l0,0,0,0,0,0a2.9,2.9,0,0,0-.38-.16,3.37,3.37,0,0,0-.48-.12,2,2,0,0,0-.76,0c-.11,0-.1,0-.05,0l.14,0-.3,0h-.3s.23,0,.12,0-.16,0-.3,0c0,0,0,0-.11.05l-.3,0h0s-.11,0-.19,0h0l-.38.08-.39.1-.4.11-.4.13a11,11,0,0,0-1.53.66l.17-.11a1.86,1.86,0,0,1-.25.14l-.2.12,0,0-.16.09-.05,0,0,0a1,1,0,0,1-.21.13l0,0-.1.06-.1.07-.17.12a.47.47,0,0,0-.09.06l-.09.06-.18.15,0,0,0,0,0,0-.07,0-.15.11-.08.07,0,.06,0,.05,0-.05c.08,0-.1.12-.18.21a.61.61,0,0,0,.32-.18l.1-.09.08,0a.68.68,0,0,0,.2-.15,1.29,1.29,0,0,1,.21-.17l.07,0,0,0,0,0,.14-.11c-.09.09.23-.15.08,0a.37.37,0,0,0,.1-.07l.15-.1.17-.12.15-.08,0,.05a1.37,1.37,0,0,1,.18-.11l.05,0,0,0,0,0v0l.14-.07s-.15.06-.1,0a2.14,2.14,0,0,1,.22-.13l-.09.07.09,0,.07,0h0l-.1.06-.1.07c.24-.12,0,0,.15-.05s0,0,.1-.07l.23-.11s-.09,0-.12.07l.18-.06,0,0h0a.2.2,0,0,1,.08,0l.16-.08.1-.05.11,0-.06,0c.15-.06.27-.08.37-.13s0,0,.27,0c0,0,0,0,.11-.05s.17,0,.17-.06l.19,0c.08,0,.06,0,.07-.06s0,0,.19-.06,0,.06.16,0l.06,0h.13a.7.7,0,0,1,.24,0l-.12,0,.15,0,.21,0,.21,0h.08l.07,0c.08,0,.26,0,.24,0l.23,0h.25l.18,0c-.06,0-.07,0-.06,0h.09l.23,0a.44.44,0,0,1,.18.05h.11s0,0,0,0l.21.09c.07,0,.12.07.09.07l-.06,0s-.05,0-.08,0l-.06,0s0,0,0,0l.1,0h0l.06,0s0,0,0,0,0,0,0,0a.54.54,0,0,1,.22.14l0,0h0s.06,0,0,0h0l0,0,0,0h0l-.08-.06s0,0,0,0l.16.09h0l0,0,.05,0,0,0,0,0,.05.05,0,0,0,0,0,.05v0s0,.06,0,.07l0,0s0,0,0,0,0,0,0,0a.35.35,0,0,1,0,.2,1.21,1.21,0,0,1-.05.18l0-.06v0a0,0,0,0,1,0,0,.68.68,0,0,1,0,.13l0,0s0,0-.05,0a1.31,1.31,0,0,1-.19.27,2,2,0,0,1-.2.21c-.14.14-.27.27-.41.43l.15-.13,0-.06c.13-.1,0,.06,0,.13s-.2.2-.14.12l-.16.19s.14-.14.07,0l-.14.13s-.06.06,0,0l-.13.16c0,.05,0,.09,0,.08s0,.07-.06.07,0,0,0,0a1.4,1.4,0,0,1,.09-.17l-.09.11s0,0,0,0l-.15.22a.49.49,0,0,0,0-.11,1.06,1.06,0,0,0-.11.21c0,.07-.05.14-.09.22s0,0,0,.08,0,.07,0,.1a.22.22,0,0,1,0,.08.61.61,0,0,0,0,.14,1,1,0,0,0,0,.2l0,.09,0,0,0,0a.83.83,0,0,0,.18.24l0-.07.16.14.05,0,0,0,.06,0,0,0,0,0,.05,0,0,0,.07,0h.08a1,1,0,0,0,.3,0c.07,0,.11,0,.09,0h.24l.24,0,.29,0a1.91,1.91,0,0,1-.33.06.74.74,0,0,0,.23,0,2.53,2.53,0,0,0,.34-.07,1.85,1.85,0,0,0,.32-.16h0l0,0,.05,0,.09-.06.16-.11c-.1,0-.08,0,.07-.13l.12-.07.12-.08.1-.07c0,.05.26-.16,0,0a1.67,1.67,0,0,0-.2.13l.37-.23a1.13,1.13,0,0,1-.15.14s0,0,0,0c-.27.23.08,0,0,0l.13-.11s0,0,0,0a2,2,0,0,0,.28-.21l.15-.13.13-.09s-.09,0,0,0l.14-.09.08,0,.06,0,.1-.06.1-.06,0,0h-.06s0,0,.05,0a.39.39,0,0,1,.17-.09l.2-.06h0l-.11,0-.08,0a2.13,2.13,0,0,1,.45-.13c.13,0-.06,0-.19.06l.28,0,.18,0h.29l-.12,0,0,0h-.1c-.14,0-.11,0-.08,0s.06,0-.06,0v0a1,1,0,0,0-.29,0s0,0,0,0h.06L808,895a1,1,0,0,0-.21.1l.2-.07.21-.06a1.77,1.77,0,0,1,.33,0,1.74,1.74,0,0,1,.51,0l-.07,0h0l.06,0,.08,0,.22.1s0,0,.1,0l0,0,0,0s0,0,0,0a.6.6,0,0,1-.11-.1l.07,0h0l0,0,0,0h0l0,0,0,0s0,0,0,0h0s0,0,.05.12a.44.44,0,0,0-.1-.12,1,1,0,0,0-.19-.14l.08.07.08.09s0,0,0,0l0,0v0a.4.4,0,0,1,.1.15.52.52,0,0,1,.06.2,1,1,0,0,1,0,.25c0,.09,0,.18,0,.29a.08.08,0,0,1,0-.05.19.19,0,0,1,0-.08c0-.07,0-.14,0-.21s0-.22,0-.17v.16a.13.13,0,0,1,0,.06v.09a1.28,1.28,0,0,0,0,.33.11.11,0,0,1,0,0l0,.06a.56.56,0,0,0,0,.12.37.37,0,0,0,.05.11l0,.06,0,0v0l0,0,0-.06v0l0,0,0,0a.61.61,0,0,0,.07.1l.08.1.09.07h0l0,0,.05,0,0,0a3.1,3.1,0,0,0,.3.14,2.78,2.78,0,0,0,.38.12s0,0-.13,0l-.22-.07-.12-.06s-.07,0,0,0l.1.05.1,0,.1,0,.1,0,.44.07-.11,0,.41,0c.14,0,.09,0,0,0s-.15,0-.06,0h-.34l.18,0c.15,0,.32,0,.43,0l-.12,0s.13,0,.19,0l-.08,0c-.17,0-.28,0-.4,0H812s-.07,0-.1,0h.44c-.11,0-.29,0-.15,0l.1,0h.09c.13,0,0,0,.17,0,0,0,.1,0,.07,0a2.79,2.79,0,0,0,.32,0c-.19,0-.2,0,0,0a5.28,5.28,0,0,1,.66,0l.13,0c-.08,0,.17,0,.26,0s-.42,0-.41.07c.18,0,.1,0,0,0,.2,0,.07,0,.16-.05s.34,0,.22,0c.17,0,.2,0,.33,0s0,0,0,0h.21s0,0-.09,0c0,0,.34,0,.33,0a4.29,4.29,0,0,0,.48,0s-.29,0-.34,0c.2,0,.69,0,1-.08s0,0,.06,0l-.56,0a7.08,7.08,0,0,0,.85-.06,6.29,6.29,0,0,0,.63,0s0,0-.14,0l.29,0c.06,0-.15,0,0,0s.16,0,.14,0h0c.32,0,.23,0,.5,0h-.14c-.06,0,.11,0,.24,0,0,0,.11,0,.2,0s-.23,0-.27,0h.19l.27,0c-.19,0-.09,0,0,0a1.31,1.31,0,0,1,.35,0,2.25,2.25,0,0,1,.41,0c-.18,0,0,0,0,0h.27c-.28,0,.06,0,0,0a2.1,2.1,0,0,1-.4,0,6.3,6.3,0,0,0,.65,0s0,0-.13,0c.05,0,.23,0,.4,0,0,0-.14,0,0,0l.22,0c.26,0,.09,0,.3-.06h-.14s.29,0,.29,0-.2,0-.34,0,.17,0,.25,0h.45s-.35.06-.31.11c.28,0,.69-.06.87-.05s.23,0,.19-.07h.22l-.12,0,.81-.07c.19,0,.11,0,.07,0h.16a1.49,1.49,0,0,1,.36,0s-.08,0-.07,0a2.47,2.47,0,0,0,.39,0,.39.39,0,0,1-.22,0h0l-.23,0a.87.87,0,0,1,.43,0c.27,0-.22,0,.1,0s.81-.05,1,0,.43-.06.74-.08c0,0,.21,0,.18,0-.3,0-.55.07-.79,0s-.09,0-.15.05h-.24c.27,0,.07-.05.41-.07a2.36,2.36,0,0,0-.45,0s0,0-.08,0l.39-.06s0,0,0,0l.36-.05c.11,0,.14,0,.08,0a4,4,0,0,1,.54,0c.26,0-.08,0-.1,0h0l-.27,0s.31,0,.35,0,.38,0,.57,0l-.21.06.19,0c-.11,0-.11,0-.28.08l.81,0c.07,0,.1,0,.07,0a3.5,3.5,0,0,1,.64,0c.24,0-.24,0-.07,0l.25,0h-.48c.13,0,.11,0,.15,0h-.22s.27,0,.37,0l-.09.06a4.79,4.79,0,0,1,.64,0c.1,0-.08,0-.13,0s.19,0,.23,0h-.18l.56,0-.23,0a2.2,2.2,0,0,0,.49,0c.19,0,.41,0,.35,0s0,0,0,0c.26,0,.28,0,.44-.05l-.12,0c.25,0,.05,0,.28,0,0,0,0,0,0,.07s.17,0,.27,0c-.06,0,.2,0,0,0,.22,0,.32,0,.48,0-.1,0,.19,0,.1,0,.22,0,.37,0,.31,0h-.19l.39,0a.66.66,0,0,1,.24,0c.13,0,.37,0,.47,0a1.33,1.33,0,0,1-.29,0h0l.16,0c-.16,0,0,0-.25,0s.44-.07.24-.08-.14,0-.28,0h0l-.32,0s.08,0,.08,0c-.38,0-.44,0-.86,0,0,0,.12,0-.07.05a1.13,1.13,0,0,1-.26,0,.75.75,0,0,1,.22,0v0a3.85,3.85,0,0,1,.56-.09,2.41,2.41,0,0,1,.55,0l-.11,0c.23,0,.05,0,.35,0,.12,0,.35,0,.19.09.21,0,.28,0,.48,0s-.06,0,0,.06.32,0,.21,0h.14a1.63,1.63,0,0,0,.36,0Z"/><path class="cls-24" d="M827.36,896.38h0Z"/><path class="cls-24" d="M831.16,896h0Z"/><path class="cls-24" d="M810.24,897l0,0Z"/><path class="cls-24" d="M814.29,897.19h0Z"/><path class="cls-24" d="M831.36,896.16h0Z"/><path class="cls-24" d="M832.48,913.79h0Z"/><path class="cls-24" d="M832.58,913.8h0Z"/><path class="cls-24" d="M804.16,910.23h0l-.08,0Z"/><path class="cls-24" d="M805.09,914.15h0Z"/><path class="cls-24" d="M831.16,913.87h0Z"/><path class="cls-24" d="M802.63,910h0Z"/><path class="cls-24" d="M827,914h0Z"/><path class="cls-24" d="M806.46,913.89l0,0Z"/><path class="cls-24" d="M831.9,913.82h0Z"/><path class="cls-24" d="M809.88,912.78l0,0h0l.07.09Z"/><path class="cls-24" d="M832.6,913.89l.32,0c-.16,0-.18,0-.35,0a.56.56,0,0,1,.13,0,2.56,2.56,0,0,1-.34,0,.51.51,0,0,0,.22,0l-.39,0s-.37,0-.29,0l-.24,0a1.92,1.92,0,0,1,.3-.06c.41,0,0,0,.09,0l.32,0s.12,0-.08,0a1.81,1.81,0,0,1,.45,0h-.12s.24-.05,0-.05c.07,0-.13,0,0,0-.11,0-.39,0-.28,0l-.46,0s.09,0,.14,0l-.36,0h.1a5.45,5.45,0,0,0-.64.07s.2,0,.34-.06c-.13,0-.09,0-.31,0,0,0,0,0,0,0l-.18,0s0,0,0,0c-.28,0,0,0-.38.07.24,0,.2,0,.41,0s-.23,0-.29.06a2.25,2.25,0,0,0-.45,0c.13,0,0,0,.23,0s-.07,0-.1,0,0,0-.14,0h0l-.3,0c-.28,0-.63.06-.82,0l0,0c-.18,0-.43,0-.56,0a1,1,0,0,1,.27,0,5.38,5.38,0,0,0-.8.08h.32a3.79,3.79,0,0,1-.51,0s.08,0,0-.05-.3,0-.42.05,0,0,.32-.06.43,0,.6,0h-.1l.51,0h0l.09,0h-.1a2,2,0,0,1,.32-.06,1.7,1.7,0,0,0-.45.09c-.27,0-.37,0-.55,0,0,0-.16,0,0,0s.25,0,.26,0c-.15,0-.1,0-.33,0a1.4,1.4,0,0,1-.39.08,3.53,3.53,0,0,1-.54,0c.17,0,.35,0,.3-.06s-.34,0-.29,0a2.66,2.66,0,0,1-.58,0c.2,0,.39,0,.55,0,0,0-.09,0-.06,0h-.31v0c-.18,0-.52,0-.84,0h0c-.26,0-.28.06-.56.08.08,0,0,0,0,0a2.14,2.14,0,0,1-.36,0c.17,0-.1,0,0,0s-.27,0-.42,0,.45,0,.23-.07-.18,0-.08,0a4,4,0,0,1-.6,0c-.22,0-.31,0-.44.07a1.7,1.7,0,0,1,.27,0l-.16,0h-.53l.15,0h0c.06,0,.26,0,.24,0s-.25,0-.44,0h0a5.3,5.3,0,0,0-.77.05c.06,0,.18,0,.15,0s-.28,0-.27,0h.07l-.37,0s0,0-.13,0c-.32,0,.13,0-.09,0l-.3,0h-.07c-.45,0-.79.08-1.27.1a2.57,2.57,0,0,1,.46-.06c-.15,0-.36,0-.56,0s-.33,0-.3.05c-.22,0-.16,0-.19,0a3.2,3.2,0,0,1-.54,0h0l-.29,0c.08,0,0,0,0,0h-.07c.28,0,.63-.06.92,0-.09,0,0,0-.06,0s-.09,0-.09,0-.16,0,0,0a2.59,2.59,0,0,1-.53.06c-.17,0,.18,0,.26-.06l-.26,0,0,0c-.3,0-.08,0-.15.06a1.94,1.94,0,0,1-.34,0h.08c-.22,0-.27,0-.48,0l-.1,0a3,3,0,0,0,.45,0c-.35,0,.1,0,.21-.08a2.88,2.88,0,0,1-.4,0c-.23,0-.49,0-.72.06s.11,0,0,0l-.76,0c-.13,0-.11,0-.15,0-.64,0-.89.09-1.59.11l.1,0a2.36,2.36,0,0,0-.34,0c-.19,0-.63.06-.87,0s-.32.05-.56.07c0,0,.07,0,0,0l-.59,0h-1.15a2.91,2.91,0,0,1-.58-.09H811l-.19-.05-.09,0-.08,0-.08,0-.08,0-.06,0s0,0-.06-.05l-.06-.06a.43.43,0,0,1,0-.07l0-.06v0h0v-.1s0,0,0-.08v-.16s0-.13,0-.2,0-.12,0-.08,0,.13,0,.13v-.22a.2.2,0,0,1,0-.09v-.07a.47.47,0,0,0,0-.15s0,0,0,0v0l0,.05,0,0v0l0,0a1,1,0,0,0-.19-.44c0-.06-.09-.11-.13-.16l-.08-.07-.08,0a1.91,1.91,0,0,0-.32-.16.1.1,0,0,0,.07,0h0l.08,0h0l.18.1,0,0,0,0,.07.05s0,0,.06,0l-.11-.09a1.5,1.5,0,0,0-.23-.15l-.24-.09-.11,0h0l-.05,0s0,0,0,0h-.49l-.06,0c-.11,0,0,0-.08,0a3.5,3.5,0,0,0-.41.07l-.06,0h-.06l-.1,0-.11,0a.28.28,0,0,0-.11.05l0,0,0,0-.08,0-.11.06.06-.05a4.7,4.7,0,0,0-.54.37c-.18.13-.34.27-.49.37s-.22.19-.32.26l-.13.11-.12.09.14-.09s.06,0,0,0a.62.62,0,0,1-.12.08l-.15.1-.1,0h0l.07,0h0l-.06,0-.07,0,0,0,0,0c-.11,0-.22.07-.22,0l-.22.06-.28,0h.18l-.15,0h-.3a.76.76,0,0,1-.21,0h-.05l0,0h.13l-.22-.05h0l-.05,0-.12-.06v0l0,0,0,0h0a.53.53,0,0,1-.16-.17.37.37,0,0,1-.05-.11l0-.05,0,0v-.11a.53.53,0,0,0,0-.13l0,0a.2.2,0,0,0,0,.07v0s0,0,0,0a.13.13,0,0,0,0,.05.49.49,0,0,0,0,.12c0-.05,0-.11,0-.19a.85.85,0,0,1,.05-.26,2.7,2.7,0,0,1,.15-.29l.21-.26a5.11,5.11,0,0,1,.4-.43,1.49,1.49,0,0,0,.3-.36v0a2.34,2.34,0,0,0,.39-.48,1.68,1.68,0,0,0,.16-.39,1.64,1.64,0,0,0,0-.22.82.82,0,0,0,0-.22,1.52,1.52,0,0,0-.06-.2l0-.09a.56.56,0,0,1-.05-.08,1.22,1.22,0,0,0-.26-.25l0,0,0,0,0,0a2.9,2.9,0,0,0-.38-.16,3.37,3.37,0,0,0-.48-.12,2,2,0,0,0-.76,0c-.11,0-.1,0-.05,0l.14,0-.3,0h-.3s.23,0,.12,0-.16,0-.3,0c0,0,0,0-.11.05l-.3,0h0s-.11,0-.19,0h0l-.38.08-.39.1-.4.11-.4.13a11,11,0,0,0-1.53.66l.17-.11a1.17,1.17,0,0,1-.25.14l-.2.12,0,0-.16.09-.05,0,0,0a.69.69,0,0,1-.21.13l0,0-.1.06-.1.07-.17.12a.47.47,0,0,0-.09.06l-.09.06-.18.15,0,0,0,0,0,0-.07,0-.15.11-.08.07,0,.06,0,.05,0-.05c.08,0-.1.12-.18.21a.61.61,0,0,0,.32-.18l.1-.09.08-.05a.68.68,0,0,0,.2-.15,1.29,1.29,0,0,1,.21-.17l.07,0,0,0,0,0,.14-.11c-.09.09.23-.15.08,0a.37.37,0,0,0,.1-.07l.15-.1.17-.12.15-.08,0,.05a1.37,1.37,0,0,1,.18-.11l.05,0h0l0,0v0l.14-.07s-.15.06-.1,0a2.14,2.14,0,0,1,.22-.13l-.09.07.09,0,.07,0h0l-.1.06-.1.07c.24-.12,0,0,.15-.05s0,0,.1-.07l.23-.11s-.09,0-.12.07l.18-.06,0,0h0a.2.2,0,0,1,.08,0l.16-.08.1-.05.11,0-.06,0c.15-.06.27-.08.37-.13s0,0,.27,0c0,0,0,0,.11-.05s.17,0,.17-.06l.19,0c.08,0,.06,0,.07-.06s0,0,.19-.06,0,.06.16,0l.06,0h.13a.7.7,0,0,1,.24,0l-.12,0,.15,0,.21,0,.21,0h.08l.07,0c.08,0,.26,0,.24,0l.23,0h.25l.18,0c-.06,0-.07,0-.06,0h.09l.23,0a.44.44,0,0,1,.18,0c.07,0,.1,0,.11,0s0,0,0,0l.21.09c.07,0,.12.07.09.07l-.06,0s-.05,0-.08,0l-.06,0s0,0,0,0l.1,0h0l.06,0s0,0,0,0,0,0,0,0a.54.54,0,0,1,.22.14l0,0h0s.06,0,0,0h0l0,0,0,0h0l-.08-.06s0,0,0,0l.16.09h0l0,0,.05,0,0,0,0,0,.05.05,0,0,0,0,0,.05v0s0,.06,0,.07l0,0s0,0,0,0,0,0,0,0a.35.35,0,0,1,0,.2,1.21,1.21,0,0,1-.05.18l0-.06v0a0,0,0,0,1,0,0,.68.68,0,0,1,0,.13l0,0s0,0-.05,0a1.31,1.31,0,0,1-.19.27,2,2,0,0,1-.2.21c-.14.14-.27.27-.41.43l.15-.13,0-.06c.13-.1,0,.06,0,.13s-.2.2-.14.12l-.16.19s.14-.14.07,0l-.14.13s-.06.06,0,0l-.13.16c0,.05,0,.09,0,.08s0,.07-.06.07,0,0,0,0a1.4,1.4,0,0,1,.09-.17l-.09.11s0,0,0,0l-.15.22a.49.49,0,0,0,0-.11,1.06,1.06,0,0,0-.11.21c0,.07-.05.14-.09.22s0,0,0,.08,0,.07,0,.1a.22.22,0,0,1,0,.08.61.61,0,0,0,0,.14,1,1,0,0,0,0,.2l0,.09,0,0,0,0a.83.83,0,0,0,.18.24l0-.07.16.14.05,0,0,0,.06,0,0,0,0,0,.05,0,0,0,.07,0h.08a1,1,0,0,0,.3,0c.07,0,.11,0,.09,0h.24l.24,0,.29,0a1.91,1.91,0,0,1-.33.06,1,1,0,0,0,.23,0l.34-.08a1.85,1.85,0,0,0,.32-.16h0l0,0,.05,0,.09-.06.16-.11c-.1,0-.08,0,.07-.13l.12-.07.12-.08.1-.07c0,.05.26-.16,0,0a1.67,1.67,0,0,0-.2.13,3,3,0,0,0,.37-.23,1.13,1.13,0,0,1-.15.14s0,0,0,0c-.27.23.08,0,0,0l.13-.11s0,0,0,0a2,2,0,0,0,.28-.21l.15-.13.13-.09s-.09.05,0,0l.14-.09.08,0,.06,0,.1-.06.1-.06,0,0h-.06s0,0,.05,0a.39.39,0,0,1,.17-.09l.2-.06h0l-.11,0-.08,0a2.13,2.13,0,0,1,.45-.13c.13,0-.06,0-.19.06l.28,0,.18,0h.29l-.12,0,0,0h-.1c-.14,0-.11,0-.08,0s.06,0-.06,0v0a1,1,0,0,0-.29,0s0,0,0,0h.06l-.25.06a1,1,0,0,0-.21.1l.2-.07.21-.06a1.77,1.77,0,0,1,.33,0,1.74,1.74,0,0,1,.51,0l-.07,0h0l.06,0,.08,0,.22.1s0,0,.1,0l0,0,0,0s0,0,0,0a.6.6,0,0,1-.11-.1l.07,0h0l0,0,0,0h0l0,0,0,0s0,0,0,0h0s0,.05.05.12a.44.44,0,0,0-.1-.12,1,1,0,0,0-.19-.14l.08.07a.35.35,0,0,1,.08.1s0,0,0,0l0,0v0a.4.4,0,0,1,.1.15.52.52,0,0,1,.06.2,1,1,0,0,1,0,.25c0,.09,0,.18,0,.29a.08.08,0,0,1,0-.05.19.19,0,0,1,0-.08c0-.07,0-.14,0-.21s0-.22,0-.17v.16a.13.13,0,0,1,0,.06v.09a1.28,1.28,0,0,0,0,.33.11.11,0,0,1,0,0s0,0,0,.06a.56.56,0,0,0,0,.12.37.37,0,0,0,.05.11l0,.06,0,0v0l0,0,0-.06v0l0,0,0,0a.61.61,0,0,0,.07.1l.08.1.09.07h0l0,0,.05,0,0,0a3.1,3.1,0,0,0,.3.14,2.78,2.78,0,0,0,.38.12s0,0-.13,0l-.22-.07-.12-.06s-.07,0,0,0l.1.05.1,0,.1,0,.1,0,.44.07-.11,0,.41,0c.14,0,.09,0,0,0s-.15,0-.06,0h-.34l.18,0c.15,0,.32,0,.43,0l-.12,0s.13,0,.19,0l-.08,0a2.49,2.49,0,0,1-.4,0H812s-.07,0-.1,0h.44c-.11,0-.29,0-.15,0l.1,0h.09c.13,0,0,0,.17,0,0,0,.1,0,.07,0a2.79,2.79,0,0,0,.32,0c-.19,0-.2,0,0,0a5.28,5.28,0,0,1,.66,0l.13,0c-.08,0,.17,0,.26,0s-.42,0-.41.07c.18,0,.1,0,0,0,.2,0,.07,0,.16-.05s.34,0,.22,0c.17,0,.2,0,.33,0s0,0,0,0h.21s0,0-.09,0c0,0,.34,0,.33,0a4.29,4.29,0,0,0,.48,0s-.29,0-.34,0c.2,0,.69,0,1-.08s0,0,.06,0l-.56,0a7.08,7.08,0,0,0,.85-.06,6.29,6.29,0,0,0,.63,0,.33.33,0,0,0-.14,0l.29,0c.06,0-.15,0,0,0s.16,0,.14,0h0c.32,0,.23,0,.5,0h-.14c-.06,0,.11,0,.24-.05,0,0,.11,0,.2,0s-.23,0-.27,0h.19l.27,0c-.19,0-.09,0,0,0a1.31,1.31,0,0,1,.35,0,2.25,2.25,0,0,1,.41,0c-.18,0,0,0,0,0h.27c-.28,0,.06,0,0,0a2.1,2.1,0,0,1-.4,0,6.3,6.3,0,0,0,.65,0s0,0-.13,0c.05,0,.23,0,.4,0,0,0-.14,0,0,0l.22,0c.26,0,.09,0,.3-.06h-.14s.29,0,.29,0-.2,0-.34,0,.17,0,.25,0h.45s-.35.06-.31.11c.28,0,.69-.06.87-.05s.23,0,.19-.07h.22l-.12,0,.81-.07c.19,0,.11,0,.07,0h.16a1.49,1.49,0,0,1,.36,0s-.08,0-.07,0a2.47,2.47,0,0,0,.39,0,.39.39,0,0,1-.22,0h0l-.23,0a.87.87,0,0,1,.43,0c.27,0-.22,0,.1,0s.81-.05,1,0,.43-.06.74-.08c0,0,.21,0,.18,0-.3,0-.55.07-.79,0s-.09,0-.15.05h-.24c.27,0,.07-.05.41-.07a2.36,2.36,0,0,0-.45,0s0,0-.08,0l.39-.06s0,0,0,0l.36,0c.11,0,.14,0,.08,0a4,4,0,0,1,.54,0c.26,0-.08,0-.1,0h0l-.27,0s.31,0,.35,0,.38,0,.57,0l-.21.06.19,0c-.11,0-.11,0-.28.08l.81,0c.07,0,.1,0,.07,0a3.5,3.5,0,0,1,.64,0c.24,0-.24,0-.07,0l.25,0h-.48c.13,0,.11,0,.15,0h-.22s.27,0,.37,0c-.06,0,0,0-.09,0a4.79,4.79,0,0,1,.64,0c.1,0-.08,0-.13,0s.19,0,.23,0h-.18l.56,0-.23,0a2.2,2.2,0,0,0,.49,0c.19,0,.41,0,.35,0s0,0,0,0c.26,0,.28,0,.44-.05h-.12c.25,0,.05,0,.28,0,0,0,0,0,0,.07s.17,0,.27,0c-.06,0,.2,0,0,0,.22,0,.32,0,.48,0-.1,0,.19,0,.1,0,.22,0,.37,0,.31,0a.77.77,0,0,0-.19,0l.39,0a.66.66,0,0,1,.24,0c.13,0,.37,0,.47,0a1.33,1.33,0,0,1-.29,0h0l.16,0c-.16,0,0,0-.25,0s.44-.07.24-.08-.14,0-.28,0h0l-.32,0s.08,0,.08,0c-.38,0-.44,0-.86,0,0,0,.12,0-.07,0a1.13,1.13,0,0,1-.26,0,.75.75,0,0,1,.22,0v0a3.85,3.85,0,0,1,.56-.09,2.41,2.41,0,0,1,.55,0l-.11,0c.23,0,.05,0,.35,0,.12,0,.35,0,.19.09.21,0,.28,0,.48,0s-.06,0,0,.06.32,0,.21,0h.14a1.63,1.63,0,0,0,.36,0Z"/><path class="cls-24" d="M827.36,914.25h0Z"/><path class="cls-24" d="M831.16,913.87h0Z"/><path class="cls-24" d="M810.24,914.84l0,0Z"/><path class="cls-24" d="M814.29,915.06h0Z"/><path class="cls-24" d="M831.36,914h0Z"/><path class="cls-24" d="M832.48,931.66h0Z"/><path class="cls-24" d="M832.58,931.67h0Z"/><path class="cls-24" d="M804.16,928.1h0l-.08,0Z"/><path class="cls-24" d="M805.09,932h0Z"/><path class="cls-24" d="M831.16,931.74h0Z"/><path class="cls-24" d="M802.63,927.85h0Z"/><path class="cls-24" d="M827,931.85h0Z"/><path class="cls-24" d="M806.46,931.76l0,0Z"/><path class="cls-24" d="M831.9,931.69h0Z"/><path class="cls-24" d="M809.88,930.65l0,0h0l.07.09Z"/><path class="cls-24" d="M832.6,931.76l.32,0c-.16,0-.18,0-.35,0a.56.56,0,0,1,.13,0,2.56,2.56,0,0,1-.34,0,.51.51,0,0,0,.22,0l-.39,0s-.37,0-.29,0l-.24,0a1.92,1.92,0,0,1,.3-.06c.41,0,0,0,.09,0l.32,0s.12,0-.08,0a1.81,1.81,0,0,1,.45,0h-.12s.24-.05,0-.05c.07,0-.13,0,0,0-.11,0-.39,0-.28,0l-.46,0s.09,0,.14,0l-.36,0h.1a5.45,5.45,0,0,0-.64.07,2.32,2.32,0,0,1,.34-.05c-.13,0-.09,0-.31,0,0,0,0,0,0,0l-.18,0s0,0,0,0c-.28,0,0,0-.38.07.24,0,.2,0,.41,0s-.23,0-.29.06a2.25,2.25,0,0,0-.45,0c.13,0,0,0,.23,0s-.07,0-.1,0,0,0-.14,0h0l-.3,0c-.28,0-.63.06-.82,0l0,0c-.18,0-.43,0-.56,0a1,1,0,0,1,.27,0,5.38,5.38,0,0,0-.8.08h.32a3.79,3.79,0,0,1-.51,0s.08,0,0-.05-.3,0-.42.05,0,0,.32-.06.43,0,.6,0h-.1l.51,0h0l.09,0h-.1a2,2,0,0,1,.32-.06,1.7,1.7,0,0,0-.45.09c-.27,0-.37,0-.55,0,0,0-.16,0,0,0s.25,0,.26,0H828a1.4,1.4,0,0,1-.39.08,3.53,3.53,0,0,1-.54,0c.17,0,.35,0,.3-.06s-.34,0-.29,0a2.66,2.66,0,0,1-.58,0c.2,0,.39,0,.55,0,0,0-.09,0-.06,0h-.31v0c-.18,0-.52,0-.84,0h0c-.26,0-.28.06-.56.08.08,0,0,0,0,0a2.14,2.14,0,0,1-.36,0c.17,0-.1,0,0,0s-.27,0-.42,0,.45,0,.23-.07-.18,0-.08,0a4,4,0,0,1-.6,0c-.22,0-.31,0-.44.07a1.06,1.06,0,0,1,.27,0l-.16,0h-.53l.15,0h0c.06,0,.26,0,.24,0s-.25,0-.44,0h0a7.25,7.25,0,0,0-.77.05c.06,0,.18,0,.15,0s-.28,0-.27,0h.07l-.37,0s0,0-.13,0c-.32,0,.13,0-.09,0l-.3,0h-.07c-.45,0-.79.08-1.27.1a2.57,2.57,0,0,1,.46-.06c-.15,0-.36,0-.56,0s-.33,0-.3.05c-.22,0-.16,0-.19,0a4.36,4.36,0,0,1-.54.06v0l-.29,0c.08,0,0,0,0,0h-.07c.28,0,.63-.06.92,0-.09,0,0,0-.06,0h-.09s-.16,0,0,0a2.59,2.59,0,0,1-.53.06c-.17,0,.18,0,.26-.06l-.26,0,0,0c-.3,0-.08,0-.15.06a1.3,1.3,0,0,1-.34,0h.08c-.22,0-.27,0-.48,0l-.1,0a2.07,2.07,0,0,0,.45,0c-.35,0,.1-.05.21-.08a2.88,2.88,0,0,1-.4,0c-.23.05-.49,0-.72.06s.11,0,0,0l-.76,0c-.13,0-.11,0-.15,0-.64,0-.89.09-1.59.11l.1,0a2.36,2.36,0,0,0-.34,0c-.19,0-.63.06-.87,0s-.32.05-.56.07c0,0,.07,0,0,0l-.59,0h-1.15a2.91,2.91,0,0,1-.58-.09H811l-.19,0-.09,0-.08,0-.08,0-.08,0-.06-.05s0,0-.06,0l-.06-.06a.43.43,0,0,1,0-.07l0-.06v0h0v-.1s0,0,0-.08v-.16s0-.13,0-.2,0-.12,0-.08,0,.13,0,.13v-.22a.2.2,0,0,1,0-.09v-.07a.47.47,0,0,0,0-.15s0,0,0,0v0l0,0,0,0v0l0,0a1,1,0,0,0-.19-.44c0-.06-.09-.11-.13-.16l-.08-.07-.08,0a1.91,1.91,0,0,0-.32-.16.1.1,0,0,0,.07,0h0l.08,0h0l.18.1,0,0,0,0,.07,0s0,0,.06.05l-.11-.09a1.5,1.5,0,0,0-.23-.15l-.24-.09-.11,0h0l-.05,0s0,0,0,0h-.49l-.06,0c-.11,0,0,0-.08,0a3.5,3.5,0,0,0-.41.07l-.06,0h-.06l-.1,0-.11,0-.11.05,0,0,0,0-.08,0-.11.06.06-.05a6.45,6.45,0,0,0-.54.37c-.18.13-.34.27-.49.37s-.22.19-.32.26l-.13.11-.12.09.14-.09s.06,0,0,0l-.12.09-.15.09-.1,0h0l.07,0h0l-.06,0-.07,0h0l0,0c-.11,0-.22.07-.22,0a.77.77,0,0,1-.22.06l-.28,0h.18l-.15,0h-.3a.76.76,0,0,1-.21,0h-.05l0,0h.13l-.22,0h0l-.05,0-.12-.06v0l0,0,0,0h0a.53.53,0,0,1-.16-.17.37.37,0,0,1-.05-.11l0,0,0,0v-.11a.53.53,0,0,0,0-.13l0,0a.2.2,0,0,0,0,.07v0s0,0,0,0a.13.13,0,0,0,0,.05.49.49,0,0,0,0,.12c0-.05,0-.11,0-.19a.85.85,0,0,1,.05-.26,2.7,2.7,0,0,1,.15-.29l.21-.26a5.11,5.11,0,0,1,.4-.43,1.49,1.49,0,0,0,.3-.36v0a2.34,2.34,0,0,0,.39-.48,1.68,1.68,0,0,0,.16-.39,1.64,1.64,0,0,0,0-.22.82.82,0,0,0,0-.22,1.52,1.52,0,0,0-.06-.2l0-.09a.56.56,0,0,1-.05-.08,1.52,1.52,0,0,0-.26-.25l0,0,0,0,0,0a2.9,2.9,0,0,0-.38-.16,3.37,3.37,0,0,0-.48-.12,2,2,0,0,0-.76,0c-.11,0-.1,0-.05,0l.14,0-.3,0-.16,0h-.14s.23,0,.12,0-.16,0-.3,0c0,0,0,0-.11.05l-.3,0h0s-.11,0-.19,0h0l-.38.08-.39.1-.4.11-.4.13a11,11,0,0,0-1.53.66l.17-.11a1.17,1.17,0,0,1-.25.14l-.2.12,0,0-.16.09-.05,0,0,0a.69.69,0,0,1-.21.13l0,0-.1.06-.1.07-.17.12a.47.47,0,0,0-.09.06l-.09.06-.18.15,0,0,0,0,0,0-.07,0-.15.11-.08.07,0,.06,0,.05,0-.05c.08,0-.1.13-.18.21a.61.61,0,0,0,.32-.18l.1-.09.08-.05a.68.68,0,0,0,.2-.15,1.29,1.29,0,0,1,.21-.17l.07,0,0,0,0,0,.14-.11c-.09.09.23-.15.08,0a.37.37,0,0,0,.1-.07l.15-.1.17-.12.15-.08,0,.05.18-.11.05,0h0l0,0v0l.14-.07s-.15.06-.1,0a2.14,2.14,0,0,1,.22-.13l-.09.07.09,0,.07,0h0l-.1.06-.1.07c.24-.12,0,0,.15-.05s0,0,.1-.07l.23-.11s-.09,0-.12.07l.18-.06,0,0h0a.2.2,0,0,1,.08,0l.16-.08.1-.05.11,0-.06,0c.15-.06.27-.08.37-.13s0,0,.27,0c0,0,0,0,.11-.05s.17,0,.17-.06l.19,0c.08,0,.06,0,.07-.05s0,0,.19-.07,0,.06.16,0l.06,0h.13l.24,0-.12,0,.15,0H802l.21,0h.08l.07,0c.08,0,.26,0,.24,0l.23,0h.25l.18,0c-.06,0-.07,0-.06,0h.09l.23,0a.44.44,0,0,1,.18,0c.07,0,.1,0,.11,0s0,0,0,0l.21.09c.07,0,.12.07.09.07l-.06,0s-.05,0-.08,0l-.06,0s0,0,0,0l.1,0h0l.06,0,0,0s0,0,0,0a.54.54,0,0,1,.22.14l0,0h0s.06,0,0,0h0l0,0,0,0h0c-.08,0-.09,0-.08-.06s0,0,0,0l.16.09h0l0,0,.05,0,0,0,0,0,.05.05,0,0,0,0,0,.05v0s0,.06,0,.07l0,0s0,0,0,0,0,0,0,0a.35.35,0,0,1,0,.2,1.21,1.21,0,0,1-.05.18l0-.06v0a0,0,0,0,1,0,0,.68.68,0,0,1,0,.13l0,0s0,0-.05,0a1.31,1.31,0,0,1-.19.27,2,2,0,0,1-.2.21c-.14.14-.27.27-.41.43l.15-.13,0-.06c.13-.1,0,.06,0,.13s-.2.2-.14.12l-.16.19s.14-.14.07,0l-.14.13s-.06.06,0,0l-.13.16c0,.05,0,.09,0,.08s0,.07-.06.07,0,0,0,0l.09-.17c0,.08-.08.11-.09.11s0,0,0,0l-.15.22a.49.49,0,0,0,0-.11,1.06,1.06,0,0,0-.11.21c0,.07-.05.14-.09.22s0,0,0,.08,0,.07,0,.1a.22.22,0,0,1,0,.08.61.61,0,0,0,0,.14,1,1,0,0,0,0,.2l0,.09,0,0,0,0a.83.83,0,0,0,.18.24l0-.07.16.14.05,0,0,0,.06,0,0,0,0,0,.05,0,0,0,.07,0h.08a1,1,0,0,0,.3,0c.07,0,.11,0,.09,0h.24l.24,0,.29,0a1.91,1.91,0,0,1-.33.06,1,1,0,0,0,.23,0l.34-.08a1.85,1.85,0,0,0,.32-.16h0l.05,0,.09-.07L806,932c-.1,0-.08,0,.07-.13l.12-.07.12-.08.1-.07c0,.05.26-.16,0,0a1.67,1.67,0,0,0-.2.13,3,3,0,0,0,.37-.23,1.13,1.13,0,0,1-.15.14s0,0,0,0c-.27.23.08,0,0,0l.13-.11s0,0,0,0a2,2,0,0,0,.28-.21l.15-.13.13-.09s-.09.05,0,0l.14-.09.08,0,.06,0,.1-.06.1-.06s0,0,0,0h-.06s0,0,.05,0a.39.39,0,0,1,.17-.09l.2-.06h0l-.11,0-.08,0a2.13,2.13,0,0,1,.45-.13c.13,0-.06,0-.19.06l.28,0,.18,0h.21l.08,0h-.12l0,0h-.1c-.14,0-.11,0-.08,0s.06,0-.06,0v0a1,1,0,0,0-.29,0s0,0,0,0h.06l-.25.06a1,1,0,0,0-.21.1l.2-.07.21-.06a1.77,1.77,0,0,1,.33,0,1.74,1.74,0,0,1,.51,0l-.07,0s0,0,0,0H809l.06,0,.08,0,.22.1s0,0,.1,0l0,0,0,0s0,0,0,0a.6.6,0,0,1-.11-.1l.07,0h0l0,0,0,0h0l0,0,0,0s0,0,0,0h0s0,.05.05.12a.44.44,0,0,0-.1-.12.7.7,0,0,0-.19-.13l.08.06a.35.35,0,0,1,.08.1s0,0,0,0l0,0v0a.4.4,0,0,1,.1.15.52.52,0,0,1,.06.2,1,1,0,0,1,0,.25c0,.09,0,.18,0,.29a.08.08,0,0,1,0-.05.19.19,0,0,1,0-.08c0-.07,0-.14,0-.21s0-.22,0-.17v.16a.13.13,0,0,1,0,.06v.09a1.28,1.28,0,0,0,0,.33.13.13,0,0,1,0,.06s0,0,0,0a.56.56,0,0,0,0,.12.37.37,0,0,0,.05.11l0,.06,0,0v0l0,0,0-.06v0l0,0,0,.05a.61.61,0,0,0,.07.1l.08.1.09.07h0l0,0,.05,0,0,0a3.1,3.1,0,0,0,.3.14,2.78,2.78,0,0,0,.38.12s0,0-.13,0l-.22-.07-.12-.06s-.07,0,0,0l.1.05.1,0,.1,0,.1,0,.44.07-.11,0,.41,0c.14,0,.09,0,0,0s-.15,0-.06,0h-.34l.18,0c.15,0,.32,0,.43,0l-.12,0s.13,0,.19,0l-.08,0a2.49,2.49,0,0,1-.4,0H812s-.07,0-.1,0h.44c-.11,0-.29,0-.15,0l.1,0h.09c.13,0,0,0,.17,0,0,0,.1,0,.07,0a2.79,2.79,0,0,0,.32,0c-.19,0-.2,0,0,0a5.28,5.28,0,0,1,.66,0l.13,0c-.08,0,.17,0,.26,0s-.42,0-.41.06c.18,0,.1,0,0,0,.2,0,.07,0,.16-.05s.34,0,.22,0c.17,0,.2,0,.33,0s0,0,0,0h.21s0,0-.09,0c0,0,.34,0,.33,0a4.29,4.29,0,0,0,.48,0c0-.05-.29,0-.34,0,.2,0,.69,0,1-.08s0,0,.06,0l-.56,0a7.08,7.08,0,0,0,.85-.06,6.29,6.29,0,0,0,.63,0,.33.33,0,0,0-.14,0H817c.06,0-.15,0,0,0s.16,0,.14,0h0c.32,0,.23,0,.5,0h-.14c-.06,0,.11,0,.24-.05,0,0,.11,0,.2,0s-.23,0-.27,0h.19l.27,0c-.19,0-.09,0,0,0a1.31,1.31,0,0,1,.35,0,2.25,2.25,0,0,1,.41,0c-.18,0,0,0,0,0h.27c-.28,0,.06,0,0,0a1.51,1.51,0,0,1-.4,0,6.3,6.3,0,0,0,.65,0s0,0-.13,0c.05,0,.23,0,.4,0,0,0-.14,0,0,0l.22,0c.26,0,.09,0,.3-.06h-.14s.29,0,.29,0-.2,0-.34,0,.17,0,.25,0h.45s-.35.06-.31.11c.28,0,.69-.06.87-.05s.23,0,.19-.07h.22l-.12,0,.81-.07c.19,0,.11,0,.07,0h.16a1.49,1.49,0,0,1,.36,0s-.08,0-.07,0a2.47,2.47,0,0,0,.39,0,.39.39,0,0,1-.22,0h0l-.23,0a.87.87,0,0,1,.43,0c.27,0-.22,0,.1,0s.81-.05,1,0,.43-.06.74-.08c0,0,.21,0,.18,0-.3,0-.55.07-.79,0s-.09,0-.15,0a.85.85,0,0,1-.24,0c.27,0,.07,0,.41-.07a2.36,2.36,0,0,0-.45,0s0,0-.08,0l.39-.06s0,0,0,0l.36,0c.11,0,.14,0,.08,0,.2,0,.54,0,.54,0,.26,0-.08,0-.1,0h0l-.27,0s.31,0,.35,0,.38,0,.57,0l-.21.06.19,0c-.11,0-.11,0-.28.08l.81,0c.07,0,.1,0,.07,0a4.7,4.7,0,0,1,.64,0c.24,0-.24,0-.07,0l.25,0h-.48c.13,0,.11,0,.15,0h-.22s.27,0,.37,0c-.06,0,0,0-.09,0a4.79,4.79,0,0,1,.64,0c.1,0-.08,0-.13,0s.19,0,.23,0h-.18l.56,0-.23,0a2.2,2.2,0,0,0,.49,0c.19,0,.41,0,.35,0s0,0,0,0c.26,0,.28,0,.44-.05h-.12c.25,0,.05,0,.28,0,0,0,0,0,0,.07s.17,0,.27,0c-.06,0,.2,0,0,0,.22,0,.32,0,.48,0-.1,0,.19,0,.1,0,.22,0,.37,0,.31,0a.77.77,0,0,0-.19,0l.39,0a.66.66,0,0,1,.24,0c.13,0,.37,0,.47,0a1.33,1.33,0,0,1-.29,0h0l.16,0c-.16,0,0,0-.25,0s.44-.08.24-.09-.14,0-.28.05h0l-.32,0s.08,0,.08,0c-.38,0-.44,0-.86,0,0,0,.12,0-.07,0a1.13,1.13,0,0,1-.26,0,.75.75,0,0,1,.22,0v0a3.85,3.85,0,0,1,.56-.09,2.41,2.41,0,0,1,.55,0l-.11,0c.23,0,.05,0,.35,0,.12,0,.35,0,.19.09.21,0,.28,0,.48,0s-.06,0,0,.06.32,0,.21,0h.27s-.09,0-.13,0a1.63,1.63,0,0,0,.36,0Z"/><path class="cls-24" d="M827.36,932.12h0Z"/><path class="cls-24" d="M831.16,931.74h0Z"/><path class="cls-24" d="M810.24,932.71l0,0Z"/><path class="cls-24" d="M814.29,932.93h0Z"/><path class="cls-24" d="M831.36,931.9h0Z"/></g><rect class="cls-10" x="383" y="899.42" width="12.1" height="54.26"/><rect class="cls-6" x="395.1" y="899.42" width="12.11" height="54.26"/><rect class="cls-10" x="407.21" y="899.42" width="12.11" height="54.26"/><path class="cls-11" d="M528.57,733.47V953.68H632.38V733.47Zm90,204.26H542.35V906.58H618.6Zm0-47.66H542.35V747.26H618.6Z"/><rect class="cls-10" x="182.26" y="665.44" width="31.24" height="288.24"/><rect class="cls-10" x="431.42" y="899.42" width="12.11" height="54.26"/><rect class="cls-6" x="419.32" y="899.42" width="12.1" height="54.26"/><rect class="cls-6" x="274.04" y="899.42" width="12.1" height="54.26"/><rect class="cls-10" x="286.14" y="899.42" width="12.11" height="54.26"/><rect class="cls-10" x="261.93" y="899.42" width="12.11" height="54.26"/><rect class="cls-6" x="346.68" y="899.42" width="12.1" height="54.26"/><rect class="cls-6" x="298.25" y="899.42" width="12.11" height="54.26"/><rect class="cls-10" x="310.36" y="899.42" width="12.1" height="54.26"/><rect class="cls-6" x="322.46" y="899.42" width="12.11" height="54.26"/><rect class="cls-10" x="334.57" y="899.42" width="12.11" height="54.26"/><rect class="cls-6" x="249.82" y="899.42" width="12.11" height="54.26"/><rect class="cls-10" x="358.78" y="899.42" width="12.11" height="54.26"/><rect class="cls-10" x="479.85" y="899.42" width="12.11" height="54.26"/><rect class="cls-6" x="370.89" y="899.42" width="12.11" height="54.26"/><rect class="cls-10" x="455.64" y="899.42" width="12.11" height="54.26"/><rect class="cls-6" x="467.75" y="899.42" width="12.1" height="54.26"/><rect class="cls-6" x="225.61" y="899.42" width="12.11" height="54.26"/><rect class="cls-6" x="443.53" y="899.42" width="12.11" height="54.26"/><path class="cls-10" d="M492,665.44V953.68h36.61V733.47H632.38V953.68H669V665.44Zm140.42,46.61H528.57V675.77H632.38Z"/><rect class="cls-10" x="213.5" y="899.42" width="12.11" height="54.26"/><path class="cls-6" d="M679.88,656.57v4.87a4,4,0,0,1-4,4H175.38a4,4,0,0,1-4-4v-4.87Z"/><rect class="cls-6" x="171.38" y="624.71" width="508.5" height="31.86"/><path class="cls-11" d="M679.88,615.94v8.77H171.38v-8.77a4,4,0,0,1,4-4h500.5A4,4,0,0,1,679.88,615.94Z"/><path class="cls-11" d="M528.57,666.6v45.45H632.38V666.6Zm92.84,35.75H539.55V676.3h81.86Z"/><rect class="cls-19" x="542.35" y="906.58" width="76.25" height="31.15"/><path class="cls-19" d="M542.35,747.26V890.07H618.6V747.26Zm12.09,89.53a2.34,2.34,0,1,1-3.32-2.12V815.59a2.34,2.34,0,1,1,2,0v19.08A2.34,2.34,0,0,1,554.44,836.79Z"/><path class="cls-6" d="M554.44,836.79a2.34,2.34,0,1,1-3.32-2.12V815.59a2.34,2.34,0,1,1,2,0v19.08A2.34,2.34,0,0,1,554.44,836.79Z"/><rect class="cls-19" x="539.55" y="676.3" width="81.86" height="26.05"/><rect class="cls-19" x="359.68" y="679.36" width="120.04" height="26.04"/><rect class="cls-19" x="225.75" y="679.36" width="120.03" height="26.04"/><rect class="cls-19" x="213.5" y="842.23" width="135.76" height="45.88"/><rect class="cls-19" x="213.5" y="719.69" width="135.76" height="115.59"/><polygon class="cls-11" points="491.96 835.28 491.96 842.23 356.21 842.23 356.21 888.11 349.26 888.11 349.26 842.23 213.5 842.23 213.5 835.28 349.26 835.28 349.26 719.69 356.21 719.69 356.21 835.28 491.96 835.28"/><rect class="cls-11" x="213.5" y="888.11" width="278.46" height="11.31"/><rect class="cls-19" x="356.21" y="842.23" width="135.75" height="45.88"/><path class="cls-11" d="M213.5,665.44v54.25H492V665.44Zm132.28,40h-120v-26h120Zm133.94,0h-120v-26h120Z"/><line class="cls-25" x1="575" y1="566.15" x2="566.13" y2="566.15"/><line class="cls-25" x1="610.94" y1="566.15" x2="600.47" y2="566.15"/><line class="cls-25" x1="606.37" y1="559.51" x2="600.47" y2="559.51"/><line class="cls-25" x1="550.81" y1="559.51" x2="562.27" y2="559.51"/><line class="cls-25" x1="562.27" y1="552.87" x2="559.5" y2="552.87"/><line class="cls-25" x1="587.74" y1="552.87" x2="596.74" y2="552.87"/><line class="cls-25" x1="587.74" y1="566.15" x2="587.74" y2="574.35"/><line class="cls-25" x1="291.64" y1="476.34" x2="300.51" y2="476.34"/><line class="cls-25" x1="255.7" y1="476.34" x2="266.17" y2="476.34"/><line class="cls-25" x1="266.17" y1="469.7" x2="260.27" y2="469.7"/><line class="cls-25" x1="304.37" y1="469.7" x2="315.83" y2="469.7"/><line class="cls-25" x1="304.37" y1="463.06" x2="307.14" y2="463.06"/><line class="cls-25" x1="278.9" y1="463.06" x2="269.9" y2="463.06"/><line class="cls-25" x1="278.9" y1="476.34" x2="278.9" y2="484.54"/><path class="cls-10" d="M213.5,353.81V611.94H632.38V353.81ZM304.37,469.7H291.63v6.63H266.17V469.7H278.9v-6.64h25.47ZM496.73,574.2H354.53V420.42h142.2Zm103.74-8.05H575v-6.64H562.26v-6.64h25.48v6.64h12.73Z"/><rect class="cls-26" x="562.26" y="552.87" width="25.48" height="6.64"/><rect class="cls-11" x="575" y="559.51" width="25.47" height="6.64"/><rect class="cls-26" x="643.47" y="898.05" width="20.85" height="5.43"/><rect class="cls-11" x="637.46" y="903.48" width="20.84" height="5.43"/><rect class="cls-26" x="644.51" y="695.77" width="17.93" height="4.67"/><rect class="cls-11" x="639.34" y="700.45" width="17.92" height="4.67"/><rect class="cls-11" x="639.34" y="685.77" width="13.61" height="3.55"/><rect class="cls-11" x="636.79" y="884.84" width="13.37" height="3.49"/><rect class="cls-26" x="494.02" y="923.01" width="20.85" height="5.43"/><rect class="cls-11" x="500.05" y="917.57" width="20.84" height="5.43"/><rect class="cls-11" x="508.19" y="938.16" width="13.37" height="3.49"/><rect class="cls-26" x="189.75" y="923.01" width="20.85" height="5.43"/><rect class="cls-11" x="195.77" y="917.57" width="20.84" height="5.43"/><rect class="cls-11" x="203.91" y="938.16" width="13.37" height="3.49"/><rect class="cls-26" x="194.82" y="761.31" width="11.18" height="3.56"/><rect class="cls-11" x="190.88" y="757.75" width="13.65" height="3.56"/><rect class="cls-11" x="190.45" y="771.23" width="8.76" height="2.28"/><rect class="cls-11" x="278.9" y="463.06" width="25.47" height="6.64"/><rect class="cls-26" x="266.17" y="469.7" width="25.46" height="6.63"/><rect class="cls-11" x="266.17" y="575.31" width="25.47" height="6.64"/><rect class="cls-26" x="278.91" y="588.06" width="25.46" height="6.63"/><rect class="cls-26" x="254.96" y="570.13" width="19.89" height="5.18"/><path class="cls-11" d="M354.53,420.42v142.2h142.2V420.42ZM488,553.84H363.3V429.2H488Z"/><rect class="cls-11" x="354.53" y="562.62" width="142.2" height="11.58"/><rect class="cls-11" x="632.38" y="486.32" width="116.34" height="7.1"/><line class="cls-20" x1="740.45" y1="523.94" x2="740.45" y2="493.43"/><line class="cls-20" x1="693.34" y1="558.16" x2="693.34" y2="493.43"/><path class="cls-11" d="M822.17,694.73V706.9a4,4,0,0,1-4.51,4c-10.09-1.33-35-3.86-53.14.65-21.1,5.24-55.6,10.66-95.53-1v-45h6.89a4,4,0,0,0,4-4v-45.5l140.24,75.3A4,4,0,0,1,822.17,694.73Z"/><rect class="cls-10" x="237.72" y="899.42" width="12.1" height="54.26"/><rect class="cls-27" x="391.18" y="776.78" width="63.53" height="3.29" rx="1.65" transform="translate(1272.44 1029.8) rotate(135)"/><rect class="cls-27" x="419.31" y="791.02" width="28.12" height="3.29" rx="1.65" transform="translate(1300.3 1046.73) rotate(135)"/><rect class="cls-27" x="403.41" y="761.5" width="28.12" height="3.29" rx="1.65" transform="translate(1252.28 1007.57) rotate(135)"/><rect class="cls-27" x="243.24" y="776.78" width="63.53" height="3.29" rx="1.65" transform="translate(1019.91 1134.4) rotate(135)"/><rect class="cls-27" x="271.37" y="791.02" width="28.12" height="3.29" rx="1.65" transform="translate(1047.77 1151.33) rotate(135)"/><rect class="cls-27" x="255.47" y="761.5" width="28.12" height="3.29" rx="1.65" transform="translate(999.75 1112.17) rotate(135)"/><rect class="cls-27" x="557.42" y="820.3" width="46.96" height="2.43" rx="1.22" transform="translate(1572.56 991.66) rotate(135)"/><rect class="cls-27" x="578.21" y="830.82" width="20.79" height="2.43" rx="1.22" transform="translate(1593.16 1004.17) rotate(135)"/><rect class="cls-27" x="566.46" y="809" width="20.79" height="2.43" rx="1.22" transform="translate(1557.66 975.23) rotate(135)"/><path class="cls-28" d="M710.36,555a8.22,8.22,0,0,0,1.38,5,4.79,4.79,0,0,0,4.12,1.87q.89,0,1.65-.06c.51,0,.92-.1,1.25-.16V549.53a5.8,5.8,0,0,0-1.63-.67,7.81,7.81,0,0,0-2-.27C711.93,548.59,710.36,550.74,710.36,555Z"/><path class="cls-28" d="M753.3,547.91l-5-21.16a9.26,9.26,0,0,0-6.88-6.88l-1-.23-20.18-4.75a9.26,9.26,0,0,0-8.65,2.46l-18.29,18.29-10.74,10.75a9.24,9.24,0,0,0,0,13.07l26.14,26.14a9.24,9.24,0,0,0,13.07,0l29-29A9.25,9.25,0,0,0,753.3,547.91Zm-27.88,18.3c-.59.18-1.28.36-2,.52s-1.59.3-2.44.42-1.72.22-2.6.29-1.72.12-2.52.12a14.94,14.94,0,0,1-5.19-.85,10.24,10.24,0,0,1-6.24-6.29,14.65,14.65,0,0,1-.82-5.07,17.33,17.33,0,0,1,.71-5.17,11.21,11.21,0,0,1,2.06-3.91,8.88,8.88,0,0,1,3.28-2.46,11.14,11.14,0,0,1,4.45-.85,10.44,10.44,0,0,1,2.49.27,13.47,13.47,0,0,1,2.21.76V533.35l6.66-1.08Zm16.87-36.63a2.61,2.61,0,1,1,0-3.68A2.61,2.61,0,0,1,742.29,529.58Z"/><polygon class="cls-21" points="386.38 908.91 324.59 970.71 316.27 970.71 378.06 908.91 386.38 908.91"/><polygon class="cls-21" points="333.25 917.57 324.92 917.57 316.27 908.92 324.59 908.92 333.25 917.57"/><polygon class="cls-22" points="386.38 970.71 378.07 970.71 324.92 917.57 333.25 917.57 386.38 970.71"/><circle class="cls-21" cx="351.33" cy="939.81" r="0.9"/><rect class="cls-21" x="307.43" y="899.87" width="87.95" height="11.95" rx="0.47"/><polygon class="cls-21" points="310.66 940.7 280.24 971.12 276.14 971.12 306.56 940.7 310.66 940.7"/><polygon class="cls-22" points="276.14 940.7 306.56 971.12 310.66 971.12 280.24 940.7 276.14 940.7"/><rect class="cls-21" x="271.79" y="936.25" width="43.3" height="5.88" rx="0.61"/><polygon class="cls-21" points="429.16 940.7 398.74 971.12 394.64 971.12 425.07 940.7 429.16 940.7"/><polygon class="cls-22" points="394.64 940.7 425.07 971.12 429.16 971.12 398.74 940.7 394.64 940.7"/><rect class="cls-21" x="390.29" y="936.25" width="43.3" height="5.88" rx="0.61"/><polygon class="cls-13" points="207.45 701.62 205.6 721.65 189.84 721.65 188 701.62 207.45 701.62"/><circle class="cls-14" cx="197.76" cy="710.58" r="4.06"/><path class="cls-11" d="M211.19,699.47H184.26a.39.39,0,0,1-.31-.62l5-6.45a.39.39,0,0,1,.31-.15h16.88a.37.37,0,0,1,.31.15l5,6.45A.38.38,0,0,1,211.19,699.47Z"/><path class="cls-11" d="M200.36,691.08h-5.48a.16.16,0,0,1-.15-.23l.52-1.15.26-.55.3-.66H196a2.08,2.08,0,0,1-.11-.66,1.78,1.78,0,1,1,3.55,0,2.08,2.08,0,0,1-.11.66h.15l.3.66.25.55.52,1.15A.16.16,0,0,1,200.36,691.08Z"/><path class="cls-10" d="M199.24,726.26v1.93a2,2,0,0,0-3,0v-1.93Z"/><line class="cls-8" x1="193.55" y1="701.62" x2="194.55" y2="712.41"/><polygon class="cls-12" points="208.46 699.47 208.26 701.62 187 701.62 186.8 699.47 208.46 699.47"/><line class="cls-8" x1="200.11" y1="721.65" x2="201.38" y2="707.84"/><path class="cls-12" d="M199.84,729.81a2.09,2.09,0,1,1-4.17,0,2.4,2.4,0,0,1,.61-1.62,2,2,0,0,1,3,0A2.45,2.45,0,0,1,199.84,729.81Z"/><path class="cls-12" d="M206.42,722.08l-.14,1.53a.39.39,0,0,1-.39.35H189.5a.39.39,0,0,1-.39-.35l-.14-1.53a.39.39,0,0,1,.39-.43H206A.39.39,0,0,1,206.42,722.08Z"/><path class="cls-10" d="M200.85,724.3l-1.07,1.85a.26.26,0,0,1-.2.11h-3.65a.24.24,0,0,1-.19-.11l-1.08-1.85a.22.22,0,0,1,.19-.34h5.81A.22.22,0,0,1,200.85,724.3Z"/><rect class="cls-11" x="195.25" y="691.08" width="4.73" height="1.16"/><polygon class="cls-13" points="520.75 701.62 518.9 721.65 503.14 721.65 501.3 701.62 520.75 701.62"/><circle class="cls-14" cx="511.06" cy="710.58" r="4.06"/><path class="cls-11" d="M524.49,699.47H497.56a.39.39,0,0,1-.31-.62l5-6.45a.36.36,0,0,1,.3-.15h16.89a.36.36,0,0,1,.3.15l5,6.45A.38.38,0,0,1,524.49,699.47Z"/><path class="cls-11" d="M513.66,691.08h-5.48a.16.16,0,0,1-.15-.23l.53-1.15.25-.55.3-.66h.15a2.08,2.08,0,0,1-.11-.66,1.78,1.78,0,1,1,3.55,0,2.08,2.08,0,0,1-.11.66h.15l.3.66.25.55.52,1.15A.16.16,0,0,1,513.66,691.08Z"/><path class="cls-10" d="M512.54,726.26v1.93a2,2,0,0,0-1.48-.67,1.94,1.94,0,0,0-1.47.67v-1.93Z"/><line class="cls-8" x1="506.85" y1="701.62" x2="507.85" y2="712.41"/><polygon class="cls-12" points="521.76 699.47 521.57 701.62 500.3 701.62 500.1 699.47 521.76 699.47"/><line class="cls-8" x1="513.41" y1="721.65" x2="514.69" y2="707.84"/><path class="cls-12" d="M513.15,729.81a2.1,2.1,0,1,1-4.18,0,2.41,2.41,0,0,1,.62-1.62,1.94,1.94,0,0,1,1.47-.67,2,2,0,0,1,1.48.67A2.45,2.45,0,0,1,513.15,729.81Z"/><path class="cls-12" d="M519.72,722.08l-.14,1.53a.39.39,0,0,1-.39.35H502.8a.37.37,0,0,1-.38-.35l-.15-1.53a.39.39,0,0,1,.39-.43h16.67A.39.39,0,0,1,519.72,722.08Z"/><path class="cls-10" d="M514.16,724.3l-1.08,1.85a.26.26,0,0,1-.2.11h-3.65a.24.24,0,0,1-.19-.11L508,724.3a.22.22,0,0,1,.19-.34H514A.23.23,0,0,1,514.16,724.3Z"/><rect class="cls-11" x="508.56" y="691.08" width="4.73" height="1.16"/><path class="cls-29" d="M542.64,881.23c-3.57,1.17-9.17,5.74-13.91,18.74-5,13.63-11.91,10-11.91,10l-.26-.16c2.24-1,4.92-3.65,7.19-9.88,3.67-10,7.84-15.06,11.2-17.36,3.47-1.62,6.27-2.15,7.69-1.74A.19.19,0,0,1,542.64,881.23Z"/><path class="cls-30" d="M535,882.61c-3.36,2.3-7.53,7.32-11.2,17.36-2.27,6.23-5,8.86-7.19,9.88-5-3.17-.07-12.37,6.24-18.54A45.5,45.5,0,0,1,535,882.61Z"/><path class="cls-31" d="M539.47,826.72c-3.6,16.75-14.65,20.65-19.09,45.61-5.2,29.16-3.74,34.91-3.27,35.93a4.88,4.88,0,0,1-4.09.21s-2.87-2.43,3.14-36.14c5.62-31.55,21.78-29.46,20.15-62.2,0-.38.35-.66.47-.34A44.26,44.26,0,0,1,539.47,826.72Z"/><path class="cls-32" d="M539.47,826.72c-.32,10.44-3.73,21.72-6.26,40.3-2.41,17.74-8.78,37.66-16.1,41.24-.47-1-1.93-6.77,3.27-35.93C524.82,847.37,535.87,843.47,539.47,826.72Z"/><path class="cls-32" d="M516.47,912.44h0c-4.09,1.18-7.57-.21-10.4-3.3a9.92,9.92,0,0,0,3.72-.38h0c.51-.17,15.83-5.61,2.76-33.51-6.63-14.18-9.38-25.18-10-33.49h0c2.6-6.8,5.66-11.32,8.24-13a.51.51,0,0,1,.74.66c-3.51,7.37-4.82,22.83,7.67,49.5C532.31,906.83,517,912.27,516.47,912.44Z"/><path class="cls-31" d="M509.81,907.53h0a9.88,9.88,0,0,1-3.72.38c-6.1-6.64-9.22-21.1-9.09-34.36.13-13.6,2.55-24.93,5.65-33,.58,8.31,3.32,19.31,10,33.49C525.64,901.92,510.32,907.36,509.81,907.53Z"/><path class="cls-30" d="M507.88,911.59s-11.41,1.26-11.56-19.52c2.75,11.62,10.64,10.76,10.64,10.76,4.47-.61,6.4-4.56,6.59-9.86C515.58,902.25,514.6,910.66,507.88,911.59Z"/><path class="cls-29" d="M513.55,893c-.19,5.3-2.12,9.25-6.59,9.86,0,0-7.89.86-10.64-10.76,0-.48,0-1,0-1.51a87.48,87.48,0,0,0-1-16.06c-1.75-10.46-5.41-16-8.55-18.57a.28.28,0,0,1,.2-.51c1.39.12,3.32,1,5.56,2.71,5.14,3.84,11.86,11.71,17.15,23.26A58.26,58.26,0,0,1,513.55,893Z"/><path class="cls-33" d="M528,871.1c-2.41,5.69-6.65,11.83-11.53,21.53-4.69,9.37-4.68,15.21-3.36,18.79l-.64-.18s-11.35-4-1.34-24c9.73-19.37,17-24.55,12.1-40.32a.24.24,0,0,1,.42-.21C529.54,855.35,529,861.47,528,871.1Z"/><path class="cls-34" d="M528,871.1c-.37,3.86-.79,8.29-.89,13.67-.23,13.51-5.25,28.67-14,26.65-1.32-3.58-1.33-9.42,3.36-18.79C521.39,882.93,525.63,876.79,528,871.1Z"/><path class="cls-33" d="M510.07,912.38a7,7,0,0,1-4.75-6.14,6.26,6.26,0,0,0,2.12,1.17c7.1,1.7,10-8.8,9.25-18a44.36,44.36,0,0,0-3.15-13.46c2.55,3.75,5.11,10.21,5.78,18.43C520.07,903.58,517.17,914.08,510.07,912.38Z"/><path class="cls-35" d="M507.44,907.41a6.26,6.26,0,0,1-2.12-1.17c-.29-2.31.16-5.49,2.12-9.77,5.92-13,4.57-20.31,2.37-23.73-.11-.16.08-.35.28-.26a9.81,9.81,0,0,1,3.45,3.45,44.36,44.36,0,0,1,3.15,13.46C517.44,898.61,514.54,909.11,507.44,907.41Z"/><polygon class="cls-12" points="542.86 906.63 484 906.63 487.76 895.07 539.1 895.07 542.86 906.63"/><polygon class="cls-12" points="539.2 910.03 534.04 968.33 492.81 968.33 487.66 910.03 539.2 910.03"/><rect class="cls-10" x="484" y="906.63" width="58.86" height="3.4"/><path class="cls-29" d="M170.94,881.23c3.57,1.17,9.17,5.74,13.91,18.74,5,13.63,11.91,10,11.91,10l.26-.16c-2.25-1-4.92-3.65-7.19-9.88-3.67-10-7.84-15.06-11.2-17.36-3.47-1.62-6.27-2.15-7.69-1.74A.19.19,0,0,0,170.94,881.23Z"/><path class="cls-30" d="M178.63,882.61c3.36,2.3,7.53,7.32,11.2,17.36,2.27,6.23,4.94,8.86,7.19,9.88,5-3.17.07-12.37-6.25-18.54A45.32,45.32,0,0,0,178.63,882.61Z"/><path class="cls-31" d="M174.11,826.72c3.6,16.75,14.65,20.65,19.09,45.61,5.2,29.16,3.74,34.91,3.26,35.93a4.91,4.91,0,0,0,4.1.21s2.87-2.43-3.14-36.14c-5.62-31.55-21.78-29.46-20.15-62.2,0-.38-.35-.66-.47-.34A44.26,44.26,0,0,0,174.11,826.72Z"/><path class="cls-32" d="M174.11,826.72c.32,10.44,3.73,21.72,6.26,40.3,2.41,17.74,8.78,37.66,16.09,41.24.48-1,1.94-6.77-3.26-35.93C188.76,847.37,177.71,843.47,174.11,826.72Z"/><path class="cls-32" d="M197.11,912.44h0c4.09,1.18,7.57-.21,10.4-3.3a9.92,9.92,0,0,1-3.72-.38h0c-.51-.17-15.84-5.61-2.77-33.51,6.64-14.18,9.38-25.18,10-33.49h0c-2.6-6.8-5.66-11.32-8.24-13a.51.51,0,0,0-.74.66c3.51,7.37,4.82,22.83-7.67,49.5C181.27,906.83,196.6,912.27,197.11,912.44Z"/><path class="cls-31" d="M203.77,907.53h0a9.88,9.88,0,0,0,3.72.38c6.1-6.64,9.22-21.1,9.09-34.36-.13-13.6-2.55-24.93-5.65-33-.58,8.31-3.32,19.31-10,33.49C187.94,901.92,203.26,907.36,203.77,907.53Z"/><path class="cls-30" d="M205.69,911.59s11.42,1.26,11.57-19.52c-2.75,11.62-10.64,10.76-10.64,10.76-4.48-.61-6.4-4.56-6.59-9.86C198,902.25,199,910.66,205.69,911.59Z"/><path class="cls-29" d="M200,893c.19,5.3,2.11,9.25,6.59,9.86,0,0,7.89.86,10.64-10.76,0-.48,0-1,0-1.51a87.48,87.48,0,0,1,1-16.06c1.75-10.46,5.4-16,8.55-18.57a.29.29,0,0,0-.2-.51c-1.39.12-3.32,1-5.57,2.71-5.13,3.84-11.85,11.71-17.14,23.26A58.26,58.26,0,0,0,200,893Z"/><path class="cls-33" d="M185.53,871.1c2.42,5.69,6.66,11.83,11.54,21.53,4.69,9.37,4.68,15.21,3.36,18.79l.64-.18s11.35-4,1.34-24c-9.73-19.37-17-24.55-12.1-40.32a.24.24,0,0,0-.42-.21C184,855.35,184.61,861.47,185.53,871.1Z"/><path class="cls-34" d="M185.53,871.1c.38,3.86.8,8.29.9,13.67.23,13.51,5.25,28.67,14,26.65,1.32-3.58,1.33-9.42-3.36-18.79C192.19,882.93,188,876.79,185.53,871.1Z"/><path class="cls-33" d="M203.51,912.38a7,7,0,0,0,4.75-6.14,6.26,6.26,0,0,1-2.12,1.17c-7.1,1.7-10-8.8-9.25-18A44.36,44.36,0,0,1,200,875.93c-2.55,3.75-5.11,10.21-5.78,18.43C193.51,903.58,196.41,914.08,203.51,912.38Z"/><path class="cls-35" d="M206.14,907.41a6.26,6.26,0,0,0,2.12-1.17c.29-2.31-.16-5.49-2.12-9.77-5.92-13-4.57-20.31-2.37-23.73.11-.16-.09-.35-.28-.26a9.81,9.81,0,0,0-3.45,3.45,44.36,44.36,0,0,0-3.15,13.46C196.14,898.61,199,909.11,206.14,907.41Z"/><polygon class="cls-12" points="227.05 906.63 168.19 906.63 171.95 895.07 223.29 895.07 227.05 906.63"/><polygon class="cls-12" points="223.39 910.03 218.23 968.33 177 968.33 171.85 910.03 223.39 910.03"/><rect class="cls-10" x="168.19" y="906.63" width="58.86" height="3.4"/><path class="cls-36" d="M298.73,452.81s-6,4-6.65-8.22c2,4,5.32,1.75,5.32,1.75,4-.93,7.57-8.62,2.92-33.13C306.89,442.86,303.07,451.79,298.73,452.81Z"/><path class="cls-32" d="M297.4,446.34s-3.35,2.25-5.32-1.75h0a48,48,0,0,1,0-5.47c1-18.81,0-20.37-.36-25.25-.84-12.44,6.05-11.6,8.09-2.78l.48,2.13C305,437.72,301.41,445.41,297.4,446.34Z"/><path class="cls-34" d="M292.18,452.15s-4.75,1.68-6.67-3.69a5.36,5.36,0,0,0,4.35.5c4.22-.31,5.16-14.7-.06-23.86a14.6,14.6,0,0,1,1.9,2.51C297.39,436.71,296.5,451.83,292.18,452.15Z"/><path class="cls-33" d="M289.86,449a5.36,5.36,0,0,1-4.35-.5,15.89,15.89,0,0,1-.8-4.93c-.29-11.17-.57-12.19-2-15.1-1.31-2.57,2.4-8.2,7.12-3.33C295,434.26,294.08,448.65,289.86,449Z"/><path class="cls-37" d="M290.41,444.56a39.66,39.66,0,0,1,1.88,12.15"/><path class="cls-37" d="M298.25,435.94A91.75,91.75,0,0,1,297,460.69"/><path class="cls-30" d="M312.33,444.3c.29,9.09-6.42,7.2-8.92,6.18a5.76,5.76,0,0,1-2-1.32,5.67,5.67,0,0,1-1.5-3,6.82,6.82,0,0,0,.79.63c2.22,1.54,8.36,4.83,10-4.1.65-3.42,3.24-6.5,5.73-8.77C314.38,436.74,312.21,440.57,312.33,444.3Z"/><path class="cls-29" d="M319.13,430.66c-.7.78-1.68,1.9-2.67,3.25-2.49,2.27-5.08,5.35-5.73,8.77-1.68,8.93-7.82,5.64-10,4.1a6.82,6.82,0,0,1-.79-.63c-1-5.52,4.49-13.9,10.94-19.18a18.51,18.51,0,0,1,2-1.45,9.56,9.56,0,0,1,4.41-1.61C320.92,423.72,322.1,427.34,319.13,430.66Z"/><path class="cls-37" d="M307.16,440.05a84.45,84.45,0,0,0-4,17.87"/><path class="cls-36" d="M273,452.27s-4.28,4-6.45-5.73a2.86,2.86,0,0,0,4.52.7c3.1-1.29,4.94-7.95-2.06-27.05C278.2,443.17,276.32,450.87,273,452.27Z"/><path class="cls-32" d="M271,447.24a2.86,2.86,0,0,1-4.52-.7h0c-.27-1.23-.51-2.69-.71-4.4-1.72-15.27-2.73-16.39-3.65-20.28-2.33-9.89,3.33-10.13,6.14-3.31l.68,1.65C276,439.29,274.13,446,271,447.24Z"/><path class="cls-34" d="M267.6,452.61s-3.59,2-5.86-2.08a4.42,4.42,0,0,0,3.57-.18c3.35-.81,2.19-12.52-3.23-19.19a11.84,11.84,0,0,1,1.87,1.76C269.74,439.49,271,451.77,267.6,452.61Z"/><path class="cls-33" d="M265.31,450.35a4.42,4.42,0,0,1-3.57.18,13,13,0,0,1-1.3-3.87c-1.72-8.94-2.08-9.73-3.65-11.88-1.39-1.89.85-6.91,5.29-3.62C267.5,437.83,268.66,449.54,265.31,450.35Z"/><path class="cls-37" d="M265.17,446.74a32.22,32.22,0,0,1,3.12,9.52"/><path class="cls-37" d="M270.32,438.75a74.54,74.54,0,0,1,2.28,20.09"/><path class="cls-30" d="M282.77,443.61c1.44,7.28-4.21,6.64-6.36,6.16a4.74,4.74,0,0,1-1.79-.8,4.58,4.58,0,0,1-1.6-2.22,5,5,0,0,0,.71.4c2,.94,7.38,2.78,7.54-4.63.06-2.84,1.74-5.66,3.44-7.82C283.41,437.26,282.18,440.62,282.77,443.61Z"/><path class="cls-29" d="M286.42,431.73c-.46.72-1.09,1.75-1.71,3-1.7,2.16-3.38,5-3.44,7.82-.16,7.41-5.55,5.57-7.54,4.63a5,5,0,0,1-.71-.4c-1.52-4.31,1.76-11.78,6.24-16.88a14,14,0,0,1,1.44-1.44,7.53,7.53,0,0,1,3.33-1.88C286.94,425.91,288.37,428.66,286.42,431.73Z"/><path class="cls-37" d="M278.05,440.88a68.49,68.49,0,0,0-.84,14.9"/><polygon class="cls-12" points="315.98 459.36 313.46 471.93 309.33 471.93 312.12 459.36 315.98 459.36"/><path class="cls-12" d="M312.12,459.36l-2.79,12.57H256.52a.75.75,0,0,1-.74-.6l-2.39-12Z"/><path class="cls-6" d="M319.62,455.67,319,459a.44.44,0,0,1-.42.36h-6.41l.93-4.21h6.14A.43.43,0,0,1,319.62,455.67Z"/><path class="cls-6" d="M313.05,455.15l-.93,4.21H250.84a.44.44,0,0,1-.43-.36l-.67-3.33a.44.44,0,0,1,.43-.52Z"/><polygon class="cls-17" points="315.98 459.36 313.46 471.93 309.33 471.93 312.12 459.36 315.98 459.36"/><path class="cls-17" d="M319.62,455.67,319,459a.44.44,0,0,1-.42.36h-4.39l.93-4.21h4.12A.43.43,0,0,1,319.62,455.67Z"/><line class="cls-1" x1="309.33" y1="471.93" x2="308.18" y2="477.09"/><line class="cls-1" x1="313.51" y1="453.09" x2="313.05" y2="455.15"/><path class="cls-36" d="M300.94,549.59s6,4,6.65-8.21c-2,4-5.33,1.74-5.33,1.74-4-.93-7.56-8.62-2.91-33.13C292.77,539.64,296.59,548.58,300.94,549.59Z"/><path class="cls-32" d="M302.26,543.12s3.36,2.26,5.33-1.74v0a52.89,52.89,0,0,0,0-5.46c-1-18.82,0-20.38.36-25.26.84-12.44-6.05-11.6-8.09-2.78q-.25,1.09-.48,2.13C294.7,534.5,298.26,542.19,302.26,543.12Z"/><path class="cls-34" d="M307.49,548.93s4.74,1.69,6.67-3.68a5.41,5.41,0,0,1-4.36.49c-4.21-.31-5.15-14.7.07-23.85a14.6,14.6,0,0,0-1.91,2.5C302.28,533.5,303.16,548.61,307.49,548.93Z"/><path class="cls-33" d="M309.8,545.74a5.41,5.41,0,0,0,4.36-.49,16,16,0,0,0,.79-4.94c.3-11.17.57-12.19,2-15.1,1.31-2.57-2.41-8.19-7.12-3.32C304.65,531,305.59,545.43,309.8,545.74Z"/><path class="cls-37" d="M309.26,541.35a39.55,39.55,0,0,0-1.88,12.14"/><path class="cls-37" d="M301.42,532.72a92.06,92.06,0,0,0,1.26,24.76"/><path class="cls-30" d="M287.33,541.08c-.28,9.1,6.43,7.2,8.93,6.18a5.76,5.76,0,0,0,2-1.32,5.62,5.62,0,0,0,1.49-3,6.72,6.72,0,0,1-.78.63c-2.22,1.54-8.37,4.84-10.05-4.1-.64-3.42-3.23-6.5-5.73-8.77C285.29,533.53,287.45,537.35,287.33,541.08Z"/><path class="cls-29" d="M280.54,527.44c.7.79,1.67,1.91,2.66,3.25,2.5,2.27,5.09,5.35,5.73,8.77,1.68,8.94,7.83,5.64,10.05,4.1a6.72,6.72,0,0,0,.78-.63c1-5.51-4.48-13.9-10.93-19.17a17.81,17.81,0,0,0-2-1.46,9.34,9.34,0,0,0-4.41-1.6C278.75,520.51,277.57,524.12,280.54,527.44Z"/><path class="cls-37" d="M292.5,536.84a83.73,83.73,0,0,1,4,17.86"/><path class="cls-36" d="M270.74,549.05s4.29,4,6.45-5.73a2.86,2.86,0,0,1-4.52.7c-3.1-1.28-4.94-7.94,2.07-27C265.5,540,267.38,547.65,270.74,549.05Z"/><path class="cls-32" d="M272.67,544a2.86,2.86,0,0,0,4.52-.7h0a39.84,39.84,0,0,0,.71-4.4c1.72-15.27,2.73-16.39,3.65-20.27,2.33-9.9-3.33-10.14-6.14-3.32-.23.56-.46,1.11-.67,1.65C267.73,536.08,269.57,542.74,272.67,544Z"/><path class="cls-34" d="M276.1,549.39s3.6,2,5.86-2.08a4.37,4.37,0,0,1-3.57-.18c-3.35-.81-2.19-12.51,3.23-19.18a11.8,11.8,0,0,0-1.87,1.76C274,536.28,272.67,548.56,276.1,549.39Z"/><path class="cls-33" d="M278.39,547.13a4.37,4.37,0,0,0,3.57.18,13,13,0,0,0,1.3-3.86c1.72-9,2.08-9.74,3.65-11.88,1.39-1.9-.85-6.92-5.29-3.62C276.2,534.62,275,546.32,278.39,547.13Z"/><path class="cls-37" d="M278.54,543.52a32.08,32.08,0,0,0-3.13,9.53"/><path class="cls-37" d="M273.38,535.54a75,75,0,0,0-2.28,20.08"/><path class="cls-30" d="M260.93,540.39c-1.44,7.28,4.21,6.65,6.36,6.16a4.5,4.5,0,0,0,3.4-3,5.13,5.13,0,0,1-.72.41c-2,.94-7.37,2.77-7.54-4.64-.06-2.84-1.73-5.66-3.44-7.82C260.29,534,261.53,537.4,260.93,540.39Z"/><path class="cls-29" d="M257.28,528.51c.46.72,1.09,1.76,1.71,3,1.71,2.16,3.38,5,3.44,7.82.17,7.41,5.55,5.58,7.54,4.64a5.13,5.13,0,0,0,.72-.41c1.52-4.3-1.76-11.78-6.25-16.88a15,15,0,0,0-1.43-1.44,7.82,7.82,0,0,0-3.34-1.88C256.76,522.69,255.33,525.44,257.28,528.51Z"/><path class="cls-37" d="M265.66,537.66a68.93,68.93,0,0,1,.83,14.91"/><polygon class="cls-12" points="315.98 556.14 313.46 568.71 309.33 568.71 312.12 556.14 315.98 556.14"/><path class="cls-12" d="M312.12,556.14l-2.79,12.57H256.52a.75.75,0,0,1-.74-.6l-2.39-12Z"/><path class="cls-6" d="M319.62,552.45l-.67,3.33a.44.44,0,0,1-.42.36h-6.41l.93-4.21h6.14A.43.43,0,0,1,319.62,552.45Z"/><path class="cls-6" d="M313.05,551.93l-.93,4.21H250.84a.44.44,0,0,1-.43-.36l-.67-3.33a.44.44,0,0,1,.43-.52Z"/><polygon class="cls-17" points="315.98 556.14 313.46 568.71 309.33 568.71 312.12 556.14 315.98 556.14"/><path class="cls-17" d="M319.62,552.45l-.67,3.33a.44.44,0,0,1-.42.36h-4.39l.93-4.21h4.12A.43.43,0,0,1,319.62,552.45Z"/><line class="cls-1" x1="309.33" y1="568.71" x2="308.18" y2="573.87"/><line class="cls-1" x1="313.51" y1="549.87" x2="313.05" y2="551.93"/><circle class="cls-11" cx="577.54" cy="718.1" r="9.11"/><g class="cls-38"><path class="cls-24" d="M580,721.18l-.48.12-.57.1-.6.07-.59,0a3.53,3.53,0,0,1-1.21-.2,2.47,2.47,0,0,1-.9-.57,2.43,2.43,0,0,1-.55-.9,3.36,3.36,0,0,1-.2-1.18,4,4,0,0,1,.17-1.2,2.59,2.59,0,0,1,.48-.92,2,2,0,0,1,.77-.57,2.56,2.56,0,0,1,1-.2,2.52,2.52,0,0,1,.58.06,4,4,0,0,1,.52.18v-2.48l1.55-.25Zm-3.51-2.6a1.91,1.91,0,0,0,.32,1.15,1.11,1.11,0,0,0,1,.44h.39l.29,0v-2.83a1.5,1.5,0,0,0-.38-.15,2,2,0,0,0-.48-.07C576.82,717.07,576.45,717.58,576.45,718.58Z"/></g><polygon class="cls-39" points="520.69 701.58 511.06 701.58 501.44 701.58 354.44 848.58 207.44 701.58 197.81 701.58 188.18 701.58 -95.89 985.66 110.21 985.66 217.36 985.66 285.41 985.66 423.46 985.66 491.51 985.66 598.66 985.66 804.76 985.66 520.69 701.58"/><rect class="cls-40" x="363.02" y="429.17" width="125.22" height="124.67"/><path class="cls-29" d="M406,565.87c-2.31,1.34-5.55,5.33-7,15.09-1.48,10.22-6.84,8.72-6.84,8.72l-.21-.07c1.42-1,2.9-3.26,3.58-7.93,1.09-7.54,3.28-11.64,5.28-13.73,2.19-1.64,4.06-2.41,5.11-2.33A.13.13,0,0,1,406,565.87Z"/><path class="cls-30" d="M400.88,568c-2,2.09-4.19,6.19-5.28,13.73-.68,4.67-2.16,6.89-3.58,7.93-4-1.48-1.85-8.61,1.66-13.83A32.31,32.31,0,0,1,400.88,568Z"/><path class="cls-31" d="M395.92,528.33c-.08,12.2-7.21,16.52-6.68,34.57.6,21.08,2.45,24.88,2.94,25.52a3.47,3.47,0,0,1-2.83.74s-2.35-1.28-3.06-25.65c-.66-22.81,10.91-23.7,5-46.28-.07-.27.15-.52.27-.31A31.47,31.47,0,0,1,395.92,528.33Z"/><path class="cls-32" d="M395.92,528.33c1.29,7.33.56,15.68,1.49,29,.89,12.71-.66,27.52-5.23,31.08-.49-.64-2.34-4.44-2.94-25.52C388.71,544.85,395.84,540.53,395.92,528.33Z"/><path class="cls-32" d="M392.33,591.43h0c-2.69,1.42-5.31.95-7.74-.79a7.06,7.06,0,0,0,2.54-.8l0,0c.33-.19,10.23-6.21-2.94-23.76-6.68-8.92-10.19-16.19-11.81-21.9h0c.83-5.11,2.31-8.71,3.86-10.25a.37.37,0,0,1,.61.35c-1.38,5.65,0,16.62,12.54,33.4C402.56,585.22,392.66,591.24,392.33,591.43Z"/><path class="cls-31" d="M387,589l0,0a7,7,0,0,1-2.53.8c-5.22-3.74-9.5-13.37-11.34-22.63a68.8,68.8,0,0,1-.85-23.85c1.61,5.71,5.12,13,11.81,21.9C397.2,582.76,387.31,588.78,387,589Z"/><path class="cls-30" d="M386.22,592.08s-7.77,2.54-10.89-11.93c3.6,7.71,9,6,9,6,3-1.08,3.81-4.11,3.17-7.83C390.24,584.46,390.77,590.46,386.22,592.08Z"/><path class="cls-29" d="M387.47,578.28c.64,3.72-.13,6.75-3.17,7.83,0,0-5.37,1.75-9-6-.07-.33-.15-.69-.22-1a62.76,62.76,0,0,0-3.05-11.05c-2.74-7-6.09-10.36-8.66-11.7a.2.2,0,0,1,.06-.38,8.66,8.66,0,0,1,4.28,1.08c4.14,1.93,10,6.44,15.33,13.72A41.64,41.64,0,0,1,387.47,578.28Z"/><path class="cls-33" d="M394.4,560.93c-.86,4.32-2.92,9.21-4.91,16.68-1.91,7.22-1.06,11.29.38,13.59l-.47,0S380.91,590,385,574.66c4-14.91,8.26-19.57,2.57-29.86a.17.17,0,0,1,.27-.21C393.15,549.73,393.65,554.08,394.4,560.93Z"/><path class="cls-34" d="M394.4,560.93c.3,2.74.65,5.89,1.36,9.66,1.8,9.45.51,20.74-5.89,20.61-1.44-2.3-2.29-6.37-.38-13.59C391.48,570.14,393.54,565.25,394.4,560.93Z"/><path class="cls-33" d="M387.86,592.31a5,5,0,0,1-4.2-3.58,4.54,4.54,0,0,0,1.65.5c5.2.16,5.69-7.58,3.83-13.9A31.76,31.76,0,0,0,385,566.4a28.32,28.32,0,0,1,6.71,12C393.56,584.73,393.06,592.47,387.86,592.31Z"/><path class="cls-35" d="M385.31,589.23a4.54,4.54,0,0,1-1.65-.5c-.54-1.58-.68-3.85.06-7.12,2.25-9.89.23-14.83-1.79-16.89-.11-.09,0-.25.15-.22a7,7,0,0,1,2.91,1.9,31.76,31.76,0,0,1,4.15,8.93C391,581.65,390.51,589.39,385.31,589.23Z"/><path class="cls-29" d="M399.66,574.27c2.87.94,7.37,4.61,11.18,15.05,4,10.95,9.56,8.07,9.56,8.07l.21-.13c-1.8-.82-3.95-2.93-5.78-7.94-2.94-8.07-6.29-12.09-9-13.94-2.79-1.31-5-1.73-6.18-1.4A.16.16,0,0,0,399.66,574.27Z"/><path class="cls-30" d="M405.84,575.38c2.7,1.85,6.05,5.87,9,13.94,1.83,5,4,7.12,5.78,7.94,4.05-2.55.06-9.93-5-14.9A36.46,36.46,0,0,0,405.84,575.38Z"/><path class="cls-31" d="M402.21,530.48c2.89,13.45,11.76,16.59,15.33,36.64,4.18,23.43,3,28,2.63,28.87a3.91,3.91,0,0,0,3.29.16s2.3-1.95-2.52-29c-4.52-25.35-17.5-23.67-16.19-50,0-.31-.29-.54-.38-.27A35.52,35.52,0,0,0,402.21,530.48Z"/><path class="cls-32" d="M402.21,530.48c.25,8.39,3,17.45,5,32.38,1.94,14.24,7.05,30.24,12.93,33.13.38-.83,1.55-5.44-2.63-28.87C414,547.07,405.1,543.93,402.21,530.48Z"/><path class="cls-32" d="M420.69,599.34h0c3.29.95,6.08-.17,8.36-2.66a7.82,7.82,0,0,1-3-.3h0c-.41-.14-12.72-4.52-2.22-26.93,5.33-11.39,7.54-20.23,8-26.9h0c-2.08-5.46-4.54-9.09-6.61-10.43a.41.41,0,0,0-.6.52c2.82,5.93,3.87,18.35-6.16,39.77C408,594.83,420.28,599.21,420.69,599.34Z"/><path class="cls-31" d="M426,595.4h0a7.78,7.78,0,0,0,3,.31c4.91-5.34,7.41-17,7.31-27.6a77.58,77.58,0,0,0-4.54-26.54c-.47,6.67-2.67,15.51-8,26.9C413.32,590.89,425.63,595.26,426,595.4Z"/><path class="cls-30" d="M427.58,598.66s9.18,1,9.3-15.69c-2.21,9.34-8.55,8.65-8.55,8.65-3.6-.49-5.15-3.66-5.3-7.92C421.4,591.16,422.19,597.91,427.58,598.66Z"/><path class="cls-29" d="M423,583.7c.15,4.26,1.7,7.43,5.3,7.92,0,0,6.34.69,8.55-8.65,0-.38,0-.79,0-1.2a70.4,70.4,0,0,1,.83-12.91c1.41-8.4,4.34-12.85,6.87-14.91a.23.23,0,0,0-.16-.42,9.89,9.89,0,0,0-4.47,2.18c-4.13,3.09-9.53,9.41-13.78,18.69A47.57,47.57,0,0,0,423,583.7Z"/><path class="cls-33" d="M411.39,566.13c1.94,4.57,5.35,9.5,9.26,17.3,3.77,7.52,3.76,12.22,2.7,15.09l.51-.14s9.12-3.2,1.08-19.25c-7.81-15.56-13.63-19.71-9.71-32.39a.19.19,0,0,0-.34-.16C410.19,553.48,410.64,558.4,411.39,566.13Z"/><path class="cls-34" d="M411.39,566.13c.3,3.1.64,6.66.71,11,.19,10.86,4.22,23,11.25,21.41,1.06-2.87,1.07-7.57-2.7-15.09C416.74,575.63,413.33,570.7,411.39,566.13Z"/><path class="cls-33" d="M425.83,599.29a5.65,5.65,0,0,0,3.81-4.93,5.07,5.07,0,0,1-1.7.94c-5.71,1.36-8-7.07-7.43-14.48A35.38,35.38,0,0,1,423,570a31.82,31.82,0,0,0-4.65,14.8C417.79,592.22,420.12,600.65,425.83,599.29Z"/><path class="cls-35" d="M427.94,595.3a5.07,5.07,0,0,0,1.7-.94c.24-1.86-.13-4.41-1.7-7.85-4.76-10.4-3.67-16.32-1.9-19.06.09-.13-.07-.28-.23-.21A7.94,7.94,0,0,0,423,570a35.38,35.38,0,0,0-2.53,10.81C419.9,588.23,422.23,596.66,427.94,595.3Z"/><path class="cls-29" d="M477.89,567.49c-2.61.59-6.89,3.45-11.12,12.35-4.44,9.32-9.12,6.31-9.12,6.31a1.09,1.09,0,0,1-.17-.13c1.66-.57,3.73-2.26,5.76-6.52,3.27-6.87,6.57-10.14,9.1-11.55,2.57-.92,4.59-1.1,5.57-.71A.13.13,0,0,1,477.89,567.49Z"/><path class="cls-30" d="M472.34,568c-2.53,1.41-5.83,4.68-9.1,11.55-2,4.26-4.1,6-5.76,6.52-3.36-2.59.78-8.77,5.67-12.72A32.33,32.33,0,0,1,472.34,568Z"/><path class="cls-31" d="M479.31,528.64c-3.68,11.62-11.77,13.65-16.6,31-5.65,20.33-5,24.5-4.73,25.26a3.54,3.54,0,0,1-2.92-.13s-1.87-1.92,4.66-25.41c6.11-22,17.42-19.42,18.47-42.74,0-.27.29-.45.35-.21A31.44,31.44,0,0,1,479.31,528.64Z"/><path class="cls-32" d="M479.31,528.64c-.93,7.38-4.1,15.14-7.15,28.14-2.9,12.42-8.76,26.1-14.18,28.16-.27-.76-.92-4.93,4.73-25.26C467.54,542.29,475.63,540.26,479.31,528.64Z"/><path class="cls-32" d="M457.24,587.85h0c-3,.56-5.35-.66-7.16-3a7.27,7.27,0,0,0,2.67,0h0c.37-.09,11.6-2.92,4.21-23.58-3.75-10.49-4.95-18.48-4.8-24.41h0c2.3-4.64,4.77-7.64,6.71-8.65a.37.37,0,0,1,.48.52c-3,5-5,15.86,2.11,35.61C468.84,584.94,457.61,587.77,457.24,587.85Z"/><path class="cls-31" d="M452.85,583.92h0a7,7,0,0,1-2.66,0c-3.88-5.11-5.12-15.57-4.14-25a69,69,0,0,1,6.23-23c-.15,5.93,1.06,13.92,4.81,24.41C464.45,581,453.22,583.84,452.85,583.92Z"/><path class="cls-30" d="M451.21,586.67s-8.18.12-6.89-14.62c1.17,8.43,6.82,8.35,6.82,8.35,3.22-.13,4.85-2.8,5.34-6.55C457.3,580.57,456,586.46,451.21,586.67Z"/><path class="cls-29" d="M456.48,573.85c-.49,3.75-2.12,6.42-5.34,6.55,0,0-5.65.08-6.82-8.35,0-.34.07-.7.11-1.06a62.26,62.26,0,0,0,.35-11.46c-.54-7.53-2.76-11.7-4.82-13.74a.21.21,0,0,1,.18-.35,8.7,8.7,0,0,1,3.76,2.3c3.39,3.07,7.62,9.1,10.59,17.64A41.8,41.8,0,0,1,456.48,573.85Z"/><path class="cls-33" d="M468.23,559.33c-2.1,3.87-5.52,7.93-9.63,14.48-4,6.33-4.34,10.47-3.65,13.1l-.44-.17s-7.78-3.59.66-17.08c8.2-13.07,13.68-16.25,11.29-27.76a.17.17,0,0,1,.31-.12C470.34,548.26,469.53,552.56,468.23,559.33Z"/><path class="cls-34" d="M468.23,559.33c-.53,2.71-1.13,5.82-1.56,9.63-1.07,9.56-5.65,20-11.72,17.95-.69-2.63-.31-6.77,3.65-13.1C462.71,567.26,466.13,563.2,468.23,559.33Z"/><path class="cls-33" d="M452.71,587.38a5,5,0,0,1-3-4.67,4.47,4.47,0,0,0,1.43,1c4.92,1.68,7.68-5.57,7.77-12.15a31.79,31.79,0,0,0-1.33-9.76,28.32,28.32,0,0,1,2.86,13.46C460.39,581.81,457.62,589.06,452.71,587.38Z"/><path class="cls-35" d="M451.18,583.68a4.47,4.47,0,0,1-1.43-1c-.05-1.66.48-3.88,2.16-6.79,5.07-8.78,4.61-14.09,3.28-16.66-.07-.12.08-.24.22-.16a7.16,7.16,0,0,1,2.21,2.67,31.79,31.79,0,0,1,1.33,9.76C458.86,578.11,456.1,585.36,451.18,583.68Z"/><rect class="cls-11" x="381.9" y="607.16" width="11.06" height="6.69"/><rect class="cls-11" x="419.16" y="607.16" width="11.06" height="6.69"/><rect class="cls-11" x="456.42" y="607.16" width="11.06" height="6.69"/><path class="cls-12" d="M486.64,585.7v20.19a1.27,1.27,0,0,1-1.27,1.27H364a1.27,1.27,0,0,1-1.27-1.27V585.7Z"/><path class="cls-6" d="M490.25,580.74h-131l.88-1.7a1.14,1.14,0,0,1,1-.61h127.2a1.12,1.12,0,0,1,1,.61Z"/><path class="cls-6" d="M490.89,585.7H358.63a1.14,1.14,0,0,1-1-1.64l1.67-3.32h131c.55,1.08,1.18,2.34,1.67,3.32A1.14,1.14,0,0,1,490.89,585.7Z"/><path class="cls-17" d="M490.25,580.74h-131l.88-1.7a1.14,1.14,0,0,1,1-.61h127.2a1.12,1.12,0,0,1,1,.61Z"/><polygon class="cls-11" points="487.95 520.78 487.95 528.87 426.5 528.87 426.5 553.84 423.02 553.84 423.02 528.87 363.3 528.87 363.3 520.78 423.02 520.78 423.02 429.2 426.5 429.2 426.5 520.78 487.95 520.78"/><path class="cls-17" d="M679.88,656.57v4.87a4,4,0,0,1-4,4H175.38a4,4,0,0,1-4-4v-4.87Z"/><rect class="cls-17" x="213.5" y="371.43" width="418.88" height="11.27"/><path class="cls-11" d="M562.27,385.38v129a6.76,6.76,0,0,1-3.06-5.65V488.63h-2.49v-8.69h2.49v-46.4h-2.49v-8.68h2.49V385.38Z"/><path class="cls-11" d="M572.69,375.77v49.09h2.49v8.68h-2.49v46.4h2.49v8.69h-2.49v20.06a6.74,6.74,0,0,1-10.42,5.65v-129h-3.06v-9.61h-2.49v-8.68h2.49v-9.72h13.48v9.72h2.49v8.68Z"/><path class="cls-11" d="M642.86,371.43H203a3,3,0,0,1-2.6-4.63L222.85,330a3.05,3.05,0,0,1,2.61-1.46h395A3,3,0,0,1,623,330l22.44,36.76A3,3,0,0,1,642.86,371.43Z"/><path class="cls-17" d="M559.21,375.72v9.75h0v39.39h-2.49v8.68h2.49v46.4h-2.49v8.69h2.49v20.06a6.76,6.76,0,0,0,3.06,5.65V375.72Z"/></g></svg>