<svg id="Capa_1" data-name="Capa 1" xmlns="http://www.w3.org/2000/svg" viewBox="0 0 54.57 56.79"><defs><style>.cls-1{fill:#ff5938;}</style></defs><path class="cls-1" d="M26.21,26.47a5.24,5.24,0,0,1,1.36.18,3.77,3.77,0,0,1,1.08.45v8.08c-.21,0-.49.08-.83.11s-.71,0-1.1,0A3.21,3.21,0,0,1,24,34.08a5.43,5.43,0,0,1-.92-3.31Q23.05,26.46,26.21,26.47Z"/><path class="cls-1" d="M51.69,26,48.37,11.9a6.15,6.15,0,0,0-4.59-4.59L29.67,4a6.18,6.18,0,0,0-5.78,1.64L4.52,25a6.18,6.18,0,0,0,0,8.72L22,51.16a6.16,6.16,0,0,0,8.72,0L50.05,31.79A6.16,6.16,0,0,0,51.69,26ZM44.35,11.33a1.74,1.74,0,1,1-2.46,0A1.74,1.74,0,0,1,44.35,11.33ZM31.73,38.57c-.52.11-1.06.2-1.63.28s-1.14.15-1.73.2-1.15.07-1.68.07a9.77,9.77,0,0,1-3.46-.57,6.92,6.92,0,0,1-2.57-1.62,7,7,0,0,1-1.6-2.57A9.94,9.94,0,0,1,18.51,31,11.55,11.55,0,0,1,19,27.53a7.71,7.71,0,0,1,1.37-2.61,6,6,0,0,1,2.19-1.64,7.35,7.35,0,0,1,3-.57,7,7,0,0,1,1.66.18,8.56,8.56,0,0,1,1.47.51V16.3l4.45-.72V38.23C32.7,38.34,32.24,38.46,31.73,38.57Z"/></svg>