<svg id="Capa_1" data-name="Capa 1" xmlns="http://www.w3.org/2000/svg" viewBox="0 0 358.23 87.72"><defs><style>.cls-1{fill:#ff5938;}.cls-2{fill:#131313;}</style></defs><path class="cls-1" d="M53.55,35.26,34.18,54.63a6.16,6.16,0,0,1-8.72,0L8,37.19a6.16,6.16,0,0,1,0-8.72L27.39,9.1a6.16,6.16,0,0,1,5.77-1.64l14.12,3.32a6.17,6.17,0,0,1,4.59,4.59l3.32,14.12A6.16,6.16,0,0,1,53.55,35.26Z"/><path class="cls-2" d="M91,78.53c-.82.25-1.76.48-2.83.71s-2.19.42-3.36.58-2.36.3-3.57.4-2.36.16-3.47.16a20.33,20.33,0,0,1-7.14-1.17,14.28,14.28,0,0,1-5.29-3.36,14.52,14.52,0,0,1-3.3-5.3,20.42,20.42,0,0,1-1.13-7,23.87,23.87,0,0,1,1-7.11,15.62,15.62,0,0,1,2.83-5.39,12.2,12.2,0,0,1,4.52-3.38,15.2,15.2,0,0,1,6.13-1.17,14.14,14.14,0,0,1,3.41.37,18,18,0,0,1,3,1V33.31L91,31.84ZM70.21,63.14A11.17,11.17,0,0,0,72.12,70a6.6,6.6,0,0,0,5.67,2.59c.82,0,1.58,0,2.28-.1s1.28-.13,1.73-.21V55.57a8.2,8.2,0,0,0-2.25-.93,11.18,11.18,0,0,0-2.81-.37Q70.22,54.27,70.21,63.14Z"/><path class="cls-2" d="M98.06,63.63a19.78,19.78,0,0,1,1.32-7.53,16.08,16.08,0,0,1,3.48-5.39,14.6,14.6,0,0,1,5-3.26,15.43,15.43,0,0,1,5.75-1.11q6.9,0,10.9,4.22t4,12.4c0,.53,0,1.12-.06,1.76s-.08,1.2-.12,1.69h-20.8a6.12,6.12,0,0,0,2.65,4.49,10.73,10.73,0,0,0,6.29,1.66,26.28,26.28,0,0,0,4.95-.47,18.4,18.4,0,0,0,4-1.13l1.23,7.44a12.76,12.76,0,0,1-2,.74,25.93,25.93,0,0,1-2.74.64c-1,.19-2.08.34-3.23.46a30.68,30.68,0,0,1-3.45.19,20.45,20.45,0,0,1-7.61-1.29,14.68,14.68,0,0,1-5.36-3.54,14.07,14.07,0,0,1-3.15-5.32A21.3,21.3,0,0,1,98.06,63.63Zm21.57-3.48a9.81,9.81,0,0,0-.4-2.29,5.89,5.89,0,0,0-1-2,5.59,5.59,0,0,0-1.78-1.43,5.84,5.84,0,0,0-2.68-.55,6.14,6.14,0,0,0-2.65.52,5.43,5.43,0,0,0-1.85,1.4,6.29,6.29,0,0,0-1.14,2,13.61,13.61,0,0,0-.59,2.32Z"/><path class="cls-2" d="M147.2,46.34a21.06,21.06,0,0,1,6.77.93,10.44,10.44,0,0,1,4.34,2.65,9.68,9.68,0,0,1,2.31,4.18,20.71,20.71,0,0,1,.68,5.48V78.67c-1.32.29-3.14.62-5.48,1a52.59,52.59,0,0,1-8.5.59,26.83,26.83,0,0,1-5.69-.56,12.4,12.4,0,0,1-4.4-1.81,8.24,8.24,0,0,1-2.83-3.3,11.32,11.32,0,0,1-1-5,9.42,9.42,0,0,1,1.14-4.8,8.75,8.75,0,0,1,3-3.14A13.79,13.79,0,0,1,142,60a25.26,25.26,0,0,1,5.12-.52,29.84,29.84,0,0,1,3.17.15,15.85,15.85,0,0,1,2.25.4v-.86a5.12,5.12,0,0,0-1.42-3.77q-1.43-1.42-4.93-1.42a30.83,30.83,0,0,0-4.62.34,19.47,19.47,0,0,0-3.94,1l-1.17-7.36c.54-.16,1.2-.33,2-.52s1.68-.35,2.62-.49,1.94-.27,3-.37S146.14,46.34,147.2,46.34ZM148,73.2q1.35,0,2.58-.06a18.63,18.63,0,0,0,2-.18V66c-.37-.08-.93-.17-1.67-.25a18.91,18.91,0,0,0-2-.12,18.65,18.65,0,0,0-2.43.15,6.43,6.43,0,0,0-2,.59A3.41,3.41,0,0,0,143,67.52a3.25,3.25,0,0,0-.49,1.85,3.16,3.16,0,0,0,1.45,3A8,8,0,0,0,148,73.2Z"/><path class="cls-2" d="M182.56,80.16a23.16,23.16,0,0,1-6.51-.86,9.67,9.67,0,0,1-3.94-2.24,7.47,7.47,0,0,1-2-3.51,18.79,18.79,0,0,1-.53-4.64V33.31l9.17-1.47V67.07a11.48,11.48,0,0,0,.19,2.22,3.49,3.49,0,0,0,2.22,2.77,8.52,8.52,0,0,0,2.66.55Z"/><path class="cls-2" d="M199.1,37.85a5,5,0,0,1-1.64,4,5.82,5.82,0,0,1-7.69,0,5,5,0,0,1-1.63-4,5,5,0,0,1,1.63-4,5.82,5.82,0,0,1,7.69,0A5,5,0,0,1,199.1,37.85Zm-.87,41.72h-9.17V47.21h9.17Z"/><path class="cls-2" d="M205.29,63.39a19.07,19.07,0,0,1,1.14-6.62A15.48,15.48,0,0,1,215,47.7a17.39,17.39,0,0,1,7-1.36,22.66,22.66,0,0,1,4.76.47A23.15,23.15,0,0,1,231,48.13l-1.91,7.32a21.38,21.38,0,0,0-2.85-.86,14.69,14.69,0,0,0-3.46-.37c-2.73,0-4.76.84-6.11,2.52a10.36,10.36,0,0,0-2,6.65,10.71,10.71,0,0,0,1.89,6.77q1.88,2.4,6.59,2.4a23.32,23.32,0,0,0,3.58-.31,15.11,15.11,0,0,0,3.53-1l1.29,7.51a21.71,21.71,0,0,1-4,1.17,26.33,26.33,0,0,1-5.3.49,20.07,20.07,0,0,1-7.65-1.32,14.27,14.27,0,0,1-5.27-3.6,13.88,13.88,0,0,1-3-5.39A22.66,22.66,0,0,1,205.29,63.39Z"/><path class="cls-2" d="M247.66,37.85a5,5,0,0,1-1.63,4,5.82,5.82,0,0,1-7.69,0,5,5,0,0,1-1.63-4,5,5,0,0,1,1.63-4,5.82,5.82,0,0,1,7.69,0A5,5,0,0,1,247.66,37.85Zm-.86,41.72h-9.17V47.21h9.17Z"/><path class="cls-2" d="M285.73,63.33a21,21,0,0,1-1.11,7,15.2,15.2,0,0,1-3.2,5.41,14.46,14.46,0,0,1-5,3.48,18,18,0,0,1-13.07,0,14.42,14.42,0,0,1-5-3.48A15.8,15.8,0,0,1,255,70.31a20,20,0,0,1-1.17-7,19.33,19.33,0,0,1,1.2-7A15.75,15.75,0,0,1,258.39,51a15,15,0,0,1,5.06-3.45,17.32,17.32,0,0,1,12.82,0,14.66,14.66,0,0,1,5,3.45,15.62,15.62,0,0,1,3.27,5.35A19.77,19.77,0,0,1,285.73,63.33Zm-9.33,0a11.52,11.52,0,0,0-1.7-6.68,5.6,5.6,0,0,0-4.87-2.43,5.66,5.66,0,0,0-4.9,2.43,11.3,11.3,0,0,0-1.74,6.68,11.55,11.55,0,0,0,1.74,6.73,5.6,5.6,0,0,0,4.9,2.5,5.54,5.54,0,0,0,4.87-2.5A11.78,11.78,0,0,0,276.4,63.33Z"/><path class="cls-2" d="M320.4,78.48a51.56,51.56,0,0,1-6,1.26,49.45,49.45,0,0,1-7.75.58,18.34,18.34,0,0,1-6.86-1.11,10.36,10.36,0,0,1-4.34-3.1,12.16,12.16,0,0,1-2.28-4.77,25.79,25.79,0,0,1-.67-6.1v-18h9.16V64.13q0,4.44,1.17,6.4c.78,1.32,2.24,2,4.37,2,.66,0,1.36,0,2.09-.09s1.4-.13,2-.22v-25h9.17Z"/><path class="cls-2" d="M338.3,73a9,9,0,0,0,3.56-.5,1.89,1.89,0,0,0,1.05-1.9,2.33,2.33,0,0,0-1.35-1.94,25.41,25.41,0,0,0-4.11-1.87c-1.44-.54-2.74-1.09-3.91-1.66a11.33,11.33,0,0,1-3-2.06,8.4,8.4,0,0,1-1.91-2.86,10.48,10.48,0,0,1-.68-4,8.68,8.68,0,0,1,3.38-7.2c2.26-1.76,5.35-2.65,9.29-2.65a29.7,29.7,0,0,1,5.66.53A26.76,26.76,0,0,1,350.61,48L349,55.15a35.12,35.12,0,0,0-3.47-1,19.33,19.33,0,0,0-4.21-.43q-4.31,0-4.3,2.4a2.57,2.57,0,0,0,.18,1A2.15,2.15,0,0,0,338,58a10.84,10.84,0,0,0,1.5.86c.64.3,1.45.64,2.43,1a37.39,37.39,0,0,1,5,2.17,11.63,11.63,0,0,1,3.1,2.34,7.24,7.24,0,0,1,1.6,2.8A12.42,12.42,0,0,1,352,70.7a8.25,8.25,0,0,1-3.6,7.27q-3.6,2.46-10.18,2.46a29.41,29.41,0,0,1-7.17-.74,28.69,28.69,0,0,1-4-1.23L328.65,71a29.37,29.37,0,0,0,4.79,1.44A23.25,23.25,0,0,0,338.3,73Z"/></svg>