<svg id="Capa_1" data-name="Capa 1" xmlns="http://www.w3.org/2000/svg" xmlns:xlink="http://www.w3.org/1999/xlink" viewBox="0 0 1920 1080"><defs><style>.cls-1,.cls-8{fill:none;}.cls-2{clip-path:url(#clip-path);}.cls-3{fill:url(#Degradado_sin_nombre_4);}.cls-4{fill:#6d6d6d;}.cls-13,.cls-5,.cls-7{opacity:0.2;}.cls-5{fill:url(#Degradado_sin_nombre_21);}.cls-6{fill:#474747;}.cls-7{fill:url(#Degradado_sin_nombre_17);}.cls-8{stroke:#282a54;stroke-miterlimit:10;}.cls-9{fill:#ffe839;opacity:0.25;}.cls-10{fill:#2d2d2d;}.cls-11{clip-path:url(#clip-path-2);}.cls-12{clip-path:url(#clip-path-3);}.cls-13{fill:url(#Degradado_sin_nombre_17-2);}</style><clipPath id="clip-path"><rect class="cls-1" width="1920" height="1080"/></clipPath><linearGradient id="Degradado_sin_nombre_4" x1="960.56" y1="-40.45" x2="960.56" y2="1047.56" gradientUnits="userSpaceOnUse"><stop offset="0.03" stop-color="#f9b233"/><stop offset="0.08" stop-color="#f9ae32"/><stop offset="0.15" stop-color="#f7a130"/><stop offset="0.21" stop-color="#f68c2c"/><stop offset="0.27" stop-color="#f36e27"/><stop offset="0.31" stop-color="#f15a24"/></linearGradient><linearGradient id="Degradado_sin_nombre_21" x1="960.56" y1="94.83" x2="960.56" y2="928.83" gradientUnits="userSpaceOnUse"><stop offset="0.27" stop-color="#ffe839" stop-opacity="0"/><stop offset="0.32" stop-color="#ffe839" stop-opacity="0.02"/><stop offset="0.38" stop-color="#ffe839" stop-opacity="0.07"/><stop offset="0.45" stop-color="#ffe839" stop-opacity="0.16"/><stop offset="0.51" stop-color="#ffe839" stop-opacity="0.29"/><stop offset="0.58" stop-color="#ffe839" stop-opacity="0.45"/><stop offset="0.6" stop-color="#ffe839" stop-opacity="0.5"/></linearGradient><linearGradient id="Degradado_sin_nombre_17" x1="960.56" y1="-297.56" x2="960.56" y2="1996.97" gradientUnits="userSpaceOnUse"><stop offset="0.23" stop-color="#ffe839" stop-opacity="0"/><stop offset="0.3" stop-color="#ffe839" stop-opacity="0.13"/><stop offset="0.45" stop-color="#ffe839" stop-opacity="0.39"/><stop offset="0.52" stop-color="#ffe839" stop-opacity="0.5"/></linearGradient><clipPath id="clip-path-2"><rect class="cls-1" y="-1033.7" width="430" height="931.35"/></clipPath><clipPath id="clip-path-3"><rect class="cls-1" x="-974.3" y="-1181.71" width="1920" height="1080"/></clipPath><linearGradient id="Degradado_sin_nombre_17-2" x1="-13.73" y1="-1329.14" x2="-13.73" y2="965.39" xlink:href="#Degradado_sin_nombre_17"/></defs><g class="cls-2"><rect class="cls-3" x="1.13" width="1918.87" height="1079.35"/><path class="cls-4" d="M-79.86,282.59s13.09-13.09,22.06-15.7S-29,259.41-27.15,259s29.54-7.11,33.65-7.85,24.67-9.72,33.27-15,22.8-13.45,27.29-14.58,28.41-15,41.87-15,23.55,3,34.39,2.62,26.53-7.47,37.74-18.68l0,0c15.68-4.85,17.18-6,27.64-5.23s14.58-11.21,23.55-8.6S267,197,279,208.92a.1.1,0,0,0,.05,0c15.28,8.58,4.09,4.47,15.3,8.58,10.15,3.73,18.16,8.67,23.54.63a54.33,54.33,0,0,1,7.32-8.77c6.72-6.52,12.69-11.09,17.9-12.51a11,11,0,0,0,6-4.07c5.62-7.57,12.59-16.72,16.67-16.4,4.77.37,13.74-3.27,16.54-1.31s20.19,11.22,21.31,13.18l2.8-8.69s15.14-8.41,17.11-8.41,19.06,15.7,19.06,15.7l12.62-.28,14.3,7.57,12.61,2,20.19,9.53,15.42,1.12,10.1,1.13,23.83,2.24,8.41,7.85s29.16-7.29,39.53-6.73,31.68,3.93,32.52,3.93,21.31,1.4,21.31,1.4l20.75-6.73s36.45-5.33,45.7-3.37,14,5.05,14,5.05,33.92-20.46,49.9-21.31h0c10,4.86,13,4.87,13.6,4.79a.45.45,0,0,1,.28,0c2.62,1.23,39.09,18.48,53.69,27.12,3.64-2.8,11.77-3.64,11.77-3.64l8.41,8.32,11.5,6.82,24.67.28s20.19-20.19,69.53-19.91c25,7.57,59.16,19.07,59.16,19.07h0l21.31,9.53,36.73,12.06,10.37,2.52,18.51,12.34s12.89-7.29,28.59-5.05h0c10.65-4.49,14-5.61,15.7-5.89s16.82-.56,16.82-.56l6.45,2.25h8.69l9,5.32,9,2.81,11.78,14.11h19.06l18.79,15.05,30.28,21S1334.79,285.75,1347,284a26.58,26.58,0,0,0,4.89-1.25c18.07-6.43,71.87-31.35,76.79-31.35,9.82-4.2,34.21-10.93,39.54-10.93,14.77,2.58,42.61-5.89,60.84-.28,16.26,5.33,46.26,12.34,52.15,17.66s22.19,16.74,23.5,20.84a.47.47,0,0,0,.24.28,57.63,57.63,0,0,0,9.62,3.55s25.24-4.76,38.13-1.12c9.54,7.85,28,15.42,28,15.42s33.4,10.49,53.37,14.4a68.33,68.33,0,0,1,8.07,2.1c15.5,5.07,32.49,8.06,49,6.78h0c17.64.84,27.45,4.48,49,4.2h.07c21.26,9,30.51,14.84,38.07,24.36l.05,0c11.46,8.12,10.09,14.56,38.62,14.56l.08,0c21.28,9.52,28.67,14.66,44.36,15.22,16.82.37,39.25-5.61,41.31-6.92,13.64,2.06,20.56-3,27.29,5.61s24.48,19.62,32.89,22.43,27.85,9.16,34.77,9.9,21.12,2.06,24.11,5.8,0,551.17,0,551.17H-79.86Z"/><rect class="cls-5" x="1.13" y="311.89" width="1918.87" height="283.4"/><path class="cls-6" d="M1901,743.86l-12.48-12.48h-32.77V435.1h-36.41V413.77h-25.13l-4-4h-28.43V429.9H1746V573.79h-38.49v-90.5h-28.08V469l-33,5.2V439.86H1616v-9H1600.6l-26.19-26.19h-6.58v-2.39h-.78v-7h.78v-2.69h-.78v-1.65h-2.69v1.65h-.78v2.69h.78v7h-24.61v2.39H1529.3l-17,17v75.66H1460v-16h-13V376.28h-35.53V363.12l7.77-7.77H1425v-4.42l2.73-2.73v-5.07l3.47-1.65v-5.72l-17.16-4.85v-9.45h-13V305.12h1.39v-3.38h-1.39V291.08h1.39V287.7h-1.39V277h1.39v-3.38h-3V257.75h-1.69v15.91h-3V277h1.39V287.7h-1.39v3.38h1.39v10.66h-1.39v3.38h1.39v16.34h-13.57v7.89l-17.92,6.37v3.08l3.55,3.55v4.87l3.57,3.58v3.7h4.1l8,8v12.27h-19.81V392.1h-25.66v-8.67h-10.75V370.26h-38.83v-6.94h-14.56v-9.7H1243.8v9.7h-10.4v87.73h-29.12V421.68h-27.39V398h-12V386.86h-2.69V398h-11.32v27h-19.94V527.85l-23.75,23.75v28.95h-18.42V394.62h-29.51v-8.45H999.71v-10h-7.23V364h-2.69v12.17h-4.94v-4h-2.69v4h-7.29v6.24H922.34v13h-6.5v7.8H894.52V390.46H879.14v-3.6H870.3v3.6h-4.78V401.9h-3.9V261.21H849.15v-4.72a2.35,2.35,0,0,0,0-4.32v-7.73a2.35,2.35,0,0,0,0-4.32v-7.29h-1.82v7.29a2.34,2.34,0,0,0,0,4.32v7.73a2.34,2.34,0,0,0,0,4.32v4.72h-6.76v-4.72a2.35,2.35,0,0,0,0-4.32v-7.73a2.35,2.35,0,0,0,0-4.32v-7.29h-1.82v7.29a2.34,2.34,0,0,0,0,4.32v7.73a2.34,2.34,0,0,0,0,4.32v4.72H780.49V464.83H766.31V401.51L755,390.2V367.83H745V349.94h-2.68v17.89H698.05v-5.72h-4.94v-9.36H663v6.76H649.16V255.36h-8.57v-10h-8.84v10H580.38L572.71,263V282.8H541.5v20.28h-6.76V443.77h-14v6.5H508.09v61.24l-9.23,9.23V497.08h-6.24V447.93h-7V431.8h-4.68V424h-8.84v-9.62h-4.68V376.93h-6.76v-13h-6.45V353.06h-2.69v10.87h-5.16L419.8,314.78H407.58l-28.09,48.11v53.57H351.41v6.24l-4.16,3.38H332.6V403.89l-17.51-33.28-2.6,2.08L292.9,337.32H291l-2.19-22.84v22.84h-4v-8.79h-8.84v8.79h-3.29V314.48l-2.19,22.84h-3.37l-30.86,49.24H226.15v82.69H187.49v9.19H177.44v13.69H127.68V503.4h-18V588H31L1.13,586.79V1080H2077.34V743.86Z"/><rect class="cls-7" x="1.13" y="299.64" width="1918.87" height="779.71"/><line class="cls-8" x1="1688.87" y1="831.04" x2="1688.87" y2="828.8"/><rect class="cls-9" x="688.79" y="797.51" width="3.65" height="8.91"/><rect class="cls-9" x="703.24" y="797.51" width="3.65" height="8.91"/><rect class="cls-9" x="717.69" y="797.51" width="3.65" height="8.91"/><rect class="cls-9" x="732.13" y="797.51" width="3.65" height="8.91"/><path class="cls-10" d="M2098.8,805.38V752.07h-4.59v-20h-1.13V719H2092v33.11h-2.74V739.92H2087v12.15H2051.2l-9.65,9.66H2021l-6.07-6.07h-21.14v-3.59h-56.63c-1.72,0,0-254,0-254H1923.6V434.46l-7.2-7.2h-3.58V380.31h-2.37v46.95h-4.23l-20.06,20.07h-21.09V427.26h-5.63v20.07H1831v37.58l-29.9,29.88v66.1L1780,602V745.89h-50.22V757h-14.64v14.76h-16.7V756h-22.87l-10.07-10.07h-13.71V729.5h-5.62v16.39h-6.51V729.5H1634v16.39h-36v-9.54h-22.32l-6.26-6.25-9.53-9.53H1506l-22.76-22.77h-56.43L1415,686h-39.3v16.62h-40.5v-121H1321.6V565.15H1315v-7.38h-27.44v7.38H1267.6v16.48h-69.54V527.1h-17.9v11.95h-27.08v35.16h-17.22V554h-14.77V528.86h3v-2.34h-11.53v2.34h3V554h-10.4V503.7h-1.2V554H1073.1l-48,48v56.5h-6.53V635.65h-1.2V658.5h-16.08v37H959.77V635H933V496H905.36V464.3H900V445.47h-6.71v-18H769V397h-3.1v30.42H761v-40h4.89v-3.09H761v-9.54h4.89v-3.09H761v-8.9h-6.19v64.58H738.05V548.34H659.68V529.78H637.25v-8.32H606.31v8.32h-7.47v18.56H583.5V684.72H537.86V652.24H516.6V630.45h1.92v-3.09H516.6v-3.48h-6.19v3.48h-1.92v3.09h1.92v21.79H483.17c0-6.43.17-14.31.17-14.31H457.05v25.13h-6.18V652.24H437.33l-7.15,7.15H386.66L379.09,667H287.41v66.47H211.36L200,744.78H174.24v17.8H155.41V746H138.92V733.44H82.34V397H47.53V376.81H44.05V334.17l-6.19-3.54V397H-68.09v20.12l-5.23,5.22v31.9H-94.78s1.94,286.17,0,286.17h-63.81v4h-23.83l-6.84,6.84h-23.16l-10.87-10.87h-40.3V726.7h-2.54v13.71h-3.09V703.09h-1.27v14.77h-1.27v22.55h-5.17v60.07H-438.17v289.46H2241.89V805.38Z"/></g><g class="cls-11"><g class="cls-12"><path class="cls-6" d="M926.73-286.18l-12.48-12.49H881.48V-594.95h-36.4v-21.32H819.94l-4-4H787.52v20.11H771.74v143.89H733.26v-90.49H705.17V-561l-33,5.2v-34.33H641.72v-9H626.31l-26.2-26.2h-6.58v-2.38h-.78v-7h.78v-2.68h-.78v-1.65h-2.68v1.65h-.78v2.68h.78v7H565.45v2.38H555l-17,17v75.65H485.69v-16h-13V-653.76H437.16v-13.17l7.77-7.76h5.79v-4.43l2.73-2.73v-5.07l3.46-1.64v-5.72l-17.16-4.86v-9.45h-13v-16.33h1.38v-3.38h-1.38V-739h1.38v-3.39h-1.38V-753h1.38v-3.38h-3v-15.9h-1.7v15.9h-3V-753h1.38v10.66h-1.38V-739h1.38v10.66h-1.38v3.38h1.38v16.33H408.33v7.89l-17.91,6.37v3.09L394-687.7v4.88l3.58,3.57v3.71h4.09l8,8v12.26H389.82v17.34H364.16v-8.67H353.41v-13.18H314.58v-6.93H300v-9.71H269.51v9.71H259.1V-579H230v-29.36H202.59V-632h-12v-11.13H187.9V-632H176.58v27H156.65v102.8l-23.76,23.75v29H114.47V-635.43H85v-8.45H25.41v-10H18.18v-12.17H15.49v12.17H10.55v-4H7.87v4H.57v6.24H-52v13h-6.5v7.8H-79.78v-12.74H-95.16v-3.59H-104v3.59h-4.78v11.44h-3.9V-768.83h-12.47v-4.72a2.36,2.36,0,0,0,1.44-2.16,2.34,2.34,0,0,0-1.44-2.16v-7.73a2.36,2.36,0,0,0,1.44-2.16,2.35,2.35,0,0,0-1.44-2.16v-7.29H-127v7.29a2.34,2.34,0,0,0-1.43,2.16A2.35,2.35,0,0,0-127-785.6v7.73a2.33,2.33,0,0,0-1.43,2.16,2.35,2.35,0,0,0,1.43,2.16v4.72h-6.76v-4.72a2.35,2.35,0,0,0,1.43-2.16,2.33,2.33,0,0,0-1.43-2.16v-7.73a2.35,2.35,0,0,0,1.43-2.16,2.34,2.34,0,0,0-1.43-2.16v-7.29h-1.82v7.29a2.34,2.34,0,0,0-1.43,2.16,2.35,2.35,0,0,0,1.43,2.16v7.73a2.33,2.33,0,0,0-1.43,2.16,2.35,2.35,0,0,0,1.43,2.16v4.72h-58.26v203.62H-208v-63.33l-11.32-11.31v-22.36h-9.95v-17.9h-2.69v17.9h-44.31v-5.72h-4.94v-9.37h-30.16v6.77h-13.78V-774.68h-8.58v-10h-8.84v10h-51.37l-7.67,7.67v19.76h-31.2V-727h-6.76v140.68H-453.6v6.5h-12.61v61.24l-9.23,9.24V-533h-6.24v-49.15h-7v-16.12h-4.68V-606h-8.85v-9.62h-4.68v-37.45h-6.76v-13h-6.45V-677h-2.68v10.88H-528l-26.53-49.15h-12.22l-28.08,48.11v53.57h-28.09v6.24L-627-604H-641.7v-22.19l-17.51-33.29-2.6,2.08-19.59-35.36h-1.92l-2.19-22.84v22.84h-4v-8.8h-8.84v8.8h-3.29v-22.84l-2.19,22.84h-3.37l-30.86,49.23h-10v82.7H-786.8v9.18h-10.06v13.7h-49.75v11.27h-18V-442h-78.71l-29.82-1.21V50H1103V-286.18Z"/><rect class="cls-13" x="-973.17" y="-731.94" width="1918.87" height="779.71"/><path class="cls-10" d="M1124.5-282.88v-53.3h-4.59v-20h-1.13V-369.3h-1.13v33.12h-2.74v-12.16h-2.26v12.16h-35.74l-9.66,9.65h-20.56l-6.07-6.07h-21.14v-3.58H962.86c-1.73,0,0-254,0-254H949.31v-63.65L942.1-661h-3.57v-47h-2.38v47h-4.22l-20.07,20.06H890.77V-661h-5.63v20.06H856.67v37.58l-29.9,29.88v66.1S814.43-495,805.68-486.26v143.89H755.45v11.1H740.82v14.77H724.11v-15.8H701.24l-10.07-10.07h-13.7v-16.38h-5.63v16.38h-6.5v-16.38h-5.63v16.38h-36v-9.54H601.36l-6.25-6.25-9.53-9.53H531.71l-22.77-22.76H452.51l-11.79-11.78h-39.3v16.62h-40.5v-121H347.3v-16.49h-6.64v-7.38H313.22v7.38H293.3v16.49H223.76v-54.54h-17.9v12H178.79V-514H161.56v-20.21H146.79V-559.4h3v-2.34H138.22v2.34h2.95v25.14h-10.4v-50.3h-1.21v50.3H98.81l-48,48v56.5H44.27v-22.85h-1.2v22.85H27v37.05H-14.53V-453.3H-41.35V-592.24H-68.93V-624h-5.41v-18.83H-81v-18H-205.31v-30.43h-3.09v30.43h-4.9v-40h4.9v-3.1h-4.9v-9.54h4.9v-3.09h-4.9v-8.9h-6.19v64.59h-16.76v120.91h-78.37v-18.57H-337v-8.32H-368v8.32h-7.48v18.57H-390.8v136.37h-45.63V-436H-457.7v-21.8h1.92v-3.09h-1.92v-3.48h-6.19v3.48h-1.91v3.09h1.91V-436h-27.24c0-6.44.17-14.32.17-14.32h-26.29v25.13h-6.18V-436H-537l-7.15,7.15h-43.52l-7.57,7.57h-91.68v66.47h-76l-11.35,11.35h-25.78v17.79h-18.82v-16.63h-16.5v-12.51H-892V-691.25h-34.81v-20.2h-3.48v-42.64l-6.19-3.54v66.38h-106v20.11l-5.23,5.23V-634h-21.46s1.94,286.17,0,286.17h-63.81v4h-23.82l-6.85,6.85h-23.16l-10.87-10.88h-40.3v-13.71h-2.54v13.71h-3.09v-37.32h-1.27v14.77h-1.27v22.55h-5.16v60.07h-161.25V1.69H1267.59V-282.88Z"/></g></g></svg>