<svg width="38" height="39" viewBox="0 0 38 39" fill="currentColor" xmlns="http://www.w3.org/2000/svg">
<g clip-path="url(#clip0_641_7788)">
<path d="M7.09375 17.7503V0.729492H17.3063V17.7503H7.09375ZM13.9021 14.3462V4.13366H10.4979V14.3462H13.9021Z" />
<path d="M20.6934 17.7503V14.3462H24.0975V7.53783H20.6934V4.13366H24.0975V0.729492H27.5017V14.3462H30.9059V17.7503H20.6934Z" />
<path d="M7.09375 38.7293V35.3252H10.4979V28.5168H7.09375V25.1127H10.4979V21.7085H13.9021V35.3252H17.3063V38.7293H7.09375Z" />
<path d="M20.6934 38.7293V21.7085H30.9059V38.7293H20.6934ZM27.5017 35.3252V25.1127H24.0975V35.3252H27.5017Z" />
<path d="M40.1853 0.207292C40.1838 0.402499 40.1462 0.595749 40.0745 0.777292C39.9921 1.0073 39.8627 1.21761 39.6945 1.39479C39.3732 1.68594 38.9563 1.84929 38.5228 1.85396C38.1029 1.85396 37.7001 1.68714 37.4032 1.39021C37.1063 1.09328 36.9395 0.690551 36.9395 0.270625C36.9441 -0.162931 37.1075 -0.579752 37.3986 -0.901042C37.5651 -1.09025 37.7703 -1.24144 38.0003 -1.34438C38.1818 -1.41614 38.3751 -1.45372 38.5703 -1.45521C38.7877 -1.45983 39.0037 -1.41962 39.2049 -1.33709C39.4061 -1.25455 39.5881 -1.13145 39.7396 -0.975477C39.8912 -0.819499 40.0089 -0.633982 40.0856 -0.430489C40.1623 -0.226996 40.1962 -0.00989151 40.1853 0.207292Z" />
<path d="M0.712672 39.6798C0.719431 39.8962 0.681709 40.1118 0.601839 40.3131C0.519469 40.5431 0.390048 40.7534 0.221839 40.9306C-0.095278 41.2284 -0.514805 41.3928 -0.949828 41.3898C-1.36975 41.3898 -1.77248 41.223 -2.06941 40.926C-2.36635 40.6291 -2.53316 40.2264 -2.53316 39.8064C-2.53621 39.3714 -2.37181 38.9519 -2.07399 38.6348C-1.94631 38.4345 -1.77933 38.2621 -1.58316 38.1281C-1.40162 38.0563 -1.20837 38.0188 -1.01316 38.0173C-0.790121 38.011 -0.568059 38.0492 -0.359963 38.1297C-0.151867 38.2102 0.0380847 38.3314 0.198782 38.4862C0.35948 38.641 0.487697 38.8263 0.575934 39.0312C0.664171 39.2362 0.710657 39.4567 0.712672 39.6798Z" />
</g>
<defs>
<clipPath id="clip0_641_7788">
<rect width="38" height="38" fill="white" transform="translate(0 0.729492)"/>
</clipPath>
</defs>
</svg>
