<svg width="24" height="24" viewBox="0 0 24 24" fill="none" xmlns="http://www.w3.org/2000/svg">
<g clip-path="url(#clip0_3198_6434)">
<path d="M1.43679 24.0001C1.15897 24.0029 0.886646 23.9226 0.654745 23.7696C0.422844 23.6166 0.241942 23.3978 0.135244 23.1413C0.0285452 22.8847 0.000914654 22.6022 0.0558976 22.3299C0.11088 22.0575 0.24597 21.8078 0.443836 21.6128L21.5706 0.486004C21.8339 0.222656 22.1911 0.074707 22.5636 0.074707C22.936 0.074707 23.2932 0.222656 23.5565 0.486004C23.8199 0.749353 23.9678 1.10653 23.9678 1.47896C23.9678 1.85139 23.8199 2.20857 23.5565 2.47192L2.42975 23.5987C2.29887 23.7277 2.14376 23.8296 1.97335 23.8985C1.80294 23.9674 1.62059 24.0019 1.43679 24.0001Z" fill="black"/>
<path d="M22.5632 24.0001C22.3794 24.0019 22.1971 23.9674 22.0267 23.8985C21.8563 23.8296 21.7012 23.7277 21.5703 23.5987L0.443524 2.47192C0.180175 2.20857 0.0322266 1.85139 0.0322266 1.47896C0.0322266 1.10653 0.180175 0.749353 0.443524 0.486004C0.706873 0.222656 1.06405 0.074707 1.43648 0.074707C1.80891 0.074707 2.16609 0.222656 2.42944 0.486004L23.5562 21.6128C23.7541 21.8078 23.8892 22.0575 23.9441 22.3299C23.9991 22.6022 23.9715 22.8847 23.8648 23.1413C23.7581 23.3978 23.5772 23.6166 23.3453 23.7696C23.1134 23.9226 22.8411 24.0029 22.5632 24.0001Z" fill="black"/>
</g>
<defs>
<clipPath id="clip0_3198_6434">
<rect width="24" height="24" fill="white"/>
</clipPath>
</defs>
</svg>
