<svg xmlns="http://www.w3.org/2000/svg" width="18" height="18" viewBox="0 0 18 18" fill="none">
  <path d="M17.25 0H5.25C5.05109 0 4.86032 0.0790178 4.71967 0.21967C4.57902 0.360322 4.5 0.551088 4.5 0.75V4.5H0.75C0.551088 4.5 0.360322 4.57902 0.21967 4.71967C0.0790178 4.86032 0 5.05109 0 5.25V17.25C0 17.4489 0.0790178 17.6397 0.21967 17.7803C0.360322 17.921 0.551088 18 0.75 18H12.75C12.9489 18 13.1397 17.921 13.2803 17.7803C13.421 17.6397 13.5 17.4489 13.5 17.25V13.5H17.25C17.4489 13.5 17.6397 13.421 17.7803 13.2803C17.921 13.1397 18 12.9489 18 12.75V0.75C18 0.551088 17.921 0.360322 17.7803 0.21967C17.6397 0.0790178 17.4489 0 17.25 0ZM16.5 12H13.5V5.25C13.5 5.05109 13.421 4.86032 13.2803 4.71967C13.1397 4.57902 12.9489 4.5 12.75 4.5H6V1.5H16.5V12Z" fill="#BFE1CB"/>
</svg>