<svg width="107" height="23" viewBox="0 0 107 23" fill="none" xmlns="http://www.w3.org/2000/svg">
<path d="M7.27022 7.00928C7.41227 7.00928 7.55139 7.02831 7.69051 7.06492C7.82963 7.10153 7.94092 7.14839 8.02732 7.20404V9.70526C7.95996 9.71698 7.87356 9.72869 7.76812 9.73747C7.66268 9.74626 7.54992 9.75066 7.42691 9.75066C7.05202 9.75066 6.76792 9.62179 6.57755 9.36258C6.38718 9.10485 6.29199 8.76217 6.29199 8.33749C6.29199 7.45152 6.61856 7.00781 7.27022 7.00781V7.00928Z" fill="#FF7A60"/>
<path d="M15.1549 6.86738L14.1268 2.49904C13.9614 1.79466 13.4107 1.24403 12.7064 1.07855L8.33801 0.0505372C7.69514 -0.100297 7.01857 0.091541 6.55143 0.558689L0.55904 6.55107C-0.186347 7.29646 -0.186347 8.5046 0.55904 9.24999L5.95394 14.6449C6.69933 15.3903 7.90747 15.3903 8.65286 14.6449L14.6452 8.65251C15.1124 8.18536 15.3042 7.5088 15.1534 6.86592L15.1549 6.86738ZM12.8836 2.32331C13.093 2.53272 13.093 2.87393 12.8836 3.0848C12.6741 3.29568 12.3329 3.29422 12.1221 3.0848C11.9112 2.87539 11.9126 2.53418 12.1221 2.32331C12.3315 2.1139 12.6727 2.1139 12.8836 2.32331ZM8.97796 10.751C8.81834 10.7847 8.64993 10.814 8.4742 10.8389C8.29847 10.8638 8.11981 10.8828 7.93823 10.8989C7.75664 10.9136 7.58237 10.9223 7.4169 10.9223C7.01711 10.9223 6.65979 10.8638 6.34641 10.7466C6.03302 10.6295 5.76796 10.4625 5.55269 10.2443C5.33743 10.0261 5.17195 9.76107 5.05919 9.45061C4.94496 9.14016 4.88785 8.79016 4.88785 8.40355C4.88785 8.00963 4.93618 7.65524 5.03576 7.33746C5.13387 7.02115 5.27592 6.7517 5.46044 6.52911C5.64495 6.30798 5.87047 6.13811 6.13846 6.02095C6.40645 5.9038 6.71251 5.84522 7.05665 5.84522C7.24703 5.84522 7.41836 5.86426 7.5692 5.90087C7.72003 5.93748 7.87233 5.9902 8.02609 6.05756V3.86094L9.40117 3.63981V10.6456C9.27816 10.6822 9.13612 10.7173 8.9765 10.7525L8.97796 10.751Z" fill="#FF7A60"/>
<path d="M26.2277 22.0426C25.9744 22.1188 25.6815 22.192 25.352 22.2623C25.0225 22.3326 24.6755 22.3926 24.3138 22.4424C23.952 22.4937 23.583 22.5347 23.2096 22.5669C22.8347 22.5991 22.4759 22.6138 22.1332 22.6138C21.3073 22.6138 20.5722 22.4937 19.9249 22.252C19.2776 22.0104 18.7314 21.6648 18.2877 21.2138C17.844 20.7627 17.5042 20.2165 17.2685 19.5751C17.0341 18.9337 16.9155 18.2132 16.9155 17.4122C16.9155 16.6111 17.0166 15.8657 17.2201 15.2111C17.4237 14.5565 17.7151 14.0015 18.0958 13.5446C18.4766 13.0877 18.9437 12.7377 19.4958 12.4961C20.0479 12.2545 20.6791 12.1344 21.3908 12.1344C21.7847 12.1344 22.1362 12.1725 22.4481 12.2486C22.76 12.3248 23.0734 12.4331 23.3912 12.5723V8.05162L26.2277 7.59473V22.0426ZM19.8034 17.2804C19.8034 18.1561 20.001 18.8619 20.395 19.395C20.7889 19.928 21.3747 20.1945 22.1508 20.1945C22.4056 20.1945 22.6399 20.1858 22.8567 20.1667C23.0734 20.1477 23.2506 20.1257 23.3912 20.0994V14.9373C23.2125 14.8231 22.9811 14.7279 22.6941 14.6517C22.4071 14.5756 22.1186 14.5375 21.8257 14.5375C20.477 14.5375 19.8034 15.4513 19.8034 17.2804Z" fill="currentColor"/>
<path d="M28.4199 17.433C28.4199 16.5441 28.5561 15.768 28.83 15.1017C29.1023 14.4353 29.4611 13.8803 29.9063 13.4366C30.3515 12.9929 30.8626 12.6561 31.4395 12.4276C32.018 12.1992 32.6111 12.085 33.2203 12.085C34.6422 12.085 35.7669 12.5199 36.5928 13.3898C37.4187 14.2596 37.8317 15.538 37.8317 17.2265C37.8317 17.392 37.8259 17.5721 37.8127 17.7698C37.7995 17.966 37.7878 18.1418 37.7746 18.2941H31.34C31.4029 18.8769 31.6768 19.3411 32.1586 19.6823C32.6418 20.025 33.2891 20.1964 34.1033 20.1964C34.6246 20.1964 35.1357 20.1495 35.638 20.0543C36.1403 19.9591 36.5489 19.842 36.8667 19.7014L37.2474 22.0049C37.0951 22.0811 36.8916 22.1572 36.6368 22.2333C36.3819 22.3095 36.0993 22.3754 35.7889 22.434C35.4769 22.4911 35.1445 22.538 34.7872 22.576C34.4313 22.6141 34.0755 22.6331 33.7196 22.6331C32.8176 22.6331 32.0326 22.4999 31.3649 22.2333C30.6971 21.9668 30.145 21.6022 29.7057 21.1394C29.2678 20.6767 28.9427 20.1275 28.7333 19.4934C28.5239 18.8593 28.4185 18.174 28.4185 17.4374L28.4199 17.433ZM35.0947 16.3552C35.0815 16.1121 35.0405 15.8763 34.9702 15.6464C34.9 15.4165 34.7916 15.2115 34.6466 15.0328C34.5016 14.8542 34.3157 14.7077 34.0945 14.592C33.8734 14.4763 33.5952 14.4192 33.2657 14.4192C32.9362 14.4192 32.674 14.4734 32.4456 14.5818C32.2171 14.6902 32.0268 14.8337 31.8745 15.0123C31.7222 15.191 31.605 15.3989 31.5216 15.6347C31.4381 15.8705 31.378 16.1106 31.34 16.3537H35.0947V16.3552Z" fill="currentColor"/>
<path d="M43.6262 12.084C44.4638 12.084 45.1624 12.1792 45.7203 12.3695C46.2782 12.5599 46.7264 12.8338 47.0632 13.1881C47.4 13.544 47.6372 13.976 47.7778 14.4842C47.9169 14.9923 47.9872 15.5576 47.9872 16.18V22.0859C47.5816 22.1753 47.0163 22.2792 46.2914 22.4008C45.568 22.5209 44.6908 22.5809 43.6628 22.5809C43.0155 22.5809 42.4283 22.5238 41.9011 22.4096C41.3739 22.2953 40.92 22.1079 40.5392 21.8472C40.1585 21.5866 39.8656 21.2468 39.6635 20.828C39.4614 20.4092 39.3589 19.8937 39.3589 19.2845C39.3589 18.6753 39.476 18.2052 39.7118 17.7981C39.9461 17.391 40.261 17.0674 40.6549 16.8258C41.0488 16.5841 41.4999 16.4099 42.008 16.3015C42.5162 16.1931 43.0434 16.1389 43.5896 16.1389C43.9572 16.1389 44.2852 16.1551 44.5707 16.1873C44.8563 16.2195 45.0891 16.2605 45.2663 16.3103V16.0423C45.2663 15.5576 45.1199 15.1695 44.8285 14.8766C44.5356 14.5837 44.0274 14.4373 43.304 14.4373C42.8208 14.4373 42.3448 14.4724 41.8748 14.5427C41.4047 14.613 40.9976 14.7111 40.6549 14.8385L40.2932 12.5614C40.4587 12.5101 40.6637 12.4574 40.9126 12.3988C41.1601 12.3417 41.4296 12.2905 41.7225 12.2465C42.0139 12.2026 42.3229 12.1645 42.6465 12.1323C42.9701 12.1001 43.2967 12.084 43.6277 12.084H43.6262ZM43.8561 20.3945C44.1358 20.3945 44.4023 20.3887 44.6557 20.3755C44.909 20.3623 45.1126 20.3433 45.2649 20.3184V18.1554C45.1506 18.1306 44.9793 18.1042 44.7509 18.0793C44.5224 18.0544 44.313 18.0412 44.1226 18.0412C43.8561 18.0412 43.6042 18.0573 43.3699 18.0895C43.1341 18.1218 42.9277 18.1818 42.7505 18.2711C42.5733 18.3605 42.4327 18.482 42.3317 18.6343C42.2306 18.7866 42.1794 18.9785 42.1794 19.2084C42.1794 19.655 42.3287 19.964 42.6275 20.1368C42.9262 20.3096 43.3362 20.3945 43.8576 20.3945H43.8561Z" fill="currentColor"/>
<path d="M54.5652 22.5469C53.7393 22.5337 53.0671 22.4458 52.5531 22.2804C52.0377 22.1149 51.6305 21.8835 51.3318 21.5862C51.0331 21.2875 50.8295 20.9272 50.7211 20.5011C50.6128 20.0764 50.5586 19.5975 50.5586 19.0645V8.05065L53.3952 7.59375V18.4963C53.3952 18.7497 53.4142 18.9781 53.4523 19.1817C53.4904 19.3852 53.5636 19.5565 53.6719 19.6957C53.7803 19.8348 53.937 19.949 54.1405 20.0383C54.3441 20.1277 54.6194 20.1848 54.9636 20.2097L54.5638 22.5454L54.5652 22.5469Z" fill="currentColor"/>
<path d="M59.6816 9.45605C59.6816 9.97738 59.5132 10.3874 59.1764 10.6862C58.8396 10.9849 58.4427 11.1343 57.9858 11.1343C57.5289 11.1343 57.1321 10.9849 56.7953 10.6862C56.4584 10.3874 56.29 9.97738 56.29 9.45605C56.29 8.93472 56.4584 8.52615 56.7953 8.22741C57.1321 7.92867 57.5275 7.7793 57.9858 7.7793C58.4442 7.7793 58.8396 7.92867 59.1764 8.22741C59.5132 8.52615 59.6816 8.93619 59.6816 9.45605ZM59.4151 22.3634H56.5785V12.3512H59.4151V22.3634Z" fill="currentColor"/>
<path d="M61.5986 17.3573C61.5986 16.6339 61.7158 15.9515 61.9516 15.3101C62.1873 14.6687 62.5271 14.1107 62.9737 13.6348C63.4189 13.1589 63.9607 12.781 64.5963 12.5028C65.2333 12.2231 65.9582 12.084 66.7739 12.084C67.3084 12.084 67.799 12.1323 68.2441 12.2275C68.6893 12.3227 69.1228 12.4589 69.5431 12.6375L68.9529 14.903C68.6849 14.8019 68.3906 14.7126 68.0713 14.6365C67.7521 14.5603 67.3948 14.5222 66.9979 14.5222C66.1544 14.5222 65.5247 14.7829 65.1103 15.3028C64.6944 15.8226 64.4879 16.508 64.4879 17.3588C64.4879 18.2594 64.6827 18.9579 65.0722 19.4529C65.4618 19.9479 66.1412 20.1954 67.1107 20.1954C67.4548 20.1954 67.8253 20.1632 68.2207 20.1002C68.6161 20.0372 68.9793 19.9347 69.3117 19.7956L69.7115 22.1182C69.3805 22.2573 68.9676 22.3788 68.4711 22.4799C67.9747 22.5809 67.4285 22.6322 66.8295 22.6322C65.9143 22.6322 65.1249 22.496 64.463 22.2236C63.8011 21.9512 63.2578 21.5792 62.8317 21.1106C62.4055 20.6406 62.0936 20.0855 61.8974 19.4441C61.7011 18.8027 61.6016 18.1086 61.6016 17.3588L61.5986 17.3573Z" fill="currentColor"/>
<path d="M74.7114 9.45605C74.7114 9.97738 74.543 10.3874 74.2062 10.6862C73.8694 10.9849 73.4725 11.1343 73.0156 11.1343C72.5587 11.1343 72.1619 10.9849 71.825 10.6862C71.4882 10.3874 71.3198 9.97738 71.3198 9.45605C71.3198 8.93472 71.4882 8.52615 71.825 8.22741C72.1619 7.92867 72.5573 7.7793 73.0156 7.7793C73.474 7.7793 73.8694 7.92867 74.2062 8.22741C74.543 8.52615 74.7114 8.93619 74.7114 9.45605ZM74.4449 22.3634H71.6083V12.3512H74.4449V22.3634Z" fill="currentColor"/>
<path d="M86.4898 17.3383C86.4898 18.1247 86.3756 18.8452 86.1471 19.4998C85.9187 20.1529 85.5877 20.7123 85.1557 21.1751C84.7237 21.6378 84.2053 21.9966 83.6005 22.2499C82.9957 22.5033 82.3191 22.6307 81.5694 22.6307C80.8196 22.6307 80.1606 22.5033 79.5572 22.2499C78.9524 21.9966 78.434 21.6378 78.002 21.1751C77.57 20.7123 77.2332 20.1529 76.9916 19.4998C76.75 18.8467 76.6299 18.1262 76.6299 17.3383C76.6299 16.5504 76.7544 15.8344 77.0018 15.1871C77.2493 14.5398 77.5935 13.9877 78.0313 13.5308C78.4692 13.0739 78.992 12.7181 79.5953 12.4647C80.2001 12.2114 80.8577 12.084 81.5694 12.084C82.2811 12.084 82.9591 12.2114 83.5624 12.4647C84.1658 12.7181 84.6842 13.0739 85.1176 13.5308C85.5496 13.9877 85.8865 14.5398 86.1281 15.1871C86.3697 15.8344 86.4898 16.5519 86.4898 17.3383ZM83.6034 17.3383C83.6034 16.4626 83.4277 15.7743 83.0748 15.272C82.7233 14.7712 82.221 14.5193 81.5679 14.5193C80.9148 14.5193 80.4095 14.7697 80.0508 15.272C79.692 15.7743 79.5133 16.4626 79.5133 17.3383C79.5133 18.214 79.692 18.9096 80.0508 19.4236C80.4095 19.9376 80.9148 20.1939 81.5679 20.1939C82.221 20.1939 82.7218 19.9376 83.0748 19.4236C83.4262 18.9096 83.6034 18.214 83.6034 17.3383Z" fill="currentColor"/>
<path d="M97.2167 22.0255C96.7349 22.1646 96.1125 22.2949 95.351 22.4165C94.5895 22.5366 93.79 22.5966 92.9523 22.5966C92.1147 22.5966 91.3942 22.4824 90.8289 22.2539C90.2637 22.0255 89.817 21.7048 89.4861 21.2918C89.1566 20.8788 88.9208 20.3868 88.7817 19.8157C88.6426 19.2446 88.5723 18.6163 88.5723 17.931V12.3516H91.4088V17.5883C91.4088 18.5021 91.5289 19.1625 91.7705 19.5682C92.0122 19.9738 92.4617 20.1774 93.1222 20.1774C93.3257 20.1774 93.541 20.1686 93.7695 20.1496C93.9979 20.1305 94.2015 20.1086 94.3787 20.0822V12.3516H97.2152V22.0269L97.2167 22.0255Z" fill="currentColor"/>
<path d="M102.753 20.3281C103.273 20.3281 103.64 20.2769 103.856 20.1758C104.071 20.0748 104.179 19.8771 104.179 19.5857C104.179 19.3572 104.04 19.1581 103.762 18.9867C103.484 18.8154 103.06 18.6221 102.489 18.4068C102.046 18.2428 101.643 18.0715 101.281 17.8943C100.919 17.7171 100.612 17.5048 100.357 17.2573C100.102 17.0098 99.9061 16.714 99.7655 16.3713C99.6249 16.0286 99.5561 15.6157 99.5561 15.1324C99.5561 14.1923 99.9046 13.4498 100.603 12.9036C101.3 12.3573 102.259 12.085 103.478 12.085C104.087 12.085 104.67 12.1391 105.229 12.2475C105.787 12.3559 106.231 12.473 106.562 12.6004L106.067 14.8102C105.737 14.696 105.38 14.595 104.993 14.5056C104.607 14.4163 104.173 14.3724 103.692 14.3724C102.804 14.3724 102.362 14.6199 102.362 15.1148C102.362 15.2291 102.381 15.3301 102.419 15.4194C102.457 15.5088 102.533 15.5937 102.646 15.6772C102.759 15.7606 102.915 15.8485 103.112 15.9437C103.308 16.0389 103.558 16.1428 103.863 16.2556C104.484 16.4826 104.998 16.7081 105.403 16.9292C105.809 17.1504 106.13 17.392 106.364 17.6512C106.598 17.9119 106.764 18.2004 106.858 18.5181C106.953 18.8359 107 19.2035 107 19.6238C107 20.6152 106.628 21.3635 105.887 21.8716C105.146 22.3798 104.094 22.6331 102.737 22.6331C101.848 22.6331 101.11 22.557 100.52 22.4047C99.9295 22.2524 99.5209 22.125 99.2925 22.0239L99.7684 19.7204C100.25 19.9108 100.745 20.0602 101.252 20.1685C101.759 20.2769 102.259 20.3296 102.754 20.3296L102.753 20.3281Z" fill="currentColor"/>
</svg>
