<?xml version="1.0" encoding="UTF-8"?>
<svg id="Final_versions" data-name="Final versions" xmlns="http://www.w3.org/2000/svg" viewBox="0 0 1920 1080">
  <defs>
    <style>
      .cls-1 {
        fill: currentColor;
      }

      .cls-2 {
        fill: #ff5938;
      }
    </style>
  </defs>
  <g id="horizontal">
    <g>
      <g>
        <path class="cls-2" d="m229.65,483.66c2.08,0,4.14.27,6.17.81,2.04.54,3.69,1.22,4.95,2.04v36.77c-1,.18-2.26.34-3.8.47s-3.21.2-5.02.2c-5.52,0-9.68-1.9-12.48-5.7-2.8-3.8-4.21-8.82-4.21-15.06,0-13.03,4.79-19.54,14.38-19.54Z"/>
        <path class="cls-2" d="m345.57,481.59l-15.11-64.21c-2.44-10.36-10.52-18.44-20.88-20.88l-64.21-15.11c-9.46-2.23-19.39.6-26.26,7.47l-88.1,88.1c-10.95,10.95-10.95,28.71,0,39.66l79.31,79.31c10.95,10.95,28.71,10.95,39.66,0l88.1-88.1c6.87-6.87,9.69-16.8,7.47-26.26Zm-33.39-66.8c3.09,3.09,3.09,8.1,0,11.19s-8.1,3.09-11.19,0-3.09-8.1,0-11.19,8.1-3.09,11.19,0Zm-57.42,123.89c-2.35.5-4.82.93-7.39,1.29-2.58.36-5.2.65-7.87.88-2.67.23-5.22.34-7.66.34-5.88,0-11.13-.86-15.74-2.58-4.61-1.72-8.5-4.18-11.67-7.39-3.17-3.21-5.59-7.1-7.26-11.67-1.67-4.57-2.51-9.7-2.51-15.4,0-5.79.72-11.01,2.17-15.67,1.45-4.66,3.53-8.62,6.24-11.87,2.71-3.26,6.04-5.74,9.97-7.46,3.94-1.72,8.43-2.58,13.5-2.58,2.8,0,5.31.27,7.53.81,2.21.54,4.45,1.31,6.71,2.31v-32.29s20.22-3.26,20.22-3.26v102.98c-1.81.54-3.89,1.07-6.24,1.56Z"/>
      </g>
      <path class="cls-1" d="m508.32,704.66c-3.73,1.12-8.03,2.19-12.88,3.22s-9.93,1.91-15.25,2.66c-5.32.74-10.73,1.35-16.24,1.82-5.5.46-10.78.7-15.81.7-12.13,0-22.96-1.77-32.47-5.32-9.52-3.55-17.54-8.64-24.07-15.27-6.53-6.63-11.53-14.66-14.98-24.09-3.45-9.43-5.18-20.03-5.18-31.79s1.49-22.73,4.48-32.35,7.28-17.78,12.88-24.51c5.6-6.72,12.46-11.86,20.57-15.4s17.4-5.32,27.85-5.32c5.78,0,10.96.56,15.53,1.68s9.19,2.71,13.86,4.76v-66.44l41.7-6.72v212.38Zm-94.44-70.01c0,12.88,2.9,23.24,8.7,31.08,5.8,7.84,14.4,11.76,25.81,11.76,3.74,0,7.19-.14,10.38-.42s5.8-.61,7.86-.98v-75.88c-2.62-1.68-6.03-3.08-10.24-4.2s-8.46-1.68-12.76-1.68c-19.82,0-29.74,13.44-29.74,40.32Zm126.68,2.26c0-13.06,2-24.48,6.02-34.28,4.01-9.79,9.29-17.95,15.82-24.48,6.54-6.53,14.05-11.48,22.54-14.83s17.22-5.04,26.19-5.04c20.91,0,37.44,6.39,49.57,19.18,12.13,12.78,18.21,31.58,18.21,56.4,0,2.43-.1,5.09-.28,7.98-.19,2.89-.38,5.46-.56,7.7h-94.58c.93,8.58,4.94,15.38,12.04,20.41,7.1,5.04,16.62,7.55,28.58,7.55,7.66,0,15.17-.7,22.55-2.1,7.37-1.4,13.4-3.12,18.07-5.18l5.6,33.86c-2.24,1.12-5.23,2.24-8.97,3.36s-7.9,2.1-12.47,2.94c-4.58.84-9.48,1.54-14.71,2.1-5.23.56-10.46.84-15.7.84-13.27,0-24.81-1.96-34.61-5.88s-17.93-9.28-24.38-16.09c-6.45-6.81-11.21-14.88-14.3-24.2s-4.62-19.4-4.62-30.23Zm98.12-15.84c-.19-3.57-.79-7.04-1.82-10.43s-2.62-6.39-4.76-9.01-4.86-4.79-8.13-6.48-7.33-2.54-12.18-2.54-8.69.8-12.05,2.4c-3.36,1.6-6.16,3.71-8.4,6.34-2.24,2.63-3.97,5.68-5.19,9.16s-2.1,6.99-2.66,10.56h55.19Zm125.42-62.8c12.31,0,22.58,1.4,30.79,4.2,8.21,2.8,14.79,6.81,19.74,12.04s8.44,11.58,10.49,19.04,3.08,15.78,3.08,24.93v86.81c-5.97,1.31-14.28,2.85-24.92,4.62-10.64,1.77-23.52,2.66-38.64,2.66-9.52,0-18.15-.84-25.89-2.52-7.75-1.68-14.42-4.43-20.02-8.26-5.6-3.83-9.89-8.82-12.88-14.99s-4.48-13.73-4.48-22.69,1.72-15.87,5.18-21.85c3.45-5.98,8.08-10.74,13.86-14.29,5.79-3.55,12.42-6.12,19.89-7.7s15.22-2.38,23.25-2.38c5.41,0,10.22.23,14.42.7s7.61,1.07,10.23,1.82v-3.93c0-7.12-2.15-12.83-6.44-17.14-4.3-4.31-11.77-6.47-22.41-6.47-7.1,0-14.1.51-21.01,1.54-6.91,1.03-12.89,2.48-17.93,4.34l-5.32-33.47c2.42-.74,5.45-1.54,9.1-2.38,3.64-.84,7.6-1.59,11.9-2.24s8.82-1.21,13.58-1.68c4.76-.47,9.56-.7,14.42-.7Zm3.39,122.16c4.11,0,8.03-.09,11.76-.28s6.72-.47,8.97-.84v-31.79c-1.68-.37-4.2-.74-7.57-1.12-3.36-.37-6.44-.56-9.24-.56-3.92,0-7.61.24-11.07.71-3.46.47-6.49,1.36-9.11,2.67s-4.67,3.09-6.16,5.34-2.24,5.06-2.24,8.43c0,6.56,2.19,11.11,6.58,13.64s10.41,3.79,18.07,3.79Zm157.42,31.64c-12.15-.19-22.01-1.49-29.58-3.91-7.57-2.42-13.55-5.83-17.95-10.21s-7.39-9.69-8.97-15.94c-1.59-6.24-2.38-13.28-2.38-21.11v-161.9l41.7-6.72v160.28c0,3.73.28,7.09.84,10.07.56,2.98,1.64,5.5,3.23,7.55s3.89,3.73,6.89,5.03c3,1.31,7.03,2.15,12.09,2.52l-5.88,34.34Zm75.21-192.44c0,7.66-2.47,13.68-7.42,18.07s-10.78,6.58-17.49,6.58-12.55-2.19-17.5-6.58-7.42-10.41-7.42-18.07,2.47-13.68,7.42-18.07,10.77-6.58,17.5-6.58,12.55,2.2,17.49,6.58,7.42,10.41,7.42,18.07Zm-3.92,189.74h-41.7v-147.18h41.7v147.18Zm32.1-73.59c0-10.63,1.73-20.66,5.19-30.08,3.46-9.42,8.47-17.63,15.02-24.63,6.55-6.99,14.5-12.54,23.86-16.65,9.36-4.1,20.02-6.16,32-6.16,7.86,0,15.06.7,21.61,2.1,6.55,1.4,12.91,3.41,19.09,6.02l-8.68,33.3c-3.95-1.49-8.27-2.8-12.96-3.92s-9.95-1.68-15.78-1.68c-12.4,0-21.65,3.83-27.75,11.48-6.11,7.65-9.16,17.73-9.16,30.23,0,13.25,2.86,23.51,8.58,30.79,5.72,7.28,15.71,10.92,29.97,10.92,5.06,0,10.5-.46,16.32-1.4,5.81-.93,11.16-2.42,16.04-4.48l5.88,34.14c-4.86,2.05-10.94,3.82-18.23,5.32-7.29,1.49-15.34,2.24-24.12,2.24-13.46,0-25.06-2.01-34.78-6.01-9.73-4.01-17.72-9.47-23.99-16.37s-10.85-15.07-13.74-24.49-4.35-19.64-4.35-30.64Zm192.73-116.15c0,7.66-2.47,13.68-7.42,18.07s-10.78,6.58-17.49,6.58-12.55-2.19-17.5-6.58-7.42-10.41-7.42-18.07,2.47-13.68,7.42-18.07,10.77-6.58,17.5-6.58,12.55,2.2,17.49,6.58,7.42,10.41,7.42,18.07Zm-3.92,189.74h-41.7v-147.18h41.7v147.18Zm177.07-73.87c0,11.57-1.68,22.16-5.05,31.76-3.37,9.61-8.23,17.82-14.58,24.63-6.35,6.81-13.97,12.08-22.85,15.81-8.88,3.73-18.83,5.6-29.86,5.6s-20.71-1.87-29.59-5.6c-8.88-3.73-16.5-9-22.86-15.81-6.35-6.81-11.31-15.02-14.86-24.63-3.55-9.61-5.33-20.2-5.33-31.76s1.82-22.11,5.47-31.62,8.69-17.63,15.14-24.35c6.45-6.72,14.11-11.94,22.99-15.67,8.88-3.73,18.55-5.6,29.03-5.6s20.42,1.87,29.3,5.6c8.88,3.73,16.5,8.96,22.85,15.67s11.31,14.83,14.86,24.35c3.55,9.51,5.33,20.05,5.33,31.62Zm-42.44,0c0-12.87-2.59-22.99-7.76-30.36-5.17-7.37-12.56-11.06-22.15-11.06s-17.03,3.69-22.29,11.06c-5.27,7.37-7.9,17.49-7.9,30.36s2.63,23.09,7.9,30.65,12.69,11.33,22.29,11.33,16.97-3.78,22.15-11.33c5.17-7.56,7.76-17.77,7.76-30.65Zm200.13,68.91c-7.09,2.05-16.24,3.97-27.43,5.74-11.2,1.77-22.95,2.66-35.27,2.66s-22.91-1.68-31.21-5.04c-8.3-3.36-14.88-8.07-19.73-14.14-4.85-6.06-8.31-13.3-10.36-21.7-2.05-8.4-3.08-17.64-3.08-27.72v-82.03h41.7v76.98c0,13.44,1.77,23.14,5.32,29.11s10.17,8.96,19.87,8.96c2.99,0,6.16-.14,9.52-.42s6.34-.61,8.96-.98v-113.65h41.7v142.22Zm81.39-24.97c7.64,0,13.05-.74,16.22-2.24,3.17-1.49,4.75-4.38,4.75-8.67,0-3.36-2.04-6.29-6.13-8.81s-10.32-5.36-18.71-8.52c-6.52-2.42-12.45-4.93-17.76-7.54s-9.84-5.73-13.58-9.37c-3.74-3.64-6.64-7.98-8.69-13.02-2.06-5.04-3.09-11.11-3.09-18.2,0-13.81,5.13-24.73,15.39-32.76,10.26-8.03,24.34-12.04,42.25-12.04,8.95,0,17.53.79,25.74,2.38,8.21,1.59,14.73,3.32,19.59,5.18l-7.28,32.48c-4.84-1.68-10.1-3.17-15.78-4.48-5.68-1.3-12.06-1.96-19.14-1.96-13.04,0-19.56,3.64-19.56,10.91,0,1.68.28,3.17.84,4.48.56,1.31,1.67,2.57,3.34,3.78s3.95,2.51,6.84,3.91c2.89,1.4,6.57,2.92,11.05,4.6,9.13,3.35,16.68,6.65,22.65,9.9,5.96,3.25,10.67,6.79,14.12,10.62,3.45,3.83,5.87,8.08,7.26,12.74s2.1,10.08,2.1,16.24c0,14.56-5.46,25.58-16.37,33.05-10.91,7.47-26.35,11.2-46.31,11.2-13.06,0-23.92-1.12-32.6-3.36-8.67-2.24-14.69-4.1-18.05-5.6l7-33.85c7.08,2.8,14.35,4.99,21.81,6.58,7.45,1.59,14.82,2.38,22.09,2.38Z"/>
    </g>
  </g>
</svg>