<svg id="Capa_1" data-name="Capa 1" xmlns="http://www.w3.org/2000/svg" viewBox="0 0 24 24" fill="#FFFFFF"><path d="M15.7,23.81a2.88,2.88,0,0,1-1-.18l-11.14-4a2.92,2.92,0,0,1-1.65-1.51,3,3,0,0,1-.11-2.24L5.55,5.52A3,3,0,0,1,7.1,3.84L14.62.45a2.91,2.91,0,0,1,3.82,1.38l3.62,7.41a2.92,2.92,0,0,1,.13,2.28L18.45,21.88a2.92,2.92,0,0,1-2.75,1.93Zm.12-22a1.24,1.24,0,0,0-.53.12L7.78,5.35a1.25,1.25,0,0,0-.68.73L3.36,16.43a1.33,1.33,0,0,0,.05,1,1.22,1.22,0,0,0,.72.65l11.14,4a1.27,1.27,0,0,0,1.63-.76L20.64,11a1.26,1.26,0,0,0-.06-1L17,2.56A1.28,1.28,0,0,0,15.82,1.84Z"/><circle cx="15.65" cy="3.57" r="0.8"/></svg>