<svg id="Capa_1" data-name="Capa 1" xmlns="http://www.w3.org/2000/svg" viewBox="0 0 24 24" fill="#FFFFFF" ><path d="M14.25,19.16a1.81,1.81,0,0,1-.61-.1L6.89,16.62a1.76,1.76,0,0,1-1.07-2.27L8.09,8.07a1.78,1.78,0,0,1,.94-1L13.59,5a1.78,1.78,0,0,1,2.32.84l2.2,4.5a1.78,1.78,0,0,1,.07,1.38L15.91,18A1.73,1.73,0,0,1,15,19,1.68,1.68,0,0,1,14.25,19.16Zm.07-13.32a.71.71,0,0,0-.32.07L9.44,8A.8.8,0,0,0,9,8.4L6.76,14.69a.78.78,0,0,0,.47,1L14,18.12a.78.78,0,0,0,.6,0,.77.77,0,0,0,.39-.44l2.27-6.28a.78.78,0,0,0,0-.6L15,6.27A.77.77,0,0,0,14.32,5.84Z"/><path d="M11.11,12.43a1.52,1.52,0,0,1-.51-.09,1.44,1.44,0,0,1-.83-.76,1.41,1.41,0,0,1,0-1.12,1.47,1.47,0,0,1,1.89-.89,1.47,1.47,0,0,1,.88,1.89h0a1.44,1.44,0,0,1-.76.83A1.51,1.51,0,0,1,11.11,12.43Zm0-1.95a.53.53,0,0,0-.2,0,.44.44,0,0,0-.24.26.52.52,0,0,0,0,.37.49.49,0,0,0,.27.24.52.52,0,0,0,.37,0,.49.49,0,0,0,.24-.27h0a.48.48,0,0,0-.28-.61A.51.51,0,0,0,11.1,10.48Z"/><path d="M12.85,16.47a1.43,1.43,0,0,1-.5-.09,1.47,1.47,0,0,1-.13-2.72,1.48,1.48,0,0,1,1.13-.05,1.41,1.41,0,0,1,.83.76,1.48,1.48,0,0,1,.06,1.13h0A1.48,1.48,0,0,1,12.85,16.47Zm0-1.95a.46.46,0,0,0-.2.05.44.44,0,0,0-.25.27.47.47,0,0,0,.29.6.46.46,0,0,0,.6-.28h0a.48.48,0,0,0,0-.37.49.49,0,0,0-.27-.24A.45.45,0,0,0,12.85,14.52Z"/><path d="M9.7,14.55a.5.5,0,0,1-.21-1l4.6-2.17a.5.5,0,0,1,.66.24.5.5,0,0,1-.24.67L9.91,14.5A.54.54,0,0,1,9.7,14.55Z"/><circle cx="14.22" cy="6.89" r="0.48"/></svg>