<svg id="Capa_1" data-name="Capa 1" xmlns="http://www.w3.org/2000/svg" viewBox="0 0 6.91 6.91" fill="#FFFFFF"><defs><style>.cls-1{fill:#FF5938;}</style></defs><path d="M3.59,6.08a.89.89,0,0,1-.88-.88V4.33H1.84a.88.88,0,1,1,0-1.75h.87V1.71a.88.88,0,0,1,1.75,0v.87h.88a.88.88,0,0,1,0,1.75H4.46V5.2A.87.87,0,0,1,3.59,6.08Z"/><path class="cls-1" d="M3.59,1.21a.5.5,0,0,1,.5.5V3H5.34a.5.5,0,0,1,.5.5.5.5,0,0,1-.5.5H4.09V5.2a.5.5,0,0,1-.5.5.5.5,0,0,1-.5-.5V4H1.84a.5.5,0,0,1-.5-.5.51.51,0,0,1,.5-.5H3.09V1.71a.5.5,0,0,1,.5-.5m0-.75A1.25,1.25,0,0,0,2.34,1.71V2.2h-.5a1.25,1.25,0,0,0,0,2.5h.5v.5a1.25,1.25,0,0,0,2.5,0V4.7h.5a1.25,1.25,0,0,0,0-2.5h-.5V1.71A1.25,1.25,0,0,0,3.59.46Z"/></svg>