<svg viewBox="0 0 40 41" fill="currentColor" xmlns="http://www.w3.org/2000/svg">
<g clip-path="url(#clip0_641_7795)">
<path d="M26.2824 40.7297C25.7139 40.7252 25.1502 40.6237 24.6158 40.4297L5.71576 33.6297C4.49149 33.1714 3.4954 32.2518 2.94089 31.068C2.38637 29.8842 2.31752 28.5303 2.74909 27.2963L9.06576 9.74635C9.29069 9.12585 9.63624 8.55602 10.0825 8.06973C10.5287 7.58344 11.0668 7.19031 11.6658 6.91301L24.4324 1.17968C25.6061 0.662969 26.9335 0.616997 28.1402 1.05127C29.3468 1.48554 30.3405 2.36685 30.9158 3.51301L37.0491 16.063C37.3356 16.6596 37.5007 17.3071 37.5351 17.968C37.5694 18.6289 37.4722 19.29 37.2491 19.913L30.9324 37.3963C30.7113 38.023 30.3675 38.5992 29.921 39.0914C29.4746 39.5836 28.9346 39.9819 28.3324 40.263C27.688 40.5565 26.9904 40.7153 26.2824 40.7297ZM26.4658 3.52968C26.1614 3.52444 25.8596 3.58707 25.5824 3.71301L12.8491 9.46301C12.5747 9.58046 12.3278 9.75373 12.1241 9.97181C11.9204 10.1899 11.7643 10.448 11.6658 10.7297L5.36576 28.2463C5.25391 28.5099 5.19627 28.7933 5.19627 29.0797C5.19627 29.366 5.25391 29.6494 5.36576 29.913C5.608 30.4313 6.04536 30.8327 6.58243 31.0297L25.4491 37.8297C25.7236 37.9459 26.0192 38.0037 26.3173 37.9996C26.6153 37.9954 26.9092 37.9293 27.1804 37.8055C27.4515 37.6817 27.6939 37.5029 27.8923 37.2804C28.0906 37.0579 28.2405 36.7965 28.3324 36.513L34.6658 18.963C34.763 18.6929 34.8042 18.4059 34.787 18.1194C34.7699 17.8329 34.6946 17.5529 34.5658 17.2963L28.3324 4.74635C28.1652 4.39005 27.9019 4.08744 27.5721 3.87251C27.2424 3.65759 26.8593 3.53887 26.4658 3.52968Z" fill="currentColor"/>
<path d="M17.4997 21.9296C17.0221 21.9278 16.5485 21.8432 16.0997 21.6796C15.5683 21.5144 15.0758 21.2432 14.6522 20.8822C14.2285 20.5213 13.8824 20.0783 13.6348 19.5798C13.3873 19.0814 13.2433 18.5379 13.2117 17.9823C13.1801 17.4266 13.2615 16.8703 13.451 16.347C13.6405 15.8237 13.9341 15.3443 14.3141 14.9377C14.6941 14.531 15.1526 14.2057 15.6619 13.9813C16.1712 13.7569 16.7207 13.6381 17.2772 13.6321C17.8337 13.6261 18.3857 13.7329 18.8997 13.9463C19.4085 14.1288 19.8762 14.41 20.2758 14.7739C20.6755 15.1378 20.9992 15.5771 21.2285 16.0666C21.4577 16.556 21.5879 17.086 21.6116 17.626C21.6353 18.166 21.5519 18.7053 21.3664 19.2129C21.1873 19.7236 20.9078 20.1931 20.5442 20.5939C20.1807 20.9946 19.7405 21.3185 19.2497 21.5463C18.7003 21.7969 18.1037 21.9276 17.4997 21.9296ZM17.4997 16.4796C17.3034 16.4823 17.11 16.5278 16.9331 16.6129C16.7752 16.6866 16.6336 16.7907 16.5163 16.9195C16.399 17.0482 16.3084 17.199 16.2497 17.3629C16.1173 17.6889 16.1173 18.0537 16.2497 18.3796C16.3233 18.5375 16.4275 18.6791 16.5563 18.7964C16.685 18.9137 16.8357 19.0043 16.9997 19.0629C17.3257 19.1954 17.6905 19.1954 18.0164 19.0629C18.1742 18.9893 18.3159 18.8852 18.4332 18.7564C18.5505 18.6277 18.6411 18.4769 18.6997 18.3129C18.8077 17.9856 18.7846 17.6292 18.6355 17.3185C18.4863 17.0077 18.2226 16.7668 17.8997 16.6463C17.7756 16.5708 17.6407 16.5146 17.4997 16.4796Z" fill="currentColor"/>
<path d="M22.3659 33.2126C21.7053 33.2119 21.0544 33.0521 20.4685 32.7468C19.8826 32.4416 19.3787 31.9998 18.9995 31.4587C18.6203 30.9177 18.3769 30.2934 18.2898 29.6384C18.2027 28.9835 18.2746 28.3172 18.4993 27.6959C18.6645 27.1645 18.9357 26.672 19.2966 26.2484C19.6576 25.8247 20.1006 25.4786 20.5991 25.231C21.0975 24.9835 21.641 24.8395 22.1966 24.8079C22.7523 24.7763 23.3086 24.8577 23.8319 25.0472C24.3552 25.2366 24.8346 25.5303 25.2412 25.9103C25.6479 26.2903 25.9732 26.7488 26.1976 27.2581C26.422 27.7674 26.5408 28.3169 26.5468 28.8734C26.5528 29.4299 26.4459 29.9819 26.2326 30.4959C25.9451 31.291 25.4197 31.9783 24.7279 32.4643C24.0361 32.9504 23.2114 33.2116 22.3659 33.2126ZM22.3659 27.7626C22.1696 27.7653 21.9762 27.8108 21.7993 27.8959C21.6414 27.9695 21.4998 28.0737 21.3825 28.2025C21.2652 28.3312 21.1746 28.4819 21.1159 28.6459C21.0298 28.9687 21.068 29.312 21.223 29.608C21.3779 29.9039 21.6383 30.1309 21.9526 30.2441C22.2669 30.3572 22.6122 30.3483 22.9203 30.219C23.2283 30.0897 23.4766 29.8495 23.6159 29.5459C23.7484 29.22 23.7484 28.8552 23.6159 28.5293C23.4629 28.2137 23.1944 27.969 22.8659 27.8459C22.7056 27.7887 22.5362 27.7604 22.3659 27.7626Z" fill="currentColor"/>
<path d="M13.5834 27.8463C13.2649 27.8471 12.9556 27.7393 12.7066 27.5407C12.4576 27.342 12.2838 27.0644 12.2138 26.7536C12.1439 26.4428 12.1821 26.1175 12.322 25.8313C12.4619 25.5452 12.6952 25.3153 12.9834 25.1796L25.8334 19.1463C25.9985 19.0676 26.1775 19.0224 26.3602 19.0134C26.5428 19.0044 26.7255 19.0316 26.8975 19.0936C27.0695 19.1556 27.2276 19.2511 27.3625 19.3746C27.4974 19.4981 27.6065 19.647 27.6834 19.8129C27.7624 19.9792 27.8078 20.1595 27.8171 20.3434C27.8263 20.5273 27.7992 20.7112 27.7373 20.8846C27.6754 21.058 27.5799 21.2174 27.4562 21.3539C27.3326 21.4903 27.1832 21.601 27.0167 21.6796L14.1667 27.7129C13.984 27.7984 13.7851 27.8439 13.5834 27.8463Z" fill="currentColor"/>
<path d="M26.184 7.79619C26.9296 7.79619 27.534 7.19178 27.534 6.44619C27.534 5.70061 26.9296 5.09619 26.184 5.09619C25.4384 5.09619 24.834 5.70061 24.834 6.44619C24.834 7.19178 25.4384 7.79619 26.184 7.79619Z" fill="currentColor"/>
</g>
<defs>
<clipPath id="clip0_641_7795">
<rect width="40" height="40" fill="white" transform="translate(0 0.729492)"/>
</clipPath>
</defs>
</svg>
