<svg xmlns="http://www.w3.org/2000/svg" width="24" height="24" viewBox="0 0 24 24" fill="none">
  <g clip-path="url(#clip0_3502_1573)">
    <path d="M10.3893 7.00002C10.3762 6.77906 10.4135 6.558 10.4984 6.35357C10.5832 6.14914 10.7135 5.96669 10.8793 5.82002C11.1893 5.54857 11.5873 5.39893 11.9993 5.39893C12.4113 5.39893 12.8093 5.54857 13.1193 5.82002C13.2851 5.96669 13.4153 6.14914 13.5002 6.35357C13.5851 6.558 13.6224 6.77906 13.6093 7.00002C13.6224 7.22098 13.5851 7.44204 13.5002 7.64647C13.4153 7.8509 13.2851 8.03335 13.1193 8.18002C12.8093 8.45147 12.4113 8.60111 11.9993 8.60111C11.5873 8.60111 11.1893 8.45147 10.8793 8.18002C10.7135 8.03335 10.5832 7.8509 10.4984 7.64647C10.4135 7.44204 10.3762 7.22098 10.3893 7.00002ZM10.6093 14.55C10.6093 13.61 10.6093 12.74 10.7193 11.93C10.7193 11.29 10.8393 10.65 10.9193 10C10.9386 9.85152 11.011 9.71503 11.1231 9.61577C11.2353 9.51651 11.3795 9.46118 11.5293 9.46002H12.4293C12.572 9.47041 12.7068 9.52987 12.8107 9.62829C12.9146 9.72672 12.9812 9.85805 12.9993 10C13.0893 10.65 13.1593 11.29 13.2193 11.93C13.2893 12.74 13.3293 13.61 13.3293 14.55V17C13.3293 17.1618 13.265 17.317 13.1506 17.4314C13.0362 17.5458 12.8811 17.61 12.7193 17.61H11.2193C11.0575 17.61 10.9023 17.5458 10.7879 17.4314C10.6736 17.317 10.6093 17.1618 10.6093 17V14.55Z" fill="#FF5938"/>
    <path d="M19.51 24H4.51001C3.91906 24.0013 3.33364 23.8862 2.78717 23.6613C2.2407 23.4364 1.74389 23.106 1.3251 22.6891C0.906306 22.2721 0.573736 21.7768 0.346377 21.2313C0.119018 20.6859 0.0013229 20.101 1.11368e-05 19.51V4.51001C-0.00130354 3.91906 0.113791 3.33364 0.338723 2.78717C0.563656 2.2407 0.894021 1.74389 1.31096 1.3251C1.72789 0.906306 2.22323 0.573736 2.7687 0.346377C3.31416 0.119018 3.89906 0.0013229 4.49001 1.11368e-05H19.49C20.081 -0.00130354 20.6664 0.113791 21.2129 0.338723C21.7593 0.563656 22.2561 0.894021 22.6749 1.31096C23.0937 1.72789 23.4263 2.22323 23.6536 2.7687C23.881 3.31416 23.9987 3.89906 24 4.49001V19.49C24.0013 20.081 23.8862 20.6664 23.6613 21.2129C23.4364 21.7593 23.106 22.2561 22.6891 22.6749C22.2721 23.0937 21.7768 23.4263 21.2313 23.6536C20.6859 23.881 20.101 23.9987 19.51 24ZM4.49001 2.34001C3.9198 2.34001 3.37293 2.56653 2.96973 2.96973C2.56653 3.37293 2.34001 3.9198 2.34001 4.49001V19.49C2.34001 20.0602 2.56653 20.6071 2.96973 21.0103C3.37293 21.4135 3.9198 21.64 4.49001 21.64H19.49C20.0602 21.64 20.6071 21.4135 21.0103 21.0103C21.4135 20.6071 21.64 20.0602 21.64 19.49V4.49001C21.64 3.9198 21.4135 3.37293 21.0103 2.96973C20.6071 2.56653 20.0602 2.34001 19.49 2.34001H4.49001Z" fill="#FF5938"/>
  </g>
  <defs>
    <clipPath id="clip0_3502_1573">
      <rect width="24" height="24" fill="white"/>
    </clipPath>
  </defs>
</svg>