<!--?xml version="1.0" standalone="no"?-->
              <svg id="sw-js-blob-svg" viewBox="0 0 100 100" xmlns="http://www.w3.org/2000/svg" version="1.1" style="width: 80rem; height: 80rem;">
                    <defs> 
                        <linearGradient id="sw-gradient" x1="0" x2="1" y1="1" y2="0">
                            <stop id="stop1" stop-color="rgba(255, 89, 56, 1)" offset="0%"></stop>
                            <stop id="stop2" stop-color="rgba(255, 89, 56, 1)" offset="100%"></stop>
                        </linearGradient>
                    </defs>
                <path fill="url(#sw-gradient)" d="M16.9,-19.4C20.3,-17.2,20.4,-10.4,20,-4.7C19.6,1,18.8,5.7,16,8.1C13.3,10.5,8.6,10.7,4,13.4C-0.6,16.1,-5.1,21.3,-11.6,22.9C-18.1,24.4,-26.5,22.3,-29.3,17.1C-32.2,11.9,-29.4,3.6,-28.7,-5.8C-27.9,-15.2,-29.2,-25.7,-24.7,-27.7C-20.3,-29.8,-10.1,-23.3,-1.7,-21.2C6.7,-19.2,13.4,-21.6,16.9,-19.4Z" width="100%" height="100%" transform="translate(50 50)" stroke-width="0" style="transition: all 0.3s ease 0s;" stroke="url(#sw-gradient)"></path>
              </svg>