<!--?xml version="1.0" standalone="no"?-->
              <svg id="sw-js-blob-svg" viewBox="0 0 100 100" xmlns="http://www.w3.org/2000/svg" version="1.1" style="width: 70rem; height: 70rem;">
                    <defs> 
                        <linearGradient id="sw-gradient" x1="0" x2="1" y1="1" y2="0">
                            <stop id="stop1" stop-color="rgba(127, 194, 150, 1)" offset="0%"></stop>
                            <stop id="stop2" stop-color="rgba(127, 194, 150, 1)" offset="100%"></stop>
                        </linearGradient>
                    </defs>
                <path fill="url(#sw-gradient)" d="M17.9,-29C19.4,-23.5,14.3,-13.2,17.7,-5.2C21.1,2.9,33,8.7,32.7,11C32.5,13.3,20.1,11.9,12.6,15.6C5.1,19.3,2.6,28,-1.6,30.2C-5.8,32.4,-11.7,28.3,-18.6,24.4C-25.4,20.5,-33.4,17,-37.4,10.7C-41.5,4.4,-41.6,-4.6,-36.9,-9.8C-32.2,-15.1,-22.7,-16.5,-15.7,-20.3C-8.7,-24,-4.4,-29.9,1.9,-32.5C8.2,-35.2,16.3,-34.5,17.9,-29Z" width="100%" height="100%" transform="translate(50 50)" stroke-width="0" style="transition: all 0.3s ease 0s;" stroke="url(#sw-gradient)"></path>
              </svg>