<svg width="40" height="41" viewBox="0 0 40 41" fill="currentColor" xmlns="http://www.w3.org/2000/svg">
<g clip-path="url(#clip0_641_7825)">
<path d="M10.5163 40.8131C10.0742 40.8131 9.65033 40.6376 9.33777 40.325C9.0252 40.0124 8.84961 39.5885 8.84961 39.1465V29.7632C8.84961 29.3012 9.03311 28.8582 9.35973 28.5316C9.68636 28.205 10.1294 28.0215 10.5913 28.0215C11.0532 28.0215 11.4962 28.205 11.8228 28.5316C12.1494 28.8582 12.3329 29.3012 12.3329 29.7632V39.0632C12.3459 39.3021 12.3073 39.5411 12.2196 39.7638C12.132 39.9865 11.9974 40.1878 11.825 40.3538C11.6526 40.5198 11.4465 40.6468 11.2207 40.7261C10.9949 40.8053 10.7546 40.835 10.5163 40.8131Z" />
<path d="M23.1491 40.8129C22.7071 40.8129 22.2831 40.6373 21.9706 40.3248C21.658 40.0122 21.4824 39.5883 21.4824 39.1463V24.1963C21.4824 23.7343 21.6659 23.2913 21.9925 22.9647C22.3192 22.6381 22.7622 22.4546 23.2241 22.4546C23.686 22.4546 24.129 22.6381 24.4556 22.9647C24.7823 23.2913 24.9658 23.7343 24.9658 24.1963V39.0629C24.9787 39.3019 24.9401 39.5409 24.8524 39.7636C24.7648 39.9863 24.6302 40.1875 24.4578 40.3536C24.2854 40.5196 24.0793 40.6466 23.8535 40.7259C23.6277 40.8051 23.3874 40.8348 23.1491 40.8129Z" />
<path d="M29.4824 40.8131C29.2566 40.8244 29.0309 40.7896 28.819 40.711C28.6071 40.6323 28.4134 40.5113 28.2497 40.3554C28.086 40.1995 27.9557 40.0119 27.8668 39.8041C27.7779 39.5962 27.7321 39.3725 27.7324 39.1464V16.7798C27.7324 16.3178 27.9159 15.8748 28.2425 15.5482C28.5692 15.2216 29.0122 15.0381 29.4741 15.0381C29.936 15.0381 30.379 15.2216 30.7056 15.5482C31.0323 15.8748 31.2158 16.3178 31.2158 16.7798V39.0631C31.2275 39.2946 31.1909 39.526 31.1082 39.7426C31.0255 39.9591 30.8985 40.156 30.7354 40.3207C30.5723 40.4854 30.3766 40.6142 30.1608 40.699C29.9451 40.7838 29.714 40.8227 29.4824 40.8131Z" />
<path d="M16.8503 40.8131C16.4082 40.8131 15.9843 40.6375 15.6717 40.3249C15.3592 40.0124 15.1836 39.5884 15.1836 39.1464V16.7798C15.1836 16.3178 15.3671 15.8748 15.6937 15.5482C16.0203 15.2216 16.4633 15.0381 16.9253 15.0381C17.3872 15.0381 17.8302 15.2216 18.1568 15.5482C18.4834 15.8748 18.6669 16.3178 18.6669 16.7798V39.0631C18.6799 39.3021 18.6412 39.541 18.5536 39.7638C18.4659 39.9865 18.3314 40.1877 18.159 40.3537C17.9866 40.5198 17.7805 40.6468 17.5547 40.726C17.3288 40.8053 17.0886 40.835 16.8503 40.8131Z" />
<path d="M5.28157 16.9959C4.99271 17.0023 4.70717 16.9334 4.45297 16.796C4.19877 16.6587 3.98463 16.4577 3.83157 16.2126C3.69826 16.0242 3.60552 15.8102 3.55924 15.5841C3.51296 15.358 3.51415 15.1247 3.56272 14.8991C3.61129 14.6735 3.70619 14.4604 3.84141 14.2734C3.97662 14.0864 4.14921 13.9295 4.34824 13.8126L14.3149 7.39594C14.542 7.24871 14.7998 7.15561 15.0686 7.12382C15.3373 7.09203 15.6098 7.12241 15.8649 7.21261L23.5982 10.0959L33.5982 1.22927C33.769 1.07716 33.968 0.96016 34.1839 0.884956C34.3998 0.809751 34.6285 0.777815 34.8567 0.79097C35.085 0.804125 35.3085 0.862114 35.5143 0.961625C35.7202 1.06114 35.9045 1.20022 36.0566 1.37094C36.2087 1.54166 36.3257 1.74067 36.4009 1.9566C36.4761 2.17254 36.508 2.40117 36.4949 2.62945C36.4817 2.85773 36.4237 3.08118 36.3242 3.28704C36.2247 3.49291 36.0856 3.67716 35.9149 3.82927L25.1316 13.3126C24.8998 13.5312 24.6101 13.6788 24.297 13.7379C23.9839 13.797 23.6604 13.7651 23.3649 13.6459L15.4816 10.7293L6.23157 16.7126C5.95097 16.9012 5.61964 17 5.28157 16.9959Z" />
</g>
<defs>
<clipPath id="clip0_641_7825">
<rect width="40" height="40" fill="white" transform="translate(0 0.729492)"/>
</clipPath>
</defs>
</svg>
