<svg xmlns="http://www.w3.org/2000/svg" width="13" height="16" viewBox="0 0 13 16" fill="none">
  <path d="M11.0959 11.7796L7.56097 15.5333C7.42167 15.6812 7.25627 15.7986 7.07422 15.8787C6.89217 15.9588 6.69704 16 6.49998 16C6.30292 16 6.10779 15.9588 5.92575 15.8787C5.7437 15.7986 5.5783 15.6812 5.439 15.5333L1.90405 11.7796C1.30044 11.1389 0.821615 10.3783 0.494917 9.54111C0.16822 8.70396 4.64446e-05 7.8067 9.61865e-09 6.90055C-4.64254e-05 5.99441 0.168035 5.09713 0.494646 4.25994C0.821258 3.42275 1.3 2.66206 1.90355 2.02128C2.5071 1.3805 3.22362 0.8722 4.01222 0.525388C4.80082 0.178576 5.64604 4.92906e-05 6.49963 1.02053e-08C7.35322 -4.92702e-05 8.19846 0.17838 8.98709 0.525101C9.77573 0.871822 10.4923 1.38004 11.0959 2.02075C11.6996 2.66149 12.1784 3.4222 12.5051 4.25941C12.8318 5.09663 13 5.99397 13 6.90018C13 7.80639 12.8318 8.70372 12.5051 9.54094C12.1784 10.3782 11.6996 11.1389 11.0959 11.7796ZM10.0359 3.14706C9.09814 2.15153 7.82622 1.59118 6.49998 1.59118C5.17375 1.59118 3.90183 2.15047 2.96404 3.146C2.02624 4.14153 1.4994 5.49176 1.4994 6.89965C1.4994 8.30754 2.02624 9.65777 2.96404 10.6533L6.49998 14.4059L10.0359 10.6544C10.5004 10.1615 10.8688 9.57628 11.1201 8.93223C11.3715 8.28817 11.5008 7.59785 11.5008 6.90071C11.5008 6.20357 11.3715 5.51325 11.1201 4.86919C10.8688 4.22513 10.5004 3.63995 10.0359 3.14706ZM6.49998 9.02381C6.23365 9.03021 5.96879 8.98005 5.72097 8.87629C5.47315 8.77253 5.24735 8.61725 5.05683 8.41957C4.86632 8.2219 4.71492 7.98581 4.61154 7.72517C4.50815 7.46453 4.45486 7.18459 4.4548 6.90178C4.45473 6.61898 4.50789 6.33901 4.61115 6.07831C4.71441 5.81762 4.86569 5.58145 5.05612 5.38367C5.24654 5.18589 5.47227 5.0305 5.72004 4.9266C5.96782 4.82271 6.23265 4.77241 6.49898 4.77866C7.02154 4.79093 7.5188 5.01988 7.88433 5.41649C8.24986 5.8131 8.45461 6.34586 8.45474 6.90072C8.45487 7.45558 8.25038 7.98845 7.88503 8.38526C7.51969 8.78206 7.02253 9.01127 6.49998 9.02381Z" fill="#454545"/>
</svg>