<svg width="40" height="41" viewBox="0 0 40 41" fill="currentColor" xmlns="http://www.w3.org/2000/svg">
<g clip-path="url(#clip0_641_7835)">
<path d="M36.0335 33.0958C35.015 28.2116 32.2321 23.874 28.2168 20.9125C27.1963 20.1581 26.074 19.552 24.8835 19.1125C23.5077 20.1116 21.8504 20.6485 20.1502 20.6458C18.4055 20.6519 16.7052 20.0968 15.3002 19.0625C14.1163 19.4953 12.9953 20.0838 11.9668 20.8125C7.87614 23.7707 5.04025 28.1524 4.01682 33.0958C3.77141 34.0892 3.75336 35.1252 3.96402 36.1266C4.17468 37.1279 4.60861 38.0688 5.23349 38.8792C5.68116 39.4793 6.2617 39.9677 6.92964 40.306C7.59758 40.6443 8.33478 40.8234 9.08348 40.8292H30.9668C31.7155 40.8234 32.4527 40.6443 33.1207 40.306C33.7886 39.9677 34.3691 39.4793 34.8168 38.8792C35.4417 38.0688 35.8756 37.1279 36.0863 36.1266C36.2969 35.1252 36.2789 34.0892 36.0335 33.0958ZM31.6668 36.3958C31.5875 36.5187 31.4823 36.6226 31.3584 36.7004C31.2346 36.7781 31.0952 36.8278 30.9501 36.8458H9.03348C8.89134 36.8255 8.75524 36.7748 8.63445 36.6971C8.51366 36.6195 8.41101 36.5167 8.33349 36.3958C8.09225 36.0633 7.92442 35.6834 7.84109 35.2811C7.75777 34.8788 7.76086 34.4635 7.85015 34.0625C8.28144 31.8167 9.19663 29.6917 10.5321 27.8352C11.8676 25.9788 13.5913 24.4355 15.5835 23.3125C16.9488 22.5996 18.4603 22.2118 20.0002 22.1792C21.5746 22.1905 23.1235 22.5792 24.5168 23.3125C26.4918 24.4446 28.1972 25.9923 29.5152 27.8484C30.8332 29.7045 31.7322 31.8247 32.1502 34.0625C32.2394 34.4635 32.2425 34.8788 32.1592 35.2811C32.0759 35.6834 31.908 36.0633 31.6668 36.3958Z" />
<path d="M20.116 0.729287C17.3789 0.670143 14.7081 1.57548 12.5711 3.28686C10.4342 4.99824 8.96714 7.40664 8.42678 10.0906C7.88642 12.7745 8.30716 15.5629 9.61536 17.9679C10.9236 20.3729 13.0359 22.2413 15.5827 23.246C17.0154 23.8576 18.5582 24.1696 20.116 24.1626C21.6238 24.1663 23.118 23.8776 24.516 23.3126C25.8936 22.7607 27.1504 21.9455 28.216 20.9126C29.3755 19.8198 30.2968 18.4993 30.922 17.0337C31.5473 15.5682 31.863 13.9892 31.8493 12.396C31.8493 10.8582 31.5454 9.33569 30.9549 7.91586C30.3644 6.49603 29.4991 5.20694 28.4087 4.12271C27.3183 3.03849 26.0243 2.18052 24.6011 1.59815C23.1779 1.01578 21.6537 0.7205 20.116 0.729287ZM24.8493 19.0626C23.4736 20.0618 21.8163 20.5986 20.116 20.596C18.1505 20.6084 16.2455 19.9173 14.7452 18.6476C13.2448 17.3779 12.2482 15.6133 11.9355 13.6729C11.6227 11.7324 12.0145 9.74412 13.0399 8.06733C14.0653 6.39054 15.6568 5.13589 17.5266 4.53018C19.3964 3.92446 21.4213 4.00763 23.2351 4.76466C25.0489 5.52169 26.5321 6.90263 27.4166 8.65788C28.301 10.4131 28.5284 12.4269 28.0575 14.3351C27.5867 16.2434 26.4487 17.9202 24.8493 19.0626Z" />
</g>
<defs>
<clipPath id="clip0_641_7835">
<rect width="40" height="40" fill="white" transform="translate(0 0.729492)"/>
</clipPath>
</defs>
</svg>
