<svg xmlns="http://www.w3.org/2000/svg" width="24" height="24" viewBox="0 0 24 24" fill="none">
  <path d="M11.6402 23.8899C11.515 23.8849 11.392 23.8548 11.2786 23.8015C11.1651 23.7482 11.0634 23.6727 10.9796 23.5795C10.8957 23.4864 10.8313 23.3773 10.7902 23.2589C10.7491 23.1405 10.7321 23.015 10.7402 22.8899V1.83994C10.7402 1.60125 10.8351 1.37233 11.0039 1.20355C11.1726 1.03476 11.4016 0.939941 11.6402 0.939941C11.8789 0.939941 12.1079 1.03476 12.2766 1.20355C12.4454 1.37233 12.5402 1.60125 12.5402 1.83994V22.8999C12.547 23.0242 12.5289 23.1486 12.4872 23.2659C12.4455 23.3831 12.3809 23.4909 12.2972 23.583C12.2134 23.6751 12.1123 23.7497 11.9995 23.8024C11.8867 23.8551 11.7646 23.8848 11.6402 23.8899Z" fill="#454545"/>
  <path d="M19.34 23.8898H3.94004C3.70134 23.8898 3.47243 23.795 3.30364 23.6262C3.13486 23.4575 3.04004 23.2285 3.04004 22.9898C3.04004 22.7511 3.13486 22.5222 3.30364 22.3534C3.47243 22.1847 3.70134 22.0898 3.94004 22.0898H19.34C19.5787 22.0898 19.8077 22.1847 19.9764 22.3534C20.1452 22.5222 20.24 22.7511 20.24 22.9898C20.24 23.2285 20.1452 23.4575 19.9764 23.6262C19.8077 23.795 19.5787 23.8898 19.34 23.8898Z" fill="#454545"/>
  <path d="M3.82994 5.62008C3.60231 5.62169 3.38251 5.53698 3.21484 5.383C3.04717 5.22903 2.94408 5.01723 2.92633 4.79028C2.90858 4.56333 2.97749 4.33808 3.11918 4.15991C3.26088 3.98174 3.46482 3.86389 3.68994 3.83008L19.3099 1.41008C19.4268 1.39235 19.546 1.39782 19.6608 1.42617C19.7756 1.45452 19.8836 1.50519 19.9788 1.5753C20.074 1.64541 20.1544 1.73358 20.2155 1.83477C20.2766 1.93597 20.3172 2.04821 20.3349 2.16508C20.3527 2.28196 20.3472 2.40118 20.3189 2.51595C20.2905 2.63071 20.2398 2.73877 20.1697 2.83395C20.0996 2.92913 20.0115 3.00957 19.9103 3.07067C19.8091 3.13178 19.6968 3.17235 19.5799 3.19008L3.99994 5.61008L3.82994 5.62008Z" fill="#454545"/>
  <path d="M18.4304 13.6699C17.4975 13.7285 16.5719 13.4727 15.8015 12.9433C15.0311 12.414 14.4603 11.6417 14.1804 10.7499C14.1317 10.4966 14.1387 10.2357 14.2009 9.98532C14.263 9.73495 14.3789 9.50109 14.5404 9.29992L17.9004 4.68992C17.9614 4.60658 18.0412 4.53873 18.1332 4.49183C18.2253 4.44494 18.3271 4.42031 18.4304 4.41992C18.5337 4.42031 18.6355 4.44494 18.7275 4.49183C18.8196 4.53873 18.8993 4.60658 18.9604 4.68992L22.3004 9.26992C22.4895 9.52665 22.6145 9.82488 22.665 10.1397C22.7154 10.4546 22.6898 10.777 22.5904 11.0799C22.2444 11.8847 21.6603 12.5643 20.9166 13.0273C20.1729 13.4904 19.3053 13.7146 18.4304 13.6699ZM18.4304 6.16992L15.6004 10.0599C15.4989 10.1718 15.4451 10.3189 15.4504 10.4699C15.6735 11.0714 16.0878 11.583 16.6297 11.9262C17.1717 12.2694 17.8113 12.4253 18.4504 12.3699C19.0543 12.4139 19.6573 12.2741 20.1803 11.9689C20.7033 11.6636 21.1216 11.2073 21.3804 10.6599C21.4142 10.5555 21.4219 10.4443 21.4028 10.3362C21.3836 10.2281 21.3381 10.1263 21.2704 10.0399L18.4304 6.16992Z" fill="#454545"/>
  <path d="M4.86028 16.2298C3.92578 16.2896 2.99836 16.033 2.22741 15.5015C1.45645 14.97 0.886831 14.1945 0.610284 13.2998C0.569051 13.0443 0.582492 12.7829 0.64972 12.533C0.716947 12.283 0.836432 12.0502 1.00028 11.8498L4.34028 7.23983C4.40237 7.16219 4.48168 7.10008 4.57194 7.05842C4.6622 7.01676 4.76092 6.9967 4.86028 6.99983C4.96301 6.99744 5.0648 7.01982 5.15705 7.06507C5.2493 7.11033 5.3293 7.17713 5.39028 7.25983L8.73028 11.8498C8.91656 12.1022 9.03851 12.3963 9.08555 12.7064C9.1326 13.0166 9.10333 13.3335 9.00028 13.6298C8.65821 14.4341 8.07813 15.1143 7.33803 15.5791C6.59792 16.0439 5.73327 16.271 4.86028 16.2298ZM4.86028 8.72983L2.00028 12.6198C1.89939 12.7281 1.84546 12.8719 1.85028 13.0198C2.07197 13.6222 2.48598 14.1348 3.02827 14.4783C3.57057 14.8217 4.21092 14.9769 4.85028 14.9198C5.45419 14.9638 6.05725 14.824 6.58021 14.5188C7.10316 14.2136 7.52152 13.7572 7.78028 13.2098C7.81416 13.1054 7.82184 12.9942 7.80266 12.8861C7.78348 12.778 7.73802 12.6762 7.67028 12.5898L4.86028 8.72983Z" fill="#454545"/>
</svg>