<svg xmlns="http://www.w3.org/2000/svg" width="24" height="25" viewBox="0 0 24 25" fill="none">
  <path d="M24 1.62305V6.62305C24 6.88826 23.8946 7.14262 23.7071 7.33015C23.5196 7.51769 23.2652 7.62305 23 7.62305C22.7348 7.62305 22.4804 7.51769 22.2929 7.33015C22.1054 7.14262 22 6.88826 22 6.62305V2.62305H18C17.7348 2.62305 17.4804 2.51769 17.2929 2.33015C17.1054 2.14262 17 1.88826 17 1.62305C17 1.35783 17.1054 1.10348 17.2929 0.91594C17.4804 0.728404 17.7348 0.623047 18 0.623047H23C23.2652 0.623047 23.5196 0.728404 23.7071 0.91594C23.8946 1.10348 24 1.35783 24 1.62305ZM6 22.623H2V18.623C2 18.3578 1.89464 18.1035 1.70711 17.9159C1.51957 17.7284 1.26522 17.623 1 17.623C0.734784 17.623 0.48043 17.7284 0.292893 17.9159C0.105357 18.1035 0 18.3578 0 18.623V23.623C0 23.8883 0.105357 24.1426 0.292893 24.3302C0.48043 24.5177 0.734784 24.623 1 24.623H6C6.26522 24.623 6.51957 24.5177 6.70711 24.3302C6.89464 24.1426 7 23.8883 7 23.623C7 23.3578 6.89464 23.1035 6.70711 22.9159C6.51957 22.7284 6.26522 22.623 6 22.623ZM23 17.623C22.7348 17.623 22.4804 17.7284 22.2929 17.9159C22.1054 18.1035 22 18.3578 22 18.623V22.623H18C17.7348 22.623 17.4804 22.7284 17.2929 22.9159C17.1054 23.1035 17 23.3578 17 23.623C17 23.8883 17.1054 24.1426 17.2929 24.3302C17.4804 24.5177 17.7348 24.623 18 24.623H23C23.2652 24.623 23.5196 24.5177 23.7071 24.3302C23.8946 24.1426 24 23.8883 24 23.623V18.623C24 18.3578 23.8946 18.1035 23.7071 17.9159C23.5196 17.7284 23.2652 17.623 23 17.623ZM1 7.62305C1.26522 7.62305 1.51957 7.51769 1.70711 7.33015C1.89464 7.14262 2 6.88826 2 6.62305V2.62305H6C6.26522 2.62305 6.51957 2.51769 6.70711 2.33015C6.89464 2.14262 7 1.88826 7 1.62305C7 1.35783 6.89464 1.10348 6.70711 0.91594C6.51957 0.728404 6.26522 0.623047 6 0.623047H1C0.734784 0.623047 0.48043 0.728404 0.292893 0.91594C0.105357 1.10348 0 1.35783 0 1.62305V6.62305C0 6.88826 0.105357 7.14262 0.292893 7.33015C0.48043 7.51769 0.734784 7.62305 1 7.62305ZM17 19.623H7C6.46957 19.623 5.96086 19.4123 5.58579 19.0373C5.21071 18.6622 5 18.1535 5 17.623V7.62305C5 7.09261 5.21071 6.58391 5.58579 6.20883C5.96086 5.83376 6.46957 5.62305 7 5.62305H17C17.5304 5.62305 18.0391 5.83376 18.4142 6.20883C18.7893 6.58391 19 7.09261 19 7.62305V17.623C19 18.1535 18.7893 18.6622 18.4142 19.0373C18.0391 19.4123 17.5304 19.623 17 19.623ZM7 17.623H17V7.62305H7V17.623Z" fill="black"/>
</svg>