<svg xmlns="http://www.w3.org/2000/svg" width="49" height="49" viewBox="0 0 49 49" fill="none">
  <path d="M23.4247 22.5862C23.8797 22.5862 24.3347 22.6492 24.7757 22.7682C25.2237 22.8872 25.5807 23.0342 25.8608 23.2162V31.2805C25.6437 31.3225 25.3637 31.3575 25.0277 31.3855C24.6917 31.4136 24.3207 31.4275 23.9287 31.4275C22.7176 31.4275 21.8076 31.0146 21.1916 30.1815C20.5756 29.3485 20.2675 28.2494 20.2675 26.8774C20.2675 24.0213 21.3176 22.5932 23.4177 22.5932L23.4247 22.5862ZM47.1976 27.8854L27.8838 47.1992C25.4827 49.6003 21.5906 49.6003 19.1895 47.1992L1.80082 29.8105C-0.600273 27.4094 -0.600273 23.5173 1.80082 21.1162L21.1146 1.80239C22.6196 0.297335 24.7967 -0.325665 26.8688 0.164354L40.9463 3.47547C43.2144 4.00749 44.9925 5.78554 45.5245 8.05363L48.8356 22.1312C49.3257 24.2033 48.7026 26.3804 47.1976 27.8854ZM39.0633 7.48661C38.3842 8.16564 38.3842 9.26468 39.0633 9.93671C39.7423 10.6157 40.8413 10.6157 41.5134 9.93671C42.1854 9.25768 42.1924 8.15864 41.5134 7.48661C40.8343 6.80758 39.7353 6.80758 39.0633 7.48661ZM30.2919 34.3046V11.7288L25.8608 12.4428V19.5201C25.3637 19.3031 24.8737 19.1351 24.3907 19.0161C23.9077 18.8971 23.3547 18.8341 22.7386 18.8341C21.6256 18.8341 20.6386 19.0231 19.7775 19.4011C18.9165 19.7791 18.1885 20.3251 17.5934 21.0392C16.9984 21.7532 16.5434 22.6212 16.2284 23.6432C15.9134 24.6653 15.7524 25.8133 15.7524 27.0804C15.7524 28.3264 15.9344 29.4535 16.3054 30.4545C16.6694 31.4555 17.2014 32.3096 17.8944 33.0096C18.5875 33.7166 19.4415 34.2557 20.4495 34.6337C21.4646 35.0117 22.6126 35.2007 23.9007 35.2007C24.4327 35.2007 24.9927 35.1727 25.5807 35.1237C26.1688 35.0747 26.7428 35.0117 27.3098 34.9277C27.8768 34.8507 28.4159 34.7527 28.9339 34.6477C29.4519 34.5357 29.9069 34.4237 30.2989 34.3046H30.2919Z" fill="#FF5938"/>
</svg>