<svg xmlns="http://www.w3.org/2000/svg" width="22" height="22" viewBox="0 0 22 22" fill="none">
  <path d="M19.9796 9.6672L15.8546 13.7922C15.6609 13.9859 15.3981 14.0948 15.1241 14.0948C14.8502 14.0948 14.5874 13.9859 14.3937 13.7922C14.1999 13.5985 14.0911 13.3357 14.0911 13.0617C14.0911 12.7878 14.1999 12.525 14.3937 12.3313L16.7578 9.96884H14.1797C12.5789 9.96832 11.0234 10.4999 9.7577 11.4799C8.49202 12.46 7.588 13.833 7.18781 15.3829C7.15396 15.514 7.0946 15.6372 7.01314 15.7454C6.93167 15.8536 6.8297 15.9447 6.71303 16.0135C6.59636 16.0823 6.46729 16.1274 6.33318 16.1463C6.19906 16.1652 6.06254 16.1575 5.93141 16.1237C5.80027 16.0898 5.67708 16.0305 5.56889 15.949C5.46069 15.8675 5.36959 15.7656 5.30081 15.6489C5.23202 15.5322 5.18688 15.4032 5.16798 15.269C5.14907 15.1349 5.15677 14.9984 5.19062 14.8673C5.70433 12.8741 6.86636 11.1085 8.49374 9.84826C10.1211 8.58805 12.1214 7.90489 14.1797 7.90634H16.7578L14.3954 5.54134C14.2017 5.34761 14.0928 5.08485 14.0928 4.81087C14.0928 4.53689 14.2017 4.27413 14.3954 4.0804C14.5891 3.88667 14.8519 3.77783 15.1259 3.77783C15.3998 3.77783 15.6626 3.88667 15.8563 4.0804L19.9813 8.2054C20.0775 8.30134 20.1537 8.41532 20.2057 8.54081C20.2577 8.66631 20.2844 8.80083 20.2842 8.93666C20.2841 9.07249 20.2571 9.20695 20.2048 9.33232C20.1525 9.45768 20.076 9.57149 19.9796 9.6672ZM16.5 17.5313H3.78125V7.56259C3.78125 7.28908 3.6726 7.02678 3.4792 6.83339C3.28581 6.63999 3.0235 6.53134 2.75 6.53134C2.4765 6.53134 2.21419 6.63999 2.0208 6.83339C1.8274 7.02678 1.71875 7.28908 1.71875 7.56259V17.8751C1.71875 18.3309 1.89983 18.7681 2.22216 19.0904C2.54449 19.4128 2.98166 19.5938 3.4375 19.5938H16.5C16.7735 19.5938 17.0358 19.4852 17.2292 19.2918C17.4226 19.0984 17.5312 18.8361 17.5312 18.5626C17.5312 18.2891 17.4226 18.0268 17.2292 17.8334C17.0358 17.64 16.7735 17.5313 16.5 17.5313Z" fill="#FEFEFE"/>
</svg>