<svg width="24" height="24" viewBox="0 0 24 24" fill="none" xmlns="http://www.w3.org/2000/svg">
<g clip-path="url(#clip0_2775_20253)">
<path d="M15.2701 0.389848C15.1401 0.289848 14.9801 0.219848 14.8101 0.199848C14.6401 0.179848 14.4701 0.209848 14.3201 0.289848C14.1701 0.359848 14.0401 0.479848 13.9501 0.619848C13.8601 0.759848 13.8101 0.929848 13.8101 1.09985V4.70985C12.7701 4.74985 11.7401 4.95985 10.7701 5.32985C9.26012 5.89985 7.94012 6.88985 6.97012 8.17985C5.84012 9.67985 5.01012 11.7498 4.75012 14.5998C4.73012 14.7898 4.77012 14.9698 4.87012 15.1298C4.96012 15.2898 5.10012 15.4198 5.27012 15.4998C5.44012 15.5798 5.63012 15.5998 5.81012 15.5698C5.99012 15.5398 6.16012 15.4498 6.29012 15.3198C8.44012 13.1598 10.5801 12.0998 12.1601 11.5798C12.8101 11.3598 13.3701 11.2398 13.8001 11.1598V14.6798C13.8001 14.8498 13.8501 15.0298 13.9501 15.1698C14.0401 15.3198 14.1801 15.4298 14.3401 15.4998C14.5001 15.5698 14.6801 15.5998 14.8501 15.5698C15.0201 15.5398 15.1801 15.4698 15.3101 15.3498L23.4601 8.09985C23.5601 8.00985 23.6401 7.89985 23.6901 7.77985C23.7401 7.65985 23.7701 7.52985 23.7601 7.38985C23.7501 7.24985 23.7201 7.12985 23.6601 7.00985C23.6001 6.88985 23.5101 6.78985 23.4101 6.70985L15.2701 0.389848ZM14.6101 6.53985C14.7401 6.54985 14.8601 6.53985 14.9801 6.49985C15.1001 6.45985 15.2101 6.39985 15.3101 6.30985C15.4001 6.22985 15.4801 6.11985 15.5301 6.00985C15.5801 5.88985 15.6101 5.76985 15.6101 5.63985V2.95985L21.4401 7.49985L15.6101 12.6798V10.1698C15.6101 9.92985 15.5101 9.69985 15.3401 9.52985C15.1701 9.35985 14.9401 9.25985 14.7001 9.25985H14.6201C14.3401 9.26985 14.0701 9.29985 13.7901 9.33985C13.2501 9.41985 12.4901 9.56985 11.5801 9.86985C9.92012 10.4298 8.36012 11.2698 6.97012 12.3298C7.32012 11.0298 7.83012 10.0398 8.41012 9.27985C9.17012 8.25985 10.2101 7.47985 11.4101 7.02985C12.3601 6.66985 13.3701 6.49985 14.3801 6.51985C14.4601 6.51985 14.5201 6.51985 14.5601 6.51985H14.6001L14.6101 6.53985Z" fill="white"/>
<path d="M19.0597 23.5H3.10973C1.65973 23.5 0.469727 22.32 0.469727 20.86V4.91002C0.469727 3.46002 1.64973 2.27002 3.10973 2.27002H7.09973C7.59973 2.27002 7.99973 2.67002 7.99973 3.17002C7.99973 3.67002 7.59973 4.07002 7.09973 4.07002H3.10973C2.64973 4.07002 2.27973 4.45002 2.27973 4.91002V20.86C2.27973 21.32 2.64973 21.69 3.10973 21.69H19.0597C19.5197 21.69 19.8897 21.32 19.8897 20.86V17.04C19.8897 16.54 20.2897 16.14 20.7897 16.14C21.2897 16.14 21.6897 16.54 21.6897 17.04V20.86C21.6897 22.31 20.5097 23.5 19.0497 23.5H19.0597Z" fill="white"/>
</g>
<defs>
<clipPath id="clip0_2775_20253">
<rect width="24" height="24" fill="white"/>
</clipPath>
</defs>
</svg>
