<svg xmlns="http://www.w3.org/2000/svg" width="52" height="47" viewBox="0 0 52 47" fill="none">
  <g clip-path="url(#clip0_2343_7187)">
    <path d="M33.8416 29.1206C33.6082 28.5358 33.3312 27.9666 33.0128 27.4169C31.5663 24.6416 29.3713 22.2546 26.6378 20.4844C26.109 20.121 25.5473 19.7999 24.9591 19.5248C24.3253 19.2023 23.6644 18.9272 22.9828 18.7023C21.5567 19.6027 19.8665 20.0809 18.1378 20.0731C16.3912 20.0521 14.6904 19.5546 13.2503 18.6436C12.5114 18.8365 11.7985 19.1058 11.1253 19.4465C10.5268 19.7003 9.95728 20.0086 9.42532 20.3669C5.04812 23.2611 2.01356 27.5678 0.925324 32.4302C0.676781 33.38 0.662295 34.3691 0.882932 35.3248C1.10357 36.2804 1.55372 37.1784 2.20032 37.9527C2.65558 38.5197 3.24783 38.9813 3.93017 39.3008C4.61252 39.6203 5.36621 39.789 6.13157 39.7936H29.7616H30.3991C30.9973 39.7318 31.5757 39.5585 32.0991 39.2844L32.4816 37.2086C32.5265 36.9743 32.5073 36.7334 32.4256 36.5077C32.344 36.282 32.2025 36.0786 32.0141 35.9161L31.1216 35.0936C31.0409 35.3516 30.9034 35.5915 30.7178 35.7986C30.5782 35.997 30.3788 36.1535 30.1441 36.249C30.0286 36.3129 29.8963 36.3468 29.7616 36.3469H6.21657C6.02182 36.3305 5.83392 36.2725 5.66788 36.1772C5.50184 36.082 5.36227 35.9523 5.26032 35.7986C4.98045 35.441 4.78963 35.031 4.70148 34.5977C4.61332 34.1644 4.63 33.7186 4.75032 33.2919C5.19061 31.0541 6.1543 28.9314 7.57444 27.0714C8.99459 25.2114 10.8371 23.6587 12.9741 22.5211C13.8813 22.0683 14.8547 21.7386 15.8641 21.5419C16.5618 21.399 17.2743 21.3268 17.9891 21.3265C18.7047 21.3321 19.4174 21.4109 20.1141 21.5615C21.1163 21.7787 22.0815 22.1213 22.9828 22.5798C25.8445 24.0467 28.1228 26.3178 29.4853 29.0619C29.7382 29.5074 29.9652 29.965 30.1653 30.4327C30.3707 30.8933 30.5481 31.364 30.6966 31.8427L33.4166 31.4706C33.7944 31.4203 34.1368 31.238 34.3728 30.9615C34.2402 30.3377 34.0627 29.7227 33.8416 29.1206Z" fill="#181818"/>
    <path d="M18.116 2.11506C15.9118 2.07402 13.7483 2.66588 11.9254 3.80862C10.1025 4.95137 8.7105 6.58839 7.94227 8.4928C7.17405 10.3972 7.06769 12.4747 7.63792 14.4373C8.20814 16.3999 9.42673 18.1505 11.1248 19.4463C12.4818 20.5097 14.1143 21.2316 15.8635 21.5417C16.56 21.6934 17.2729 21.7723 17.9885 21.7767C18.7033 21.7775 19.416 21.7053 20.1135 21.5613C21.8828 21.3063 23.5472 20.6238 24.9373 19.5834C26.683 18.3105 27.9509 16.5644 28.5618 14.5917C29.1728 12.619 29.0959 10.5192 28.3422 8.58893C27.5884 6.65862 26.1958 4.99524 24.3609 3.83364C22.526 2.67204 20.3416 2.07089 18.116 2.11506ZM22.961 18.6826C21.5349 19.5829 19.8447 20.0611 18.116 20.0534C15.9934 20.0674 13.9363 19.377 12.3204 18.1085C10.7046 16.84 9.63798 15.078 9.31551 13.1446C8.99303 11.2111 9.43623 9.23531 10.5641 7.57815C11.692 5.921 13.4292 4.69317 15.4584 4.11905C17.4875 3.54492 19.6731 3.66283 21.6157 4.45123C23.5583 5.23963 25.1283 6.64587 26.0386 8.41299C26.949 10.1801 27.139 12.1901 26.5739 14.0757C26.0088 15.9612 24.7264 17.5965 22.961 18.6826Z" fill="#181818"/>
    <path d="M18.1165 0.352539C15.6065 0.3696 13.1595 1.07944 11.0915 2.39048C9.02341 3.70151 7.4291 5.55358 6.51424 7.70771C5.59938 9.86185 5.40595 12.2192 5.95893 14.4756C6.5119 16.732 7.78589 18.784 9.61652 20.3667C10.6291 21.2618 11.8006 21.9904 13.0803 22.5209C14.6693 23.1594 16.383 23.4926 18.1165 23.5C19.8471 23.5049 21.5606 23.1851 23.1528 22.56C24.4252 22.0155 25.6003 21.2957 26.6378 20.4255C28.4815 18.8413 29.7663 16.7833 30.3257 14.5182C30.885 12.2531 30.693 9.88531 29.7746 7.72194C28.8562 5.55857 27.2538 3.69935 25.1751 2.38534C23.0964 1.07132 20.6372 0.363115 18.1165 0.352539ZM22.9615 18.6825C21.5354 19.5829 19.8452 20.0611 18.1165 20.0534C15.9939 20.0673 13.9368 19.377 12.3209 18.1085C10.7051 16.84 9.63848 15.078 9.316 13.1446C8.99353 11.2111 9.43673 9.23528 10.5646 7.57813C11.6925 5.92097 13.4297 4.69315 15.4589 4.11902C17.488 3.5449 19.6736 3.66281 21.6162 4.45121C23.5588 5.23961 25.1287 6.64585 26.0391 8.41297C26.9495 10.1801 27.1395 12.1901 26.5744 14.0756C26.0093 15.9612 24.7269 17.5964 22.9615 18.6825Z" fill="#181818"/>
    <path d="M49.9277 31.3334L41.1727 30.1388L37.2627 22.7363L33.8414 29.1205L33.3527 30.0409L30.2502 30.4522L24.5127 31.2355L30.2502 36.2097L31.0364 36.9147L30.5052 39.7542L29.4214 45.0417L37.2627 41.1251L45.1252 45.0417L43.6377 37.0126L49.9277 31.3334ZM37.9852 39.9697C37.764 39.8586 37.5144 39.8045 37.2627 39.813C37.0044 39.8065 36.7485 39.8604 36.5189 39.9697L31.5252 42.2805L32.0989 39.1667L32.4814 37.2084C32.5264 36.9741 32.5071 36.7332 32.4255 36.5075C32.3439 36.2818 32.2024 36.0785 32.0139 35.9159L31.1214 35.0934L27.9764 32.2734L30.8664 31.9013L33.5864 31.5292C33.9643 31.4789 34.3067 31.2966 34.5427 31.0201C34.6363 30.9537 34.7096 30.8659 34.7552 30.7655L37.2627 26.1047L39.7702 30.7655C39.8817 30.9754 40.0458 31.1577 40.2491 31.2973C40.4524 31.437 40.6889 31.5299 40.9389 31.5684L46.5277 32.3126L42.5114 35.9551C42.323 36.1177 42.1815 36.321 42.0999 36.5467C42.0182 36.7724 41.999 37.0133 42.0439 37.2476L43.0002 42.2805L37.9852 39.9697Z" fill="#181818"/>
    <path d="M51.5003 30.7655C51.4058 30.5101 51.2369 30.2837 51.012 30.1109C50.7871 29.9382 50.5149 29.8259 50.2253 29.7864L42.299 28.7289L38.7503 22.0901C38.6033 21.8629 38.3948 21.6747 38.1452 21.5441C37.8957 21.4134 37.6136 21.3447 37.3265 21.3447C37.0395 21.3447 36.7574 21.4134 36.5078 21.5441C36.2582 21.6747 36.0497 21.8629 35.9028 22.0901L33.0128 27.4168L32.2903 28.7485L29.6553 29.101L24.364 29.806C24.0736 29.8434 23.8002 29.9549 23.5749 30.1279C23.3496 30.3009 23.1813 30.5286 23.089 30.7851C23.0033 31.0436 22.9956 31.3187 23.0668 31.5809C23.1379 31.8431 23.2852 32.0825 23.4928 32.2734L27.9765 36.3272L29.2303 37.4435L28.8053 39.813L27.8915 44.7285C27.8305 45.004 27.859 45.2899 27.9735 45.5506C28.088 45.8112 28.2833 46.035 28.5351 46.1938C28.7868 46.3527 29.0838 46.4396 29.3889 46.4437C29.694 46.4477 29.9936 46.3688 30.2503 46.2168L37.3478 42.7897L44.4453 46.2168C44.703 46.339 44.9924 46.3931 45.2814 46.3733C45.5704 46.3535 45.8479 46.2604 46.0831 46.1044C46.3184 45.9484 46.5023 45.7355 46.6145 45.4892C46.7267 45.243 46.7629 44.9729 46.719 44.7089L45.3803 37.4239L51.1178 32.2539C51.3217 32.0609 51.465 31.8206 51.5323 31.5584C51.5997 31.2963 51.5886 31.0223 51.5003 30.7655ZM42.5753 35.8768C42.3868 36.0394 42.2453 36.2427 42.1637 36.4684C42.0821 36.6941 42.0628 36.935 42.1078 37.1693L43.0003 42.2805L38.0065 39.8718C37.7853 39.7607 37.5357 39.7066 37.284 39.7151C37.0257 39.7086 36.7698 39.7625 36.5403 39.8718L31.5253 42.2805L32.099 39.1668L32.4815 37.2085C32.5264 36.9742 32.5072 36.7333 32.4256 36.5076C32.3439 36.2819 32.2025 36.0785 32.014 35.916L31.1215 35.0935L27.9765 32.2734L30.8665 31.9014L33.5865 31.5293C33.9644 31.4789 34.3067 31.2966 34.5428 31.0201C34.6364 30.9537 34.7096 30.866 34.7553 30.7655L37.2628 26.1047L39.7703 30.7655C39.8817 30.9754 40.0459 31.1577 40.2492 31.2974C40.4525 31.437 40.689 31.5299 40.939 31.5685L46.5278 32.3126L42.5753 35.8768Z" fill="#181818"/>
  </g>
  <defs>
    <clipPath id="clip0_2343_7187">
      <rect width="51" height="47" fill="white" transform="translate(0.5)"/>
    </clipPath>
  </defs>
</svg>