<svg width="44" height="44" viewBox="0 0 44 44" fill="none" xmlns="http://www.w3.org/2000/svg">
<path d="M12.9934 22C13.0224 22.4185 12.9554 22.8382 12.7974 23.2264C12.6395 23.6146 12.3949 23.9609 12.0826 24.2385C11.5006 24.7304 10.7652 25 10.0056 25C9.24596 25 8.51059 24.7304 7.92856 24.2385C7.61295 23.9631 7.36531 23.6175 7.2053 23.2289C7.04528 22.8404 6.97727 22.4196 7.00667 22C6.97727 21.5804 7.04528 21.1596 7.2053 20.7711C7.36531 20.3825 7.61295 20.0369 7.92856 19.7615C8.51059 19.2696 9.24596 19 10.0056 19C10.7652 19 11.5006 19.2696 12.0826 19.7615C12.3949 20.0391 12.6395 20.3854 12.7974 20.7736C12.9554 21.1618 13.0224 21.5815 12.9934 22Z" fill="currentColor"/>
<path d="M24.9944 22C25.0212 22.4194 24.9521 22.8393 24.7925 23.2274C24.6329 23.6156 24.387 23.9615 24.0739 24.2385C23.4927 24.7304 22.7585 25 22 25C21.2415 25 20.5073 24.7304 19.9261 24.2385C19.613 23.9615 19.3671 23.6156 19.2075 23.2274C19.0479 22.8393 18.9788 22.4194 19.0056 22C18.9788 21.5806 19.0479 21.1607 19.2075 20.7726C19.3671 20.3844 19.613 20.0385 19.9261 19.7615C20.5073 19.2696 21.2415 19 22 19C22.7585 19 23.4927 19.2696 24.0739 19.7615C24.387 20.0385 24.6329 20.3844 24.7925 20.7726C24.9521 21.1607 25.0212 21.5806 24.9944 22Z" fill="currentColor"/>
<path d="M35.9944 22C36.0212 22.4194 35.952 22.8393 35.7921 23.2274C35.6322 23.6156 35.386 23.9615 35.0723 24.2385C34.4902 24.7304 33.7547 25 32.9949 25C32.2352 25 31.4997 24.7304 30.9175 24.2385C30.6052 23.9609 30.3606 23.6146 30.2026 23.2264C30.0446 22.8382 29.9776 22.4185 30.0066 22C29.9776 21.5815 30.0446 21.1618 30.2026 20.7736C30.3606 20.3854 30.6052 20.0391 30.9175 19.7615C31.4997 19.2696 32.2352 19 32.9949 19C33.7547 19 34.4902 19.2696 35.0723 19.7615C35.386 20.0385 35.6322 20.3844 35.7921 20.7726C35.952 21.1607 36.0212 21.5806 35.9944 22Z" fill="currentColor"/>
</svg>
