<svg xmlns="http://www.w3.org/2000/svg" width="16" height="16" viewBox="0 0 16 16" fill="none">
  <path d="M3.28571 0C2.73343 0 2.28571 0.447715 2.28571 1V12.7143C2.28571 13.2666 2.73343 13.7143 3.28571 13.7143H15C15.5523 13.7143 16 13.2666 16 12.7143V1C16 0.447715 15.5523 0 15 0H3.28571ZM14.8571 11.5714C14.8571 12.1237 14.4094 12.5714 13.8571 12.5714H4.42857C3.87629 12.5714 3.42857 12.1237 3.42857 11.5714V2.14286C3.42857 1.59057 3.87629 1.14286 4.42857 1.14286H13.8571C14.4094 1.14286 14.8571 1.59057 14.8571 2.14286V11.5714ZM2.14286 14.8571C1.59057 14.8571 1.14286 14.4094 1.14286 13.8571V3.09384C1.14286 2.94228 1.08265 2.79694 0.97549 2.68978C0.61551 2.3298 0 2.58475 0 3.09384V15C0 15.5523 0.447715 16 1 16H12.9062C13.4153 16 13.6702 15.3845 13.3102 15.0245C13.2031 14.9173 13.0577 14.8571 12.9062 14.8571H2.14286Z" fill="#454545"/>
  <path d="M7.28571 5L8.71429 6.42857L7 8.14286L7.85714 9L9.57143 7.28571L11 8.71429V5H7.28571Z" fill="#454545" stroke="#454545" stroke-linejoin="round"/>
</svg>