<svg xmlns="http://www.w3.org/2000/svg" width="24" height="24" viewBox="0 0 24 24" fill="none">
  <g clip-path="url(#clip0_1093_36496)">
    <path d="M13.6093 17.0006C13.6224 17.2216 13.5851 17.4426 13.5002 17.6471C13.4153 17.8515 13.2851 18.034 13.1193 18.1806C12.8093 18.4521 12.4113 18.6017 11.9993 18.6017C11.5873 18.6017 11.1893 18.4521 10.8793 18.1806C10.7135 18.034 10.5832 17.8515 10.4984 17.6471C10.4135 17.4426 10.3762 17.2216 10.3893 17.0006C10.3762 16.7797 10.4135 16.5586 10.4984 16.3542C10.5832 16.1497 10.7135 15.9673 10.8793 15.8206C11.1893 15.5492 11.5873 15.3995 11.9993 15.3995C12.4113 15.3995 12.8093 15.5492 13.1193 15.8206C13.2851 15.9673 13.4153 16.1497 13.5002 16.3542C13.5851 16.5586 13.6224 16.7797 13.6093 17.0006ZM13.3893 9.45062C13.3893 10.3906 13.3893 11.2606 13.2793 12.0706C13.2793 12.7106 13.1593 13.3506 13.0793 14.0006C13.06 14.1491 12.9876 14.2856 12.8754 14.3849C12.7633 14.4841 12.619 14.5395 12.4693 14.5406H11.5693C11.4265 14.5302 11.2918 14.4708 11.1879 14.3724C11.084 14.2739 11.0174 14.1426 10.9993 14.0006C10.9093 13.3506 10.8393 12.7106 10.7793 12.0706C10.7093 11.2606 10.6693 10.3906 10.6693 9.45062V7.00063C10.6693 6.83884 10.7336 6.68369 10.848 6.56929C10.9623 6.45489 11.1175 6.39062 11.2793 6.39062H12.8193C12.9811 6.39062 13.1362 6.45489 13.2506 6.56929C13.365 6.68369 13.4293 6.83884 13.4293 7.00063L13.3893 9.45062Z" fill="#141414"/>
    <path d="M19.51 24H4.51001C3.91906 24.0013 3.33364 23.8862 2.78717 23.6613C2.2407 23.4364 1.74389 23.106 1.3251 22.6891C0.906306 22.2721 0.573736 21.7768 0.346377 21.2313C0.119018 20.6859 0.0013229 20.101 1.11368e-05 19.51V4.51001C-0.00130354 3.91906 0.113791 3.33364 0.338723 2.78717C0.563656 2.2407 0.894021 1.74389 1.31096 1.3251C1.72789 0.906306 2.22323 0.573736 2.7687 0.346377C3.31416 0.119018 3.89906 0.0013229 4.49001 1.11368e-05H19.49C20.081 -0.00130354 20.6664 0.113791 21.2129 0.338723C21.7593 0.563656 22.2561 0.894021 22.6749 1.31096C23.0937 1.72789 23.4263 2.22323 23.6536 2.7687C23.881 3.31416 23.9987 3.89906 24 4.49001V19.49C24.0013 20.081 23.8862 20.6664 23.6613 21.2129C23.4364 21.7593 23.106 22.2561 22.6891 22.6749C22.2721 23.0937 21.7768 23.4263 21.2313 23.6536C20.6859 23.881 20.101 23.9987 19.51 24ZM4.49001 2.34001C3.9198 2.34001 3.37293 2.56653 2.96973 2.96973C2.56653 3.37293 2.34001 3.9198 2.34001 4.49001V19.49C2.34001 20.0602 2.56653 20.6071 2.96973 21.0103C3.37293 21.4135 3.9198 21.64 4.49001 21.64H19.49C20.0602 21.64 20.6071 21.4135 21.0103 21.0103C21.4135 20.6071 21.64 20.0602 21.64 19.49V4.49001C21.64 3.9198 21.4135 3.37293 21.0103 2.96973C20.6071 2.56653 20.0602 2.34001 19.49 2.34001H4.49001Z" fill="#141414"/>
  </g>
  <defs>
    <clipPath id="clip0_1093_36496">
      <rect width="24" height="24" fill="white"/>
    </clipPath>
  </defs>
</svg>