<svg id="Layer_1" data-name="Layer 1" xmlns="http://www.w3.org/2000/svg" viewBox="0 0 550 760"><defs><style>.cls-1{fill:#181818;}.cls-2,.cls-4,.cls-5{fill:none;}.cls-2{stroke:#ff5938;stroke-width:32px;}.cls-2,.cls-4{stroke-miterlimit:10;}.cls-3{fill:#fff;}.cls-4,.cls-5{stroke:#181818;stroke-linecap:round;stroke-width:6px;}.cls-5{stroke-linejoin:round;}</style></defs><g id="Alex"><path class="cls-1" d="M51,516.09c-2.8-2.81-18.54-8-15.88-9.34,40.18-20.51,78-35.55,103-73.07,4.76-7.13,8.88-15.06,15.84-20.08,3-2.19,22.32-9.73,22.49-3,.05,1.66-2.71,5.17-3.43,6.74a58.86,58.86,0,0,0-2.66,6.66,30.9,30.9,0,0,0-1.48,14.14c.92,5.95,4,11.3,7.13,16.46q14.59,24.35,30.51,47.87c2.47,3.64,5,7.35,8.62,9.91,4,2.86,9,4,13.75,5.33,15.55,4.27,30.38,10.76,45.14,17.23,16.52,7.24,34.34,15.69,42.18,31.93,12.23-33.17,24.66-68.36,18.2-103.12-2.81-15.11-9-31.41-2-45.09,17.66,5.07,24,26.26,36,40.17,21.84,25.3,62,24.32,90.7,41.43,7.41,4.41,15.23,12.79,16.67,15.86,4.2,9-93.41,97.14-93.41,97.14L294.79,714.9l-61.71-13.07S70.66,535.75,51,516.09Z"/><path class="cls-2" d="M515.54,455.77,482.82,316.71a60.75,60.75,0,0,0-45.22-45.22L298.54,238.77A60.74,60.74,0,0,0,241.67,255L50.87,445.75a60.74,60.74,0,0,0,0,85.91L222.65,703.44a60.74,60.74,0,0,0,85.91,0l190.8-190.8A60.74,60.74,0,0,0,515.54,455.77Z"/><path class="cls-3" d="M357.38,399.32c-18.68,14-52.31,36.22-52.31,36.22l-61.65-1.44-56-19.8L168.7,340.48l-20.55-14-31.76-47.64L68,151.31,81.82,60.25,165.87,27l133.6-.38,66.84,20.91,51.79,99.59-45.77,94.34,16.81,103.69Z"/><path class="cls-1" d="M351.07,210.17c3.45.44,8.55,2.66,11,5.14,3.67,3.74,6.54,9.34,4.67,15.88v0a1.19,1.19,0,0,1-2.27-.08,9.34,9.34,0,0,0-3.27-5,17.71,17.71,0,0,0-8.91-3.48c-4.63-.55-8.08.47-12.64,1.11-4.18.58-23,8.47-27.08,7.47-4.43-1.08-2.68-8.77.12-11,4.07-3.21,23.13-7,27-8C342.25,211.47,349.86,210,351.07,210.17Z"/><path class="cls-1" d="M212.84,231.76c15.14-2.54,31.72-.28,46.89,2.07,2.78.43,9.85,1.6,12.13-.67,2.68-2.68-.17-8-2.39-9.23-2.71-1.51-6.43-1.71-9.48-2.28a210.85,210.85,0,0,0-38.38-3.24,39.69,39.69,0,0,0-10.83,1.12,20.4,20.4,0,0,0-4.11,2.29c-4.49,3.13-9.38,8.85-12.83,13.31a1.91,1.91,0,0,0,2.32,2.89C201.41,235.54,208.45,232.5,212.84,231.76Z"/><path class="cls-4" d="M305.07,252.67c.94,15,2.8,18.68,11.21,30.83"/><path class="cls-5" d="M286,311.75a15.55,15.55,0,0,1,10,.54Z"/><path class="cls-4" d="M314.88,245.67a28.77,28.77,0,0,1,5.35-7.37,19.86,19.86,0,0,1,10.53-5.71c8.85-1.82,18.76,2.19,24.29,9.34"/><path class="cls-5" d="M211.76,253.72c6.75-2.73,11.94-8.55,18.8-11a21.28,21.28,0,0,1,16.59,1.09c2.26,1.16,8.15,4.58,9.82,6.52"/><path class="cls-1" d="M243.42,247.36a8.88,8.88,0,1,1-16.92-3.74c1.41-3,13.33-3.84,15-1.83A8.82,8.82,0,0,1,243.42,247.36Z"/><path class="cls-1" d="M339.63,239.13a8.79,8.79,0,0,1-2,5.66c-1.63,2-12,2-13.61.07a8.9,8.9,0,0,1-2.09-5.73,8.76,8.76,0,0,1,.39-2.63c1.12-3.62,12.54-5.51,14.06-4.27A8.85,8.85,0,0,1,339.63,239.13Z"/><path class="cls-1" d="M159,240c-2-15-2-23-.87-34.7.87-12.3,7.5-17.25,7.59-23.49,0-1.28-2.57-2.8-2.72-4.81,1.1-20.53,9.92-41.29,28.94-49.09a65.91,65.91,0,0,1,16.45-3.86,125.41,125.41,0,0,1,23.55-1.19c12.2.68,24.28,3.83,36.49,3.12,9.87-.57,19.48-3.65,29.36-4.06,27.16-1.11,52.26,19.41,61.59,44.94,7.78,21.27,6,45.32,16.68,65.26l2.69-40.85a103.48,103.48,0,0,0,.07-10.42c-.16-3.53-.55-7.21-2.36-10.27-1.18-2-3-3.75-3.52-6-.62-2.56.47-5.22.41-7.86-.09-3.64-2.33-6.8-3.78-10.13s-1.94-7.76.81-10.14a8.92,8.92,0,0,1-6.09-8c-.07-2.09.61-4.14.7-6.23.24-5.79-4-10.9-4.46-16.68-.28-3.7.34-5.16.59-8.86s-3-10-6.54-11.21l-1.87,9.34c-3.59-16.19-15-26.82-30-33.92l.84,6.82A27.12,27.12,0,0,0,309,49c-4.35,3-11.42.31-12.59-4.87.05,2.38-3.39,2.78-5.71,2.26a99.93,99.93,0,0,1-25.83-9.68,1,1,0,0,0-1.36,1.41l1.86,3.2-19.58-4.33a1.89,1.89,0,0,0-2.14,1c-.56,1.2-2.79,2.33-4.51,2.29l-31.94-.83a1.61,1.61,0,0,0-.92,3l5.08,3.32-27.93,1a.36.36,0,0,0-.33.47,7.06,7.06,0,0,0,4.54,4.22L162,60.2a1.41,1.41,0,0,0-.63,2.21,7.07,7.07,0,0,1,1.1,6.8c-1.15,3-4.16,4.73-7,6.26L138.29,84.9a1.5,1.5,0,0,0-.54,2.12c2,3.1,1.27,7.66-1,10.71-2.1,2.81-5.17,4.66-8.34,6.24a1.78,1.78,0,0,0-.52,2.81,21.37,21.37,0,0,1,5.46,18.54A22.25,22.25,0,0,1,119,141.56c4,1.81,6.14,6.47,6.36,10.9s-1.06,8.76-2,13.09c-3.87,18-1.75,36.62.38,54.88l1.73,14.86c.49,4.15,1.31,8.85,4.84,11.08,1.61,1,3.55,1.33,5.37,1.91,9.51,3.05,12,17,21.52,17.77C170.33,267.15,160.06,247.93,159,240Z"/><path class="cls-5" d="M166.36,426.88c8.38-12.75,12.91-28.74,11.77-43.95s-5.58-30-10-44.57c-10.93-1.74-19.57-10.33-25.5-19.67s-10-19.83-16.39-28.87c-6.15-8.68-14.86-17.38-13.6-27.94a16.36,16.36,0,0,1,25.46-11.59c2.5-8.62,10-14.45,13.05-22.9s1.89-17.56.91-26.39c-1.52-13.75-2.6-27.74-.21-41.36s8.61-27,19.44-35.65c8.27-6.57,18.57-9.93,28.7-12.95a127.77,127.77,0,0,1,20.11-4.76,120.67,120.67,0,0,1,22.41-.28,456.31,456.31,0,0,1,48.2,5.37c16.32,2.69,33.14,6.58,46,16.94C353,141.39,365.93,160.19,367.35,181L370.63,229a237.41,237.41,0,0,0,2.67,25.4c1.77,9.84,4.8,19.44,6.05,29.36,1.52,12.07.38,24.33-1.44,36.37-2.85,18.75-7.55,37.66-17.92,53.54-5.93,9.1-13.27,17.55-19.89,26.16-3.76,4.9-7.56,11.86-13.08,14.95-5.73,3.2-12.6,3.63-19,4.77-7.56,1.34-15.19,2.54-22.89,2.5a54.55,54.55,0,0,1-17.61-2.76c-5.13-1.79-9.35-6-13.81-9"/><path class="cls-5" d="M128.63,248a22.05,22.05,0,0,1,17,9.78,41.56,41.56,0,0,1,2.7,5.06l5.5,11.46a30.21,30.21,0,0,1,2.45,6.23c.9,3.85.3,8,1.69,11.71.93,2.48,2.68,4.55,4.21,6.71a42.88,42.88,0,0,1,6.29,13.28"/><path class="cls-5" d="M204.93,335.68a159.7,159.7,0,0,0,18,28.87"/><path class="cls-5" d="M260,351c15.65-.12,23.08-6.87,30.47-8.6a36.6,36.6,0,0,1,14.78,0c6.57-2.59,7.39-3.1,14-2s18.54,6.35,21.36,4.57"/><path class="cls-5" d="M272.94,364.71c11.58,4.05,18.12,7.79,31.2,5.92s20.55-1.79,26.62-11.17"/><path class="cls-5" d="M323.1,309.36a6.76,6.76,0,0,0-4.57,1.59Z"/><path class="cls-5" d="M267.51,309.32C264,303,266,297,268,293"/></g></svg>