<svg id="Layer_1" data-name="Layer 1" xmlns="http://www.w3.org/2000/svg" viewBox="0 0 550 760"><defs><style>.cls-1{fill:#181818;}.cls-2,.cls-4{fill:none;}.cls-2{stroke:#ff5938;stroke-miterlimit:10;stroke-width:32px;}.cls-3{fill:#fff;}.cls-4{stroke:#181818;stroke-linecap:round;stroke-linejoin:round;stroke-width:6px;}</style></defs><g id="Mario"><path class="cls-1" d="M41.75,468l85-32s15-9,23-15,34-27,37-27-6,8-7,13-4.68,68.86,53,114c23,18,59,32,82,33s68-34,69-67-6-66-8-72,52,24,69,32,79,40,79,40l-209,223-60,4-211-213Z"/><path class="cls-2" d="M515.1,447.32,482.33,308a60.86,60.86,0,0,0-45.3-45.3L297.74,230a60.83,60.83,0,0,0-57,16.2L49.65,437.29a60.83,60.83,0,0,0,0,86.05L221.72,695.41a60.83,60.83,0,0,0,86,0L498.9,504.29A60.86,60.86,0,0,0,515.1,447.32Z"/><path class="cls-3" d="M142.75,283l18,22,11,13,12,3,4,29s74.75,18.19,112,26c62,13,89-30,89-30l35-58,6-11s.63-11.83-2-39c-3-31-14-88-14-88s-23-81-92-75S150.75,97,142.75,283Z"/><path class="cls-1" d="M205.75,129c22-25,38-28,55-25s76,11,99,7,48,18,49,37-1,28,7,46,2,26,2,32,1,27,1,27l-4,28s2,4,5-6,9-13,11-37,12-30,12-61-7-31-7-42-3-19-8-29-16-17-18-22-14-19-32-31-40-22-61-17-24,0-32-2-20,2-24,6-15-2-21-1-32,11-44,31-12,11-23,16-24,17-24,29-2,22-6,30-5,19-5,28-1,29,4,43,0,27,1,30,2,8,16,11,23,18,23,18-7-34,0-54,15-14,17-27-10-16-7-34S205.75,129,205.75,129Z"/><path class="cls-1" d="M334.75,204c-2,0-3-10,0-12s24-7,35-6,26,6,33,18,12,23,10,24-11-9-17-14-18-11.1-27-12C358.75,201,342.75,204,334.75,204Z"/><path class="cls-1" d="M294.75,208c1-3,3-13,1-15s-31-5-43-3-19,4-35,23-18.83,24.15-3.91,15.08S237.75,209,246.75,206s17.6-3.52,29-1A137.82,137.82,0,0,0,294.75,208Z"/><path class="cls-4" d="M340.75,225c10-9,22.83-20,44.91,0"/><path class="cls-4" d="M280.75,227c-12-7-20.85-17.86-43.43,1.07"/><path class="cls-1" d="M268.75,225c0,5.52-4.48,6-10,6s-10-.48-10-6a10,10,0,0,1,20,0Z"/><path class="cls-1" d="M370.75,222c0,5.52-4.48,6-10,6s-10-.48-10-6a10,10,0,0,1,20,0Z"/><path class="cls-4" d="M263.75,333c13,1,36-5,41-6l12,2s8.43-2,11.21-2c14.58,2,20.79,7,29.79,5"/><path class="cls-4" d="M302.75,354c16,1,24,0,30-1"/><path class="cls-4" d="M145.75,237a34.14,34.14,0,0,0-2,33c6,13,21,46,32,50s14-3,14-7-7-19-7-19a31,31,0,0,0-12-7"/><path class="cls-4" d="M169.75,411c18-16,25-20,22-43s-7-46-7-46"/><path class="cls-4" d="M205.75,365c26,41,147,119,200-29"/><path class="cls-4" d="M287.75,277c-2,4-5,10-1,14"/><path class="cls-4" d="M347.75,291c4-5,4-9.91,0-15"/><path class="cls-4" d="M328.75,296a39.72,39.72,0,0,1,6.19-5"/><path class="cls-4" d="M313.75,297a27.64,27.64,0,0,0-6-6"/><path class="cls-4" d="M328.75,235c1,9,4,15,6,21"/><path class="cls-4" d="M430.75,222c-.4,9,3.71,38.58-3,52-5,10-4,17-5,23s-3,13-8,15"/></g></svg>