<svg id="Layer_1" data-name="Layer 1" xmlns="http://www.w3.org/2000/svg" viewBox="0 0 550 760"><defs><style>.cls-1{fill:#181818;}.cls-2,.cls-4,.cls-5,.cls-6{fill:none;}.cls-2{stroke:#ff5938;stroke-width:32px;}.cls-2,.cls-6{stroke-miterlimit:10;}.cls-3{fill:#fff;}.cls-4,.cls-6{stroke:#181818;}.cls-4,.cls-5{stroke-linecap:round;stroke-linejoin:round;stroke-width:6px;}.cls-5{stroke:#000;}.cls-6{stroke-width:7px;}</style></defs><g id="Nahla"><path class="cls-1" d="M35.5,518.25c14.25-51.52,32-47,87-68s45-12,56-24,31-32,31-32l3,23s-18,24-22,43-5.81,47.84,6,101c12,54-1,126-1,126s35-74,43-98,36-100,57-115,46-33,59-55c37,0,53-7,96,23s59.5,37.5,70.5,44.5c9,25-99,99-99,99L265.79,725.5,191,690.75l-111-113S29,541.75,35.5,518.25Z"/><path class="cls-2" d="M514.54,455.52,481.82,316.46a60.75,60.75,0,0,0-45.22-45.22L297.54,238.52a60.74,60.74,0,0,0-56.87,16.18L49.87,445.5a60.74,60.74,0,0,0,0,85.91L221.65,703.19a60.74,60.74,0,0,0,85.91,0l190.8-190.8A60.74,60.74,0,0,0,514.54,455.52Z"/><path class="cls-3" d="M166.65,362.91l-34.09-47.13a49.28,49.28,0,0,1-6.12-21.49L122,201.86a49.26,49.26,0,0,1,2-16.42l26.18-61.27A49.37,49.37,0,0,1,169,97.89l23.67-16.66a49.32,49.32,0,0,1,36-8.38l54.71,8.61a49.21,49.21,0,0,1,25.5,12.22l52.95,48.13a49.28,49.28,0,0,1,15.64,29.51l13.89,97.23a48.67,48.67,0,0,1,.47,8.44l-3.29,111a49.4,49.4,0,0,1-1,8.57L172.29,394A49.27,49.27,0,0,0,166.65,362.91Z"/><path class="cls-1" d="M194,94.75s90-13,121,57,37.75,82.07,32,130c-2.58,21.51-8.86,41.54-14.39,53.08A11.13,11.13,0,0,0,332.9,345c11.68,21.28,9.18,18.75,13.55,31.35,6.44,18.57-31.74,50.6-13.45,43.4,61-24,86,7,108-15,24.74-24.74,3-57,11-70s29-13,3-59c-21.57-38.16-48-123-65-172s-111-94-165-68-112,40-112,186,6,131-5,149-48,5-48,5,35,43,60,24c18,12,26,21,47,14s33-12,43-30c-25-30-20-13-41-42-14.59-20.15-19-51-26-80-.74-3.06-4.56-2.43-8-10-4.89-10.77-9-24.16-9-27,.42-23.37,16.89,5,16-11C138,141.75,164,94.75,194,94.75Z"/><path class="cls-1" d="M257.92,200.14a1.71,1.71,0,0,1-2.22-1.42c-.42-3.28,2.11-9.51,4.3-11,3-2,32-8,37-10,6.11,0,19.83,4.57,27.22,10.39a1.3,1.3,0,0,1-.9,2.32c-12.29-1-22.39-2.44-33.32.29C280.14,193.21,263.54,198.38,257.92,200.14Z"/><path class="cls-1" d="M215.7,202.54a1.59,1.59,0,0,0,1.68-2c-1-3.52-5.2-9-7.38-9.76-35-7-35-8-44-4a48.73,48.73,0,0,0-12.6,8.6,1.06,1.06,0,0,0,1,1.8c5.67-1.79,15.8-4.1,24.57-1.4C189,198.83,204,201.41,215.7,202.54Z"/><path class="cls-4" d="M265.5,217.25s8.5-14.5,23.5-13.5,27,10,27,10"/><path class="cls-1" d="M300,211.75c0,5-4,7-9,7s-9-2-9-7a9,9,0,0,1,18,0Z"/><path class="cls-1" d="M200,215.75c0,5-4,7-9,7s-9-2-9-7a9,9,0,0,1,18,0Z"/><path class="cls-4" d="M212,218.75s-12-14-26-11a36.38,36.38,0,0,0-21,13"/><path class="cls-4" d="M297,366.75c-37,38-73,31-113-4"/><path class="cls-5" d="M139,217.75c0,4,.86,23,1.63,26.5"/><path class="cls-4" d="M227,334.75c8,6,21,7,29,0"/><path class="cls-4" d="M201,316.75c6,3,19.59-.63,24.37-3,2.69-1.33,6.26-.95,9.18.23a13.46,13.46,0,0,0,8.22.64l5.84-1.43a13.5,13.5,0,0,1,8.35.6c7.11,2.9,18,4,24,2"/><path class="cls-4" d="M245.81,227.75c.2,18.73-.05,13.76,4.48,26"/><path class="cls-4" d="M267,271.75c3.32,6.16,0,15-6,15"/><path class="cls-4" d="M210,284.75s-9.56-3.77-2.78-16"/><path class="cls-4" d="M244.3,287.76C247.53,285.25,249,285,249,285"/><path class="cls-4" d="M226.21,288.58a22,22,0,0,0-4.4-2.38"/><path class="cls-6" d="M181,483.75c13,29,22,72,78,61"/></g></svg>