<svg id="Layer_1" data-name="Layer 1" xmlns="http://www.w3.org/2000/svg" viewBox="0 0 550 760"><defs><style>.cls-1{fill:#181818;}.cls-2,.cls-3,.cls-5{fill:none;}.cls-2{stroke:#181818;stroke-width:6px;}.cls-2,.cls-5{stroke-linecap:round;stroke-linejoin:round;}.cls-3{stroke:#ff5938;stroke-miterlimit:10;stroke-width:32px;}.cls-4{fill:#fff;}.cls-5{stroke:#000;stroke-width:8px;}</style></defs><g id="Pablo"><path class="cls-1" d="M73,542.38a209.29,209.29,0,0,1,56-44c34-18,76-24,76-24s3,13-1,23-15,32-15,44,3,33.21,14,42.1,18,6.9,34-4.1,137-77,177-117c11-11,29,1,29,1l54,26-176,187-33,28-36,16Z"/><path class="cls-2" d="M200,415.38c1.5,11.11,3.5,66.5,3.5,66.5l-22,45s-23,24-8,53,24,49,68,28,195-144,195-144-20-6-32-13-46-40-48-62-.5-62.5-.5-62.5"/><path class="cls-3" d="M516.35,447.7,483.58,308.4a60.85,60.85,0,0,0-45.3-45.29L299,230.33a60.83,60.83,0,0,0-57,16.21L50.9,437.67a60.83,60.83,0,0,0,0,86.05L223,695.79a60.85,60.85,0,0,0,86,0L500.15,504.66A60.83,60.83,0,0,0,516.35,447.7Z"/><polygon class="cls-4" points="134.17 162.45 129.07 226.43 133.17 263.62 143.19 325.72 152.2 354.77 163.22 374.81 181.25 392.84 209.3 407.86 259.38 411.87 295.44 396.84 327.49 364.79 363 302.38 387.6 303.69 401.62 281.65 412.08 256.94 415.64 232.41 410.63 185.49 389.6 131.4 341.52 104.35 294.44 98.34 210.3 99.34 160.21 115.37 134.17 162.45"/><path class="cls-2" d="M203,342.38s14,9,36,2"/><path class="cls-1" d="M418.77,183c-1.95-10.76-6.85-33.27-16.63-44,3.91-16.64,2-46-47.95-78.28s-135-39.14-181,3.91-47.95,20.55-47.95,20.55-8.8,10.77,1,17.62,11.74,8.8,2.94,18.58-27.4,29.36-18.59,53.83,18.59,46,18.59,46,1-11.74,12.72-14.69c0-31.3,7.83-69.46,34.25-80.23s65.56-13.7,89-13.7c28,0,55.63,5.65,73.83,13.18a30,30,0,0,1,18.08,33.82c-2.06,9.92-5.8,13.67-5.8,13.67s14.68,20.55,12.72,42.07-7.83,71.43-21.53,93.94c-6.83,11.22-16.81,32.88-35,51.8-.29-5-2.33-20-15.84-39.07-20.55-17.63-55.78-21-70.45-20.55-30.34,1-53.82,13.69-59.69,20.55-4.5,5.25-4.58,19.35-4.37,25.67-12.11-22.76-17.16-45.31-17.16-47.2-1,22.51-2.93,63.6,35.23,101.76s109.59,14.67,131.12,3.91,47.94-44,50.88-62.63,11.74-87.07,14.68-92.94c8.8-3,15.65-6.85,19.57-11.75-7.83-2.94-9.79-3.92-9.79-3.92s2.94-14.67,22.51-8.81S420.73,193.76,418.77,183ZM276.62,384C261.9,391.49,244,396.3,222.1,396.3c-20.68,0-36.81-10.69-49.09-24.92a179.55,179.55,0,0,1,.16-22c1-17.62,2.08-17.25,18.59-20.55,14.68-2.94,24.46,3.91,31.31-9.78,3.92,13.69,15.66,6.84,42.08,12.71C291.26,337.52,282.49,361.73,276.62,384Z"/><path class="cls-2" d="M211.82,213.82c-2-3.92-10.76-6.85-40.12-8.81s-40.12,6.85-43,23.49,8.81,50.88,40.12,50.88,42.07-38.16,46-53.82c1-2.94,8.8-1,21.52-1,3.92,26.42,20.11,47.87,42.08,51.86,43.05,7.83,48.92-29.35,49.9-44,0,0,3.92-24.46-25.44-28.38s-56.75,4.9-56.75,4.9-10.76,1.95-9.79,11.74"/><path class="cls-5" d="M328.44,223.74c6.67-.14,34.51,1.76,34.51,1.76"/><path class="cls-2" d="M266.62,233.39c4.89-3.92,23.48-22.51,43.05,0"/><path class="cls-1" d="M193,227.38c0,5.52-4.48,9-10,9s-10-3.48-10-9a10,10,0,0,1,20,0Z"/><path class="cls-1" d="M299,229.38c0,5.52-4.48,9-10,9s-10-3.48-10-9a10,10,0,0,1,20,0Z"/><path class="cls-2" d="M405.3,224.61c8.7,9.77,14.73,25.07-4.3,61.76-14,27-21.39,30-25,30-7,0-15-13-7-25"/><path class="cls-2" d="M205,232.41c-6.85-6.85-22.5-24.46-43.05-2"/></g></svg>