<svg id="Layer_1" data-name="Layer 1" xmlns="http://www.w3.org/2000/svg" viewBox="0 0 550 760"><defs><style>.cls-1{fill:#181818;}.cls-2,.cls-4,.cls-5{fill:none;}.cls-2{stroke:#ff5938;stroke-miterlimit:10;stroke-width:32px;}.cls-3{fill:#fff;}.cls-4,.cls-5{stroke:#181818;stroke-linecap:round;stroke-linejoin:round;}.cls-4{stroke-width:6px;}.cls-5{stroke-width:10px;}</style></defs><g id="Surbhi"><path class="cls-1" d="M107.75,392c-5,24-3.93,18.74-6,27-9,36-3,27-16,35s-59,27-59,27l42,71,107,97,59,56,64,2,69-84,91-95,49-51-2.16-13.38A27.16,27.16,0,0,0,486.7,442c-11.21-3.45-20.12-11.49-25.95-17-38-36-36-150-36-150s-.27,15.48-12,22c-9,5-19-9-19-9s-13,44.63-22.91,59.48a3.62,3.62,0,0,0-.38,3.4c2.62,6.47,8.63,17.29,8.29,21.12-1.4,15.89,2,43-41,78-13,20,12,11.16,24,23,5,5-8,62.49-34,101-27,40-52,66-52,66s-10.3-115.93-19-154c-3.71-16.23-16.8-36.35-23-55-7.17-21.57-12.56-49.15-18-58a203.08,203.08,0,0,0-21-27c-5.52-6-10.36-17-15-28Z"/><path class="cls-2" d="M515.1,447.32,482.33,308a60.86,60.86,0,0,0-45.3-45.3L297.74,230a60.83,60.83,0,0,0-57,16.2L49.65,437.29a60.83,60.83,0,0,0,0,86.05L221.72,695.41a60.83,60.83,0,0,0,86,0L498.9,504.29A60.86,60.86,0,0,0,515.1,447.32Z"/><path class="cls-3" d="M116.75,283s-.67,11.09,8,35c2.92,8.06,44-22,44-22s5,10.39,13,29c3,7,54.75,43.19,92,51,62,13,89-30,89-30l28-77,32,8s.63-11.83-2-39c-3-31-33-88-33-88s-23-81-92-75S124.75,97,116.75,283Z"/><path class="cls-1" d="M196.75,359c-7.42-18.48-30.12-75-32.89-88-6.77-31.79-6.78-83.64,4.89-107,6-12,22.07-26.75,33-36,10.65-9,47.88-25.3,61.94-30.24a5,5,0,0,0,2.84-6.9C260.7,79,254,75,263.75,67c11-9,21.64-16.17,21.64-16.17S268.75,34,238.75,39s-57,21-89,55c-54.87,58.3-36,182-38,207-1.23,15.34-5,79.09-7,106Z"/><path class="cls-1" d="M265.17,69.22a11.32,11.32,0,0,0-1,10.61C269,91.37,272.55,95,284.75,102c14,8,25,13,35,23s8,16,35,38,27.21,71.46,35,72,10-9,11-19,1-16,5-23c2.72-4.75,9-4,1-24s-35-101-85-115-47.17,2.85-51,10C269.22,66.86,266.49,67.23,265.17,69.22Z"/><path class="cls-1" d="M285.75,206c3-2,21-12,31-13s29,3,30,1-6.23-7.08-12-9c-6-2-15-5-26-1s-30,10-35,15-3.5,4.64-3,9,3,5,5,4S282.75,208,285.75,206Z"/><path class="cls-1" d="M215.75,222c-10,0-27,2-32,5s-9,7-11,12-4,2-4-2-3.06-13.14,11-19c12-5,19-5,29-6s19-3,22,0c4,4,8,10,4,10Z"/><path class="cls-4" d="M281.75,230c5-10,23.33-32.44,53-13"/><path class="cls-4" d="M235.75,240c-21-9-36.77-8.78-48,9"/><circle class="cls-1" cx="212.25" cy="242.5" r="9.5"/><circle class="cls-1" cx="308.25" cy="219.5" r="9.5"/><path class="cls-4" d="M397.75,194c11-7,25.53-11,24,32-.74,21-2,22.1,0,37s-1,33-12,33-16-6-16-25a35.48,35.48,0,0,1,1-7"/><path class="cls-4" d="M341.75,381c-42.87,35.72-66,40-138-21"/><path class="cls-4" d="M239.75,340c15.41-5,15-10,22-11s16,0,16,0c5.85-3.34,5.78-3.59,10-5,14.23-4.74,27,2,36-4"/><path class="cls-4" d="M237.26,292.22c-1.5,8.6,0,11.1,3.49,14.78"/><path class="cls-4" d="M250.17,301.91c1.24-.44,5.47-.38,7.22.58"/><path class="cls-4" d="M276.46,299.24c.51-.57.07-.75,4.16-3.61"/><path class="cls-4" d="M296.75,295c4.56-8,3.94-10.84,0-15.81"/><path class="cls-4" d="M264.75,356c18.4,9.74,29.6,3.93,39-9"/><path class="cls-4" d="M248.62,250c2.13,11,3.13,14.87,2.13,21.94"/><path class="cls-5" d="M260.74,530.77c17.34,8,61.57,16,95.45-12.24"/><path class="cls-3" d="M244.75,579c2-24,3-81,3-81s1-4,5,26,6,52,3,67c-.72,3.58-1.72,14.77-2.83,14.5C249.38,604.64,244.75,579,244.75,579Z"/><path class="cls-4" d="M372.75,349s5-4,13-28,8.48-32.88,8.24-43.44"/></g></svg>