<svg id="Layer_1" data-name="Layer 1" xmlns="http://www.w3.org/2000/svg" viewBox="0 0 550 760"><defs><style>.cls-1{fill:#181818;}.cls-2,.cls-4{fill:none;}.cls-2{stroke:#ff5938;stroke-miterlimit:10;stroke-width:32px;}.cls-3{fill:#fff;}.cls-4{stroke:#181818;stroke-linecap:round;stroke-linejoin:round;stroke-width:6px;}</style></defs><g id="Tony"><path class="cls-1" d="M238.75,607s50.37-77,77-97c8-6,1-43,6-49,10-12,37-13,42-20,10.81-15.14,10-42,10-42s24.95,1.78,20.18,37.31a12.12,12.12,0,0,0,4.63,11.24c32,24.57,56.48,31,78.19,40.45,23,10,20,14,20,14l-202,201-29,15-62-33-174-193s96-45,120-46c4-22,29-51,29-51s2,45,3,61-15,22,30,95C232.17,584.12,238.75,607,238.75,607Z"/><path class="cls-2" d="M515.1,447.32,482.33,308a60.86,60.86,0,0,0-45.3-45.3L297.74,230a60.83,60.83,0,0,0-57,16.2L49.65,437.29a60.83,60.83,0,0,0,0,86.05L221.72,695.41a60.83,60.83,0,0,0,86,0L498.9,504.29A60.86,60.86,0,0,0,515.1,447.32Z"/><path class="cls-3" d="M140.75,277s-.67,11.09,8,35c2.92,8.06,11,16.66,15,28,16,45,38,59,100,72s132-69,132-69l32-28,13-27s-9-20-22-44c-14.49-26.74-7-100-7-100s-23-81-92-75S148.75,91,140.75,277Z"/><path class="cls-1" d="M161.75,253c1-28,4-61,18-76,5-26,16-67,53-72s68-2,86,37,29,43,29,43l-19-37s3,10,21,22,13,5,13,5a84.69,84.69,0,0,1-15-22c-6-13,1-11,14,3s41.3,55.34,37,72c-2.3,8.93-1.56,14.6-.38,17.95a34.21,34.21,0,0,1,2.07,12.62L399.75,278s29-25,32-36,15-59-10-125c-13.78-36.38-72-82-128-79s-69,9-106,42c-22.39,20-40,73-44,97s-5,42,5,67l10,25Z"/><path class="cls-4" d="M298.75,237c14-9,28-16,52,2"/><path class="cls-4" d="M246.75,232c-11-9-27-14-52-2"/><path class="cls-4" d="M218.75,325c19.39,1,30-7,36-6s7,3,7,3,5-3,9-2,21.34,11,33,11"/><path class="cls-4" d="M240.75,343c11,5,27,6,39,1"/><path class="cls-4" d="M144.75,235c-4,21-8,38-2,59s7,25,11,29,3,3,12,21,42,65,86,64,105.62-28,122.81-65"/><path class="cls-4" d="M422.75,252s18,21,12,41-15,33-22,40-9,9-12,13-13,7-14,0,4-18,4-18"/><path class="cls-4" d="M232.26,278c-3.51,8-2.49,12.19,0,16.6"/><path class="cls-4" d="M245.75,293c1.8,0,7.2,1.49,9,3"/><path class="cls-4" d="M271.75,297a46,46,0,0,1,7-2"/><path class="cls-4" d="M296.75,301c7-6,8-11,6-17"/><path class="cls-4" d="M386.75,341s-10,26-11,33,.64,34.84.64,34.84"/><path class="cls-4" d="M157.75,261c0,19,2,38,2,38"/><path class="cls-4" d="M280.75,240c-2,13-3,18,0,28"/><path class="cls-1" d="M240.75,203a12.79,12.79,0,0,0,8-1c5-2.7,1.52-3.8-1-8-3-5-34-9-40-7s-22,12-20,15,4,3,9,2,8-4,18-5C222.28,198.25,234.41,201.09,240.75,203Z"/><path class="cls-1" d="M311.06,205.45a9.94,9.94,0,0,1-4.28-1.94c-2.77-2.19.81-5.51,3-6.51,3-1.4,16-1,26,1s23,3,29,18,3.15,15.58-1.43,11.79S351.75,215,342.75,212C334.42,209.22,321,207.3,311.06,205.45Z"/></g></svg>