<svg id="Layer_1" data-name="Layer 1" xmlns="http://www.w3.org/2000/svg" viewBox="0 0 550 760"><defs><style>.cls-1,.cls-5{fill:#181818;}.cls-2,.cls-4{fill:none;}.cls-2{stroke:#ff5938;stroke-width:32px;}.cls-2,.cls-5{stroke-miterlimit:10;}.cls-3{fill:#fff;}.cls-4,.cls-5{stroke:#181818;}.cls-4{stroke-linecap:round;stroke-linejoin:round;stroke-width:6px;}</style></defs><g id="Ziyun"><path class="cls-1" d="M232,407l.14,14a21.27,21.27,0,0,1-3.87,12.24h0A68.12,68.12,0,0,0,216.7,462c-1.69,10.93-2.94,24.41-.47,31.5,2.67,7.66,12.31,42.55,19.88,70.33,2.87,10.52,17.71,10.79,21,.37h0a10.73,10.73,0,0,1,2.61-4.37c6.83-7,31.31-31.33,48.45-38.9a54.7,54.7,0,0,0,13.5-8.53c12.19-10.48,32.78-26.61,36-28.08a9.2,9.2,0,0,0,3.57-3.83,86.94,86.94,0,0,1,12-16.37c8.19-8.62,20.12-21.49,28.07-31.55a17.73,17.73,0,0,0,0-22c-4.74-6-9.6-13.91-10.16-20.19h6c4.44,0,13.62,2.15,22,1.53a19.08,19.08,0,0,1,10.71,12.86c1.38,5.66,19.28,34.26,25.55,37.63s25.55,11.17,28.61,13c5.66.92,14,5.62,39,21.62,11,5.51-68,84-68,84l-95.89,90L258,726,117,605,61,548s9.16-50.54,25.38-59.42c18.05-7.95,73.43-37,106.17-37.33,15-19.58,24.82-43.33,36.45-44.25Z"/><path class="cls-2" d="M515.54,454.77,482.82,315.71a60.75,60.75,0,0,0-45.22-45.22L298.54,237.77A60.74,60.74,0,0,0,241.67,254L50.87,444.75a60.74,60.74,0,0,0,0,85.91L222.65,702.44a60.74,60.74,0,0,0,85.91,0l190.8-190.8A60.74,60.74,0,0,0,515.54,454.77Z"/><path class="cls-3" d="M159,175l22.65,67.58L187,296s6,51,20,66,50,51,72,54,50.43,3.62,91.22-34.69,35.37-68.13,61.08-90.22S449,275,456.39,262.79c25.13-41.55-1.91-111.71-1.91-111.71S393,30,307,61,178,134,159,175Z"/><path class="cls-4" d="M272,228s-2.53-28.26-50.11-5.16"/><circle class="cls-1" cx="255.35" cy="221.09" r="9.6"/><path class="cls-4" d="M340,239s8.08-27.76,48.42,6.45"/><path class="cls-4" d="M328.4,290c3.37,8.07,1.35,14.68-5.4,13.94"/><path class="cls-4" d="M268,296s-9.92-3.95-1.42-15"/><path class="cls-4" d="M366,384c-18.24,13.52-31.09,20.4-57,30-15.44,5.72-32.21,1.67-46.42-5.77C251.35,402.34,233.46,389.72,226,382c-8-8.27-33.94-30.49-38.84-84.65-1.22-11.32-6.88-46.28-5.51-54.77a77.94,77.94,0,0,0-4.59-12.85s-2.52-20,1.84-24.33c-1.61-6.42-8.26-10.78-4.82-23.17s21-124.15,112.22-139.14C300.06,40.64,357.59,25,415.72,80.41c15,18.36,36.72,36.72,45.29,120.86.91,14.08,1.46,67.09-10,73.73-.85.49-1.67,1-2.46,1.45a47.32,47.32,0,0,0-19.78,22.94C425,308.77,419.4,320.08,414,322c-3.28,8.08-13.79,25.48-18.9,34.11a27.9,27.9,0,0,0-3.78,11.05c-.8,6.91,2.44,18.26,2.68,22.84"/><path class="cls-4" d="M245.45,336.42c12.55,3.58,23.85-5.91,28.91-7.58,2.86-.94,6.34,0,9.06,1.53a13.43,13.43,0,0,0,8.05,1.79l6-.58a13.59,13.59,0,0,1,8.18,1.78c6.62,3.87,17.37,14.64,26.1,12"/><path class="cls-4" d="M269,356c10,10,23,11,35,4"/><path class="cls-5" d="M216.62,199.47a2.22,2.22,0,0,1-.73-3.83c4.9-4,16.26-12.67,22.44-12.5,7.13.21,35.21,13.24,42.57,19.38a2.18,2.18,0,0,1-.14,3.46,12.06,12.06,0,0,1-3,1.65,3.84,3.84,0,0,1-2.37.05c-4.81-1.41-28.29-10.87-33.85-10.18C236.5,198.12,222.86,201.38,216.62,199.47Z"/><path class="cls-5" d="M398.72,225.58a2.21,2.21,0,0,0,1.89-3.41c-3.41-5.32-11.51-17.1-17.44-18.85-6.84-2-37.58,1.62-46.49,5.16a2.19,2.19,0,0,0-.94,3.34,12.22,12.22,0,0,0,2.37,2.51,3.87,3.87,0,0,0,2.24.78c5,.16,32.08-1,37.15,1.39C382.06,218.64,392.2,225.46,398.72,225.58Z"/><path class="cls-4" d="M317.32,245.84s-5,12-1.49,20.93"/><circle class="cls-1" cx="360.11" cy="236.55" r="9.6"/><path class="cls-1" d="M391.16,159.71c19.42,23.65,39.34,79.64,39.34,98.83C444.89,271,456.4,248,456.4,248s21.25-21-1.92-96.91C426.66,59.93,307.68-21.63,213.63,87.79c-31.91,37.12-40.28,67.13-42.2,97.83,9.59,23-.92,33.18,3.86,44.41s6.36,12.55,6.36,12.55,12-49.64,41.59-84.78c24.84-29.49,65.51-45.54,88.28-45.1,9.59-44.14,19.19-71,18.23-59.49s-13.43,59.49-13.43,59.49S369.09,132.85,391.16,159.71Z"/><path class="cls-4" d="M306,302c3.57-2,5-2,5-2"/><path class="cls-4" d="M287,300a21.67,21.67,0,0,0-4-3"/></g></svg>