<svg id="Capa_1" data-name="Capa 1" xmlns="http://www.w3.org/2000/svg" viewBox="0 0 105.36 75.81"><defs><style>.cls-1{fill:#474747;}</style></defs><path class="cls-1" d="M86.23,40.51c-2.8,0-5.6,0-8.4,0a3.36,3.36,0,0,0-2.58,1Q59.64,56.65,44,71.76a2.49,2.49,0,0,1-2,.82c-1.36-.07-2.73,0-4.09,0-1.1,0-1.22-.22-.64-1.2l10.17-17q3.35-5.6,6.68-11.18c1-1.72.51-2.71-1.49-2.83-6.44-.4-12.9-.67-19.33-1.23-6.18-.54-12.34-1.3-18.24-3.4a18.8,18.8,0,0,1-2.25-1,5.25,5.25,0,0,1-2.6-3C8.07,26,5.85,20.21,3.66,14.45c-.47-1.24-.39-1.12.9-1.42,2.65-.61,4.34.35,6,2.48C13.17,19,16.18,22.28,19,25.69a3.07,3.07,0,0,0,2.65,1.25q33.86,0,67.72,0a15,15,0,0,1,12,5.91c2.71,3.35,1.8,6.08-2.43,6.95a51.6,51.6,0,0,1-7.58.7C89.68,40.59,88,40.51,86.23,40.51Z"/><path class="cls-1" d="M61.91,19.55H58.38c-3.55,0-7.1,0-10.65,0a1.6,1.6,0,0,1-1.63-.89c-3.66-6.17-5.05-8-8.72-14.12A4.88,4.88,0,0,1,37,3.4a6.1,6.1,0,0,1,1.12-.19c1.65,0,3.47-.41,4.9.16s2.46,2.13,3.64,3.27c5.63,5.43,9,6.52,14.58,12a7.93,7.93,0,0,0,.86.63Z"/></svg>