<svg id="Capa_1" data-name="Capa 1" xmlns="http://www.w3.org/2000/svg" xmlns:xlink="http://www.w3.org/1999/xlink" viewBox="0 0 342.81 182.04"><defs><style>.cls-1{fill:#424242;}.cls-2,.cls-8{fill:#ffd60a;}.cls-3{fill:#ffc300;}.cls-4{fill:#181818;}.cls-5{fill:#262626;}.cls-6{fill:none;stroke:#282a54;stroke-miterlimit:10;}.cls-7{opacity:0.5;fill:url(#Degradado_sin_nombre_27);}.cls-8{opacity:0.3;}</style><linearGradient id="Degradado_sin_nombre_27" x1="177.36" y1="173.46" x2="177.36" y2="20.97" gradientUnits="userSpaceOnUse"><stop offset="0" stop-color="#ffd60a" stop-opacity="0"/><stop offset="0.19" stop-color="#ffd50a" stop-opacity="0.01"/><stop offset="0.36" stop-color="#ffd409" stop-opacity="0.06"/><stop offset="0.53" stop-color="#ffd107" stop-opacity="0.13"/><stop offset="0.7" stop-color="#ffcd05" stop-opacity="0.24"/><stop offset="0.87" stop-color="#ffc803" stop-opacity="0.37"/><stop offset="1" stop-color="#ffc300" stop-opacity="0.5"/></linearGradient></defs><path class="cls-1" d="M194.6,30.67a41.77,41.77,0,0,0,0-4.62,8.93,8.93,0,0,0-2.89-5.43L190,18.85,176.41,4.76a1.2,1.2,0,0,1,1.69-1.7c2.85,2.88,15.31,14.45,17.69,17.27a12.64,12.64,0,0,1,2.43,7.89l0,2.45c.51,27.89,1.73,93.75,2.26,122.33h-8.18c.49-26.1,1.71-92.24,2.17-117.44Z"/><polygon class="cls-2" points="183.24 10.99 182.13 22.98 172.7 22.98 171.59 10.99 183.24 10.99"/><circle class="cls-3" cx="177.44" cy="16.36" r="2.43"/><path class="cls-4" d="M185.47,9.7H169.35a.23.23,0,0,1-.18-.37l3-3.86a.21.21,0,0,1,.18-.09h10.11a.21.21,0,0,1,.18.09l3,3.86A.23.23,0,0,1,185.47,9.7Z"/><path class="cls-4" d="M179,4.68h-3.28a.1.1,0,0,1-.09-.14l.32-.69.15-.33.18-.39h.09a1.07,1.07,0,0,1-.07-.39,1.07,1.07,0,1,1,2.13,0,1.34,1.34,0,0,1-.07.39h.09l.18.39.15.33.31.69A.1.1,0,0,1,179,4.68Z"/><path class="cls-5" d="M178.32,25.74V26.9a1.16,1.16,0,0,0-1.77,0V25.74Z"/><line class="cls-6" x1="174.92" y1="10.99" x2="175.51" y2="17.45"/><polygon class="cls-1" points="183.84 9.7 183.72 10.99 170.99 10.99 170.88 9.7 183.84 9.7"/><line class="cls-6" x1="178.84" y1="22.98" x2="179.61" y2="14.71"/><path class="cls-1" d="M178.68,27.86a1.25,1.25,0,1,1-2.49,0,1.46,1.46,0,0,1,.36-1,1.16,1.16,0,0,1,1.77,0A1.46,1.46,0,0,1,178.68,27.86Z"/><path class="cls-1" d="M182.62,23.24l-.08.91a.25.25,0,0,1-.24.21h-9.81a.23.23,0,0,1-.23-.21l-.09-.91a.24.24,0,0,1,.24-.26h10A.24.24,0,0,1,182.62,23.24Z"/><path class="cls-5" d="M179.29,24.56l-.65,1.11a.14.14,0,0,1-.11.07h-2.19a.12.12,0,0,1-.11-.07l-.65-1.11a.14.14,0,0,1,.12-.2h3.47A.14.14,0,0,1,179.29,24.56Z"/><rect class="cls-4" x="175.94" y="4.68" width="2.83" height="0.7"/><polygon class="cls-7" points="353.19 181.05 1.53 181.05 83.59 98.99 171.6 10.99 183.12 10.99 353.19 181.05"/><rect class="cls-4" x="93.17" y="110.52" width="86.6" height="1.84"/><rect class="cls-4" x="93.17" y="112.36" width="86.6" height="14.69"/><rect class="cls-4" x="93.17" y="130.64" width="86.6" height="8.26"/><rect class="cls-4" x="101.24" y="108.28" width="6.39" height="2.24"/><rect class="cls-4" x="101.24" y="112.36" width="6.39" height="40.64"/><rect class="cls-4" x="166.88" y="108.28" width="6.39" height="2.24"/><rect class="cls-4" x="166.88" y="112.36" width="6.39" height="40.64"/><rect class="cls-8" x="93.17" y="110.52" width="86.6" height="1.84"/></svg>