<svg id="Capa_1" data-name="Capa 1" xmlns="http://www.w3.org/2000/svg" xmlns:xlink="http://www.w3.org/1999/xlink" viewBox="0 0 333.96 167"><defs><style>.cls-1{fill:#3b4c7b;}.cls-2,.cls-9{fill:#ffd60a;}.cls-3{fill:#ffc300;}.cls-4{fill:#1c1e3a;}.cls-5{fill:#282a54;}.cls-10,.cls-6{fill:none;}.cls-6{stroke:#282a54;stroke-miterlimit:10;}.cls-7{opacity:0.5;fill:url(#Degradado_sin_nombre_27);}.cls-8{fill:#1f1f3f;}.cls-9{opacity:0.3;}</style><linearGradient id="Degradado_sin_nombre_27" x1="165.31" y1="173.45" x2="165.31" y2="20.96" gradientUnits="userSpaceOnUse"><stop offset="0" stop-color="#ffd60a" stop-opacity="0"/><stop offset="0.19" stop-color="#ffd50a" stop-opacity="0.01"/><stop offset="0.36" stop-color="#ffd409" stop-opacity="0.06"/><stop offset="0.53" stop-color="#ffd107" stop-opacity="0.13"/><stop offset="0.7" stop-color="#ffcd05" stop-opacity="0.24"/><stop offset="0.87" stop-color="#ffc803" stop-opacity="0.37"/><stop offset="1" stop-color="#ffc300" stop-opacity="0.5"/></linearGradient></defs><path class="cls-1" d="M182.56,30.66a44.38,44.38,0,0,0,0-4.62,9,9,0,0,0-2.89-5.43L178,18.84,164.36,4.75a1.2,1.2,0,0,1,1.7-1.69c2.85,2.87,15.31,14.45,17.69,17.27a12.59,12.59,0,0,1,2.42,7.89l0,2.44c.52,27.89,1.74,93.75,2.26,122.33H180.3c.49-26.1,1.7-92.24,2.17-117.43Z"/><polygon class="cls-2" points="171.19 10.98 170.09 22.98 160.65 22.98 159.55 10.98 171.19 10.98"/><circle class="cls-3" cx="165.39" cy="16.35" r="2.43"/><path class="cls-4" d="M173.43,9.7H157.31a.24.24,0,0,1-.18-.38l3-3.86a.23.23,0,0,1,.18-.09h10.11a.25.25,0,0,1,.19.09l3,3.86A.24.24,0,0,1,173.43,9.7Z"/><path class="cls-4" d="M167,4.67h-3.28a.1.1,0,0,1-.09-.14l.31-.68.15-.33.18-.4h.09a1.27,1.27,0,0,1-.06-.39,1.07,1.07,0,1,1,2.12,0,1.27,1.27,0,0,1-.06.39h.09l.18.4.15.33.31.68A.1.1,0,0,1,167,4.67Z"/><path class="cls-5" d="M166.28,25.73v1.16a1.21,1.21,0,0,0-.89-.4,1.18,1.18,0,0,0-.88.4V25.73Z"/><line class="cls-6" x1="162.87" y1="10.98" x2="163.47" y2="17.44"/><polygon class="cls-1" points="171.8 9.7 171.68 10.98 158.95 10.98 158.83 9.7 171.8 9.7"/><line class="cls-6" x1="166.8" y1="22.98" x2="167.56" y2="14.71"/><path class="cls-1" d="M166.64,27.86a1.26,1.26,0,1,1-2.5,0,1.42,1.42,0,0,1,.37-1,1.18,1.18,0,0,1,.88-.4,1.21,1.21,0,0,1,.89.4A1.46,1.46,0,0,1,166.64,27.86Z"/><path class="cls-1" d="M170.57,23.23l-.08.92a.24.24,0,0,1-.23.21h-9.81a.23.23,0,0,1-.23-.21l-.09-.92a.23.23,0,0,1,.23-.25h10A.22.22,0,0,1,170.57,23.23Z"/><path class="cls-5" d="M167.24,24.56l-.64,1.1a.13.13,0,0,1-.12.07H164.3a.13.13,0,0,1-.12-.07l-.64-1.1a.13.13,0,0,1,.11-.2h3.48A.13.13,0,0,1,167.24,24.56Z"/><rect class="cls-4" x="163.89" y="4.67" width="2.83" height="0.7"/><polygon class="cls-7" points="341.14 181.05 -10.51 181.05 71.55 98.98 159.55 10.98 171.08 10.98 341.14 181.05"/><rect class="cls-8" x="81.13" y="110.51" width="86.6" height="1.84"/><rect class="cls-8" x="81.13" y="112.35" width="86.6" height="14.69"/><rect class="cls-8" x="81.13" y="130.63" width="86.6" height="8.26"/><rect class="cls-8" x="89.19" y="108.27" width="6.39" height="2.24"/><rect class="cls-8" x="89.19" y="112.35" width="6.39" height="40.64"/><rect class="cls-8" x="154.83" y="108.27" width="6.39" height="2.24"/><rect class="cls-8" x="154.83" y="112.35" width="6.39" height="40.64"/><rect class="cls-9" x="81.13" y="110.51" width="86.6" height="1.84"/><rect class="cls-10" x="-582.57" y="-791.57" width="1920" height="1080"/></svg>