<svg id="Capa_1" data-name="Capa 1" xmlns="http://www.w3.org/2000/svg" xmlns:xlink="http://www.w3.org/1999/xlink" viewBox="0 0 1920 1080"><defs><style>.cls-1,.cls-5{fill:none;}.cls-2{clip-path:url(#clip-path);}.cls-3{fill:#2c2f59;}.cls-4{clip-path:url(#clip-path-2);}.cls-5{stroke:#282a54;stroke-miterlimit:10;}.cls-6{fill:#1c1e3a;}</style><clipPath id="clip-path"><rect class="cls-1" x="-1940" width="1920" height="1080"/></clipPath><clipPath id="clip-path-2"><rect class="cls-1" width="1920" height="1080"/></clipPath></defs><g class="cls-2"><path class="cls-3" d="M158.8,805.38v-53.3h-4.59v-20h-1.13V719H152v33.12h-2.74V739.92H147v12.16H111.2l-9.65,9.65H81l-6.07-6.07H53.78v-3.58H-2.85c-1.72,0,0-254,0-254H-16.4V434.47l-7.2-7.21h-3.58V380.31h-2.37v46.95h-4.23l-20.06,20.07H-74.93V427.26h-5.63v20.07H-109v37.58l-29.9,29.88v66.1L-160,602V745.89h-50.22V757h-14.64v14.77h-16.7V756h-22.87l-10.07-10.07h-13.71V729.51h-5.62v16.38h-6.51V729.51H-306v16.38h-36v-9.54h-22.32l-6.26-6.25-9.53-9.53H-434l-22.76-22.76h-56.43L-525,686h-39.3v16.62h-40.5v-121H-618.4V565.15H-625v-7.38h-27.44v7.38H-672.4v16.49h-69.54V527.1h-17.9v12h-27.08v35.15h-17.22V554h-14.77V528.86H-816v-2.34h-11.53v2.34h3V554h-10.4V503.7h-1.2V554H-866.9l-48,48v56.5h-6.53V635.65h-1.2V658.5h-16.08v37h-41.52V635H-1007V496h-27.59V464.3h-5.4V445.47h-6.71v-18H-1171V397h-3.1v30.42H-1179v-40h4.89v-3.09H-1179v-9.54h4.89v-3.09H-1179v-8.9h-6.19v64.58h-16.76V548.34h-78.37V529.78h-22.43v-8.32h-30.94v8.32h-7.47v18.56h-15.34V684.72h-45.64V652.25h-21.26v-21.8h1.92v-3.09h-1.92v-3.48h-6.19v3.48h-1.92v3.09h1.92v21.8h-27.24c0-6.44.17-14.32.17-14.32h-26.29v25.13h-6.18V652.25h-13.54l-7.15,7.14h-43.52l-7.57,7.58h-91.68v66.47h-76.05L-1740,744.79h-25.78v17.79h-18.83V746h-16.49V733.44h-56.58V397h-34.81v-20.2h-3.48V334.17l-6.19-3.54V397h-105.95v20.11l-5.23,5.23v31.89h-21.46s1.94,286.17,0,286.17h-63.81v4h-23.83l-6.84,6.84h-23.16l-10.87-10.87h-40.3V726.7h-2.54v13.71h-3.09V703.09h-1.27v14.77h-1.27v22.55h-5.17v60.07h-161.24V1090H301.89V805.38Z"/></g><g class="cls-4"><line class="cls-5" x1="1688.87" y1="831.04" x2="1688.87" y2="828.8"/><rect class="cls-6" y="944.76" width="2174.55" height="139.68"/></g></svg>