<svg id="Capa_1" data-name="Capa 1" xmlns="http://www.w3.org/2000/svg" xmlns:xlink="http://www.w3.org/1999/xlink" viewBox="0 0 1920 1080"><defs><style>.cls-1,.cls-22,.cls-27,.cls-38,.cls-8{fill:none;}.cls-2{clip-path:url(#clip-path);}.cls-3{fill:url(#Degradado_sin_nombre_4);}.cls-4{fill:#6d6d6d;}.cls-47,.cls-5,.cls-7{opacity:0.2;}.cls-5{fill:url(#Degradado_sin_nombre_21);}.cls-6{fill:#474747;}.cls-7{fill:url(#Degradado_sin_nombre_17);}.cls-8{stroke:#282a54;}.cls-22,.cls-27,.cls-38,.cls-8{stroke-miterlimit:10;}.cls-9{fill:#ffe839;opacity:0.25;}.cls-10{fill:#2d2d2d;}.cls-11{fill:#181818;}.cls-12{fill:#424242;}.cls-13,.cls-17{fill:#ffd60a;}.cls-14{fill:#ffc300;}.cls-15{fill:#262626;}.cls-16,.cls-21,.cls-28,.cls-39,.cls-40,.cls-41,.cls-43,.cls-44{opacity:0.5;}.cls-16{fill:url(#Degradado_sin_nombre_27);}.cls-17,.cls-25{opacity:0.3;}.cls-18{fill:#707070;}.cls-19{fill:url(#Degradado_sin_nombre_28);}.cls-20{fill:url(#Degradado_sin_nombre_28-2);}.cls-21{fill:url(#Degradado_sin_nombre_26);}.cls-22,.cls-27{stroke:#1f1f3f;}.cls-22{stroke-width:2px;}.cls-23{fill:#370617;}.cls-24{fill:#6d0c34;}.cls-26,.cls-28{fill:#fff;}.cls-29{fill:#ff5938;}.cls-30{fill:#7fc296;}.cls-31{fill:#435c62;}.cls-32{fill:#324c3a;}.cls-33{fill:#598869;}.cls-34{fill:#dfe2dd;}.cls-35{fill:#c1c1c1;}.cls-36{fill:#f5f1ef;}.cls-37{fill:#324649;}.cls-38{stroke:#604242;}.cls-40{fill:url(#Degradado_sin_nombre_26-2);}.cls-41{fill:url(#Degradado_sin_nombre_26-3);}.cls-42{fill:url(#Degradado_sin_nombre_28-3);}.cls-43{fill:url(#Degradado_sin_nombre_26-4);}.cls-44{fill:url(#Degradado_sin_nombre_26-5);}.cls-45{clip-path:url(#clip-path-2);}.cls-46{clip-path:url(#clip-path-3);}.cls-47{fill:url(#Degradado_sin_nombre_17-2);}</style><clipPath id="clip-path"><rect class="cls-1" width="1920" height="1080"/></clipPath><linearGradient id="Degradado_sin_nombre_4" x1="960.56" y1="-40.45" x2="960.56" y2="1047.56" gradientUnits="userSpaceOnUse"><stop offset="0.03" stop-color="#f9b233"/><stop offset="0.08" stop-color="#f9ae32"/><stop offset="0.15" stop-color="#f7a130"/><stop offset="0.21" stop-color="#f68c2c"/><stop offset="0.27" stop-color="#f36e27"/><stop offset="0.31" stop-color="#f15a24"/></linearGradient><linearGradient id="Degradado_sin_nombre_21" x1="960.56" y1="94.83" x2="960.56" y2="928.83" gradientUnits="userSpaceOnUse"><stop offset="0.27" stop-color="#ffe839" stop-opacity="0"/><stop offset="0.32" stop-color="#ffe839" stop-opacity="0.02"/><stop offset="0.38" stop-color="#ffe839" stop-opacity="0.07"/><stop offset="0.45" stop-color="#ffe839" stop-opacity="0.16"/><stop offset="0.51" stop-color="#ffe839" stop-opacity="0.29"/><stop offset="0.58" stop-color="#ffe839" stop-opacity="0.45"/><stop offset="0.6" stop-color="#ffe839" stop-opacity="0.5"/></linearGradient><linearGradient id="Degradado_sin_nombre_17" x1="960.56" y1="-297.56" x2="960.56" y2="1996.97" gradientUnits="userSpaceOnUse"><stop offset="0.23" stop-color="#ffe839" stop-opacity="0"/><stop offset="0.3" stop-color="#ffe839" stop-opacity="0.13"/><stop offset="0.45" stop-color="#ffe839" stop-opacity="0.39"/><stop offset="0.52" stop-color="#ffe839" stop-opacity="0.5"/></linearGradient><linearGradient id="Degradado_sin_nombre_27" x1="1732.09" y1="967.13" x2="1732.09" y2="814.65" gradientUnits="userSpaceOnUse"><stop offset="0" stop-color="#ffd60a" stop-opacity="0"/><stop offset="0.19" stop-color="#ffd50a" stop-opacity="0.01"/><stop offset="0.36" stop-color="#ffd409" stop-opacity="0.06"/><stop offset="0.53" stop-color="#ffd107" stop-opacity="0.13"/><stop offset="0.7" stop-color="#ffcd05" stop-opacity="0.24"/><stop offset="0.87" stop-color="#ffc803" stop-opacity="0.37"/><stop offset="1" stop-color="#ffc300" stop-opacity="0.5"/></linearGradient><linearGradient id="Degradado_sin_nombre_28" x1="266.71" y1="754.32" x2="266.71" y2="906.55" gradientUnits="userSpaceOnUse"><stop offset="0" stop-color="#ffd60a" stop-opacity="0"/><stop offset="0.15" stop-color="#ffd208" stop-opacity="0.21"/><stop offset="0.35" stop-color="#ffcd05" stop-opacity="0.49"/><stop offset="0.54" stop-color="#ffc903" stop-opacity="0.71"/><stop offset="0.69" stop-color="#ffc601" stop-opacity="0.87"/><stop offset="0.82" stop-color="#ffc400" stop-opacity="0.96"/><stop offset="0.89" stop-color="#ffc300"/></linearGradient><linearGradient id="Degradado_sin_nombre_28-2" x1="406.31" y1="742.44" x2="406.31" y2="944.71" xlink:href="#Degradado_sin_nombre_28"/><linearGradient id="Degradado_sin_nombre_26" x1="460.24" y1="963.24" x2="460.24" y2="810.76" gradientUnits="userSpaceOnUse"><stop offset="0" stop-color="#ffd60a" stop-opacity="0"/><stop offset="0.14" stop-color="#ffd50a" stop-opacity="0.02"/><stop offset="0.34" stop-color="#ffd208" stop-opacity="0.1"/><stop offset="0.57" stop-color="#ffce06" stop-opacity="0.21"/><stop offset="0.82" stop-color="#ffc803" stop-opacity="0.37"/><stop offset="1" stop-color="#ffc300" stop-opacity="0.5"/></linearGradient><linearGradient id="Degradado_sin_nombre_26-2" x1="173.98" y1="948.13" x2="173.98" y2="797.21" xlink:href="#Degradado_sin_nombre_26"/><linearGradient id="Degradado_sin_nombre_26-3" x1="372.72" y1="803.4" x2="372.72" y2="802.02" xlink:href="#Degradado_sin_nombre_26"/><linearGradient id="Degradado_sin_nombre_28-3" x1="310.33" y1="616.42" x2="310.33" y2="707.54" xlink:href="#Degradado_sin_nombre_28"/><linearGradient id="Degradado_sin_nombre_26-4" x1="267.7" y1="959.67" x2="267.7" y2="807.19" xlink:href="#Degradado_sin_nombre_26"/><linearGradient id="Degradado_sin_nombre_26-5" x1="267.7" y1="959.67" x2="267.7" y2="807.19" xlink:href="#Degradado_sin_nombre_26"/><clipPath id="clip-path-2"><rect class="cls-1" y="-952" width="430" height="931.35"/></clipPath><clipPath id="clip-path-3"><rect class="cls-1" x="-974.3" y="-1100" width="1920" height="1080"/></clipPath><linearGradient id="Degradado_sin_nombre_17-2" x1="-13.73" y1="-1247.44" x2="-13.73" y2="1047.09" xlink:href="#Degradado_sin_nombre_17"/></defs><g class="cls-2"><rect class="cls-3" x="1.13" width="1918.87" height="1079.35"/><path class="cls-4" d="M-79.86,282.59s13.09-13.09,22.06-15.7S-29,259.41-27.15,259s29.54-7.11,33.65-7.85,24.67-9.72,33.27-15,22.8-13.45,27.29-14.58,28.41-15,41.87-15,23.55,3,34.39,2.62,26.53-7.47,37.74-18.68l0,0c15.68-4.85,17.18-6,27.64-5.23s14.58-11.21,23.55-8.6S267,197,279,208.92a.1.1,0,0,0,.05,0c15.28,8.58,4.09,4.47,15.3,8.58,10.15,3.73,18.16,8.67,23.54.63a54.33,54.33,0,0,1,7.32-8.77c6.72-6.52,12.69-11.09,17.9-12.51a11,11,0,0,0,6-4.07c5.62-7.57,12.59-16.72,16.67-16.4,4.77.37,13.74-3.27,16.54-1.31s20.19,11.22,21.31,13.18l2.8-8.69s15.14-8.41,17.11-8.41,19.06,15.7,19.06,15.7l12.62-.28,14.3,7.57,12.61,2,20.19,9.53,15.42,1.12,10.1,1.13,23.83,2.24,8.41,7.85s29.16-7.29,39.53-6.73,31.68,3.93,32.52,3.93,21.31,1.4,21.31,1.4l20.75-6.73s36.45-5.33,45.7-3.37,14,5.05,14,5.05,33.92-20.46,49.9-21.31h0c10,4.86,13,4.87,13.6,4.79a.45.45,0,0,1,.28,0c2.62,1.23,39.09,18.48,53.69,27.12,3.64-2.8,11.77-3.64,11.77-3.64l8.41,8.32,11.5,6.82,24.67.28s20.19-20.19,69.53-19.91c25,7.57,59.16,19.07,59.16,19.07h0l21.31,9.53,36.73,12.06,10.37,2.52,18.51,12.34s12.89-7.29,28.59-5.05h0c10.65-4.49,14-5.61,15.7-5.89s16.82-.56,16.82-.56l6.45,2.25h8.69l9,5.32,9,2.81,11.78,14.11h19.06l18.79,15.05,30.28,21S1334.79,285.75,1347,284a26.58,26.58,0,0,0,4.89-1.25c18.07-6.43,71.87-31.35,76.79-31.35,9.82-4.2,34.21-10.93,39.54-10.93,14.77,2.58,42.61-5.89,60.84-.28,16.26,5.33,46.26,12.34,52.15,17.66s22.19,16.74,23.5,20.84a.47.47,0,0,0,.24.28,57.63,57.63,0,0,0,9.62,3.55s25.24-4.76,38.13-1.12c9.54,7.85,28,15.42,28,15.42s33.4,10.49,53.37,14.4a68.33,68.33,0,0,1,8.07,2.1c15.5,5.07,32.49,8.06,49,6.78h0c17.64.84,27.45,4.48,49,4.2h.07c21.26,9,30.51,14.84,38.07,24.36l.05,0c11.46,8.12,10.09,14.56,38.62,14.56l.08,0c21.28,9.52,28.67,14.66,44.36,15.22,16.82.37,39.25-5.61,41.31-6.92,13.64,2.06,20.56-3,27.29,5.61s24.48,19.62,32.89,22.43,27.85,9.16,34.77,9.9,21.12,2.06,24.11,5.8,0,551.17,0,551.17H-79.86Z"/><rect class="cls-5" x="1.13" y="311.89" width="1918.87" height="283.4"/><path class="cls-6" d="M1901,743.86l-12.48-12.48h-32.77V435.1h-36.41V413.77h-25.13l-4-4h-28.43V429.9H1746V573.79h-38.49v-90.5h-28.08V469l-33,5.2V439.86H1616v-9H1600.6l-26.19-26.19h-6.58v-2.39h-.78v-7h.78v-2.69h-.78v-1.65h-2.69v1.65h-.78v2.69h.78v7h-24.61v2.39H1529.3l-17,17v75.66H1460v-16h-13V376.28h-35.53V363.12l7.77-7.77H1425v-4.42l2.73-2.73v-5.07l3.47-1.65v-5.72l-17.16-4.85v-9.45h-13V305.12h1.39v-3.38h-1.39V291.08h1.39V287.7h-1.39V277h1.39v-3.38h-3V257.75h-1.69v15.91h-3V277h1.39V287.7h-1.39v3.38h1.39v10.66h-1.39v3.38h1.39v16.34h-13.57v7.89l-17.92,6.37v3.08l3.55,3.55v4.87l3.57,3.58v3.7h4.1l8,8v12.27h-19.81V392.1h-25.66v-8.67h-10.75V370.26h-38.83v-6.94h-14.56v-9.7H1243.8v9.7h-10.4v87.73h-29.12V421.68h-27.39V398h-12V386.86h-2.69V398h-11.32v27h-19.94V527.85l-23.75,23.75v28.95h-18.42V394.62h-29.51v-8.45H999.71v-10h-7.23V364h-2.69v12.17h-4.94v-4h-2.69v4h-7.29v6.24H922.34v13h-6.5v7.8H894.52V390.46H879.14v-3.6H870.3v3.6h-4.78V401.9h-3.9V261.21H849.15v-4.72a2.35,2.35,0,0,0,0-4.32v-7.73a2.35,2.35,0,0,0,0-4.32v-7.29h-1.82v7.29a2.34,2.34,0,0,0,0,4.32v7.73a2.34,2.34,0,0,0,0,4.32v4.72h-6.76v-4.72a2.35,2.35,0,0,0,0-4.32v-7.73a2.35,2.35,0,0,0,0-4.32v-7.29h-1.82v7.29a2.34,2.34,0,0,0,0,4.32v7.73a2.34,2.34,0,0,0,0,4.32v4.72H780.49V464.83H766.31V401.51L755,390.2V367.83H745V349.94h-2.68v17.89H698.05v-5.72h-4.94v-9.36H663v6.76H649.16V255.36h-8.57v-10h-8.84v10H580.38L572.71,263V282.8H541.5v20.28h-6.76V443.77h-14v6.5H508.09v61.24l-9.23,9.23V497.08h-6.24V447.93h-7V431.8h-4.68V424h-8.84v-9.62h-4.68V376.93h-6.76v-13h-6.45V353.06h-2.69v10.87h-5.16L419.8,314.78H407.58l-28.09,48.11v53.57H351.41v6.24l-4.16,3.38H332.6V403.89l-17.51-33.28-2.6,2.08L292.9,337.32H291l-2.19-22.84v22.84h-4v-8.79h-8.84v8.79h-3.29V314.48l-2.19,22.84h-3.37l-30.86,49.24H226.15v82.69H187.49v9.19H177.44v13.69H127.68V503.4h-18V588H31L1.13,586.79V1080H2077.34V743.86Z"/><rect class="cls-7" x="1.13" y="299.64" width="1918.87" height="779.71"/><line class="cls-8" x1="1688.87" y1="831.04" x2="1688.87" y2="828.8"/><rect class="cls-9" x="688.79" y="797.51" width="3.65" height="8.91"/><rect class="cls-9" x="703.24" y="797.51" width="3.65" height="8.91"/><rect class="cls-9" x="717.69" y="797.51" width="3.65" height="8.91"/><rect class="cls-9" x="732.13" y="797.51" width="3.65" height="8.91"/><path class="cls-10" d="M2098.8,805.38V752.07h-4.59v-20h-1.13V719H2092v33.11h-2.74V739.92H2087v12.15H2051.2l-9.65,9.66H2021l-6.07-6.07h-21.14v-3.59h-56.63c-1.72,0,0-254,0-254H1923.6V434.46l-7.2-7.2h-3.58V380.31h-2.37v46.95h-4.23l-20.06,20.07h-21.09V427.26h-5.63v20.07H1831v37.58l-29.9,29.88v66.1L1780,602V745.89h-50.22V757h-14.64v14.76h-16.7V756h-22.87l-10.07-10.07h-13.71V729.5h-5.62v16.39h-6.51V729.5H1634v16.39h-36v-9.54h-22.32l-6.26-6.25-9.53-9.53H1506l-22.76-22.77h-56.43L1415,686h-39.3v16.62h-40.5v-121H1321.6V565.15H1315v-7.38h-27.44v7.38H1267.6v16.48h-69.54V527.1h-17.9v11.95h-27.08v35.16h-17.22V554h-14.77V528.86h3v-2.34h-11.53v2.34h3V554h-10.4V503.7h-1.2V554H1073.1l-48,48v56.5h-6.53V635.65h-1.2V658.5h-16.08v37H959.77V635H933V496H905.36V464.3H900V445.47h-6.71v-18H769V397h-3.1v30.42H761v-40h4.89v-3.09H761v-9.54h4.89v-3.09H761v-8.9h-6.19v64.58H738.05V548.34H659.68V529.78H637.25v-8.32H606.31v8.32h-7.47v18.56H583.5V684.72H537.86V652.24H516.6V630.45h1.92v-3.09H516.6v-3.48h-6.19v3.48h-1.92v3.09h1.92v21.79H483.17c0-6.43.17-14.31.17-14.31H457.05v25.13h-6.18V652.24H437.33l-7.15,7.15H386.66L379.09,667H287.41v66.47H211.36L200,744.78H174.24v17.8H155.41V746H138.92V733.44H82.34V397H47.53V376.81H44.05V334.17l-6.19-3.54V397H-68.09v20.12l-5.23,5.22v31.9H-94.78s1.94,286.17,0,286.17h-63.81v4h-23.83l-6.84,6.84h-23.16l-10.87-10.87h-40.3V726.7h-2.54v13.71h-3.09V703.09h-1.27v14.77h-1.27v22.55h-5.17v60.07H-438.17v289.46H2241.89V805.38Z"/><rect class="cls-11" y="944.76" width="2174.55" height="139.68"/><path class="cls-12" d="M1749.33,824.34a44.18,44.18,0,0,0,0-4.61,9,9,0,0,0-2.89-5.44l-1.7-1.77-13.58-14.09a1.2,1.2,0,0,1,1.69-1.69c2.85,2.87,15.31,14.45,17.69,17.27a12.6,12.6,0,0,1,2.43,7.89l0,2.44c.51,27.89,1.73,93.75,2.26,122.34h-8.18c.49-26.11,1.7-92.25,2.17-117.44Z"/><polygon class="cls-13" points="1737.96 804.66 1736.86 816.66 1727.42 816.66 1726.32 804.66 1737.96 804.66"/><circle class="cls-14" cx="1732.17" cy="810.03" r="2.43"/><path class="cls-11" d="M1740.2,803.38h-16.12a.24.24,0,0,1-.18-.38l3-3.86a.24.24,0,0,1,.18-.09h10.11a.24.24,0,0,1,.18.09l3,3.86A.24.24,0,0,1,1740.2,803.38Z"/><path class="cls-11" d="M1733.72,798.36h-3.28a.11.11,0,0,1-.09-.15l.31-.68.16-.33.18-.4h.08a1.23,1.23,0,0,1-.06-.39,1.07,1.07,0,1,1,2.13,0,1.23,1.23,0,0,1-.07.39h.09l.18.4.15.33.31.68A.11.11,0,0,1,1733.72,798.36Z"/><path class="cls-15" d="M1733.05,819.41v1.16a1.2,1.2,0,0,0-.89-.4,1.18,1.18,0,0,0-.88.4v-1.16Z"/><line class="cls-8" x1="1729.65" y1="804.67" x2="1730.24" y2="811.12"/><polygon class="cls-12" points="1738.57 803.38 1738.45 804.66 1725.72 804.66 1725.61 803.38 1738.57 803.38"/><line class="cls-8" x1="1733.57" y1="816.66" x2="1734.33" y2="808.39"/><path class="cls-12" d="M1733.41,821.54a1.26,1.26,0,1,1-2.5,0,1.42,1.42,0,0,1,.37-1,1.18,1.18,0,0,1,.88-.4,1.2,1.2,0,0,1,.89.4A1.46,1.46,0,0,1,1733.41,821.54Z"/><path class="cls-12" d="M1737.35,816.91l-.09.92a.23.23,0,0,1-.23.21h-9.81a.23.23,0,0,1-.23-.21l-.09-.92a.23.23,0,0,1,.24-.25h10A.23.23,0,0,1,1737.35,816.91Z"/><path class="cls-15" d="M1734,818.24l-.65,1.11a.13.13,0,0,1-.11.06h-2.19a.11.11,0,0,1-.11-.06l-.65-1.11a.13.13,0,0,1,.11-.2h3.48A.13.13,0,0,1,1734,818.24Z"/><rect class="cls-11" x="1730.66" y="798.36" width="2.83" height="0.7"/><polygon class="cls-16" points="1907.91 974.73 1556.26 974.73 1638.32 892.67 1726.33 804.66 1737.85 804.66 1907.91 974.73"/><rect class="cls-11" x="1647.9" y="904.2" width="86.6" height="1.84"/><rect class="cls-11" x="1647.9" y="906.03" width="86.6" height="14.69"/><rect class="cls-11" x="1647.9" y="924.32" width="86.6" height="8.26"/><rect class="cls-11" x="1655.97" y="901.96" width="6.39" height="2.24"/><rect class="cls-11" x="1655.97" y="906.03" width="6.39" height="40.64"/><rect class="cls-11" x="1721.61" y="901.96" width="6.39" height="2.24"/><rect class="cls-11" x="1721.61" y="906.03" width="6.39" height="40.64"/><rect class="cls-17" x="1647.9" y="904.2" width="86.6" height="1.84"/><polygon class="cls-18" points="456.01 885.99 456.01 948.13 434.1 948.13 434.1 864.08 456.01 885.99"/><rect class="cls-19" x="183.33" y="783.9" width="166.74" height="124.68"/><rect class="cls-20" x="378.52" y="781.76" width="55.57" height="165.66"/><polygon class="cls-13" points="465.15 797.23 464.05 809.22 454.62 809.22 453.51 797.23 465.15 797.23"/><circle class="cls-14" cx="459.36" cy="802.6" r="2.43"/><path class="cls-11" d="M467.39,795.94H451.27a.23.23,0,0,1-.18-.37l3-3.86a.21.21,0,0,1,.18-.09h10.11a.21.21,0,0,1,.18.09l3,3.86A.23.23,0,0,1,467.39,795.94Z"/><path class="cls-11" d="M460.91,790.92h-3.28a.1.1,0,0,1-.09-.14l.32-.69.15-.33.18-.39h.09a1.07,1.07,0,0,1-.07-.39,1.07,1.07,0,1,1,2.13,0,1.34,1.34,0,0,1-.07.39h.09l.18.39.15.33.31.69A.1.1,0,0,1,460.91,790.92Z"/><path class="cls-15" d="M460.24,812v1.16a1.18,1.18,0,0,0-1.77,0V812Z"/><line class="cls-8" x1="456.84" y1="797.23" x2="457.43" y2="803.69"/><polygon class="cls-12" points="465.76 795.94 465.64 797.23 452.91 797.23 452.8 795.94 465.76 795.94"/><line class="cls-8" x1="460.76" y1="809.22" x2="461.53" y2="800.95"/><path class="cls-12" d="M460.6,814.11a1.25,1.25,0,1,1-2.49,0,1.46,1.46,0,0,1,.36-1,1.18,1.18,0,0,1,1.77,0A1.46,1.46,0,0,1,460.6,814.11Z"/><path class="cls-12" d="M464.54,809.48l-.08.91a.25.25,0,0,1-.24.21h-9.81a.23.23,0,0,1-.23-.21l-.09-.91a.24.24,0,0,1,.24-.26h10A.24.24,0,0,1,464.54,809.48Z"/><path class="cls-15" d="M461.21,810.81l-.65,1.1a.14.14,0,0,1-.11.07h-2.19a.12.12,0,0,1-.11-.07l-.65-1.1a.14.14,0,0,1,.12-.21h3.47A.14.14,0,0,1,461.21,810.81Z"/><rect class="cls-11" x="457.86" y="790.92" width="2.83" height="0.7"/><polygon class="cls-21" points="545.92 970.84 374.56 970.84 414.55 888.77 457.43 800.77 463.05 800.77 545.92 970.84"/><line class="cls-22" x1="449.21" y1="671.15" x2="432.65" y2="687.7"/><polygon class="cls-23" points="490.61 929.2 472.4 947.41 469.95 947.41 488.16 929.2 490.61 929.2"/><polygon class="cls-24" points="469.95 929.2 488.16 947.41 490.61 947.41 472.4 929.2 469.95 929.2"/><rect class="cls-23" x="467.34" y="926.54" width="25.92" height="3.52" rx="0.54"/><polygon class="cls-23" points="543.26 929.2 525.05 947.41 522.6 947.41 540.81 929.2 543.26 929.2"/><polygon class="cls-24" points="522.6 929.2 540.81 947.41 543.26 947.41 525.05 929.2 522.6 929.2"/><rect class="cls-23" x="520" y="926.54" width="25.92" height="3.52" rx="0.54"/><polygon class="cls-23" points="527.57 910.42 490.58 947.41 485.6 947.41 522.59 910.42 527.57 910.42"/><polygon class="cls-23" points="495.76 915.61 490.77 915.61 485.59 910.42 490.58 910.42 495.76 915.61"/><polygon class="cls-24" points="527.57 947.41 522.59 947.41 490.77 915.61 495.76 915.61 527.57 947.41"/><circle class="cls-23" cx="506.58" cy="928.92" r="0.54"/><rect class="cls-23" x="480.3" y="905.01" width="52.65" height="7.15" rx="0.47"/><path class="cls-15" d="M538.1,901.37l-1.48,1.49h-8.87a.46.46,0,0,0-.46.46v53.14h-1.4a.47.47,0,0,1-.47-.47V901.85a.48.48,0,0,1,.47-.48Z"/><path class="cls-15" d="M561.12,901.85V956a.48.48,0,0,1-.48.47h-3.39a.47.47,0,0,1-.47-.47v-8.24a.47.47,0,0,0-.48-.47H530.41a.47.47,0,0,0-.48.47V956a.47.47,0,0,1-.48.47h-2.16V903.32a.46.46,0,0,1,.46-.46h8.87l1.48-1.49h22.54A.49.49,0,0,1,561.12,901.85Z"/><rect class="cls-12" x="529.93" y="905.51" width="26.85" height="37.38" rx="1.44"/><path class="cls-17" d="M538.1,901.37l-1.48,1.49h-8.87a.46.46,0,0,0-.46.46v53.14h-1.4a.47.47,0,0,1-.47-.47V901.85a.48.48,0,0,1,.47-.48Z"/><g class="cls-25"><path class="cls-26" d="M553.88,913.54h0Z"/><path class="cls-26" d="M554,913.55Z"/><path class="cls-26" d="M536.93,911.41h0l0,0Z"/><path class="cls-26" d="M537.48,913.76Z"/><path class="cls-26" d="M553.1,913.59h0Z"/><path class="cls-26" d="M536,911.27Z"/><path class="cls-26" d="M550.62,913.66h0Z"/><path class="cls-26" d="M538.31,913.61l0,0Z"/><path class="cls-26" d="M553.54,913.57h0Z"/><path class="cls-26" d="M540.36,912.94l0,0h0l0,.05Z"/><path class="cls-26" d="M554,913.61l.2,0a1.48,1.48,0,0,0-.21,0h-.13a.33.33,0,0,0,.14,0l-.24,0s-.22,0-.17,0h-.15l.18,0c.25,0,0,0,.06,0h.19s.07,0-.05,0a1,1,0,0,1,.27,0H554s.14,0,0,0c0,0-.08,0,0,0s-.23,0-.16,0l-.28,0s.05,0,.08,0h-.15c-.16,0-.26,0-.39,0l.21,0c-.08,0,0,0-.19,0s0,0,0,0l-.11,0h0c-.17,0,0,0-.23,0,.14,0,.12,0,.24,0s-.14,0-.17,0a1.22,1.22,0,0,0-.27,0l.14,0c.08,0,0,0-.06,0s0,0-.09,0h0l-.18,0c-.17,0-.38,0-.5,0h0l-.33,0,.16,0-.48.05h.2a2.69,2.69,0,0,1-.31,0s0,0,0,0l-.25,0s0,0,.19,0,.26,0,.36,0h-.06l.3,0h0l.2,0a.84.84,0,0,0-.27,0c-.16,0-.23,0-.33,0s-.1,0,0,0h0a1,1,0,0,1-.23.06l-.33,0c.11,0,.21,0,.19,0s-.21,0-.18,0a2,2,0,0,1-.35,0l.33,0h-.22v0c-.1,0-.31,0-.5,0h0a1.88,1.88,0,0,0-.33.05s0,0,0,0a1.48,1.48,0,0,1-.21,0c.1,0-.07,0,0,0l-.26,0s.27,0,.14,0-.11,0,0,0h-.36l-.26,0a.76.76,0,0,1,.16,0l-.1,0h-.23s.16,0,.14,0a1.84,1.84,0,0,1-.26,0h0a4.59,4.59,0,0,0-.46,0h-.25s0,0-.08,0,.08,0-.06,0l-.18,0h0c-.27,0-.47,0-.76.06a.81.81,0,0,1,.27,0c-.08,0-.21,0-.33,0l-.18,0c-.13,0-.09,0-.11,0a2.19,2.19,0,0,1-.33,0h0l-.17,0s0,0,0,0h0c.17,0,.38,0,.55,0,0,0,0,0,0,0s-.06,0-.06,0-.1,0,0,0a1.31,1.31,0,0,1-.31,0c-.1,0,.1,0,.16,0h-.16v0c-.17,0,0,0-.08,0a1.48,1.48,0,0,1-.21,0h0a2.85,2.85,0,0,0-.29,0h-.06c.15,0,.19,0,.27,0-.21,0,.06,0,.13-.05h-.24c-.14,0-.3,0-.43,0s.06,0,0,0l-.45,0h-.09c-.38,0-.53,0-1,.07l.06,0-.21,0c-.11,0-.37,0-.51,0a1.51,1.51,0,0,0-.34,0s0,0,0,0l-.35,0h-.69a1.41,1.41,0,0,1-.35,0h0l-.11,0,0,0-.06,0,0,0,0,0,0,0,0,0,0,0,0,0a.08.08,0,0,1,0,0v0h0v0a.06.06,0,0,1,0,0v-.1a.45.45,0,0,1,0-.12s0-.07,0-.05,0,.08,0,.08v-.23a.23.23,0,0,0,0-.09h0v.1s0,0,0,0a.66.66,0,0,0-.12-.27.24.24,0,0,0-.08-.09l0,0,0,0-.19-.09h.06l0,0h0l.11.06,0,0h0l0,0,0,0-.06-.06-.14-.08-.14-.06-.07,0h-.4c-.06,0,0,0,0,0l-.25,0h-.07l-.06,0s-.06,0-.07,0l-.07,0h0l0,0,0,0-.06,0,0,0a2.2,2.2,0,0,0-.32.21l-.29.23-.19.15-.08.07-.08.05.09-.05s0,0,0,0l-.07.05-.08.06-.07,0h0l0,0h0l-.05,0h0c-.06,0-.13,0-.13,0l-.13,0-.17,0s0,0,.05,0h-.32l-.13,0h-.06l-.07,0h0l0,0,0,0h0a.19.19,0,0,1-.09-.09.13.13,0,0,1,0-.07l0,0v-.08h0a.22.22,0,0,0,0-.08l0,0v.12s0,0,0,.08a.37.37,0,0,1,0-.12.4.4,0,0,1,0-.15,1.51,1.51,0,0,1,.09-.18l.13-.15a1.89,1.89,0,0,1,.24-.26,1.88,1.88,0,0,0,.18-.21v0a1.63,1.63,0,0,0,.23-.29.94.94,0,0,0,.1-.23.66.66,0,0,0,0-.14.49.49,0,0,0,0-.12.34.34,0,0,0,0-.12l0-.06,0,0a.71.71,0,0,0-.15-.15h0l0,0-.23-.1a1.28,1.28,0,0,0-.28-.07,1.25,1.25,0,0,0-.46,0c-.07,0-.06,0,0,0H536c-.07,0-.1,0-.18,0s0,0-.07,0l-.18,0h0l-.11,0h0l-.23,0-.23.06-.24.07-.24.08a6.23,6.23,0,0,0-.91.39l.1-.06-.15.08-.12.07h0l-.1,0,0,0,0,0-.12.08,0,0-.07,0,0,0-.11.07-.05,0,0,0-.11.1h0l0,0,0,0-.05,0-.09.07,0,0,0,0,0,0,0,0s-.06.07-.11.12,0,0,.19-.1l.06-.06,0,0a.61.61,0,0,0,.12-.09l.13-.1,0,0h0l0,0,.08-.06c-.06.06.13-.09,0,0l.06,0,.09-.06.1-.07.09,0,0,0,.11-.06h.05l0,0h0s0,0,.09,0-.09,0-.07,0l.14-.08-.06,0,.06,0,0,0h0l-.06,0,0,0c.14-.07,0,0,.08,0s0,0,.06,0l.14-.07-.07,0,.11,0h0l0,0,.1,0,.06,0,.07,0,0,0,.22-.08c.09,0,0,0,.16,0l.07,0,.1,0,.11,0s0,0,0,0l.12,0c.17,0,0,0,.09,0l0,0h.08l.14,0-.07,0,.09,0h.3l0,0s.16,0,.14,0h.4s0,0,0,0h0l.13,0,.11,0c.05,0,.06,0,.07,0h0a.49.49,0,0,1,.13.06s.08,0,.06,0l0,0,0,0h0l.06,0h.07s0,0,0,0l.14.08,0,0h0s0,0,0,0H537l0,0h0l.1.05h0l0,0h0l0,0,0,0,0,0,0,0v0h0a.43.43,0,0,0,0,.05,0,0,0,0,1,0,0h0a0,0,0,0,0,0,0,.17.17,0,0,1,0,.12l0,.11s0,0,0,0h0v0a.15.15,0,0,1,0,.07s0,0,0,0l0,0a.91.91,0,0,1-.11.16l-.12.13c-.08.08-.17.16-.25.25l.09-.07,0,0c.07-.06,0,0,0,.08s-.12.12-.08.07l-.1.11s.09-.08,0,0a.6.6,0,0,1-.08.08s0,0,0,0l-.08.1s0,0,0,0,0,0,0,0v0l.05-.1-.05.07s0,0,0,0a.64.64,0,0,0-.08.14l0-.07a.54.54,0,0,0-.07.13s0,.08,0,.13v0a.13.13,0,0,1,0,.06v.14l0,.12a.43.43,0,0,1,0,0l0,0v0a.92.92,0,0,0,.11.15l0-.05.1.09,0,0,0,0,0,0h0l0,0h0l0,0h.08l.19,0h.19l.15,0,.17,0a1.38,1.38,0,0,1-.2,0,.23.23,0,0,0,.14,0l.2,0,.2-.09h0l0,0,.06,0,.09-.06s0,0,0-.08l.07,0,.07,0,.06,0s.15-.1,0,0a.62.62,0,0,0-.12.08l.23-.14-.1.08s0,0,0,0,.05,0,0,0l.07-.07h0l.16-.13.09-.08.08,0s0,0,0,0l.08-.05,0,0,0,0,.05,0,.07,0h0s0,0,0,0l.11,0,.12,0h0l-.07,0-.05,0a1.38,1.38,0,0,1,.27-.08c.08,0,0,0-.12,0l.17,0,.12,0h0c-.08,0-.06,0,0,0s0,0,0,0h0a1.22,1.22,0,0,0-.17,0h0l-.15,0a.23.23,0,0,0-.12.06l.12,0,.12,0a.53.53,0,0,1,.2,0,1.5,1.5,0,0,1,.3,0l0,0h0l0,0,0,0a.38.38,0,0,1,.13.06s0,0,.06,0l0,0h0s0,0,0,0,0,0-.06,0l0,0h0l0,0,0,0h0s0,0,0,0a.67.67,0,0,1,0,.07l-.06-.07-.11-.08,0,0a.16.16,0,0,1,.06,0s0,0,0,0h0a.34.34,0,0,1,.09.21.61.61,0,0,1,0,.15,1,1,0,0,0,0,.17s0,0,0,0a.43.43,0,0,1,0-.05s0-.08,0-.12,0-.13,0-.1v.18a.47.47,0,0,0,0,.2v0a.06.06,0,0,1,0,0l0,.07s0,0,0,.07v0h0v0a.05.05,0,0,1,0,0h0v0l0,0,0,.06.05.05,0,0h0l0,0,0,0h0a1.48,1.48,0,0,0,.18.09,1,1,0,0,0,.23.07l-.08,0-.13,0-.07,0s0,0,0,0l.06,0,.06,0,.06,0h.06l.26,0h.18c.09,0,.06,0,0,0s-.09,0,0,0h-.21l.11,0a2.54,2.54,0,0,0,.26,0h-.07s.08,0,.11,0l0,0a1.7,1.7,0,0,1-.24,0h.55c-.06,0-.17,0-.08,0l.06,0h.05c.08,0,0,0,.1,0s.06,0,0,0l.2,0c-.12,0-.12,0,0,0s.29,0,.4,0h.24s-.26,0-.25,0,.06,0,0,0c.12,0,0,0,.1,0s.2,0,.13,0c.1,0,.12,0,.19,0s0,0,0,0h.12s0,0-.05,0,.21,0,.2,0,.19,0,.28,0-.17,0-.2,0,.41,0,.61,0,0,0,0,0c-.16,0-.2,0-.34,0a3.89,3.89,0,0,0,.51,0c.16,0,.18,0,.38,0h.09s-.09,0,0,0,.1,0,.08,0h0c.19,0,.14,0,.3,0,0,0,0,0-.09,0s.07,0,.15,0h.12s-.14,0-.16,0h.11l.16,0c-.11,0,0,0,0,0h.21l.25,0c-.11,0,0,0,0,0h.16c-.17,0,0,0,0,0a.82.82,0,0,1-.24,0c.18,0,.25,0,.4,0H546s.13,0,.24,0-.09,0,0,0h.14c.15,0,0,0,.17,0h-.08l.18,0-.21,0s.1,0,.15,0h.27s-.21,0-.18.06l.52,0c.15,0,.13,0,.11,0h.06l.49,0c.11,0,.06,0,0,0h.1a.65.65,0,0,1,.22,0h.19a.38.38,0,0,1-.13,0h0l-.14,0c.16,0,.26,0,.26,0,.16,0-.14,0,.06,0s.48,0,.63,0l.44,0s.12,0,.11,0c-.18,0-.33,0-.48,0s0,0-.08,0h-.15c.16,0,0,0,.25-.05,0,0-.19,0-.27,0s0,0,0,0l.23,0s0,0,0,0l.22,0c.07,0,.08,0,.05,0a1.94,1.94,0,0,1,.32,0c.16,0,0,0-.06,0h-.15s.18,0,.21,0,.23,0,.34,0l-.13,0H550c-.07,0-.07,0-.17,0l.49,0s.06,0,0,0a1.65,1.65,0,0,1,.38,0c.15,0-.14,0,0,0a.38.38,0,0,0,.15,0h-.29c.08,0,.07,0,.09,0h-.13s.16,0,.22,0,0,0-.05,0a2.44,2.44,0,0,1,.38,0H551s.12,0,.14,0h.09a1.5,1.5,0,0,0,.29,0c.12,0,.25,0,.21,0s0,0,0,0a1.32,1.32,0,0,0,.26,0h-.07c.15,0,0,0,.17,0,0,0,0,0,0,0h.16s.13,0,0,0c.13,0,.2,0,.29,0s.12,0,.06,0c.13,0,.22,0,.19,0s-.12,0-.11,0l.23,0c.06,0,.13,0,.14,0s.22,0,.28,0a.54.54,0,0,1-.17,0h0l.1,0c-.09,0,0,0-.15,0s.27-.05.14-.06-.08,0-.16,0h0l-.19,0h-.46s.06,0,0,0h-.15a.49.49,0,0,1,.13,0v0a1.77,1.77,0,0,1,.34-.06l.33,0H553c.14,0,0,0,.21,0s.21,0,.11.06l.29,0c.07,0,0,0,0,0s.19,0,.13,0h.08l.22,0Z"/><path class="cls-26" d="M550.82,913.82h0Z"/><path class="cls-26" d="M553.1,913.59h0Z"/><path class="cls-26" d="M540.57,914.17h0Z"/><path class="cls-26" d="M543,914.31h0Z"/><path class="cls-26" d="M553.21,913.69h0Z"/><path class="cls-26" d="M553.88,924.24h0Z"/><path class="cls-26" d="M554,924.25Z"/><path class="cls-26" d="M536.93,922.11h0l0,0Z"/><path class="cls-26" d="M537.48,924.46Z"/><path class="cls-26" d="M553.1,924.29h0Z"/><path class="cls-26" d="M536,922Z"/><path class="cls-26" d="M550.62,924.36h0Z"/><path class="cls-26" d="M538.31,924.31l0,0S538.3,924.3,538.31,924.31Z"/><path class="cls-26" d="M553.54,924.26h0Z"/><path class="cls-26" d="M540.36,923.64l0,0h0l0,0Z"/><path class="cls-26" d="M554,924.31l.2,0a1.48,1.48,0,0,0-.21,0s0,0,.08,0h-.21a.42.42,0,0,0,.14,0l-.24,0s-.22,0-.17,0h-.15l.18,0c.25,0,0,0,.06,0h.19s.07,0-.05,0a1,1,0,0,1,.27,0H554s.14,0,0,0c0,0-.08,0,0,0s-.23,0-.16,0l-.28,0s.05,0,.08,0l-.21,0h.06c-.16,0-.26,0-.39,0l.21,0c-.08,0,0,0-.19,0s0,0,0,0l-.11,0h0c-.17,0,0,0-.23,0a1.57,1.57,0,0,0,.24,0c.08,0-.14,0-.17,0a1.22,1.22,0,0,0-.27,0l.14,0c.08,0,0,0-.06,0s0,0-.09,0h0l-.18,0a4.62,4.62,0,0,1-.5,0l0,0-.33,0,.16,0-.48,0h.2a2.69,2.69,0,0,1-.31,0s0,0,0,0a2.13,2.13,0,0,0-.25,0s0,0,.19,0,.26,0,.36,0h-.06l.3,0h0l.05,0h-.06l.2,0a.76.76,0,0,0-.27.06c-.16,0-.23,0-.33,0s-.1,0,0,0h.16a1.29,1.29,0,0,0-.2,0,.72.72,0,0,1-.23,0,1.94,1.94,0,0,1-.33,0c.11,0,.21,0,.19,0s-.21,0-.18,0h-.35c.12,0,.23,0,.33,0s0,0,0,0h-.19v0c-.1,0-.31,0-.5,0h0c-.16,0-.17,0-.33,0,0,0,0,0,0,0h-.21c.1,0-.07,0,0,0s-.17,0-.26,0,.27,0,.14,0-.11,0,0,0h-.36l-.26,0a.76.76,0,0,1,.16,0l-.1,0h-.23s.16,0,.14,0a1.84,1.84,0,0,1-.26,0h0a2.77,2.77,0,0,0-.46,0s.11,0,.08,0h-.33s0,0-.08,0,.08,0-.06,0l-.18,0h0c-.27,0-.47,0-.76.07a.81.81,0,0,1,.27,0c-.08,0-.21,0-.33,0s-.19,0-.18,0h-.11l-.33,0h0l-.17,0s0,0,0,0h0c.17,0,.38,0,.55,0,0,0,0,0,0,0h-.06s-.1,0,0,0a1.12,1.12,0,0,1-.31,0c-.1,0,.1,0,.16,0l-.16,0v0c-.17,0,0,0-.08,0s-.16,0-.21,0h0l-.29,0h-.06a1.56,1.56,0,0,0,.27,0c-.21,0,.06,0,.13,0h-.24c-.14,0-.3,0-.43,0s.06,0,0,0l-.45,0a.21.21,0,0,1-.09,0c-.38,0-.53.05-1,.06h.06l-.21,0c-.11,0-.37,0-.51,0a2.68,2.68,0,0,0-.34,0s0,0,0,0l-.35,0h-.69a2.11,2.11,0,0,1-.35-.05h0a.2.2,0,0,1-.11,0l0,0-.06,0,0,0,0,0,0,0,0,0,0,0,0,0,0,0v0h0v-.05a.07.07,0,0,1,0,0v-.09a.45.45,0,0,1,0-.12s0-.07,0,0,0,.08,0,.08v-.23a.2.2,0,0,0,0-.09s0,0,0,0v.1l0,0a.62.62,0,0,0-.12-.26.39.39,0,0,0-.08-.1l0,0,0,0-.19-.09h.06l0,0h0l.11.06h0l0,0,0,0,0,0-.06-.06-.14-.09-.14-.05-.07,0h-.36l0,0c-.06,0,0,0,0,0l-.25,0h-.07l-.06,0H539l-.07,0,0,0h0l0,0-.06,0,0,0a2.27,2.27,0,0,0-.32.22l-.29.23a1.57,1.57,0,0,0-.19.15l-.08.06-.08.06.09,0s0,0,0,0l-.07,0-.08.05-.07,0h0l0,0h0l0,0-.05,0h0c-.06,0-.13,0-.13,0l-.13,0-.17,0h-.27l-.13,0h0l0,0-.07,0h0l0,0,0,0h0a.18.18,0,0,1-.09-.1.09.09,0,0,1,0-.06l0,0v-.08h0a.22.22,0,0,0,0-.08h0v.13a.36.36,0,0,0,0,.07.27.27,0,0,1,0-.11.5.5,0,0,1,0-.16s.06-.11.09-.17l.13-.15a1.89,1.89,0,0,1,.24-.26,1.24,1.24,0,0,0,.18-.22v0a1.63,1.63,0,0,0,.23-.29.87.87,0,0,0,.1-.24.53.53,0,0,0,0-.13.62.62,0,0,0,0-.13.56.56,0,0,0,0-.12l0,0,0-.05a.71.71,0,0,0-.15-.15h0l0,0-.23-.09-.28-.08a1.44,1.44,0,0,0-.46,0c-.07,0-.06,0,0,0h-.28s.14,0,.08,0l-.18,0-.07,0-.18,0h0l-.11,0h0l-.23,0L535,922l-.24.07-.24.07a6.26,6.26,0,0,0-.91.4l.1-.06-.15.08-.12.07h0l-.1,0,0,0,0,0a.28.28,0,0,1-.12.08h0l-.07,0,0,0-.11.07-.05,0,0,0-.11.09,0,0,0,0,0,0-.05,0-.09.07,0,0,0,0,0,0,0,0s-.06.08-.11.13,0,0,.19-.11l.06,0,0,0a.61.61,0,0,0,.12-.09l.13-.1,0,0h0l0,0,.08-.06c-.06.05.13-.09,0,0l.06,0,.09-.06.1-.07.09-.05s0,0,0,0,.08-.06.11-.06l0,0h0l.09-.05s-.09,0-.07,0l.14-.08-.06,0,.06,0,0,0h0l-.06,0,0,0c.14-.07,0,0,.08,0s0,0,.06,0l.14-.06-.07,0,.11,0h0l0,0,.1,0,.06,0,.07,0,0,0,.22-.08c.09,0,0,0,.16,0,0,0,0,0,.07,0l.1,0H535s0,0,0,0,0,0,.12,0,0,0,.09,0l0,0h.08l.14,0-.07,0h.22l.12,0h.09s.16,0,.14,0l.14,0h.26s0,0,0,0h0l.13,0,.11,0h.08l.13,0s.08,0,.06.05l0,0,0,0h0l.06,0h0l0,0h0s0,0,0,0a.41.41,0,0,1,.14.08s0,0,0,0a0,0,0,0,1,0,0s0,0,0,0H537l0,0s0,0,0,0l.1.06h0l0,0h0l0,0,0,0,0,0,0,0v0h0a.43.43,0,0,0,0,0v0h0s0,0,0,0a.17.17,0,0,1,0,.12l0,.11s0,0,0,0v0h0a.22.22,0,0,1,0,.08s0,0,0,0l0,0a.91.91,0,0,1-.11.16l-.12.13a3,3,0,0,0-.25.25l.09-.07,0,0c.07-.06,0,0,0,.08s-.12.12-.08.07l-.1.11s.09-.08,0,0a.6.6,0,0,1-.08.08s0,0,0,0l-.08.1s0,0,0,0l0,0v0s0-.07.05-.1l-.05.06s0,0,0,0l-.08.13,0-.06a.75.75,0,0,0-.07.12c0,.05,0,.09,0,.13V924a.13.13,0,0,1,0,.06v.13a1,1,0,0,0,0,.12.43.43,0,0,0,0,0l0,0v0a.92.92,0,0,0,.11.15l0,0,.1.09,0,0,0,0,0,0h0l0,0h.06l0,0h0l.19,0s.06,0,0,0h.14l.15,0,.17,0-.2,0a.38.38,0,0,0,.14,0l.2,0,.2-.1h0l0,0,.06,0,.09-.07s0,0,0-.08l.07,0,.07,0,.06,0s.15-.1,0,0-.07,0-.12.07a1.59,1.59,0,0,0,.23-.13l-.1.08s0,0,0,0,.05,0,0,0l.07-.07,0,0,.16-.12.09-.08.08,0s0,0,0,0l.08,0,0,0,0,0,.05,0,.07,0h0l0,0,.11-.05.12,0h0l-.07,0h-.05l.27-.07c.08,0,0,0-.12,0l.17,0,.12,0h0c-.08,0-.06,0,0,0s0,0,0,0h0a1.22,1.22,0,0,0-.17,0h0l-.15,0a.33.33,0,0,0-.12.05l.12,0,.12,0a.53.53,0,0,1,.2,0,.76.76,0,0,1,.3,0l0,0h0l0,0,0,0a.38.38,0,0,1,.13.06s0,0,.06,0h0l0,0s0,0,0,0,0,0-.06,0l0,0h0l0,0,0,0h0s0,0,0,0a.67.67,0,0,1,0,.07l-.06-.07-.11-.08,0,0,.06.06s0,0,0,0h0l.06.09a.35.35,0,0,1,0,.12.61.61,0,0,1,0,.15,1,1,0,0,0,0,.17,0,0,0,0,1,0,0,.43.43,0,0,1,0,0s0-.08,0-.12,0-.13,0-.1v.18a.47.47,0,0,0,0,.2v0s0,0,0,0l0,.07s0,0,0,.06v0h0v0l0,0h0v0l0,0s0,.05,0,.06,0,0,.05.06l0,.05h0l0,0,0,0h0l.18.09.23.07-.08,0a.5.5,0,0,1-.13,0l-.07,0s0,0,0,0l.06,0,.06,0,.06,0h.06l.26,0h.18c.09,0,.06,0,0,0s-.09,0,0,0h-.21l.11,0h.3l0,0a1.91,1.91,0,0,1-.24,0h.35s0,0-.06,0h.26c-.06,0-.17,0-.08,0l.06,0h.05c.08,0,0,0,.1,0s.06,0,0,0a1.2,1.2,0,0,0,.2,0c-.12,0-.12,0,0,0a2.85,2.85,0,0,1,.4,0l.08,0s.1,0,.16,0-.26,0-.25,0,.06,0,0,0c.12,0,0,0,.1,0s.2,0,.13,0l.19,0s0,0,0,0h.07s.21,0,.2,0,.19,0,.28,0-.17,0-.2,0,.41,0,.61-.05,0,0,0,0c-.16,0-.2,0-.34,0l.51,0c.16,0,.18,0,.38,0h.09s-.09,0,0,0h.07a1.43,1.43,0,0,0,.3,0h-.09s.07,0,.15,0h.12s-.14,0-.16,0h.11l.16,0c-.11,0,0,0,0,0a.72.72,0,0,1,.21,0l.25,0c-.11,0,0,0,0,0h.16c-.17,0,0,0,0,0a1.44,1.44,0,0,1-.24,0c.18,0,.25,0,.4,0H546l.24,0s-.09,0,0,0h.14c.15,0,0,0,.17,0h-.08l.18,0-.21,0s.1,0,.15,0h.27s-.21,0-.18.06l.52,0c.15,0,.13,0,.11,0h.06l.49,0c.11,0,.06,0,0,0h.1a.65.65,0,0,1,.22,0h.19a.38.38,0,0,1-.13,0h0l-.14,0c.16,0,.26,0,.26,0,.16,0-.14,0,.06,0s.48,0,.63,0l.44,0s.12,0,.11,0c-.18,0-.33,0-.48,0l-.08,0h-.15c.16,0,0,0,.25,0a1.32,1.32,0,0,0-.27,0s0,0,0,0l.23,0s0,0,0,0l.22,0c.07,0,.08,0,.05,0a1.2,1.2,0,0,1,.32,0c.16,0,0,0-.06,0h-.15s.18,0,.21,0,.23,0,.34,0l-.13,0H550a1.46,1.46,0,0,1-.17,0l.49,0s.06,0,0,0a1.65,1.65,0,0,1,.38,0c.15,0-.14,0,0,0h-.14c.08,0,.07,0,.09,0h-.13s.16,0,.22,0,0,0-.05,0l.38,0c.06,0,0,0-.08,0h0l.34,0-.14,0a1,1,0,0,0,.29,0c.12,0,.25,0,.21,0s0,0,0,0,.17,0,.26,0h-.07c.15,0,0,0,.17,0,0,0,0,0,0,0h.16s.13,0,0,0c.13,0,.2,0,.29,0s.12,0,.06,0c.13,0,.22,0,.19,0s-.12,0-.11,0h.37c.08,0,.22,0,.28,0a.54.54,0,0,1-.17,0h0l.1,0c-.09,0,0,0-.15,0s.27,0,.14-.06-.08,0-.16,0h0l-.19,0s0,0,0,0h-.51s.06,0,0,0h-.15l.13,0h0a1.77,1.77,0,0,1,.34-.06,1.55,1.55,0,0,1,.33,0H553c.14,0,0,0,.21,0s.21,0,.11.06l.29,0c.07,0,0,0,0,0s.19,0,.13,0h.08l.22,0Z"/><path class="cls-26" d="M550.82,924.52h0Z"/><path class="cls-26" d="M553.1,924.29h0Z"/><path class="cls-26" d="M540.57,924.87h0Z"/><path class="cls-26" d="M543,925Z"/><path class="cls-26" d="M553.21,924.39h0Z"/><path class="cls-26" d="M553.88,934.94h0Z"/><path class="cls-26" d="M554,935Z"/><path class="cls-26" d="M536.93,932.81h0l0,0Z"/><path class="cls-26" d="M537.48,935.16Z"/><path class="cls-26" d="M553.1,935h0Z"/><path class="cls-26" d="M536,932.66h0Z"/><path class="cls-26" d="M550.62,935.06h0Z"/><path class="cls-26" d="M538.31,935l0,0Z"/><path class="cls-26" d="M553.54,935h0Z"/><path class="cls-26" d="M540.36,934.34l0,0h0l0,0Z"/><path class="cls-26" d="M554,935l.2,0a1.48,1.48,0,0,0-.21,0s0,0,.08,0h-.21a.42.42,0,0,0,.14,0l-.24,0s-.22,0-.17,0h-.15l.18,0c.25,0,0,0,.06,0l.19,0s.07,0-.05,0l.27,0H554s.14,0,0,0c0,0-.08,0,0,0h-.16l-.28,0s.05,0,.08,0l-.21,0h.06c-.16,0-.26,0-.39,0a1.3,1.3,0,0,1,.21,0c-.08,0,0,0-.19,0s0,0,0,0l-.11,0s0,0,0,0c-.17,0,0,0-.23,0a1.66,1.66,0,0,0,.24,0c.08,0-.14,0-.17,0a1.22,1.22,0,0,0-.27,0c.08,0,0,0,.14,0s0,0-.06,0,0,0-.09,0h0l-.18,0a4.9,4.9,0,0,1-.5,0l0,0-.33,0,.16,0a3.08,3.08,0,0,0-.48,0h.2c-.13,0-.15,0-.31,0,0,0,0,0,0,0l-.25,0s0,0,.19,0,.26,0,.36,0h-.06l.3,0h0l.05,0h-.06l.2,0a.76.76,0,0,0-.27.06,1.79,1.79,0,0,0-.33,0s-.1,0,0,0,.15,0,.16,0h-.2a.72.72,0,0,1-.23.05l-.33,0c.11,0,.21,0,.19,0s-.21,0-.18,0a1.3,1.3,0,0,1-.35,0h.33s0,0,0,0h-.19v0c-.1,0-.31,0-.5,0h0c-.16,0-.17,0-.33.05,0,0,0,0,0,0h-.21c.1,0-.07,0,0,0s-.17,0-.26,0,.27,0,.14,0-.11,0,0,0h-.36l-.26,0a.7.7,0,0,1,.16,0l-.1,0h-.23s.16,0,.14,0-.15,0-.26,0h0a2.77,2.77,0,0,0-.46,0s.11,0,.08,0h-.33s0,0-.08,0,.08,0-.06,0l-.18,0h0c-.27,0-.47,0-.76.06l.27,0c-.08,0-.21,0-.33,0s-.19,0-.18,0-.09,0-.11,0a2,2,0,0,1-.33,0h0l-.17,0s0,0,0,0h0c.17,0,.38,0,.55,0,0,0,0,0,0,0h-.06s-.1,0,0,0a1.12,1.12,0,0,1-.31,0c-.1,0,.1,0,.16,0l-.16,0v0c-.17,0,0,0-.08,0a.74.74,0,0,1-.21,0h0l-.29,0h-.06a1.35,1.35,0,0,0,.27,0c-.21,0,.06,0,.13-.05a1.05,1.05,0,0,1-.24,0c-.14,0-.3,0-.43,0s.06,0,0,0l-.45,0c-.08,0-.07,0-.09,0-.38,0-.53.06-1,.07h.06a.62.62,0,0,0-.21,0c-.11,0-.37,0-.51,0s-.2,0-.34,0,0,0,0,0l-.35,0h-.69a2.11,2.11,0,0,1-.35,0h0l-.11,0,0,0-.06,0,0,0,0,0,0,0,0,0,0,0,0,0,0,0v0h0v-.06a.09.09,0,0,1,0-.05V935a.34.34,0,0,1,0-.11c0-.05,0-.08,0-.05s0,.08,0,.07v-.22a.2.2,0,0,0,0-.09s0,0,0,0v.1l0,0a.62.62,0,0,0-.12-.26.39.39,0,0,0-.08-.1l0,0,0,0-.19-.1h.06l0,0h0l.11.06h0l0,0,0,0s0,0,0,0l-.06-.06-.14-.09-.14,0-.07,0h-.06s0,0,0,0h-.29l0,0c-.06,0,0,0,0,0l-.25,0h-.07l-.06,0H539l-.07,0,0,0h0l0,0-.06,0,0,0a2.27,2.27,0,0,0-.32.22l-.29.22-.19.16-.08.06-.08.06.09-.06s0,0,0,0a.22.22,0,0,1-.07.06l-.08,0-.07,0h0l0,0h0l0,0-.05,0h0l-.13,0-.13,0-.17,0h-.27l-.13,0h-.06l-.07,0h0l0,0,0,0h0a.22.22,0,0,1-.09-.1.09.09,0,0,1,0-.07l0,0v-.09a.16.16,0,0,0,0-.07h0v.13s0,0,0,.07a.36.36,0,0,1,0-.11.5.5,0,0,1,0-.16,1.4,1.4,0,0,1,.09-.17c0-.06.09-.11.13-.16L537,934a1,1,0,0,0,.18-.21v0a1.63,1.63,0,0,0,.23-.29.87.87,0,0,0,.1-.24.85.85,0,0,0,0-.26.56.56,0,0,0,0-.12l0-.05,0,0a.71.71,0,0,0-.15-.15h0l0,0-.23-.1-.28-.07a1.44,1.44,0,0,0-.46,0c-.07,0-.06,0,0,0h.08a.57.57,0,0,0-.18,0h-.18s.14,0,.08,0l-.18,0-.07,0-.18,0h0s-.07,0-.11,0h0l-.23.05-.23.06-.24.07-.24.07a6.26,6.26,0,0,0-.91.4l.1-.06-.15.08-.12.07h0l-.1.05,0,0,0,0-.12.08h0l-.07,0,0,0-.11.07-.05,0,0,0-.11.09,0,0h0l0,0-.05,0-.09.06,0,.05,0,0,0,0,0,0s-.06.08-.11.13,0,0,.19-.11l.06,0,0,0a.61.61,0,0,0,.12-.09.45.45,0,0,1,.13-.1l0,0,0,0h0l.08-.06c-.06,0,.13-.1,0,0l.06,0,.09-.06.1-.07.09,0,0,0a.3.3,0,0,1,.11-.07h.08v0l.09,0s-.09,0-.07,0l.14-.08-.06,0,.06,0,0,0h0l-.06,0,0,0c.14-.07,0,0,.08,0l.06,0a.46.46,0,0,0,.14-.07s0,0-.07,0l.11,0h0l0,0,.1-.05.06,0,.07,0,0,0,.22-.08c.09,0,0,0,.16,0,0,0,0,0,.07,0s.1,0,.1,0l.11,0s0,0,0,0,0,0,.12,0,0,0,.09,0l0,0h.08l.14,0-.07,0,.09,0h.77s.06,0,.11,0h0l.13,0,.11,0h.08l.13,0s.08,0,.06,0l0,0h-.09l.06,0h0l0,0s0,0,0,0a.41.41,0,0,1,.14.08l0,0h0l0,0h0s0,0,0,0h0l.1.05h0l0,0h0l0,0,0,0,0,0,0,0a0,0,0,0,0,0,0h0v0a.1.1,0,0,0,0,0v0h0s0,0,0,0a.17.17,0,0,1,0,.12l0,.1s0,0,0,0h0v0a.22.22,0,0,1,0,.08s0,0,0,0,0,0,0,0a.83.83,0,0,1-.11.15l-.12.13c-.08.09-.17.16-.25.26l.09-.08,0,0c.07-.06,0,0,0,.07s-.12.12-.08.07l-.1.12s.09-.09,0,0l-.08.08s0,0,0,0l-.08.1,0,0,0,.05v0l.05-.1-.05.06s0,0,0,0a.57.57,0,0,0-.08.13l0-.07-.07.13s0,.09,0,.13v0a.13.13,0,0,1,0,.06v.13l0,.12a.43.43,0,0,0,0,0l0,0v0a.6.6,0,0,0,.11.14l0,0,.1.08,0,0,0,0,0,0h0l0,0h0l0,0h0l.19,0s.06,0,0,0h.14l.15,0,.17,0-.2,0a.38.38,0,0,0,.14,0l.2,0a1.81,1.81,0,0,0,.2-.1h0l0,0,.06,0,.09-.07s0,0,0-.08l.07,0,.07,0,.06,0s.15-.09,0,0a.52.52,0,0,0-.12.07,1.15,1.15,0,0,0,.23-.14l-.1.09s0,0,0,0,.05,0,0,0l.07-.06,0,0a1.31,1.31,0,0,0,.16-.13l.09-.07.08-.06s0,0,0,0l.08,0,0,0,0,0,.05,0,.07,0a0,0,0,0,0,0,0h0s0,0,0,0l0,0,.11,0,.12,0h0l-.07,0-.05,0a1.34,1.34,0,0,1,.27-.07c.08,0,0,0-.12,0l.17,0,.12,0h0s0,0,0,0h0a1.22,1.22,0,0,0-.17,0h0l-.15,0-.12.06.12,0,.12,0,.2,0a1,1,0,0,1,.3,0l0,0a0,0,0,0,0,0,0h0l0,0,0,0a.38.38,0,0,1,.13.06s0,0,.06,0h0l0,0s0,0,0,0l-.06-.06,0,0h0l0,0,0,0h0s0,0,0,0a.67.67,0,0,1,0,.07.19.19,0,0,0-.06-.07l-.11-.08,0,0,.06.06s0,0,0,0h0v0l.06.09a.53.53,0,0,1,0,.12.77.77,0,0,1,0,.15,1.09,1.09,0,0,0,0,.18,0,0,0,0,1,0,0,.43.43,0,0,1,0,0s0-.08,0-.12,0-.14,0-.11v.19a.47.47,0,0,0,0,.2v0a0,0,0,0,1,0,0l0,.07a.15.15,0,0,0,0,.07v0h0v0s0,0,0,0h0l0,0,0,.06.05.06,0,0h0l0,0,0,0h0l.18.09a1,1,0,0,0,.23.06l-.08,0a.5.5,0,0,1-.13,0l-.07,0s0,0,0,0l.06,0,.06,0h.06l.06,0,.26,0-.06,0,.24,0c.09,0,.06,0,0,0s-.09,0,0,0h-.21l.11,0h.3l0,0h.11s0,0-.06,0h.26c-.06,0-.17,0-.08,0h.11c.08,0,0,0,.1,0h0a.65.65,0,0,0,.2,0c-.12,0-.12,0,0,0a3.11,3.11,0,0,1,.4,0h.08s.1,0,.16,0-.26,0-.25,0,.06,0,0,0c.12,0,0,0,.1,0s.2,0,.13,0l.19,0s0,0,0,0h.12s0,0-.05,0,.21,0,.2,0,.19,0,.28,0-.17,0-.2,0,.41,0,.61,0,0,0,0,0l-.34,0,.51,0c.16,0,.18,0,.38,0h.09s-.09,0,0,0h.07c.19,0,.14,0,.3,0h-.09s.07,0,.15,0h.12s-.14,0-.16,0h.11l.16,0c-.11,0,0,0,0,0s.23,0,.21,0a1,1,0,0,1,.25,0c-.11,0,0,0,0,0h.16c-.17,0,0,0,0,0l-.24,0c.18,0,.25,0,.4,0s0,0-.08,0l.24,0s-.09,0,0,0h.14c.15,0,0,0,.17,0h-.08l.18,0h-.21s.1,0,.15,0h.27s-.21,0-.18.07l.52,0c.15,0,.13,0,.11,0h.06l.49,0c.11,0,.06,0,0,0h.1l.22,0-.05,0,.24,0-.13,0h0l-.14,0a.6.6,0,0,1,.26,0c.16,0-.14,0,.06,0s.48,0,.63,0,.26,0,.44-.05c0,0,.12,0,.11,0-.18,0-.33,0-.48,0s0,0-.08,0h-.15c.16,0,0,0,.25,0h-.32l.23,0s0,0,0,0l.22,0c.07,0,.08,0,.05,0h.32c.16,0,0,0-.06,0h-.15s.18,0,.21,0,.23,0,.34,0l-.13,0,.12,0a.58.58,0,0,1-.17,0l.49,0s.06,0,0,0c.16,0,.25,0,.38,0s-.14,0,0,0h-.14c.08,0,.07,0,.09,0h-.13s.16,0,.22,0,0,0-.05,0l.38,0c.06,0,0,0-.08,0s.12,0,.14,0H551l.34,0-.14,0a1,1,0,0,0,.29,0c.12,0,.25,0,.21,0s0,0,0,0,.17,0,.26,0h-.07c.15,0,0,0,.17,0,0,0,0,0,0,0h.16s.13,0,0,0a2.19,2.19,0,0,0,.29,0c-.06,0,.12,0,.06,0,.13,0,.22,0,.19,0s-.12,0-.11,0h.37c.08,0,.22,0,.28,0a.46.46,0,0,1-.17,0h0l.1,0c-.09,0,0,0-.15,0s.27,0,.14-.05-.08,0-.16,0h0l-.19,0s0,0,0,0c-.23,0-.27,0-.51,0,0,0,.06,0,0,0h-.15l.13,0h0a1.77,1.77,0,0,1,.34-.06,1.55,1.55,0,0,1,.33,0H553c.14,0,0,0,.21,0s.21,0,.11.06l.29,0c.07,0,0,0,0,0s.19,0,.13,0h.15s0,0-.07,0l.22,0Z"/><path class="cls-26" d="M550.82,935.22h0Z"/><path class="cls-26" d="M553.1,935h0Z"/><path class="cls-26" d="M540.57,935.57h0Z"/><path class="cls-26" d="M543,935.7Z"/><path class="cls-26" d="M553.21,935.09h0Z"/></g><rect class="cls-15" x="284.8" y="915.64" width="7.24" height="32.48"/><rect class="cls-12" x="292.05" y="915.64" width="7.25" height="32.48"/><rect class="cls-15" x="299.3" y="915.64" width="7.25" height="32.48"/><path class="cls-11" d="M372,816.3V948.13H434.1V816.3Zm53.9,122.28H380.2V919.93h45.65Zm0-28.53H380.2v-85.5h45.65Z"/><polygon class="cls-15" points="183.33 775.57 183.33 800.84 179.7 797.21 168.17 797.21 164.63 800.75 164.63 775.57 183.33 775.57"/><rect class="cls-15" x="313.79" y="915.64" width="7.25" height="32.48"/><rect class="cls-12" x="306.55" y="915.64" width="7.24" height="32.48"/><rect class="cls-12" x="219.58" y="915.64" width="7.24" height="32.48"/><rect class="cls-15" x="226.82" y="915.64" width="7.25" height="32.48"/><rect class="cls-15" x="212.33" y="915.64" width="7.25" height="32.48"/><rect class="cls-12" x="263.06" y="915.64" width="7.24" height="32.48"/><rect class="cls-12" x="234.07" y="915.64" width="7.25" height="32.48"/><rect class="cls-15" x="241.32" y="915.64" width="7.24" height="32.48"/><rect class="cls-12" x="248.56" y="915.64" width="7.25" height="32.48"/><rect class="cls-15" x="255.81" y="915.64" width="7.25" height="32.48"/><rect class="cls-12" x="205.08" y="915.64" width="7.25" height="32.48"/><rect class="cls-15" x="270.31" y="915.64" width="7.25" height="32.48"/><rect class="cls-15" x="342.78" y="915.64" width="7.25" height="32.48"/><rect class="cls-12" x="277.56" y="915.64" width="7.25" height="32.48"/><rect class="cls-15" x="328.29" y="915.64" width="7.25" height="32.48"/><rect class="cls-12" x="335.54" y="915.64" width="7.24" height="32.48"/><rect class="cls-12" x="190.58" y="915.64" width="7.25" height="32.48"/><rect class="cls-12" x="321.04" y="915.64" width="7.25" height="32.48"/><path class="cls-15" d="M350,775.57v27.31l5.67-5.67h11.53l4.72,4.72V781.76H434.1v21.71H373.49l12.83,12.83H434.1v47.78L456,886V775.57Z"/><rect class="cls-15" x="183.33" y="915.64" width="7.25" height="32.48"/><path class="cls-12" d="M462.53,770.26v2.92a2.39,2.39,0,0,1-2.39,2.39H160.51a2.39,2.39,0,0,1-2.39-2.39v-2.92Z"/><rect class="cls-12" x="158.12" y="751.19" width="304.41" height="19.07"/><path class="cls-11" d="M462.53,745.94v5.25H158.12v-5.25a2.4,2.4,0,0,1,2.39-2.4H460.14A2.4,2.4,0,0,1,462.53,745.94Z"/><path class="cls-11" d="M372,776.26v27.21H434.1V776.26Zm55.58,21.4h-49V782.07h49Z"/><path class="cls-12" d="M387.44,878.15a1.4,1.4,0,1,1-2-1.27V865.46a1.4,1.4,0,0,1,.59-2.67,1.4,1.4,0,0,1,.58,2.67v11.42A1.41,1.41,0,0,1,387.44,878.15Z"/><polygon class="cls-11" points="350.03 877.25 350.03 881.41 268.77 881.41 268.77 908.87 264.61 908.87 264.61 881.41 183.33 881.41 183.33 877.25 264.61 877.25 264.61 808.05 268.77 808.05 268.77 877.25 350.03 877.25"/><rect class="cls-11" x="183.33" y="908.87" width="166.7" height="6.77"/><path class="cls-11" d="M183.33,775.57v32.48H350V775.57Zm79.19,23.92H190.67V783.9h71.85Zm80.19,0H270.84V783.9h71.87Z"/><line class="cls-27" x1="399.75" y1="716.13" x2="394.43" y2="716.13"/><line class="cls-27" x1="421.26" y1="716.13" x2="414.99" y2="716.13"/><line class="cls-27" x1="418.53" y1="712.16" x2="414.99" y2="712.16"/><line class="cls-27" x1="385.26" y1="712.16" x2="392.12" y2="712.16"/><line class="cls-27" x1="392.12" y1="708.18" x2="390.47" y2="708.18"/><line class="cls-27" x1="407.37" y1="708.18" x2="412.76" y2="708.18"/><line class="cls-27" x1="407.37" y1="716.13" x2="407.37" y2="721.04"/><line class="cls-27" x1="230.11" y1="662.36" x2="235.42" y2="662.36"/><line class="cls-27" x1="208.6" y1="662.36" x2="214.86" y2="662.36"/><line class="cls-27" x1="214.86" y1="658.39" x2="211.33" y2="658.39"/><line class="cls-27" x1="237.73" y1="658.39" x2="244.59" y2="658.39"/><line class="cls-27" x1="237.73" y1="654.41" x2="239.39" y2="654.41"/><line class="cls-27" x1="222.48" y1="654.41" x2="217.1" y2="654.41"/><line class="cls-27" x1="222.48" y1="662.36" x2="222.48" y2="667.27"/><path class="cls-15" d="M183.33,589V743.54H434.1V589Zm54.4,69.38h-7.62v4H214.86v-4h7.63v-4h15.24ZM352.89,721H267.76V628.89h85.13Zm62.1-4.82H399.75v-4h-7.63v-4h15.25v4H415Z"/><rect class="cls-12" x="392.12" y="708.18" width="15.25" height="3.98"/><rect class="cls-11" x="399.75" y="712.16" width="15.25" height="3.98"/><rect class="cls-12" x="440.74" y="914.82" width="12.48" height="3.25"/><rect class="cls-11" x="437.13" y="918.07" width="12.48" height="3.25"/><rect class="cls-12" x="441.36" y="793.73" width="10.73" height="2.8"/><rect class="cls-11" x="438.26" y="796.53" width="10.73" height="2.8"/><rect class="cls-11" x="438.26" y="787.74" width="8.15" height="2.12"/><rect class="cls-11" x="436.73" y="906.92" width="8" height="2.09"/><rect class="cls-12" x="351.27" y="929.76" width="12.48" height="3.25"/><rect class="cls-11" x="354.88" y="926.51" width="12.48" height="3.25"/><rect class="cls-11" x="359.75" y="938.83" width="8" height="2.09"/><rect class="cls-12" x="169.11" y="929.76" width="12.48" height="3.25"/><rect class="cls-11" x="172.72" y="926.51" width="12.48" height="3.25"/><rect class="cls-11" x="177.59" y="938.83" width="8" height="2.09"/><rect class="cls-12" x="172.15" y="832.96" width="6.69" height="2.13"/><rect class="cls-11" x="169.79" y="830.83" width="8.17" height="2.13"/><rect class="cls-11" x="169.53" y="838.9" width="5.24" height="1.37"/><rect class="cls-11" x="222.49" y="654.42" width="15.25" height="3.98"/><rect class="cls-12" x="214.86" y="658.39" width="15.24" height="3.97"/><rect class="cls-11" x="214.86" y="721.62" width="15.25" height="3.98"/><rect class="cls-12" x="222.49" y="729.25" width="15.24" height="3.97"/><rect class="cls-12" x="208.15" y="718.52" width="11.91" height="3.1"/><path class="cls-11" d="M267.76,628.89V714h85.13V628.89Zm79.87,79.87H273V634.15h74.62Z"/><rect class="cls-11" x="267.76" y="714.02" width="85.13" height="6.93"/><rect class="cls-11" x="434.1" y="668.34" width="69.65" height="4.25"/><line class="cls-22" x1="498.79" y1="690.86" x2="498.79" y2="672.59"/><line class="cls-22" x1="470.59" y1="711.35" x2="470.59" y2="672.59"/><path class="cls-11" d="M547.72,793.1v7.29a2.4,2.4,0,0,1-2.71,2.38c-6-.8-21-2.31-31.81.39-12.63,3.13-33.28,6.38-57.19-.63v-27h4.13a2.39,2.39,0,0,0,2.39-2.39V745.94l84,45.07A2.41,2.41,0,0,1,547.72,793.1Z"/><rect class="cls-15" x="197.83" y="915.64" width="7.24" height="32.48"/><rect class="cls-28" x="289.7" y="842.23" width="38.03" height="1.97" rx="0.98" transform="translate(1123.25 1221.16) rotate(135)"/><rect class="cls-28" x="306.54" y="850.75" width="16.84" height="1.97" rx="0.98" transform="translate(1139.93 1231.29) rotate(135)"/><rect class="cls-28" x="297.02" y="833.07" width="16.84" height="1.97" rx="0.98" transform="translate(1111.18 1207.85) rotate(135)"/><path class="cls-28" d="M211.39,859.86,239,828a1.37,1.37,0,0,0,0-1.75h0a1,1,0,0,0-1.51,0l-27.65,31.9a1.36,1.36,0,0,0,0,1.74h0A1,1,0,0,0,211.39,859.86Z"/><path class="cls-28" d="M224.77,859.4l11.4-13.14a1,1,0,0,1,1.51,0h0a1.36,1.36,0,0,1,0,1.74l-11.4,13.14a1,1,0,0,1-1.51,0h0A1.38,1.38,0,0,1,224.77,859.4Z"/><path class="cls-28" d="M214.45,837.3l11.4-13.15a1,1,0,0,1,1.51,0h0a1.36,1.36,0,0,1,0,1.74L216,839a1,1,0,0,1-1.51,0h0A1.38,1.38,0,0,1,214.45,837.3Z"/><rect class="cls-28" x="389.22" y="868.28" width="28.11" height="1.46" rx="0.73" transform="translate(1302.92 1198.32) rotate(135)"/><rect class="cls-28" x="401.67" y="874.58" width="12.44" height="1.46" rx="0.73" transform="translate(1315.25 1205.82) rotate(135)"/><rect class="cls-28" x="394.63" y="861.51" width="12.44" height="1.46" rx="0.73" transform="translate(1294 1188.49) rotate(135)"/><path class="cls-29" d="M480.77,709.48a4.91,4.91,0,0,0,.83,3,2.88,2.88,0,0,0,2.47,1.12c.35,0,.68,0,1,0l.75-.09v-7.26a3.62,3.62,0,0,0-1-.4,4.59,4.59,0,0,0-1.22-.16Q480.78,705.62,480.77,709.48Z"/><path class="cls-29" d="M506.48,705.21l-3-12.67a5.53,5.53,0,0,0-4.12-4.12l-.59-.13-12.08-2.85a5.57,5.57,0,0,0-5.18,1.47l-10.95,11-6.43,6.44a5.53,5.53,0,0,0,0,7.82l15.65,15.65a5.54,5.54,0,0,0,7.83,0L505,710.39A5.52,5.52,0,0,0,506.48,705.21Zm-16.69,10.95c-.35.11-.76.22-1.22.32s-.95.18-1.46.25-1,.13-1.56.17-1,.07-1.51.07a8.86,8.86,0,0,1-3.11-.51,6.09,6.09,0,0,1-2.29-1.46,6.25,6.25,0,0,1-1.44-2.3,8.77,8.77,0,0,1-.49-3,10.59,10.59,0,0,1,.42-3.09,6.7,6.7,0,0,1,1.24-2.34,5.42,5.42,0,0,1,2-1.48,6.75,6.75,0,0,1,2.66-.5,6.08,6.08,0,0,1,1.49.16,9.06,9.06,0,0,1,1.33.45v-6.37l4-.64Zm10.1-21.92a1.56,1.56,0,0,1-2.21,0,1.58,1.58,0,0,1,0-2.21,1.6,1.6,0,0,1,1.11-.46,1.57,1.57,0,0,1,1.1,2.67Z"/><polygon class="cls-23" points="291.99 911.81 245.54 958.25 239.28 958.25 285.73 911.81 291.99 911.81"/><polygon class="cls-23" points="252.04 918.31 245.79 918.31 239.28 911.81 245.54 911.81 252.04 918.31"/><polygon class="cls-24" points="291.98 958.25 285.73 958.25 245.79 918.31 252.04 918.31 291.98 958.25"/><circle class="cls-23" cx="265.63" cy="935.03" r="0.68"/><rect class="cls-23" x="232.64" y="905.01" width="66.11" height="8.98" rx="0.47"/><polygon class="cls-23" points="235.06 935.7 212.19 958.57 209.12 958.57 231.98 935.7 235.06 935.7"/><polygon class="cls-24" points="209.12 935.7 231.98 958.57 235.06 958.57 212.19 935.7 209.12 935.7"/><rect class="cls-23" x="205.84" y="932.35" width="32.55" height="4.42" rx="0.61"/><polygon class="cls-23" points="324.14 935.7 301.27 958.57 298.19 958.57 321.06 935.7 324.14 935.7"/><polygon class="cls-24" points="298.19 935.7 321.06 958.57 324.14 958.57 301.27 935.7 298.19 935.7"/><rect class="cls-23" x="294.92" y="932.35" width="32.55" height="4.42" rx="0.61"/><polygon class="cls-13" points="179.71 797.23 178.6 809.22 169.17 809.22 168.06 797.23 179.71 797.23"/><circle class="cls-14" cx="173.91" cy="802.6" r="2.43"/><path class="cls-11" d="M182,795.94H165.83a.23.23,0,0,1-.19-.37l3-3.86a.21.21,0,0,1,.18-.09h10.11a.21.21,0,0,1,.18.09l3,3.86A.23.23,0,0,1,182,795.94Z"/><path class="cls-11" d="M175.47,790.92h-3.28a.1.1,0,0,1-.09-.14l.31-.69.15-.33.18-.39h.09a1.34,1.34,0,0,1-.07-.39,1.07,1.07,0,1,1,2.13,0,1.07,1.07,0,0,1-.07.39h.09l.19.39.14.33.32.69A.1.1,0,0,1,175.47,790.92Z"/><path class="cls-15" d="M174.79,812v1.16a1.18,1.18,0,0,0-.88-.4,1.16,1.16,0,0,0-.88.4V812Z"/><line class="cls-8" x1="171.39" y1="797.23" x2="171.99" y2="803.69"/><polygon class="cls-12" points="180.31 795.94 180.2 797.23 167.47 797.23 167.35 795.94 180.31 795.94"/><line class="cls-8" x1="175.32" y1="809.22" x2="176.08" y2="800.95"/><path class="cls-12" d="M175.16,814.11a1.26,1.26,0,1,1-2.5,0,1.42,1.42,0,0,1,.37-1,1.16,1.16,0,0,1,.88-.4,1.18,1.18,0,0,1,.88.4A1.42,1.42,0,0,1,175.16,814.11Z"/><path class="cls-12" d="M179.09,809.48l-.08.91a.23.23,0,0,1-.23.21H169a.24.24,0,0,1-.24-.21l-.08-.91a.23.23,0,0,1,.23-.26h10A.23.23,0,0,1,179.09,809.48Z"/><path class="cls-15" d="M175.76,810.81l-.64,1.1a.15.15,0,0,1-.12.07h-2.18a.14.14,0,0,1-.12-.07l-.65-1.1a.14.14,0,0,1,.12-.21h3.48A.14.14,0,0,1,175.76,810.81Z"/><rect class="cls-11" x="172.41" y="790.92" width="2.83" height="0.7"/><polygon class="cls-13" points="367.27 797.23 366.16 809.22 356.73 809.22 355.62 797.23 367.27 797.23"/><circle class="cls-14" cx="361.47" cy="802.6" r="2.43"/><path class="cls-11" d="M369.5,795.94H353.39a.23.23,0,0,1-.19-.37l3-3.86a.21.21,0,0,1,.18-.09H366.5a.21.21,0,0,1,.18.09l3,3.86A.23.23,0,0,1,369.5,795.94Z"/><path class="cls-11" d="M363,790.92h-3.27a.1.1,0,0,1-.1-.14l.32-.69.15-.33.18-.39h.09a1.34,1.34,0,0,1-.07-.39,1.07,1.07,0,1,1,2.13,0,1.34,1.34,0,0,1-.07.39h.09l.18.39.15.33.32.69A.1.1,0,0,1,363,790.92Z"/><path class="cls-15" d="M362.35,812v1.16a1.18,1.18,0,0,0-1.77,0V812Z"/><line class="cls-8" x1="358.95" y1="797.23" x2="359.54" y2="803.69"/><polygon class="cls-12" points="367.87 795.94 367.75 797.23 355.02 797.23 354.91 795.94 367.87 795.94"/><line class="cls-8" x1="362.88" y1="809.22" x2="363.64" y2="800.95"/><path class="cls-12" d="M362.71,814.11a1.25,1.25,0,1,1-2.49,0,1.46,1.46,0,0,1,.36-1,1.18,1.18,0,0,1,1.77,0A1.46,1.46,0,0,1,362.71,814.11Z"/><path class="cls-12" d="M366.65,809.48l-.08.91a.23.23,0,0,1-.23.21h-9.82a.23.23,0,0,1-.23-.21l-.08-.91a.23.23,0,0,1,.23-.26h10A.23.23,0,0,1,366.65,809.48Z"/><path class="cls-15" d="M363.32,810.81l-.65,1.1a.12.12,0,0,1-.11.07h-2.19a.14.14,0,0,1-.11-.07l-.65-1.1a.14.14,0,0,1,.12-.21h3.47A.14.14,0,0,1,363.32,810.81Z"/><rect class="cls-11" x="359.97" y="790.92" width="2.83" height="0.7"/><path class="cls-30" d="M380.37,904.75c-2.14.71-5.49,3.44-8.33,11.22-3,8.16-7.12,6-7.12,6l-.16-.09c1.34-.62,2.94-2.19,4.31-5.92,2.19-6,4.69-9,6.7-10.39,2.08-1,3.75-1.29,4.6-1A.11.11,0,0,1,380.37,904.75Z"/><path class="cls-31" d="M375.77,905.58c-2,1.38-4.51,4.38-6.7,10.39-1.37,3.73-3,5.3-4.31,5.92-3-1.9-.05-7.41,3.74-11.11A27.2,27.2,0,0,1,375.77,905.58Z"/><path class="cls-32" d="M378.48,872.12c-2.16,10-8.77,12.36-11.43,27.3-3.12,17.46-2.25,20.9-2,21.52a3,3,0,0,1-2.45.12s-1.72-1.46,1.88-21.64c3.36-18.88,13-17.63,12.06-37.23,0-.23.21-.4.28-.2A26.49,26.49,0,0,1,378.48,872.12Z"/><path class="cls-33" d="M378.48,872.12c-.2,6.25-2.24,13-3.75,24.13-1.45,10.62-5.26,22.54-9.64,24.69-.29-.62-1.16-4.06,2-21.52C369.71,884.48,376.32,882.15,378.48,872.12Z"/><path class="cls-33" d="M364.71,923.44h0a5.84,5.84,0,0,1-6.23-2,6,6,0,0,0,2.23-.22h0c.3-.1,9.48-3.36,1.65-20.06-4-8.49-5.61-15.07-6-20h0c1.55-4.07,3.39-6.78,4.93-7.78a.31.31,0,0,1,.44.4c-2.1,4.41-2.88,13.67,4.59,29.63C374.19,920.08,365,923.34,364.71,923.44Z"/><path class="cls-32" d="M360.72,920.5h0a5.84,5.84,0,0,1-2.23.23c-3.65-4-5.52-12.63-5.45-20.57a57.79,57.79,0,0,1,3.39-19.77c.35,5,2,11.56,6,20.05C370.2,917.14,361,920.4,360.72,920.5Z"/><path class="cls-31" d="M359.57,922.93s-6.84.75-6.93-11.69c1.65,7,6.37,6.44,6.37,6.44,2.68-.36,3.83-2.72,3.95-5.9C364.17,917.34,363.58,922.37,359.57,922.93Z"/><path class="cls-30" d="M363,911.78c-.12,3.18-1.27,5.54-3.95,5.9,0,0-4.72.52-6.37-6.44,0-.29,0-.59,0-.9a53.84,53.84,0,0,0-.62-9.62c-1-6.26-3.24-9.57-5.12-11.11a.17.17,0,0,1,.12-.31,7.33,7.33,0,0,1,3.33,1.63c3.07,2.29,7.1,7,10.26,13.92A35.36,35.36,0,0,1,363,911.78Z"/><path class="cls-34" d="M371.63,898.69c-1.44,3.4-4,7.08-6.9,12.89-2.81,5.61-2.8,9.1-2,11.24a3.06,3.06,0,0,1-.38-.1s-6.8-2.39-.81-14.34c5.83-11.6,10.16-14.69,7.24-24.14a.15.15,0,0,1,.26-.12C372.53,889.26,372.19,892.93,371.63,898.69Z"/><path class="cls-35" d="M371.63,898.69c-.22,2.31-.47,5-.53,8.18-.14,8.09-3.14,17.16-8.38,16-.79-2.14-.8-5.63,2-11.24C367.65,905.77,370.19,902.09,371.63,898.69Z"/><path class="cls-34" d="M360.88,923.4a4.22,4.22,0,0,1-2.85-3.67,3.8,3.8,0,0,0,1.27.69c4.25,1,6-5.26,5.54-10.78a26.55,26.55,0,0,0-1.89-8.06,23.61,23.61,0,0,1,3.46,11C366.86,918.13,365.12,924.42,360.88,923.4Z"/><path class="cls-36" d="M359.3,920.42a3.8,3.8,0,0,1-1.27-.69,11.11,11.11,0,0,1,1.27-5.85c3.54-7.76,2.73-12.16,1.42-14.21-.07-.09,0-.21.17-.16a6,6,0,0,1,2.06,2.07,26.55,26.55,0,0,1,1.89,8.06C365.29,915.16,363.55,921.44,359.3,920.42Z"/><polygon class="cls-12" points="380.5 919.96 345.27 919.96 347.52 913.03 378.25 913.03 380.5 919.96"/><polygon class="cls-17" points="378.69 914.38 347.08 914.38 347.52 913.04 378.25 913.04 378.69 914.38"/><polygon class="cls-12" points="378.31 922 375.23 956.89 350.54 956.89 347.46 922 378.31 922"/><rect class="cls-15" x="345.27" y="919.96" width="35.24" height="2.04"/><path class="cls-30" d="M157.86,904.75c2.13.71,5.48,3.44,8.32,11.22,3,8.16,7.13,6,7.13,6l.16-.09c-1.35-.62-2.95-2.19-4.31-5.92-2.19-6-4.69-9-6.7-10.39-2.08-1-3.76-1.29-4.6-1A.11.11,0,0,0,157.86,904.75Z"/><path class="cls-31" d="M162.46,905.58c2,1.38,4.51,4.38,6.7,10.39,1.36,3.73,3,5.3,4.31,5.92,3-1.9,0-7.41-3.74-11.11A27.36,27.36,0,0,0,162.46,905.58Z"/><path class="cls-32" d="M159.75,872.12c2.16,10,8.77,12.36,11.43,27.3,3.11,17.46,2.24,20.9,1.95,21.52a3,3,0,0,0,2.45.12s1.72-1.46-1.87-21.64c-3.37-18.88-13-17.63-12.07-37.23,0-.23-.21-.4-.28-.2A26.47,26.47,0,0,0,159.75,872.12Z"/><path class="cls-33" d="M159.75,872.12c.19,6.25,2.23,13,3.75,24.13,1.44,10.62,5.25,22.54,9.63,24.69.29-.62,1.16-4.06-1.95-21.52C168.52,884.48,161.91,882.15,159.75,872.12Z"/><path class="cls-33" d="M173.52,923.44h0a5.82,5.82,0,0,0,6.22-2,6,6,0,0,1-2.22-.22h0c-.31-.1-9.48-3.36-1.66-20.06,4-8.49,5.62-15.07,6-20h0c-1.56-4.07-3.39-6.78-4.93-7.78a.31.31,0,0,0-.45.4c2.11,4.41,2.89,13.67-4.59,29.63C164,920.08,173.22,923.34,173.52,923.44Z"/><path class="cls-32" d="M177.51,920.5h0a5.8,5.8,0,0,0,2.23.23c3.65-4,5.52-12.63,5.44-20.57a58.06,58.06,0,0,0-3.38-19.77c-.35,5-2,11.56-6,20.05C168,917.14,177.2,920.4,177.51,920.5Z"/><path class="cls-31" d="M178.66,922.93s6.83.75,6.92-11.69c-1.64,7-6.36,6.44-6.36,6.44-2.69-.36-3.84-2.72-3.95-5.9C174.05,917.34,174.64,922.37,178.66,922.93Z"/><path class="cls-30" d="M175.27,911.78c.11,3.18,1.26,5.54,3.95,5.9,0,0,4.72.52,6.36-6.44v-.9a52,52,0,0,1,.62-9.62c1.05-6.26,3.23-9.57,5.12-11.11a.17.17,0,0,0-.12-.31,7.28,7.28,0,0,0-3.33,1.63c-3.08,2.29-7.1,7-10.27,13.92A34.67,34.67,0,0,0,175.27,911.78Z"/><path class="cls-34" d="M166.59,898.69c1.45,3.4,4,7.08,6.9,12.89,2.81,5.61,2.81,9.1,2,11.24a3.06,3.06,0,0,0,.38-.1s6.79-2.39.8-14.34c-5.82-11.6-10.16-14.69-7.24-24.14a.14.14,0,0,0-.25-.12C165.7,889.26,166,892.93,166.59,898.69Z"/><path class="cls-35" d="M166.59,898.69c.23,2.31.48,5,.53,8.18.15,8.09,3.15,17.16,8.39,16,.79-2.14.79-5.63-2-11.24C170.58,905.77,168,902.09,166.59,898.69Z"/><path class="cls-34" d="M177.35,923.4a4.22,4.22,0,0,0,2.84-3.67,3.7,3.7,0,0,1-1.27.69c-4.25,1-6-5.26-5.53-10.78a26.55,26.55,0,0,1,1.89-8.06,23.71,23.71,0,0,0-3.47,11C171.36,918.13,173.1,924.42,177.35,923.4Z"/><path class="cls-36" d="M178.92,920.42a3.7,3.7,0,0,0,1.27-.69,10.91,10.91,0,0,0-1.27-5.85c-3.54-7.76-2.73-12.16-1.41-14.21.06-.09,0-.21-.17-.16a6,6,0,0,0-2.06,2.07,26.55,26.55,0,0,0-1.89,8.06C172.94,915.16,174.67,921.44,178.92,920.42Z"/><polygon class="cls-12" points="191.44 919.96 156.21 919.96 158.46 913.03 189.19 913.03 191.44 919.96"/><polygon class="cls-12" points="189.25 922 186.16 956.89 161.48 956.89 158.4 922 189.25 922"/><rect class="cls-15" x="156.21" y="919.96" width="35.24" height="2.04"/><polygon class="cls-17" points="189.63 914.38 158.02 914.38 158.46 913.03 189.19 913.03 189.63 914.38"/><path class="cls-37" d="M234.36,648.28s-3.59,2.41-4-4.92a2.11,2.11,0,0,0,3.19,1c2.4-.56,4.53-5.17,1.75-19.84C239.24,642.32,237,647.67,234.36,648.28Z"/><path class="cls-33" d="M233.56,644.41a2.11,2.11,0,0,1-3.19-1h0a30.07,30.07,0,0,1,0-3.27c.58-11.26,0-12.2-.21-15.12-.51-7.45,3.62-6.94,4.84-1.66.1.43.19.85.29,1.27C238.09,639.24,236,643.85,233.56,644.41Z"/><path class="cls-35" d="M230.43,647.88a3.1,3.1,0,0,1-4-2.2,3.25,3.25,0,0,0,2.61.29c2.52-.18,3.08-8.8,0-14.28a9.12,9.12,0,0,1,1.14,1.5C233.55,638.64,233,647.69,230.43,647.88Z"/><path class="cls-34" d="M229.05,646a3.25,3.25,0,0,1-2.61-.29,9.64,9.64,0,0,1-.48-3c-.17-6.68-.34-7.29-1.22-9-.78-1.54,1.45-4.9,4.27-2C232.13,637.17,231.57,645.79,229.05,646Z"/><path class="cls-38" d="M229.37,643.34a23.58,23.58,0,0,1,1.13,7.27"/><path class="cls-38" d="M234.07,638.18a55.07,55.07,0,0,1-.76,14.82"/><path class="cls-31" d="M242.5,643.19c.17,5.44-3.85,4.3-5.34,3.69a3.34,3.34,0,0,1-1.21-.79,3.38,3.38,0,0,1-.89-1.8,3.54,3.54,0,0,0,.47.38c1.33.92,5,2.89,6-2.46A10.31,10.31,0,0,1,245,637C243.72,638.66,242.43,641,242.5,643.19Z"/><path class="cls-30" d="M246.57,635a24.88,24.88,0,0,0-1.6,2,10.31,10.31,0,0,0-3.43,5.24c-1,5.35-4.68,3.38-6,2.46a3.54,3.54,0,0,1-.47-.38c-.59-3.3,2.68-8.32,6.54-11.48a11.69,11.69,0,0,1,1.22-.87,5.66,5.66,0,0,1,2.64-1C247.64,630.87,248.35,633,246.57,635Z"/><path class="cls-38" d="M239.4,640.64a50,50,0,0,0-2.38,10.7"/><path class="cls-37" d="M218.93,648s-2.57,2.42-3.86-3.42a1.71,1.71,0,0,0,2.7.41c1.86-.77,3-4.75-1.23-16.19C222.07,642.51,220.94,647.12,218.93,648Z"/><path class="cls-33" d="M217.77,644.94a1.71,1.71,0,0,1-2.7-.41h0a24.92,24.92,0,0,1-.43-2.63c-1-9.14-1.63-9.82-2.18-12.14-1.4-5.93,2-6.07,3.67-2l.41,1C220.73,640.19,219.63,644.17,217.77,644.94Z"/><path class="cls-35" d="M215.72,648.16a2.53,2.53,0,0,1-3.51-1.25,2.65,2.65,0,0,0,2.14-.1c2-.49,1.31-7.5-1.93-11.49a7.48,7.48,0,0,1,1.11,1C217,640.31,217.78,647.66,215.72,648.16Z"/><path class="cls-34" d="M214.35,646.81a2.65,2.65,0,0,1-2.14.1,7.75,7.75,0,0,1-.77-2.31c-1-5.36-1.25-5.83-2.19-7.11s.51-4.14,3.17-2.17C215.66,639.31,216.35,646.32,214.35,646.81Z"/><path class="cls-38" d="M214.26,644.64a19.41,19.41,0,0,1,1.87,5.71"/><path class="cls-38" d="M217.35,639.86a44.64,44.64,0,0,1,1.36,12"/><path class="cls-31" d="M224.8,642.77c.86,4.36-2.52,4-3.8,3.69a2.84,2.84,0,0,1-1.08-.48,2.73,2.73,0,0,1-1-1.33,3.62,3.62,0,0,0,.43.24c1.19.57,4.41,1.66,4.51-2.77a8.4,8.4,0,0,1,2.06-4.68A8.77,8.77,0,0,0,224.8,642.77Z"/><path class="cls-30" d="M227,635.66a19.26,19.26,0,0,0-1,1.78,8.4,8.4,0,0,0-2.06,4.68c-.1,4.43-3.32,3.34-4.51,2.77a3.62,3.62,0,0,1-.43-.24c-.91-2.58,1.06-7,3.74-10.11a8.71,8.71,0,0,1,.86-.86,4.56,4.56,0,0,1,2-1.12C227.3,632.17,228.15,633.82,227,635.66Z"/><path class="cls-38" d="M222,641.14a40.87,40.87,0,0,0-.5,8.92"/><polygon class="cls-12" points="244.68 652.2 243.17 659.73 240.7 659.73 242.37 652.2 244.68 652.2"/><path class="cls-12" d="M242.37,652.2l-1.67,7.53H209.09a.46.46,0,0,1-.45-.36l-1.43-7.17Z"/><path class="cls-12" d="M246.86,650l-.4,2a.26.26,0,0,1-.25.22h-3.84l.56-2.52h3.67A.26.26,0,0,1,246.86,650Z"/><path class="cls-12" d="M242.93,649.68l-.56,2.52H205.69a.26.26,0,0,1-.26-.22l-.4-2a.26.26,0,0,1,.25-.31Z"/><polygon class="cls-17" points="244.68 652.2 243.17 659.73 240.7 659.73 242.37 652.2 244.68 652.2"/><path class="cls-17" d="M246.86,650l-.4,2a.26.26,0,0,1-.25.22h-2.63l.56-2.52h2.46A.26.26,0,0,1,246.86,650Z"/><line class="cls-1" x1="240.7" y1="659.73" x2="240.01" y2="662.81"/><line class="cls-1" x1="243.2" y1="648.45" x2="242.93" y2="649.68"/><path class="cls-37" d="M235.68,706.22s3.58,2.41,4-4.92a2.11,2.11,0,0,1-3.19,1.05c-2.4-.56-4.53-5.17-1.75-19.84C230.79,700.26,233.08,705.61,235.68,706.22Z"/><path class="cls-33" d="M236.47,702.35a2.11,2.11,0,0,0,3.19-1.05h0a30.07,30.07,0,0,0,0-3.27c-.58-11.26,0-12.2.22-15.12.5-7.45-3.63-6.94-4.85-1.66-.1.43-.19.85-.29,1.27C231.94,697.18,234.07,701.79,236.47,702.35Z"/><path class="cls-35" d="M239.6,705.82a3.1,3.1,0,0,0,4-2.2,3.25,3.25,0,0,1-2.61.29c-2.52-.18-3.08-8.8,0-14.28a9.12,9.12,0,0,0-1.14,1.5C236.48,696.58,237,705.63,239.6,705.82Z"/><path class="cls-34" d="M241,703.91a3.25,3.25,0,0,0,2.61-.29,9.34,9.34,0,0,0,.48-3c.17-6.68.34-7.3,1.22-9,.78-1.54-1.44-4.9-4.27-2C237.9,695.11,238.46,703.73,241,703.91Z"/><path class="cls-38" d="M240.66,701.28a23.58,23.58,0,0,0-1.13,7.27"/><path class="cls-38" d="M236,696.12a54.82,54.82,0,0,0,.75,14.82"/><path class="cls-31" d="M227.53,701.12c-.17,5.45,3.85,4.31,5.35,3.7a3.3,3.3,0,0,0,1.2-.79,3.38,3.38,0,0,0,.89-1.8,3.54,3.54,0,0,1-.47.38c-1.33.92-5,2.89-6-2.46a10.25,10.25,0,0,0-3.43-5.24C226.31,696.6,227.61,698.89,227.53,701.12Z"/><path class="cls-30" d="M223.47,693a25.1,25.1,0,0,1,1.59,1.95,10.25,10.25,0,0,1,3.43,5.24c1,5.35,4.68,3.38,6,2.46a3.54,3.54,0,0,0,.47-.38c.59-3.3-2.68-8.32-6.54-11.48a12.78,12.78,0,0,0-1.21-.87,5.62,5.62,0,0,0-2.64-1C222.39,688.81,221.69,691,223.47,693Z"/><path class="cls-38" d="M230.63,698.58a50.37,50.37,0,0,1,2.39,10.7"/><path class="cls-37" d="M217.6,705.89s2.57,2.42,3.86-3.42a1.71,1.71,0,0,1-2.7.41c-1.86-.77-3-4.75,1.23-16.19C214.46,700.45,215.59,705.06,217.6,705.89Z"/><path class="cls-33" d="M218.76,702.88a1.71,1.71,0,0,0,2.7-.41h0a22.61,22.61,0,0,0,.42-2.64c1-9.14,1.64-9.81,2.19-12.13,1.4-5.93-2-6.07-3.68-2-.13.34-.27.67-.4,1C215.8,698.13,216.9,702.11,218.76,702.88Z"/><path class="cls-35" d="M220.81,706.1a2.53,2.53,0,0,0,3.51-1.25,2.65,2.65,0,0,1-2.14-.1c-2-.49-1.31-7.5,1.93-11.49a7.49,7.49,0,0,0-1.12,1C219.53,698.25,218.75,705.6,220.81,706.1Z"/><path class="cls-34" d="M222.18,704.75a2.65,2.65,0,0,0,2.14.1,7.75,7.75,0,0,0,.77-2.31c1-5.36,1.25-5.83,2.19-7.11s-.51-4.14-3.17-2.17C220.87,697.25,220.18,704.26,222.18,704.75Z"/><path class="cls-38" d="M222.27,702.58a19.08,19.08,0,0,0-1.87,5.71"/><path class="cls-38" d="M219.18,697.8a44.64,44.64,0,0,0-1.36,12"/><path class="cls-31" d="M211.73,700.71c-.87,4.36,2.52,4,3.8,3.69a2.84,2.84,0,0,0,1.08-.48,2.8,2.8,0,0,0,1-1.33,3.62,3.62,0,0,1-.43.24c-1.19.57-4.42,1.66-4.51-2.77a8.4,8.4,0,0,0-2.06-4.68A8.84,8.84,0,0,1,211.73,700.71Z"/><path class="cls-30" d="M209.54,693.6a19.26,19.26,0,0,1,1,1.78,8.4,8.4,0,0,1,2.06,4.68c.09,4.43,3.32,3.34,4.51,2.77a3.62,3.62,0,0,0,.43-.24c.91-2.58-1.06-7.05-3.74-10.11a8.71,8.71,0,0,0-.86-.86,4.56,4.56,0,0,0-2-1.12C209.23,690.11,208.37,691.76,209.54,693.6Z"/><path class="cls-38" d="M214.56,699.08a41.25,41.25,0,0,1,.49,8.92"/><polygon class="cls-12" points="244.68 710.14 243.17 717.66 240.7 717.66 242.37 710.14 244.68 710.14"/><path class="cls-12" d="M242.37,710.14l-1.67,7.52H209.09a.45.45,0,0,1-.45-.35l-1.43-7.17Z"/><path class="cls-12" d="M246.86,707.93l-.4,2a.26.26,0,0,1-.25.22h-3.84l.56-2.52h3.67A.26.26,0,0,1,246.86,707.93Z"/><path class="cls-12" d="M242.93,707.62l-.56,2.52H205.69a.26.26,0,0,1-.26-.22l-.4-2a.26.26,0,0,1,.25-.31Z"/><polygon class="cls-17" points="244.68 710.14 243.17 717.66 240.7 717.66 242.37 710.14 244.68 710.14"/><path class="cls-17" d="M246.86,707.93l-.4,2a.26.26,0,0,1-.25.22h-2.63l.56-2.52h2.46A.26.26,0,0,1,246.86,707.93Z"/><line class="cls-1" x1="240.7" y1="717.66" x2="240.01" y2="720.75"/><line class="cls-1" x1="243.2" y1="706.39" x2="242.93" y2="707.62"/><circle class="cls-11" cx="401.27" cy="807.09" r="5.45"/><g class="cls-39"><path class="cls-26" d="M402.71,808.94l-.28.07a1.86,1.86,0,0,1-.34.06l-.37,0-.35,0a2,2,0,0,1-.72-.12,1.5,1.5,0,0,1-.54-.34,1.48,1.48,0,0,1-.33-.54,2,2,0,0,1-.12-.71,2.72,2.72,0,0,1,.1-.72,1.56,1.56,0,0,1,.29-.54,1.23,1.23,0,0,1,.46-.35,1.52,1.52,0,0,1,.62-.11,1.9,1.9,0,0,1,.35,0,1.82,1.82,0,0,1,.3.11v-1.49l.93-.15Zm-2.1-1.56a1.18,1.18,0,0,0,.19.69.67.67,0,0,0,.58.27h.23l.17,0v-1.69a.77.77,0,0,0-.22-.09,1,1,0,0,0-.29,0Q400.61,806.48,400.61,807.38Z"/></g><polygon class="cls-40" points="183.33 800.84 183.33 948.13 164.63 948.13 164.63 800.75 168.17 797.21 179.7 797.21 183.33 800.84"/><polygon class="cls-41" points="373.49 803.47 371.95 803.47 371.95 801.93 373.49 803.47"/><rect class="cls-42" x="272.84" y="634.13" width="74.96" height="74.63"/><path class="cls-30" d="M298.6,716c-1.39.8-3.33,3.19-4.18,9-.89,6.12-4.09,5.23-4.09,5.23l-.13-.05c.85-.62,1.74-1.95,2.15-4.74.65-4.51,2-7,3.16-8.22a5.67,5.67,0,0,1,3.06-1.4A.08.08,0,0,1,298.6,716Z"/><path class="cls-31" d="M295.51,717.21c-1.2,1.25-2.51,3.71-3.16,8.22-.41,2.79-1.3,4.12-2.15,4.74-2.37-.88-1.1-5.15,1-8.28A19.2,19.2,0,0,1,295.51,717.21Z"/><path class="cls-32" d="M292.54,693.49c-.05,7.3-4.32,9.89-4,20.69.36,12.63,1.47,14.9,1.76,15.28a2.09,2.09,0,0,1-1.69.45s-1.41-.77-1.84-15.36c-.39-13.65,6.53-14.19,3-27.71,0-.16.09-.31.16-.18A18.9,18.9,0,0,1,292.54,693.49Z"/><path class="cls-33" d="M292.54,693.49c.77,4.39.33,9.39.89,17.36.53,7.62-.39,16.48-3.13,18.61-.29-.38-1.4-2.65-1.76-15.28C288.22,703.38,292.49,700.79,292.54,693.49Z"/><path class="cls-33" d="M290.39,731.26h0a4.16,4.16,0,0,1-4.63-.47,4.33,4.33,0,0,0,1.52-.48,0,0,0,0,1,0,0c.2-.12,6.12-3.72-1.76-14.23-4-5.34-6.1-9.69-7.07-13.11h0c.5-3.07,1.38-5.22,2.31-6.14a.22.22,0,0,1,.37.21c-.83,3.38,0,10,7.5,20C296.51,727.54,290.59,731.15,290.39,731.26Z"/><path class="cls-32" d="M287.18,729.79h0a4.13,4.13,0,0,1-1.52.48c-3.12-2.24-5.68-8-6.78-13.55a41.38,41.38,0,0,1-.52-14.27c1,3.41,3.07,7.77,7.07,13.11C293.3,726.07,287.38,729.68,287.18,729.79Z"/><path class="cls-31" d="M286.73,731.65s-4.65,1.52-6.52-7.14c2.16,4.61,5.37,3.57,5.37,3.57,1.82-.65,2.28-2.46,1.9-4.69C289.14,727.09,289.45,730.68,286.73,731.65Z"/><path class="cls-30" d="M287.48,723.39c.38,2.23-.08,4-1.9,4.69,0,0-3.21,1-5.37-3.57,0-.2-.09-.41-.13-.63a36.71,36.71,0,0,0-1.83-6.61c-1.64-4.21-3.64-6.2-5.18-7a.13.13,0,0,1,0-.24,5.31,5.31,0,0,1,2.56.65,26.35,26.35,0,0,1,9.18,8.22A25.1,25.1,0,0,1,287.48,723.39Z"/><path class="cls-34" d="M291.63,713c-.52,2.59-1.75,5.52-2.94,10-1.15,4.32-.64,6.76.23,8.14l-.28,0s-5.09-.68-2.65-9.88c2.38-8.93,4.95-11.72,1.54-17.88a.1.1,0,0,1,.16-.12C290.88,706.3,291.18,708.91,291.63,713Z"/><path class="cls-35" d="M291.63,713c.18,1.65.39,3.53.81,5.79,1.08,5.66.31,12.42-3.52,12.34-.87-1.38-1.38-3.82-.23-8.14C289.88,718.52,291.11,715.59,291.63,713Z"/><path class="cls-34" d="M287.72,731.79a3,3,0,0,1-2.52-2.14,2.88,2.88,0,0,0,1,.3c3.11.09,3.4-4.54,2.29-8.33a19,19,0,0,0-2.49-5.34,16.9,16.9,0,0,1,4,7.19C291.12,727.25,290.83,731.88,287.72,731.79Z"/><path class="cls-36" d="M286.19,730a2.88,2.88,0,0,1-1-.3,7.89,7.89,0,0,1,0-4.27c1.34-5.91.13-8.87-1.08-10.1-.06-.06,0-.16.09-.14a4.21,4.21,0,0,1,1.74,1.14,19,19,0,0,1,2.49,5.34C289.59,725.41,289.3,730,286.19,730Z"/><path class="cls-30" d="M294.78,721c1.72.56,4.41,2.76,6.69,9,2.39,6.56,5.72,4.83,5.72,4.83a.57.57,0,0,0,.13-.08c-1.08-.49-2.37-1.75-3.46-4.75-1.76-4.83-3.77-7.24-5.38-8.35a6.28,6.28,0,0,0-3.7-.83A.09.09,0,0,0,294.78,721Z"/><path class="cls-31" d="M298.48,721.65c1.61,1.11,3.62,3.52,5.38,8.35,1.09,3,2.38,4.26,3.46,4.75,2.42-1.52,0-5.94-3-8.91A22,22,0,0,0,298.48,721.65Z"/><path class="cls-32" d="M296.3,694.78c1.74,8.05,7.05,9.93,9.18,21.93,2.5,14,1.8,16.79,1.57,17.28a2.35,2.35,0,0,0,2,.1s1.38-1.17-1.51-17.38c-2.7-15.17-10.47-14.17-9.69-29.91,0-.19-.17-.32-.22-.17A21.26,21.26,0,0,0,296.3,694.78Z"/><path class="cls-33" d="M296.3,694.78c.16,5,1.79,10.44,3,19.38,1.16,8.53,4.23,18.11,7.74,19.83.23-.49.93-3.25-1.57-17.28C303.35,704.71,298,702.83,296.3,694.78Z"/><path class="cls-33" d="M307.36,736h0a4.71,4.71,0,0,0,5-1.59,4.9,4.9,0,0,1-1.79-.18h0c-.24-.08-7.61-2.7-1.32-16.12,3.19-6.82,4.51-12.11,4.79-16.1h0c-1.25-3.27-2.72-5.44-4-6.24a.25.25,0,0,0-.36.31c1.69,3.55,2.32,11-3.69,23.81C299.75,733.3,307.12,735.92,307.36,736Z"/><path class="cls-32" d="M310.57,733.64h0a4.62,4.62,0,0,0,1.78.18c2.94-3.19,4.44-10.14,4.38-16.52A46.5,46.5,0,0,0,314,701.41c-.28,4-1.6,9.29-4.79,16.11C303,730.94,310.32,733.56,310.57,733.64Z"/><path class="cls-31" d="M311.49,735.59s5.49.61,5.57-9.39c-1.33,5.59-5.12,5.18-5.12,5.18-2.15-.3-3.08-2.19-3.17-4.74C307.79,731.1,308.26,735.14,311.49,735.59Z"/><path class="cls-30" d="M308.77,726.64c.09,2.55,1,4.44,3.17,4.74,0,0,3.79.41,5.12-5.18,0-.23,0-.47,0-.72a42.46,42.46,0,0,1,.5-7.73c.84-5,2.6-7.69,4.11-8.93a.13.13,0,0,0-.09-.24,5.78,5.78,0,0,0-2.68,1.3c-2.47,1.85-5.7,5.63-8.25,11.19A27.86,27.86,0,0,0,308.77,726.64Z"/><path class="cls-34" d="M301.8,716.12c1.16,2.73,3.2,5.69,5.54,10.35,2.26,4.51,2.26,7.32,1.62,9l.31-.09s5.46-1.91.64-11.52c-4.68-9.31-8.16-11.8-5.81-19.39,0-.12-.14-.2-.21-.1C301.08,708.54,301.35,711.49,301.8,716.12Z"/><path class="cls-35" d="M301.8,716.12c.18,1.85.38,4,.43,6.57.11,6.5,2.52,13.79,6.73,12.82.64-1.72.64-4.53-1.62-9C305,721.81,303,718.85,301.8,716.12Z"/><path class="cls-34" d="M310.44,736a3.39,3.39,0,0,0,2.29-3,3,3,0,0,1-1,.56c-3.42.82-4.81-4.23-4.45-8.67a21.17,21.17,0,0,1,1.51-6.47A19.19,19.19,0,0,0,306,727.3C305.63,731.74,307,736.79,310.44,736Z"/><path class="cls-36" d="M311.71,733.58a3,3,0,0,0,1-.56,8.91,8.91,0,0,0-1-4.7c-2.85-6.23-2.2-9.77-1.14-11.41.05-.08,0-.17-.14-.13a4.84,4.84,0,0,0-1.66,1.66,21.17,21.17,0,0,0-1.51,6.47C306.9,729.35,308.29,734.4,311.71,733.58Z"/><path class="cls-30" d="M341.61,716.93c-1.56.36-4.12,2.07-6.66,7.4-2.66,5.58-5.46,3.78-5.46,3.78l-.1-.08c1-.35,2.23-1.35,3.45-3.9,2-4.12,3.93-6.08,5.45-6.92a5.59,5.59,0,0,1,3.33-.43A.08.08,0,0,1,341.61,716.93Z"/><path class="cls-31" d="M338.29,717.21c-1.52.84-3.49,2.8-5.45,6.92-1.22,2.55-2.46,3.55-3.45,3.9-2-1.55.47-5.25,3.4-7.62A19,19,0,0,1,338.29,717.21Z"/><path class="cls-32" d="M342.46,693.67c-2.2,7-7,8.18-9.94,18.59-3.38,12.17-3,14.66-2.83,15.12a2.1,2.1,0,0,1-1.75-.08s-1.12-1.15,2.79-15.21c3.66-13.16,10.43-11.63,11.06-25.59,0-.16.17-.26.21-.12A18.71,18.71,0,0,1,342.46,693.67Z"/><path class="cls-33" d="M342.46,693.67c-.56,4.42-2.46,9.07-4.28,16.85-1.74,7.43-5.24,15.63-8.49,16.86-.16-.46-.55-3,2.83-15.12C335.41,701.85,340.26,700.63,342.46,693.67Z"/><path class="cls-33" d="M329.25,729.12h0A4.17,4.17,0,0,1,325,727.3a4.06,4.06,0,0,0,1.59,0h0c.22,0,6.95-1.74,2.52-14.11-2.24-6.28-3-11.06-2.88-14.61h0c1.38-2.78,2.86-4.57,4-5.18a.22.22,0,0,1,.29.31c-1.79,3-3,9.5,1.26,21.32C336.19,727.38,329.47,729.07,329.25,729.12Z"/><path class="cls-32" d="M326.62,726.77h0a4.06,4.06,0,0,1-1.59,0c-2.33-3.06-3.07-9.32-2.48-14.94a41.13,41.13,0,0,1,3.73-13.79c-.09,3.55.63,8.33,2.88,14.61C333.56,725,326.84,726.72,326.62,726.77Z"/><path class="cls-31" d="M325.64,728.41s-4.9.08-4.13-8.75c.7,5.05,4.09,5,4.09,5,1.92-.08,2.9-1.68,3.19-3.92C329.28,724.76,328.52,728.29,325.64,728.41Z"/><path class="cls-30" d="M328.79,720.74c-.29,2.24-1.27,3.84-3.19,3.92,0,0-3.39.05-4.09-5,0-.2,0-.41.07-.63a38.49,38.49,0,0,0,.21-6.86c-.33-4.51-1.65-7-2.88-8.23a.12.12,0,0,1,.1-.21,5.3,5.3,0,0,1,2.25,1.38,26.32,26.32,0,0,1,6.34,10.56A24.7,24.7,0,0,1,328.79,720.74Z"/><path class="cls-34" d="M335.82,712c-1.25,2.32-3.3,4.76-5.76,8.68s-2.6,6.26-2.18,7.84l-.26-.11s-4.66-2.14.39-10.22c4.91-7.82,8.19-9.73,6.76-16.62a.1.1,0,0,1,.19-.07C337.09,705.42,336.61,708,335.82,712Z"/><path class="cls-35" d="M335.82,712c-.31,1.63-.67,3.49-.93,5.77-.64,5.73-3.38,12-7,10.75-.42-1.58-.19-4.06,2.18-7.84S334.57,714.36,335.82,712Z"/><path class="cls-34" d="M326.53,728.84a3,3,0,0,1-1.77-2.8,2.55,2.55,0,0,0,.86.58c2.94,1,4.6-3.33,4.65-7.27a18.72,18.72,0,0,0-.8-5.84,16.83,16.83,0,0,1,1.71,8C331.13,725.51,329.48,729.85,326.53,728.84Z"/><path class="cls-36" d="M325.62,726.62a2.55,2.55,0,0,1-.86-.58,7.84,7.84,0,0,1,1.3-4.06c3-5.26,2.75-8.43,2-10,0-.08.05-.15.13-.1a4.17,4.17,0,0,1,1.32,1.6,18.72,18.72,0,0,1,.8,5.84C330.22,723.29,328.56,727.63,325.62,726.62Z"/><rect class="cls-11" x="284.15" y="740.68" width="6.62" height="4.01"/><rect class="cls-11" x="306.45" y="740.68" width="6.62" height="4.01"/><rect class="cls-11" x="328.76" y="740.68" width="6.62" height="4.01"/><path class="cls-12" d="M346.85,727.84v12.08a.76.76,0,0,1-.76.76H273.43a.76.76,0,0,1-.76-.76V727.84Z"/><path class="cls-12" d="M349,724.86H270.6l.52-1a.69.69,0,0,1,.61-.37h76.15a.67.67,0,0,1,.6.37Z"/><path class="cls-12" d="M349.39,727.83H270.21a.68.68,0,0,1-.61-1l1-2H349l1,2A.68.68,0,0,1,349.39,727.83Z"/><path class="cls-17" d="M349,724.86H270.6l.52-1a.69.69,0,0,1,.61-.37h76.15a.67.67,0,0,1,.6.37Z"/><polygon class="cls-11" points="347.63 688.97 347.63 693.81 310.85 693.81 310.85 708.76 308.76 708.76 308.76 693.81 273.01 693.81 273.01 688.97 308.76 688.97 308.76 634.15 310.85 634.15 310.85 688.97 347.63 688.97"/><path class="cls-17" d="M462.53,770.26v2.92a2.39,2.39,0,0,1-2.39,2.39H160.51a2.39,2.39,0,0,1-2.39-2.39v-2.92Z"/><rect class="cls-17" x="183.33" y="599.56" width="250.76" height="6.75"/><path class="cls-11" d="M392.12,607.91v77.2a4,4,0,0,1-1.83-3.38v-12H388.8v-5.2h1.49V636.74H388.8v-5.19h1.49V607.91Z"/><path class="cls-11" d="M398.36,602.16v29.39h1.49v5.19h-1.49v27.78h1.49v5.2h-1.49v12a4,4,0,0,1-4,4,4,4,0,0,1-2.21-.66v-77.2h-1.83v-5.75H388.8V597h1.49v-5.82h8.07V597h1.49v5.2Z"/><path class="cls-11" d="M440.37,599.56H177.06a1.82,1.82,0,0,1-1.56-2.77l13.43-22a1.82,1.82,0,0,1,1.56-.87H426.94a1.82,1.82,0,0,1,1.56.87l13.43,22A1.82,1.82,0,0,1,440.37,599.56Z"/><path class="cls-17" d="M390.29,602.13V608h0v23.58H388.8v5.19h1.49v27.78H388.8v5.2h1.49v12a4,4,0,0,0,1.83,3.38v-83Z"/><polygon class="cls-43" points="537.29 967.27 -1.89 967.27 168.17 797.21 179.7 797.21 267.7 885.21 350.03 802.88 355.7 797.21 367.23 797.21 434.1 864.08 434.1 948.13 456.01 948.13 456.01 885.99 537.29 967.27"/><polygon class="cls-44" points="367.23 797.21 361.47 797.21 355.7 797.21 267.7 885.21 179.7 797.21 173.94 797.21 168.18 797.21 -1.89 967.27 121.5 967.27 185.64 967.27 226.38 967.27 309.03 967.27 349.76 967.27 413.91 967.27 537.29 967.27 367.23 797.21"/></g><g class="cls-45"><g class="cls-46"><path class="cls-4" d="M-1054.15-645.84s13.08-13.08,22.05-15.7,28.79-7.48,30.66-7.85,29.53-7.1,33.64-7.85,24.67-9.72,33.27-15,22.81-13.46,27.29-14.58,28.41-15,41.87-15,23.55,3,34.39,2.62,26.53-7.47,37.74-18.68l0,0c15.68-4.85,17.18-6,27.64-5.23S-751-754.25-742-751.63s34.74,20.16,46.71,32.12l0,0c15.29,8.58,4.09,4.48,15.3,8.58,10.16,3.73,18.16,8.68,23.54.63a54.33,54.33,0,0,1,7.32-8.77c6.72-6.52,12.69-11.08,17.9-12.51a11,11,0,0,0,6-4.07c5.62-7.57,12.59-16.72,16.67-16.4,4.77.38,13.74-3.27,16.54-1.31s20.19,11.22,21.31,13.18l2.81-8.69s15.14-8.41,17.1-8.41,19.06,15.7,19.06,15.7l12.62-.28,14.3,7.57,12.62,2,20.18,9.54,15.42,1.12,10.1,1.12,23.83,2.24,8.41,7.85s29.16-7.29,39.53-6.73,31.69,3.93,32.53,3.93,21.31,1.4,21.31,1.4l20.74-6.73s36.45-5.33,45.7-3.36,14,5,14,5,33.92-20.46,49.9-21.3h0c10,4.86,13,4.87,13.6,4.79a.57.57,0,0,1,.29,0c2.61,1.24,39.09,18.48,53.68,27.13,3.64-2.81,11.77-3.65,11.77-3.65l8.42,8.32,11.49,6.82,24.67.28S-46.4-714.63,3-714.34c24.94,7.56,59.15,19.06,59.15,19.06h0l21.31,9.53,36.73,12.06,10.38,2.52L149-658.83s12.9-7.29,28.59-5h0c10.65-4.48,14-5.6,15.7-5.88s16.82-.56,16.82-.56l6.45,2.24h8.69l9,5.33,9,2.8L255-645.84h19.07l18.78,15.05,30.28,21s37.36-32.92,49.54-34.7a26.69,26.69,0,0,0,4.88-1.25c18.07-6.43,71.87-31.34,76.8-31.34,9.81-4.21,34.2-10.94,39.53-10.94,14.78,2.58,42.62-5.89,60.84-.28,16.26,5.33,46.26,12.34,52.15,17.66s22.19,16.75,23.5,20.85a.43.43,0,0,0,.24.27,58.44,58.44,0,0,0,9.62,3.56s25.24-4.77,38.14-1.12c9.53,7.85,28,15.42,28,15.42s33.4,10.48,53.37,14.4a66.4,66.4,0,0,1,8.07,2.09c15.5,5.08,32.49,8.07,49,6.78h0c17.64.84,27.45,4.48,49,4.2l.07,0c21.26,8.95,30.51,14.84,38.08,24.35l0,0c11.46,8.12,10.09,14.56,38.62,14.57h.09c21.27,9.52,28.66,14.66,44.35,15.22,16.82.37,39.26-5.61,41.31-6.92,13.64,2.06,20.56-3,27.29,5.61s24.48,19.63,32.89,22.43,27.85,9.16,34.77,9.91,21.12,2,24.11,5.79,0,551.17,0,551.17H-1054.15Z"/><path class="cls-6" d="M926.73-204.48,914.25-217H881.48V-513.24h-36.4v-21.33H819.94l-4-4H787.52v20.11H771.74v143.9H733.26V-465H705.17v-14.3l-33,5.2v-34.33H641.72v-9H626.31l-26.2-26.19h-6.58v-2.39h-.78v-7h.78v-2.69h-.78v-1.65h-2.68v1.65h-.78v2.69h.78v7H565.45v2.39H555l-17,17V-451H485.69v-16h-13V-572.06H437.16v-13.16l7.77-7.77h5.79v-4.42l2.73-2.73v-5.07l3.46-1.65v-5.72l-17.16-4.86v-9.45h-13v-16.33h1.38v-3.38h-1.38v-10.66h1.38v-3.38h-1.38v-10.67h1.38v-3.38h-3v-15.9h-1.7v15.9h-3v3.38h1.38v10.67h-1.38v3.38h1.38v10.66h-1.38v3.38h1.38v16.33H408.33V-619l-17.91,6.37v3.09L394-606v4.87l3.58,3.58v3.7h4.09l8,8v12.26H389.82v17.34H364.16v-8.67H353.41v-13.17H314.58V-585H300v-9.71H269.51V-585H259.1v87.72H230v-29.36H202.59v-23.68h-12v-11.14H187.9v11.14H176.58v27H156.65v102.81l-23.76,23.75v28.95H114.47V-553.73H85v-8.45H25.41v-10H18.18v-12.17H15.49v12.17H10.55v-4H7.87v4H.57v6.24H-52v13h-6.5v7.81H-79.78v-12.75H-95.16v-3.59H-104v3.59h-4.78v11.45h-3.9V-687.13h-12.47v-4.72a2.36,2.36,0,0,0,1.44-2.16,2.35,2.35,0,0,0-1.44-2.16v-7.73a2.35,2.35,0,0,0,1.44-2.16,2.35,2.35,0,0,0-1.44-2.16v-7.29H-127v7.29a2.34,2.34,0,0,0-1.43,2.16A2.34,2.34,0,0,0-127-703.9v7.73A2.34,2.34,0,0,0-128.4-694a2.35,2.35,0,0,0,1.43,2.16v4.72h-6.76v-4.72A2.35,2.35,0,0,0-132.3-694a2.34,2.34,0,0,0-1.43-2.16v-7.73a2.34,2.34,0,0,0,1.43-2.16,2.34,2.34,0,0,0-1.43-2.16v-7.29h-1.82v7.29a2.34,2.34,0,0,0-1.43,2.16,2.34,2.34,0,0,0,1.43,2.16v7.73A2.34,2.34,0,0,0-137-694a2.35,2.35,0,0,0,1.43,2.16v4.72h-58.26v203.62H-208v-63.32l-11.32-11.32v-22.36h-9.95v-17.9h-2.69v17.9h-44.31v-5.72h-4.94v-9.36h-30.16v6.76h-13.78V-693h-8.58v-10h-8.84v10h-51.37l-7.67,7.67v19.76h-31.2v20.29h-6.76v140.68H-453.6v6.5h-12.61v61.25l-9.23,9.23v-23.67h-6.24v-49.15h-7v-16.12h-4.68v-7.8h-8.85V-534h-4.68v-37.45h-6.76v-13h-6.45v-10.87h-2.68v10.87H-528l-26.53-49.15h-12.22l-28.08,48.11v53.57h-28.09v6.24l-4.16,3.38H-641.7v-22.19l-17.51-33.29-2.6,2.08L-681.4-611h-1.92l-2.19-22.84V-611h-4v-8.8h-8.84v8.8h-3.29v-22.84L-703.86-611h-3.37l-30.86,49.23h-10v82.7H-786.8v9.19h-10.06v13.69h-49.75v11.27h-18v84.6h-78.71l-29.82-1.21V131.66H1103V-204.48Z"/><rect class="cls-47" x="-973.17" y="-650.24" width="1918.87" height="779.71"/><path class="cls-10" d="M1124.5-201.17v-53.31h-4.59v-20h-1.13V-287.6h-1.13v33.12h-2.74v-12.16h-2.26v12.16h-35.74l-9.66,9.65h-20.56l-6.07-6.07h-21.14v-3.58H962.86c-1.73,0,0-254,0-254H949.31v-63.65l-7.21-7.2h-3.57v-47h-2.38v47h-4.22l-20.07,20.06H890.77v-20.06h-5.63v20.06H856.67v37.58l-29.9,29.88v66.1s-12.34,12.34-21.09,21.12v143.89H755.45v11.1H740.82v14.76H724.11v-15.8H701.24l-10.07-10.06h-13.7V-277h-5.63v16.39h-6.5V-277h-5.63v16.39h-36v-9.55H601.36l-6.25-6.25L585.58-286H531.71l-22.77-22.76H452.51l-11.79-11.78h-39.3v16.63h-40.5v-121H347.3v-16.49h-6.64v-7.38H313.22v7.38H293.3v16.49H223.76v-54.53h-17.9v11.95H178.79v35.16H161.56v-20.22H146.79v-25.13h3V-480H138.22v2.35h2.95v25.13h-10.4v-50.29h-1.21v50.29H98.81l-48,48V-348H44.27v-22.86h-1.2V-348H27v37H-14.53v-60.58H-41.35v-139H-68.93v-31.72h-5.41v-18.82H-81v-18H-205.31v-30.42h-3.09v30.42h-4.9v-40h4.9v-3.1h-4.9v-9.54h4.9v-3.09h-4.9v-8.89h-6.19v64.58h-16.76v120.91h-78.37v-18.57H-337v-8.32H-368v8.32h-7.48v18.57H-390.8v136.37h-45.63v-32.47H-457.7V-376.1h1.92v-3.1h-1.92v-3.48h-6.19v3.48h-1.91v3.1h1.91v21.79h-27.24c0-6.44.17-14.31.17-14.31h-26.29v25.12h-6.18v-10.81H-537l-7.15,7.15h-43.52l-7.57,7.57h-91.68v66.48h-76l-11.35,11.34h-25.78V-244h-18.82V-260.6h-16.5v-12.51H-892V-609.55h-34.81v-20.2h-3.48v-42.63l-6.19-3.55v66.38h-106v20.11l-5.23,5.23v31.9h-21.46s1.94,286.16,0,286.16h-63.81v4h-23.82l-6.85,6.85h-23.16l-10.87-10.88h-40.3v-13.7h-2.54v13.7h-3.09v-37.32h-1.27v14.77h-1.27v22.55h-5.16v60.07h-161.25V83.39H1267.59V-201.17Z"/><rect class="cls-11" x="-277.29" y="-80.49" width="2174.55" height="139.68"/></g></g></svg>