<svg id="Capa_1" data-name="Capa 1" xmlns="http://www.w3.org/2000/svg" xmlns:xlink="http://www.w3.org/1999/xlink" viewBox="0 0 430 932"><defs><style>.cls-1,.cls-17,.cls-20,.cls-26{fill:none;}.cls-2{clip-path:url(#clip-path);}.cls-3{clip-path:url(#clip-path-2);}.cls-4{fill:url(#Degradado_sin_nombre_4);}.cls-5{fill:#6d6d6d;}.cls-6,.cls-8{opacity:0.2;}.cls-6{fill:url(#Degradado_sin_nombre_21);}.cls-7{fill:#474747;}.cls-8{fill:url(#Degradado_sin_nombre_17);}.cls-9{fill:#2d2d2d;}.cls-10{fill:#181818;}.cls-11{fill:#707070;}.cls-12{fill:url(#Degradado_sin_nombre_28);}.cls-13{fill:url(#Degradado_sin_nombre_28-2);}.cls-14,.cls-23{fill:#ffd60a;}.cls-15{fill:#ffc300;}.cls-16{fill:#262626;}.cls-17{stroke:#282a54;}.cls-17,.cls-20,.cls-26{stroke-miterlimit:10;}.cls-18{fill:#424242;}.cls-19,.cls-27,.cls-36,.cls-37,.cls-39,.cls-40{opacity:0.5;}.cls-19{fill:url(#Degradado_sin_nombre_26);}.cls-20,.cls-26{stroke:#1f1f3f;}.cls-20{stroke-width:2px;}.cls-21{fill:#370617;}.cls-22{fill:#6d0c34;}.cls-23,.cls-24{opacity:0.3;}.cls-25,.cls-27{fill:#fff;}.cls-28{fill:#ff5938;}.cls-29{fill:#7fc296;}.cls-30{fill:#435c62;}.cls-31{fill:#324c3a;}.cls-32{fill:#598869;}.cls-33{fill:#dfe2dd;}.cls-34{fill:#c1c1c1;}.cls-35{fill:#f5f1ef;}.cls-37{fill:url(#Degradado_sin_nombre_26-2);}.cls-38{fill:url(#Degradado_sin_nombre_28-3);}.cls-39{fill:url(#Degradado_sin_nombre_26-3);}.cls-40{fill:url(#Degradado_sin_nombre_26-4);}</style><clipPath id="clip-path"><rect class="cls-1" width="430" height="931.35"/></clipPath><clipPath id="clip-path-2"><rect class="cls-1" x="-974.3" y="-148" width="1920" height="1080"/></clipPath><linearGradient id="Degradado_sin_nombre_4" x1="-13.73" y1="-188.45" x2="-13.73" y2="899.56" gradientUnits="userSpaceOnUse"><stop offset="0.03" stop-color="#f9b233"/><stop offset="0.08" stop-color="#f9ae32"/><stop offset="0.15" stop-color="#f7a130"/><stop offset="0.21" stop-color="#f68c2c"/><stop offset="0.27" stop-color="#f36e27"/><stop offset="0.31" stop-color="#f15a24"/></linearGradient><linearGradient id="Degradado_sin_nombre_21" x1="-13.73" y1="33.23" x2="-13.73" y2="867.23" gradientUnits="userSpaceOnUse"><stop offset="0.27" stop-color="#ffe839" stop-opacity="0"/><stop offset="0.32" stop-color="#ffe839" stop-opacity="0.02"/><stop offset="0.38" stop-color="#ffe839" stop-opacity="0.07"/><stop offset="0.45" stop-color="#ffe839" stop-opacity="0.16"/><stop offset="0.51" stop-color="#ffe839" stop-opacity="0.29"/><stop offset="0.58" stop-color="#ffe839" stop-opacity="0.45"/><stop offset="0.6" stop-color="#ffe839" stop-opacity="0.5"/></linearGradient><linearGradient id="Degradado_sin_nombre_17" x1="-13.73" y1="-295.44" x2="-13.73" y2="1999.09" gradientUnits="userSpaceOnUse"><stop offset="0.23" stop-color="#ffe839" stop-opacity="0"/><stop offset="0.3" stop-color="#ffe839" stop-opacity="0.13"/><stop offset="0.45" stop-color="#ffe839" stop-opacity="0.39"/><stop offset="0.52" stop-color="#ffe839" stop-opacity="0.5"/></linearGradient><linearGradient id="Degradado_sin_nombre_28" x1="-10.58" y1="681.06" x2="-10.58" y2="833.29" gradientUnits="userSpaceOnUse"><stop offset="0" stop-color="#ffd60a" stop-opacity="0"/><stop offset="0.15" stop-color="#ffd208" stop-opacity="0.21"/><stop offset="0.35" stop-color="#ffcd05" stop-opacity="0.49"/><stop offset="0.54" stop-color="#ffc903" stop-opacity="0.71"/><stop offset="0.69" stop-color="#ffc601" stop-opacity="0.87"/><stop offset="0.82" stop-color="#ffc400" stop-opacity="0.96"/><stop offset="0.89" stop-color="#ffc300"/></linearGradient><linearGradient id="Degradado_sin_nombre_28-2" x1="129.02" y1="669.19" x2="129.02" y2="871.45" xlink:href="#Degradado_sin_nombre_28"/><linearGradient id="Degradado_sin_nombre_26" x1="182.95" y1="889.99" x2="182.95" y2="737.5" gradientUnits="userSpaceOnUse"><stop offset="0" stop-color="#ffd60a" stop-opacity="0"/><stop offset="0.14" stop-color="#ffd50a" stop-opacity="0.02"/><stop offset="0.34" stop-color="#ffd208" stop-opacity="0.1"/><stop offset="0.57" stop-color="#ffce06" stop-opacity="0.21"/><stop offset="0.82" stop-color="#ffc803" stop-opacity="0.37"/><stop offset="1" stop-color="#ffc300" stop-opacity="0.5"/></linearGradient><linearGradient id="Degradado_sin_nombre_26-2" x1="95.43" y1="730.15" x2="95.43" y2="728.77" xlink:href="#Degradado_sin_nombre_26"/><linearGradient id="Degradado_sin_nombre_28-3" x1="33.03" y1="543.16" x2="33.03" y2="634.29" xlink:href="#Degradado_sin_nombre_28"/><linearGradient id="Degradado_sin_nombre_26-3" x1="-9.59" y1="886.42" x2="-9.59" y2="733.94" xlink:href="#Degradado_sin_nombre_26"/><linearGradient id="Degradado_sin_nombre_26-4" x1="-9.59" y1="886.42" x2="-9.59" y2="733.94" xlink:href="#Degradado_sin_nombre_26"/></defs><g class="cls-2"><g class="cls-3"><rect class="cls-4" x="-973.17" y="-148" width="1918.87" height="1079.35"/><path class="cls-5" d="M-1054.15,306.16s13.08-13.08,22.05-15.7,28.79-7.48,30.66-7.85,29.53-7.1,33.64-7.85,24.67-9.72,33.27-14.95,22.81-13.46,27.29-14.58,28.41-15,41.87-15,23.55,3,34.39,2.62,26.53-7.47,37.74-18.68l0,0c15.68-4.85,17.18-6,27.64-5.23S-751,197.75-742,200.37s34.74,20.16,46.71,32.12l0,0c15.29,8.58,4.09,4.48,15.3,8.58,10.16,3.73,18.16,8.68,23.54.63a54.33,54.33,0,0,1,7.32-8.77c6.72-6.52,12.69-11.08,17.9-12.51a11,11,0,0,0,6-4.07c5.62-7.57,12.59-16.72,16.67-16.4,4.77.38,13.74-3.27,16.54-1.31s20.19,11.22,21.31,13.18l2.81-8.69s15.14-8.41,17.1-8.41,19.06,15.7,19.06,15.7l12.62-.28,14.3,7.57,12.62,2,20.18,9.54,15.42,1.12,10.1,1.12,23.83,2.24,8.41,7.85s29.16-7.29,39.53-6.73,31.69,3.93,32.53,3.93,21.31,1.4,21.31,1.4l20.74-6.73s36.45-5.33,45.7-3.36,14,5,14,5,33.92-20.46,49.9-21.3c0,0,0,0,0,0,10,4.86,13,4.87,13.6,4.79a.57.57,0,0,1,.29,0c2.61,1.24,39.09,18.48,53.68,27.13,3.64-2.81,11.77-3.65,11.77-3.65l8.42,8.32,11.49,6.82,24.67.28S-46.4,237.37,3,237.66c24.94,7.56,59.15,19.06,59.15,19.06h0l21.31,9.53,36.73,12.06,10.38,2.52L149,293.17s12.9-7.29,28.59-5.05h0c10.65-4.48,14-5.6,15.7-5.88s16.82-.56,16.82-.56l6.45,2.24h8.69l9,5.33,9,2.8L255,306.16h19.07l18.78,15,30.28,21s37.36-32.92,49.54-34.7a26.69,26.69,0,0,0,4.88-1.25c18.07-6.43,71.87-31.34,76.8-31.34,9.81-4.21,34.2-10.94,39.53-10.94,14.78,2.58,42.62-5.89,60.84-.28,16.26,5.33,46.26,12.34,52.15,17.66s22.19,16.75,23.5,20.85a.43.43,0,0,0,.24.27,58.44,58.44,0,0,0,9.62,3.56s25.24-4.77,38.14-1.12c9.53,7.85,28,15.42,28,15.42s33.4,10.48,53.37,14.4a66.4,66.4,0,0,1,8.07,2.09c15.5,5.08,32.49,8.07,49,6.78h0c17.64.84,27.45,4.48,49,4.2l.07,0c21.26,8.95,30.51,14.84,38.08,24.35a.08.08,0,0,0,0,0c11.46,8.12,10.09,14.56,38.62,14.57h.09c21.27,9.52,28.66,14.66,44.35,15.22,16.82.37,39.26-5.61,41.31-6.92,13.64,2.06,20.56-3,27.29,5.61s24.48,19.63,32.89,22.43,27.85,9.16,34.77,9.91,21.12,2.05,24.11,5.79,0,551.17,0,551.17H-1054.15Z"/><rect class="cls-6" x="-973.17" y="250.3" width="1918.87" height="283.4"/><path class="cls-7" d="M926.73,747.52,914.25,735H881.48V438.76h-36.4V417.43H819.94l-4-4H787.52v20.11H771.74v143.9H733.26V487H705.17v-14.3l-33,5.2V443.52H641.72v-9H626.31l-26.2-26.19h-6.58v-2.39h-.78v-7h.78V396.2h-.78v-1.65h-2.68v1.65h-.78v2.69h.78v7H565.45v2.39H555l-17,17V501H485.69V485h-13V379.94H437.16V366.78l7.77-7.77h5.79v-4.42l2.73-2.73v-5.07l3.46-1.65v-5.72l-17.16-4.86v-9.45h-13V308.78h1.38V305.4h-1.38V294.74h1.38v-3.38h-1.38V280.69h1.38v-3.38h-3v-15.9h-1.7v15.9h-3v3.38h1.38v10.67h-1.38v3.38h1.38V305.4h-1.38v3.38h1.38v16.33H408.33V333l-17.91,6.37v3.09L394,346v4.87l3.58,3.58v3.7h4.09l8,8v12.26H389.82v17.34H364.16v-8.67H353.41V373.92H314.58V367H300v-9.71H269.51V367H259.1V454.7H230V425.34H202.59V401.66h-12V390.52H187.9v11.14H176.58v27H156.65V531.51l-23.76,23.75v29H114.47V398.27H85v-8.45H25.41v-10H18.18V367.64H15.49v12.17H10.55v-4H7.87v4H.57v6.24H-52v13h-6.5v7.81H-79.78V394.11H-95.16v-3.59H-104v3.59h-4.78v11.45h-3.9V264.87h-12.47v-4.72a2.36,2.36,0,0,0,1.44-2.16,2.35,2.35,0,0,0-1.44-2.16V248.1a2.35,2.35,0,0,0,1.44-2.16,2.35,2.35,0,0,0-1.44-2.16v-7.29H-127v7.29a2.34,2.34,0,0,0-1.43,2.16A2.34,2.34,0,0,0-127,248.1v7.73A2.34,2.34,0,0,0-128.4,258a2.35,2.35,0,0,0,1.43,2.16v4.72h-6.76v-4.72A2.35,2.35,0,0,0-132.3,258a2.34,2.34,0,0,0-1.43-2.16V248.1a2.34,2.34,0,0,0,1.43-2.16,2.34,2.34,0,0,0-1.43-2.16v-7.29h-1.82v7.29a2.34,2.34,0,0,0-1.43,2.16,2.34,2.34,0,0,0,1.43,2.16v7.73A2.34,2.34,0,0,0-137,258a2.35,2.35,0,0,0,1.43,2.16v4.72h-58.26V468.49H-208V405.17l-11.32-11.32V371.49h-9.95v-17.9h-2.69v17.9h-44.31v-5.72h-4.94v-9.36h-30.16v6.76h-13.78V259h-8.58v-10h-8.84v10h-51.37l-7.67,7.67v19.76h-31.2v20.29h-6.76V447.42H-453.6v6.5h-12.61v61.25l-9.23,9.23V500.73h-6.24V451.58h-7V435.46h-4.68v-7.8h-8.85V418h-4.68V380.59h-6.76v-13h-6.45V356.72h-2.68v10.87H-528l-26.53-49.15h-12.22l-28.08,48.11v53.57h-28.09v6.24l-4.16,3.38H-641.7V407.55l-17.51-33.29-2.6,2.08L-681.4,341h-1.92l-2.19-22.84V341h-4v-8.8h-8.84V341h-3.29V318.14L-703.86,341h-3.37l-30.86,49.23h-10v82.7H-786.8v9.19h-10.06v13.69h-49.75v11.27h-18v84.6h-78.71l-29.82-1.21v493.21H1103V747.52Z"/><rect class="cls-8" x="-973.17" y="301.76" width="1918.87" height="779.71"/><path class="cls-9" d="M1124.5,750.83V697.52h-4.59v-20h-1.13V664.4h-1.13v33.12h-2.74V685.36h-2.26v12.16h-35.74l-9.66,9.65h-20.56l-6.07-6.07h-21.14v-3.58H962.86c-1.73,0,0-254,0-254H949.31V379.91l-7.21-7.2h-3.57V325.76h-2.38v46.95h-4.22l-20.07,20.06H890.77V372.71h-5.63v20.06H856.67v37.58l-29.9,29.88v66.1s-12.34,12.34-21.09,21.12V691.34H755.45v11.1H740.82V717.2H724.11V701.4H701.24l-10.07-10.06h-13.7V675h-5.63v16.39h-6.5V675h-5.63v16.39h-36v-9.55H601.36l-6.25-6.25L585.58,666H531.71l-22.77-22.76H452.51l-11.79-11.78h-39.3V648.1h-40.5v-121H347.3V510.59h-6.64v-7.38H313.22v7.38H293.3v16.49H223.76V472.55h-17.9V484.5H178.79v35.16H161.56V499.44H146.79V474.31h3V472H138.22v2.35h2.95v25.13h-10.4V449.15h-1.21v50.29H98.81l-48,48V604H44.27V581.09h-1.2V604H27v37H-14.53V580.41H-41.35V441.46H-68.93V409.74h-5.41V390.92H-81v-18H-205.31V342.46h-3.09v30.42h-4.9v-40h4.9v-3.1h-4.9v-9.54h4.9v-3.09h-4.9V308.3h-6.19v64.58h-16.76V493.79h-78.37V475.22H-337V466.9H-368v8.32h-7.48v18.57H-390.8V630.16h-45.63V597.69H-457.7V575.9h1.92v-3.1h-1.92v-3.48h-6.19v3.48h-1.91v3.1h1.91v21.79h-27.24c0-6.44.17-14.31.17-14.31h-26.29V608.5h-6.18V597.69H-537l-7.15,7.15h-43.52l-7.57,7.57h-91.68v66.48h-76l-11.35,11.34h-25.78V708h-18.82V691.4h-16.5V678.89H-892V342.45h-34.81v-20.2h-3.48V279.62l-6.19-3.55v66.38h-106v20.11l-5.23,5.23v31.9h-21.46s1.94,286.16,0,286.16h-63.81v4h-23.82l-6.85,6.85h-23.16l-10.87-10.88h-40.3v-13.7h-2.54v13.7h-3.09V648.53h-1.27V663.3h-1.27v22.55h-5.16v60.07h-161.25v289.47H1267.59V750.83Z"/><rect class="cls-10" x="-277.29" y="871.51" width="2174.55" height="139.68"/><polygon class="cls-11" points="178.72 812.74 178.72 874.88 156.81 874.88 156.81 790.83 178.72 812.74"/><rect class="cls-12" x="-93.96" y="710.65" width="166.74" height="124.68"/><rect class="cls-13" x="101.23" y="708.5" width="55.57" height="165.66"/><polygon class="cls-14" points="187.87 723.98 186.76 735.97 177.32 735.97 176.22 723.98 187.87 723.98"/><circle class="cls-15" cx="182.07" cy="729.34" r="2.43"/><path class="cls-10" d="M190.1,722.69H174a.23.23,0,0,1-.18-.37l3-3.87a.23.23,0,0,1,.18-.08H187.1a.23.23,0,0,1,.18.08l3,3.87A.23.23,0,0,1,190.1,722.69Z"/><path class="cls-10" d="M183.62,717.67h-3.28a.1.1,0,0,1-.09-.14l.31-.69.16-.33.18-.4H181a1.23,1.23,0,0,1-.06-.39,1.07,1.07,0,1,1,2.13,0,1.23,1.23,0,0,1-.07.39h.09l.18.4.15.33.31.69A.1.1,0,0,1,183.62,717.67Z"/><path class="cls-16" d="M183,738.73v1.15a1.2,1.2,0,0,0-.89-.4,1.18,1.18,0,0,0-.88.4v-1.15Z"/><line class="cls-17" x1="179.55" y1="723.98" x2="180.14" y2="730.44"/><polygon class="cls-18" points="188.47 722.69 188.35 723.98 175.62 723.98 175.5 722.69 188.47 722.69"/><line class="cls-17" x1="183.47" y1="735.97" x2="184.23" y2="727.7"/><path class="cls-18" d="M183.31,740.85a1.26,1.26,0,1,1-2.5,0,1.42,1.42,0,0,1,.37-1,1.18,1.18,0,0,1,.88-.4,1.2,1.2,0,0,1,.89.4A1.46,1.46,0,0,1,183.31,740.85Z"/><path class="cls-18" d="M187.25,736.22l-.09.92a.23.23,0,0,1-.23.21h-9.81a.23.23,0,0,1-.23-.21l-.09-.92A.24.24,0,0,1,177,736h10A.24.24,0,0,1,187.25,736.22Z"/><path class="cls-16" d="M183.92,737.55l-.65,1.11a.14.14,0,0,1-.11.07H181a.12.12,0,0,1-.11-.07l-.65-1.11a.13.13,0,0,1,.11-.2h3.48A.13.13,0,0,1,183.92,737.55Z"/><rect class="cls-10" x="180.56" y="717.67" width="2.83" height="0.7"/><polygon class="cls-19" points="268.63 897.59 97.27 897.59 137.26 815.52 180.14 727.52 185.76 727.52 268.63 897.59"/><line class="cls-20" x1="171.92" y1="597.89" x2="155.36" y2="614.45"/><polygon class="cls-21" points="213.32 855.95 195.11 874.16 192.66 874.16 210.87 855.95 213.32 855.95"/><polygon class="cls-22" points="192.66 855.95 210.87 874.16 213.32 874.16 195.11 855.95 192.66 855.95"/><rect class="cls-21" x="190.05" y="853.28" width="25.92" height="3.52" rx="0.54"/><polygon class="cls-21" points="265.98 855.95 247.76 874.16 245.31 874.16 263.52 855.95 265.98 855.95"/><polygon class="cls-22" points="245.31 855.95 263.52 874.16 265.98 874.16 247.76 855.95 245.31 855.95"/><rect class="cls-21" x="242.71" y="853.28" width="25.92" height="3.52" rx="0.54"/><polygon class="cls-21" points="250.28 837.17 213.29 874.16 208.3 874.16 245.3 837.17 250.28 837.17"/><polygon class="cls-21" points="218.47 842.35 213.49 842.35 208.3 837.17 213.28 837.17 218.47 842.35"/><polygon class="cls-22" points="250.28 874.16 245.3 874.16 213.49 842.35 218.47 842.35 250.28 874.16"/><circle class="cls-21" cx="229.29" cy="855.67" r="0.54"/><rect class="cls-21" x="203.01" y="831.76" width="52.65" height="7.15" rx="0.47"/><path class="cls-16" d="M260.81,828.12l-1.48,1.48h-8.87a.47.47,0,0,0-.46.46v53.15h-1.4a.47.47,0,0,1-.47-.47V828.6a.47.47,0,0,1,.47-.48Z"/><path class="cls-16" d="M283.83,828.6v54.14a.48.48,0,0,1-.48.47H280a.47.47,0,0,1-.47-.47V874.5A.48.48,0,0,0,279,874h-25.9a.48.48,0,0,0-.47.48v8.24a.47.47,0,0,1-.48.47H250V830.06a.47.47,0,0,1,.46-.46h8.87l1.48-1.48h22.54A.48.48,0,0,1,283.83,828.6Z"/><rect class="cls-18" x="252.64" y="832.26" width="26.85" height="37.38" rx="1.44"/><path class="cls-23" d="M260.81,828.12l-1.48,1.48h-8.87a.47.47,0,0,0-.46.46v53.15h-1.4a.47.47,0,0,1-.47-.47V828.6a.47.47,0,0,1,.47-.48Z"/><g class="cls-24"><path class="cls-25" d="M276.59,840.29h0Z"/><path class="cls-25" d="M276.65,840.3h0Z"/><path class="cls-25" d="M259.64,838.16h0l0,0Z"/><path class="cls-25" d="M260.19,840.51Z"/><path class="cls-25" d="M275.8,840.34h0Z"/><path class="cls-25" d="M258.72,838h0Z"/><path class="cls-25" d="M273.33,840.41h0Z"/><path class="cls-25" d="M261,840.35v0S261,840.35,261,840.35Z"/><path class="cls-25" d="M276.25,840.31h0Z"/><path class="cls-25" d="M263.07,839.69l0,0h0l0,.05Z"/><path class="cls-25" d="M276.66,840.35l.2,0a1.48,1.48,0,0,0-.21,0s0,0,.08,0h-.21a.32.32,0,0,0,.13,0l-.23,0s-.22,0-.17,0h-.15l.18,0c.25,0,0,0,.06,0h.19s.07,0,0,0a1,1,0,0,1,.27,0h-.07s.14,0,0,0c0,0-.07,0,0,0s-.23,0-.16,0l-.28,0s0,0,.08,0l-.21,0h.06c-.16,0-.26,0-.39,0a1.1,1.1,0,0,1,.21,0c-.08,0-.05,0-.19,0s0,0,0,0l-.11,0h0c-.17,0,0,0-.23,0a1.57,1.57,0,0,0,.24,0c.08,0-.14,0-.17,0a1.22,1.22,0,0,0-.27,0c.08,0,0,0,.14,0s-.05,0-.06,0,0,0-.09,0h0l-.18,0c-.17,0-.38,0-.5,0l0,0-.33,0,.16,0a3.08,3.08,0,0,0-.48,0h.2c-.13,0-.15,0-.31,0,0,0,.05,0,0,0a2.13,2.13,0,0,0-.25,0s0,0,.19,0,.26,0,.36,0h-.06l.3,0h0l.05,0h-.06a.71.71,0,0,1,.2,0,.91.91,0,0,0-.28.06,1.69,1.69,0,0,0-.32,0s-.1,0,0,0h0a.72.72,0,0,1-.23,0,1.94,1.94,0,0,1-.33,0c.11,0,.21,0,.18,0s-.2,0-.17,0c-.12,0-.33,0-.35,0s.23,0,.33,0-.05,0,0,0h-.18v0l-.5,0h0c-.16,0-.17,0-.34.05.05,0,0,0,0,0h-.21c.1,0-.07,0,0,0s-.16,0-.25,0,.27,0,.14,0-.11,0-.05,0h-.36l-.26,0c.07,0,.07,0,.16,0l-.1,0h-.23s.16,0,.14,0a1.84,1.84,0,0,1-.26,0h0a2.77,2.77,0,0,0-.46,0s.1,0,.08,0h-.33s0,0-.08,0,.08,0-.06,0l-.18,0h0c-.27,0-.47.05-.76.06l.27,0c-.09,0-.21,0-.33,0s-.19,0-.18,0-.09,0-.11,0a2.11,2.11,0,0,1-.33,0h0l-.17,0s0,0,0,0h0c.17,0,.38,0,.55,0-.05,0,0,0,0,0h-.05s-.1,0,0,0a1.19,1.19,0,0,1-.31,0c-.1,0,.1,0,.15,0l-.15,0v0c-.17,0,0,0-.08,0s-.16,0-.21,0h.05l-.29,0h-.06a1.56,1.56,0,0,0,.27,0c-.21,0,.06,0,.13-.05H268c-.14,0-.3,0-.43,0s.06,0,0,0l-.45,0c-.08,0-.07,0-.09,0-.38,0-.53.06-1,.07h.06l-.21,0c-.11,0-.37,0-.51,0s-.2,0-.34,0,0,0,0,0l-.35,0H264a2.11,2.11,0,0,1-.35,0h0l-.11,0-.06,0-.05,0,0,0-.05,0,0,0,0,0,0,0,0,0,0,0v0h0v0a.07.07,0,0,1,0-.05v-.1a.34.34,0,0,1,0-.11c0-.05,0-.08,0-.05s0,.08,0,.07V840a.81.81,0,0,0,0-.09s0,0,0,0v.1l0,0a.62.62,0,0,0-.12-.26.39.39,0,0,0-.08-.1l0,0,0,0-.19-.1s0,0,0,0h0l.05,0h0l.11.06h0l0,0,0,0,0,0-.06-.06-.14-.09-.14,0-.07,0h-.06s0,0,0,0h-.29l0,0c-.07,0,0,0-.05,0l-.24,0h-.07l-.06,0h-.07l-.07,0,0,0h0l-.05,0-.06,0,0,0a2.27,2.27,0,0,0-.32.22l-.29.22-.19.16-.08.06-.08.06.09-.05h0a.22.22,0,0,1-.07.06l-.09,0-.06,0h0l0,0h0l0,0,0,0h-.05l-.13,0-.13,0-.17,0s0,0,.05,0h-.32a.5.5,0,0,1-.13,0h0l0,0-.07,0h0l0,0,0,0h0a.22.22,0,0,1-.09-.1l0-.06V840h0v.13s0,0,0,.07a.36.36,0,0,1,0-.11.5.5,0,0,1,0-.16c0-.05.06-.11.09-.17l.12-.15.25-.27a1,1,0,0,0,.18-.21v0a1.63,1.63,0,0,0,.23-.29.87.87,0,0,0,.1-.24.53.53,0,0,0,0-.13.57.57,0,0,0,0-.13.56.56,0,0,0,0-.12l0,0,0,0a.71.71,0,0,0-.15-.15h0l0,0-.23-.09a1.47,1.47,0,0,0-.28-.08,1.44,1.44,0,0,0-.46,0c-.07,0-.06,0,0,0h-.28s.14,0,.08,0l-.18,0-.07,0-.18,0h0s-.07,0-.11,0h0l-.23.05-.23.06-.24.07-.24.07a6.26,6.26,0,0,0-.91.4l.1-.06-.15.08-.12.07h0l-.1,0,0,0,0,0-.12.08h0l-.07,0-.05,0-.11.07-.05,0,0,0-.11.09,0,0h0l0,0-.05,0-.09.06,0,0,0,0,0,0,0,0s-.06.08-.11.13,0,0,.19-.11l.06-.05,0,0,.12-.09a.34.34,0,0,1,.13-.1l0,0h0l0,0,.08-.06s.14-.09.05,0l.07,0,.09-.06.1-.07.09,0,0,0c.06,0,.08-.06.1-.06l0,0h.05v0l.09,0s-.09,0-.07,0a.64.64,0,0,1,.14-.08l-.06,0,.06,0,0,0h0l-.06,0-.05,0c.14-.07,0,0,.08,0l.06,0,.14-.06-.07,0,.11,0h0l.05,0,.1,0,.06,0,.07,0,0,0,.22-.08c.09,0,0,0,.16,0,0,0,0,0,.07,0l.1,0,.11,0c.05,0,0,0,0,0s0,0,.12,0,0,0,.09,0l0,0h.08l.14,0-.07,0h.21l.13,0H259s.06,0,.11,0h0l.13,0,.11,0c.05,0,.06,0,.07,0h0l.13.05.06,0,0,0h-.09l.06,0h0l0,0h0s0,0,0,0a.31.31,0,0,1,.13.08s0,0,0,0h0l-.05,0s0,0,0,0l.1.05h0l0,0h0l0,0,0,0,0,0,0,0a0,0,0,0,0,0,0h0v0a.07.07,0,0,0,0,.05v0h0s0,0,0,0a.17.17,0,0,1,0,.12l0,.11s0,0,0,0h0v0a.22.22,0,0,1,0,.08s0,0,0,0,0,0,0,0a.83.83,0,0,1-.11.15l-.12.13a3.07,3.07,0,0,0-.25.26l.09-.08,0,0c.07-.06,0,0,0,.08s-.12.12-.08.06l-.1.12s.08-.09,0,0l-.08.08s0,0,0,0l-.07.1,0,0s0,.05,0,.05v0s0-.07.05-.1l-.05.06s0,0,0,0a.57.57,0,0,0-.08.13s0,0,0-.07l-.07.13s0,.09-.05.13v0a.13.13,0,0,1,0,.06v.13a.35.35,0,0,0,0,.12.43.43,0,0,0,0,.05l0,0v0a.6.6,0,0,0,.11.14l0,0a.31.31,0,0,0,.1.08l0,0,0,0,0,0h0l0,0h0l0,0h0l.19,0s.06,0,.05,0h.14l.15,0,.17,0-.2,0a.38.38,0,0,0,.14,0l.2,0a1.81,1.81,0,0,0,.2-.1h0l0,0,.06,0,.09-.07c-.06,0,0,0,0-.08l.07,0,.07,0,.06-.05s.15-.09,0,0a.52.52,0,0,0-.12.07,1.59,1.59,0,0,0,.23-.13l-.1.08s0,0,0,0,.05,0,0,0a.24.24,0,0,0,.08-.06l0,0a.76.76,0,0,0,.16-.13l.09-.07.08-.06s0,0,0,0l.08-.05.05,0,0,0,.05,0,.07,0v0h0l0,0,.11,0,.12,0h0l-.06,0-.05,0a1.34,1.34,0,0,1,.27-.07c.08,0,0,0-.12,0l.17,0,.11,0h0s0,0,0,0h0a1,1,0,0,0-.17,0h0l-.15,0a.33.33,0,0,0-.12,0l.11,0,.13,0a.53.53,0,0,1,.2,0,.76.76,0,0,1,.3,0l0,0h0l0,0,.05,0,.13.06s0,0,.06,0h0l0,0s0,0,0,0l-.06,0,0,0h.05l0,0v0h0s0,0,0,0a.67.67,0,0,1,0,.07l-.06-.07-.11-.08,0,0,.06.06s0,0,0,0h0v0l.06.1a.35.35,0,0,1,0,.11.77.77,0,0,1,0,.15,1.09,1.09,0,0,0,0,.18,0,0,0,0,1,0,0,.43.43,0,0,1,0-.05s0-.08,0-.12,0-.14,0-.1v.09s0,0,0,0v0a.47.47,0,0,0,0,.2v0a0,0,0,0,1,0,0s0,.05,0,.08l0,.06v.05h0v-.06h0l0,0,0,.06.05.06.05,0h0l0,0,0,0h0l.18.09.23.07-.08,0a.5.5,0,0,1-.13,0l-.07,0s0,0,0,0l.06,0,.06,0,.06,0h.06l.26,0h.18c.09,0,.06,0,0,0s-.09,0,0,0h-.21l.11,0h.3l-.05,0h.11s0,0-.06,0h.26c-.06,0-.17,0-.08,0l.06,0h.05c.08,0,0,0,.1,0h0a.55.55,0,0,0,.19,0c-.11,0-.12,0,0,0a1.85,1.85,0,0,1,.4,0l.08,0c-.05,0,.1,0,.15,0s-.25,0-.25,0,.07,0,0,0c.12,0,0,0,.1,0s.2,0,.13,0l.19,0s0,0,0,0h.07s.21,0,.2,0,.19,0,.28,0-.17,0-.2,0,.41,0,.61,0,0,0,0,0c-.16,0-.2,0-.34,0l.51,0c.16,0,.18,0,.38,0h.09s-.09,0,0,0,.1,0,.08,0h0c.19,0,.14,0,.3,0h-.09s.07,0,.15,0h.11s-.13,0-.15,0h.11l.16,0c-.11,0-.05,0,0,0s.22,0,.21,0a1,1,0,0,1,.25,0c-.11,0,0,0,0,0h.16c-.16,0,0,0,0,0l-.24,0c.18,0,.25,0,.4,0s0,0-.08,0l.24,0s-.09,0,0,0h.13c.16,0,.06,0,.18,0h-.08l.18,0h-.21s.1,0,.15,0h.27s-.21,0-.18.07l.52,0c.15,0,.13,0,.11,0h.06l.49,0c.11,0,.06,0,0,0h.1a.65.65,0,0,1,.22,0h-.05l.24,0s-.05,0-.14,0h0l-.14,0c.16,0,.26,0,.26,0,.16,0-.14,0,.06,0s.48,0,.63,0l.44-.05s.12,0,.1,0c-.17,0-.32,0-.47,0l-.08,0a.35.35,0,0,1-.15,0c.16,0,0,0,.25,0h-.32l.23,0s0,0,0,0l.22,0c.06,0,.08,0,0,0l.32,0c.15,0-.05,0-.06,0h-.15s.18,0,.21,0,.23,0,.34,0l-.13,0,.12,0a.58.58,0,0,1-.17.05l.49,0s.06,0,0,0a2.62,2.62,0,0,1,.38,0c.15,0-.14,0,0,0h-.14c.08,0,.07,0,.09,0h-.13s.16,0,.22,0,0,0-.05,0l.38,0c.06,0-.05,0-.08,0s.12,0,.14,0h-.11l.34,0a.37.37,0,0,1-.14,0,1,1,0,0,0,.29,0c.12,0,.25,0,.21,0s0,0,0,0,.17,0,.26,0h-.07c.15,0,0,0,.17,0s0,0,0,0H275s.12,0,0,0a2.19,2.19,0,0,0,.29,0c-.06,0,.12,0,.06,0,.13,0,.22,0,.19,0s-.12,0-.11,0h.37c.08,0,.22,0,.28,0a.46.46,0,0,1-.17,0h0l.1,0c-.09,0,0,0-.15,0s.27,0,.14,0-.08,0-.16,0h0l-.19,0s0,0,0,0c-.23,0-.27,0-.52,0,0,0,.07,0,0,0H275l.13,0h0a1.77,1.77,0,0,1,.34-.06,1.55,1.55,0,0,1,.33,0h-.07c.14,0,0,0,.21,0s.21,0,.11.06l.29,0c.07,0,0,0,0,0s.19,0,.12,0h.09l.21,0Z"/><path class="cls-25" d="M273.53,840.57h0Z"/><path class="cls-25" d="M275.8,840.34h0Z"/><path class="cls-25" d="M263.28,840.92h0Z"/><path class="cls-25" d="M265.7,841.05Z"/><path class="cls-25" d="M275.92,840.44h0Z"/><path class="cls-25" d="M276.59,851h0Z"/><path class="cls-25" d="M276.65,851h0Z"/><path class="cls-25" d="M259.64,848.86h0Z"/><path class="cls-25" d="M260.19,851.2h0S260.2,851.2,260.19,851.2Z"/><path class="cls-25" d="M275.8,851h0Z"/><path class="cls-25" d="M258.72,848.71h0Z"/><path class="cls-25" d="M273.33,851.11h0Z"/><path class="cls-25" d="M261,851.05v0S261,851.05,261,851.05Z"/><path class="cls-25" d="M276.25,851h0Z"/><path class="cls-25" d="M263.07,850.39l0,0h0l0,0Z"/><path class="cls-25" d="M276.66,851.05l.2,0c-.1,0-.11,0-.21,0s0,0,.08,0h-.21a.32.32,0,0,0,.13,0l-.23,0s-.22,0-.17,0h-.15l.18,0c.25,0,0,0,.06,0h.19s.07,0,0,0a1,1,0,0,1,.27,0h-.07s.14,0,0,0c0,0-.07,0,0,0h-.16l-.28,0h.08l-.21,0h.06a3.74,3.74,0,0,0-.39,0,.63.63,0,0,1,.21,0c-.08,0-.05,0-.19,0h0l-.11,0s0,0,0,0c-.17,0,0,0-.23,0a1.66,1.66,0,0,0,.24,0c.08,0-.14,0-.17,0a1.22,1.22,0,0,0-.27,0c.08,0,0,0,.14,0s-.05,0-.06,0,0,0-.09,0h0l-.18,0c-.17,0-.38,0-.5,0h0l-.33,0,.16,0a3.08,3.08,0,0,0-.48,0h.2c-.13,0-.15,0-.31,0,0,0,.05,0,0,0a2.13,2.13,0,0,1-.25,0s0,0,.19,0,.26,0,.36,0h-.06l.3,0h0l.05,0h-.06l.2,0a.91.91,0,0,0-.28.06,1.69,1.69,0,0,0-.32,0s-.1,0,0,0l.16,0h-.2a1.19,1.19,0,0,1-.23,0l-.33,0,.18,0c-.06,0-.2,0-.17,0a1.3,1.3,0,0,1-.35,0h.21s0,0,0,0h-.12c-.1,0-.31,0-.5,0h0c-.16,0-.17,0-.34,0,.05,0,0,0,0,0h-.21c.1,0-.07,0,0,0s-.16,0-.25,0,.27,0,.14,0-.11,0-.05,0h-.36a1.3,1.3,0,0,0-.26,0,.7.7,0,0,1,.16,0l-.1,0h-.32l.1,0h0s.16,0,.14,0-.15,0-.26,0h0a2.77,2.77,0,0,0-.46,0s.1,0,.08,0h-.33s0,0-.08,0,.08,0-.06,0l-.18,0h0c-.27,0-.47,0-.76.06a1.35,1.35,0,0,1,.27,0c-.09,0-.21,0-.33,0s-.19,0-.18,0-.09,0-.11,0a2.34,2.34,0,0,1-.33,0h0l-.17,0s0,0,0,0h0c.17,0,.38,0,.55,0-.05,0,0,0,0,0h-.05s-.1,0,0,0a1.19,1.19,0,0,1-.31,0c-.1,0,.1,0,.15,0l-.15,0v0c-.17,0,0,0-.08,0a.74.74,0,0,1-.21,0h.05l-.29,0h-.06a1.35,1.35,0,0,0,.27,0c-.21,0,.06,0,.13,0H268c-.14,0-.3,0-.43,0s.06,0,0,0l-.45,0H267c-.38,0-.53.06-1,.07h.06a.62.62,0,0,0-.21,0c-.11,0-.37,0-.51,0s-.2,0-.34,0,0,0,0,0l-.35,0H264a2.11,2.11,0,0,1-.35-.05h0l-.11,0-.06,0-.05,0,0,0-.05,0,0,0,0,0,0,0,0,0,0,0v0h0v0a.09.09,0,0,1,0,0V851a.38.38,0,0,1,0-.12s0-.07,0,0,0,.08,0,.07v-.22a.51.51,0,0,0,0-.09s0,0,0,0v.09s0,0,0,0a.72.72,0,0,0-.12-.27l-.08-.09,0,0,0,0-.19-.1h.06l.05,0h0l.11,0,0,0h0l0,0,0,0-.06-.06a.67.67,0,0,0-.14-.09l-.14-.05-.07,0h-.06s0,0,0,0h-.29l0,0c-.07,0,0,0-.05,0l-.24,0h-.13l-.07,0-.07,0,0,0h0l-.05,0-.06,0,0,0a2.27,2.27,0,0,0-.32.22l-.29.22-.19.16-.08.06-.08.06.09-.06s0,0,0,0a.13.13,0,0,1-.07,0l-.09.06-.06,0h0l0,0h0l0,0,0,0h-.05l-.13,0-.13,0-.17,0h-.27l-.13,0h-.06l-.07,0h0l0,0,0,0h0a.22.22,0,0,1-.09-.1.16.16,0,0,1,0-.07v-.09h0v-.09h0v.13s0,0,0,.07a.36.36,0,0,1,0-.11.5.5,0,0,1,0-.16.91.91,0,0,1,.09-.17l.12-.16.25-.26a1.26,1.26,0,0,0,.18-.21v0a1.27,1.27,0,0,0,.23-.28.87.87,0,0,0,.1-.24.85.85,0,0,0,0-.26.56.56,0,0,0,0-.12l0,0,0-.05a.53.53,0,0,0-.15-.15h0l0,0,0,0-.23-.1-.28-.07a1.44,1.44,0,0,0-.46,0c-.07,0-.06,0,0,0H259a.57.57,0,0,0-.18,0h-.18s.14,0,.08,0l-.18,0-.07,0-.18,0h0s-.07,0-.11,0h0l-.23,0-.23.06-.24.06-.24.08a6.26,6.26,0,0,0-.91.4l.1-.07-.15.09-.12.07h0l-.1,0,0,0,0,0a.41.41,0,0,1-.12.08l0,0-.07,0-.05,0-.11.08-.05,0,0,0-.11.09,0,0h0l0,0-.05,0-.09.06,0,0,0,0,0,0,0,0s-.06.08-.11.13a.41.41,0,0,0,.19-.11l.06,0,0,0,.12-.09a.34.34,0,0,1,.13-.1l0,0,0,0h0a.27.27,0,0,0,.08-.07c0,.06.14-.09.05,0l.07,0,.09-.07.1-.06a.2.2,0,0,1,.09-.05l0,0,.1-.06h.06l0,0h0l.09,0s-.09,0-.07,0a.64.64,0,0,1,.14-.08l-.06,0,.06,0,0,0h0l-.06,0-.05,0c.14-.07,0,0,.08,0l.06,0,.14-.07s-.05,0-.07.05l.11,0h0l.05,0,.1,0,.06,0,.07,0,0,0,.22-.08c.09,0,0,0,.16,0,0,0,0,0,.07,0l.1,0,.11,0c.05,0,0,0,0,0s0,0,.12,0,0,0,.09,0l0,0h.08l.14,0-.07,0,.09,0H259s.06,0,.11,0h0l.13,0,.11,0h.08l.13,0,.06,0,0,0-.05,0h0l.06,0h.05l0,0s0,0,0,0a.51.51,0,0,1,.13.09s0,0,0,0h0s0,0,0,0h-.08l-.05,0s0,0,0,0l.1,0h.05l0,0,0,0,0,0,0,0,0,0a0,0,0,0,0,0,0h0v0s0,0,0,0v0h0s0,0,0,0a.17.17,0,0,1,0,.12l0,.1s0,0,0,0h0v0a.22.22,0,0,1,0,.08v0s0,0,0,0a.91.91,0,0,1-.11.16l-.12.13a3.07,3.07,0,0,0-.25.26l.09-.08,0,0c.07,0,0,0,0,.08s-.12.12-.08.07l-.1.12s.08-.09,0,0l-.08.08s0,0,0,0l-.07.1,0,0,0,0v0l.05-.1-.05.06s0,0,0,0a.57.57,0,0,0-.08.13s0,0,0-.07l-.07.13s0,.08-.05.13v.05a.13.13,0,0,1,0,.06v.13a.35.35,0,0,0,0,.12s0,0,0,0l0,0v0a.6.6,0,0,0,.11.14l0,0,.1.08,0,0,0,0,0,0h0l0,0h0l0,0h0l.19,0s.06,0,.05,0h.14l.15,0,.17,0-.2,0a.38.38,0,0,0,.14,0l.2-.05a.78.78,0,0,0,.2-.09h.05l.06,0,.09-.07c-.06,0,0,0,0-.08l.07,0,.07-.05.06,0s.15-.09,0,0a.52.52,0,0,0-.12.07l.23-.14-.1.09s0,0,0,0,.05,0,0,0l.08-.06,0,0,.16-.13.09-.07.08-.06s0,0,0,0l.08,0,.05,0,0,0,.05,0,.07,0v0h0l0,0,.11-.05.12,0h0l-.06,0-.05,0a1.34,1.34,0,0,1,.27-.07l-.12,0,.17,0,.11,0h0c-.08,0-.06,0-.05,0h0a.51.51,0,0,0-.17,0h0l-.15,0-.12.06.11,0,.13,0,.2,0h.32l.05,0,.13.07s0,0,.06,0h.05l-.06-.06,0,0h0v0h0v0h0s0,0,0,0,0,0,0,.07a.19.19,0,0,0-.06-.07l-.11-.09,0,0a.17.17,0,0,1,.06.06s0,0,0,0h0l.06.09a.53.53,0,0,1,0,.12.77.77,0,0,1,0,.15,1.15,1.15,0,0,0,0,.18,0,0,0,0,1,0,0s0,0,0,0,0-.08,0-.12,0-.14,0-.11v.1s0,0,0,0V851a.43.43,0,0,0,0,.19v0a0,0,0,0,1,0,0,.64.64,0,0,0,0,.07.16.16,0,0,0,0,.07v0h0v0h0s0,0,0,0h0l0,0,0,.06.05.06.05,0h0l0,0,0,0h0l.18.09a1,1,0,0,0,.23.06l-.08,0-.13,0-.07,0s0,0,0,0l.06,0,.06,0h.06l.06,0,.26,0h-.06l.24,0c.09,0,.06,0,0,0s-.09,0,0,0h-.21l.11,0a2.09,2.09,0,0,1,.26,0h0l-.05,0a.9.9,0,0,1-.24,0h.35s0,0-.06,0h.26c-.06,0-.17,0-.08,0h.11c.08,0,0,0,.1,0h0a1,1,0,0,0,.19,0c-.11,0-.12,0,0,0a3,3,0,0,1,.4,0h.08c-.05,0,.1,0,.15,0s-.25,0-.25,0,.07,0,0,0c.12,0,0,0,.1,0s.2,0,.13,0l.19,0s0,0,0,0h.07a.79.79,0,0,1,.2,0s.19,0,.28,0-.17,0-.2,0,.41,0,.61-.05,0,0,0,0l-.34,0a3.77,3.77,0,0,0,.51,0c.16,0,.18,0,.38,0h.09s-.09,0,0,0,.1,0,.08,0h0c.19,0,.14,0,.3,0h-.09l.15,0h.11s-.13,0-.15,0H268c-.11,0-.05,0,0,0s.22,0,.21,0a1,1,0,0,1,.25,0c-.11,0,0,0,0,0h.16c-.16,0,0,0,0,0h-.24a2.49,2.49,0,0,0,.4,0s0,0-.08,0l.24,0s-.09,0,0,0h.13c.16,0,.06,0,.18,0h-.08s.17,0,.18,0l-.21,0s.1,0,.15,0h.27s-.21,0-.18.07a3.33,3.33,0,0,1,.52,0c.15,0,.13,0,.11,0h.06l.49,0c.11,0,.06,0,0,0h.1l.22,0-.05,0,.24,0s-.05,0-.14,0h0l-.14,0a.6.6,0,0,1,.26,0c.16,0-.14,0,.06,0s.48,0,.63,0a3.62,3.62,0,0,1,.44,0s.12,0,.1,0c-.17,0-.32,0-.47,0s-.05,0-.08,0h-.15c.16,0,0,0,.25,0h-.32l.23,0s0,0,0,0l.22,0c.06,0,.08,0,0,0a1.94,1.94,0,0,1,.32,0c.15,0-.05,0-.06,0h-.15s.18,0,.21,0,.23,0,.34,0l-.13,0h.12l-.17,0,.49,0s.06,0,0,0c.16,0,.25,0,.38,0s-.14,0,0,0h-.14c.08,0,.07,0,.09,0h-.13s.16,0,.22,0,0,0-.05,0l.38,0c.06,0-.05,0-.08,0a.71.71,0,0,1,.14,0h.09a.74.74,0,0,0,.29,0c.12,0,.25,0,.21,0s0,0,0,0,.17,0,.26,0h-.07c.15,0,0,0,.17,0s0,0,0,0,.11,0,.16,0,.12,0,0,0a2.19,2.19,0,0,0,.29,0c-.06,0,.12,0,.06,0,.13,0,.22,0,.19,0s-.12,0-.11,0h.37c.08,0,.22,0,.28,0h-.16l.1,0c-.09,0,0,0-.15,0s.27,0,.14,0-.08,0-.16,0h0l-.19,0s0,0,0,0h-.52s.07,0,0,0H275l.13,0h0a1.77,1.77,0,0,1,.34-.06,1.55,1.55,0,0,1,.33,0h-.07c.14,0,0,0,.21,0s.21,0,.11.05l.29,0c.07,0,0,0,0,0s.19,0,.12,0h.16s0,0-.07,0l.21,0Z"/><path class="cls-25" d="M273.53,851.27h0Z"/><path class="cls-25" d="M275.8,851h0Z"/><path class="cls-25" d="M263.28,851.62l0,0Z"/><path class="cls-25" d="M265.7,851.75Z"/><path class="cls-25" d="M275.92,851.14h0Z"/><path class="cls-25" d="M276.59,861.69h0Z"/><path class="cls-25" d="M276.65,861.7h0Z"/><path class="cls-25" d="M259.64,859.56h0l0,0Z"/><path class="cls-25" d="M260.19,861.9h0S260.2,861.9,260.19,861.9Z"/><path class="cls-25" d="M275.8,861.73h0Z"/><path class="cls-25" d="M258.72,859.41Z"/><path class="cls-25" d="M273.33,861.8h0Z"/><path class="cls-25" d="M261,861.75v0S261,861.75,261,861.75Z"/><path class="cls-25" d="M276.25,861.71h0Z"/><path class="cls-25" d="M263.07,861.09l0,0h0l0,.06Z"/><path class="cls-25" d="M276.66,861.75l.2,0a1.48,1.48,0,0,1-.21,0h-.23s-.22,0-.17,0h-.15l.18,0c.25,0,0,0,.06,0h.19s.07,0,0,0a1,1,0,0,1,.27,0s-.05,0-.07,0,.14,0,0,0c0,0-.07,0,0,0s-.23,0-.16,0l-.28,0s0,0,.08,0l-.21,0h.06a2.18,2.18,0,0,0-.39.05.63.63,0,0,1,.21,0c-.08,0-.05,0-.19,0h0l-.11,0s0,0,0,0c-.17,0,0,0-.23,0,.14,0,.12,0,.24,0s-.14,0-.17,0h-.27l.14,0c.08,0-.05,0-.06,0s0,0-.09,0h0l-.18,0c-.17,0-.38,0-.5,0h0l-.33,0,.16,0-.48.05h.2c-.13,0-.15,0-.31,0,0,0,.05,0,0,0a2.13,2.13,0,0,1-.25,0s0,0,.19,0,.26,0,.36,0h-.06l.3,0h0l.05,0h-.06l.2,0a1.61,1.61,0,0,0-.28,0,2.92,2.92,0,0,0-.32,0s-.1,0,0,0l.16,0h-.2l-.23.05-.33,0c.11,0,.21,0,.18,0s-.2,0-.17,0a1.3,1.3,0,0,1-.35,0l.33,0h-.12s0,0,0,0h-.12c-.1,0-.31,0-.5,0h0c-.16,0-.17,0-.34.05.05,0,0,0,0,0h-.21c.1,0-.07,0,0,0a1.62,1.62,0,0,1-.25,0s.27,0,.14,0-.11,0-.05,0h-.36a1.3,1.3,0,0,0-.26,0,.7.7,0,0,1,.16,0l-.1,0h-.23s.16,0,.14,0-.15,0-.26,0h0c-.2,0-.34,0-.46,0,0,0,.1,0,.08,0h-.33s0,0-.08,0,.08,0-.06,0l-.18,0h0c-.27,0-.47,0-.76.06l.27,0c-.09,0-.21,0-.33,0s-.19,0-.18,0-.09,0-.11,0a2.34,2.34,0,0,1-.33,0h0l-.17,0s0,0,0,0h0c.17,0,.38,0,.55,0-.05,0,0,0,0,0h-.05s-.1,0,0,0a2,2,0,0,1-.31,0c-.1,0,.1,0,.15,0h-.14c-.17,0,0,0-.08,0a.74.74,0,0,1-.21,0h.05l-.29,0h-.06a1.35,1.35,0,0,0,.27,0c-.21,0,.06,0,.13-.05H268c-.14,0-.3,0-.43,0s.06,0,0,0l-.45,0H267c-.38,0-.53.06-1,.07h-.15c-.11,0-.37,0-.51,0a2.45,2.45,0,0,0-.34,0s0,0,0,0l-.35,0H264a2.14,2.14,0,0,1-.35-.06h0l-.11,0-.06,0-.05,0,0,0-.05,0,0,0,0,0,0,0a.05.05,0,0,1,0,0l0,0v0h0v0a.09.09,0,0,1,0-.05v-.1a.41.41,0,0,1,0-.12s0-.07,0,0,0,.07,0,.07v-.19h0v0a.51.51,0,0,0,0-.09s0,0,0,0h0v.08s0,0,0,0a.72.72,0,0,0-.12-.27l-.08-.09,0,0,0,0-.19-.1h.06l.05,0h0l.11.06,0,0h0l0,0,0,0-.06,0a.42.42,0,0,0-.14-.09l-.14-.06-.07,0h-.06s0,0,0,0h-.33c-.07,0,0,0-.05,0a2.08,2.08,0,0,0-.24,0h-.13l-.07,0-.07,0h0l0,0-.05,0-.06,0,0,0a2.27,2.27,0,0,0-.32.22l-.29.22-.19.16-.08.06-.08,0,.09,0s0,0,0,0,0,0-.07,0l-.09.06-.06,0h0l0,0h0l0,0h-.09c-.06,0-.13,0-.13,0l-.13,0-.17,0h-.27l-.13,0h-.06l-.07,0h0l0,0h0a.29.29,0,0,1-.09-.1.25.25,0,0,1,0-.07v-.09h0v-.1l0,0v.13s0,0,0,.07a.37.37,0,0,1,0-.12.44.44,0,0,1,0-.15.91.91,0,0,1,.09-.17l.12-.16.25-.26a1.88,1.88,0,0,0,.18-.21v0a1.34,1.34,0,0,0,.23-.29.94.94,0,0,0,.1-.23.57.57,0,0,0,0-.13.53.53,0,0,0,0-.13.56.56,0,0,0,0-.12l0-.06,0,0a.43.43,0,0,0-.15-.15v0h0l0,0-.23-.1-.28-.07a1.53,1.53,0,0,0-.46,0c-.07,0-.06,0,0,0h-.28s.14,0,.08,0-.1,0-.18,0,0,0-.07,0l-.18,0h0s-.07,0-.11,0h0l-.23.05-.23,0-.24.07-.24.08a5.33,5.33,0,0,0-.91.4l.1-.07-.15.08-.12.07h0l-.1.05,0,0,0,0-.12.08,0,0-.07,0-.05,0-.11.07-.05,0,0,0-.11.09,0,0h0l0,0-.05,0-.09.06,0,0,0,0,0,0,0,0s-.06.07-.11.13a.41.41,0,0,0,.19-.11l.06,0,0,0,.12-.09a.5.5,0,0,1,.13-.11l0,0,0,0h0a.27.27,0,0,0,.08-.07c0,.06.14-.09.05,0l.07,0,.09-.07.1-.07.09,0,0,0,.1-.06h.06l0,0h0l.09,0s-.09,0-.07,0l.14-.08-.06,0,.06,0,0,0h0l-.06,0a.1.1,0,0,0-.05,0c.14-.07,0,0,.08,0l.06,0,.14-.07-.07,0,.11,0h0l.05,0,.1-.05.06,0,.07,0,0,0a1.94,1.94,0,0,0,.22-.07c.09,0,0,0,.16,0l.07,0c.05,0,.1,0,.1,0l.11,0c.05,0,0,0,0,0s0,0,.12,0,0,0,.09,0l0,0h.08a.28.28,0,0,1,.14,0l-.07,0,.09,0H259l.11,0h0l.13,0a.25.25,0,0,1,.11,0h.07v0l.13.06.06,0,0,0-.05,0h0l.06,0h.05l0,0s0,0,0,0a.51.51,0,0,1,.13.09s0,0,0,0h0s0,0,0,0h-.08l-.05,0s0,0,0,0l.1.05h.05l0,0,0,0s0,0,0,0l0,0,0,0a0,0,0,0,0,0,0h0v0a.06.06,0,0,0,0,0,0,0,0,0,1,0,0h0s0,0,0,0a.19.19,0,0,1,0,.12l0,.11s0,0,0,0h0v0a.34.34,0,0,1,0,.08v0s0,0,0,0a.91.91,0,0,1-.11.16l-.12.13a2.06,2.06,0,0,0-.25.26l.09-.08,0,0c.07-.06,0,0,0,.08s-.12.12-.08.07l-.1.12s.08-.09,0,0l-.08.08s0,0,0,0l-.07.1,0,0,0,0h0a.93.93,0,0,1,.05-.1l-.05.06s0,0,0,0a1,1,0,0,0-.08.14s0,0,0-.07a.83.83,0,0,0-.07.13s0,.08-.05.13v0a.07.07,0,0,1,0,.05v.14a.42.42,0,0,0,0,.12s0,0,0,0l0,0v0a.6.6,0,0,0,.11.14l0,0,.1.08,0,0,0,0,0,0,0,0h0l0,0h.12l.19,0s.06,0,.05,0h.14l.15,0,.17,0-.2,0h.14l.2,0a.78.78,0,0,0,.2-.09h0l0,0,.06,0,.09-.07c-.06,0,0,0,0-.08l.07,0,.07,0,.06,0s.15-.09,0,0l-.12.08.23-.14-.1.09s0,0,0,0,.05,0,0,0l.08-.06,0,0,.16-.13.09-.08.08-.05s0,0,0,0l.08-.06.05,0,0,0a.1.1,0,0,1,.05,0l.07,0h0l0,0a.39.39,0,0,1,.11-.06l.12,0s0,0,0,0h0l-.06,0-.05,0a1.34,1.34,0,0,1,.27-.07c.08,0,0,0-.12,0l.17,0a.2.2,0,0,0,.11,0h0c-.08,0-.06,0-.05,0s0,0,0,0v0a.51.51,0,0,0-.17,0s0,0,0,0h0l-.15,0-.12.06.11,0,.13,0a.87.87,0,0,1,.2,0h.3l0,0h.06l.05,0,.13.06.06,0,0,0h0l-.06-.06,0,0h0v0h0v0h0a.67.67,0,0,1,0,.07l-.06-.07-.11-.08,0,0,.06.06s0,0,0,0h0l.06.09a.53.53,0,0,1,0,.12.77.77,0,0,1,0,.15,1,1,0,0,0,0,.17s0,0,0,0a.43.43,0,0,0,0,0s0-.09,0-.13,0-.13,0-.1v.1a0,0,0,0,1,0,0v.06a.43.43,0,0,0,0,.19v0a0,0,0,0,1,0,0s0,.05,0,.07a.25.25,0,0,0,0,.07v0h0v0s0,0,0,0h0l0,0,0,.06.05.06.05,0h0l0,0,0,0h0l.18.08a1,1,0,0,0,.23.07l-.08,0-.13,0-.07,0s0,0,0,0l.06,0,.06,0h.12l.26,0h-.06l.24,0c.09,0,.06,0,0,0s-.09,0,0,0h-.21l.11,0,.26,0h0l-.05,0a.9.9,0,0,1-.24,0h.35s0,0-.06,0h.26c-.06,0-.17,0-.08,0l.06,0h.05c.08,0,0,0,.1,0h0l.19,0c-.11,0-.12,0,0,0s.28,0,.4,0h.23s-.25,0-.25,0,.07,0,0,0c.12,0,0,0,.1,0s.2,0,.13,0c.1,0,.12,0,.19,0s0,0,0,0h.12s0,0-.05,0,.21,0,.2,0a1.25,1.25,0,0,0,.28,0s-.17,0-.2,0l.61,0c.17,0,0,0,0,0-.16,0-.2,0-.34,0,.15,0,.4,0,.51,0s.18,0,.38,0c0,0,0,0-.08,0h.17s-.09,0,0,0,.1,0,.08,0h0c.19,0,.14,0,.3,0h-.09l.15,0h.11s-.13,0-.15,0h.11l.16,0c-.11,0-.05,0,0,0h.21l.25,0c-.11,0,0,0,0,0h.16c-.16,0,0,0,0,0h-.24a2.49,2.49,0,0,0,.4,0l-.08,0,.24,0s-.09,0,0,0h.13c.16,0,.06,0,.18,0h-.08s.17,0,.18,0l-.21,0s.1,0,.15,0h.27s-.21,0-.18.07a3.33,3.33,0,0,1,.52,0c.15,0,.13,0,.11-.05h.06l.49,0c.11,0,.06,0,0,0h.1l.22,0h-.05a1,1,0,0,0,.24,0s-.05,0-.14,0h-.15a.69.69,0,0,1,.26,0c.16,0-.14,0,.06,0a4.34,4.34,0,0,1,.63,0,3.62,3.62,0,0,1,.44-.05s.12,0,.1,0c-.17,0-.32,0-.47,0s-.05,0-.08,0h-.15c.16,0,0,0,.25,0h-.27s0,0-.05,0a1.57,1.57,0,0,1,.23,0s0,0,0,0l.22,0c.06,0,.08,0,0,0a1.94,1.94,0,0,1,.32,0c.15,0-.05,0-.06,0h-.15s.18,0,.21,0,.23,0,.34,0l-.13,0h.12c-.07,0-.07,0-.17,0l.49,0s.06,0,0,0c.16,0,.25,0,.38,0s-.14,0,0,0h-.14c.08,0,.07,0,.09,0h-.13l.22,0s0,0-.05,0a1.64,1.64,0,0,1,.38,0h.15a1,1,0,0,0,.29,0c.12,0,.25,0,.21,0s0,0,0,0a2.46,2.46,0,0,0,.26,0h-.07c.15,0,0,0,.17,0s0,0,0,0H275s.12,0,0,0c.13,0,.2,0,.29,0s.12,0,.06,0c.13,0,.22,0,.19,0s-.12,0-.11,0l.23,0,.14,0c.08,0,.22,0,.28,0h-.16l.1,0c-.09,0,0,0-.15,0s.27-.05.14-.05-.08,0-.16,0h0l-.19,0s0,0,0,0h-.52s.07,0,0,0H275a.49.49,0,0,1,.13,0v0c.18,0,.09,0,.34-.05a1.07,1.07,0,0,1,.33,0h-.07c.14,0,0,0,.21,0s.21,0,.11,0l.29,0c.07,0,0,0,0,0s.19,0,.12,0h.09l.21,0Z"/><path class="cls-25" d="M273.53,862h0Z"/><path class="cls-25" d="M275.8,861.73h0Z"/><path class="cls-25" d="M263.28,862.32l0,0Z"/><path class="cls-25" d="M265.7,862.45h0Z"/><path class="cls-25" d="M275.92,861.84h0Z"/></g><rect class="cls-16" x="7.51" y="842.39" width="7.24" height="32.48"/><rect class="cls-18" x="14.76" y="842.39" width="7.25" height="32.48"/><rect class="cls-16" x="22.01" y="842.39" width="7.25" height="32.48"/><path class="cls-10" d="M94.66,743V874.87h62.15V743Zm53.9,122.28H102.91V846.68h45.65Zm0-28.53H102.91V751.3h45.65Z"/><rect class="cls-16" x="36.5" y="842.39" width="7.25" height="32.48"/><rect class="cls-18" x="29.26" y="842.39" width="7.24" height="32.48"/><rect class="cls-16" x="-6.99" y="842.39" width="7.25" height="32.48"/><rect class="cls-16" x="65.49" y="842.39" width="7.25" height="32.48"/><rect class="cls-18" x="0.26" y="842.39" width="7.25" height="32.48"/><rect class="cls-16" x="51" y="842.39" width="7.25" height="32.48"/><rect class="cls-18" x="58.25" y="842.39" width="7.24" height="32.48"/><rect class="cls-18" x="43.75" y="842.39" width="7.25" height="32.48"/><path class="cls-16" d="M72.74,702.32v27.31L78.41,724H89.94l4.72,4.72V708.51h62.15v21.71H96.2L109,743.05h47.78v47.78l21.91,21.91V702.32Z"/><path class="cls-18" d="M185.24,697v2.91a2.39,2.39,0,0,1-2.39,2.4H-116.78a2.39,2.39,0,0,1-2.39-2.4V697Z"/><rect class="cls-18" x="-119.17" y="677.93" width="304.41" height="19.07"/><path class="cls-10" d="M185.24,672.69v5.25H-119.17v-5.25a2.39,2.39,0,0,1,2.39-2.4H182.85A2.39,2.39,0,0,1,185.24,672.69Z"/><path class="cls-10" d="M94.66,703v27.21h62.15V703Zm55.58,21.4h-49V708.82h49Z"/><path class="cls-18" d="M110.15,804.9a1.41,1.41,0,1,1-2-1.27V792.21a1.41,1.41,0,1,1,1.17,0v11.42A1.4,1.4,0,0,1,110.15,804.9Z"/><polygon class="cls-10" points="72.74 803.99 72.74 808.15 -8.52 808.15 -8.52 835.62 -12.68 835.62 -12.68 808.15 -93.96 808.15 -93.96 803.99 -12.68 803.99 -12.68 734.79 -8.52 734.79 -8.52 803.99 72.74 803.99"/><rect class="cls-10" x="-93.96" y="835.62" width="166.7" height="6.77"/><path class="cls-10" d="M-94,702.32V734.8H72.74V702.32Zm79.19,23.92H-86.62V710.65h71.85Zm80.19,0H-6.45V710.65H65.42Z"/><line class="cls-26" x1="122.46" y1="642.88" x2="117.14" y2="642.88"/><line class="cls-26" x1="143.97" y1="642.88" x2="137.7" y2="642.88"/><line class="cls-26" x1="141.23" y1="638.9" x2="137.7" y2="638.9"/><line class="cls-26" x1="107.97" y1="638.9" x2="114.83" y2="638.9"/><line class="cls-26" x1="114.83" y1="634.93" x2="113.18" y2="634.93"/><line class="cls-26" x1="130.08" y1="634.93" x2="135.47" y2="634.93"/><line class="cls-26" x1="130.08" y1="642.88" x2="130.08" y2="647.79"/><path class="cls-16" d="M-94,515.76V670.29H156.81V515.76Zm54.4,69.38h-7.62v4H-62.43v-4h7.62v-4h15.25ZM75.6,647.7H-9.53V555.64H75.6Zm62.1-4.82H122.45v-4h-7.62v-4h15.25v4h7.62Z"/><rect class="cls-18" x="114.83" y="634.93" width="15.25" height="3.98"/><rect class="cls-10" x="122.45" y="638.9" width="15.25" height="3.98"/><rect class="cls-18" x="163.45" y="841.57" width="12.48" height="3.25"/><rect class="cls-10" x="159.84" y="844.82" width="12.48" height="3.25"/><rect class="cls-18" x="164.07" y="720.48" width="10.73" height="2.8"/><rect class="cls-10" x="160.97" y="723.27" width="10.73" height="2.8"/><rect class="cls-10" x="160.97" y="714.49" width="8.15" height="2.12"/><rect class="cls-10" x="159.44" y="833.66" width="8" height="2.09"/><rect class="cls-18" x="73.98" y="856.51" width="12.48" height="3.25"/><rect class="cls-10" x="77.59" y="853.26" width="12.48" height="3.25"/><rect class="cls-10" x="82.46" y="865.58" width="8" height="2.09"/><path class="cls-10" d="M-9.53,555.64v85.13H75.6V555.64Zm79.87,79.87H-4.28V560.89H70.34Z"/><rect class="cls-10" x="-9.53" y="640.77" width="85.13" height="6.93"/><rect class="cls-10" x="156.81" y="595.09" width="69.65" height="4.25"/><line class="cls-20" x1="221.5" y1="617.61" x2="221.5" y2="599.34"/><line class="cls-20" x1="193.3" y1="638.09" x2="193.3" y2="599.34"/><path class="cls-10" d="M270.42,719.85v7.29a2.39,2.39,0,0,1-2.7,2.37c-6-.79-21-2.3-31.81.39-12.63,3.14-33.28,6.39-57.19-.62v-27h4.13a2.39,2.39,0,0,0,2.39-2.4V672.69l84,45.07A2.4,2.4,0,0,1,270.42,719.85Z"/><rect class="cls-27" x="12.41" y="768.97" width="38.03" height="1.97" rx="0.98" transform="translate(598.09 1292.18) rotate(135)"/><rect class="cls-27" x="29.25" y="777.5" width="16.84" height="1.97" rx="0.98" transform="translate(614.77 1302.32) rotate(135)"/><rect class="cls-27" x="19.73" y="759.82" width="16.84" height="1.97" rx="0.98" transform="translate(586.02 1278.88) rotate(135)"/><rect class="cls-27" x="111.93" y="795.02" width="28.11" height="1.46" rx="0.73" transform="translate(777.76 1269.35) rotate(135)"/><rect class="cls-27" x="124.38" y="801.32" width="12.44" height="1.46" rx="0.73" transform="translate(790.08 1276.84) rotate(135)"/><rect class="cls-27" x="117.34" y="788.26" width="12.44" height="1.46" rx="0.73" transform="translate(768.84 1259.51) rotate(135)"/><path class="cls-28" d="M203.48,636.22a4.91,4.91,0,0,0,.83,3,2.89,2.89,0,0,0,2.47,1.13c.35,0,.68,0,1,0s.55-.06.75-.1v-7.25a3.33,3.33,0,0,0-1-.4,4.59,4.59,0,0,0-1.22-.16Q203.49,632.37,203.48,636.22Z"/><path class="cls-28" d="M229.19,632l-3-12.67a5.53,5.53,0,0,0-4.12-4.12l-.59-.14-12.08-2.84a5.55,5.55,0,0,0-5.18,1.47l-11,11-6.43,6.44a5.53,5.53,0,0,0,0,7.82l15.65,15.65a5.54,5.54,0,0,0,7.83,0l17.38-17.38A5.55,5.55,0,0,0,229.19,632ZM212.5,642.91a11.33,11.33,0,0,1-1.22.31c-.47.1-1,.18-1.46.25s-1,.14-1.56.18-1,.07-1.51.07a8.86,8.86,0,0,1-3.11-.51,6.1,6.1,0,0,1-3.73-3.76,8.77,8.77,0,0,1-.49-3,10.27,10.27,0,0,1,.42-3.09,6.84,6.84,0,0,1,1.24-2.35,5.28,5.28,0,0,1,2-1.47,6.75,6.75,0,0,1,2.66-.51,6.6,6.6,0,0,1,1.49.16,8.08,8.08,0,0,1,1.33.46v-6.37l4-.65ZM222.6,621a1.56,1.56,0,1,1-1.1-2.66,1.52,1.52,0,0,1,1.1.46A1.55,1.55,0,0,1,222.6,621Z"/><polygon class="cls-21" points="14.7 838.55 -31.75 885 -38.01 885 8.44 838.55 14.7 838.55"/><polygon class="cls-22" points="14.69 885 8.44 885 -31.5 845.06 -25.25 845.06 14.69 885"/><rect class="cls-21" x="-44.65" y="831.76" width="66.11" height="8.98" rx="0.47"/><polygon class="cls-21" points="46.85 862.44 23.98 885.31 20.9 885.31 43.77 862.44 46.85 862.44"/><polygon class="cls-22" points="20.9 862.44 43.77 885.31 46.85 885.31 23.98 862.44 20.9 862.44"/><rect class="cls-21" x="17.63" y="859.1" width="32.55" height="4.42" rx="0.61"/><polygon class="cls-14" points="89.98 723.98 88.87 735.97 79.44 735.97 78.33 723.98 89.98 723.98"/><circle class="cls-15" cx="84.18" cy="729.34" r="2.43"/><path class="cls-10" d="M92.21,722.69H76.09a.23.23,0,0,1-.18-.37l3-3.87a.23.23,0,0,1,.18-.08H89.21a.23.23,0,0,1,.18.08l3,3.87A.23.23,0,0,1,92.21,722.69Z"/><path class="cls-10" d="M85.73,717.67H82.45a.1.1,0,0,1-.09-.14l.32-.69.15-.33.18-.4h.09a1.23,1.23,0,0,1-.07-.39,1.07,1.07,0,1,1,2.13,0,1.23,1.23,0,0,1-.07.39h.09l.18.4.15.33.31.69A.1.1,0,0,1,85.73,717.67Z"/><path class="cls-16" d="M85.06,738.73v1.15a1.18,1.18,0,0,0-1.77,0v-1.15Z"/><line class="cls-17" x1="81.66" y1="723.98" x2="82.25" y2="730.44"/><polygon class="cls-18" points="90.58 722.69 90.47 723.98 77.73 723.98 77.62 722.69 90.58 722.69"/><line class="cls-17" x1="85.58" y1="735.97" x2="86.35" y2="727.7"/><path class="cls-18" d="M85.42,740.85a1.25,1.25,0,1,1-2.49,0,1.46,1.46,0,0,1,.36-1,1.18,1.18,0,0,1,1.77,0A1.46,1.46,0,0,1,85.42,740.85Z"/><path class="cls-18" d="M89.36,736.22l-.08.92a.23.23,0,0,1-.23.21H79.23a.23.23,0,0,1-.23-.21l-.08-.92a.23.23,0,0,1,.23-.25h10A.24.24,0,0,1,89.36,736.22Z"/><path class="cls-16" d="M86,737.55l-.65,1.11a.12.12,0,0,1-.11.07H83.08a.12.12,0,0,1-.11-.07l-.65-1.11a.13.13,0,0,1,.12-.2h3.47A.13.13,0,0,1,86,737.55Z"/><rect class="cls-10" x="82.68" y="717.67" width="2.83" height="0.7"/><path class="cls-29" d="M103.08,831.5c-2.14.7-5.49,3.43-8.33,11.22-3,8.16-7.12,6-7.12,6l-.16-.1c1.34-.61,2.94-2.18,4.3-5.91,2.2-6,4.7-9,6.7-10.39,2.08-1,3.76-1.29,4.61-1A.11.11,0,0,1,103.08,831.5Z"/><path class="cls-30" d="M98.47,832.33c-2,1.37-4.5,4.38-6.7,10.39-1.36,3.73-3,5.3-4.3,5.91-3-1.9,0-7.4,3.74-11.1A27.1,27.1,0,0,1,98.47,832.33Z"/><path class="cls-31" d="M101.18,798.87c-2.15,10-8.76,12.36-11.42,27.3-3.12,17.46-2.25,20.9-2,21.51a2.92,2.92,0,0,1-2.45.13s-1.72-1.46,1.88-21.64c3.36-18.89,13-17.63,12.06-37.23,0-.23.21-.4.28-.21A26.36,26.36,0,0,1,101.18,798.87Z"/><path class="cls-32" d="M101.18,798.87c-.19,6.25-2.23,13-3.74,24.13-1.45,10.61-5.26,22.54-9.64,24.68-.29-.61-1.16-4,2-21.51C92.42,811.23,99,808.89,101.18,798.87Z"/><path class="cls-32" d="M87.41,850.18h0a5.84,5.84,0,0,1-6.23-2A6,6,0,0,0,83.4,848h0c.3-.1,9.47-3.36,1.65-20.06-4-8.49-5.62-15.08-6-20h0c1.55-4.07,3.39-6.77,4.93-7.77a.3.3,0,0,1,.44.39c-2.1,4.42-2.88,13.67,4.59,29.64C96.9,846.82,87.72,850.08,87.41,850.18Z"/><path class="cls-31" d="M83.43,847.24h0a6,6,0,0,1-2.22.23c-3.65-4-5.52-12.64-5.45-20.57a57.85,57.85,0,0,1,3.39-19.78c.34,5,2,11.57,6,20C92.9,843.88,83.73,847.14,83.43,847.24Z"/><path class="cls-30" d="M82.27,849.67s-6.83.76-6.92-11.68c1.65,7,6.37,6.44,6.37,6.44,2.68-.37,3.83-2.73,3.94-5.9C86.88,844.09,86.29,849.12,82.27,849.67Z"/><path class="cls-29" d="M85.66,838.53c-.11,3.17-1.26,5.53-3.94,5.9,0,0-4.72.52-6.37-6.44,0-.29,0-.59,0-.9a53.77,53.77,0,0,0-.62-9.62c-1-6.26-3.24-9.57-5.12-11.11a.17.17,0,0,1,.11-.31,7.37,7.37,0,0,1,3.34,1.62c3.07,2.3,7.1,7,10.26,13.93A34.67,34.67,0,0,1,85.66,838.53Z"/><path class="cls-33" d="M94.34,825.43c-1.44,3.41-4,7.09-6.9,12.89-2.81,5.61-2.8,9.11-2,11.25l-.38-.1s-6.8-2.39-.81-14.34c5.83-11.6,10.16-14.7,7.24-24.14a.15.15,0,0,1,.26-.12C95.24,816,94.9,819.67,94.34,825.43Z"/><path class="cls-34" d="M94.34,825.43c-.22,2.32-.47,5-.53,8.19-.14,8.09-3.14,17.16-8.38,16-.79-2.14-.8-5.64,2-11.25C90.36,832.52,92.9,828.84,94.34,825.43Z"/><path class="cls-33" d="M83.58,850.15a4.22,4.22,0,0,1-2.84-3.68,3.73,3.73,0,0,0,1.27.7c4.25,1,6-5.27,5.54-10.79a26.69,26.69,0,0,0-1.89-8.06,23.65,23.65,0,0,1,3.46,11C89.57,844.88,87.83,851.16,83.58,850.15Z"/><path class="cls-35" d="M82,847.17a3.73,3.73,0,0,1-1.27-.7A11.14,11.14,0,0,1,82,840.62c3.54-7.75,2.73-12.16,1.42-14.2-.07-.1,0-.21.17-.16a6,6,0,0,1,2.06,2.06,26.69,26.69,0,0,1,1.89,8.06C88,841.9,86.26,848.19,82,847.17Z"/><polygon class="cls-18" points="103.21 846.71 67.98 846.71 70.23 839.78 100.96 839.78 103.21 846.71"/><polygon class="cls-23" points="101.4 841.13 69.79 841.13 70.23 839.79 100.96 839.79 101.4 841.13"/><polygon class="cls-18" points="101.02 848.74 97.93 883.64 73.25 883.64 70.17 848.74 101.02 848.74"/><rect class="cls-16" x="67.98" y="846.71" width="35.24" height="2.04"/><circle class="cls-10" cx="123.98" cy="733.84" r="5.45"/><g class="cls-36"><path class="cls-25" d="M125.42,735.69l-.28.07-.34.06-.37,0-.35,0a2,2,0,0,1-.72-.12,1.66,1.66,0,0,1-.54-.34,1.48,1.48,0,0,1-.33-.54,2,2,0,0,1-.12-.71,2.28,2.28,0,0,1,.1-.72,1.6,1.6,0,0,1,.29-.55,1.2,1.2,0,0,1,.46-.34,1.52,1.52,0,0,1,.62-.12,1.18,1.18,0,0,1,.34,0,1.15,1.15,0,0,1,.31.11V731.1l.93-.15Zm-2.1-1.56a1.13,1.13,0,0,0,.19.69.66.66,0,0,0,.58.26h.23l.17,0v-1.69a.56.56,0,0,0-.22-.09,1,1,0,0,0-.29,0Q123.32,733.23,123.32,734.13Z"/></g><polygon class="cls-37" points="96.2 730.22 94.66 730.22 94.66 728.68 96.2 730.22"/><rect class="cls-38" x="-4.45" y="560.87" width="74.96" height="74.63"/><path class="cls-29" d="M21.31,642.71c-1.39.8-3.33,3.19-4.18,9C16.24,657.86,13,657,13,657l-.13-.05c.85-.62,1.74-1.95,2.15-4.75.65-4.51,2-7,3.16-8.21a5.6,5.6,0,0,1,3.06-1.4A.08.08,0,0,1,21.31,642.71Z"/><path class="cls-30" d="M18.22,644c-1.2,1.25-2.51,3.7-3.16,8.21-.41,2.8-1.3,4.13-2.15,4.75-2.37-.89-1.1-5.15,1-8.28A19,19,0,0,1,18.22,644Z"/><path class="cls-31" d="M15.25,620.24c-.05,7.3-4.32,9.89-4,20.69.36,12.62,1.47,14.9,1.76,15.28a2.08,2.08,0,0,1-1.69.44s-1.41-.76-1.84-15.35c-.39-13.66,6.53-14.19,3-27.71,0-.16.1-.31.17-.18A18.9,18.9,0,0,1,15.25,620.24Z"/><path class="cls-32" d="M15.25,620.24c.77,4.38.33,9.39.89,17.36.53,7.61-.39,16.48-3.13,18.61-.29-.38-1.4-2.66-1.76-15.28C10.93,630.13,15.2,627.54,15.25,620.24Z"/><path class="cls-32" d="M13.1,658h0a4.15,4.15,0,0,1-4.63-.48,4.13,4.13,0,0,0,1.52-.48h0c.2-.12,6.12-3.72-1.76-14.23-4-5.34-6.1-9.69-7.07-13.11h0c.5-3.06,1.38-5.21,2.31-6.13a.22.22,0,0,1,.37.21c-.83,3.38,0,10,7.5,20C19.22,654.29,13.3,657.9,13.1,658Z"/><path class="cls-31" d="M9.89,656.54h0a4.33,4.33,0,0,1-1.52.48c-3.12-2.24-5.68-8-6.78-13.55a41.2,41.2,0,0,1-.52-14.28c1,3.42,3.07,7.77,7.07,13.11C16,652.82,10.09,656.43,9.89,656.54Z"/><path class="cls-30" d="M9.44,658.4s-4.65,1.52-6.52-7.14c2.16,4.61,5.37,3.57,5.37,3.57,1.82-.65,2.28-2.46,1.9-4.69C11.85,653.84,12.16,657.43,9.44,658.4Z"/><path class="cls-29" d="M10.19,650.14c.38,2.23-.08,4-1.9,4.69,0,0-3.21,1-5.37-3.57,0-.2-.09-.41-.13-.63A36.71,36.71,0,0,0,1,644c-1.64-4.22-3.64-6.21-5.18-7a.12.12,0,0,1,0-.23,5.22,5.22,0,0,1,2.56.65,26.37,26.37,0,0,1,9.17,8.21A25,25,0,0,1,10.19,650.14Z"/><path class="cls-33" d="M14.34,639.75c-.52,2.59-1.75,5.52-2.94,10-1.15,4.32-.64,6.75.23,8.13l-.29,0S6.26,657.18,8.7,648c2.38-8.93,5-11.71,1.54-17.87a.11.11,0,0,1,.16-.13C13.59,633.05,13.89,635.65,14.34,639.75Z"/><path class="cls-34" d="M14.34,639.75c.18,1.64.38,3.53.81,5.78,1.08,5.66.3,12.42-3.52,12.34-.87-1.38-1.38-3.81-.23-8.13C12.59,645.27,13.82,642.34,14.34,639.75Z"/><path class="cls-33" d="M10.42,658.54a3,3,0,0,1-2.51-2.15,2.73,2.73,0,0,0,1,.31c3.11.09,3.4-4.55,2.29-8.33A18.71,18.71,0,0,0,8.7,643a16.9,16.9,0,0,1,4,7.19C13.83,654,13.54,658.63,10.42,658.54Z"/><path class="cls-35" d="M8.9,656.7a2.73,2.73,0,0,1-1-.31,7.92,7.92,0,0,1,0-4.26c1.35-5.92.14-8.87-1.07-10.11-.06,0,0-.15.09-.13A4.11,4.11,0,0,1,8.7,643a18.71,18.71,0,0,1,2.49,5.34C12.3,652.15,12,656.79,8.9,656.7Z"/><path class="cls-29" d="M17.49,647.74c1.72.56,4.41,2.76,6.69,9,2.39,6.55,5.72,4.83,5.72,4.83a.57.57,0,0,0,.13-.08c-1.08-.49-2.37-1.76-3.46-4.75-1.76-4.83-3.77-7.24-5.38-8.35a6.28,6.28,0,0,0-3.7-.83A.09.09,0,0,0,17.49,647.74Z"/><path class="cls-30" d="M21.19,648.4c1.61,1.11,3.62,3.52,5.38,8.35,1.09,3,2.38,4.26,3.46,4.75,2.42-1.52,0-6-3-8.92A22,22,0,0,0,21.19,648.4Z"/><path class="cls-31" d="M19,621.52c1.73,8.05,7,9.93,9.18,21.94,2.5,14,1.8,16.79,1.57,17.28a2.38,2.38,0,0,0,2,.1s1.38-1.17-1.51-17.38c-2.7-15.18-10.47-14.17-9.69-29.92,0-.18-.17-.32-.22-.16A21.18,21.18,0,0,0,19,621.52Z"/><path class="cls-32" d="M19,621.52c.15,5,1.79,10.45,3,19.38,1.16,8.54,4.23,18.11,7.74,19.84.23-.49.93-3.26-1.57-17.28C26.06,631.45,20.74,629.57,19,621.52Z"/><path class="cls-32" d="M30.07,662.75h0a4.67,4.67,0,0,0,5-1.59A4.69,4.69,0,0,1,33.3,661h0c-.24-.08-7.61-2.7-1.32-16.12,3.19-6.82,4.51-12.11,4.79-16.11h0c-1.25-3.27-2.73-5.44-4-6.25a.25.25,0,0,0-.36.32c1.69,3.54,2.32,11-3.69,23.81C22.46,660.05,29.83,662.67,30.07,662.75Z"/><path class="cls-31" d="M33.28,660.39h0a4.69,4.69,0,0,0,1.79.18c2.94-3.19,4.44-10.15,4.38-16.52a46.5,46.5,0,0,0-2.72-15.89c-.28,4-1.6,9.29-4.79,16.11C25.66,657.69,33,660.3,33.28,660.39Z"/><path class="cls-30" d="M34.2,662.34s5.49.6,5.57-9.39c-1.33,5.59-5.12,5.17-5.12,5.17-2.15-.29-3.08-2.19-3.17-4.74C30.5,657.85,31,661.89,34.2,662.34Z"/><path class="cls-29" d="M31.48,653.38c.09,2.55,1,4.45,3.17,4.74,0,0,3.79.42,5.12-5.17,0-.23,0-.48,0-.72a42.46,42.46,0,0,1,.5-7.73c.84-5,2.6-7.69,4.11-8.93a.14.14,0,0,0-.09-.25,5.92,5.92,0,0,0-2.68,1.31c-2.47,1.85-5.7,5.63-8.25,11.18A28.08,28.08,0,0,0,31.48,653.38Z"/><path class="cls-33" d="M24.51,642.86c1.16,2.74,3.2,5.69,5.54,10.36,2.26,4.51,2.26,7.32,1.62,9l.31-.09s5.46-1.91.64-11.52c-4.68-9.32-8.16-11.8-5.81-19.39a.12.12,0,0,0-.21-.1C23.79,635.29,24.06,638.24,24.51,642.86Z"/><path class="cls-34" d="M24.51,642.86c.18,1.86.38,4,.43,6.58.11,6.5,2.52,13.79,6.73,12.82.64-1.72.64-4.53-1.62-9C27.71,648.55,25.67,645.6,24.51,642.86Z"/><path class="cls-33" d="M33.15,662.72a3.38,3.38,0,0,0,2.28-3,3,3,0,0,1-1,.56c-3.41.81-4.8-4.23-4.44-8.67a21.17,21.17,0,0,1,1.51-6.47,19.15,19.15,0,0,0-2.78,8.86C28.34,658.48,29.74,663.53,33.15,662.72Z"/><path class="cls-35" d="M34.41,660.33a3,3,0,0,0,1-.56,8.79,8.79,0,0,0-1-4.7c-2.84-6.23-2.19-9.77-1.13-11.42,0-.07,0-.16-.14-.12a4.67,4.67,0,0,0-1.66,1.66A21.17,21.17,0,0,0,30,651.66C29.61,656.1,31,661.14,34.41,660.33Z"/><path class="cls-29" d="M64.32,643.68c-1.56.35-4.12,2.06-6.66,7.39-2.66,5.58-5.46,3.78-5.46,3.78l-.1-.08c1-.34,2.23-1.35,3.45-3.9,2-4.11,3.93-6.07,5.45-6.92a5.65,5.65,0,0,1,3.33-.42C64.4,643.55,64.39,643.66,64.32,643.68Z"/><path class="cls-30" d="M61,644c-1.52.85-3.49,2.81-5.45,6.92-1.22,2.55-2.46,3.56-3.45,3.9-2-1.55.46-5.25,3.4-7.61A19.34,19.34,0,0,1,61,644Z"/><path class="cls-31" d="M65.17,620.42c-2.2,7-7.05,8.17-9.94,18.58-3.38,12.17-3,14.67-2.83,15.12a2.1,2.1,0,0,1-1.75-.07s-1.12-1.15,2.79-15.22c3.66-13.16,10.43-11.62,11.06-25.58,0-.16.17-.27.21-.12A18.7,18.7,0,0,1,65.17,620.42Z"/><path class="cls-32" d="M65.17,620.42c-.56,4.42-2.46,9.07-4.28,16.85-1.74,7.43-5.24,15.63-8.49,16.85-.16-.45-.55-3,2.83-15.12C58.12,628.59,63,627.38,65.17,620.42Z"/><path class="cls-32" d="M52,655.87h0a4.15,4.15,0,0,1-4.28-1.82,4.06,4.06,0,0,0,1.59,0h0c.22,0,6.94-1.75,2.52-14.11-2.24-6.29-3-11.07-2.88-14.62h0c1.38-2.78,2.86-4.57,4-5.18a.22.22,0,0,1,.29.31c-1.79,3-3,9.5,1.26,21.32C58.9,654.13,52.18,655.82,52,655.87Z"/><path class="cls-31" d="M49.33,653.52h0a4.06,4.06,0,0,1-1.59,0c-2.33-3.06-3.07-9.33-2.48-14.95A41.27,41.27,0,0,1,49,624.79c-.09,3.55.63,8.33,2.88,14.62C56.27,651.77,49.55,653.47,49.33,653.52Z"/><path class="cls-30" d="M48.35,655.16s-4.9.08-4.13-8.75c.7,5.05,4.08,5,4.08,5,1.93-.08,2.91-1.68,3.2-3.92C52,651.51,51.23,655,48.35,655.16Z"/><path class="cls-29" d="M51.5,647.49c-.29,2.24-1.27,3.84-3.2,3.92,0,0-3.38.05-4.08-5,0-.2,0-.42.07-.64a38.44,38.44,0,0,0,.21-6.86c-.33-4.51-1.65-7-2.89-8.22a.13.13,0,0,1,.11-.21A5.2,5.2,0,0,1,44,631.86a26.17,26.17,0,0,1,6.34,10.56A24.7,24.7,0,0,1,51.5,647.49Z"/><path class="cls-33" d="M58.53,638.79c-1.25,2.32-3.3,4.75-5.76,8.67s-2.6,6.27-2.18,7.84l-.27-.1s-4.65-2.15.4-10.22c4.91-7.83,8.19-9.73,6.76-16.62a.1.1,0,0,1,.18-.07C59.8,632.17,59.32,634.74,58.53,638.79Z"/><path class="cls-34" d="M58.53,638.79c-.31,1.62-.67,3.49-.93,5.77-.64,5.72-3.38,12-7,10.74-.42-1.57-.19-4,2.18-7.84S57.28,641.11,58.53,638.79Z"/><path class="cls-33" d="M49.24,655.58a3,3,0,0,1-1.77-2.79,2.75,2.75,0,0,0,.86.58c2.94,1,4.6-3.33,4.65-7.27a19,19,0,0,0-.8-5.84,16.8,16.8,0,0,1,1.71,8C53.84,652.25,52.19,656.59,49.24,655.58Z"/><path class="cls-35" d="M48.33,653.37a2.75,2.75,0,0,1-.86-.58,7.84,7.84,0,0,1,1.3-4.06c3-5.26,2.75-8.44,2-10,0-.07.05-.14.13-.1a4.14,4.14,0,0,1,1.32,1.61,19,19,0,0,1,.8,5.84C52.93,650,51.27,654.38,48.33,653.37Z"/><rect class="cls-10" x="6.86" y="667.43" width="6.62" height="4.01"/><rect class="cls-10" x="29.16" y="667.43" width="6.62" height="4.01"/><rect class="cls-10" x="51.46" y="667.43" width="6.62" height="4.01"/><path class="cls-18" d="M69.56,654.58v12.09a.76.76,0,0,1-.76.76H-3.86a.76.76,0,0,1-.76-.76V654.58Z"/><path class="cls-18" d="M71.72,651.61H-6.69l.52-1a.7.7,0,0,1,.61-.36H70.59a.67.67,0,0,1,.6.36Z"/><path class="cls-18" d="M72.1,654.58H-7.08a.68.68,0,0,1-.61-1c.29-.59.67-1.34,1-2H71.72l1,2A.68.68,0,0,1,72.1,654.58Z"/><path class="cls-23" d="M71.72,651.61H-6.69l.52-1a.7.7,0,0,1,.61-.36H70.59a.67.67,0,0,1,.6.36Z"/><polygon class="cls-10" points="70.34 615.72 70.34 620.56 33.56 620.56 33.56 635.51 31.47 635.51 31.47 620.56 -4.28 620.56 -4.28 615.72 31.47 615.72 31.47 560.89 33.56 560.89 33.56 615.72 70.34 615.72"/><path class="cls-23" d="M185.24,697v2.91a2.39,2.39,0,0,1-2.39,2.4H-116.78a2.39,2.39,0,0,1-2.39-2.4V697Z"/><rect class="cls-23" x="-93.96" y="526.31" width="250.76" height="6.75"/><path class="cls-10" d="M114.83,534.66v77.2a4,4,0,0,1-1.83-3.38v-12h-1.49v-5.2H113V563.49h-1.49v-5.2H113V534.66Z"/><path class="cls-10" d="M121.07,528.91v29.38h1.49v5.2h-1.49v27.78h1.49v5.2h-1.49v12a4,4,0,0,1-6.24,3.38v-77.2H113v-5.75h-1.49v-5.2H113v-5.82h8.07v5.82h1.49v5.2Z"/><path class="cls-10" d="M163.08,526.31H-100.23a1.83,1.83,0,0,1-1.56-2.78l13.43-22a1.82,1.82,0,0,1,1.56-.87H149.65a1.82,1.82,0,0,1,1.56.87l13.43,22A1.83,1.83,0,0,1,163.08,526.31Z"/><path class="cls-23" d="M113,528.88v5.83h0v23.58h-1.49v5.2H113v27.78h-1.49v5.2H113v12a4,4,0,0,0,1.83,3.38v-83Z"/><polygon class="cls-39" points="260 894.02 -279.18 894.02 -109.12 723.96 -97.59 723.96 -9.59 811.96 72.74 729.63 78.41 723.96 89.94 723.96 156.81 790.83 156.81 874.88 178.72 874.88 178.72 812.74 260 894.02"/><polygon class="cls-40" points="89.94 723.95 84.18 723.95 78.41 723.95 -9.59 811.96 -97.59 723.95 -103.35 723.95 -109.12 723.95 -279.18 894.01 -155.79 894.01 -91.65 894.01 -50.91 894.01 31.74 894.01 72.47 894.01 136.62 894.01 260 894.01 89.94 723.95"/></g></g></svg>