<svg id="Capa_1" data-name="Capa 1" xmlns="http://www.w3.org/2000/svg" xmlns:xlink="http://www.w3.org/1999/xlink" viewBox="0 0 1920 1080"><defs><style>.cls-1,.cls-4{fill:none;}.cls-2{clip-path:url(#clip-path);}.cls-3{fill:#445887;}.cls-4{stroke:#282a54;stroke-miterlimit:10;}</style><clipPath id="clip-path"><rect class="cls-1" width="1920" height="1080"/></clipPath></defs><g class="cls-2"><path class="cls-3" d="M-79.86,282.59s13.09-13.08,22.06-15.7S-29,259.41-27.15,259s29.54-7.1,33.65-7.85,24.67-9.72,33.27-14.95,22.8-13.46,27.29-14.58,28.41-15,41.87-15,23.55,3,34.39,2.62,26.53-7.47,37.74-18.68l0,0c15.68-4.85,17.18-6,27.64-5.23s14.58-11.21,23.55-8.59S267,197,279,208.92a.1.1,0,0,0,.05,0c15.28,8.58,4.09,4.47,15.3,8.58,10.15,3.73,18.16,8.68,23.54.63a54.33,54.33,0,0,1,7.32-8.77c6.72-6.52,12.69-11.09,17.9-12.51a11,11,0,0,0,6-4.07c5.62-7.57,12.59-16.72,16.67-16.4,4.77.38,13.74-3.27,16.54-1.31s20.19,11.22,21.31,13.18l2.8-8.69s15.14-8.41,17.11-8.41,19.06,15.7,19.06,15.7l12.62-.28,14.3,7.57,12.61,2,20.19,9.53,15.42,1.13,10.1,1.12,23.83,2.24,8.41,7.85s29.16-7.29,39.53-6.73,31.68,3.93,32.52,3.93,21.31,1.4,21.31,1.4l20.75-6.73s36.45-5.33,45.7-3.36,14,5,14,5,33.92-20.46,49.9-21.31h0c10,4.86,13,4.87,13.6,4.79a.45.45,0,0,1,.28,0c2.62,1.24,39.09,18.48,53.69,27.13,3.64-2.81,11.77-3.65,11.77-3.65l8.41,8.32,11.5,6.82,24.67.28s20.19-20.19,69.53-19.91c25,7.57,59.16,19.07,59.16,19.07h0l21.31,9.53,36.73,12.06,10.37,2.52,18.51,12.34s12.89-7.29,28.59-5.05h0c10.65-4.48,14-5.6,15.7-5.88s16.82-.57,16.82-.57l6.45,2.25h8.69l9,5.32,9,2.81,11.78,14.11h19.06l18.79,15.05,30.28,21S1334.79,285.75,1347,284a26.58,26.58,0,0,0,4.89-1.25c18.07-6.43,71.87-31.34,76.79-31.34,9.82-4.21,34.21-10.94,39.54-10.94,14.77,2.58,42.61-5.89,60.84-.28,16.26,5.33,46.26,12.34,52.15,17.66s22.19,16.74,23.5,20.84a.45.45,0,0,0,.24.28,58.44,58.44,0,0,0,9.62,3.56s25.24-4.77,38.13-1.12c9.54,7.85,28,15.42,28,15.42s33.4,10.48,53.37,14.4a66.4,66.4,0,0,1,8.07,2.09c15.5,5.08,32.49,8.07,49,6.78h0c17.64.84,27.45,4.48,49,4.2l.07,0c21.26,8.95,30.51,14.84,38.07,24.35l.05,0c11.46,8.12,10.09,14.56,38.62,14.56l.08,0c21.28,9.52,28.67,14.66,44.36,15.22,16.82.37,39.25-5.61,41.31-6.92,13.64,2.06,20.56-3,27.29,5.61s24.48,19.63,32.89,22.43,27.85,9.16,34.77,9.91,21.12,2.05,24.11,5.79,0,664.7,0,664.7H-79.86Z"/><line class="cls-4" x1="1688.87" y1="831.04" x2="1688.87" y2="828.8"/></g></svg>