<svg id="Capa_1" data-name="Capa 1" xmlns="http://www.w3.org/2000/svg" xmlns:xlink="http://www.w3.org/1999/xlink" viewBox="0 0 568.6 392.49"><defs><style>.cls-1{fill:#707070;}.cls-2{fill:url(#Degradado_sin_nombre_28);}.cls-3{fill:url(#Degradado_sin_nombre_28-2);}.cls-14,.cls-4{fill:#ffd60a;}.cls-5{fill:#ffc300;}.cls-6{fill:#181818;}.cls-7{fill:#262626;}.cls-11,.cls-17,.cls-28,.cls-29,.cls-8{fill:none;}.cls-8{stroke:#282a54;}.cls-11,.cls-17,.cls-28,.cls-8{stroke-miterlimit:10;}.cls-9{fill:#424242;}.cls-10,.cls-18,.cls-30,.cls-31,.cls-32,.cls-34,.cls-35{opacity:0.5;}.cls-10{fill:url(#Degradado_sin_nombre_26);}.cls-11,.cls-17{stroke:#1f1f3f;}.cls-11{stroke-width:2px;}.cls-12{fill:#370617;}.cls-13{fill:#6d0c34;}.cls-14,.cls-15{opacity:0.3;}.cls-16,.cls-18{fill:#fff;}.cls-19{fill:#ff5938;}.cls-20{fill:#7fc296;}.cls-21{fill:#435c62;}.cls-22{fill:#324c3a;}.cls-23{fill:#598869;}.cls-24{fill:#dfe2dd;}.cls-25{fill:#c1c1c1;}.cls-26{fill:#f5f1ef;}.cls-27{fill:#324649;}.cls-28{stroke:#604242;}.cls-31{fill:url(#Degradado_sin_nombre_26-2);}.cls-32{fill:url(#Degradado_sin_nombre_26-3);}.cls-33{fill:url(#Degradado_sin_nombre_28-3);}.cls-34{fill:url(#Degradado_sin_nombre_26-4);}.cls-35{fill:url(#Degradado_sin_nombre_26-5);}</style><linearGradient id="Degradado_sin_nombre_28" x1="272.21" y1="184.06" x2="272.21" y2="336.29" gradientUnits="userSpaceOnUse"><stop offset="0" stop-color="#ffd60a" stop-opacity="0"/><stop offset="0.15" stop-color="#ffd208" stop-opacity="0.21"/><stop offset="0.35" stop-color="#ffcd05" stop-opacity="0.49"/><stop offset="0.54" stop-color="#ffc903" stop-opacity="0.71"/><stop offset="0.69" stop-color="#ffc601" stop-opacity="0.87"/><stop offset="0.82" stop-color="#ffc400" stop-opacity="0.96"/><stop offset="0.89" stop-color="#ffc300"/></linearGradient><linearGradient id="Degradado_sin_nombre_28-2" x1="411.81" y1="172.19" x2="411.81" y2="374.45" xlink:href="#Degradado_sin_nombre_28"/><linearGradient id="Degradado_sin_nombre_26" x1="465.74" y1="392.99" x2="465.74" y2="240.5" gradientUnits="userSpaceOnUse"><stop offset="0" stop-color="#ffd60a" stop-opacity="0"/><stop offset="0.14" stop-color="#ffd50a" stop-opacity="0.02"/><stop offset="0.34" stop-color="#ffd208" stop-opacity="0.1"/><stop offset="0.57" stop-color="#ffce06" stop-opacity="0.21"/><stop offset="0.82" stop-color="#ffc803" stop-opacity="0.37"/><stop offset="1" stop-color="#ffc300" stop-opacity="0.5"/></linearGradient><linearGradient id="Degradado_sin_nombre_26-2" x1="179.48" y1="377.88" x2="179.48" y2="226.96" xlink:href="#Degradado_sin_nombre_26"/><linearGradient id="Degradado_sin_nombre_26-3" x1="378.22" y1="233.15" x2="378.22" y2="231.77" xlink:href="#Degradado_sin_nombre_26"/><linearGradient id="Degradado_sin_nombre_28-3" x1="315.83" y1="46.16" x2="315.83" y2="137.29" xlink:href="#Degradado_sin_nombre_28"/><linearGradient id="Degradado_sin_nombre_26-4" x1="273.2" y1="389.42" x2="273.2" y2="236.94" xlink:href="#Degradado_sin_nombre_26"/><linearGradient id="Degradado_sin_nombre_26-5" x1="273.21" y1="389.42" x2="273.21" y2="236.93" xlink:href="#Degradado_sin_nombre_26"/></defs><polygon class="cls-1" points="461.51 315.74 461.51 377.88 439.6 377.88 439.6 293.83 461.51 315.74"/><rect class="cls-2" x="188.84" y="213.65" width="166.74" height="124.68"/><rect class="cls-3" x="384.03" y="211.5" width="55.57" height="165.66"/><polygon class="cls-4" points="470.66 226.98 469.55 238.97 460.12 238.97 459.01 226.98 470.66 226.98"/><circle class="cls-5" cx="464.86" cy="232.34" r="2.43"/><path class="cls-6" d="M472.9,225.69H456.78a.24.24,0,0,1-.19-.38l3-3.86a.24.24,0,0,1,.18-.09h10.11a.24.24,0,0,1,.18.09l3,3.86A.23.23,0,0,1,472.9,225.69Z"/><path class="cls-6" d="M466.41,220.67h-3.27a.1.1,0,0,1-.1-.14l.32-.69.15-.33.18-.4h.09a1.23,1.23,0,0,1-.07-.39,1.07,1.07,0,1,1,2.13,0,1.23,1.23,0,0,1-.07.39h.09l.19.4.14.33.32.69A.1.1,0,0,1,466.41,220.67Z"/><path class="cls-7" d="M465.74,241.72v1.16a1.18,1.18,0,0,0-.88-.4,1.16,1.16,0,0,0-.88.4v-1.16Z"/><line class="cls-8" x1="462.34" y1="226.98" x2="462.94" y2="233.44"/><polygon class="cls-9" points="471.26 225.69 471.15 226.98 458.42 226.98 458.3 225.69 471.26 225.69"/><line class="cls-8" x1="466.27" y1="238.97" x2="467.03" y2="230.7"/><path class="cls-9" d="M466.11,243.85a1.26,1.26,0,1,1-2.5,0,1.42,1.42,0,0,1,.37-1,1.16,1.16,0,0,1,.88-.4,1.18,1.18,0,0,1,.88.4A1.42,1.42,0,0,1,466.11,243.85Z"/><path class="cls-9" d="M470,239.22l-.08.92a.23.23,0,0,1-.23.21h-9.82a.23.23,0,0,1-.23-.21l-.08-.92a.23.23,0,0,1,.23-.25h10A.23.23,0,0,1,470,239.22Z"/><path class="cls-7" d="M466.71,240.55l-.65,1.11a.11.11,0,0,1-.11.06h-2.19a.13.13,0,0,1-.11-.06l-.65-1.11a.13.13,0,0,1,.12-.2h3.48A.13.13,0,0,1,466.71,240.55Z"/><rect class="cls-6" x="463.36" y="220.67" width="2.83" height="0.7"/><polygon class="cls-10" points="551.42 400.58 380.06 400.58 420.05 318.52 462.94 230.52 468.55 230.52 551.42 400.58"/><line class="cls-11" x1="454.71" y1="100.89" x2="438.15" y2="117.45"/><polygon class="cls-12" points="496.12 358.95 477.9 377.16 475.45 377.16 493.66 358.95 496.12 358.95"/><polygon class="cls-13" points="475.45 358.95 493.66 377.16 496.12 377.16 477.9 358.95 475.45 358.95"/><rect class="cls-12" x="472.85" y="356.28" width="25.92" height="3.52" rx="0.54"/><polygon class="cls-12" points="548.77 358.95 530.56 377.16 528.1 377.16 546.32 358.95 548.77 358.95"/><polygon class="cls-13" points="528.1 358.95 546.32 377.16 548.77 377.16 530.56 358.95 528.1 358.95"/><rect class="cls-12" x="525.5" y="356.28" width="25.92" height="3.52" rx="0.54"/><polygon class="cls-12" points="533.07 340.17 496.08 377.16 491.1 377.16 528.09 340.17 533.07 340.17"/><polygon class="cls-12" points="501.26 345.35 496.28 345.35 491.1 340.17 496.08 340.17 501.26 345.35"/><polygon class="cls-13" points="533.07 377.16 528.09 377.16 496.28 345.35 501.26 345.35 533.07 377.16"/><circle class="cls-12" cx="512.08" cy="358.66" r="0.54"/><rect class="cls-12" x="485.81" y="334.76" width="52.65" height="7.15" rx="0.47"/><path class="cls-7" d="M543.61,331.12l-1.49,1.48h-8.86a.47.47,0,0,0-.46.46v53.15h-1.41a.47.47,0,0,1-.47-.47V331.6a.47.47,0,0,1,.47-.48Z"/><path class="cls-7" d="M566.62,331.6v54.14a.48.48,0,0,1-.48.47h-3.38a.47.47,0,0,1-.48-.47V377.5a.48.48,0,0,0-.47-.48h-25.9a.47.47,0,0,0-.47.48v8.24a.48.48,0,0,1-.48.47H532.8V333.06a.47.47,0,0,1,.46-.46h8.86l1.49-1.48h22.53A.48.48,0,0,1,566.62,331.6Z"/><rect class="cls-9" x="535.43" y="335.26" width="26.85" height="37.38" rx="1.44"/><path class="cls-14" d="M543.61,331.12l-1.49,1.48h-8.86a.47.47,0,0,0-.46.46v53.15h-1.41a.47.47,0,0,1-.47-.47V331.6a.47.47,0,0,1,.47-.48Z"/><g class="cls-15"><path class="cls-16" d="M559.39,343.29h0Z"/><path class="cls-16" d="M559.45,343.3Z"/><path class="cls-16" d="M542.43,341.16h0l-.05,0Z"/><path class="cls-16" d="M543,343.51Z"/><path class="cls-16" d="M558.6,343.34h0Z"/><path class="cls-16" d="M541.52,341h0Z"/><path class="cls-16" d="M556.13,343.41h0Z"/><path class="cls-16" d="M543.81,343.35l0,0Z"/><path class="cls-16" d="M559,343.31h0Z"/><path class="cls-16" d="M545.86,342.69l0,0h0l0,.05S545.87,342.7,545.86,342.69Z"/><path class="cls-16" d="M559.46,343.35l.19,0a1.48,1.48,0,0,0-.21,0s0,0,.08,0h-.2a.38.38,0,0,0,.13,0l-.23,0s-.23,0-.18,0h-.14l.18,0c.24,0,0,0,0,0l.19,0s.07,0-.05,0l.27,0h-.07s.14,0,0,0c0,0-.08,0,0,0s-.23,0-.16,0l-.28,0s.06,0,.09,0l-.22,0H559a3.43,3.43,0,0,0-.38,0s.12,0,.2,0c-.08,0,0,0-.18,0s0,0,0,0l-.1,0s0,0,0,0c-.17,0,0,0-.23,0a1.81,1.81,0,0,0,.25,0c.07,0-.14,0-.18,0a1.21,1.21,0,0,0-.27,0c.08,0,0,0,.14,0s0,0-.06,0,0,0-.08,0h0l-.18,0c-.17,0-.38,0-.49,0l0,0-.34,0,.17,0a3.23,3.23,0,0,0-.49,0h.2c-.12,0-.15,0-.31,0,0,0,0,0,0,0s-.17,0-.25,0,0,0,.19,0,.26,0,.36,0h-.06l.31,0h0l.05,0h-.05a.65.65,0,0,1,.19,0,.76.76,0,0,0-.27.06,1.8,1.8,0,0,0-.33,0s-.1,0,0,0,.15,0,.16,0h-.2a.66.66,0,0,1-.23.05l-.33,0c.11,0,.22,0,.19,0s-.21,0-.18,0a2.17,2.17,0,0,1-.34,0c.11,0,.23,0,.33,0s-.06,0,0,0h-.19v0c-.11,0-.31,0-.51,0h0c-.15,0-.16,0-.33,0,0,0,0,0,0,0h-.21c.1,0-.06,0,0,0s-.17,0-.26,0,.28,0,.14,0-.11,0,0,0h-.35l-.27,0c.07,0,.07,0,.16,0l-.09,0h-.23s.15,0,.14,0-.15,0-.26,0h0a2.86,2.86,0,0,0-.46,0s.11,0,.09,0h-.34s0,0-.08,0,.08,0,0,0l-.18,0h0c-.27,0-.48.05-.76.06a1.25,1.25,0,0,1,.27,0c-.09,0-.22,0-.34,0s-.19,0-.17,0c-.14,0-.1,0-.12,0a1.82,1.82,0,0,1-.32,0h0l-.17,0s0,0,0,0h0c.17,0,.38,0,.55,0,0,0,0,0,0,0h-.06s-.1,0,0,0a1.3,1.3,0,0,1-.32,0c-.1,0,.11,0,.16,0l-.16,0,0,0c-.18,0,0,0-.09,0s-.16,0-.21,0H551l-.3,0h-.05a.79.79,0,0,0,.26,0c-.2,0,.06,0,.13,0a1.05,1.05,0,0,1-.24,0c-.14,0-.29,0-.43,0s.07,0,0,0l-.46,0c-.08,0-.06,0-.09,0-.38,0-.53.06-1,.07h.06a.53.53,0,0,0-.2,0c-.12,0-.38,0-.52,0s-.19,0-.34,0,0,0,0,0l-.35,0h-.69a2.27,2.27,0,0,1-.35-.05h0l-.11,0,0,0-.05,0,0,0,0,0-.05,0,0,0,0,0,0,0,0,0v0h0v-.06a.11.11,0,0,0,0-.05v-.1s0-.07,0-.11,0-.08,0-.05,0,.08,0,.07V343a.2.2,0,0,0,0-.09s0,0,0,0V343a.52.52,0,0,0-.12-.26.86.86,0,0,0-.07-.1l0,0,0,0-.19-.1h.07l0,0h0a.27.27,0,0,1,.11.06h0l0,0,0,0,0,0-.07-.06-.14-.09-.14,0-.06,0h-.07s0,0,0,0h-.3l0,0c-.06,0,0,0,0,0l-.25,0h-.07l-.06,0h-.07l-.06,0,0,0h0l0,0-.07,0,0,0a3.15,3.15,0,0,0-.33.22l-.29.22-.19.16-.08.06-.07.06.08-.06s0,0,0,0l-.07.06-.09.05s0,0-.06,0h0l0,0h0l0,0-.05,0h0l-.13,0-.14,0-.16,0s0,0,0,0h-.31l-.14,0h-.06l-.07,0h0l0,0,0,0s0,0,0,0a.3.3,0,0,1-.09-.1l0-.07v-.12a.15.15,0,0,0,0-.07h0v.1s0,0,0,0a.12.12,0,0,0,0,.07.37.37,0,0,1,0-.11.5.5,0,0,1,0-.16,1,1,0,0,1,.09-.17l.12-.16.24-.26a.74.74,0,0,0,.18-.21v0a1.68,1.68,0,0,0,.24-.29.85.85,0,0,0,.09-.24.51.51,0,0,0,0-.13.59.59,0,0,0,0-.13.56.56,0,0,0,0-.12s0,0,0-.05a.1.1,0,0,0,0-.05.54.54,0,0,0-.15-.15h0l0,0-.22-.1-.29-.07a1.44,1.44,0,0,0-.46,0h.06a.64.64,0,0,0-.19,0h-.17s.14,0,.07,0l-.18,0-.06,0-.18,0h0s-.07,0-.12,0h0l-.24.05-.23.06-.24.07-.24.07a7.38,7.38,0,0,0-.91.4l.1-.06-.15.08-.12.07h0l-.09.05,0,0,0,0-.13.08h0l-.06,0-.06,0-.11.07-.05,0,0,0-.11.09,0,0h0l0,0,0,0-.1.06,0,.05,0,0,0,0,0,0s-.06.08-.1.13,0,0,.19-.11l.06,0,.05,0,.12-.09a.31.31,0,0,1,.12-.1l0,0h0l0,0,.08-.06c-.05.05.14-.1,0,0l.06,0,.09-.06.1-.07.09,0,0,0c.06-.05.09-.06.11-.06l0,0h0v0l.09,0-.06,0a.57.57,0,0,1,.13-.08l0,0,0,0,0,0h0l-.07,0,0,0c.14-.07,0,0,.09,0s0,0,.06,0a.91.91,0,0,0,.14-.07s-.06,0-.07.05l.1,0h.05l0,0,.1-.05.06,0,.07,0,0,0,.22-.08c.09,0,0,0,.17,0,0,0,0,0,.06,0l.1,0,.11,0s0,0,0,0,0,0,.11,0,0,0,.1,0l0,0h.07a.5.5,0,0,1,.15,0l-.07,0h.21l.12,0h.53s.05,0,.1,0h0l.14,0,.1,0h.09l.12.05s.08,0,.06,0l0,0h-.08s0,0,0,0l.06,0h0l0,0v0a.31.31,0,0,1,.13.08l0,0h0l0,0s0,0,0,0l.09.05h0l0,0h0l0,0s0,0,0,0v0l0,0s0,0,0,0h0v0a.1.1,0,0,1,0,0v0h0s0,0,0,0a.17.17,0,0,1,0,.12.29.29,0,0,1,0,.1s0,0,0,0h0v0l0,.08,0,0,0,0a.83.83,0,0,1-.11.15l-.12.13-.25.26.1-.08v0c.08-.06,0,0,0,.08s-.12.11-.09.06l-.1.12s.09-.09,0,0a.59.59,0,0,1-.08.08s0,0,0,0l-.08.1s0,.05,0,0l0,0s0,0,0,0a.33.33,0,0,1,.06-.1s0,.06-.06.06,0,0,0,0l-.08.13,0-.07-.07.13a.69.69,0,0,1,0,.13.09.09,0,0,0,0,.05.13.13,0,0,0,0,.06.09.09,0,0,0,0,.05v.08l0,.12a.08.08,0,0,0,0,.05v.06a1.1,1.1,0,0,0,.11.14l0,0,.1.08,0,0,0,0,0,0h0l0,0h0l0,0h0l.18,0s.06,0,0,0h.15l.14,0,.17,0-.19,0a.32.32,0,0,0,.13,0l.21,0,.19-.1h0l0,0,0,0,.1-.07c-.06,0,0,0,0-.08l.07,0,.07,0,.06,0s.16-.09,0,0l-.11.07a1.17,1.17,0,0,0,.22-.14.36.36,0,0,1-.09.09s0,0,0,0c-.16.13.05,0,0,0l.08-.06s0,0,0,0a.61.61,0,0,0,.16-.13l.09-.07.09-.06s-.06,0,0,0,.07-.05.09-.05l0,0,0,0,.05,0,.07,0s0,0,0,0h0s0,0,0,0l0,0,.1-.05.12,0h0l-.07,0,0,0a1.11,1.11,0,0,1,.26-.07c.08,0,0,0-.11,0l.17,0,.11,0h0s0,0,0,0h0a1,1,0,0,0-.17,0h0l-.16,0-.12.06.12,0a.5.5,0,0,1,.13,0l.19,0a1.08,1.08,0,0,1,.31,0l0,0h0l0,0,0,0a.38.38,0,0,1,.13.06s0,0,.07,0h0l0,0h0l-.07-.05,0,0h.06v0l0,0h0l0,.07-.06-.07a.36.36,0,0,0-.12-.08l0,0,0,.06s0,0,0,0h0s0,0,0,0l.06.09a.56.56,0,0,1,0,.12.76.76,0,0,1,0,.15c0,.06,0,.12,0,.18v0a.11.11,0,0,0,0-.05.49.49,0,0,0,0-.12c0-.08,0-.14,0-.11v.19a1.72,1.72,0,0,0,0,.2,0,0,0,0,0,0,0v0l0,.07,0,.07,0,0v0h0v0l0,0h0v0l0,.06.05.06,0,.05h0l0,0,0,0h0l.18.09.23.07-.08,0-.13,0-.07,0s0,0,0,0l.07,0,.06,0h0l.06,0,.26,0-.06,0,.25,0c.08,0,0,0,0,0s-.09,0,0,0h-.12s-.07,0-.08,0l.1,0h.3l0,0h.11s0,0-.07,0h.27c-.07,0-.18,0-.09,0h.11c.08,0,0,0,.11,0h0a.62.62,0,0,0,.19,0c-.12,0-.12,0,0,0a1.76,1.76,0,0,1,.39,0l.08,0s.11,0,.16,0-.25,0-.25,0,.06,0,0,0,0,0,.09,0,.2,0,.13,0l.2,0s0,0,0,0h.12s0,0-.05,0,.21,0,.2,0,.19,0,.29,0-.17,0-.21,0l.62-.05c.17,0,0,0,0,0l-.33,0,.5,0c.17,0,.19,0,.38,0h.09s-.09,0,0,0h.07c.19,0,.14,0,.3,0h-.09s.07,0,.15,0h.12s-.13,0-.16,0h.12l.15,0c-.11,0,0,0,0,0s.22,0,.21,0a.93.93,0,0,1,.24,0c-.1,0,0,0,0,0h.16c-.17,0,0,0,0,0l-.24,0c.17,0,.24,0,.39,0s0,0-.08,0l.24,0s-.09,0,0,0h.13c.15,0,0,0,.18,0H552l.18,0h-.21s.11,0,.16,0h.26s-.21,0-.18.07l.52,0c.15,0,.13,0,.11,0h.06l.49,0c.11,0,.06,0,0,0h.1l.21,0s-.05,0,0,0l.23,0s0,0-.13,0h0l-.14,0a.58.58,0,0,1,.26,0c.16,0-.13,0,.06,0s.49,0,.63,0,.26,0,.44-.05c0,0,.13,0,.11,0-.18,0-.33,0-.47,0s-.06,0-.09,0h-.15c.17,0,.05,0,.25,0h-.32l.24,0s0,0,0,0l.21,0c.07,0,.09,0,.05,0h.32c.16,0,0,0-.06,0h-.15s.19,0,.21,0,.23,0,.35,0l-.13,0,.11,0c-.07,0-.06,0-.16.05l.48,0s.06,0,0,0c.16,0,.25,0,.39,0s-.15,0,0,0H556c.08,0,.07,0,.09,0H556s.17,0,.23,0l-.06,0,.39,0c.05,0,0,0-.08,0h0l.34,0-.14,0a1.13,1.13,0,0,0,.3,0c.11,0,.24,0,.21,0s0,0,0,0c.16,0,.17,0,.27,0h-.08c.16,0,0,0,.17,0,0,0,0,0,0,0h.17s.12,0,0,0a2.33,2.33,0,0,0,.29,0c-.07,0,.11,0,.06,0,.12,0,.21,0,.18,0s-.12,0-.11,0h.38c.07,0,.22,0,.27,0a.46.46,0,0,1-.17,0h0l.1,0c-.1,0,0,0-.16,0s.27,0,.15-.05-.09,0-.17,0h0l-.19,0s0,0,0,0c-.23,0-.26,0-.51,0,0,0,.07,0,0,0s-.09,0-.16,0l.13,0h0a1.93,1.93,0,0,1,.34-.06,1.55,1.55,0,0,1,.33,0h-.07c.14,0,0,0,.21,0s.22,0,.11.06l.29,0c.07,0,0,0,0,0s.19,0,.13,0h.08l.22,0Z"/><path class="cls-16" d="M556.32,343.57h0Z"/><path class="cls-16" d="M558.6,343.34h0Z"/><path class="cls-16" d="M546.07,343.92h0Z"/><path class="cls-16" d="M548.5,344.05h0Z"/><path class="cls-16" d="M558.72,343.44h0Z"/><path class="cls-16" d="M559.39,354h0Z"/><path class="cls-16" d="M559.45,354Z"/><path class="cls-16" d="M542.43,351.86h0Z"/><path class="cls-16" d="M543,354.2h0Z"/><path class="cls-16" d="M558.6,354h0S558.61,354,558.6,354Z"/><path class="cls-16" d="M541.52,351.71h0Z"/><path class="cls-16" d="M556.13,354.11h0Z"/><path class="cls-16" d="M543.81,354.05s0,0,0,0Z"/><path class="cls-16" d="M559,354h0Z"/><path class="cls-16" d="M545.86,353.39l0,0h0l0,.05Z"/><path class="cls-16" d="M559.46,354.05l.19,0c-.1,0-.11,0-.21,0s0,0,.08,0h-.2a.38.38,0,0,0,.13,0l-.23,0s-.23,0-.18,0h-.14l.18,0c.24,0,0,0,0,0h.19s.07,0-.05,0a1.1,1.1,0,0,1,.27,0h-.07s.14,0,0,0c0,0-.08,0,0,0h-.16l-.28,0h.09l-.22,0H559a3.22,3.22,0,0,0-.38,0s.12,0,.2,0c-.08,0,0,0-.18,0h0l-.1,0s0,0,0,0c-.17,0,0,0-.23,0a1.81,1.81,0,0,0,.25,0c.07,0-.14,0-.18,0a2.18,2.18,0,0,0-.27,0l.14,0c.09,0,0,0-.06,0s0,0-.08,0h0l-.18,0c-.17,0-.38,0-.49,0h0l-.34,0,.17,0a3.23,3.23,0,0,0-.49,0h.2c-.12,0-.15,0-.31,0,0,0,0,0,0,0a1.71,1.71,0,0,1-.25,0s0,0,.19,0,.26,0,.36,0h-.06l.31,0h0l.05,0h-.05l.19,0a1.28,1.28,0,0,0-.27,0,3.12,3.12,0,0,0-.33,0s-.1,0,0,0l.16,0h-.2l-.23.05-.33,0,.19,0c-.06,0-.21,0-.18,0a1.22,1.22,0,0,1-.34,0h.1c-.11,0-.31,0-.51,0h0c-.15,0-.16,0-.33.05,0,0,0,0,0,0h-.21c.1,0-.06,0,0,0s-.17,0-.26,0,.28,0,.14,0-.11,0,0,0a2.13,2.13,0,0,1-.35,0,1.42,1.42,0,0,0-.27,0,.7.7,0,0,1,.16,0l-.09,0c-.13,0-.23,0-.32,0h.09s.15,0,.14,0l-.26,0h0a2.86,2.86,0,0,0-.46,0s.11,0,.09,0-.17,0-.16,0h-.18s0,0-.08,0,.08,0,0,0l-.18,0h0c-.27,0-.48.05-.76.06a2,2,0,0,1,.27,0l-.34,0c-.11,0-.19,0-.17,0-.14,0-.1,0-.12,0a2,2,0,0,1-.32,0h0l-.17,0s0,0,0,0h0c.17,0,.38,0,.55,0,0,0,0,0,0,0h-.06s-.1,0,0,0a2.15,2.15,0,0,1-.32,0c-.1,0,.11,0,.16,0a.4.4,0,0,1-.16,0h0c-.18,0,0,0-.09,0a.74.74,0,0,1-.21,0H551l-.3,0h-.05a1.23,1.23,0,0,0,.26,0c-.2,0,.06,0,.13-.05h-.24c-.14,0-.29,0-.43,0s.07,0,0,0l-.46,0h-.09c-.38,0-.53.06-1,.07h.06a.53.53,0,0,0-.2,0c-.12,0-.38,0-.52,0s-.19,0-.34,0,0,0,0,0l-.35,0h-.69a2.27,2.27,0,0,1-.35-.05h0l-.11,0,0,0-.05,0,0,0,0,0-.05,0,0,0,0,0,0,0,0,0v0h0v0a.09.09,0,0,0,0,0V354s0-.08,0-.12,0-.07,0,0,0,.08,0,.07v-.22a.18.18,0,0,0,0-.09s0,0,0,0h0v.08a0,0,0,0,0,0,0,.59.59,0,0,0-.12-.27l-.07-.09,0,0,0,0-.19-.1h.07l0,0h0l.11.06,0,0h0l0,0,0,0a.13.13,0,0,0-.07-.06.42.42,0,0,0-.14-.09l-.14-.06h-.13s0,0,0,0h-.3l0,0c-.06,0,0,0,0,0a2.16,2.16,0,0,0-.25.05h-.13l-.07,0-.06,0,0,0h0l0,0-.07,0,0,0a3.15,3.15,0,0,0-.33.22l-.29.22-.19.16-.08.06-.07.05.08-.05s0,0,0,0l-.07.05-.09.06-.06,0h0l0,0h0l0,0-.05,0h0c-.07,0-.13,0-.13,0l-.14,0-.16,0h-.27l-.14,0h-.06l-.07,0v0h0l0,0h0a.45.45,0,0,1-.09-.1l0-.07v-.09h0v0a.15.15,0,0,0,0-.07h0v.1s0,0,0,0a.14.14,0,0,0,0,.07.37.37,0,0,1,0-.11.5.5,0,0,1,0-.16.56.56,0,0,1,.09-.17l.12-.16c.06-.08.16-.17.24-.26a.91.91,0,0,0,.18-.21v0a1.31,1.31,0,0,0,.24-.28,1,1,0,0,0,.09-.24.43.43,0,0,0,0-.26.56.56,0,0,0,0-.12.08.08,0,0,0,0-.05.1.1,0,0,0,0-.05.43.43,0,0,0-.15-.15h0v0l0,0-.22-.1-.29-.07a1.44,1.44,0,0,0-.46,0h.06a.64.64,0,0,0-.19,0h-.17s.14,0,.07,0l-.18,0-.06,0-.18,0h0s-.07,0-.12,0h0l-.24.05-.23.06-.24.06-.24.08a7.38,7.38,0,0,0-.91.4l.1-.07-.15.09-.12.06h0l-.09.05,0,0,0,0-.13.08,0,0-.06,0-.06,0-.11.07a.1.1,0,0,1-.05,0l0,0-.11.09,0,0h0l0,0,0,0-.1.06,0,.05,0,0,0,0,0,0s-.06.08-.1.13a.55.55,0,0,0,.19-.11l.06-.05s0,0,.05,0l.12-.09a.44.44,0,0,1,.12-.11l0,0,0,0h0l.08-.07c-.05.06.14-.09,0,0l.06,0,.09-.07.1-.06a.2.2,0,0,1,.09-.05l0,0,.11-.06h.05l0,0h0l.09,0s-.09,0-.06,0l.13-.07,0,0,0,0,0,0h0l-.07,0,0,0c.14-.07,0,0,.09,0s0,0,.06,0l.14-.07s-.06,0-.07.05l.1,0h.05l0,0,.1-.05.06,0,.07,0,0,0,.22-.08c.09,0,0,0,.17,0,0,0,0,0,.06,0l.1,0,.11,0,0,0s0,0,.11,0,0,0,.1,0l0,0h.07a.5.5,0,0,1,.15,0l-.07,0,.09,0h.77s.05,0,.1,0h0l.14,0a.17.17,0,0,1,.1,0h.09l.12.05s.08,0,.06,0l0,0,0,0h-.05l.06,0h0l0,0h0a.51.51,0,0,1,.13.09l0,0h0s0,0,0,0h-.07l0,0s0,0,0,0l.09,0h.06l0,0,0,0s0,0,0,0v0l0,0v0h0v0a.08.08,0,0,1,0,0v0h0s0,0,0,0a.17.17,0,0,1,0,.12.38.38,0,0,1,0,.1s0,0,0,0h0v0l0,.08,0,0,0,0a.91.91,0,0,1-.11.16l-.12.13-.25.26.1-.08v0c.08-.05,0,0,0,.08s-.12.12-.09.07l-.1.12s.09-.09,0,0a.59.59,0,0,1-.08.08s0,0,0,0l-.08.1,0,0s0,0,0,.05,0,0,0,0a.33.33,0,0,1,.06-.1s0,.06-.06.06,0,0,0,0l-.08.13,0-.07a.83.83,0,0,0-.07.13,1.12,1.12,0,0,1,0,.13.09.09,0,0,0,0,.05.13.13,0,0,0,0,.06.07.07,0,0,0,0,.05v.08a1,1,0,0,0,0,.12s0,0,0,.05v.06a1.1,1.1,0,0,0,.11.14l0,0,.1.08,0,0,0,0,0,0h0l0,0h0l0,0h0l.18,0s.06,0,0,0h.15l.14,0,.17,0-.19,0h.13l.21-.05a1,1,0,0,0,.19-.09h.06a.1.1,0,0,1,0,0l.1-.07c-.06,0,0,0,0-.08l.07,0,.07-.05.06,0s.16-.09,0,0l-.11.07a2.16,2.16,0,0,0,.22-.14l-.09.09s0,0,0,0c-.16.13.05,0,0,0l.08-.06s0,0,0,0a.91.91,0,0,0,.16-.13l.09-.07.09-.06s-.06,0,0,0l.09-.06,0,0,0,0,.05,0,.07,0s0,0,0,0h0l0,0s.06,0,.1-.06l.12,0h0l-.07,0,0,0a1.11,1.11,0,0,1,.26-.07c.08,0,0,0-.11,0l.17,0,.11,0h0c-.08,0-.07,0-.05,0h0a.51.51,0,0,0-.17,0h0l-.16,0-.12.06.12,0,.13,0a.8.8,0,0,1,.19,0h.32l0,0,.13.06s0,0,.07,0h0a.23.23,0,0,1-.07-.06l0,0h0l0,0h0l0,0h0a.17.17,0,0,1,0,.07l-.06-.08-.12-.08,0,0,0,.06s0,0,0,0h0s0,0,0,0l.06.09a.56.56,0,0,1,0,.12.76.76,0,0,1,0,.15c0,.06,0,.11,0,.17v0a.09.09,0,0,0,0-.05.49.49,0,0,0,0-.12c0-.08,0-.14,0-.11V354a1.49,1.49,0,0,0,0,.19s0,0,0,0v0l0,.07,0,.07,0,0v0h0v0h0l0,0h0v0l0,.06.05.06,0,0h0l0,0,0,0h0l.18.09.23.06-.08,0-.13,0-.07,0s0,0,0,0l.07,0,.06,0h0l.06,0,.26,0h-.06l.25,0c.08,0,0,0,0,0s-.09,0,0,0h-.2l.1,0a1.93,1.93,0,0,1,.26,0h0l0,0a.9.9,0,0,1-.24,0h.35s0,0-.07,0h.27c-.07,0-.18,0-.09,0h.11c.08,0,0,0,.11,0h0l.19,0c-.12,0-.12,0,0,0a2.89,2.89,0,0,1,.39,0h.08s.11,0,.16,0-.25,0-.25,0,.06,0,0,0,0,0,.09,0,.2,0,.13,0l.2,0s0,0,0,0h.07s.21,0,.2,0a1.33,1.33,0,0,0,.29,0s-.17,0-.21,0l.62,0c.17,0,0,0,0,0l-.33,0a3.62,3.62,0,0,0,.5,0c.17,0,.19,0,.38,0h.09s-.09,0,0,0,.1,0,.09,0h0c.19,0,.14,0,.3,0h-.09l.15,0h.12s-.13,0-.16,0h.12l.15,0c-.11,0,0,0,0,0s.22,0,.21,0a.93.93,0,0,1,.24,0c-.1,0,0,0,0,0h.16c-.17,0,0,0,0,0h-.24a2.42,2.42,0,0,0,.39,0l-.08,0,.24,0s-.09,0,0,0h.13c.15,0,0,0,.18,0H552s.18,0,.18,0l-.21,0s.11,0,.16,0h.26s-.21,0-.18.07a3.39,3.39,0,0,1,.52,0c.15,0,.13,0,.11,0h.06l.49,0c.11,0,.06,0,0,0h.1l.21,0s-.05,0,0,0l.23,0s0,0-.13,0h-.16a.66.66,0,0,1,.26,0c.16,0-.13,0,.06,0s.49,0,.63,0a3.88,3.88,0,0,1,.44,0s.13,0,.11,0c-.18,0-.33,0-.47,0s-.06,0-.09,0h-.15c.17,0,.05,0,.25,0h-.32l.24,0s0,0,0,0l.21,0c.07,0,.09,0,.05,0a1.94,1.94,0,0,1,.32,0c.16,0,0,0-.06,0h-.15s.19,0,.21,0,.23,0,.35,0l-.13,0h.11a1,1,0,0,1-.16.05l.48,0s.06,0,0,0c.16,0,.25,0,.39,0s-.15,0,0,0H556c.08,0,.07,0,.09,0H556s.17,0,.23,0l-.06,0a2.68,2.68,0,0,1,.39,0c.05,0,0,0-.08,0a.57.57,0,0,1,.13,0h.09a1.09,1.09,0,0,0,.3,0c.11,0,.24,0,.21,0s0,0,0,0c.16,0,.17,0,.27,0h-.08c.16,0,0,0,.17,0,0,0,0,0,0,0s.11,0,.17,0,.12,0,0,0a2.33,2.33,0,0,0,.29,0c-.07,0,.11,0,.06,0,.12,0,.21,0,.18,0s-.12,0-.11,0h.38c.07,0,.22,0,.27,0h-.15l.1,0c-.1,0,0,0-.16,0s.27,0,.15-.05-.09,0-.17,0h0l-.19,0s0,0,0,0H558s.07,0,0,0a.81.81,0,0,1-.16,0h.12a1.93,1.93,0,0,1,.34-.06,1.55,1.55,0,0,1,.33,0h-.07c.14,0,0,0,.21,0s.22,0,.11.05l.29,0c.07,0,0,0,0,0s.19,0,.13,0h.08l.22,0Z"/><path class="cls-16" d="M556.32,354.27h0Z"/><path class="cls-16" d="M558.6,354h0Z"/><path class="cls-16" d="M546.07,354.62l0,0Z"/><path class="cls-16" d="M548.5,354.75h0Z"/><path class="cls-16" d="M558.72,354.14h0Z"/><path class="cls-16" d="M559.39,364.69h0Z"/><path class="cls-16" d="M559.45,364.7Z"/><path class="cls-16" d="M542.43,362.56h0l-.05,0Z"/><path class="cls-16" d="M543,364.9h0Z"/><path class="cls-16" d="M558.6,364.73h0Z"/><path class="cls-16" d="M541.52,362.41h0Z"/><path class="cls-16" d="M556.13,364.8h0Z"/><path class="cls-16" d="M543.81,364.75l0,0Z"/><path class="cls-16" d="M559,364.71h0Z"/><path class="cls-16" d="M545.86,364.09l0,0h0l0,.06S545.87,364.1,545.86,364.09Z"/><path class="cls-16" d="M559.46,364.75l.19,0a1.48,1.48,0,0,1-.21,0h-.22s-.23,0-.18,0h-.14s.12,0,.18,0c.24,0,0,0,0,0h.19s.07,0-.05,0a1.1,1.1,0,0,1,.27,0s0,0-.07,0,.14,0,0,0c0,0-.08,0,0,0s-.23,0-.16,0l-.28,0s.06,0,.09,0l-.22,0H559a2,2,0,0,0-.38.05s.12,0,.2,0c-.08,0,0,0-.18,0h0l-.1,0s0,0,0,0c-.17,0,0,0-.23,0,.15,0,.12,0,.25,0s-.14,0-.18,0H558l.14,0c.09,0,0,0-.06,0s0,0-.08,0h0l-.18,0c-.17,0-.38,0-.49,0h0l-.34,0,.17,0-.49.05h.2c-.12,0-.15,0-.31,0,0,0,0,0,0,0a1.71,1.71,0,0,1-.25,0s0,0,.19,0,.26,0,.36,0h-.06l.31,0h0l.05,0h-.05l.19,0a.84.84,0,0,0-.27.05,3.12,3.12,0,0,0-.33,0s-.1,0,0,0h0l-.23.05-.33,0c.11,0,.22,0,.19,0s-.21,0-.18,0a1.22,1.22,0,0,1-.34,0l.33,0h.1a1.75,1.75,0,0,0-.23,0s0,0,0,0h-.12c-.11,0-.31,0-.51,0h0c-.15,0-.16,0-.33.05,0,0,0,0,0,0a1.47,1.47,0,0,1-.21,0c.1,0-.06,0,0,0l-.26,0s.28,0,.14,0-.11,0,0,0h-.35a2.71,2.71,0,0,0-.27.05.7.7,0,0,1,.16,0l-.09,0h-.23s.15,0,.14,0l-.26,0h0c-.19,0-.34,0-.46,0,0,0,.11,0,.09,0s-.17,0-.16,0h-.18s0,0-.08,0,.08,0,0,0l-.18,0h0c-.27,0-.48,0-.76.06,0,0,.2,0,.27,0-.09,0-.22,0-.34,0s-.19,0-.17,0c-.14,0-.1,0-.12,0a2,2,0,0,1-.32,0h0l-.17,0s0,0,0,0h0c.17,0,.38,0,.55,0,0,0,0,0,0,0h-.06s-.1,0,0,0a2.15,2.15,0,0,1-.32,0c-.1,0,.11,0,.16,0h-.14c-.18,0,0,0-.09,0a.74.74,0,0,1-.21,0H551l-.3,0h-.05a1.23,1.23,0,0,0,.26,0c-.2,0,.06,0,.13-.05h-.24a3.13,3.13,0,0,0-.43,0c-.07,0,.07,0,0,0l-.46,0h-.09c-.38,0-.53.05-1,.07h-.14c-.12,0-.38,0-.52,0a2.66,2.66,0,0,0-.34,0s0,0,0,0l-.35,0h-.69l-.35-.06h0l-.11,0,0,0-.05,0,0,0,0,0-.05,0,0,0,0,0,0,0,0,0v0h0v0a.07.07,0,0,0,0-.05v-.1s0-.08,0-.12,0-.07,0,0,0,.07,0,.07v-.19h0v0a.18.18,0,0,0,0-.09s0,0,0,0h0v.08a0,0,0,0,0,0,0,.59.59,0,0,0-.12-.27l-.07-.09,0,0,0,0a.87.87,0,0,0-.19-.1h.07l0,0h0l.11.06,0,0h0l0,0,0,0-.07-.06-.14-.08-.14-.06-.06,0h-.07s0,0,0,0H545c-.06,0,0,0,0,0l-.25.05h-.07l-.06,0-.07,0-.06,0h0l0,0,0,0-.07,0,0,0a3.15,3.15,0,0,0-.33.22l-.29.22-.19.15-.08.07-.07.05.08-.05s0,0,0,0l-.07.05-.09.06-.06,0h0l0,0h-.06l-.05,0h0l-.13,0-.14,0-.16,0h-.27l-.14,0h-.06l-.07,0h0l0,0,0,0h0a.45.45,0,0,1-.09-.1l0-.07v-.09h0v0a.19.19,0,0,0,0-.08v.12s0,0,0,0a.14.14,0,0,0,0,.07.41.41,0,0,1,0-.12.44.44,0,0,1,0-.15.56.56,0,0,1,.09-.17l.12-.16c.06-.08.16-.17.24-.26a1.18,1.18,0,0,0,.18-.21v0a1.37,1.37,0,0,0,.24-.29.92.92,0,0,0,.09-.23.59.59,0,0,0,0-.13.51.51,0,0,0,0-.13.56.56,0,0,0,0-.12.14.14,0,0,0,0-.06l0-.05a.4.4,0,0,0-.15-.14v0h0l0,0-.22-.1a1.37,1.37,0,0,0-.29-.07,1.52,1.52,0,0,0-.46,0c-.06,0-.05,0,0,0h-.19a.11.11,0,0,1-.08,0h.07c-.07,0-.1,0-.18,0s0,0-.06,0l-.18,0h0s-.07,0-.12,0h0l-.24,0-.23.05-.24.07-.24.08a6.13,6.13,0,0,0-.91.4l.1-.07-.15.08L539,363h0l-.09,0,0,0,0,0-.13.08,0,0-.06,0-.06,0-.11.07-.05,0,0,0-.11.09,0,0h0l0,0,0,0-.1.06,0,0,0,0,0,0,0,0s-.06.07-.1.12,0,0,.19-.1a.13.13,0,0,1,.06-.05.1.1,0,0,1,.05,0l.12-.08a.44.44,0,0,1,.12-.11l0,0,0,0h0l.08-.07c-.05.06.14-.09,0,0l.06,0,.09-.07.1-.07.09-.05,0,0,.11-.06h.05l0,0h0s.06,0,.09,0-.09,0-.06,0l.13-.08,0,0,0,0,0,0h0l-.07,0a.1.1,0,0,0,0,0c.14-.07,0,0,.09,0s0,0,.06,0l.14-.07-.07,0,.1,0h.05l0,0,.1,0,.06,0,.07,0s0,0,0,0a1.77,1.77,0,0,0,.22-.08c.09,0,0,0,.17,0,0,0,0,0,.06,0l.1,0,.11,0,0,0s0,0,.11,0,0,0,.1,0l0,0h.07a.3.3,0,0,1,.15,0s-.07,0-.07,0l.09,0h.33s.16,0,.15,0h.29l.1,0s0,0,0,0h0l.14,0,.1,0h.07l0,0,.12.06s.08,0,.06,0l0,0,0,0h-.05l.06,0h0l0,0h0a.51.51,0,0,1,.13.09l0,0h0s0,0,0,0h-.07l0,0s0,0,0,0l.09.05h.06l0,0,0,0,0,0v0l0,0v0h0v0a.06.06,0,0,1,0,0v0h0a0,0,0,0,0,0,0,.17.17,0,0,1,0,.12.35.35,0,0,1,0,.11s0,0,0,0h0v0a.45.45,0,0,0,0,.08l0,0s0,0,0,0a.91.91,0,0,1-.11.16l-.12.13-.25.25.1-.07v0c.08-.06,0,0,0,.08s-.12.12-.09.07l-.1.12s.09-.09,0,0l-.08.08s0,0,0,0l-.08.1s0,.05,0,0l0,0s0,0,0,0L542,364s0,.06-.06.06,0,0,0,0l-.08.14,0-.07a.83.83,0,0,0-.07.13,1.12,1.12,0,0,1,0,.13.09.09,0,0,0,0,0,.11.11,0,0,0,0,.05.11.11,0,0,0,0,.05v.09l0,.12a.17.17,0,0,0,0,.05v.06a1.1,1.1,0,0,0,.11.14l0,0,.1.08,0,0,0,0,0,0,0,0h.06l0,0h.09l.18,0s.06,0,0,0h.15l.14,0,.17,0-.19,0h.13l.21-.05a1,1,0,0,0,.19-.09h0l0,0,0,0,.1-.07c-.06,0,0,0,0-.08l.07,0,.07,0,.06,0s.16-.09,0,0a.59.59,0,0,0-.11.08l.22-.14-.09.09s0,0,0,0c-.16.14.05,0,0,0l.08-.06s0,0,0,0a.91.91,0,0,0,.16-.13l.09-.08.09-.05s-.06,0,0,0l.09-.06,0,0,0,0,.05,0,.07,0s0,0,0,0h0l0,0,.1,0,.12,0h0l-.07,0,0,0,.26-.08c.08,0,0,0-.11,0l.17,0,.11,0h0c-.08,0-.07,0-.05,0s0,0,0,0v0a.51.51,0,0,0-.17,0s0,0,0,0h0l-.16,0a.67.67,0,0,0-.12.06l.12,0,.13,0a.8.8,0,0,1,.19,0h.31l0,0h0l0,0,0,0,.13.06.07,0,0,0h0a.23.23,0,0,1-.07-.06l0,0h.06v0l0,0h0l0,.07-.06-.07-.12-.08,0,0,0,.06s0,0,0,0h0s0,0,0,0l.06.09a.34.34,0,0,1,0,.12.76.76,0,0,1,0,.15c0,.05,0,.11,0,.17a0,0,0,0,1,0,0,.06.06,0,0,0,0,0,.57.57,0,0,0,0-.13c0-.08,0-.13,0-.1v.19a1.49,1.49,0,0,0,0,.19.08.08,0,0,0,0,0v0l0,.07,0,.07,0,0v0h0v0l0,0h0v0l0,.06.05.06,0,0h0l0,0,0,0h0l.18.08a1.19,1.19,0,0,0,.23.07l-.08,0-.13,0-.07,0s0,0,0,0l.07,0,.06,0,0,0h.06l.26,0h-.06l.25,0c.08,0,0,0,0,0s-.09,0,0,0h-.2l.1,0,.26,0h0l0,0a.9.9,0,0,1-.24,0h.35s0,0-.07,0h.27c-.07,0-.18,0-.09,0l.06,0h.05c.08,0,0,0,.11,0h0l.19,0c-.12,0-.12,0,0,0s.28,0,.39,0h.24s-.25,0-.25,0,.06,0,0,0,0,0,.09,0h.13c.11,0,.12,0,.2,0l0,0h.12s0,0-.05,0,.21,0,.2,0a1.33,1.33,0,0,0,.29,0s-.17,0-.21,0l.62,0c.17,0,0,0,0,0a3.08,3.08,0,0,0-.33,0c.15,0,.39,0,.5,0s.19,0,.38,0a.11.11,0,0,0-.08,0h.17s-.09,0,0,0,.1,0,.09,0h0c.19,0,.14,0,.3,0h-.09l.15,0h.12s-.13,0-.16,0h.12l.15,0c-.11,0,0,0,0,0H551l.24,0c-.1,0,0,0,0,0h.16c-.17,0,0,0,0,0a.82.82,0,0,1-.24,0,2.42,2.42,0,0,0,.39,0l-.08,0,.24,0s-.09,0,0,0h.13c.15,0,0,0,.18,0H552s.18,0,.18,0l-.21,0s.11,0,.16,0h.26s-.21,0-.18.06l.52,0c.15,0,.13,0,.11,0h.06l.49,0c.11,0,.06,0,0,0h.1l.21,0h0a.87.87,0,0,0,.23,0s0,0-.13,0h-.16a.66.66,0,0,1,.26,0c.16,0-.13,0,.06,0a4.33,4.33,0,0,1,.63,0,3.88,3.88,0,0,1,.44-.05s.13,0,.11,0c-.18,0-.33,0-.47,0s-.06,0-.09,0h-.15c.17,0,.05,0,.25,0a2.36,2.36,0,0,0-.27,0s0,0,0,0l.24,0s0,0,0,0l.21,0c.07,0,.09,0,.05,0a1.94,1.94,0,0,1,.32,0c.16,0,0,0-.06,0h-.15s.19,0,.21,0,.23,0,.35,0l-.13,0h.11c-.07,0-.06,0-.16.05l.48,0s.06,0,0,0c.16,0,.25,0,.39,0s-.15,0,0,0H556c.08,0,.07,0,.09,0H556l.23,0-.06,0a2.6,2.6,0,0,1,.39,0h-.08s.11,0,.13,0h.09a1.09,1.09,0,0,0,.3,0c.11,0,.24,0,.21,0s0,0,0,0c.16,0,.17,0,.27,0h-.08c.16,0,0,0,.17,0,0,0,0,0,0,0h.17s.12,0,0,0c.13,0,.19,0,.29,0-.07,0,.11,0,.06,0,.12,0,.21,0,.18,0s-.12,0-.11,0l.23,0,.15,0c.07,0,.22,0,.27,0a.92.92,0,0,1-.17,0h0l.1,0c-.1,0,0,0-.16,0s.27-.05.15-.05-.09,0-.17,0h0l-.19,0s0,0,0,0H558s.07,0,0,0h-.16a.53.53,0,0,1,.13,0v0a2.08,2.08,0,0,1,.34-.05,1.33,1.33,0,0,1,.33,0h-.07c.14,0,0,0,.21,0s.22,0,.11,0l.29,0c.07,0,0,0,0,0s.19,0,.13,0h.08l.22,0Z"/><path class="cls-16" d="M556.32,365h0Z"/><path class="cls-16" d="M558.6,364.73h0S558.59,364.74,558.6,364.73Z"/><path class="cls-16" d="M546.07,365.32l0,0Z"/><path class="cls-16" d="M548.5,365.45h0Z"/><path class="cls-16" d="M558.72,364.83h0Z"/></g><rect class="cls-7" x="290.31" y="345.39" width="7.24" height="32.48"/><rect class="cls-9" x="297.55" y="345.39" width="7.25" height="32.48"/><rect class="cls-7" x="304.8" y="345.39" width="7.25" height="32.48"/><path class="cls-6" d="M377.45,246V377.87H439.6V246Zm53.9,122.28H385.7V349.68h45.65Zm0-28.53H385.7V254.3h45.65Z"/><polygon class="cls-7" points="188.83 205.32 188.83 230.59 185.2 226.96 173.67 226.96 170.13 230.5 170.13 205.32 188.83 205.32"/><rect class="cls-7" x="319.29" y="345.39" width="7.25" height="32.48"/><rect class="cls-9" x="312.05" y="345.39" width="7.24" height="32.48"/><rect class="cls-9" x="225.08" y="345.39" width="7.24" height="32.48"/><rect class="cls-7" x="232.32" y="345.39" width="7.25" height="32.48"/><rect class="cls-7" x="217.83" y="345.39" width="7.25" height="32.48"/><rect class="cls-9" x="268.56" y="345.39" width="7.24" height="32.48"/><rect class="cls-9" x="239.57" y="345.39" width="7.25" height="32.48"/><rect class="cls-7" x="246.82" y="345.39" width="7.24" height="32.48"/><rect class="cls-9" x="254.07" y="345.39" width="7.25" height="32.48"/><rect class="cls-7" x="261.32" y="345.39" width="7.25" height="32.48"/><rect class="cls-9" x="210.58" y="345.39" width="7.25" height="32.48"/><rect class="cls-7" x="275.81" y="345.39" width="7.25" height="32.48"/><rect class="cls-7" x="348.29" y="345.39" width="7.25" height="32.48"/><rect class="cls-9" x="283.06" y="345.39" width="7.25" height="32.48"/><rect class="cls-7" x="333.79" y="345.39" width="7.25" height="32.48"/><rect class="cls-9" x="341.04" y="345.39" width="7.24" height="32.48"/><rect class="cls-9" x="196.09" y="345.39" width="7.25" height="32.48"/><rect class="cls-9" x="326.54" y="345.39" width="7.25" height="32.48"/><path class="cls-7" d="M355.53,205.32v27.31L361.2,227h11.53l4.72,4.72V211.51H439.6v21.71H379l12.83,12.83H439.6v47.78l21.91,21.91V205.32Z"/><rect class="cls-7" x="188.84" y="345.39" width="7.25" height="32.48"/><path class="cls-9" d="M468,200v2.91a2.4,2.4,0,0,1-2.39,2.4H166a2.4,2.4,0,0,1-2.39-2.4V200Z"/><rect class="cls-9" x="163.62" y="180.93" width="304.41" height="19.07"/><path class="cls-6" d="M468,175.68v5.25H163.62v-5.25a2.39,2.39,0,0,1,2.4-2.39H465.64A2.39,2.39,0,0,1,468,175.68Z"/><path class="cls-6" d="M377.45,206v27.21H439.6V206ZM433,227.41H384V211.82h49Z"/><path class="cls-9" d="M392.94,307.9a1.4,1.4,0,0,1-2.8,0,1.39,1.39,0,0,1,.81-1.27V295.21a1.4,1.4,0,1,1,2-1.27,1.43,1.43,0,0,1-.81,1.27v11.42A1.4,1.4,0,0,1,392.94,307.9Z"/><polygon class="cls-6" points="355.54 306.99 355.54 311.15 274.27 311.15 274.27 338.62 270.11 338.62 270.11 311.15 188.84 311.15 188.84 306.99 270.11 306.99 270.11 237.79 274.27 237.79 274.27 306.99 355.54 306.99"/><rect class="cls-6" x="188.84" y="338.62" width="166.7" height="6.77"/><path class="cls-6" d="M188.84,205.32v32.47h166.7V205.32ZM268,229.24H196.17V213.65H268Zm80.18,0H276.35V213.65h71.86Z"/><line class="cls-17" x1="405.25" y1="145.88" x2="399.94" y2="145.88"/><line class="cls-17" x1="426.76" y1="145.88" x2="420.49" y2="145.88"/><line class="cls-17" x1="424.03" y1="141.9" x2="420.49" y2="141.9"/><line class="cls-17" x1="390.77" y1="141.9" x2="397.62" y2="141.9"/><line class="cls-17" x1="397.62" y1="137.93" x2="395.97" y2="137.93"/><line class="cls-17" x1="412.87" y1="137.93" x2="418.26" y2="137.93"/><line class="cls-17" x1="412.87" y1="145.88" x2="412.87" y2="150.79"/><line class="cls-17" x1="235.61" y1="92.11" x2="240.92" y2="92.11"/><line class="cls-17" x1="214.1" y1="92.11" x2="220.37" y2="92.11"/><line class="cls-17" x1="220.37" y1="88.14" x2="216.83" y2="88.14"/><line class="cls-17" x1="243.24" y1="88.14" x2="250.09" y2="88.14"/><line class="cls-17" x1="243.24" y1="84.16" x2="244.89" y2="84.16"/><line class="cls-17" x1="227.99" y1="84.16" x2="222.6" y2="84.16"/><line class="cls-17" x1="227.99" y1="92.11" x2="227.99" y2="97.02"/><path class="cls-7" d="M188.84,18.76V173.29H439.6V18.76Zm54.4,69.38h-7.63v4H220.37v-4H228v-4h15.25ZM358.39,150.7H273.26V58.64h85.13Zm62.11-4.82H405.25v-4h-7.63v-4h15.26v4h7.62Z"/><rect class="cls-9" x="397.62" y="137.93" width="15.25" height="3.98"/><rect class="cls-6" x="405.25" y="141.9" width="15.25" height="3.98"/><rect class="cls-9" x="446.24" y="344.57" width="12.48" height="3.25"/><rect class="cls-6" x="442.64" y="347.82" width="12.48" height="3.25"/><rect class="cls-9" x="446.86" y="223.48" width="10.73" height="2.8"/><rect class="cls-6" x="443.76" y="226.27" width="10.73" height="2.8"/><rect class="cls-6" x="443.76" y="217.49" width="8.15" height="2.12"/><rect class="cls-6" x="442.24" y="336.66" width="8" height="2.09"/><rect class="cls-9" x="356.77" y="359.51" width="12.48" height="3.25"/><rect class="cls-6" x="360.38" y="356.26" width="12.48" height="3.25"/><rect class="cls-6" x="365.25" y="368.58" width="8" height="2.09"/><rect class="cls-9" x="174.62" y="359.51" width="12.48" height="3.25"/><rect class="cls-6" x="178.22" y="356.26" width="12.48" height="3.25"/><rect class="cls-6" x="183.09" y="368.58" width="8" height="2.09"/><rect class="cls-9" x="177.66" y="262.71" width="6.69" height="2.13"/><rect class="cls-6" x="175.3" y="260.58" width="8.17" height="2.13"/><rect class="cls-6" x="175.03" y="268.65" width="5.24" height="1.37"/><rect class="cls-6" x="227.99" y="84.16" width="15.25" height="3.98"/><rect class="cls-9" x="220.37" y="88.14" width="15.24" height="3.97"/><rect class="cls-6" x="220.36" y="151.36" width="15.25" height="3.98"/><rect class="cls-9" x="227.99" y="158.99" width="15.24" height="3.97"/><rect class="cls-9" x="213.65" y="148.26" width="11.91" height="3.1"/><path class="cls-6" d="M273.26,58.64v85.12h85.13V58.64Zm79.88,79.87H278.51V63.89h74.63Z"/><rect class="cls-6" x="273.26" y="143.76" width="85.13" height="6.93"/><rect class="cls-6" x="439.6" y="98.09" width="69.65" height="4.25"/><line class="cls-11" x1="504.29" y1="120.61" x2="504.29" y2="102.34"/><line class="cls-11" x1="476.09" y1="141.09" x2="476.09" y2="102.34"/><path class="cls-6" d="M553.22,222.85v7.29a2.39,2.39,0,0,1-2.71,2.37c-6-.79-21-2.31-31.81.39-12.63,3.14-33.28,6.39-57.18-.62v-27h4.12a2.39,2.39,0,0,0,2.39-2.4V175.68l84,45.08A2.39,2.39,0,0,1,553.22,222.85Z"/><rect class="cls-7" x="203.34" y="345.39" width="7.24" height="32.48"/><rect class="cls-18" x="295.2" y="271.97" width="38.03" height="1.97" rx="0.98" transform="translate(729.41 243.78) rotate(135)"/><rect class="cls-18" x="312.04" y="280.5" width="16.84" height="1.97" rx="0.98" transform="translate(746.09 253.92) rotate(135)"/><rect class="cls-18" x="302.52" y="262.82" width="16.84" height="1.97" rx="0.98" transform="translate(717.35 230.48) rotate(135)"/><path class="cls-18" d="M216.89,289.6l27.65-31.89a1.36,1.36,0,0,0,0-1.74h0a1,1,0,0,0-1.51,0l-27.65,31.89a1.38,1.38,0,0,0,0,1.74h0A1,1,0,0,0,216.89,289.6Z"/><path class="cls-18" d="M230.28,289.15,241.67,276a1,1,0,0,1,1.51,0h0a1.36,1.36,0,0,1,0,1.74l-11.39,13.15a1,1,0,0,1-1.51,0h0A1.36,1.36,0,0,1,230.28,289.15Z"/><path class="cls-18" d="M220,267l11.39-13.14a1,1,0,0,1,1.51,0h0a1.36,1.36,0,0,1,0,1.74l-11.39,13.15a1,1,0,0,1-1.51,0h0A1.37,1.37,0,0,1,220,267Z"/><rect class="cls-18" x="394.72" y="298.02" width="28.11" height="1.46" rx="0.73" transform="translate(909.08 220.95) rotate(135)"/><rect class="cls-18" x="407.17" y="304.32" width="12.44" height="1.46" rx="0.73" transform="translate(921.41 228.44) rotate(135)"/><rect class="cls-18" x="400.14" y="291.26" width="12.44" height="1.46" rx="0.73" transform="translate(900.16 211.11) rotate(135)"/><path class="cls-19" d="M486.28,139.22a4.84,4.84,0,0,0,.83,3,2.86,2.86,0,0,0,2.46,1.13c.36,0,.69,0,1,0s.55-.06.75-.1v-7.25a3.33,3.33,0,0,0-1-.4,4.52,4.52,0,0,0-1.21-.16C487.22,135.37,486.28,136.65,486.28,139.22Z"/><path class="cls-19" d="M512,135l-3-12.67a5.56,5.56,0,0,0-4.12-4.12l-.6-.14-12.08-2.84a5.52,5.52,0,0,0-5.17,1.47l-11,11-6.43,6.44a5.53,5.53,0,0,0,0,7.82l15.65,15.65a5.53,5.53,0,0,0,7.82,0l17.38-17.38A5.55,5.55,0,0,0,512,135ZM495.3,145.91a12.21,12.21,0,0,1-1.23.31c-.47.1-.95.18-1.46.25s-1,.14-1.56.18-1,.07-1.51.07a8.8,8.8,0,0,1-3.1-.51,6.13,6.13,0,0,1-3.74-3.77,8.68,8.68,0,0,1-.49-3,10.37,10.37,0,0,1,.43-3.1,6.61,6.61,0,0,1,1.23-2.34,5.28,5.28,0,0,1,2-1.47,7.16,7.16,0,0,1,4.16-.35,8.32,8.32,0,0,1,1.32.46v-6.37l4-.65ZM505.4,124a1.56,1.56,0,1,1-2.21-2.2,1.52,1.52,0,0,1,1.1-.46A1.56,1.56,0,0,1,505.4,124Z"/><polygon class="cls-12" points="297.49 341.55 251.04 388 244.78 388 291.23 341.55 297.49 341.55"/><polygon class="cls-12" points="257.55 348.06 251.29 348.06 244.78 341.55 251.04 341.55 257.55 348.06"/><polygon class="cls-13" points="297.49 388 291.24 388 251.29 348.06 257.55 348.06 297.49 388"/><circle class="cls-12" cx="271.14" cy="364.78" r="0.68"/><rect class="cls-12" x="238.14" y="334.76" width="66.11" height="8.98" rx="0.47"/><polygon class="cls-12" points="240.56 365.44 217.7 388.31 214.62 388.31 237.49 365.44 240.56 365.44"/><polygon class="cls-13" points="214.62 365.44 237.49 388.31 240.56 388.31 217.7 365.44 214.62 365.44"/><rect class="cls-12" x="211.35" y="362.1" width="32.55" height="4.42" rx="0.61"/><polygon class="cls-12" points="329.64 365.44 306.78 388.31 303.7 388.31 326.57 365.44 329.64 365.44"/><polygon class="cls-13" points="303.7 365.44 326.57 388.31 329.64 388.31 306.78 365.44 303.7 365.44"/><rect class="cls-12" x="300.43" y="362.1" width="32.55" height="4.42" rx="0.61"/><polygon class="cls-4" points="185.21 226.98 184.11 238.97 174.67 238.97 173.57 226.98 185.21 226.98"/><circle class="cls-5" cx="179.41" cy="232.34" r="2.43"/><path class="cls-6" d="M187.45,225.69H171.33a.23.23,0,0,1-.18-.38l3-3.86a.26.26,0,0,1,.19-.09h10.1a.26.26,0,0,1,.19.09l3,3.86A.23.23,0,0,1,187.45,225.69Z"/><path class="cls-6" d="M181,220.67h-3.28a.1.1,0,0,1-.09-.14l.31-.69.15-.33.19-.4h.08a1.23,1.23,0,0,1-.06-.39,1.07,1.07,0,1,1,2.12,0,1.23,1.23,0,0,1-.06.39h.09l.18.4.15.33.31.69A.1.1,0,0,1,181,220.67Z"/><path class="cls-7" d="M180.3,241.72v1.16a1.21,1.21,0,0,0-.89-.4,1.18,1.18,0,0,0-.88.4v-1.16Z"/><line class="cls-8" x1="176.89" y1="226.98" x2="177.49" y2="233.44"/><polygon class="cls-9" points="185.82 225.69 185.7 226.98 172.97 226.98 172.85 225.69 185.82 225.69"/><line class="cls-8" x1="180.82" y1="238.97" x2="181.58" y2="230.7"/><path class="cls-9" d="M180.66,243.85a1.26,1.26,0,1,1-2.5,0,1.42,1.42,0,0,1,.37-1,1.18,1.18,0,0,1,.88-.4,1.21,1.21,0,0,1,.89.4A1.46,1.46,0,0,1,180.66,243.85Z"/><path class="cls-9" d="M184.6,239.22l-.09.92a.23.23,0,0,1-.23.21h-9.81a.23.23,0,0,1-.23-.21l-.09-.92a.24.24,0,0,1,.23-.25h10A.24.24,0,0,1,184.6,239.22Z"/><path class="cls-7" d="M181.26,240.55l-.64,1.11a.14.14,0,0,1-.12.06h-2.18a.14.14,0,0,1-.12-.06l-.64-1.11a.13.13,0,0,1,.11-.2h3.48A.13.13,0,0,1,181.26,240.55Z"/><rect class="cls-6" x="177.91" y="220.67" width="2.83" height="0.7"/><polygon class="cls-4" points="372.77 226.98 371.67 238.97 362.23 238.97 361.13 226.98 372.77 226.98"/><circle class="cls-5" cx="366.97" cy="232.34" r="2.43"/><path class="cls-6" d="M375,225.69H358.89a.24.24,0,0,1-.19-.38l3-3.86a.24.24,0,0,1,.18-.09H372a.28.28,0,0,1,.19.09l3,3.86A.23.23,0,0,1,375,225.69Z"/><path class="cls-6" d="M368.53,220.67h-3.28a.1.1,0,0,1-.09-.14l.31-.69.15-.33.18-.4h.09a1.23,1.23,0,0,1-.06-.39,1.07,1.07,0,1,1,2.12,0,1,1,0,0,1-.07.39h.1l.18.4.14.33.32.69A.1.1,0,0,1,368.53,220.67Z"/><path class="cls-7" d="M367.85,241.72v1.16a1.18,1.18,0,0,0-.88-.4,1.16,1.16,0,0,0-.88.4v-1.16Z"/><line class="cls-8" x1="364.45" y1="226.98" x2="365.05" y2="233.44"/><polygon class="cls-9" points="373.38 225.69 373.26 226.98 360.53 226.98 360.41 225.69 373.38 225.69"/><line class="cls-8" x1="368.38" y1="238.97" x2="369.14" y2="230.7"/><path class="cls-9" d="M368.22,243.85a1.26,1.26,0,1,1-2.5,0,1.42,1.42,0,0,1,.37-1,1.16,1.16,0,0,1,.88-.4,1.18,1.18,0,0,1,.88.4A1.42,1.42,0,0,1,368.22,243.85Z"/><path class="cls-9" d="M372.15,239.22l-.08.92a.23.23,0,0,1-.23.21H362a.25.25,0,0,1-.24-.21l-.08-.92a.23.23,0,0,1,.23-.25h10A.23.23,0,0,1,372.15,239.22Z"/><path class="cls-7" d="M368.82,240.55l-.64,1.11a.14.14,0,0,1-.12.06h-2.18a.13.13,0,0,1-.12-.06l-.65-1.11a.14.14,0,0,1,.12-.2h3.48A.13.13,0,0,1,368.82,240.55Z"/><rect class="cls-6" x="365.47" y="220.67" width="2.83" height="0.7"/><path class="cls-20" d="M385.87,334.5c-2.13.7-5.48,3.43-8.32,11.22-3,8.16-7.13,6-7.13,6l-.16-.1c1.35-.61,2.95-2.18,4.31-5.91,2.19-6,4.69-9,6.7-10.39,2.08-1,3.75-1.29,4.6-1A.11.11,0,0,1,385.87,334.5Z"/><path class="cls-21" d="M381.27,335.33c-2,1.37-4.51,4.37-6.7,10.39-1.36,3.73-3,5.3-4.31,5.91-3-1.9,0-7.4,3.74-11.1A27,27,0,0,1,381.27,335.33Z"/><path class="cls-22" d="M384,301.87c-2.16,10-8.77,12.36-11.43,27.3-3.11,17.46-2.24,20.9-2,21.51a2.92,2.92,0,0,1-2.45.13s-1.72-1.46,1.88-21.64c3.37-18.89,13-17.63,12.06-37.23,0-.23.22-.4.28-.21A26.57,26.57,0,0,1,384,301.87Z"/><path class="cls-23" d="M384,301.87c-.19,6.25-2.23,13-3.75,24.12-1.45,10.62-5.26,22.55-9.64,24.69-.28-.61-1.15-4.05,2-21.51C375.21,314.23,381.82,311.89,384,301.87Z"/><path class="cls-23" d="M370.21,353.18h0a5.84,5.84,0,0,1-6.23-2,6,6,0,0,0,2.23-.22h0c.3-.1,9.48-3.36,1.65-20.06-4-8.49-5.61-15.08-6-20.05h0c1.56-4.07,3.39-6.77,4.93-7.77a.3.3,0,0,1,.44.39c-2.1,4.42-2.88,13.67,4.6,29.64C379.69,349.82,370.51,353.08,370.21,353.18Z"/><path class="cls-22" d="M366.22,350.24h0a6,6,0,0,1-2.23.22c-3.65-4-5.52-12.63-5.44-20.56a57.64,57.64,0,0,1,3.38-19.78c.35,5,2,11.56,6,20.05C375.7,346.88,366.52,350.14,366.22,350.24Z"/><path class="cls-21" d="M365.07,352.67s-6.84.76-6.93-11.68c1.65,7,6.37,6.44,6.37,6.44,2.68-.37,3.84-2.73,3.95-5.9C369.68,347.09,369.09,352.12,365.07,352.67Z"/><path class="cls-20" d="M368.46,341.53c-.11,3.17-1.27,5.53-3.95,5.9,0,0-4.72.52-6.37-6.44,0-.29,0-.59,0-.9a52.85,52.85,0,0,0-.62-9.62c-1-6.26-3.24-9.57-5.12-11.11a.17.17,0,0,1,.12-.31,7.35,7.35,0,0,1,3.33,1.62c3.08,2.3,7.1,7,10.27,13.93A34.67,34.67,0,0,1,368.46,341.53Z"/><path class="cls-24" d="M377.14,328.43c-1.45,3.41-4,7.09-6.91,12.89-2.81,5.61-2.8,9.11-2,11.25l-.38-.11s-6.8-2.38-.8-14.33c5.82-11.6,10.15-14.7,7.24-24.14a.14.14,0,0,1,.25-.13C378,319,377.69,322.67,377.14,328.43Z"/><path class="cls-25" d="M377.14,328.43c-.23,2.31-.48,5-.54,8.19-.14,8.09-3.14,17.16-8.38,15.95-.79-2.14-.8-5.64,2-11.25C373.15,335.52,375.69,331.84,377.14,328.43Z"/><path class="cls-24" d="M366.38,353.14a4.2,4.2,0,0,1-2.85-3.67,3.73,3.73,0,0,0,1.27.7c4.25,1,6-5.27,5.54-10.79a26.69,26.69,0,0,0-1.89-8.06,23.76,23.76,0,0,1,3.47,11C372.36,347.88,370.63,354.16,366.38,353.14Z"/><path class="cls-26" d="M364.8,350.17a3.73,3.73,0,0,1-1.27-.7,11.14,11.14,0,0,1,1.27-5.85c3.55-7.75,2.74-12.16,1.42-14.2-.07-.1,0-.21.17-.16a5.9,5.9,0,0,1,2.06,2.06,26.69,26.69,0,0,1,1.89,8.06C370.79,344.9,369.05,351.19,364.8,350.17Z"/><polygon class="cls-9" points="386.01 349.71 350.77 349.71 353.02 342.78 383.76 342.78 386.01 349.71"/><polygon class="cls-14" points="384.19 344.13 352.58 344.13 353.02 342.79 383.75 342.79 384.19 344.13"/><polygon class="cls-9" points="383.82 351.74 380.73 386.64 356.05 386.64 352.96 351.74 383.82 351.74"/><rect class="cls-7" x="350.77" y="349.71" width="35.24" height="2.04"/><path class="cls-20" d="M163.36,334.5c2.13.7,5.48,3.43,8.32,11.22,3,8.16,7.13,6,7.13,6l.16-.1c-1.35-.61-2.95-2.18-4.31-5.91-2.19-6-4.69-9-6.7-10.39-2.08-1-3.75-1.29-4.6-1A.11.11,0,0,0,163.36,334.5Z"/><path class="cls-21" d="M168,335.33c2,1.37,4.51,4.37,6.7,10.39,1.36,3.73,3,5.3,4.31,5.91,3-1.9,0-7.4-3.74-11.1A27,27,0,0,0,168,335.33Z"/><path class="cls-22" d="M165.25,301.87c2.16,10,8.77,12.36,11.43,27.3,3.11,17.46,2.24,20.9,2,21.51a2.92,2.92,0,0,0,2.45.13s1.72-1.46-1.88-21.64c-3.37-18.89-13-17.63-12.06-37.23,0-.23-.22-.4-.28-.21A26.57,26.57,0,0,0,165.25,301.87Z"/><path class="cls-23" d="M165.25,301.87c.19,6.25,2.23,13,3.75,24.12,1.45,10.62,5.26,22.55,9.64,24.69.28-.61,1.15-4.05-2-21.51C174,314.23,167.41,311.89,165.25,301.87Z"/><path class="cls-23" d="M179,353.18h0a5.84,5.84,0,0,0,6.23-2A6,6,0,0,1,183,351h0c-.3-.1-9.48-3.36-1.65-20.06,4-8.49,5.61-15.08,6-20.05h0c-1.56-4.07-3.39-6.77-4.93-7.77a.3.3,0,0,0-.44.39c2.1,4.42,2.88,13.67-4.6,29.64C169.54,349.82,178.72,353.08,179,353.18Z"/><path class="cls-22" d="M183,350.24h0a6,6,0,0,0,2.23.22c3.65-4,5.52-12.63,5.45-20.56a57.85,57.85,0,0,0-3.39-19.78c-.35,5-2,11.56-6,20.05C173.53,346.88,182.71,350.14,183,350.24Z"/><path class="cls-21" d="M184.16,352.67s6.84.76,6.93-11.68c-1.65,7-6.37,6.44-6.37,6.44-2.68-.37-3.83-2.73-3.95-5.9C179.55,347.09,180.14,352.12,184.16,352.67Z"/><path class="cls-20" d="M180.77,341.53c.12,3.17,1.27,5.53,3.95,5.9,0,0,4.72.52,6.37-6.44,0-.29,0-.59,0-.9a52.85,52.85,0,0,1,.62-9.62c1.05-6.26,3.24-9.57,5.12-11.11a.17.17,0,0,0-.12-.31,7.35,7.35,0,0,0-3.33,1.62c-3.08,2.3-7.1,7-10.26,13.93A34.09,34.09,0,0,0,180.77,341.53Z"/><path class="cls-24" d="M172.09,328.43c1.45,3.41,4,7.09,6.91,12.89,2.81,5.61,2.8,9.11,2,11.25l.38-.11s6.8-2.38.8-14.33C176.37,326.53,172,323.43,175,314c.06-.16-.16-.25-.25-.13C171.2,319,171.54,322.67,172.09,328.43Z"/><path class="cls-25" d="M172.09,328.43c.23,2.31.48,5,.54,8.19.14,8.09,3.14,17.16,8.38,15.95.79-2.14.8-5.64-2-11.25C176.08,335.52,173.54,331.84,172.09,328.43Z"/><path class="cls-24" d="M182.85,353.14a4.2,4.2,0,0,0,2.85-3.67,3.73,3.73,0,0,1-1.27.7c-4.25,1-6-5.27-5.54-10.79a26.69,26.69,0,0,1,1.89-8.06,23.65,23.65,0,0,0-3.46,11C176.87,347.88,178.6,354.16,182.85,353.14Z"/><path class="cls-26" d="M184.43,350.17a3.73,3.73,0,0,0,1.27-.7,11.14,11.14,0,0,0-1.27-5.85c-3.54-7.75-2.74-12.16-1.42-14.2.07-.1,0-.21-.17-.16a5.9,5.9,0,0,0-2.06,2.06,26.69,26.69,0,0,0-1.89,8.06C178.44,344.9,180.18,351.19,184.43,350.17Z"/><polygon class="cls-9" points="196.95 349.71 161.71 349.71 163.96 342.78 194.7 342.78 196.95 349.71"/><polygon class="cls-9" points="194.76 351.74 191.67 386.64 166.99 386.64 163.9 351.74 194.76 351.74"/><rect class="cls-7" x="161.71" y="349.71" width="35.24" height="2.04"/><polygon class="cls-14" points="195.13 344.12 163.52 344.12 163.96 342.78 194.69 342.78 195.13 344.12"/><path class="cls-27" d="M239.86,78s-3.59,2.41-4-4.92a2.09,2.09,0,0,0,3.18,1c2.4-.56,4.53-5.16,1.75-19.83C244.75,72.07,242.46,77.42,239.86,78Z"/><path class="cls-23" d="M239.06,74.15a2.09,2.09,0,0,1-3.18-1h0a32.54,32.54,0,0,1,0-3.27c.58-11.27,0-12.2-.21-15.12-.51-7.45,3.62-7,4.84-1.67.1.44.2.86.29,1.28C243.59,69,241.46,73.59,239.06,74.15Z"/><path class="cls-25" d="M235.94,77.63a3.11,3.11,0,0,1-4-2.21,3.23,3.23,0,0,0,2.61.3c2.52-.19,3.09-8.8,0-14.28a8.23,8.23,0,0,1,1.14,1.5C239.05,68.39,238.53,77.44,235.94,77.63Z"/><path class="cls-24" d="M234.55,75.72a3.23,3.23,0,0,1-2.61-.3,9.6,9.6,0,0,1-.47-3c-.18-6.69-.34-7.3-1.22-9-.78-1.54,1.44-4.91,4.26-2C237.64,66.92,237.07,75.53,234.55,75.72Z"/><path class="cls-28" d="M234.88,73.09A23.74,23.74,0,0,1,236,80.36"/><path class="cls-28" d="M239.57,67.92a55.07,55.07,0,0,1-.76,14.82"/><path class="cls-21" d="M248,72.93c.17,5.44-3.84,4.31-5.34,3.7a3.33,3.33,0,0,1-2.1-2.59,4.33,4.33,0,0,0,.47.38c1.33.92,5,2.89,6-2.46a10.34,10.34,0,0,1,3.43-5.25C249.23,68.41,247.93,70.7,248,72.93Z"/><path class="cls-20" d="M252.07,64.76c-.42.47-1,1.14-1.6,1.95A10.34,10.34,0,0,0,247,72c-1,5.35-4.68,3.38-6,2.46a4.33,4.33,0,0,1-.47-.38c-.58-3.3,2.69-8.32,6.55-11.48a10.3,10.3,0,0,1,1.21-.87,5.55,5.55,0,0,1,2.64-1C253.14,60.61,253.85,62.78,252.07,64.76Z"/><path class="cls-28" d="M244.91,70.39a50.38,50.38,0,0,0-2.39,10.69"/><path class="cls-27" d="M224.43,77.7s-2.56,2.42-3.86-3.43a1.72,1.72,0,0,0,2.71.42c1.85-.77,2.95-4.76-1.24-16.19C227.57,72.26,226.44,76.86,224.43,77.7Z"/><path class="cls-23" d="M223.28,74.69a1.72,1.72,0,0,1-2.71-.42h0a25,25,0,0,1-.42-2.64c-1-9.14-1.64-9.81-2.19-12.14-1.39-5.92,2-6.06,3.68-2l.4,1C226.23,69.93,225.13,73.92,223.28,74.69Z"/><path class="cls-25" d="M221.22,77.9a2.54,2.54,0,0,1-3.51-1.24,2.63,2.63,0,0,0,2.14-.11c2-.48,1.31-7.49-1.93-11.48A7,7,0,0,1,219,66.12C222.5,70.05,223.28,77.4,221.22,77.9Z"/><path class="cls-24" d="M219.85,76.55a2.63,2.63,0,0,1-2.14.11,7.75,7.75,0,0,1-.77-2.31c-1-5.36-1.25-5.83-2.19-7.12-.83-1.13.51-4.13,3.17-2.16C221.16,69.06,221.86,76.07,219.85,76.55Z"/><path class="cls-28" d="M219.77,74.39a19.41,19.41,0,0,1,1.87,5.7"/><path class="cls-28" d="M222.85,69.61a44.87,44.87,0,0,1,1.37,12"/><path class="cls-21" d="M230.3,72.52c.87,4.35-2.52,4-3.8,3.68a2.68,2.68,0,0,1-1.08-.47,2.85,2.85,0,0,1-1-1.33,4.63,4.63,0,0,0,.43.24c1.2.56,4.42,1.66,4.51-2.78a8.45,8.45,0,0,1,2.07-4.68A8.81,8.81,0,0,0,230.3,72.52Z"/><path class="cls-20" d="M232.49,65.4c-.28.44-.65,1.06-1,1.78a8.45,8.45,0,0,0-2.07,4.68c-.09,4.44-3.31,3.34-4.51,2.78a4.63,4.63,0,0,1-.43-.24c-.91-2.58,1.06-7.05,3.74-10.11a10,10,0,0,1,.86-.86,4.7,4.7,0,0,1,2-1.13C232.8,61.92,233.66,63.57,232.49,65.4Z"/><path class="cls-28" d="M227.48,70.88a41,41,0,0,0-.5,8.93"/><polygon class="cls-9" points="250.19 81.95 248.68 89.47 246.2 89.47 247.87 81.95 250.19 81.95"/><path class="cls-9" d="M247.87,82l-1.67,7.52H214.59a.44.44,0,0,1-.44-.36L212.72,82Z"/><path class="cls-9" d="M252.36,79.74l-.4,2a.26.26,0,0,1-.25.22h-3.84l.56-2.52h3.68A.25.25,0,0,1,252.36,79.74Z"/><path class="cls-9" d="M248.43,79.43,247.87,82H211.19a.27.27,0,0,1-.26-.22l-.4-2a.26.26,0,0,1,.26-.31Z"/><polygon class="cls-14" points="250.19 81.95 248.68 89.47 246.2 89.47 247.87 81.95 250.19 81.95"/><path class="cls-14" d="M252.36,79.74l-.4,2a.26.26,0,0,1-.25.22h-2.62l.55-2.52h2.47A.25.25,0,0,1,252.36,79.74Z"/><line class="cls-29" x1="246.2" y1="89.47" x2="245.52" y2="92.56"/><line class="cls-29" x1="248.71" y1="78.19" x2="248.43" y2="79.43"/><path class="cls-27" d="M241.18,136s3.58,2.42,4-4.91a2.1,2.1,0,0,1-3.19,1c-2.4-.56-4.53-5.16-1.74-19.83C236.29,130,238.58,135.36,241.18,136Z"/><path class="cls-23" d="M242,132.09a2.1,2.1,0,0,0,3.19-1h0a32.54,32.54,0,0,0,0-3.27c-.59-11.27,0-12.2.21-15.12.5-7.45-3.62-7-4.84-1.67-.1.44-.2.86-.29,1.28C237.44,126.93,239.57,131.53,242,132.09Z"/><path class="cls-25" d="M245.1,135.57a3.11,3.11,0,0,0,4-2.21,3.23,3.23,0,0,1-2.61.3c-2.52-.19-3.09-8.8,0-14.28a8.23,8.23,0,0,0-1.14,1.5C242,126.33,242.51,135.38,245.1,135.57Z"/><path class="cls-24" d="M246.49,133.66a3.23,3.23,0,0,0,2.61-.3,9.6,9.6,0,0,0,.47-3c.18-6.69.34-7.3,1.22-9,.78-1.54-1.44-4.91-4.26-2C243.4,124.86,244,133.47,246.49,133.66Z"/><path class="cls-28" d="M246.16,131A23.67,23.67,0,0,0,245,138.3"/><path class="cls-28" d="M241.47,125.86a54.59,54.59,0,0,0,.76,14.82"/><path class="cls-21" d="M233,130.87c-.18,5.44,3.84,4.31,5.34,3.7a3.48,3.48,0,0,0,1.2-.79,3.39,3.39,0,0,0,.9-1.8,4,4,0,0,1-.47.37c-1.33.93-5,2.9-6-2.45a10.22,10.22,0,0,0-3.43-5.25C231.81,126.35,233.11,128.64,233,130.87Z"/><path class="cls-20" d="M229,122.7a25.1,25.1,0,0,1,1.59,2A10.22,10.22,0,0,1,234,129.9c1,5.35,4.69,3.38,6,2.45a4,4,0,0,0,.47-.37c.58-3.3-2.69-8.32-6.55-11.48a10,10,0,0,0-1.21-.87,5.55,5.55,0,0,0-2.64-1C227.89,118.55,227.19,120.72,229,122.7Z"/><path class="cls-28" d="M236.13,128.33A50.19,50.19,0,0,1,238.52,139"/><path class="cls-27" d="M223.1,135.64s2.57,2.42,3.86-3.43a1.71,1.71,0,0,1-2.7.42c-1.86-.77-3-4.76,1.23-16.19C220,130.2,221.09,134.8,223.1,135.64Z"/><path class="cls-23" d="M224.26,132.63a1.71,1.71,0,0,0,2.7-.42h0a25.15,25.15,0,0,0,.43-2.64c1-9.14,1.63-9.81,2.18-12.14,1.4-5.92-2-6.07-3.67-2-.14.34-.28.66-.41,1C221.3,127.87,222.4,131.86,224.26,132.63Z"/><path class="cls-25" d="M226.31,135.84a2.54,2.54,0,0,0,3.51-1.24,2.64,2.64,0,0,1-2.14-.11c-2-.49-1.31-7.49,1.94-11.48a6.61,6.61,0,0,0-1.12,1C225,128,224.26,135.34,226.31,135.84Z"/><path class="cls-24" d="M227.68,134.49a2.64,2.64,0,0,0,2.14.11,8,8,0,0,0,.78-2.31c1-5.36,1.24-5.83,2.18-7.12.83-1.13-.51-4.14-3.16-2.16C226.37,127,225.68,134,227.68,134.49Z"/><path class="cls-28" d="M227.77,132.33a19.41,19.41,0,0,0-1.87,5.7"/><path class="cls-28" d="M224.68,127.55a44.64,44.64,0,0,0-1.36,12"/><path class="cls-21" d="M217.23,130.46c-.86,4.35,2.52,4,3.81,3.68a2.7,2.7,0,0,0,1.07-.47,2.78,2.78,0,0,0,1-1.33,3,3,0,0,1-.43.24c-1.19.56-4.41,1.66-4.51-2.78a8.44,8.44,0,0,0-2.06-4.68A8.73,8.73,0,0,1,217.23,130.46Z"/><path class="cls-20" d="M215,123.34c.28.44.66,1,1,1.78a8.44,8.44,0,0,1,2.06,4.68c.1,4.44,3.32,3.34,4.51,2.78a3,3,0,0,0,.43-.24c.91-2.58-1-7.06-3.74-10.11a8.71,8.71,0,0,0-.86-.86,4.64,4.64,0,0,0-2-1.13C214.73,119.86,213.88,121.51,215,123.34Z"/><path class="cls-28" d="M220.06,128.82a41,41,0,0,1,.5,8.93"/><polygon class="cls-9" points="250.19 139.89 248.68 147.41 246.2 147.41 247.87 139.89 250.19 139.89"/><path class="cls-9" d="M247.87,139.89l-1.67,7.52H214.59a.44.44,0,0,1-.44-.36l-1.43-7.16Z"/><path class="cls-9" d="M252.36,137.68l-.4,2a.26.26,0,0,1-.25.22h-3.84l.56-2.52h3.68A.25.25,0,0,1,252.36,137.68Z"/><path class="cls-9" d="M248.43,137.37l-.56,2.52H211.19a.27.27,0,0,1-.26-.22l-.4-2a.26.26,0,0,1,.26-.31Z"/><polygon class="cls-14" points="250.19 139.89 248.68 147.41 246.2 147.41 247.87 139.89 250.19 139.89"/><path class="cls-14" d="M252.36,137.68l-.4,2a.26.26,0,0,1-.25.22h-2.62l.55-2.52h2.47A.25.25,0,0,1,252.36,137.68Z"/><line class="cls-29" x1="246.2" y1="147.41" x2="245.52" y2="150.5"/><line class="cls-29" x1="248.71" y1="136.13" x2="248.43" y2="137.37"/><circle class="cls-6" cx="406.77" cy="236.84" r="5.45"/><g class="cls-30"><path class="cls-16" d="M408.22,238.69l-.29.07-.34.06-.36,0h-.35a2.29,2.29,0,0,1-.73-.11,1.66,1.66,0,0,1-.54-.34,1.63,1.63,0,0,1-.33-.54,2,2,0,0,1-.12-.71,2.61,2.61,0,0,1,.1-.72,1.8,1.8,0,0,1,.29-.55,1.28,1.28,0,0,1,.46-.34,1.52,1.52,0,0,1,.62-.12,1.25,1.25,0,0,1,.35,0,1.45,1.45,0,0,1,.31.11V234.1l.93-.15Zm-2.11-1.56a1.15,1.15,0,0,0,.2.69.68.68,0,0,0,.57.26h.23l.18,0v-1.69a.69.69,0,0,0-.23-.09.9.9,0,0,0-.28,0C406.33,236.23,406.11,236.53,406.11,237.13Z"/></g><polygon class="cls-31" points="188.83 230.59 188.83 377.88 170.13 377.88 170.13 230.5 173.67 226.96 185.2 226.96 188.83 230.59"/><polygon class="cls-32" points="378.99 233.22 377.45 233.22 377.45 231.68 378.99 233.22"/><rect class="cls-33" x="278.35" y="63.87" width="74.96" height="74.63"/><path class="cls-20" d="M304.1,145.71c-1.39.8-3.33,3.19-4.17,9-.89,6.12-4.1,5.22-4.1,5.22l-.12,0c.84-.62,1.73-1.95,2.14-4.75.65-4.51,2-7,3.16-8.22a5.56,5.56,0,0,1,3.06-1.39A.08.08,0,0,1,304.1,145.71Z"/><path class="cls-21" d="M301,147c-1.2,1.26-2.51,3.71-3.16,8.22-.41,2.8-1.3,4.13-2.14,4.75-2.38-.89-1.11-5.15,1-8.28A19.47,19.47,0,0,1,301,147Z"/><path class="cls-22" d="M298,123.24c-.05,7.3-4.32,9.89-4,20.69.36,12.62,1.47,14.89,1.76,15.28a2.07,2.07,0,0,1-1.69.44s-1.41-.76-1.83-15.35c-.4-13.66,6.53-14.19,3-27.71,0-.16.09-.31.17-.18A18.87,18.87,0,0,1,298,123.24Z"/><path class="cls-23" d="M298,123.24c.78,4.38.33,9.39.89,17.36.54,7.61-.39,16.48-3.13,18.61-.29-.39-1.4-2.66-1.76-15.28C293.72,133.13,298,130.54,298,123.24Z"/><path class="cls-23" d="M295.89,161h0a4.17,4.17,0,0,1-4.63-.48,4.13,4.13,0,0,0,1.52-.48h0c.19-.11,6.12-3.71-1.76-14.22-4-5.34-6.11-9.7-7.07-13.11h0c.49-3.06,1.38-5.21,2.3-6.13a.22.22,0,0,1,.37.21c-.82,3.38,0,10,7.51,20C302,157.29,296.09,160.9,295.89,161Z"/><path class="cls-22" d="M292.69,159.54h0a4.33,4.33,0,0,1-1.52.48c-3.12-2.24-5.68-8-6.78-13.55a41.16,41.16,0,0,1-.51-14.28c1,3.42,3.06,7.77,7.07,13.11C298.81,155.82,292.88,159.43,292.69,159.54Z"/><path class="cls-21" d="M292.24,161.4s-4.66,1.52-6.53-7.14c2.16,4.61,5.38,3.56,5.38,3.56,1.81-.64,2.27-2.45,1.89-4.68C294.64,156.84,295,160.43,292.24,161.4Z"/><path class="cls-20" d="M293,153.14c.38,2.23-.08,4-1.89,4.68,0,0-3.22,1.05-5.38-3.56l-.12-.63a38.45,38.45,0,0,0-1.83-6.61c-1.64-4.22-3.65-6.21-5.19-7a.12.12,0,0,1,0-.23,5.19,5.19,0,0,1,2.56.65,26.19,26.19,0,0,1,9.18,8.21A24.36,24.36,0,0,1,293,153.14Z"/><path class="cls-24" d="M297.13,142.75c-.51,2.58-1.75,5.52-2.94,10-1.14,4.32-.63,6.75.23,8.13l-.28,0s-5.09-.67-2.64-9.88c2.37-8.93,4.94-11.72,1.54-17.87a.1.1,0,0,1,.16-.13C296.38,136.05,296.68,138.65,297.13,142.75Z"/><path class="cls-25" d="M297.13,142.75c.18,1.64.39,3.53.82,5.78,1.07,5.66.3,12.42-3.53,12.34-.86-1.38-1.37-3.81-.23-8.13C295.38,148.27,296.62,145.33,297.13,142.75Z"/><path class="cls-24" d="M293.22,161.54a3,3,0,0,1-2.52-2.15,2.63,2.63,0,0,0,1,.3c3.11.1,3.41-4.54,2.29-8.32A19,19,0,0,0,291.5,146a16.8,16.8,0,0,1,4,7.19C296.63,157,296.33,161.63,293.22,161.54Z"/><path class="cls-26" d="M291.69,159.69a2.63,2.63,0,0,1-1-.3,7.85,7.85,0,0,1,0-4.26c1.34-5.92.14-8.87-1.08-10.11-.06-.06,0-.15.1-.13A4.13,4.13,0,0,1,291.5,146a19,19,0,0,1,2.48,5.34C295.1,155.15,294.8,159.79,291.69,159.69Z"/><path class="cls-20" d="M300.28,150.74c1.72.56,4.41,2.76,6.69,9,2.39,6.55,5.73,4.83,5.73,4.83l.12-.08c-1.08-.49-2.36-1.76-3.46-4.75-1.76-4.83-3.77-7.24-5.38-8.35a6.28,6.28,0,0,0-3.7-.83A.09.09,0,0,0,300.28,150.74Z"/><path class="cls-21" d="M304,151.4c1.61,1.11,3.62,3.52,5.38,8.35,1.1,3,2.38,4.26,3.46,4.75,2.42-1.53,0-5.95-3-8.92A21.79,21.79,0,0,0,304,151.4Z"/><path class="cls-22" d="M301.8,124.52c1.74,8,7.05,9.93,9.19,21.94,2.5,14,1.8,16.79,1.57,17.28a2.38,2.38,0,0,0,2,.1s1.38-1.17-1.51-17.38c-2.71-15.18-10.48-14.17-9.69-29.92,0-.18-.18-.32-.23-.16A21.38,21.38,0,0,0,301.8,124.52Z"/><path class="cls-23" d="M301.8,124.52c.16,5,1.8,10.45,3,19.38,1.16,8.53,4.22,18.11,7.74,19.84.23-.49.93-3.26-1.57-17.28C308.85,134.45,303.54,132.57,301.8,124.52Z"/><path class="cls-23" d="M312.87,165.75h0a4.67,4.67,0,0,0,5-1.59,4.62,4.62,0,0,1-1.78-.18h0c-.25-.08-7.62-2.7-1.33-16.12,3.19-6.82,4.51-12.11,4.79-16.11h0c-1.25-3.27-2.72-5.44-4-6.25a.25.25,0,0,0-.36.32c1.69,3.54,2.32,11-3.69,23.81C305.25,163.05,312.62,165.67,312.87,165.75Z"/><path class="cls-22" d="M316.07,163.39h0a4.88,4.88,0,0,0,1.79.18c2.93-3.19,4.43-10.15,4.37-16.52a46.5,46.5,0,0,0-2.72-15.89c-.28,4-1.6,9.29-4.79,16.11C308.46,160.69,315.83,163.3,316.07,163.39Z"/><path class="cls-21" d="M317,165.34s5.49.6,5.56-9.39c-1.32,5.59-5.12,5.17-5.12,5.17-2.15-.29-3.08-2.19-3.17-4.74C313.29,160.85,313.77,164.89,317,165.34Z"/><path class="cls-20" d="M314.27,156.38c.09,2.55,1,4.45,3.17,4.74,0,0,3.8.42,5.12-5.17,0-.23,0-.48,0-.72a42.46,42.46,0,0,1,.5-7.73c.85-5,2.6-7.69,4.12-8.93a.14.14,0,0,0-.1-.25,5.92,5.92,0,0,0-2.68,1.31c-2.47,1.84-5.7,5.63-8.24,11.18A27.48,27.48,0,0,0,314.27,156.38Z"/><path class="cls-24" d="M307.3,145.86c1.16,2.74,3.2,5.69,5.55,10.36,2.25,4.51,2.25,7.31,1.61,9l.31-.09s5.46-1.92.65-11.52c-4.68-9.32-8.16-11.81-5.82-19.39a.11.11,0,0,0-.2-.1C306.58,138.29,306.85,141.24,307.3,145.86Z"/><path class="cls-25" d="M307.3,145.86c.18,1.86.38,4,.43,6.58.11,6.5,2.52,13.79,6.73,12.82.64-1.73.64-4.53-1.61-9C310.5,151.55,308.46,148.6,307.3,145.86Z"/><path class="cls-24" d="M315.94,165.72a3.39,3.39,0,0,0,2.29-2.95,3,3,0,0,1-1,.56c-3.42.81-4.81-4.23-4.45-8.67a21.16,21.16,0,0,1,1.52-6.47,18.91,18.91,0,0,0-2.78,8.86C311.13,161.48,312.53,166.53,315.94,165.72Z"/><path class="cls-26" d="M317.21,163.33a3,3,0,0,0,1-.56,8.89,8.89,0,0,0-1-4.7c-2.85-6.23-2.2-9.77-1.14-11.42.05-.07,0-.16-.14-.12a4.65,4.65,0,0,0-1.65,1.66,21.16,21.16,0,0,0-1.52,6.47C312.4,159.1,313.79,164.14,317.21,163.33Z"/><path class="cls-20" d="M347.11,146.68c-1.56.35-4.12,2.06-6.66,7.39-2.65,5.58-5.45,3.78-5.45,3.78l-.11-.08c1-.34,2.24-1.35,3.45-3.9,2-4.11,3.94-6.07,5.45-6.92a5.48,5.48,0,0,1,3.33-.42C347.19,146.55,347.18,146.66,347.11,146.68Z"/><path class="cls-21" d="M343.79,147c-1.51.85-3.49,2.81-5.45,6.92-1.21,2.55-2.45,3.56-3.45,3.9-2-1.55.47-5.25,3.4-7.61A19.34,19.34,0,0,1,343.79,147Z"/><path class="cls-22" d="M348,123.42c-2.2,7-7,8.17-9.93,18.58-3.39,12.17-3,14.67-2.84,15.12a2.1,2.1,0,0,1-1.75-.07s-1.12-1.15,2.79-15.22c3.66-13.16,10.43-11.62,11.06-25.58,0-.16.18-.27.21-.12A18.7,18.7,0,0,1,348,123.42Z"/><path class="cls-23" d="M348,123.42c-.55,4.42-2.45,9.07-4.28,16.85-1.74,7.43-5.24,15.62-8.49,16.85-.16-.45-.55-3,2.84-15.12C340.92,131.59,345.76,130.38,348,123.42Z"/><path class="cls-23" d="M334.75,158.87h0a4.15,4.15,0,0,1-4.29-1.82,4.11,4.11,0,0,0,1.6,0h0c.23,0,6.95-1.75,2.53-14.11-2.25-6.29-3-11.07-2.88-14.62h0c1.38-2.78,2.86-4.57,4-5.18a.21.21,0,0,1,.28.31c-1.78,3-3,9.5,1.26,21.32C341.7,157.13,335,158.82,334.75,158.87Z"/><path class="cls-22" d="M332.12,156.52h0a4.26,4.26,0,0,1-1.59,0c-2.32-3.06-3.06-9.33-2.48-14.95a41.51,41.51,0,0,1,3.73-13.79c-.08,3.55.64,8.33,2.88,14.62C339.06,154.77,332.34,156.47,332.12,156.52Z"/><path class="cls-21" d="M331.14,158.16s-4.9.08-4.12-8.75c.7,5,4.08,5,4.08,5,1.92-.08,2.9-1.68,3.19-3.92C334.78,154.51,334,158,331.14,158.16Z"/><path class="cls-20" d="M334.29,150.49c-.29,2.24-1.27,3.84-3.19,3.92,0,0-3.38,0-4.08-5,0-.2,0-.42.06-.64a37.53,37.53,0,0,0,.21-6.86c-.32-4.51-1.65-7-2.88-8.22a.12.12,0,0,1,.1-.21,5.22,5.22,0,0,1,2.26,1.38,26.28,26.28,0,0,1,6.34,10.56A25.34,25.34,0,0,1,334.29,150.49Z"/><path class="cls-24" d="M341.33,141.79c-1.26,2.32-3.31,4.75-5.76,8.67s-2.61,6.27-2.19,7.84l-.26-.1s-4.66-2.15.39-10.22c4.91-7.83,8.19-9.73,6.76-16.62a.1.1,0,0,1,.19-.07C342.59,135.17,342.11,137.74,341.33,141.79Z"/><path class="cls-25" d="M341.33,141.79c-.32,1.62-.68,3.49-.93,5.77-.65,5.72-3.39,11.95-7,10.74-.42-1.57-.18-4.05,2.19-7.84S340.07,144.11,341.33,141.79Z"/><path class="cls-24" d="M332,158.58a3,3,0,0,1-1.77-2.79,2.78,2.78,0,0,0,.85.58c2.94,1,4.6-3.33,4.65-7.27a19.16,19.16,0,0,0-.79-5.85,17,17,0,0,1,1.71,8.06C336.63,155.25,335,159.59,332,158.58Z"/><path class="cls-26" d="M331.12,156.37a2.78,2.78,0,0,1-.85-.58,7.88,7.88,0,0,1,1.29-4.06c3-5.26,2.76-8.44,2-10,0-.07.05-.14.13-.1a4.27,4.27,0,0,1,1.33,1.6,19.16,19.16,0,0,1,.79,5.85C335.72,153,334.06,157.38,331.12,156.37Z"/><rect class="cls-6" x="289.65" y="170.43" width="6.62" height="4.01"/><rect class="cls-6" x="311.95" y="170.43" width="6.62" height="4.01"/><rect class="cls-6" x="334.26" y="170.43" width="6.62" height="4.01"/><path class="cls-9" d="M352.35,157.58v12.09a.76.76,0,0,1-.76.76H278.94a.76.76,0,0,1-.76-.76V157.58Z"/><path class="cls-9" d="M354.51,154.61H276.1l.53-1a.69.69,0,0,1,.6-.36h76.15a.66.66,0,0,1,.6.36C354.12,153.84,354.3,154.2,354.51,154.61Z"/><path class="cls-9" d="M354.89,157.58H275.72a.68.68,0,0,1-.62-1c.29-.59.68-1.34,1-2h78.41c.33.65.71,1.4,1,2A.68.68,0,0,1,354.89,157.58Z"/><path class="cls-14" d="M354.51,154.61H276.1l.53-1a.69.69,0,0,1,.6-.36h76.15a.66.66,0,0,1,.6.36C354.12,153.84,354.3,154.2,354.51,154.61Z"/><polygon class="cls-6" points="353.14 118.72 353.14 123.56 316.35 123.56 316.35 138.51 314.27 138.51 314.27 123.56 278.51 123.56 278.51 118.72 314.27 118.72 314.27 63.89 316.35 63.89 316.35 118.72 353.14 118.72"/><path class="cls-14" d="M468,200v2.91a2.4,2.4,0,0,1-2.39,2.4H166a2.4,2.4,0,0,1-2.39-2.4V200Z"/><rect class="cls-14" x="188.84" y="29.31" width="250.76" height="6.75"/><path class="cls-6" d="M397.63,37.66v77.2a4,4,0,0,1-1.84-3.38v-12H394.3v-5.2h1.49V66.49H394.3v-5.2h1.49V37.66Z"/><path class="cls-6" d="M403.86,31.91V61.29h1.49v5.2h-1.49V94.27h1.49v5.2h-1.49v12a4,4,0,0,1-6.23,3.38V37.66h-1.84V31.91H394.3v-5.2h1.49V20.89h8.07v5.82h1.49v5.2Z"/><path class="cls-6" d="M445.87,29.31H182.56A1.83,1.83,0,0,1,181,26.53l13.43-22A1.86,1.86,0,0,1,196,3.65H432.44a1.83,1.83,0,0,1,1.56.88l13.43,22A1.83,1.83,0,0,1,445.87,29.31Z"/><path class="cls-14" d="M395.79,31.88v5.83h0V61.29H394.3v5.2h1.49V94.27H394.3v5.2h1.49v12a4,4,0,0,0,1.84,3.38v-83Z"/><polygon class="cls-34" points="542.79 397.02 3.61 397.02 173.67 226.96 185.2 226.96 273.2 314.96 355.53 232.63 361.2 226.96 372.73 226.96 439.6 293.83 439.6 377.88 461.51 377.88 461.51 315.74 542.79 397.02"/><polygon class="cls-35" points="372.73 226.95 366.97 226.95 361.21 226.95 273.21 314.95 185.21 226.95 179.44 226.95 173.68 226.95 3.62 397.01 127 397.01 191.15 397.01 231.88 397.01 314.53 397.01 355.27 397.01 419.41 397.01 542.8 397.01 372.73 226.95"/></svg>