<svg id="Capa_1" data-name="Capa 1" xmlns="http://www.w3.org/2000/svg" xmlns:xlink="http://www.w3.org/1999/xlink" viewBox="0 0 562.57 387.85"><defs><style>.cls-1,.cls-12{fill:#ffd60a;}.cls-2{fill:#ffc300;}.cls-3{fill:#1c1e3a;}.cls-4{fill:#282a54;}.cls-16,.cls-28,.cls-29,.cls-5,.cls-9{fill:none;}.cls-5{stroke:#282a54;}.cls-16,.cls-28,.cls-5,.cls-9{stroke-miterlimit:10;}.cls-6{fill:#3b4c7b;}.cls-18,.cls-30,.cls-31,.cls-32,.cls-7{opacity:0.5;}.cls-7{fill:url(#Degradado_sin_nombre_26);}.cls-8{fill:#d7f7ff;}.cls-16,.cls-9{stroke:#1f1f3f;}.cls-9{stroke-width:2px;}.cls-10{fill:#370617;}.cls-11{fill:#6d0c34;}.cls-12,.cls-13{opacity:0.3;}.cls-14,.cls-18{fill:#fff;}.cls-15{fill:#333865;}.cls-17{fill:#4e68a0;}.cls-19{fill:#ff5938;}.cls-20{fill:#7fc296;}.cls-21{fill:#435c62;}.cls-22{fill:#324c3a;}.cls-23{fill:#598869;}.cls-24{fill:#dfe2dd;}.cls-25{fill:#c1c1c1;}.cls-26{fill:#f5f1ef;}.cls-27{fill:#324649;}.cls-28{stroke:#604242;}.cls-31{fill:url(#Degradado_sin_nombre_26-2);}.cls-32{fill:url(#Degradado_sin_nombre_28);}</style><linearGradient id="Degradado_sin_nombre_26" x1="460.24" y1="392.53" x2="460.24" y2="240.04" gradientUnits="userSpaceOnUse"><stop offset="0" stop-color="#ffd60a" stop-opacity="0"/><stop offset="0.14" stop-color="#ffd50a" stop-opacity="0.02"/><stop offset="0.34" stop-color="#ffd208" stop-opacity="0.1"/><stop offset="0.57" stop-color="#ffce06" stop-opacity="0.21"/><stop offset="0.82" stop-color="#ffc803" stop-opacity="0.37"/><stop offset="1" stop-color="#ffc300" stop-opacity="0.5"/></linearGradient><linearGradient id="Degradado_sin_nombre_26-2" x1="267.7" y1="388.96" x2="267.7" y2="236.47" xlink:href="#Degradado_sin_nombre_26"/><linearGradient id="Degradado_sin_nombre_28" x1="310.33" y1="45.7" x2="310.33" y2="136.83" gradientUnits="userSpaceOnUse"><stop offset="0" stop-color="#ffd60a" stop-opacity="0"/><stop offset="0.15" stop-color="#ffd208" stop-opacity="0.21"/><stop offset="0.35" stop-color="#ffcd05" stop-opacity="0.49"/><stop offset="0.54" stop-color="#ffc903" stop-opacity="0.71"/><stop offset="0.69" stop-color="#ffc601" stop-opacity="0.87"/><stop offset="0.82" stop-color="#ffc400" stop-opacity="0.96"/><stop offset="0.89" stop-color="#ffc300"/></linearGradient></defs><polygon class="cls-1" points="465.15 226.52 464.05 238.51 454.62 238.51 453.51 226.52 465.15 226.52"/><circle class="cls-2" cx="459.36" cy="231.88" r="2.43"/><path class="cls-3" d="M467.39,225.23H451.27a.23.23,0,0,1-.18-.38l3-3.86a.24.24,0,0,1,.18-.09h10.11a.24.24,0,0,1,.18.09l3,3.86A.24.24,0,0,1,467.39,225.23Z"/><path class="cls-3" d="M460.91,220.21h-3.28a.1.1,0,0,1-.09-.14l.32-.69.15-.33.18-.4h.09a1,1,0,0,1-.07-.39,1.07,1.07,0,1,1,2.13,0,1.23,1.23,0,0,1-.07.39h.09l.18.4.15.33.31.69A.1.1,0,0,1,460.91,220.21Z"/><path class="cls-4" d="M460.24,241.26v1.16a1.18,1.18,0,0,0-1.77,0v-1.16Z"/><line class="cls-5" x1="456.84" y1="226.52" x2="457.43" y2="232.98"/><polygon class="cls-6" points="465.76 225.23 465.64 226.52 452.91 226.52 452.8 225.23 465.76 225.23"/><line class="cls-5" x1="460.76" y1="238.51" x2="461.53" y2="230.24"/><path class="cls-6" d="M460.6,243.39a1.25,1.25,0,1,1-2.49,0,1.46,1.46,0,0,1,.36-1,1.18,1.18,0,0,1,1.77,0A1.46,1.46,0,0,1,460.6,243.39Z"/><path class="cls-6" d="M464.54,238.76l-.08.92a.25.25,0,0,1-.24.21h-9.81a.23.23,0,0,1-.23-.21l-.09-.92a.24.24,0,0,1,.24-.25h10A.24.24,0,0,1,464.54,238.76Z"/><path class="cls-4" d="M461.21,240.09l-.65,1.11a.13.13,0,0,1-.11.06h-2.19a.11.11,0,0,1-.11-.06l-.65-1.11a.13.13,0,0,1,.12-.2h3.47A.13.13,0,0,1,461.21,240.09Z"/><rect class="cls-3" x="457.86" y="220.21" width="2.83" height="0.7"/><polygon class="cls-7" points="545.92 400.12 374.56 400.12 414.55 318.06 457.43 230.06 463.05 230.06 545.92 400.12"/><rect class="cls-8" x="310.85" y="63.43" width="36.79" height="54.82"/><rect class="cls-8" x="273.01" y="63.43" width="35.75" height="54.82"/><rect class="cls-8" x="273.01" y="123.1" width="35.75" height="14.95"/><rect class="cls-8" x="310.85" y="123.1" width="36.79" height="14.95"/><line class="cls-9" x1="449.21" y1="100.43" x2="432.65" y2="116.99"/><rect class="cls-8" x="268.77" y="237.33" width="81.27" height="69.2"/><polygon class="cls-10" points="490.61 358.49 472.4 376.7 469.95 376.7 488.16 358.49 490.61 358.49"/><polygon class="cls-11" points="469.95 358.49 488.16 376.7 490.61 376.7 472.4 358.49 469.95 358.49"/><rect class="cls-10" x="467.34" y="355.82" width="25.92" height="3.52" rx="0.54"/><polygon class="cls-10" points="543.26 358.49 525.05 376.7 522.6 376.7 540.81 358.49 543.26 358.49"/><polygon class="cls-11" points="522.6 358.49 540.81 376.7 543.26 376.7 525.05 358.49 522.6 358.49"/><rect class="cls-10" x="520" y="355.82" width="25.92" height="3.52" rx="0.54"/><polygon class="cls-10" points="527.57 339.71 490.58 376.7 485.6 376.7 522.59 339.71 527.57 339.71"/><polygon class="cls-10" points="495.76 344.89 490.77 344.89 485.59 339.71 490.58 339.71 495.76 344.89"/><polygon class="cls-11" points="527.57 376.7 522.59 376.7 490.77 344.89 495.76 344.89 527.57 376.7"/><circle class="cls-10" cx="506.58" cy="358.2" r="0.54"/><rect class="cls-10" x="480.3" y="334.29" width="52.65" height="7.15" rx="0.47"/><path class="cls-4" d="M538.1,330.66l-1.48,1.48h-8.87a.47.47,0,0,0-.46.46v53.15h-1.4a.48.48,0,0,1-.47-.47V331.14a.47.47,0,0,1,.47-.48Z"/><path class="cls-4" d="M561.12,331.14v54.14a.48.48,0,0,1-.48.47h-3.39a.48.48,0,0,1-.47-.47V377a.48.48,0,0,0-.48-.48H530.41a.48.48,0,0,0-.48.48v8.24a.48.48,0,0,1-.48.47h-2.16V332.6a.47.47,0,0,1,.46-.46h8.87l1.48-1.48h22.54A.48.48,0,0,1,561.12,331.14Z"/><rect class="cls-6" x="529.93" y="334.8" width="26.85" height="37.38" rx="1.44"/><path class="cls-12" d="M538.1,330.66l-1.48,1.48h-8.87a.47.47,0,0,0-.46.46v53.15h-1.4a.48.48,0,0,1-.47-.47V331.14a.47.47,0,0,1,.47-.48Z"/><g class="cls-13"><path class="cls-14" d="M553.88,342.83h0Z"/><path class="cls-14" d="M554,342.84Z"/><path class="cls-14" d="M536.93,340.7h0Z"/><path class="cls-14" d="M537.48,343.05Z"/><path class="cls-14" d="M553.1,342.88h0Z"/><path class="cls-14" d="M536,340.55h0Z"/><path class="cls-14" d="M550.62,343h0Z"/><path class="cls-14" d="M538.31,342.89l0,0Z"/><path class="cls-14" d="M553.54,342.85h0Z"/><path class="cls-14" d="M540.36,342.23l0,0h0l0,.05Z"/><path class="cls-14" d="M554,342.89l.2,0a1.48,1.48,0,0,0-.21,0s0,0,.08,0h-.21a.42.42,0,0,0,.14,0l-.24,0s-.22,0-.17,0h-.15l.18,0c.25,0,0,0,.06,0l.19,0s.07,0-.05,0a1.06,1.06,0,0,1,.27,0H554s.14,0,0,0c0,0-.08,0,0,0s-.23,0-.16,0l-.28,0h.08l-.21,0h.06c-.16,0-.26,0-.39,0a1.3,1.3,0,0,1,.21,0c-.08,0,0,0-.19,0s0,0,0,0l-.11,0s0,0,0,0c-.17,0,0,0-.23,0a1.66,1.66,0,0,0,.24,0c.08,0-.14,0-.17,0a1.22,1.22,0,0,0-.27,0c.08,0,0,0,.14,0s0,0-.06,0,0,0-.09,0h0l-.18,0a4.9,4.9,0,0,1-.5,0l0,0-.33,0,.16,0a3.08,3.08,0,0,0-.48,0h.2c-.13,0-.15,0-.31,0,0,0,0,0,0,0l-.25,0s0,0,.19,0,.26,0,.36,0h-.06l.3,0h0l.05,0h-.06l.2,0a.76.76,0,0,0-.27.06,1.79,1.79,0,0,0-.33,0s-.1,0,0,0,.15,0,.16,0h-.2a1.19,1.19,0,0,1-.23,0l-.33,0c.11,0,.21,0,.19,0s-.21,0-.18,0a1.3,1.3,0,0,1-.35,0h.33s0,0,0,0h-.19v0c-.1,0-.31,0-.5,0h0c-.16,0-.17,0-.33.05,0,0,0,0,0,0h-.21c.1,0-.07,0,0,0s-.17,0-.26,0,.27,0,.14,0-.11,0,0,0h-.36l-.26,0a.7.7,0,0,1,.16,0l-.1,0h-.32l.1,0h0s.16,0,.14,0-.15,0-.26,0h0a2.77,2.77,0,0,0-.46,0s.11,0,.08,0h-.33s0,0-.08,0,.08,0-.06,0l-.18,0h0c-.27,0-.47,0-.76.06a1.35,1.35,0,0,1,.27,0c-.08,0-.21,0-.33,0s-.19,0-.18,0-.09,0-.11,0a1.37,1.37,0,0,1-.33,0h0l-.17,0s0,0,0,0h0c.17,0,.38,0,.55,0,0,0,0,0,0,0h-.06s-.1,0,0,0a1.12,1.12,0,0,1-.31,0c-.1,0,.1,0,.16,0l-.16,0v0c-.17,0,0,0-.08,0a.74.74,0,0,1-.21,0h0l-.29,0h-.06a1.35,1.35,0,0,0,.27,0c-.21,0,.06,0,.13-.05a1.05,1.05,0,0,1-.24,0c-.14,0-.3,0-.43,0s.06,0,0,0l-.45,0c-.08,0-.07,0-.09,0-.38,0-.53.06-1,.07h.06a.62.62,0,0,0-.21,0c-.11,0-.37,0-.51,0s-.2,0-.34,0,0,0,0,0l-.35,0h-.69a2.11,2.11,0,0,1-.35-.05h0l-.11,0,0,0-.06,0,0,0,0,0,0,0,0,0a.08.08,0,0,1,0,0l0,0,0,0v0h0V343a.09.09,0,0,1,0-.05v-.1a.38.38,0,0,1,0-.12s0-.07,0,0,0,.08,0,.07v-.22a.2.2,0,0,0,0-.09s0,0,0,0v.1s0,0,0,0a.62.62,0,0,0-.12-.26.39.39,0,0,0-.08-.1l0,0,0,0L540,342h.06l0,0h0l.11.06h0l0,0,0,0s0,0,0,0l-.06-.06a.67.67,0,0,0-.14-.09L540,342l-.07,0h-.06s0,0,0,0h0a.47.47,0,0,0-.12,0h-.13l0,0c-.06,0,0,0,0,0l-.25,0h-.13l-.07,0-.07,0,0,0h0l0,0a.15.15,0,0,1-.06,0l0,0a2.27,2.27,0,0,0-.32.22l-.29.22-.19.16-.08.06-.08.06.09-.06s0,0,0,0a.22.22,0,0,1-.07.06l-.08.05-.07,0h0l0,0h0l0,0-.05,0h0l-.13,0-.13,0-.17,0h-.27l-.13,0h-.06l-.07,0h0l0,0,0,0h0a.22.22,0,0,1-.09-.1.09.09,0,0,1,0-.07l0,0v-.09a.16.16,0,0,0,0-.07h0v.13s0,0,0,.07a.36.36,0,0,1,0-.11.5.5,0,0,1,0-.16,1.4,1.4,0,0,1,.09-.17c0-.06.09-.11.13-.16l.24-.26a1.26,1.26,0,0,0,.18-.21v0a1.63,1.63,0,0,0,.23-.29.87.87,0,0,0,.1-.24.85.85,0,0,0,0-.26.56.56,0,0,0,0-.12l0,0,0-.05a.71.71,0,0,0-.15-.15h0l0,0-.23-.1-.28-.07a1.44,1.44,0,0,0-.46,0c-.07,0-.06,0,0,0h.08a.57.57,0,0,0-.18,0h-.18s.14,0,.08,0l-.18,0-.07,0-.18,0h0s-.07,0-.11,0h0l-.23.05-.23.06-.24.07-.24.07a6.26,6.26,0,0,0-.91.4l.1-.06-.15.08-.12.07h0l-.1,0,0,0,0,0a.41.41,0,0,1-.12.08h0l-.07,0,0,0-.11.07-.05,0,0,0-.11.09,0,0h0l0,0-.05,0-.09.06,0,.05,0,0,0,0,0,0s-.06.08-.11.13a.41.41,0,0,0,.19-.11l.06-.05,0,0a.61.61,0,0,0,.12-.09.45.45,0,0,1,.13-.1l0,0,0,0h0l.08-.06c-.06.05.13-.1,0,0l.06,0,.09-.06.1-.07.09-.05s0,0,0,0a.3.3,0,0,1,.11-.07h.05l0,0h0l.09,0s-.09,0-.07,0l.14-.08-.06,0,.06,0,0,0h0l-.06,0,0,0c.14-.07,0,0,.08,0l.06,0A.46.46,0,0,0,534,341s0,0-.07.05l.11,0h0l0,0,.1,0,.06,0,.07,0,0,0,.22-.08c.09,0,0,0,.16,0,0,0,0,0,.07,0s.1,0,.1,0l.11,0s0,0,0,0,0,0,.12,0,0,0,.09,0l0,0h.08l.14,0s-.06,0-.07,0l.09,0h.77s.06,0,.11,0h0l.13,0,.11,0h.07a0,0,0,0,1,0,0l.13.05s.08,0,.06,0l0,0h0l0,0h0l.06,0h0l0,0s0,0,0,0l.14.09,0,0h0s0,0,0,0l0,0H537l0,0h0l.1.05h0l0,0h0l0,0,0,0,0,0,0,0a0,0,0,0,0,0,0h0v0a.1.1,0,0,0,0,0,0,0,0,0,1,0,0h0s0,0,0,0a.17.17,0,0,1,0,.12l0,.1s0,0,0,0h0v0a.22.22,0,0,1,0,.08,0,0,0,0,1,0,0s0,0,0,0a.83.83,0,0,1-.11.15l-.12.13c-.08.09-.17.16-.25.26l.09-.08,0,0c.07-.06,0,0,0,.07s-.12.12-.08.07l-.1.12s.09-.09,0,0l-.08.08s0,0,0,0l-.08.1,0,0,0,.05v0l.05-.1-.05.06s0,0,0,0a.57.57,0,0,0-.08.13l0-.07-.07.13s0,.09,0,.13v.05a.13.13,0,0,1,0,.06v.13l0,.12a.43.43,0,0,0,0,0l0,0v0a.6.6,0,0,0,.11.14l0,0,.1.08,0,0,0,0,0,0h0l0,0h0l0,0h0l.19,0s.06,0,0,0h.14l.15,0,.17,0-.2,0a.38.38,0,0,0,.14,0l.2,0a1.81,1.81,0,0,0,.2-.1h0l0,0,.06,0L538,343s0,0,0-.08l.07,0,.07,0,.06-.05s.15-.09,0,0a.52.52,0,0,0-.12.07,1.15,1.15,0,0,0,.23-.14l-.1.09s0,0,0,0,.05,0,0,0l.07-.06,0,0a1.31,1.31,0,0,0,.16-.13l.09-.07.08-.06s0,0,0,0l.08-.05,0,0,0,0,.05,0,.07,0v0h0l0,0,.11-.05.12,0h0l-.07,0-.05,0a1.34,1.34,0,0,1,.27-.07c.08,0,0,0-.12,0l.17,0,.12,0h0s0,0,0,0h0a.55.55,0,0,0-.17,0h0l-.15,0-.12.06.12,0,.12,0,.2,0a1,1,0,0,1,.3,0l0,0h0l0,0,0,0a.38.38,0,0,1,.13.06s0,0,.06,0h0l0,0s0,0,0,0a.31.31,0,0,1-.06-.06l0,0h0l0,0,0,0h0s0,0,0,0a.67.67,0,0,1,0,.07.19.19,0,0,0-.06-.07l-.11-.09,0,0a.17.17,0,0,1,.06.06s0,0,0,0h0v0l.06.09a.53.53,0,0,1,0,.12.77.77,0,0,1,0,.15,1.09,1.09,0,0,0,0,.18,0,0,0,0,1,0,0s0,0,0,0,0-.08,0-.12,0-.14,0-.11v.19a.47.47,0,0,0,0,.2v0a0,0,0,0,1,0,0l0,.07a.15.15,0,0,0,0,.07v.05h0v0l0,0h0l0,0,0,.06.05.06,0,.05h0l0,0,0,0h0l.18.09a1,1,0,0,0,.23.06l-.08,0a.5.5,0,0,1-.13,0l-.07,0s0,0,0,0l.06,0,.06,0h.06l.06,0,.26,0-.06,0,.24,0c.09,0,.06,0,0,0s-.09,0,0,0h-.21l.11,0a2,2,0,0,1,.26,0h0l0,0a1.91,1.91,0,0,1-.24,0h.35s0,0-.06,0h.26c-.06,0-.17,0-.08,0h.11c.08,0,0,0,.1,0h0a.65.65,0,0,0,.2,0c-.12,0-.12,0,0,0a3.11,3.11,0,0,1,.4,0h.08s.1,0,.16,0-.26,0-.25,0,.06,0,0,0c.12,0,0,0,.1,0s.2,0,.13,0l.19,0s0,0,0,0h.07s.21,0,.2,0,.19,0,.28,0-.17,0-.2,0,.41,0,.61-.05,0,0,0,0l-.34,0,.51,0c.16,0,.18,0,.38,0h.09s-.09,0,0,0h.07c.19,0,.14,0,.3,0h-.09s.07,0,.15,0h.12s-.14,0-.16,0h.11l.16,0c-.11,0,0,0,0,0s.23,0,.21,0a1,1,0,0,1,.25,0c-.11,0,0,0,0,0h.16c-.17,0,0,0,0,0l-.24,0c.18,0,.25,0,.4,0s0,0-.08,0l.24,0s-.09,0,0,0h.14c.15,0,0,0,.17,0h-.08l.18,0h-.21s.1,0,.15,0h.27s-.21,0-.18.07l.52,0c.15,0,.13,0,.11,0h.06l.49,0c.11,0,.06,0,0,0h.1l.22,0-.05,0,.24,0-.13,0h0l-.14,0a.6.6,0,0,1,.26,0c.16,0-.14,0,.06,0s.48,0,.63,0,.26,0,.44-.05c0,0,.12,0,.11,0-.18,0-.33,0-.48,0s0,0-.08,0h-.15c.16,0,0,0,.25,0h-.32l.23,0s0,0,0,0l.22,0c.07,0,.08,0,.05,0h.32c.16,0,0,0-.06,0h-.15s.18,0,.21,0,.23,0,.34,0l-.13,0H550l-.17,0,.49,0s.06,0,0,0c.16,0,.25,0,.38,0s-.14,0,0,0h-.14c.08,0,.07,0,.09,0h-.13s.16,0,.22,0,0,0-.05,0l.38,0c.06,0,0,0-.08,0s.12,0,.14,0H551l.34,0h-.14a.74.74,0,0,0,.29,0c.12,0,.25,0,.21,0s0,0,0,0,.17,0,.26,0h-.07c.15,0,0,0,.17,0,0,0,0,0,0,0s.11,0,.16,0,.13,0,0,0a2.19,2.19,0,0,0,.29,0c-.06,0,.12,0,.06,0,.13,0,.22,0,.19,0s-.12,0-.11,0h.37c.08,0,.22,0,.28,0a.46.46,0,0,1-.17,0h0l.1,0c-.09,0,0,0-.15,0s.27,0,.14-.05-.08,0-.16,0h0l-.19,0s0,0,0,0c-.23,0-.27,0-.51,0,0,0,.06,0,0,0h-.15l.13,0h0a1.77,1.77,0,0,1,.34-.06,1.55,1.55,0,0,1,.33,0H553c.14,0,0,0,.21,0s.21,0,.11.06l.29,0c.07,0,0,0,0,0l.13,0h.15s0,0-.07,0l.22,0Z"/><path class="cls-14" d="M550.82,343.11h0Z"/><path class="cls-14" d="M553.1,342.88h0Z"/><path class="cls-14" d="M540.57,343.46h0Z"/><path class="cls-14" d="M543,343.59Z"/><path class="cls-14" d="M553.21,343h0Z"/><path class="cls-14" d="M553.88,353.53h0Z"/><path class="cls-14" d="M554,353.54Z"/><path class="cls-14" d="M536.93,351.4h0Z"/><path class="cls-14" d="M537.48,353.74h0S537.49,353.74,537.48,353.74Z"/><path class="cls-14" d="M553.1,353.58h0Z"/><path class="cls-14" d="M536,351.25h0Z"/><path class="cls-14" d="M550.62,353.65h0Z"/><path class="cls-14" d="M538.31,353.59l0,0Z"/><path class="cls-14" d="M553.54,353.55h0Z"/><path class="cls-14" d="M540.36,352.93l0,0h0l0,.06Z"/><path class="cls-14" d="M554,353.59l.2,0c-.1,0-.11,0-.21,0s0,0,.08,0h-.21a.42.42,0,0,0,.14,0l-.24,0s-.22,0-.17,0h-.15l.18,0c.25,0,0,0,.06,0h.19s.07,0-.05,0a1.06,1.06,0,0,1,.27,0H554s.14,0,0,0c0,0-.08,0,0,0s-.23,0-.16,0l-.28,0h.08l-.21,0h.06a3.74,3.74,0,0,0-.39.05.7.7,0,0,1,.21,0c-.08,0,0,0-.19,0s0,0,0,0l-.11,0s0,0,0,0c-.17,0,0,0-.23,0a1.66,1.66,0,0,0,.24,0c.08,0-.14,0-.17,0a2.26,2.26,0,0,0-.27,0l.14,0c.08,0,0,0-.06,0s0,0-.09,0h0l-.18,0c-.17,0-.38,0-.5,0h0l-.33,0,.16,0-.48.05h.2c-.13,0-.15,0-.31,0,0,0,0,0,0,0a2.13,2.13,0,0,1-.25,0s0,0,.19,0,.26,0,.36,0h-.06l.3,0h0l.05,0h-.06l.2,0a1.28,1.28,0,0,0-.27.05,3,3,0,0,0-.33,0s-.1,0,0,0l.16,0h-.2l-.23.05-.33,0c.11,0,.21,0,.19,0s-.21,0-.18,0a1.3,1.3,0,0,1-.35,0h.21s0,0,0,0h-.12c-.1,0-.31,0-.5,0h0c-.16,0-.17,0-.33.05,0,0,0,0,0,0h-.21c.1,0-.07,0,0,0s-.17,0-.26,0,.27,0,.14,0-.11,0,0,0h-.36a1.3,1.3,0,0,0-.26,0,.7.7,0,0,1,.16,0l-.1,0h-.23s.16,0,.14,0-.15,0-.26,0h0a2.77,2.77,0,0,0-.46,0s.11,0,.08,0-.16,0-.16,0h-.17s0,0-.08,0,.08,0-.06,0l-.18,0h0c-.27,0-.47.05-.76.06l.27,0-.33,0c-.11,0-.19,0-.18,0s-.09,0-.11,0a2.19,2.19,0,0,1-.33,0h0l-.17,0s0,0,0,0h0c.17,0,.38,0,.55,0,0,0,0,0,0,0h-.06s-.1,0,0,0a1.77,1.77,0,0,1-.31,0c-.1,0,.1,0,.16,0a.76.76,0,0,1-.16,0h0c-.17,0,0,0-.08,0a.74.74,0,0,1-.21,0h0l-.29,0h-.06a1.35,1.35,0,0,0,.27,0c-.21,0,.06,0,.13-.05h-.24c-.14,0-.3,0-.43,0s.06,0,0,0a3.52,3.52,0,0,0-.45,0h-.09c-.38,0-.53.06-1,.07h.06a.62.62,0,0,0-.21,0c-.11,0-.37,0-.51,0s-.2,0-.34,0,0,0,0,0l-.35,0h-.69a2.11,2.11,0,0,1-.35-.05h0l-.11,0,0,0-.06,0,0,0,0,0,0,0,0,0,0,0a19668661934.15,19668661934.15,0,0,1,0-.08v0h0v0a.09.09,0,0,1,0-.05v-.1a.41.41,0,0,1,0-.12s0-.07,0,0,0,.08,0,.07v-.22a.18.18,0,0,0,0-.09s0,0,0,0h0v.08s0,0,0,0a.72.72,0,0,0-.12-.27l-.08-.09,0,0,0,0-.19-.1h.06l0,0h0l.11.06,0,0h0l0,0,0,0-.06,0a.42.42,0,0,0-.14-.09l-.14-.06h-.13s0,0,0,0h-.33c-.06,0,0,0,0,0a1.81,1.81,0,0,0-.25.05h-.13l-.07,0-.07,0,0,0h0l0,0-.06,0,0,0a2.27,2.27,0,0,0-.32.22l-.29.22-.19.16-.08.06-.08.05.09-.05s0,0,0,0,0,0-.07,0l-.08.06-.07,0h0l0,0h0l0,0-.05,0h0l-.13,0-.13,0-.17,0h.09s0,0,0,0h-.38l-.13,0h-.06l-.07,0v0h0l0,0h0a.29.29,0,0,1-.09-.1.11.11,0,0,1,0-.07l0,0v-.06h0v0a.21.21,0,0,0,0-.08l0,0v.13s0,0,0,.07a.37.37,0,0,1,0-.12.49.49,0,0,1,0-.15.91.91,0,0,1,.09-.17c0-.06.09-.11.13-.16a2.73,2.73,0,0,1,.24-.26,1.88,1.88,0,0,0,.18-.21v0a1.27,1.27,0,0,0,.23-.28,1,1,0,0,0,.1-.24.57.57,0,0,0,0-.13.53.53,0,0,0,0-.13.56.56,0,0,0,0-.12l0-.05,0-.05a.43.43,0,0,0-.15-.15h0v0l0,0-.23-.1-.28-.07a1.44,1.44,0,0,0-.46,0c-.07,0-.06,0,0,0s.08,0,.08,0l-.18,0h-.18s.14,0,.08,0a1,1,0,0,1-.18,0s0,0-.07,0l-.18,0h0s-.07,0-.11,0h0l-.23.05-.23.06-.24.06-.24.08a6.26,6.26,0,0,0-.91.4l.1-.07-.15.09-.12.06h0a.31.31,0,0,0-.1.05l0,0,0,0a.41.41,0,0,1-.12.08l0,0-.07,0,0,0-.11.07-.05,0,0,0-.11.09,0,0h0l0,0-.05,0-.09.06,0,0,0,0,0,0,0,0s-.06.08-.11.13a.41.41,0,0,0,.19-.11l.06-.05,0,0a.61.61,0,0,0,.12-.09.75.75,0,0,1,.13-.11l0,0,0,0h0l.08-.07c-.06.06.13-.09,0,0l.06,0,.09-.07.1-.07.09,0,0,0,.11-.06h.05l0,0h0l.09,0s-.09,0-.07,0l.14-.08s0,0-.06,0l.06,0,0,0h0l-.06,0,0,0c.14-.07,0,0,.08,0l.06,0,.14-.07s0,0-.07.05l.11,0h0l0,0,.1-.05.06,0,.07,0,0,0,.22-.08c.09,0,0,0,.16,0,0,0,0,0,.07,0s.1,0,.1,0l.11,0s0,0,0,0,0,0,.12,0,0,0,.09,0l0,0h.08a.28.28,0,0,1,.14,0l-.07,0,.09,0h.77s.06,0,.11,0h0l.13,0a.18.18,0,0,1,.11,0h.08l.13,0s.08,0,.06,0l0,0,0,0h0l.06,0h0l0,0s0,0,0,0l.14.09s0,0,0,0h0s0,0,0,0H537s0,0,0,0h0l.1.05h.05l0,0,0,0,0,0,0,0,0,0a0,0,0,0,0,0,0h0v0s0,0,0,0a0,0,0,0,1,0,0h0s0,0,0,0a.17.17,0,0,1,0,.12l0,.1s0,0,0,0h0v0a.34.34,0,0,1,0,.08v0s0,0,0,0a.91.91,0,0,1-.11.16l-.12.13a3.13,3.13,0,0,0-.25.26l.09-.08,0,0c.07-.05,0,0,0,.08s-.12.12-.08.07l-.1.12s.09-.09,0,0l-.08.08s0,0,0,0l-.08.1,0,0,0,.05v0l.05-.1-.05.06s0,0,0,0a.57.57,0,0,0-.08.13l0-.07a.83.83,0,0,0-.07.13s0,.08,0,.13v.05a.07.07,0,0,1,0,.05v.14l0,.12s0,0,0,.05l0,0v0a.6.6,0,0,0,.11.14l0,0,.1.08,0,0,0,0,0,0,0,0h0l0,0h0l0,0h0l.19,0s.06,0,0,0h.14l.15,0,.17,0-.2,0h.14l.2,0a.78.78,0,0,0,.2-.09h0l0,0,.06,0,.09-.07s0,0,0-.08l.07,0,.07-.05.06,0s.15-.09,0,0a.52.52,0,0,0-.12.07l.23-.14-.1.09s0,0,0,0,.05,0,0,0l.07-.06,0,0,.16-.13.09-.07.08-.06s0,0,0,0l.08-.06a.06.06,0,0,0,0,0l0,0,.05,0s.07,0,.07,0v0h0l0,0a.39.39,0,0,1,.11-.06l.12,0s0,0,0,0h0l-.07,0-.05,0a1.34,1.34,0,0,1,.27-.07c.08,0,0,0-.12,0l.17,0,.12,0h0c-.08,0-.06,0,0,0s0,0,0,0v0a.55.55,0,0,0-.17,0s0,0,0,0h0l-.15,0-.12.06.12,0,.12,0a.87.87,0,0,1,.2,0h.26a0,0,0,0,0,0,0h.07l0,0,.13.06s0,0,.06,0h0l-.06-.06,0,0h0v0h0l0,0h0s0,0,0,0,0,0,0,.07a.33.33,0,0,0-.06-.08l-.11-.08,0,0a.17.17,0,0,1,.06.06s0,0,0,0h0l.06.09a.53.53,0,0,1,0,.12.77.77,0,0,1,0,.15,1,1,0,0,0,0,.17s0,0,0,0,0,0,0-.05,0-.09,0-.12,0-.14,0-.11v.19a.43.43,0,0,0,0,.19v0a0,0,0,0,1,0,0l0,.07a.15.15,0,0,0,0,.07v0h0v0s0,0,0,0h0l0,0,0,.06.05.06,0,0h0l0,0,0,0h0l.18.08a.68.68,0,0,0,.23.07l-.08,0-.13,0-.07,0s0,0,0,0l.06,0,.06,0h.06l.06,0,.26,0h-.06l.24,0c.09,0,.06,0,0,0s-.09,0,0,0h-.21l.11,0a2,2,0,0,1,.26,0h0l0,0a.9.9,0,0,1-.24,0s0,0,.06,0h.29s0,0-.06,0h.26c-.06,0-.17,0-.08,0h.11c.08,0,0,0,.1,0h0l.2,0c-.12,0-.12,0,0,0a3.11,3.11,0,0,1,.4,0h.08s.1,0,.16,0-.26,0-.25,0,.06,0,0,0c.12,0,0,0,.1,0s.2,0,.13,0c.1,0,.12,0,.19,0s0,0,0,0h.07s.21,0,.2,0a1.25,1.25,0,0,0,.28,0s-.17,0-.2,0l.61,0c.17,0,0,0,0,0l-.34,0a3.77,3.77,0,0,0,.51,0c.16,0,.18,0,.38,0h.09s-.09,0,0,0,.1,0,.08,0h0c.19,0,.14,0,.3,0h-.09l.15,0h.12s-.14,0-.16,0h.11l.16,0c-.11,0,0,0,0,0s.23,0,.21,0a1,1,0,0,1,.25,0c-.11,0,0,0,0,0h.16c-.17,0,0,0,0,0h-.24a2.49,2.49,0,0,0,.4,0l-.08,0,.24,0s-.09,0,0,0h.14c.15,0,0,0,.17,0h-.08s.17,0,.18,0l-.21,0s.1,0,.15,0h.27s-.21,0-.18.07a3.33,3.33,0,0,1,.52,0c.15,0,.13,0,.11-.05h.06l.49,0c.11,0,.06,0,0,0h.1l.22,0-.05,0,.24,0s0,0-.13,0h-.16a.69.69,0,0,1,.26,0c.16,0-.14,0,.06,0s.48,0,.63,0a3.88,3.88,0,0,1,.44-.05s.12,0,.11,0c-.18,0-.33,0-.48,0s0,0-.08,0h-.15c.16,0,0,0,.25,0h-.27s0,0,0,0l.23,0s0,0,0,0l.22,0c.07,0,.08,0,.05,0a1.94,1.94,0,0,1,.32,0c.16,0,0,0-.06,0h-.15s.18,0,.21,0,.23,0,.34,0l-.13,0H550l-.17.05.49,0s.06,0,0,0c.16,0,.25,0,.38,0s-.14,0,0,0h-.14c.08,0,.07,0,.09,0h-.13l.22,0s0,0-.05,0a2.48,2.48,0,0,1,.38,0h.15a1,1,0,0,0,.29,0c.12,0,.25,0,.21,0s0,0,0,0a2.46,2.46,0,0,0,.26,0h-.07c.15,0,0,0,.17,0,0,0,0,0,0,0s.11,0,.16,0,.13,0,0,0a2.19,2.19,0,0,0,.29,0c-.06,0,.12,0,.06,0,.13,0,.22,0,.19,0s-.12,0-.11,0h.37c.08,0,.22,0,.28,0h-.16l.1,0c-.09,0,0,0-.15,0s.27-.05.14-.05-.08,0-.16,0h0l-.19,0s0,0,0,0h-.51s.06,0,0,0h-.15a.49.49,0,0,1,.13,0h0a1.77,1.77,0,0,1,.34-.06,1.55,1.55,0,0,1,.33,0H553c.14,0,0,0,.21,0s.21,0,.11.05l.29,0c.07,0,0,0,0,0s.19,0,.13,0h.15s0,0-.07,0l.22,0Z"/><path class="cls-14" d="M550.82,353.81h0Z"/><path class="cls-14" d="M553.1,353.58h0Z"/><path class="cls-14" d="M540.57,354.16l0,0Z"/><path class="cls-14" d="M543,354.29Z"/><path class="cls-14" d="M553.21,353.68h0Z"/><path class="cls-14" d="M553.88,364.23h0Z"/><path class="cls-14" d="M554,364.24Z"/><path class="cls-14" d="M536.93,362.1h0l0,0Z"/><path class="cls-14" d="M537.48,364.44h0S537.49,364.44,537.48,364.44Z"/><path class="cls-14" d="M553.1,364.27h0Z"/><path class="cls-14" d="M536,362Z"/><path class="cls-14" d="M550.62,364.34h0Z"/><path class="cls-14" d="M538.31,364.29l0,0S538.3,364.29,538.31,364.29Z"/><path class="cls-14" d="M553.54,364.25h0Z"/><path class="cls-14" d="M540.36,363.63l0,0h0l0,.06Z"/><path class="cls-14" d="M554,364.29l.2,0a1.48,1.48,0,0,1-.21,0h-.23s-.22,0-.17,0h-.15l.18,0c.25,0,0,0,.06,0h.19s.07,0-.05,0a1.7,1.7,0,0,1,.27,0H554s.14,0,0,0c0,0-.08,0,0,0s-.23,0-.16,0l-.28,0s.05,0,.08,0l-.21,0h.06a2.18,2.18,0,0,0-.39.05.7.7,0,0,1,.21,0c-.08,0,0,0-.19,0s0,0,0,0l-.11,0s0,0,0,0c-.17,0,0,0-.23,0,.14,0,.12,0,.24,0s-.14,0-.17,0-.13,0-.27,0a.71.71,0,0,1,.14,0c.08,0,0,0-.06,0s0,0-.09,0h0l-.18,0c-.17,0-.38,0-.5,0h0l-.33,0,.16,0-.48.05h.2c-.13,0-.15,0-.31,0,0,0,0,0,0,0l-.25,0s0,0,.19,0,.26,0,.36,0h-.06l.3,0h0l.05,0h-.06l.2,0a.84.84,0,0,0-.27.05h-.33s-.1,0,0,0h0l-.23.05-.33,0c.11,0,.21,0,.19,0s-.21,0-.18,0a1.3,1.3,0,0,1-.35,0l.33,0h-.12s0,0,0,0h-.12c-.1,0-.31,0-.5,0h0a1.88,1.88,0,0,0-.33,0s0,0,0,0h-.21c.1,0-.07,0,0,0a2.07,2.07,0,0,1-.26,0s.27,0,.14,0-.11,0,0,0a2.16,2.16,0,0,1-.36,0,2.43,2.43,0,0,0-.26.05.7.7,0,0,1,.16,0l-.1,0h-.23s.16,0,.14,0-.15,0-.26,0h0c-.2,0-.34,0-.46,0s.11,0,.08,0h-.33l-.08,0c-.19,0,.08,0-.06,0l-.18,0h0c-.27,0-.47,0-.76.06a1.19,1.19,0,0,1,.27,0c-.08,0-.21,0-.33,0a.63.63,0,0,0-.18,0c-.13,0-.09,0-.11,0a2.19,2.19,0,0,1-.33,0h0l-.17,0s0,0,0,0h0c.17,0,.38,0,.55,0,0,0,0,0,0,0h-.06s-.1,0,0,0a1.77,1.77,0,0,1-.31,0c-.1,0,.1,0,.16,0h-.15c-.17,0,0,0-.08,0a.74.74,0,0,1-.21,0h0a2.85,2.85,0,0,0-.29,0h-.06a1.35,1.35,0,0,0,.27,0c-.21,0,.06,0,.13,0h-.24c-.14,0-.3,0-.43,0s.06,0,0,0l-.45,0h-.09c-.38,0-.53,0-1,.07h-.15c-.11,0-.37,0-.51,0a2.45,2.45,0,0,0-.34,0s0,0,0,0l-.35,0-.18,0h-.51a1.41,1.41,0,0,1-.35-.05h0l-.11,0,0,0-.06,0,0,0,0,0,0,0,0,0,0,0a25879818326.31,25879818326.31,0,0,1,0-.08v0h0v0a.11.11,0,0,1,0-.05v-.1a.41.41,0,0,1,0-.12s0-.07,0,0,0,.07,0,.07V364h0v0a.18.18,0,0,0,0-.09s0,0,0,0h0v.08s0,0,0,0a.72.72,0,0,0-.12-.27l-.08-.09,0,0,0,0a1.18,1.18,0,0,0-.19-.1h.06l0,0h0l.11.06,0,0h0l0,0,0,0-.06-.06-.14-.08-.14-.06-.07,0h-.06s0,0,0,0h-.33c-.06,0,0,0,0,0a1.81,1.81,0,0,0-.25.05h-.07l-.06,0-.07,0-.07,0h0l0,0,0,0-.06,0,0,0a2.27,2.27,0,0,0-.32.22l-.29.22-.19.15-.08.07-.08,0,.09,0s0,0,0,0,0,0-.07.05l-.08.06s0,0-.07,0h0l0,0h0l-.05,0h0c-.06,0-.13,0-.13,0l-.13,0-.17,0h-.27l-.13,0h-.06l-.07,0h0l0,0,0,0h0a.29.29,0,0,1-.09-.1.11.11,0,0,1,0-.07l0,0v-.06h0v0a.21.21,0,0,0,0-.08l0,0v.12s0,0,0,.08a.37.37,0,0,1,0-.12.44.44,0,0,1,0-.15.91.91,0,0,1,.09-.17c0-.06.09-.11.13-.16a2.73,2.73,0,0,1,.24-.26,1.88,1.88,0,0,0,.18-.21v0a1.34,1.34,0,0,0,.23-.29.94.94,0,0,0,.1-.23.62.62,0,0,0,0-.13.53.53,0,0,0,0-.13.56.56,0,0,0,0-.12l0-.06,0-.05a.49.49,0,0,0-.15-.14v0h0l0,0-.23-.1a1.28,1.28,0,0,0-.28-.07,1.25,1.25,0,0,0-.46,0c-.07,0-.06,0,0,0H536c-.07,0-.1,0-.18,0s0,0-.07,0l-.18,0h0s-.07,0-.11,0h0l-.23.05-.23.05-.24.07-.24.08a6.23,6.23,0,0,0-.91.39l.1-.06-.15.08-.12.07h0l-.1.05,0,0,0,0a.41.41,0,0,1-.12.08l0,0-.07,0,0,0-.11.07-.05,0,0,0a.44.44,0,0,0-.11.09h0l0,0,0,0-.05,0-.09.06s0,0,0,0l0,0,0,0,0,0s-.06.07-.11.12,0,0,.19-.1l.06-.06,0,0a.26.26,0,0,0,.12-.09l.13-.1,0,0,0,0h0l.08-.07c-.06.06.13-.09,0,0l.06,0,.09-.07.1-.07.09-.05s0,0,0,0l.11-.06h.05l0,0h0s0,0,.09,0-.09,0-.07,0l.14-.08s0,0-.06,0l.06,0,0,0h0l-.06,0a.1.1,0,0,0,0,0c.14-.07,0,0,.08,0l.06,0,.14-.07-.07,0,.11,0h0l0,0,.1,0,.06,0,.07,0,0,0a1.77,1.77,0,0,0,.22-.08c.09,0,0,0,.16,0l.07,0,.1,0,.11,0s0,0,0,0,0,0,.12,0,0,0,.09,0l0,0h.08a.28.28,0,0,1,.14,0l-.07,0,.09,0h.88s0,0,0,0h0l.13,0c.06,0,.1,0,.11,0h.07v0l.13.06s.08,0,.06,0l0,0,0,0h0s0,0,0,0l.06,0h0l0,0s0,0,0,0l.14.09s0,0,0,0h0s0,0,0,0H537l0,0s0,0,0,0l.1.05h.05l0,0,0,0,0,0,0,0,0,0a0,0,0,0,0,0,0h0a.43.43,0,0,0,0,.05,0,0,0,0,1,0,0h0s0,0,0,0a.18.18,0,0,1,0,.12l0,.11s0,0,0,0h0v0a.34.34,0,0,1,0,.08v0s0,0,0,0a.91.91,0,0,1-.11.16l-.12.13c-.08.08-.17.16-.25.25l.09-.07,0,0c.07-.06,0,0,0,.08s-.12.12-.08.07l-.1.12s.09-.09,0,0l-.08.07h0l-.08.1s0,0,0,0,0,0,0,0v0a.93.93,0,0,0,.05-.1l-.05.07s0,0,0,0a1,1,0,0,0-.08.14l0-.07a.83.83,0,0,0-.07.13s0,.08,0,.13v.05a.09.09,0,0,1,0,.05v.14l0,.12a.43.43,0,0,1,0,.05l0,0v0a.92.92,0,0,0,.11.14l0,0,.1.08,0,0,0,0,0,0,0,0h0l0,0h.08l.19,0s.06,0,0,0h.14l.15,0,.17,0-.2,0h.14l.2-.05a.78.78,0,0,0,.2-.09h0l0,0,.06,0,.09-.07s0,0,0-.08l.07,0,.07-.05.06,0s.15-.09,0,0a.62.62,0,0,0-.12.08l.23-.14-.1.09s0,0,0,0,.05,0,0,0l.07-.06,0,0,.16-.13.09-.08.08-.05s0,0,0,0a.5.5,0,0,1,.08-.06l0,0,0,0,.05,0,.07,0h0s0,0,0,0l.11-.05.12,0h0l-.07,0-.05,0a1.38,1.38,0,0,1,.27-.08c.08,0,0,0-.12,0l.17,0,.12,0h0c-.08,0-.06,0,0,0s0,0,0,0v0a.36.36,0,0,0-.17,0s0,0,0,0h0l-.15,0a.34.34,0,0,0-.12.06l.12,0,.12,0a.87.87,0,0,1,.2,0h.3l0,0h0l0,0,0,0,.13.06.06,0,0,0h0l-.06-.06,0,0h0l0,0,0,0h0s0,0,0,0a.67.67,0,0,1,0,.07l-.06-.07-.11-.08s0,0,0,0a.17.17,0,0,1,.06.06s0,0,0,0h0l.06.09a.35.35,0,0,1,0,.12.77.77,0,0,1,0,.15,1,1,0,0,0,0,.17s0,0,0,0,0,0,0,0,0-.09,0-.13,0-.13,0-.1v.19a.43.43,0,0,0,0,.19v0a0,0,0,0,1,0,0l0,.07a.21.21,0,0,0,0,.07v.05h0v0a.05.05,0,0,1,0,0v0h0l0,0,0,.06.05.06,0,0h0l0,0,0,0v0l.18.08a1,1,0,0,0,.23.07l-.08,0-.13,0-.07,0s0,0,0,0l.06,0,.06,0,.06,0h.06l.26,0h-.06l.24,0c.09,0,.06,0,0,0s-.09,0,0,0h-.12a.13.13,0,0,0-.09,0l.11,0,.26,0h0l0,0a.9.9,0,0,1-.24,0h.35s0,0-.06,0h.26c-.06,0-.17,0-.08,0l.06,0c.05,0,0,0,.05,0s0,0,.1,0h0l.2,0c-.12,0-.12,0,0,0s.29,0,.4,0h.08s.1,0,.16,0-.26,0-.25,0,.06,0,0,0c.12,0,0,0,.1,0h.13c.1,0,.12,0,.19,0s0,0,0,0h.12s0,0-.05,0,.21,0,.2,0a2.5,2.5,0,0,0,.28,0s-.17,0-.2,0l.61,0c.17,0,0,0,0,0-.16,0-.2,0-.34,0,.15,0,.4,0,.51,0s.18,0,.38,0c0,0,0,0-.08,0h.17s-.09,0,0,0,.1,0,.08,0h0c.19,0,.14,0,.3,0h-.09s.07,0,.15,0,.06,0,.12,0-.14,0-.16,0h.11l.16,0c-.11,0,0,0,0,0h.21l.25,0c-.11,0,0,0,0,0h.16c-.17,0,0,0,0,0a.82.82,0,0,1-.24,0,2.49,2.49,0,0,0,.4,0H546s.13,0,.24,0-.09,0,0,0h.14c.15,0,0,0,.17,0h-.08s.17,0,.18,0l-.21,0s.1,0,.15,0a2.4,2.4,0,0,1,.27,0s-.21,0-.18.06l.52,0c.15,0,.13,0,.11,0h.06l.49,0c.11,0,.06,0,0,0h.1l.22,0h-.05a1,1,0,0,0,.24,0s0,0-.13,0h-.16a.69.69,0,0,1,.26,0c.16,0-.14,0,.06,0a4.34,4.34,0,0,1,.63,0,3.88,3.88,0,0,1,.44-.05s.12,0,.11,0a4.26,4.26,0,0,1-.48,0c-.08,0,0,0-.08,0h-.15c.16,0,0,0,.25-.05h-.27s0,0,0,0a1.57,1.57,0,0,1,.23,0s0,0,0,0l.22,0c.07,0,.08,0,.05,0a1.94,1.94,0,0,1,.32,0c.16,0,0,0-.06,0h-.15s.18,0,.21,0,.23,0,.34,0l-.13,0H550c-.07,0-.07,0-.17.05l.49,0s.06,0,0,0c.16,0,.25,0,.38,0s-.14,0,0,0h-.14c.08,0,.07,0,.09,0h-.13l.22,0s0,0-.05,0a2.44,2.44,0,0,1,.38,0h.15a1,1,0,0,0,.29,0c.12,0,.25,0,.21,0s0,0,0,0a2.46,2.46,0,0,0,.26,0h-.07c.15,0,0,0,.17,0,0,0,0,0,0,0h.16s.13,0,0,0c.13,0,.2,0,.29,0s.12,0,.06,0c.13,0,.22,0,.19,0s-.12,0-.11,0l.23,0,.14,0c.08,0,.22,0,.28,0h-.16l.1,0c-.09,0,0,0-.15,0s.27-.05.14-.05-.08,0-.16,0h-.63s.06,0,0,0h-.15a.49.49,0,0,1,.13,0v0a1.29,1.29,0,0,1,.34-.05,1.33,1.33,0,0,1,.33,0H553c.14,0,0,0,.21,0s.21,0,.11.05l.29,0c.07,0,0,0,0,0s.19,0,.13,0h.08l.22,0Z"/><path class="cls-14" d="M550.82,364.51h0Z"/><path class="cls-14" d="M553.1,364.27h0S553.09,364.27,553.1,364.27Z"/><path class="cls-14" d="M540.57,364.86l0,0S540.57,364.86,540.57,364.86Z"/><path class="cls-14" d="M543,365h0Z"/><path class="cls-14" d="M553.21,364.37h0Z"/></g><rect class="cls-4" x="284.8" y="344.93" width="7.24" height="32.48"/><rect class="cls-15" x="292.05" y="344.93" width="7.25" height="32.48"/><rect class="cls-4" x="299.3" y="344.93" width="7.25" height="32.48"/><path class="cls-3" d="M372,245.58V377.41H434.1V245.58Zm53.9,122.28H380.2V349.22h45.65Zm0-28.53H380.2V253.84h45.65Z"/><rect class="cls-4" x="164.63" y="204.86" width="18.7" height="172.55"/><rect class="cls-4" x="313.79" y="344.93" width="7.25" height="32.48"/><rect class="cls-15" x="306.55" y="344.93" width="7.24" height="32.48"/><rect class="cls-15" x="219.58" y="344.93" width="7.24" height="32.48"/><rect class="cls-4" x="226.82" y="344.93" width="7.25" height="32.48"/><rect class="cls-4" x="212.33" y="344.93" width="7.25" height="32.48"/><rect class="cls-15" x="263.06" y="344.93" width="7.24" height="32.48"/><rect class="cls-15" x="234.07" y="344.93" width="7.25" height="32.48"/><rect class="cls-4" x="241.32" y="344.93" width="7.24" height="32.48"/><rect class="cls-15" x="248.56" y="344.93" width="7.25" height="32.48"/><rect class="cls-4" x="255.81" y="344.93" width="7.25" height="32.48"/><rect class="cls-15" x="205.08" y="344.93" width="7.25" height="32.48"/><rect class="cls-4" x="270.31" y="344.93" width="7.25" height="32.48"/><rect class="cls-4" x="342.78" y="344.93" width="7.25" height="32.48"/><rect class="cls-15" x="277.56" y="344.93" width="7.25" height="32.48"/><rect class="cls-4" x="328.29" y="344.93" width="7.25" height="32.48"/><rect class="cls-15" x="335.54" y="344.93" width="7.24" height="32.48"/><rect class="cls-15" x="190.58" y="344.93" width="7.25" height="32.48"/><rect class="cls-15" x="321.04" y="344.93" width="7.25" height="32.48"/><path class="cls-4" d="M350,204.86V377.41H372V245.58H434.1V377.41H456V204.86Zm84.07,27.9H372V211H434.1Z"/><rect class="cls-4" x="183.33" y="344.93" width="7.25" height="32.48"/><path class="cls-15" d="M462.53,199.55v2.91a2.4,2.4,0,0,1-2.39,2.4H160.51a2.4,2.4,0,0,1-2.39-2.4v-2.91Z"/><rect class="cls-15" x="158.12" y="180.47" width="304.41" height="19.07"/><path class="cls-3" d="M462.53,175.22v5.25H158.12v-5.25a2.39,2.39,0,0,1,2.39-2.39H460.14A2.39,2.39,0,0,1,462.53,175.22Z"/><path class="cls-3" d="M372,205.55v27.21H434.1V205.55ZM427.53,227h-49V211.36h49Z"/><rect class="cls-8" x="380.2" y="349.22" width="45.65" height="18.65"/><path class="cls-8" d="M380.2,253.84v85.49h45.65V253.84Zm7.24,53.6a1.4,1.4,0,1,1-2.8,0,1.39,1.39,0,0,1,.81-1.27V294.74a1.38,1.38,0,0,1-.81-1.26,1.4,1.4,0,1,1,2,1.26v11.43A1.4,1.4,0,0,1,387.44,307.44Z"/><path class="cls-15" d="M387.44,307.44a1.4,1.4,0,1,1-2.8,0,1.39,1.39,0,0,1,.81-1.27V294.74a1.38,1.38,0,0,1-.81-1.26,1.4,1.4,0,1,1,2,1.26v11.43A1.4,1.4,0,0,1,387.44,307.44Z"/><rect class="cls-8" x="378.52" y="211.36" width="49.01" height="15.59"/><rect class="cls-8" x="270.84" y="213.19" width="71.86" height="15.59"/><rect class="cls-8" x="190.67" y="213.19" width="71.86" height="15.59"/><rect class="cls-8" x="183.33" y="310.69" width="81.27" height="27.47"/><rect class="cls-8" x="183.33" y="237.33" width="81.27" height="69.2"/><polygon class="cls-3" points="350.03 306.53 350.03 310.69 268.77 310.69 268.77 338.16 264.61 338.16 264.61 310.69 183.33 310.69 183.33 306.53 264.61 306.53 264.61 237.33 268.77 237.33 268.77 306.53 350.03 306.53"/><rect class="cls-3" x="183.33" y="338.16" width="166.7" height="6.77"/><rect class="cls-8" x="268.77" y="310.69" width="81.27" height="27.47"/><path class="cls-3" d="M183.33,204.86v32.47H350V204.86Zm79.19,23.92H190.67V213.19h71.85Zm80.19,0H270.84V213.19h71.87Z"/><line class="cls-16" x1="399.75" y1="145.42" x2="394.43" y2="145.42"/><line class="cls-16" x1="421.26" y1="145.42" x2="414.99" y2="145.42"/><line class="cls-16" x1="418.53" y1="141.44" x2="414.99" y2="141.44"/><line class="cls-16" x1="385.26" y1="141.44" x2="392.12" y2="141.44"/><line class="cls-16" x1="392.12" y1="137.47" x2="390.47" y2="137.47"/><line class="cls-16" x1="407.37" y1="137.47" x2="412.76" y2="137.47"/><line class="cls-16" x1="407.37" y1="145.42" x2="407.37" y2="150.33"/><line class="cls-16" x1="230.11" y1="91.65" x2="235.42" y2="91.65"/><line class="cls-16" x1="208.6" y1="91.65" x2="214.86" y2="91.65"/><line class="cls-16" x1="214.86" y1="87.67" x2="211.33" y2="87.67"/><line class="cls-16" x1="237.73" y1="87.67" x2="244.59" y2="87.67"/><line class="cls-16" x1="237.73" y1="83.7" x2="239.39" y2="83.7"/><line class="cls-16" x1="222.48" y1="83.7" x2="217.1" y2="83.7"/><line class="cls-16" x1="222.48" y1="91.65" x2="222.48" y2="96.56"/><path class="cls-4" d="M183.33,18.3V172.83H434.1V18.3Zm54.4,69.38h-7.62v4H214.86v-4h7.63v-4h15.24Zm115.16,62.56H267.76V58.18h85.13Zm62.1-4.82H399.75v-4h-7.63v-4h15.25v4H415Z"/><rect class="cls-17" x="392.12" y="137.47" width="15.25" height="3.98"/><rect class="cls-3" x="399.75" y="141.44" width="15.25" height="3.98"/><rect class="cls-17" x="440.74" y="344.11" width="12.48" height="3.25"/><rect class="cls-3" x="437.13" y="347.36" width="12.48" height="3.25"/><rect class="cls-17" x="441.36" y="223.02" width="10.73" height="2.8"/><rect class="cls-3" x="438.26" y="225.81" width="10.73" height="2.8"/><rect class="cls-3" x="438.26" y="217.03" width="8.15" height="2.12"/><rect class="cls-3" x="436.73" y="336.2" width="8" height="2.09"/><rect class="cls-17" x="351.27" y="359.05" width="12.48" height="3.25"/><rect class="cls-3" x="354.88" y="355.8" width="12.48" height="3.25"/><rect class="cls-3" x="359.75" y="368.12" width="8" height="2.09"/><rect class="cls-17" x="169.11" y="359.05" width="12.48" height="3.25"/><rect class="cls-3" x="172.72" y="355.8" width="12.48" height="3.25"/><rect class="cls-3" x="177.59" y="368.12" width="8" height="2.09"/><rect class="cls-17" x="172.15" y="262.25" width="6.69" height="2.13"/><rect class="cls-3" x="169.79" y="260.12" width="8.17" height="2.13"/><rect class="cls-3" x="169.53" y="268.19" width="5.24" height="1.37"/><rect class="cls-3" x="222.49" y="83.7" width="15.25" height="3.98"/><rect class="cls-17" x="214.86" y="87.68" width="15.24" height="3.97"/><rect class="cls-3" x="214.86" y="150.9" width="15.25" height="3.98"/><rect class="cls-17" x="222.49" y="158.53" width="15.24" height="3.97"/><rect class="cls-17" x="208.15" y="147.8" width="11.91" height="3.1"/><path class="cls-3" d="M267.76,58.18V143.3h85.13V58.18Zm79.87,79.87H273V63.43h74.62Z"/><rect class="cls-3" x="267.76" y="143.3" width="85.13" height="6.93"/><rect class="cls-3" x="434.1" y="97.63" width="69.65" height="4.25"/><line class="cls-9" x1="498.79" y1="120.15" x2="498.79" y2="101.88"/><line class="cls-9" x1="470.59" y1="140.63" x2="470.59" y2="101.88"/><path class="cls-3" d="M547.72,222.39v7.29a2.39,2.39,0,0,1-2.71,2.37c-6-.79-21-2.31-31.81.39-12.63,3.14-33.28,6.38-57.19-.63V204.86h4.13a2.39,2.39,0,0,0,2.39-2.4V175.22l84,45.08A2.39,2.39,0,0,1,547.72,222.39Z"/><rect class="cls-4" x="197.83" y="344.93" width="7.24" height="32.48"/><rect class="cls-18" x="289.7" y="271.51" width="38.03" height="1.97" rx="0.98" transform="translate(719.69 246.89) rotate(135)"/><rect class="cls-18" x="306.54" y="280.04" width="16.84" height="1.97" rx="0.98" transform="translate(736.37 257.02) rotate(135)"/><rect class="cls-18" x="297.02" y="262.36" width="16.84" height="1.97" rx="0.98" transform="translate(707.63 233.58) rotate(135)"/><rect class="cls-18" x="201.14" y="271.51" width="38.03" height="1.97" rx="0.98" transform="translate(568.51 309.51) rotate(135)"/><rect class="cls-18" x="217.98" y="280.04" width="16.84" height="1.97" rx="0.98" transform="translate(585.19 319.64) rotate(135)"/><rect class="cls-18" x="208.46" y="262.36" width="16.84" height="1.97" rx="0.98" transform="translate(556.45 296.2) rotate(135)"/><rect class="cls-18" x="389.22" y="297.56" width="28.11" height="1.46" rx="0.73" transform="translate(899.36 224.06) rotate(135)"/><rect class="cls-18" x="401.67" y="303.86" width="12.44" height="1.46" rx="0.73" transform="translate(911.69 231.55) rotate(135)"/><rect class="cls-18" x="394.63" y="290.8" width="12.44" height="1.46" rx="0.73" transform="translate(890.44 214.22) rotate(135)"/><path class="cls-19" d="M480.77,138.76a4.91,4.91,0,0,0,.83,3,2.89,2.89,0,0,0,2.47,1.13c.35,0,.68,0,1,0s.55-.06.75-.1v-7.25a3.33,3.33,0,0,0-1-.4,4.59,4.59,0,0,0-1.22-.16Q480.78,134.91,480.77,138.76Z"/><path class="cls-19" d="M506.48,134.5l-3-12.67a5.53,5.53,0,0,0-4.12-4.12l-.59-.14-12.08-2.84a5.55,5.55,0,0,0-5.18,1.47l-10.95,11-6.43,6.44a5.53,5.53,0,0,0,0,7.82l15.65,15.65a5.54,5.54,0,0,0,7.83,0L505,139.68A5.52,5.52,0,0,0,506.48,134.5Zm-16.69,10.95a11.33,11.33,0,0,1-1.22.31c-.47.1-.95.18-1.46.25s-1,.14-1.56.18-1,.07-1.51.07a8.86,8.86,0,0,1-3.11-.51,6.21,6.21,0,0,1-2.29-1.46A6.29,6.29,0,0,1,477.2,142a8.72,8.72,0,0,1-.49-3,10.71,10.71,0,0,1,.42-3.1,6.79,6.79,0,0,1,1.24-2.34,5.28,5.28,0,0,1,2-1.47,6.75,6.75,0,0,1,2.66-.51,6.6,6.6,0,0,1,1.49.16,8.08,8.08,0,0,1,1.33.46v-6.37l4-.65Zm10.1-21.93a1.56,1.56,0,1,1-1.1-2.66,1.52,1.52,0,0,1,1.1.46A1.55,1.55,0,0,1,499.89,123.52Z"/><polygon class="cls-10" points="286.83 350.61 249.84 387.6 244.86 387.6 281.85 350.61 286.83 350.61"/><polygon class="cls-10" points="255.02 355.8 250.04 355.8 244.85 350.61 249.84 350.61 255.02 355.8"/><polygon class="cls-11" points="286.83 387.6 281.85 387.6 250.04 355.8 255.02 355.8 286.83 387.6"/><circle class="cls-10" cx="265.84" cy="369.11" r="0.54"/><rect class="cls-10" x="239.57" y="345.2" width="52.65" height="7.15" rx="0.47"/><polygon class="cls-10" points="241.5 369.64 223.28 387.85 220.83 387.85 239.04 369.64 241.5 369.64"/><polygon class="cls-11" points="220.83 369.64 239.04 387.85 241.5 387.85 223.28 369.64 220.83 369.64"/><rect class="cls-10" x="218.23" y="366.97" width="25.92" height="3.52" rx="0.61"/><polygon class="cls-10" points="312.44 369.64 294.23 387.85 291.77 387.85 309.99 369.64 312.44 369.64"/><polygon class="cls-11" points="291.77 369.64 309.99 387.85 312.44 387.85 294.23 369.64 291.77 369.64"/><rect class="cls-10" x="289.17" y="366.97" width="25.92" height="3.52" rx="0.61"/><polygon class="cls-1" points="179.71 226.52 178.6 238.51 169.17 238.51 168.06 226.52 179.71 226.52"/><circle class="cls-2" cx="173.91" cy="231.88" r="2.43"/><path class="cls-3" d="M182,225.23H165.83a.24.24,0,0,1-.19-.38l3-3.86a.24.24,0,0,1,.18-.09h10.11a.24.24,0,0,1,.18.09l3,3.86A.23.23,0,0,1,182,225.23Z"/><path class="cls-3" d="M175.47,220.21h-3.28a.1.1,0,0,1-.09-.14l.31-.69.15-.33.18-.4h.09a1.23,1.23,0,0,1-.07-.39,1.07,1.07,0,1,1,2.13,0,1,1,0,0,1-.07.39h.09l.19.4.14.33.32.69A.1.1,0,0,1,175.47,220.21Z"/><path class="cls-4" d="M174.79,241.26v1.16a1.18,1.18,0,0,0-.88-.4,1.16,1.16,0,0,0-.88.4v-1.16Z"/><line class="cls-5" x1="171.39" y1="226.52" x2="171.99" y2="232.98"/><polygon class="cls-6" points="180.31 225.23 180.2 226.52 167.47 226.52 167.35 225.23 180.31 225.23"/><line class="cls-5" x1="175.32" y1="238.51" x2="176.08" y2="230.24"/><path class="cls-6" d="M175.16,243.39a1.26,1.26,0,1,1-2.5,0,1.42,1.42,0,0,1,.37-1,1.16,1.16,0,0,1,.88-.4,1.18,1.18,0,0,1,.88.4A1.42,1.42,0,0,1,175.16,243.39Z"/><path class="cls-6" d="M179.09,238.76l-.08.92a.23.23,0,0,1-.23.21H169a.24.24,0,0,1-.24-.21l-.08-.92a.23.23,0,0,1,.23-.25h10A.23.23,0,0,1,179.09,238.76Z"/><path class="cls-4" d="M175.76,240.09l-.64,1.11a.14.14,0,0,1-.12.06h-2.18a.13.13,0,0,1-.12-.06l-.65-1.11a.14.14,0,0,1,.12-.2h3.48A.13.13,0,0,1,175.76,240.09Z"/><rect class="cls-3" x="172.41" y="220.21" width="2.83" height="0.7"/><polygon class="cls-1" points="367.27 226.52 366.16 238.51 356.73 238.51 355.62 226.52 367.27 226.52"/><circle class="cls-2" cx="361.47" cy="231.88" r="2.43"/><path class="cls-3" d="M369.5,225.23H353.39a.24.24,0,0,1-.19-.38l3-3.86a.24.24,0,0,1,.18-.09H366.5a.24.24,0,0,1,.18.09l3,3.86A.24.24,0,0,1,369.5,225.23Z"/><path class="cls-3" d="M363,220.21h-3.27a.1.1,0,0,1-.1-.14l.32-.69.15-.33.18-.4h.09a1.23,1.23,0,0,1-.07-.39,1.07,1.07,0,1,1,2.13,0,1.23,1.23,0,0,1-.07.39h.09l.18.4.15.33.32.69A.1.1,0,0,1,363,220.21Z"/><path class="cls-4" d="M362.35,241.26v1.16a1.18,1.18,0,0,0-1.77,0v-1.16Z"/><line class="cls-5" x1="358.95" y1="226.52" x2="359.54" y2="232.98"/><polygon class="cls-6" points="367.87 225.23 367.75 226.52 355.02 226.52 354.91 225.23 367.87 225.23"/><line class="cls-5" x1="362.88" y1="238.51" x2="363.64" y2="230.24"/><path class="cls-6" d="M362.71,243.39a1.25,1.25,0,1,1-2.49,0,1.46,1.46,0,0,1,.36-1,1.18,1.18,0,0,1,1.77,0A1.46,1.46,0,0,1,362.71,243.39Z"/><path class="cls-6" d="M366.65,238.76l-.08.92a.23.23,0,0,1-.23.21h-9.82a.23.23,0,0,1-.23-.21l-.08-.92a.23.23,0,0,1,.23-.25h10A.23.23,0,0,1,366.65,238.76Z"/><path class="cls-4" d="M363.32,240.09l-.65,1.11a.11.11,0,0,1-.11.06h-2.19a.13.13,0,0,1-.11-.06l-.65-1.11a.13.13,0,0,1,.12-.2h3.47A.13.13,0,0,1,363.32,240.09Z"/><rect class="cls-3" x="359.97" y="220.21" width="2.83" height="0.7"/><path class="cls-20" d="M380.37,334c-2.14.7-5.49,3.43-8.33,11.22-3,8.16-7.12,6-7.12,6l-.16-.1c1.34-.61,2.94-2.18,4.31-5.91,2.19-6,4.69-9,6.7-10.39,2.08-1,3.75-1.29,4.6-1A.11.11,0,0,1,380.37,334Z"/><path class="cls-21" d="M375.77,334.87c-2,1.37-4.51,4.37-6.7,10.39-1.37,3.73-3,5.3-4.31,5.91-3-1.9-.05-7.4,3.74-11.1A27,27,0,0,1,375.77,334.87Z"/><path class="cls-22" d="M378.48,301.41c-2.16,10-8.77,12.36-11.43,27.3-3.12,17.46-2.25,20.9-2,21.51a2.92,2.92,0,0,1-2.45.13s-1.72-1.46,1.88-21.64c3.36-18.89,13-17.63,12.06-37.23,0-.23.21-.4.28-.21A26.57,26.57,0,0,1,378.48,301.41Z"/><path class="cls-23" d="M378.48,301.41c-.2,6.25-2.24,13-3.75,24.12-1.45,10.62-5.26,22.54-9.64,24.69-.29-.61-1.16-4.05,2-21.51C369.71,313.77,376.32,311.43,378.48,301.41Z"/><path class="cls-23" d="M364.71,352.72h0a5.84,5.84,0,0,1-6.23-2,6,6,0,0,0,2.23-.22h0c.3-.1,9.48-3.36,1.65-20.06-4-8.49-5.61-15.08-6-20h0c1.55-4.07,3.39-6.77,4.93-7.77a.3.3,0,0,1,.44.39c-2.1,4.41-2.88,13.67,4.59,29.64C374.19,349.36,365,352.62,364.71,352.72Z"/><path class="cls-22" d="M360.72,349.78h0a6,6,0,0,1-2.23.22c-3.65-4-5.52-12.63-5.45-20.56a57.85,57.85,0,0,1,3.39-19.78c.35,5,2,11.56,6,20.05C370.2,346.42,361,349.68,360.72,349.78Z"/><path class="cls-21" d="M359.57,352.21s-6.84.76-6.93-11.68c1.65,7,6.37,6.44,6.37,6.44,2.68-.37,3.83-2.73,3.95-5.9C364.17,346.62,363.58,351.66,359.57,352.21Z"/><path class="cls-20" d="M363,341.07c-.12,3.17-1.27,5.53-3.95,5.9,0,0-4.72.51-6.37-6.44,0-.29,0-.59,0-.9A53.77,53.77,0,0,0,352,330c-1-6.26-3.24-9.57-5.12-11.11a.17.17,0,0,1,.12-.31,7.39,7.39,0,0,1,3.33,1.62c3.07,2.3,7.1,7,10.26,13.92A35.67,35.67,0,0,1,363,341.07Z"/><path class="cls-24" d="M371.63,328c-1.44,3.41-4,7.09-6.9,12.89-2.81,5.61-2.8,9.11-2,11.25l-.38-.11s-6.8-2.38-.81-14.34c5.83-11.59,10.16-14.69,7.24-24.13a.15.15,0,0,1,.26-.13C372.53,318.55,372.19,322.21,371.63,328Z"/><path class="cls-25" d="M371.63,328c-.22,2.31-.47,5-.53,8.19-.14,8.09-3.14,17.16-8.38,15.95-.79-2.14-.8-5.64,2-11.25C367.65,335.06,370.19,331.38,371.63,328Z"/><path class="cls-24" d="M360.88,352.68A4.2,4.2,0,0,1,358,349a3.73,3.73,0,0,0,1.27.7c4.25,1,6-5.27,5.54-10.79a26.69,26.69,0,0,0-1.89-8.06,23.65,23.65,0,0,1,3.46,11C366.86,347.42,365.12,353.7,360.88,352.68Z"/><path class="cls-26" d="M359.3,349.71A3.73,3.73,0,0,1,358,349a11.14,11.14,0,0,1,1.27-5.85c3.54-7.75,2.73-12.16,1.42-14.2-.07-.1,0-.21.17-.16a6,6,0,0,1,2.06,2.06,26.69,26.69,0,0,1,1.89,8.06C365.29,344.44,363.55,350.73,359.3,349.71Z"/><polygon class="cls-6" points="380.5 349.25 345.27 349.25 347.52 342.32 378.25 342.32 380.5 349.25"/><polygon class="cls-6" points="378.31 351.28 375.23 386.18 350.54 386.18 347.46 351.28 378.31 351.28"/><rect class="cls-4" x="345.27" y="349.25" width="35.24" height="2.04"/><path class="cls-20" d="M157.86,334c2.13.7,5.48,3.43,8.32,11.22,3,8.16,7.13,6,7.13,6l.16-.1c-1.35-.61-2.95-2.18-4.31-5.91-2.19-6-4.69-9-6.7-10.39-2.08-1-3.76-1.29-4.6-1A.11.11,0,0,0,157.86,334Z"/><path class="cls-21" d="M162.46,334.87c2,1.37,4.51,4.37,6.7,10.39,1.36,3.73,3,5.3,4.31,5.91,3-1.9,0-7.4-3.74-11.1A27.13,27.13,0,0,0,162.46,334.87Z"/><path class="cls-22" d="M159.75,301.41c2.16,10,8.77,12.36,11.43,27.3,3.11,17.46,2.24,20.9,1.95,21.51a2.92,2.92,0,0,0,2.45.13s1.72-1.46-1.87-21.64c-3.37-18.89-13-17.63-12.07-37.23,0-.23-.21-.4-.28-.21A26.55,26.55,0,0,0,159.75,301.41Z"/><path class="cls-23" d="M159.75,301.41c.19,6.25,2.23,13,3.75,24.12,1.44,10.62,5.25,22.54,9.63,24.69.29-.61,1.16-4.05-1.95-21.51C168.52,313.77,161.91,311.43,159.75,301.41Z"/><path class="cls-23" d="M173.52,352.72h0a5.82,5.82,0,0,0,6.22-2,6,6,0,0,1-2.22-.22h0c-.31-.1-9.48-3.36-1.66-20.06,4-8.49,5.62-15.08,6-20h0c-1.56-4.07-3.39-6.77-4.93-7.77a.31.31,0,0,0-.45.39c2.11,4.41,2.89,13.67-4.59,29.64C164,349.36,173.22,352.62,173.52,352.72Z"/><path class="cls-22" d="M177.51,349.78h0a6,6,0,0,0,2.23.22c3.65-4,5.52-12.63,5.44-20.56a58.12,58.12,0,0,0-3.38-19.78c-.35,5-2,11.56-6,20.05C168,346.42,177.2,349.68,177.51,349.78Z"/><path class="cls-21" d="M178.66,352.21s6.83.76,6.92-11.68c-1.64,7-6.36,6.44-6.36,6.44-2.69-.37-3.84-2.73-3.95-5.9C174.05,346.62,174.64,351.66,178.66,352.21Z"/><path class="cls-20" d="M175.27,341.07c.11,3.17,1.26,5.53,3.95,5.9,0,0,4.72.51,6.36-6.44v-.9a52,52,0,0,1,.62-9.62c1.05-6.26,3.23-9.57,5.12-11.11a.17.17,0,0,0-.12-.31,7.35,7.35,0,0,0-3.33,1.62c-3.08,2.3-7.1,7-10.27,13.92A35,35,0,0,0,175.27,341.07Z"/><path class="cls-24" d="M166.59,328c1.45,3.41,4,7.09,6.9,12.89,2.81,5.61,2.81,9.11,2,11.25l.38-.11s6.79-2.38.8-14.34c-5.82-11.59-10.16-14.69-7.24-24.13a.14.14,0,0,0-.25-.13C165.7,318.55,166,322.21,166.59,328Z"/><path class="cls-25" d="M166.59,328c.23,2.31.48,5,.53,8.19.15,8.09,3.15,17.16,8.39,15.95.79-2.14.79-5.64-2-11.25C170.58,335.06,168,331.38,166.59,328Z"/><path class="cls-24" d="M177.35,352.68a4.2,4.2,0,0,0,2.84-3.67,3.64,3.64,0,0,1-1.27.7c-4.25,1-6-5.27-5.53-10.79a26.69,26.69,0,0,1,1.89-8.06,23.76,23.76,0,0,0-3.47,11C171.36,347.42,173.1,353.7,177.35,352.68Z"/><path class="cls-26" d="M178.92,349.71a3.64,3.64,0,0,0,1.27-.7,10.94,10.94,0,0,0-1.27-5.85c-3.54-7.75-2.73-12.16-1.41-14.2.06-.1,0-.21-.17-.16a5.9,5.9,0,0,0-2.06,2.06,26.69,26.69,0,0,0-1.89,8.06C172.94,344.44,174.67,350.73,178.92,349.71Z"/><polygon class="cls-6" points="191.44 349.25 156.21 349.25 158.46 342.32 189.19 342.32 191.44 349.25"/><polygon class="cls-6" points="189.25 351.28 186.16 386.18 161.48 386.18 158.4 351.28 189.25 351.28"/><rect class="cls-4" x="156.21" y="349.25" width="35.24" height="2.04"/><path class="cls-27" d="M234.36,77.57s-3.59,2.41-4-4.92a2.1,2.1,0,0,0,3.19,1c2.4-.56,4.53-5.16,1.75-19.83C239.24,71.61,237,77,234.36,77.57Z"/><path class="cls-23" d="M233.56,73.69a2.1,2.1,0,0,1-3.19-1h0a30.06,30.06,0,0,1,0-3.27c.58-11.27,0-12.2-.21-15.12-.51-7.45,3.62-7,4.84-1.67.1.44.19.86.29,1.28C238.09,68.53,236,73.13,233.56,73.69Z"/><path class="cls-25" d="M230.43,77.17a3.1,3.1,0,0,1-4-2.21,3.23,3.23,0,0,0,2.61.3c2.52-.19,3.08-8.8,0-14.28a8.71,8.71,0,0,1,1.14,1.5C233.55,67.93,233,77,230.43,77.17Z"/><path class="cls-24" d="M229.05,75.26a3.23,3.23,0,0,1-2.61-.3A9.57,9.57,0,0,1,226,72c-.17-6.69-.34-7.3-1.22-9-.78-1.54,1.45-4.91,4.27-2C232.13,66.46,231.57,75.07,229.05,75.26Z"/><path class="cls-28" d="M229.37,72.63a23.5,23.5,0,0,1,1.13,7.27"/><path class="cls-28" d="M234.07,67.46a55.07,55.07,0,0,1-.76,14.82"/><path class="cls-21" d="M242.5,72.47c.17,5.44-3.85,4.31-5.34,3.7a3.28,3.28,0,0,1-2.1-2.59,2.84,2.84,0,0,0,.47.37c1.33.93,5,2.9,6-2.45A10.34,10.34,0,0,1,245,66.25C243.72,68,242.43,70.24,242.5,72.47Z"/><path class="cls-20" d="M246.57,64.3a24.88,24.88,0,0,0-1.6,2,10.34,10.34,0,0,0-3.43,5.25c-1,5.35-4.68,3.38-6,2.45a2.84,2.84,0,0,1-.47-.37c-.59-3.3,2.68-8.32,6.54-11.48a9.32,9.32,0,0,1,1.22-.87,5.55,5.55,0,0,1,2.64-1C247.64,60.15,248.35,62.32,246.57,64.3Z"/><path class="cls-28" d="M239.4,69.93A49.83,49.83,0,0,0,237,80.62"/><path class="cls-27" d="M218.93,77.24s-2.57,2.42-3.86-3.43a1.71,1.71,0,0,0,2.7.42c1.86-.77,3-4.76-1.23-16.19C222.07,71.8,220.94,76.4,218.93,77.24Z"/><path class="cls-23" d="M217.77,74.23a1.71,1.71,0,0,1-2.7-.42h0a25.15,25.15,0,0,1-.43-2.64c-1-9.14-1.63-9.81-2.18-12.14-1.4-5.92,2-6.07,3.67-2,.14.34.28.66.41,1C220.73,69.47,219.63,73.46,217.77,74.23Z"/><path class="cls-25" d="M215.72,77.44a2.54,2.54,0,0,1-3.51-1.24,2.63,2.63,0,0,0,2.14-.11c2-.49,1.31-7.49-1.93-11.48a7,7,0,0,1,1.11,1C217,69.59,217.78,76.94,215.72,77.44Z"/><path class="cls-24" d="M214.35,76.09a2.63,2.63,0,0,1-2.14.11,7.75,7.75,0,0,1-.77-2.31c-1-5.36-1.25-5.83-2.19-7.12-.83-1.13.51-4.13,3.17-2.16C215.66,68.6,216.35,75.6,214.35,76.09Z"/><path class="cls-28" d="M214.26,73.93a19.41,19.41,0,0,1,1.87,5.7"/><path class="cls-28" d="M217.35,69.15a44.64,44.64,0,0,1,1.36,12"/><path class="cls-21" d="M224.8,72.06c.86,4.35-2.52,4-3.8,3.68a2.68,2.68,0,0,1-1.08-.47,2.78,2.78,0,0,1-1-1.33,3.62,3.62,0,0,0,.43.24c1.19.56,4.41,1.66,4.51-2.78A8.44,8.44,0,0,1,226,66.72,8.8,8.8,0,0,0,224.8,72.06Z"/><path class="cls-20" d="M227,64.94c-.28.44-.66,1.06-1,1.78a8.44,8.44,0,0,0-2.06,4.68c-.1,4.44-3.32,3.34-4.51,2.78a3.62,3.62,0,0,1-.43-.24c-.91-2.58,1.06-7.06,3.74-10.11a8.71,8.71,0,0,1,.86-.86,4.7,4.7,0,0,1,2-1.13C227.3,61.46,228.15,63.11,227,64.94Z"/><path class="cls-28" d="M222,70.42a41,41,0,0,0-.5,8.93"/><polygon class="cls-6" points="244.68 81.49 243.17 89.01 240.7 89.01 242.37 81.49 244.68 81.49"/><path class="cls-6" d="M242.37,81.49,240.7,89H209.09a.46.46,0,0,1-.45-.36l-1.43-7.16Z"/><path class="cls-15" d="M246.86,79.28l-.4,2a.26.26,0,0,1-.25.22h-3.84l.56-2.52h3.67A.26.26,0,0,1,246.86,79.28Z"/><path class="cls-15" d="M242.93,79l-.56,2.52H205.69a.26.26,0,0,1-.26-.22l-.4-2a.26.26,0,0,1,.25-.31Z"/><polygon class="cls-12" points="244.68 81.49 243.17 89.01 240.7 89.01 242.37 81.49 244.68 81.49"/><path class="cls-12" d="M246.86,79.28l-.4,2a.26.26,0,0,1-.25.22h-2.63l.56-2.52h2.46A.26.26,0,0,1,246.86,79.28Z"/><line class="cls-29" x1="240.7" y1="89.01" x2="240.01" y2="92.1"/><line class="cls-29" x1="243.2" y1="77.73" x2="242.93" y2="78.97"/><path class="cls-27" d="M235.68,135.5s3.58,2.41,4-4.91a2.1,2.1,0,0,1-3.19,1c-2.4-.56-4.53-5.16-1.75-19.83C230.79,129.55,233.08,134.9,235.68,135.5Z"/><path class="cls-23" d="M236.47,131.63a2.1,2.1,0,0,0,3.19-1h0a30.06,30.06,0,0,0,0-3.27c-.58-11.27,0-12.2.22-15.12.5-7.45-3.63-7-4.85-1.67-.1.44-.19.86-.29,1.28C231.94,126.47,234.07,131.07,236.47,131.63Z"/><path class="cls-25" d="M239.6,135.11a3.1,3.1,0,0,0,4-2.21,3.23,3.23,0,0,1-2.61.3c-2.52-.19-3.08-8.8,0-14.28a8.71,8.71,0,0,0-1.14,1.5C236.48,125.87,237,134.92,239.6,135.11Z"/><path class="cls-24" d="M241,133.2a3.23,3.23,0,0,0,2.61-.3,9.27,9.27,0,0,0,.48-3c.17-6.69.34-7.3,1.22-9,.78-1.54-1.44-4.91-4.27-2C237.9,124.4,238.46,133,241,133.2Z"/><path class="cls-28" d="M240.66,130.57a23.5,23.5,0,0,0-1.13,7.27"/><path class="cls-28" d="M236,125.4a54.82,54.82,0,0,0,.75,14.82"/><path class="cls-21" d="M227.53,130.41c-.17,5.44,3.85,4.31,5.35,3.7a3.58,3.58,0,0,0,1.2-.79,3.45,3.45,0,0,0,.89-1.8,2.84,2.84,0,0,1-.47.37c-1.33.92-5,2.9-6-2.45a10.28,10.28,0,0,0-3.43-5.25C226.31,125.89,227.61,128.18,227.53,130.41Z"/><path class="cls-20" d="M223.47,122.24a25.1,25.1,0,0,1,1.59,2,10.28,10.28,0,0,1,3.43,5.25c1,5.35,4.68,3.37,6,2.45a2.84,2.84,0,0,0,.47-.37c.59-3.3-2.68-8.32-6.54-11.48a10,10,0,0,0-1.21-.87,5.62,5.62,0,0,0-2.64-1C222.39,118.09,221.69,120.26,223.47,122.24Z"/><path class="cls-28" d="M230.63,127.87A50.19,50.19,0,0,1,233,138.56"/><path class="cls-27" d="M217.6,135.18s2.57,2.42,3.86-3.43a1.71,1.71,0,0,1-2.7.42c-1.86-.77-3-4.76,1.23-16.19C214.46,129.73,215.59,134.34,217.6,135.18Z"/><path class="cls-23" d="M218.76,132.17a1.71,1.71,0,0,0,2.7-.42h0a23,23,0,0,0,.42-2.64c1-9.14,1.64-9.81,2.19-12.14,1.4-5.92-2-6.07-3.68-2l-.4,1C215.8,127.41,216.9,131.4,218.76,132.17Z"/><path class="cls-25" d="M220.81,135.38a2.54,2.54,0,0,0,3.51-1.24,2.63,2.63,0,0,1-2.14-.11c-2-.49-1.31-7.49,1.93-11.49A7.62,7.62,0,0,0,223,123.6C219.53,127.53,218.75,134.88,220.81,135.38Z"/><path class="cls-24" d="M222.18,134a2.63,2.63,0,0,0,2.14.11,7.75,7.75,0,0,0,.77-2.31c1-5.36,1.25-5.83,2.19-7.12.83-1.13-.51-4.14-3.17-2.17C220.87,126.54,220.18,133.54,222.18,134Z"/><path class="cls-28" d="M222.27,131.87a19,19,0,0,0-1.87,5.7"/><path class="cls-28" d="M219.18,127.09a44.64,44.64,0,0,0-1.36,12"/><path class="cls-21" d="M211.73,130c-.87,4.35,2.52,4,3.8,3.68a2.67,2.67,0,0,0,2-1.8,3.62,3.62,0,0,1-.43.24c-1.19.56-4.42,1.66-4.51-2.78a8.44,8.44,0,0,0-2.06-4.68A8.87,8.87,0,0,1,211.73,130Z"/><path class="cls-20" d="M209.54,122.88c.28.44.66,1.05,1,1.78a8.44,8.44,0,0,1,2.06,4.68c.09,4.44,3.32,3.34,4.51,2.78a3.62,3.62,0,0,0,.43-.24c.91-2.58-1.06-7.06-3.74-10.11a8.71,8.71,0,0,0-.86-.86,4.7,4.7,0,0,0-2-1.13C209.23,119.4,208.37,121.05,209.54,122.88Z"/><path class="cls-28" d="M214.56,128.36a41.38,41.38,0,0,1,.49,8.93"/><polygon class="cls-6" points="244.68 139.43 243.17 146.95 240.7 146.95 242.37 139.43 244.68 139.43"/><path class="cls-6" d="M242.37,139.43,240.7,147H209.09a.46.46,0,0,1-.45-.36l-1.43-7.16Z"/><path class="cls-15" d="M246.86,137.22l-.4,2a.26.26,0,0,1-.25.22h-3.84l.56-2.52h3.67A.26.26,0,0,1,246.86,137.22Z"/><path class="cls-15" d="M242.93,136.91l-.56,2.52H205.69a.26.26,0,0,1-.26-.22l-.4-2a.26.26,0,0,1,.25-.31Z"/><polygon class="cls-12" points="244.68 139.43 243.17 146.95 240.7 146.95 242.37 139.43 244.68 139.43"/><path class="cls-12" d="M246.86,137.22l-.4,2a.26.26,0,0,1-.25.22h-2.63l.56-2.52h2.46A.26.26,0,0,1,246.86,137.22Z"/><line class="cls-29" x1="240.7" y1="146.95" x2="240.01" y2="150.04"/><line class="cls-29" x1="243.2" y1="135.67" x2="242.93" y2="136.91"/><circle class="cls-3" cx="401.27" cy="236.38" r="5.45"/><g class="cls-30"><path class="cls-14" d="M402.71,238.23l-.28.07-.34.06-.37,0h-.35a2.27,2.27,0,0,1-.72-.11,1.66,1.66,0,0,1-.54-.34,1.48,1.48,0,0,1-.33-.54,2,2,0,0,1-.12-.71,2.61,2.61,0,0,1,.1-.72,1.52,1.52,0,0,1,.29-.55,1.2,1.2,0,0,1,.46-.34,1.52,1.52,0,0,1,.62-.12,1.29,1.29,0,0,1,.35,0,1.76,1.76,0,0,1,.3.1v-1.48l.93-.15Zm-2.1-1.56a1.22,1.22,0,0,0,.19.69.68.68,0,0,0,.58.26h.23l.17,0V235.9a.76.76,0,0,0-.22-.1,1.43,1.43,0,0,0-.29,0Q400.61,235.77,400.61,236.67Z"/></g><polygon class="cls-31" points="367.23 226.49 361.47 226.49 355.7 226.49 267.7 314.49 179.7 226.49 173.94 226.49 168.18 226.49 -1.89 396.55 121.5 396.55 185.64 396.55 226.38 396.55 309.03 396.55 349.76 396.55 413.91 396.55 537.29 396.55 367.23 226.49"/><rect class="cls-32" x="272.84" y="63.41" width="74.96" height="74.63"/><path class="cls-20" d="M298.6,145.25c-1.39.8-3.33,3.19-4.18,9-.89,6.12-4.09,5.22-4.09,5.22l-.13,0c.85-.62,1.74-2,2.15-4.75.65-4.51,2-7,3.16-8.22a5.56,5.56,0,0,1,3.06-1.39A.08.08,0,0,1,298.6,145.25Z"/><path class="cls-21" d="M295.51,146.49c-1.2,1.26-2.51,3.71-3.16,8.22-.41,2.8-1.3,4.13-2.15,4.75-2.37-.89-1.1-5.15,1-8.28A19.27,19.27,0,0,1,295.51,146.49Z"/><path class="cls-22" d="M292.54,122.78c-.05,7.3-4.32,9.89-4,20.69.36,12.62,1.47,14.89,1.76,15.28a2.08,2.08,0,0,1-1.69.44s-1.41-.76-1.84-15.35c-.39-13.66,6.53-14.19,3-27.71,0-.16.09-.31.16-.18A18.9,18.9,0,0,1,292.54,122.78Z"/><path class="cls-23" d="M292.54,122.78c.77,4.38.33,9.38.89,17.36.53,7.61-.39,16.48-3.13,18.61-.29-.39-1.4-2.66-1.76-15.28C288.22,132.67,292.49,130.08,292.54,122.78Z"/><path class="cls-23" d="M290.39,160.55h0a4.16,4.16,0,0,1-4.63-.48,4.13,4.13,0,0,0,1.52-.48h0c.2-.11,6.12-3.72-1.76-14.22-4-5.34-6.1-9.7-7.07-13.11h0c.5-3.06,1.38-5.21,2.31-6.13a.22.22,0,0,1,.37.21c-.83,3.38,0,10,7.5,20C296.51,156.83,290.59,160.44,290.39,160.55Z"/><path class="cls-22" d="M287.18,159.08h0a4.33,4.33,0,0,1-1.52.48c-3.12-2.24-5.68-8-6.78-13.55a41.45,41.45,0,0,1-.52-14.28c1,3.42,3.07,7.77,7.07,13.11C293.3,155.36,287.38,159,287.18,159.08Z"/><path class="cls-21" d="M286.73,160.94s-4.65,1.52-6.52-7.14c2.16,4.61,5.37,3.56,5.37,3.56,1.82-.64,2.28-2.45,1.9-4.68C289.14,156.38,289.45,160,286.73,160.94Z"/><path class="cls-20" d="M287.48,152.68c.38,2.23-.08,4-1.9,4.68,0,0-3.21,1-5.37-3.56,0-.2-.09-.41-.13-.63a36.71,36.71,0,0,0-1.83-6.61c-1.64-4.22-3.64-6.21-5.18-7a.12.12,0,0,1,0-.23,5.19,5.19,0,0,1,2.56.65,26.19,26.19,0,0,1,9.18,8.21A25.53,25.53,0,0,1,287.48,152.68Z"/><path class="cls-24" d="M291.63,142.29c-.52,2.58-1.75,5.52-2.94,10-1.15,4.32-.64,6.75.23,8.13l-.28,0s-5.09-.67-2.65-9.88c2.38-8.93,4.95-11.72,1.54-17.88a.1.1,0,0,1,.16-.12C290.88,135.59,291.18,138.19,291.63,142.29Z"/><path class="cls-25" d="M291.63,142.29c.18,1.64.39,3.53.81,5.78,1.08,5.66.31,12.42-3.52,12.34-.87-1.38-1.38-3.81-.23-8.13C289.88,147.81,291.11,144.87,291.63,142.29Z"/><path class="cls-24" d="M287.72,161.08a3,3,0,0,1-2.52-2.15,2.63,2.63,0,0,0,1,.3c3.11.1,3.4-4.54,2.29-8.32a18.71,18.71,0,0,0-2.49-5.34,16.85,16.85,0,0,1,4,7.18C291.12,156.54,290.83,161.17,287.72,161.08Z"/><path class="cls-26" d="M286.19,159.23a2.63,2.63,0,0,1-1-.3,7.85,7.85,0,0,1,0-4.26c1.34-5.92.13-8.87-1.08-10.11-.06-.06,0-.15.09-.13a4,4,0,0,1,1.74,1.14,18.71,18.71,0,0,1,2.49,5.34C289.59,154.69,289.3,159.33,286.19,159.23Z"/><path class="cls-20" d="M294.78,150.28c1.72.56,4.41,2.76,6.69,9,2.39,6.55,5.72,4.83,5.72,4.83l.13-.08c-1.08-.49-2.37-1.76-3.46-4.75-1.76-4.83-3.77-7.24-5.38-8.35a6.39,6.39,0,0,0-3.7-.84A.1.1,0,0,0,294.78,150.28Z"/><path class="cls-21" d="M298.48,150.94c1.61,1.11,3.62,3.52,5.38,8.35,1.09,3,2.38,4.26,3.46,4.75,2.42-1.53,0-5.95-3-8.92A22,22,0,0,0,298.48,150.94Z"/><path class="cls-22" d="M296.3,124.06c1.74,8.05,7.05,9.93,9.18,21.94,2.5,14,1.8,16.79,1.57,17.28a2.38,2.38,0,0,0,2,.1s1.38-1.17-1.51-17.38c-2.7-15.18-10.47-14.17-9.69-29.92,0-.18-.17-.32-.22-.16A21.18,21.18,0,0,0,296.3,124.06Z"/><path class="cls-23" d="M296.3,124.06c.16,5,1.79,10.45,3,19.38,1.16,8.53,4.23,18.11,7.74,19.84.23-.49.93-3.26-1.57-17.28C303.35,134,298,132.11,296.3,124.06Z"/><path class="cls-23" d="M307.36,165.29h0a4.67,4.67,0,0,0,5-1.59,4.69,4.69,0,0,1-1.79-.18h0c-.24-.08-7.61-2.7-1.32-16.12,3.19-6.82,4.51-12.11,4.79-16.11h0c-1.25-3.27-2.72-5.44-4-6.25a.25.25,0,0,0-.36.32c1.69,3.54,2.32,11-3.69,23.81C299.75,162.59,307.12,165.21,307.36,165.29Z"/><path class="cls-22" d="M310.57,162.93h0a4.82,4.82,0,0,0,1.78.18c2.94-3.19,4.44-10.15,4.38-16.52A46.5,46.5,0,0,0,314,130.7c-.28,4-1.6,9.29-4.79,16.11C303,160.22,310.32,162.84,310.57,162.93Z"/><path class="cls-21" d="M311.49,164.88s5.49.6,5.57-9.39c-1.33,5.59-5.12,5.17-5.12,5.17-2.15-.29-3.08-2.19-3.17-4.74C307.79,160.39,308.26,164.43,311.49,164.88Z"/><path class="cls-20" d="M308.77,155.92c.09,2.55,1,4.45,3.17,4.74,0,0,3.79.42,5.12-5.17,0-.23,0-.48,0-.73a42.41,42.41,0,0,1,.5-7.72c.84-5,2.6-7.69,4.11-8.93a.14.14,0,0,0-.09-.25,5.92,5.92,0,0,0-2.68,1.31c-2.47,1.84-5.7,5.63-8.25,11.18A28.08,28.08,0,0,0,308.77,155.92Z"/><path class="cls-24" d="M301.8,145.4c1.16,2.74,3.2,5.69,5.54,10.36,2.26,4.51,2.26,7.31,1.62,9l.31-.08s5.46-1.92.64-11.52c-4.68-9.32-8.16-11.81-5.81-19.39a.12.12,0,0,0-.21-.1C301.08,137.83,301.35,140.77,301.8,145.4Z"/><path class="cls-25" d="M301.8,145.4c.18,1.86.38,4,.43,6.58.11,6.5,2.52,13.79,6.73,12.81.64-1.72.64-4.52-1.62-9C305,151.09,303,148.14,301.8,145.4Z"/><path class="cls-24" d="M310.44,165.26a3.39,3.39,0,0,0,2.29-2.95,3,3,0,0,1-1,.56c-3.42.81-4.81-4.23-4.45-8.67a21.31,21.31,0,0,1,1.51-6.48,19.23,19.23,0,0,0-2.78,8.87C305.63,161,307,166.07,310.44,165.26Z"/><path class="cls-26" d="M311.71,162.87a3,3,0,0,0,1-.56,8.87,8.87,0,0,0-1-4.7c-2.85-6.23-2.2-9.77-1.14-11.42.05-.07,0-.16-.14-.12a4.71,4.71,0,0,0-1.66,1.65,21.31,21.31,0,0,0-1.51,6.48C306.9,158.64,308.29,163.68,311.71,162.87Z"/><path class="cls-20" d="M341.61,146.22c-1.56.35-4.12,2.06-6.66,7.39-2.66,5.58-5.46,3.78-5.46,3.78l-.1-.08c1-.34,2.23-1.35,3.45-3.9,2-4.12,3.93-6.07,5.45-6.92a5.48,5.48,0,0,1,3.33-.42C341.69,146.09,341.68,146.2,341.61,146.22Z"/><path class="cls-21" d="M338.29,146.49c-1.52.85-3.49,2.8-5.45,6.92-1.22,2.55-2.46,3.56-3.45,3.9-2-1.55.47-5.25,3.4-7.62A19.51,19.51,0,0,1,338.29,146.49Z"/><path class="cls-22" d="M342.46,123c-2.2,7-7,8.17-9.94,18.58-3.38,12.17-3,14.67-2.83,15.12a2.06,2.06,0,0,1-1.75-.08s-1.12-1.14,2.79-15.21c3.66-13.16,10.43-11.62,11.06-25.58,0-.16.17-.27.21-.12A18.7,18.7,0,0,1,342.46,123Z"/><path class="cls-23" d="M342.46,123c-.56,4.42-2.46,9.07-4.28,16.85-1.74,7.43-5.24,15.62-8.49,16.85-.16-.45-.55-2.95,2.83-15.12C335.41,131.13,340.26,129.92,342.46,123Z"/><path class="cls-23" d="M329.25,158.41h0a4.15,4.15,0,0,1-4.28-1.82,4.06,4.06,0,0,0,1.59,0h0c.22-.05,6.95-1.75,2.52-14.11-2.24-6.29-3-11.07-2.88-14.62h0c1.38-2.78,2.86-4.58,4-5.18a.22.22,0,0,1,.29.31c-1.79,3-3,9.5,1.26,21.32C336.19,156.66,329.47,158.36,329.25,158.41Z"/><path class="cls-22" d="M326.62,156.06h0a4.26,4.26,0,0,1-1.59,0c-2.33-3.06-3.07-9.33-2.48-14.95a41.27,41.27,0,0,1,3.73-13.79c-.09,3.55.63,8.33,2.88,14.62C333.56,154.31,326.84,156,326.62,156.06Z"/><path class="cls-21" d="M325.64,157.7s-4.9.07-4.13-8.75c.7,5,4.09,5,4.09,5,1.92-.08,2.9-1.68,3.19-3.92C329.28,154.05,328.52,157.58,325.64,157.7Z"/><path class="cls-20" d="M328.79,150c-.29,2.24-1.27,3.84-3.19,3.92,0,0-3.39,0-4.09-5,0-.2,0-.42.07-.64a38.44,38.44,0,0,0,.21-6.86c-.33-4.51-1.65-7-2.88-8.22a.12.12,0,0,1,.1-.21,5.2,5.2,0,0,1,2.25,1.38A26.17,26.17,0,0,1,327.6,145,24.54,24.54,0,0,1,328.79,150Z"/><path class="cls-24" d="M335.82,141.33c-1.25,2.32-3.3,4.75-5.76,8.67s-2.6,6.27-2.18,7.84l-.26-.1s-4.66-2.15.39-10.22c4.91-7.83,8.19-9.73,6.76-16.62a.1.1,0,0,1,.19-.07C337.09,134.71,336.61,137.28,335.82,141.33Z"/><path class="cls-25" d="M335.82,141.33c-.31,1.62-.67,3.49-.93,5.77-.64,5.72-3.38,12-7,10.74-.42-1.57-.19-4.05,2.18-7.84S334.57,143.65,335.82,141.33Z"/><path class="cls-24" d="M326.53,158.12a3,3,0,0,1-1.77-2.79,2.75,2.75,0,0,0,.86.58c2.94,1,4.6-3.33,4.65-7.27a18.83,18.83,0,0,0-.8-5.85,16.87,16.87,0,0,1,1.71,8.06C331.13,154.79,329.48,159.13,326.53,158.12Z"/><path class="cls-26" d="M325.62,155.91a2.75,2.75,0,0,1-.86-.58,7.82,7.82,0,0,1,1.3-4.06c3-5.26,2.75-8.44,2-10,0-.07.05-.14.13-.1a4.17,4.17,0,0,1,1.32,1.6,18.83,18.83,0,0,1,.8,5.85C330.22,152.58,328.56,156.92,325.62,155.91Z"/><rect class="cls-3" x="284.15" y="169.97" width="6.62" height="4.01"/><rect class="cls-3" x="306.45" y="169.97" width="6.62" height="4.01"/><rect class="cls-3" x="328.76" y="169.97" width="6.62" height="4.01"/><path class="cls-6" d="M346.85,157.12v12.09a.76.76,0,0,1-.76.76H273.43a.76.76,0,0,1-.76-.76V157.12Z"/><path class="cls-15" d="M349,154.15H270.6l.52-1a.7.7,0,0,1,.61-.36h76.15a.67.67,0,0,1,.6.36Z"/><path class="cls-15" d="M349.39,157.12H270.21a.68.68,0,0,1-.61-1c.29-.59.67-1.34,1-2H349c.33.65.71,1.4,1,2A.68.68,0,0,1,349.39,157.12Z"/><path class="cls-12" d="M349,154.15H270.6l.52-1a.7.7,0,0,1,.61-.36h76.15a.67.67,0,0,1,.6.36Z"/><polygon class="cls-3" points="347.63 118.26 347.63 123.1 310.85 123.1 310.85 138.05 308.76 138.05 308.76 123.1 273.01 123.1 273.01 118.26 308.76 118.26 308.76 63.43 310.85 63.43 310.85 118.26 347.63 118.26"/><path class="cls-12" d="M462.53,199.55v2.91a2.4,2.4,0,0,1-2.39,2.4H160.51a2.4,2.4,0,0,1-2.39-2.4v-2.91Z"/><rect class="cls-12" x="183.33" y="28.85" width="250.76" height="6.75"/><path class="cls-3" d="M392.12,37.2v77.2a4,4,0,0,1-1.83-3.38V99H388.8v-5.2h1.49V66H388.8v-5.2h1.49V37.2Z"/><path class="cls-3" d="M398.36,31.45V60.83h1.49V66h-1.49V93.81h1.49V99h-1.49v12a4,4,0,0,1-6.24,3.38V37.2h-1.83V31.45H388.8v-5.2h1.49V20.43h8.07v5.82h1.49v5.2Z"/><path class="cls-3" d="M440.37,28.85H177.06a1.83,1.83,0,0,1-1.56-2.78l13.43-22a1.83,1.83,0,0,1,1.56-.88H426.94a1.83,1.83,0,0,1,1.56.88l13.43,22A1.83,1.83,0,0,1,440.37,28.85Z"/><path class="cls-12" d="M390.29,31.42v5.83h0V60.83H388.8V66h1.49V93.81H388.8V99h1.49v12a4,4,0,0,0,1.83,3.38v-83Z"/><rect class="cls-29" y="-570.72" width="1920" height="1080"/></svg>