<svg id="Capa_1" data-name="Capa 1" xmlns="http://www.w3.org/2000/svg" xmlns:xlink="http://www.w3.org/1999/xlink" viewBox="0 0 1920 1080"><defs><style>.cls-1,.cls-3{fill:none;}.cls-2{clip-path:url(#clip-path);}.cls-3{stroke:#282a54;stroke-miterlimit:10;}.cls-4{fill:#ffe839;opacity:0.25;}.cls-5{fill:#2d2d2d;}</style><clipPath id="clip-path"><rect class="cls-1" width="1920" height="1080"/></clipPath></defs><g class="cls-2"><line class="cls-3" x1="1688.87" y1="831.04" x2="1688.87" y2="828.8"/><rect class="cls-4" x="688.79" y="797.51" width="3.65" height="8.91"/><rect class="cls-4" x="703.24" y="797.51" width="3.65" height="8.91"/><rect class="cls-4" x="717.69" y="797.51" width="3.65" height="8.91"/><rect class="cls-4" x="732.13" y="797.51" width="3.65" height="8.91"/><path class="cls-5" d="M2098.8,805.38V752.07h-4.59v-20h-1.13V719H2092v33.11h-2.74V739.92H2087v12.15H2051.2l-9.65,9.66H2021l-6.07-6.07h-21.14v-3.59h-56.63c-1.72,0,0-254,0-254H1923.6V434.46l-7.2-7.2h-3.58V380.31h-2.37v46.95h-4.23l-20.06,20.07h-21.09V427.26h-5.63v20.07H1831v37.58l-29.9,29.88v66.1L1780,602V745.89h-50.22V757h-14.64v14.76h-16.7V756h-22.87l-10.07-10.07h-13.71V729.5h-5.62v16.39h-6.51V729.5H1634v16.39h-36v-9.54h-22.32l-6.26-6.25-9.53-9.53H1506l-22.76-22.77h-56.43L1415,686h-39.3v16.62h-40.5v-121H1321.6V565.15H1315v-7.38h-27.44v7.38H1267.6v16.48h-69.54V527.1h-17.9v11.95h-27.08v35.16h-17.22V554h-14.77V528.86h3v-2.34h-11.53v2.34h3V554h-10.4V503.7h-1.2V554H1073.1l-48,48v56.5h-6.53V635.65h-1.2V658.5h-16.08v37H959.77V635H933V496H905.36V464.3H900V445.47h-6.71v-18H769V397h-3.1v30.42H761v-40h4.89v-3.09H761v-9.54h4.89v-3.09H761v-8.9h-6.19v64.58H738.05V548.34H659.68V529.78H637.25v-8.32H606.31v8.32h-7.47v18.56H583.5V684.72H537.86V652.24H516.6V630.45h1.92v-3.09H516.6v-3.48h-6.19v3.48h-1.92v3.09h1.92v21.79H483.17c0-6.43.17-14.31.17-14.31H457.05v25.13h-6.18V652.24H437.33l-7.15,7.15H386.66L379.09,667H287.41v66.47H211.36L200,744.78H174.24v17.8H155.41V746H138.92V733.44H82.34V397H47.53V376.81H44.05V334.17l-6.19-3.54V397H-68.09v20.12l-5.23,5.22v31.9H-94.78s1.94,286.17,0,286.17h-63.81v4h-23.83l-6.84,6.84h-23.16l-10.87-10.87h-40.3V726.7h-2.54v13.71h-3.09V703.09h-1.27v14.77h-1.27v22.55h-5.17v60.07H-438.17v289.46H2241.89V805.38Z"/></g></svg>