<svg id="Capa_1" data-name="Capa 1" xmlns="http://www.w3.org/2000/svg" xmlns:xlink="http://www.w3.org/1999/xlink" viewBox="0 0 1920 1080"><defs><style>.cls-1,.cls-8{fill:none;}.cls-2{clip-path:url(#clip-path);}.cls-3{fill:#6d6d6d;}.cls-4{clip-path:url(#clip-path-2);}.cls-5,.cls-7{opacity:0.2;}.cls-5{fill:url(#Degradado_sin_nombre_21);}.cls-6{fill:#474747;}.cls-7{fill:url(#Degradado_sin_nombre_17);}.cls-8{stroke:#282a54;stroke-miterlimit:10;}</style><clipPath id="clip-path"><rect class="cls-1" x="-1940" width="1920" height="1080"/></clipPath><clipPath id="clip-path-2"><rect class="cls-1" width="1920" height="1080"/></clipPath><linearGradient id="Degradado_sin_nombre_21" x1="960.56" y1="94.83" x2="960.56" y2="928.83" gradientUnits="userSpaceOnUse"><stop offset="0.27" stop-color="#ffe839" stop-opacity="0"/><stop offset="0.32" stop-color="#ffe839" stop-opacity="0.02"/><stop offset="0.38" stop-color="#ffe839" stop-opacity="0.07"/><stop offset="0.45" stop-color="#ffe839" stop-opacity="0.16"/><stop offset="0.51" stop-color="#ffe839" stop-opacity="0.29"/><stop offset="0.58" stop-color="#ffe839" stop-opacity="0.45"/><stop offset="0.6" stop-color="#ffe839" stop-opacity="0.5"/></linearGradient><linearGradient id="Degradado_sin_nombre_17" x1="960.56" y1="-297.56" x2="960.56" y2="1996.97" gradientUnits="userSpaceOnUse"><stop offset="0.23" stop-color="#ffe839" stop-opacity="0"/><stop offset="0.3" stop-color="#ffe839" stop-opacity="0.13"/><stop offset="0.45" stop-color="#ffe839" stop-opacity="0.39"/><stop offset="0.52" stop-color="#ffe839" stop-opacity="0.5"/></linearGradient></defs><g class="cls-2"><path class="cls-3" d="M-2019.86,282.59s13.09-13.09,22.06-15.7,28.78-7.48,30.65-7.85,29.54-7.11,33.65-7.85,24.67-9.72,33.27-15,22.8-13.45,27.29-14.58,28.41-15,41.87-15,23.55,3,34.39,2.62,26.53-7.47,37.74-18.68l0,0c15.68-4.85,17.18-6,27.64-5.23s14.58-11.21,23.55-8.6S-1673,197-1661,208.92a.1.1,0,0,0,0,0c15.28,8.58,4.09,4.47,15.3,8.58,10.15,3.73,18.16,8.67,23.54.63a54.33,54.33,0,0,1,7.32-8.77c6.72-6.52,12.69-11.09,17.9-12.51a11,11,0,0,0,6-4.07c5.62-7.57,12.59-16.72,16.67-16.4,4.77.37,13.74-3.27,16.54-1.31s20.19,11.22,21.31,13.18l2.8-8.69s15.14-8.41,17.11-8.41,19.06,15.7,19.06,15.7l12.62-.28,14.3,7.57,12.61,2,20.19,9.53,15.42,1.12,10.1,1.13,23.83,2.24,8.41,7.85s29.16-7.29,39.53-6.73,31.68,3.93,32.52,3.93,21.31,1.4,21.31,1.4l20.75-6.73s36.45-5.33,45.7-3.37,14,5.05,14,5.05,33.92-20.46,49.9-21.31h0c10,4.86,13,4.87,13.6,4.79a.45.45,0,0,1,.28,0c2.62,1.23,39.09,18.48,53.69,27.12,3.64-2.8,11.77-3.64,11.77-3.64l8.41,8.32,11.5,6.82,24.67.28s20.19-20.19,69.53-19.91c25,7.57,59.16,19.07,59.16,19.07h0l21.31,9.53,36.73,12.06,10.37,2.52,18.51,12.34s12.89-7.29,28.59-5.05h0c10.65-4.49,14-5.61,15.7-5.89s16.82-.56,16.82-.56l6.45,2.25h8.69l9,5.32,9,2.81,11.78,14.11h19.06l18.79,15.05,30.28,21S-605.21,285.75-593,284a26.58,26.58,0,0,0,4.89-1.25c18.07-6.43,71.87-31.35,76.79-31.35,9.82-4.2,34.21-10.93,39.54-10.93,14.77,2.58,42.61-5.89,60.84-.28,16.26,5.33,46.26,12.34,52.15,17.66s22.19,16.74,23.5,20.84a.47.47,0,0,0,.24.28,57.63,57.63,0,0,0,9.62,3.55s25.24-4.76,38.13-1.12c9.54,7.85,28,15.42,28,15.42s33.4,10.49,53.37,14.4a68.33,68.33,0,0,1,8.07,2.1c15.5,5.07,32.49,8.06,49,6.78h0c17.64.84,27.45,4.48,49,4.2h.07c21.26,9,30.51,14.84,38.07,24.36l0,0c11.46,8.12,10.09,14.56,38.62,14.56l.08,0c21.28,9.52,28.67,14.66,44.36,15.22,16.82.37,39.25-5.61,41.31-6.92,13.64,2.06,20.56-3,27.29,5.61s24.48,19.62,32.89,22.43,27.85,9.16,34.77,9.9,21.12,2.06,24.11,5.8,0,664.7,0,664.7H-2019.86Z"/></g><g class="cls-4"><rect class="cls-5" x="1.13" y="311.89" width="1918.87" height="283.4"/><path class="cls-6" d="M1901,743.86l-12.48-12.48h-32.77V435.1h-36.41V413.77h-25.13l-4-4h-28.43V429.9H1746V573.79h-38.49v-90.5h-28.08V469l-33,5.2V439.86H1616v-9H1600.6l-26.19-26.19h-6.58v-2.39h-.78v-7h.78v-2.69h-.78v-1.65h-2.69v1.65h-.78v2.69h.78v7h-24.61v2.39H1529.3l-17,17v75.66H1460v-16h-13V376.28h-35.53V363.12l7.77-7.77H1425v-4.42l2.73-2.73v-5.07l3.47-1.65v-5.72l-17.16-4.85v-9.45h-13V305.12h1.39v-3.38h-1.39V291.08h1.39V287.7h-1.39V277h1.39v-3.38h-3V257.75h-1.69v15.91h-3V277h1.39V287.7h-1.39v3.38h1.39v10.66h-1.39v3.38h1.39v16.34h-13.57v7.89l-17.92,6.37v3.08l3.55,3.55v4.87l3.57,3.58v3.7h4.1l8,8v12.27h-19.81V392.1h-25.66v-8.67h-10.75V370.26h-38.83v-6.94h-14.56v-9.7H1243.8v9.7h-10.4v87.73h-29.12V421.68h-27.39V398h-12V386.86h-2.69V398h-11.32v27h-19.94V527.85l-23.75,23.75v28.95h-18.42V394.62h-29.51v-8.45H999.71v-10h-7.23V364h-2.69v12.17h-4.94v-4h-2.69v4h-7.29v6.24H922.34v13h-6.5v7.8H894.52V390.46H879.14v-3.6H870.3v3.6h-4.78V401.9h-3.9V261.21H849.15v-4.72a2.35,2.35,0,0,0,0-4.32v-7.73a2.35,2.35,0,0,0,0-4.32v-7.29h-1.82v7.29a2.34,2.34,0,0,0,0,4.32v7.73a2.34,2.34,0,0,0,0,4.32v4.72h-6.76v-4.72a2.35,2.35,0,0,0,0-4.32v-7.73a2.35,2.35,0,0,0,0-4.32v-7.29h-1.82v7.29a2.34,2.34,0,0,0,0,4.32v7.73a2.34,2.34,0,0,0,0,4.32v4.72H780.49V464.83H766.31V401.51L755,390.2V367.83H745V349.94h-2.68v17.89H698.05v-5.72h-4.94v-9.36H663v6.76H649.16V255.36h-8.57v-10h-8.84v10H580.38L572.71,263V282.8H541.5v20.28h-6.76V443.77h-14v6.5H508.09v61.24l-9.23,9.23V497.08h-6.24V447.93h-7V431.8h-4.68V424h-8.84v-9.62h-4.68V376.93h-6.76v-13h-6.45V353.06h-2.69v10.87h-5.16L419.8,314.78H407.58l-28.09,48.11v53.57H351.41v6.24l-4.16,3.38H332.6V403.89l-17.51-33.28-2.6,2.08L292.9,337.32H291l-2.19-22.84v22.84h-4v-8.79h-8.84v8.79h-3.29V314.48l-2.19,22.84h-3.37l-30.86,49.24H226.15v82.69H187.49v9.19H177.44v13.69H127.68V503.4h-18V588H31L1.13,586.79V1080H2077.34V743.86Z"/><rect class="cls-7" x="1.13" y="299.64" width="1918.87" height="779.71"/><line class="cls-8" x1="1688.87" y1="831.04" x2="1688.87" y2="828.8"/></g></svg>