<svg id="Capa_1" data-name="Capa 1" xmlns="http://www.w3.org/2000/svg" xmlns:xlink="http://www.w3.org/1999/xlink" viewBox="0 0 1920 1080"><defs><style>.cls-1,.cls-7{fill:none;}.cls-2{clip-path:url(#clip-path);}.cls-3{fill:#445887;}.cls-4{clip-path:url(#clip-path-2);}.cls-5{opacity:0.2;fill:url(#Degradado_sin_nombre_21);}.cls-6{fill:#333865;}.cls-7{stroke:#282a54;stroke-miterlimit:10;}.cls-8{clip-path:url(#clip-path-3);}.cls-9{fill:#2c2f59;}</style><clipPath id="clip-path"><rect class="cls-1" x="-1940" width="1920" height="1080"/></clipPath><clipPath id="clip-path-2"><rect class="cls-1" width="1920" height="1080"/></clipPath><linearGradient id="Degradado_sin_nombre_21" x1="960.56" y1="94.83" x2="960.56" y2="928.83" gradientUnits="userSpaceOnUse"><stop offset="0.27" stop-color="#ffe839" stop-opacity="0"/><stop offset="0.32" stop-color="#ffe839" stop-opacity="0.02"/><stop offset="0.38" stop-color="#ffe839" stop-opacity="0.07"/><stop offset="0.45" stop-color="#ffe839" stop-opacity="0.16"/><stop offset="0.51" stop-color="#ffe839" stop-opacity="0.29"/><stop offset="0.58" stop-color="#ffe839" stop-opacity="0.45"/><stop offset="0.6" stop-color="#ffe839" stop-opacity="0.5"/></linearGradient><clipPath id="clip-path-3"><rect class="cls-1" x="1940" width="1920" height="1080"/></clipPath></defs><g class="cls-2"><path class="cls-3" d="M-2019.86,282.59s13.09-13.08,22.06-15.7,28.78-7.48,30.65-7.85,29.54-7.1,33.65-7.85,24.67-9.72,33.27-14.95,22.8-13.46,27.29-14.58,28.41-15,41.87-15,23.55,3,34.39,2.62,26.53-7.47,37.74-18.68l0,0c15.68-4.85,17.18-6,27.64-5.23s14.58-11.21,23.55-8.59S-1673,197-1661,208.92a.1.1,0,0,0,0,0c15.28,8.58,4.09,4.47,15.3,8.58,10.15,3.73,18.16,8.68,23.54.63a54.33,54.33,0,0,1,7.32-8.77c6.72-6.52,12.69-11.09,17.9-12.51a11,11,0,0,0,6-4.07c5.62-7.57,12.59-16.72,16.67-16.4,4.77.38,13.74-3.27,16.54-1.31s20.19,11.22,21.31,13.18l2.8-8.69s15.14-8.41,17.11-8.41,19.06,15.7,19.06,15.7l12.62-.28,14.3,7.57,12.61,2,20.19,9.53,15.42,1.13,10.1,1.12,23.83,2.24,8.41,7.85s29.16-7.29,39.53-6.73,31.68,3.93,32.52,3.93,21.31,1.4,21.31,1.4l20.75-6.73s36.45-5.33,45.7-3.36,14,5,14,5,33.92-20.46,49.9-21.31h0c10,4.86,13,4.87,13.6,4.79a.45.45,0,0,1,.28,0c2.62,1.24,39.09,18.48,53.69,27.13,3.64-2.81,11.77-3.65,11.77-3.65l8.41,8.32,11.5,6.82,24.67.28s20.19-20.19,69.53-19.91c25,7.57,59.16,19.07,59.16,19.07h0l21.31,9.53,36.73,12.06,10.37,2.52,18.51,12.34s12.89-7.29,28.59-5.05h0c10.65-4.48,14-5.6,15.7-5.88s16.82-.57,16.82-.57l6.45,2.25h8.69l9,5.32,9,2.81,11.78,14.11h19.06l18.79,15.05,30.28,21S-605.21,285.75-593,284a26.58,26.58,0,0,0,4.89-1.25c18.07-6.43,71.87-31.34,76.79-31.34,9.82-4.21,34.21-10.94,39.54-10.94,14.77,2.58,42.61-5.89,60.84-.28,16.26,5.33,46.26,12.34,52.15,17.66s22.19,16.74,23.5,20.84a.45.45,0,0,0,.24.28,58.44,58.44,0,0,0,9.62,3.56s25.24-4.77,38.13-1.12c9.54,7.85,28,15.42,28,15.42s33.4,10.48,53.37,14.4a66.4,66.4,0,0,1,8.07,2.09c15.5,5.08,32.49,8.07,49,6.78h0c17.64.84,27.45,4.48,49,4.2l.07,0c21.26,8.95,30.51,14.84,38.07,24.35l0,0c11.46,8.12,10.09,14.56,38.62,14.56l.08,0c21.28,9.52,28.67,14.66,44.36,15.22,16.82.37,39.25-5.61,41.31-6.92,13.64,2.06,20.56-3,27.29,5.61s24.48,19.63,32.89,22.43,27.85,9.16,34.77,9.91,21.12,2.05,24.11,5.79,0,664.7,0,664.7H-2019.86Z"/></g><g class="cls-4"><rect class="cls-5" x="1.13" y="311.89" width="1918.87" height="283.4"/><path class="cls-6" d="M1901,743.86l-12.48-12.48h-32.77V435.1h-36.41V413.78h-25.13l-4-4h-28.43V429.9H1746V573.79h-38.49v-90.5h-28.08V469l-33,5.2V439.87H1616v-9H1600.6l-26.19-26.2h-6.58v-2.39h-.78v-7h.78v-2.69h-.78V390.9h-2.69v1.64h-.78v2.69h.78v7h-24.61v2.39H1529.3l-17,17.05v75.65H1460v-16h-13v-105h-35.53V363.12l7.77-7.77H1425v-4.42l2.73-2.73v-5.07l3.47-1.65v-5.72l-17.16-4.85v-9.45h-13V305.12h1.39v-3.38h-1.39V291.08h1.39V287.7h-1.39V277h1.39v-3.38h-3V257.75h-1.69v15.91h-3V277h1.39V287.7h-1.39v3.38h1.39v10.66h-1.39v3.38h1.39v16.34h-13.57v7.89l-17.92,6.37v3.09l3.55,3.54v4.88l3.57,3.57v3.71h4.1l8,8v12.27h-19.81V392.1h-25.66v-8.66h-10.75V370.26h-38.83v-6.93h-14.56v-9.71H1243.8v9.71h-10.4v87.72h-29.12V421.69h-27.39V398h-12V386.87h-2.69V398h-11.32v27h-19.94V527.85l-23.75,23.75v28.95h-18.42V394.62h-29.51v-8.45H999.71v-10h-7.23V364h-2.69v12.18h-4.94v-4h-2.69v4h-7.29v6.24H922.34v13h-6.5v7.8H894.52V390.46H879.14v-3.59H870.3v3.59h-4.78V401.9h-3.9V261.21H849.15v-4.72a2.35,2.35,0,0,0,0-4.32v-7.73a2.35,2.35,0,0,0,0-4.32v-7.29h-1.82v7.29a2.34,2.34,0,0,0,0,4.32v7.73a2.34,2.34,0,0,0,0,4.32v4.72h-6.76v-4.72a2.35,2.35,0,0,0,0-4.32v-7.73a2.35,2.35,0,0,0,0-4.32v-7.29h-1.82v7.29a2.34,2.34,0,0,0,0,4.32v7.73a2.34,2.34,0,0,0,0,4.32v4.72H780.49V464.83H766.31V401.51L755,390.2V367.83H745V349.94h-2.68v17.89H698.05v-5.72h-4.94v-9.36H663v6.76H649.16V255.36h-8.57v-10h-8.84v10H580.38L572.71,263V282.8H541.5v20.28h-6.76V443.77h-14v6.5H508.09v61.24l-9.23,9.23V497.08h-6.24V447.93h-7V431.81h-4.68V424h-8.84v-9.62h-4.68V376.94h-6.76v-13h-6.45V353.06h-2.69v10.87h-5.16L419.8,314.78H407.58l-28.09,48.11v53.57H351.41v6.24l-4.16,3.38H332.6V403.89l-17.51-33.28-2.6,2.08L292.9,337.32H291l-2.19-22.83v22.83h-4v-8.79h-8.84v8.79h-3.29V314.49l-2.19,22.83h-3.37l-30.86,49.24H226.15v82.69H187.49v9.19H177.44v13.7H127.68V503.4h-18V588H31L1.13,586.79V1080H2077.34V743.86Z"/><line class="cls-7" x1="1688.87" y1="831.04" x2="1688.87" y2="828.8"/></g><g class="cls-8"><path class="cls-9" d="M4038.8,805.38v-53.3h-4.59v-20h-1.13V719H4032v33.12h-2.74V739.92H4027v12.16H3991.2l-9.65,9.65H3961l-6.07-6.07h-21.14v-3.58h-56.63c-1.72,0,0-254,0-254H3863.6V434.47l-7.2-7.21h-3.58V380.31h-2.37v46.95h-4.23l-20.06,20.07h-21.09V427.26h-5.63v20.07H3771v37.58l-29.9,29.88v66.1L3720,602V745.89h-50.22V757h-14.64v14.77h-16.7V756h-22.87l-10.07-10.07h-13.71V729.51h-5.62v16.38h-6.51V729.51H3574v16.38h-36v-9.54h-22.32l-6.26-6.25-9.53-9.53H3446l-22.76-22.76h-56.43L3355,686h-39.3v16.62h-40.5v-121H3261.6V565.15H3255v-7.38h-27.44v7.38H3207.6v16.49h-69.54V527.1h-17.9v12h-27.08v35.15h-17.22V554h-14.77V528.86H3064v-2.34h-11.53v2.34h2.95V554h-10.4V503.7h-1.2V554H3013.1l-48,48v56.5h-6.53V635.65h-1.2V658.5h-16.08v37h-41.52V635H2873V496h-27.59V464.3H2840V445.47h-6.71v-18H2709V397h-3.1v30.42H2701v-40h4.89v-3.09H2701v-9.54h4.89v-3.09H2701v-8.9h-6.19v64.58h-16.76V548.34h-78.37V529.78h-22.43v-8.32h-30.94v8.32h-7.47v18.56H2523.5V684.72h-45.64V652.25H2456.6v-21.8h1.92v-3.09h-1.92v-3.48h-6.19v3.48h-1.92v3.09h1.92v21.8h-27.24c0-6.44.17-14.32.17-14.32h-26.29v25.13h-6.18V652.25h-13.54l-7.15,7.14h-43.52l-7.57,7.58h-91.68v66.47h-76L2140,744.79h-25.78v17.79h-18.83V746h-16.49V733.44h-56.58V397h-34.81v-20.2h-3.48V334.17l-6.19-3.54V397H1871.91v20.11l-5.23,5.23v31.89h-21.46s1.94,286.17,0,286.17h-63.81v4h-23.83l-6.84,6.84h-23.16l-10.87-10.87h-40.3V726.7h-2.54v13.71h-3.09V703.09h-1.27v14.77h-1.27v22.55h-5.17v60.07H1501.83V1090H4181.89V805.38Z"/></g></svg>