<svg id="Capa_1" data-name="Capa 1" xmlns="http://www.w3.org/2000/svg" xmlns:xlink="http://www.w3.org/1999/xlink" viewBox="0 0 1920 1080"><defs><style>.cls-1,.cls-5{fill:none;}.cls-2{clip-path:url(#clip-path);}.cls-3{fill:#474747;}.cls-4{opacity:0.2;fill:url(#Degradado_sin_nombre_17);}.cls-5{stroke:#282a54;stroke-miterlimit:10;}</style><clipPath id="clip-path"><rect class="cls-1" width="1920" height="1080"/></clipPath><linearGradient id="Degradado_sin_nombre_17" x1="960.56" y1="-297.56" x2="960.56" y2="1996.97" gradientUnits="userSpaceOnUse"><stop offset="0.23" stop-color="#ffe839" stop-opacity="0"/><stop offset="0.3" stop-color="#ffe839" stop-opacity="0.13"/><stop offset="0.45" stop-color="#ffe839" stop-opacity="0.39"/><stop offset="0.52" stop-color="#ffe839" stop-opacity="0.5"/></linearGradient></defs><g class="cls-2"><path class="cls-3" d="M1901,743.86l-12.48-12.48h-32.77V435.1h-36.41V413.77h-25.13l-4-4h-28.43V429.9H1746V573.79h-38.49v-90.5h-28.08V469l-33,5.2V439.86H1616v-9H1600.6l-26.19-26.19h-6.58v-2.39h-.78v-7h.78v-2.69h-.78v-1.65h-2.69v1.65h-.78v2.69h.78v7h-24.61v2.39H1529.3l-17,17v75.66H1460v-16h-13V376.28h-35.53V363.12l7.77-7.77H1425v-4.42l2.73-2.73v-5.07l3.47-1.65v-5.72l-17.16-4.85v-9.45h-13V305.12h1.39v-3.38h-1.39V291.08h1.39V287.7h-1.39V277h1.39v-3.38h-3V257.75h-1.69v15.91h-3V277h1.39V287.7h-1.39v3.38h1.39v10.66h-1.39v3.38h1.39v16.34h-13.57v7.89l-17.92,6.37v3.08l3.55,3.55v4.87l3.57,3.58v3.7h4.1l8,8v12.27h-19.81V392.1h-25.66v-8.67h-10.75V370.26h-38.83v-6.94h-14.56v-9.7H1243.8v9.7h-10.4v87.73h-29.12V421.68h-27.39V398h-12V386.86h-2.69V398h-11.32v27h-19.94V527.85l-23.75,23.75v28.95h-18.42V394.62h-29.51v-8.45H999.71v-10h-7.23V364h-2.69v12.17h-4.94v-4h-2.69v4h-7.29v6.24H922.34v13h-6.5v7.8H894.52V390.46H879.14v-3.6H870.3v3.6h-4.78V401.9h-3.9V261.21H849.15v-4.72a2.35,2.35,0,0,0,0-4.32v-7.73a2.35,2.35,0,0,0,0-4.32v-7.29h-1.82v7.29a2.34,2.34,0,0,0,0,4.32v7.73a2.34,2.34,0,0,0,0,4.32v4.72h-6.76v-4.72a2.35,2.35,0,0,0,0-4.32v-7.73a2.35,2.35,0,0,0,0-4.32v-7.29h-1.82v7.29a2.34,2.34,0,0,0,0,4.32v7.73a2.34,2.34,0,0,0,0,4.32v4.72H780.49V464.83H766.31V401.51L755,390.2V367.83H745V349.94h-2.68v17.89H698.05v-5.72h-4.94v-9.36H663v6.76H649.16V255.36h-8.57v-10h-8.84v10H580.38L572.71,263V282.8H541.5v20.28h-6.76V443.77h-14v6.5H508.09v61.24l-9.23,9.23V497.08h-6.24V447.93h-7V431.8h-4.68V424h-8.84v-9.62h-4.68V376.93h-6.76v-13h-6.45V353.06h-2.69v10.87h-5.16L419.8,314.78H407.58l-28.09,48.11v53.57H351.41v6.24l-4.16,3.38H332.6V403.89l-17.51-33.28-2.6,2.08L292.9,337.32H291l-2.19-22.84v22.84h-4v-8.79h-8.84v8.79h-3.29V314.48l-2.19,22.84h-3.37l-30.86,49.24H226.15v82.69H187.49v9.19H177.44v13.69H127.68V503.4h-18V588H31L1.13,586.79V1080H2077.34V743.86Z"/><rect class="cls-4" x="1.13" y="299.64" width="1918.87" height="779.71"/><line class="cls-5" x1="1688.87" y1="831.04" x2="1688.87" y2="828.8"/></g></svg>