<svg id="Capa_1" data-name="Capa 1" xmlns="http://www.w3.org/2000/svg" viewBox="0 0 200 200"><defs><style>.cls-1{fill:#131313;}.cls-2{fill:#ea5a40;}</style></defs><path class="cls-1" d="M126.59,184.72a20.71,20.71,0,0,1-7.13-1.27L39.52,154.64A21,21,0,0,1,26.91,127.8L53.72,53.47a21.07,21.07,0,0,1,11.12-12l53.93-24.31a20.87,20.87,0,0,1,27.45,9.9l26,53.15a21,21,0,0,1,.88,16.32l-26.8,74.34a21,21,0,0,1-19.71,13.85Zm.82-157.6a9.06,9.06,0,0,0-3.77.82L69.69,52.25a9.2,9.2,0,0,0-4.84,5.24L38,131.82a9.13,9.13,0,0,0,5.5,11.68l79.94,28.83a9.09,9.09,0,0,0,11.68-5.48L162,92.52a9.13,9.13,0,0,0-.38-7.12l-26-53.14A9.08,9.08,0,0,0,127.41,27.12Z"/><path class="cls-2" d="M89.43,105.1a17.7,17.7,0,0,1-5.94-1A17.45,17.45,0,0,1,95.34,71.24a17.49,17.49,0,0,1,10.49,22.33h0a17.48,17.48,0,0,1-16.4,11.53Zm0-23.07a5.64,5.64,0,0,0-2.4.54,5.55,5.55,0,0,0-2.88,3.17,5.62,5.62,0,0,0,.19,4.3,5.55,5.55,0,0,0,3.18,2.89,5.68,5.68,0,0,0,4.3-.19,5.56,5.56,0,0,0,2.88-3.18h0a5.62,5.62,0,0,0-3.37-7.19A5.48,5.48,0,0,0,89.42,82Z"/><path class="cls-2" d="M110,152.89a17.66,17.66,0,0,1-5.9-1,17.48,17.48,0,0,1-10.49-22.34,17.45,17.45,0,1,1,32.82,11.85h0A17.47,17.47,0,0,1,110,152.89Zm0-23.06a5.63,5.63,0,0,0-5.27,3.72,5.62,5.62,0,0,0,3.38,7.18,5.56,5.56,0,0,0,7.18-3.37h0a5.63,5.63,0,0,0-.19-4.3,5.55,5.55,0,0,0-3.19-2.88A5.34,5.34,0,0,0,110,129.83Z"/><path class="cls-2" d="M72.8,130.14a5.91,5.91,0,0,1-2.52-11.26L124.7,93.31a5.92,5.92,0,0,1,5,10.71L75.31,129.57A5.81,5.81,0,0,1,72.8,130.14Z"/><circle class="cls-1" cx="126.21" cy="39.52" r="5.72"/></svg>