<svg id="Capa_1" data-name="Capa 1" xmlns="http://www.w3.org/2000/svg" viewBox="0 0 200 200"><defs><style>.cls-1{fill:#131313;}.cls-2{fill:#ea5a40;}</style></defs><path class="cls-1" d="M59.93,184.72a7.33,7.33,0,0,1-7.34-7.34V138a7.35,7.35,0,0,1,14.69,0v39.35A7.34,7.34,0,0,1,59.93,184.72Z"/><path class="cls-1" d="M113.35,184.72a7.33,7.33,0,0,1-7.34-7.34V114.44a7.34,7.34,0,0,1,14.68,0v62.94A7.33,7.33,0,0,1,113.35,184.72Z"/><path class="cls-1" d="M140.07,184.72a7.34,7.34,0,0,1-7.35-7.34V83.15a7.35,7.35,0,0,1,14.69,0v94.23A7.34,7.34,0,0,1,140.07,184.72Z"/><path class="cls-1" d="M86.65,184.72a7.33,7.33,0,0,1-7.34-7.34V83.15a7.34,7.34,0,1,1,14.68,0v94.23A7.33,7.33,0,0,1,86.65,184.72Z"/><path class="cls-2" d="M37.82,84.06a7.35,7.35,0,0,1-4-13.51L76,43.16a7.35,7.35,0,0,1,6.57-.73l32.68,12.16L157.3,17.14a7.34,7.34,0,1,1,9.75,11L121.68,68.5a7.34,7.34,0,0,1-7.44,1.4L80.88,57.48,41.82,82.87A7.24,7.24,0,0,1,37.82,84.06Z"/></svg>