<svg id="Capa_1" data-name="Capa 1" xmlns="http://www.w3.org/2000/svg" viewBox="0 0 200 200"><defs><style>.cls-1{fill:#131313;}.cls-2{fill:#ea5a40;}</style></defs><path class="cls-1" d="M126.05,121.19a42.2,42.2,0,0,0-2.84-6.36,66.61,66.61,0,0,0-21.58-25.54A44.2,44.2,0,0,0,96,85.77h-.09a45.91,45.91,0,0,0-6.7-3,29.38,29.38,0,0,1-16.42,5A29.74,29.74,0,0,1,56,82.59a33.35,33.35,0,0,0-6.7,2.92A37,37,0,0,0,43.52,89c-13.67,9.2-24.33,25-28.8,44.36A24,24,0,0,0,19,153.69a16.77,16.77,0,0,0,13.32,6.79h79.87a17.68,17.68,0,0,0,2.14-.17,15,15,0,0,0,5.76-1.9l1.29-7.65a5.06,5.06,0,0,0-1.54-4.73l-3-3a9.49,9.49,0,0,1-1.38,2.57,4.72,4.72,0,0,1-2,1.64,2,2,0,0,1-1.28.34H32.34a4.24,4.24,0,0,1-3.27-2,11.28,11.28,0,0,1-1.8-9.37c4.21-18.31,14.87-32.66,28-39.37a34.52,34.52,0,0,1,9.8-3.53h.09a33.37,33.37,0,0,1,7.14-.77,31.94,31.94,0,0,1,7.56.86c.09.09.17.09.17,0a37,37,0,0,1,9.72,3.7c9,4.73,16.85,13.07,22.09,23.9a54,54,0,0,1,2.32,5.07q1,2.58,1.81,5.16l9.2-1.38a5.11,5.11,0,0,0,3.26-1.89v-.09A55.94,55.94,0,0,0,126.05,121.19Z"/><path class="cls-1" d="M72.75,21.72A36.22,36.22,0,0,0,49.28,85.51a34.29,34.29,0,0,0,15.81,7.82h.09a31.06,31.06,0,0,0,7.57.86,32.12,32.12,0,0,0,7.13-.77c.09.09.17.09.17,0a35.35,35.35,0,0,0,15.82-7.65H96a36.25,36.25,0,0,0-23.21-64Zm16.42,61a29.38,29.38,0,0,1-16.42,5,29.84,29.84,0,1,1,16.42-5Z"/><path class="cls-1" d="M72.75,15.28A42.7,42.7,0,0,0,30.11,58a42.76,42.76,0,0,0,42.64,42.64,43.5,43.5,0,0,0,17-3.52,44.35,44.35,0,0,0,11.86-7.83,42.64,42.64,0,0,0-28.88-74ZM89.17,82.76a29.38,29.38,0,0,1-16.42,5,29.84,29.84,0,1,1,16.42-5Z"/><path class="cls-2" d="M180.64,128.93l-29.75-4.39L137.65,97.63l-11.6,23.56-1.64,3.35-10.23,1.55-19.51,2.84,18.82,18.31,2.67,2.58-1.81,10.49-3.26,19.08,26.56-13.93,26.57,13.93-5.08-29.57Zm-40.49,31.8a5.24,5.24,0,0,0-2.5-.6,5.17,5.17,0,0,0-2.49.6l-16.94,8.86,1.89-11.18,1.29-7.65a5.06,5.06,0,0,0-1.54-4.73l-3-3-10.66-10.41,9.8-1.37,9.2-1.38a5.11,5.11,0,0,0,3.26-1.89v-.09a2.32,2.32,0,0,0,.69-.94l8.51-17.19L146.16,127a5.35,5.35,0,0,0,4,2.92l19,2.75L155.45,146a5.09,5.09,0,0,0-1.55,4.73l3.18,18.83Z"/><path class="cls-2" d="M185.71,127.21a5.3,5.3,0,0,0-4.3-3.61l-26.91-3.87-12-24.42c-1.81-3.69-7.83-3.69-9.63,0l-9.63,19.52-2.41,4.9L111.86,121l-18,2.58a5.3,5.3,0,0,0-4.29,3.61,5.38,5.38,0,0,0,1.37,5.5l15.22,14.87,4.21,4.13-1.46,8.77-3.1,18.05a5.15,5.15,0,0,0,2.15,5.16,5.28,5.28,0,0,0,5.59.43l24.07-12.64,24.07,12.64a5.13,5.13,0,0,0,2.5.6,5,5,0,0,0,3.09-1,5.15,5.15,0,0,0,2.15-5.16l-4.56-26.82,19.43-19A5.41,5.41,0,0,0,185.71,127.21ZM155.45,146a5.09,5.09,0,0,0-1.55,4.73l3.18,18.83-16.93-8.86a5.24,5.24,0,0,0-2.5-.6,5.17,5.17,0,0,0-2.49.6l-16.94,8.86,1.89-11.18,1.29-7.65a5.06,5.06,0,0,0-1.54-4.73l-3-3-10.66-10.41,9.8-1.37,9.2-1.38a5.11,5.11,0,0,0,3.26-1.89v-.09a2.32,2.32,0,0,0,.69-.94l8.51-17.19L146.16,127a5.35,5.35,0,0,0,4,2.92l19,2.75Z"/></svg>